<svg width="33" height="32" viewBox="0 0 33 32" fill="none" xmlns="http://www.w3.org/2000/svg">
<g filter="url(#filter0_ii_1645_28955)">
<rect x="7.72656" y="4.10938" width="20.3047" height="25.7891" rx="1.4" fill="url(#paint0_linear_1645_28955)"/>
<rect x="7.72656" y="4.10938" width="20.3047" height="25.7891" rx="1.4" fill="url(#paint1_linear_1645_28955)"/>
</g>
<g filter="url(#filter1_f_1645_28955)">
<path d="M19.4949 4.10938H9.39092C8.67667 4.10938 8.09766 4.73618 8.09766 5.50937V28.4984C8.09766 28.5491 8.10014 28.5992 8.10499 28.6485H22.9591C23.6198 28.6485 24.1554 28.0687 24.1554 27.3535V9.53761C24.1554 9.29229 24.0654 9.05702 23.9051 8.88355L19.4949 4.10938Z" fill="#91879F"/>
</g>
<g filter="url(#filter2_iiii_1645_28955)">
<path d="M18.3668 2.3886C18.1933 2.21513 17.9581 2.11768 17.7127 2.11768H5.4395C4.72431 2.11768 4.14453 2.69746 4.14453 3.41265V26.6427C4.14453 27.3579 4.72431 27.9377 5.4395 27.9377H23.1269C23.8421 27.9377 24.4219 27.3579 24.4219 26.6427V8.82682C24.4219 8.5815 24.3244 8.34622 24.151 8.17275L18.3668 2.3886Z" fill="url(#paint2_linear_1645_28955)"/>
</g>
<g filter="url(#filter3_f_1645_28955)">
<path d="M17.751 2.50048C17.751 2.31419 17.8045 2.19521 17.7031 2.17529C17.7995 2.18143 17.9396 2.21635 18.0283 2.25117C18.1423 2.29593 18.0016 2.39475 18.0908 2.48189C18.0934 2.48443 18.096 2.48699 18.0986 2.48957L23.8827 8.27373C23.9003 8.29137 23.9172 8.30964 23.9332 8.32849C24.0122 8.42132 24.0716 8.52829 24.1087 8.64294C24.1382 8.73413 24.1536 8.83017 24.1536 8.92779V8.9862C24.1536 8.77142 23.9983 8.64294 23.8827 8.64294H18.861C18.248 8.64294 17.751 8.14598 17.751 7.53297V2.50048Z" fill="#D2C5DF"/>
</g>
<g filter="url(#filter4_ii_1645_28955)">
<path d="M18.0171 2.39909C18.0171 2.2128 17.8709 2.13906 17.7695 2.11914C17.8659 2.12528 17.96 2.14642 18.0487 2.18124C18.1626 2.226 18.2676 2.29337 18.3569 2.38051C18.3595 2.38305 18.3621 2.3856 18.3646 2.38818L24.1488 8.17234C24.1664 8.18998 24.1833 8.20825 24.1993 8.22711C24.2783 8.31993 24.3376 8.4269 24.3748 8.54155C24.4043 8.63274 24.4197 8.72878 24.4197 8.8264V8.88481C24.4197 8.67003 24.2643 8.54155 24.1488 8.54155H19.1271C18.5141 8.54155 18.0171 8.0446 18.0171 7.43158V2.39909Z" fill="url(#paint3_linear_1645_28955)"/>
</g>
<path d="M18.0171 2.39909C18.0171 2.2128 17.8709 2.13906 17.7695 2.11914C17.8659 2.12528 17.96 2.14642 18.0487 2.18124C18.1626 2.226 18.2676 2.29337 18.3569 2.38051C18.3595 2.38305 18.3621 2.3856 18.3646 2.38818L24.1488 8.17234C24.1664 8.18998 24.1833 8.20825 24.1993 8.22711C24.2783 8.31993 24.3376 8.4269 24.3748 8.54155C24.4043 8.63274 24.4197 8.72878 24.4197 8.8264V8.88481C24.4197 8.67003 24.2643 8.54155 24.1488 8.54155H19.1271C18.5141 8.54155 18.0171 8.0446 18.0171 7.43158V2.39909Z" fill="url(#paint4_linear_1645_28955)"/>
<rect x="7.84375" y="11.3237" width="12.8703" height="0.917756" rx="0.458878" fill="url(#paint5_linear_1645_28955)"/>
<rect x="7.84375" y="14.0991" width="12.8703" height="0.917756" rx="0.458878" fill="url(#paint6_linear_1645_28955)"/>
<rect x="7.84375" y="16.874" width="12.8703" height="0.917756" rx="0.458878" fill="url(#paint7_linear_1645_28955)"/>
<rect x="7.84375" y="19.6489" width="8.31039" height="0.917756" rx="0.458878" fill="url(#paint8_linear_1645_28955)"/>
<g filter="url(#filter5_f_1645_28955)">
<path d="M24.2938 13.4844H22.9118C22.7762 13.4844 22.647 13.5447 22.5563 13.6502L21.6549 14.7001C21.5734 14.7951 21.5734 14.9392 21.6549 15.0343L22.5563 16.0841C22.647 16.1897 22.7762 16.25 22.9118 16.25H24.2938V13.4844Z" fill="#BAA8C1"/>
</g>
<g filter="url(#filter6_ii_1645_28955)">
<path d="M23.1321 13.3221C23.227 13.2165 23.3622 13.1562 23.5041 13.1562H26.8046C26.9426 13.1562 27.0546 13.2682 27.0546 13.4062V15.6719C27.0546 15.8099 26.9426 15.9219 26.8046 15.9219H23.5041C23.3622 15.9219 23.227 15.8616 23.1321 15.756L22.189 14.7061C22.1037 14.6111 22.1037 14.467 22.189 14.372L23.1321 13.3221Z" fill="url(#paint9_linear_1645_28955)"/>
<path d="M23.1321 13.3221C23.227 13.2165 23.3622 13.1562 23.5041 13.1562H26.8046C26.9426 13.1562 27.0546 13.2682 27.0546 13.4062V15.6719C27.0546 15.8099 26.9426 15.9219 26.8046 15.9219H23.5041C23.3622 15.9219 23.227 15.8616 23.1321 15.756L22.189 14.7061C22.1037 14.6111 22.1037 14.467 22.189 14.372L23.1321 13.3221Z" fill="url(#paint10_linear_1645_28955)"/>
</g>
<g filter="url(#filter7_f_1645_28955)">
<path d="M27.9374 20.4883V23.2539H25.9314C25.7933 23.2539 25.6618 23.1936 25.5695 23.088L24.6521 22.0382C24.5691 21.9431 24.5691 21.799 24.6521 21.704L25.5695 20.6541C25.6618 20.5486 25.7933 20.4883 25.9314 20.4883H27.9374Z" fill="#91879F"/>
</g>
<g filter="url(#filter8_ii_1645_28955)">
<path d="M26.1165 20.2752C26.2113 20.1697 26.3466 20.1094 26.4885 20.1094H29.7889C29.927 20.1094 30.0389 20.2213 30.0389 20.3594V22.625C30.0389 22.7631 29.927 22.875 29.7889 22.875H26.4885C26.3466 22.875 26.2113 22.8147 26.1165 22.7091L25.1734 21.6593C25.088 21.5642 25.088 21.4201 25.1734 21.3251L26.1165 20.2752Z" fill="url(#paint11_linear_1645_28955)"/>
<path d="M26.1165 20.2752C26.2113 20.1697 26.3466 20.1094 26.4885 20.1094H29.7889C29.927 20.1094 30.0389 20.2213 30.0389 20.3594V22.625C30.0389 22.7631 29.927 22.875 29.7889 22.875H26.4885C26.3466 22.875 26.2113 22.8147 26.1165 22.7091L25.1734 21.6593C25.088 21.5642 25.088 21.4201 25.1734 21.3251L26.1165 20.2752Z" fill="url(#paint12_linear_1645_28955)"/>
</g>
<defs>
<filter id="filter0_ii_1645_28955" x="7.62656" y="4.00937" width="20.5047" height="25.9891" filterUnits="userSpaceOnUse" color-interpolation-filters="sRGB">
<feFlood flood-opacity="0" result="BackgroundImageFix"/>
<feBlend mode="normal" in="SourceGraphic" in2="BackgroundImageFix" result="shape"/>
<feColorMatrix in="SourceAlpha" type="matrix" values="0 0 0 0 0 0 0 0 0 0 0 0 0 0 0 0 0 0 127 0" result="hardAlpha"/>
<feOffset dx="0.1" dy="-0.1"/>
<feGaussianBlur stdDeviation="0.05"/>
<feComposite in2="hardAlpha" operator="arithmetic" k2="-1" k3="1"/>
<feColorMatrix type="matrix" values="0 0 0 0 0.596078 0 0 0 0 0.529412 0 0 0 0 0.67451 0 0 0 1 0"/>
<feBlend mode="normal" in2="shape" result="effect1_innerShadow_1645_28955"/>
<feColorMatrix in="SourceAlpha" type="matrix" values="0 0 0 0 0 0 0 0 0 0 0 0 0 0 0 0 0 0 127 0" result="hardAlpha"/>
<feOffset dx="-0.1" dy="0.1"/>
<feGaussianBlur stdDeviation="0.1"/>
<feComposite in2="hardAlpha" operator="arithmetic" k2="-1" k3="1"/>
<feColorMatrix type="matrix" values="0 0 0 0 0.811765 0 0 0 0 0.8 0 0 0 0 0.827451 0 0 0 1 0"/>
<feBlend mode="normal" in2="effect1_innerShadow_1645_28955" result="effect2_innerShadow_1645_28955"/>
</filter>
<filter id="filter1_f_1645_28955" x="7.09766" y="3.10938" width="18.0586" height="26.5391" filterUnits="userSpaceOnUse" color-interpolation-filters="sRGB">
<feFlood flood-opacity="0" result="BackgroundImageFix"/>
<feBlend mode="normal" in="SourceGraphic" in2="BackgroundImageFix" result="shape"/>
<feGaussianBlur stdDeviation="0.5" result="effect1_foregroundBlur_1645_28955"/>
</filter>
<filter id="filter2_iiii_1645_28955" x="4.04453" y="1.81768" width="20.6773" height="26.2198" filterUnits="userSpaceOnUse" color-interpolation-filters="sRGB">
<feFlood flood-opacity="0" result="BackgroundImageFix"/>
<feBlend mode="normal" in="SourceGraphic" in2="BackgroundImageFix" result="shape"/>
<feColorMatrix in="SourceAlpha" type="matrix" values="0 0 0 0 0 0 0 0 0 0 0 0 0 0 0 0 0 0 127 0" result="hardAlpha"/>
<feOffset dx="0.3" dy="-0.3"/>
<feGaussianBlur stdDeviation="0.3"/>
<feComposite in2="hardAlpha" operator="arithmetic" k2="-1" k3="1"/>
<feColorMatrix type="matrix" values="0 0 0 0 0.807843 0 0 0 0 0.768627 0 0 0 0 0.85098 0 0 0 1 0"/>
<feBlend mode="normal" in2="shape" result="effect1_innerShadow_1645_28955"/>
<feColorMatrix in="SourceAlpha" type="matrix" values="0 0 0 0 0 0 0 0 0 0 0 0 0 0 0 0 0 0 127 0" result="hardAlpha"/>
<feOffset dx="0.1" dy="-0.1"/>
<feGaussianBlur stdDeviation="0.1"/>
<feComposite in2="hardAlpha" operator="arithmetic" k2="-1" k3="1"/>
<feColorMatrix type="matrix" values="0 0 0 0 0.709804 0 0 0 0 0.690196 0 0 0 0 0.733333 0 0 0 1 0"/>
<feBlend mode="normal" in2="effect1_innerShadow_1645_28955" result="effect2_innerShadow_1645_28955"/>
<feColorMatrix in="SourceAlpha" type="matrix" values="0 0 0 0 0 0 0 0 0 0 0 0 0 0 0 0 0 0 127 0" result="hardAlpha"/>
<feOffset dy="-0.1"/>
<feGaussianBlur stdDeviation="0.1"/>
<feComposite in2="hardAlpha" operator="arithmetic" k2="-1" k3="1"/>
<feColorMatrix type="matrix" values="0 0 0 0 0.72549 0 0 0 0 0.65098 0 0 0 0 0.8 0 0 0 1 0"/>
<feBlend mode="normal" in2="effect2_innerShadow_1645_28955" result="effect3_innerShadow_1645_28955"/>
<feColorMatrix in="SourceAlpha" type="matrix" values="0 0 0 0 0 0 0 0 0 0 0 0 0 0 0 0 0 0 127 0" result="hardAlpha"/>
<feOffset dx="-0.15" dy="0.15"/>
<feGaussianBlur stdDeviation="0.05"/>
<feComposite in2="hardAlpha" operator="arithmetic" k2="-1" k3="1"/>
<feColorMatrix type="matrix" values="0 0 0 0 0.952941 0 0 0 0 0.941176 0 0 0 0 0.964706 0 0 0 1 0"/>
<feBlend mode="normal" in2="effect3_innerShadow_1645_28955" result="effect4_innerShadow_1645_28955"/>
</filter>
<filter id="filter3_f_1645_28955" x="17.2031" y="1.67529" width="7.44922" height="7.81104" filterUnits="userSpaceOnUse" color-interpolation-filters="sRGB">
<feFlood flood-opacity="0" result="BackgroundImageFix"/>
<feBlend mode="normal" in="SourceGraphic" in2="BackgroundImageFix" result="shape"/>
<feGaussianBlur stdDeviation="0.25" result="effect1_foregroundBlur_1645_28955"/>
</filter>
<filter id="filter4_ii_1645_28955" x="17.7695" y="2.01914" width="6.74844" height="6.86563" filterUnits="userSpaceOnUse" color-interpolation-filters="sRGB">
<feFlood flood-opacity="0" result="BackgroundImageFix"/>
<feBlend mode="normal" in="SourceGraphic" in2="BackgroundImageFix" result="shape"/>
<feColorMatrix in="SourceAlpha" type="matrix" values="0 0 0 0 0 0 0 0 0 0 0 0 0 0 0 0 0 0 127 0" result="hardAlpha"/>
<feOffset dx="0.1"/>
<feGaussianBlur stdDeviation="0.075"/>
<feComposite in2="hardAlpha" operator="arithmetic" k2="-1" k3="1"/>
<feColorMatrix type="matrix" values="0 0 0 0 0.631373 0 0 0 0 0.611765 0 0 0 0 0.654902 0 0 0 1 0"/>
<feBlend mode="normal" in2="shape" result="effect1_innerShadow_1645_28955"/>
<feColorMatrix in="SourceAlpha" type="matrix" values="0 0 0 0 0 0 0 0 0 0 0 0 0 0 0 0 0 0 127 0" result="hardAlpha"/>
<feOffset dy="-0.1"/>
<feGaussianBlur stdDeviation="0.075"/>
<feComposite in2="hardAlpha" operator="arithmetic" k2="-1" k3="1"/>
<feColorMatrix type="matrix" values="0 0 0 0 0.752941 0 0 0 0 0.67451 0 0 0 0 0.835294 0 0 0 1 0"/>
<feBlend mode="normal" in2="effect1_innerShadow_1645_28955" result="effect2_innerShadow_1645_28955"/>
</filter>
<filter id="filter5_f_1645_28955" x="20.9937" y="12.8844" width="3.89922" height="3.96563" filterUnits="userSpaceOnUse" color-interpolation-filters="sRGB">
<feFlood flood-opacity="0" result="BackgroundImageFix"/>
<feBlend mode="normal" in="SourceGraphic" in2="BackgroundImageFix" result="shape"/>
<feGaussianBlur stdDeviation="0.3" result="effect1_foregroundBlur_1645_28955"/>
</filter>
<filter id="filter6_ii_1645_28955" x="21.925" y="12.9562" width="5.32969" height="3.16563" filterUnits="userSpaceOnUse" color-interpolation-filters="sRGB">
<feFlood flood-opacity="0" result="BackgroundImageFix"/>
<feBlend mode="normal" in="SourceGraphic" in2="BackgroundImageFix" result="shape"/>
<feColorMatrix in="SourceAlpha" type="matrix" values="0 0 0 0 0 0 0 0 0 0 0 0 0 0 0 0 0 0 127 0" result="hardAlpha"/>
<feOffset dx="-0.2" dy="0.2"/>
<feGaussianBlur stdDeviation="0.15"/>
<feComposite in2="hardAlpha" operator="arithmetic" k2="-1" k3="1"/>
<feColorMatrix type="matrix" values="0 0 0 0 0.92549 0 0 0 0 0.4 0 0 0 0 0.576471 0 0 0 1 0"/>
<feBlend mode="normal" in2="shape" result="effect1_innerShadow_1645_28955"/>
<feColorMatrix in="SourceAlpha" type="matrix" values="0 0 0 0 0 0 0 0 0 0 0 0 0 0 0 0 0 0 127 0" result="hardAlpha"/>
<feOffset dx="0.2" dy="-0.2"/>
<feGaussianBlur stdDeviation="0.15"/>
<feComposite in2="hardAlpha" operator="arithmetic" k2="-1" k3="1"/>
<feColorMatrix type="matrix" values="0 0 0 0 0.721569 0 0 0 0 0.223529 0 0 0 0 0.376471 0 0 0 1 0"/>
<feBlend mode="normal" in2="effect1_innerShadow_1645_28955" result="effect2_innerShadow_1645_28955"/>
</filter>
<filter id="filter7_f_1645_28955" x="24.1898" y="20.0883" width="4.14766" height="3.56563" filterUnits="userSpaceOnUse" color-interpolation-filters="sRGB">
<feFlood flood-opacity="0" result="BackgroundImageFix"/>
<feBlend mode="normal" in="SourceGraphic" in2="BackgroundImageFix" result="shape"/>
<feGaussianBlur stdDeviation="0.2" result="effect1_foregroundBlur_1645_28955"/>
</filter>
<filter id="filter8_ii_1645_28955" x="24.9094" y="19.9094" width="5.32969" height="3.16563" filterUnits="userSpaceOnUse" color-interpolation-filters="sRGB">
<feFlood flood-opacity="0" result="BackgroundImageFix"/>
<feBlend mode="normal" in="SourceGraphic" in2="BackgroundImageFix" result="shape"/>
<feColorMatrix in="SourceAlpha" type="matrix" values="0 0 0 0 0 0 0 0 0 0 0 0 0 0 0 0 0 0 127 0" result="hardAlpha"/>
<feOffset dx="-0.2" dy="0.2"/>
<feGaussianBlur stdDeviation="0.15"/>
<feComposite in2="hardAlpha" operator="arithmetic" k2="-1" k3="1"/>
<feColorMatrix type="matrix" values="0 0 0 0 0.988235 0 0 0 0 0.929412 0 0 0 0 0.439216 0 0 0 1 0"/>
<feBlend mode="normal" in2="shape" result="effect1_innerShadow_1645_28955"/>
<feColorMatrix in="SourceAlpha" type="matrix" values="0 0 0 0 0 0 0 0 0 0 0 0 0 0 0 0 0 0 127 0" result="hardAlpha"/>
<feOffset dx="0.2" dy="-0.2"/>
<feGaussianBlur stdDeviation="0.15"/>
<feComposite in2="hardAlpha" operator="arithmetic" k2="-1" k3="1"/>
<feColorMatrix type="matrix" values="0 0 0 0 0.647059 0 0 0 0 0.411765 0 0 0 0 0.278431 0 0 0 1 0"/>
<feBlend mode="normal" in2="effect1_innerShadow_1645_28955" result="effect2_innerShadow_1645_28955"/>
</filter>
<linearGradient id="paint0_linear_1645_28955" x1="21.3281" y1="24.25" x2="28.8281" y2="27.8125" gradientUnits="userSpaceOnUse">
<stop stop-color="#AFAAB6"/>
<stop offset="1" stop-color="#B7B0C0"/>
</linearGradient>
<linearGradient id="paint1_linear_1645_28955" x1="9.26562" y1="30.3125" x2="21.7656" y2="22.375" gradientUnits="userSpaceOnUse">
<stop stop-color="#A79FB2"/>
<stop offset="1" stop-color="#A79FB2" stop-opacity="0"/>
</linearGradient>
<linearGradient id="paint2_linear_1645_28955" x1="14.2832" y1="2.11768" x2="14.2832" y2="27.9377" gradientUnits="userSpaceOnUse">
<stop stop-color="#EBE4F3"/>
<stop offset="1" stop-color="#E4DAF0"/>
</linearGradient>
<linearGradient id="paint3_linear_1645_28955" x1="18.4796" y1="8.2814" x2="20.9221" y2="5.83887" gradientUnits="userSpaceOnUse">
<stop stop-color="#D9D3E1"/>
<stop offset="1" stop-color="#CCC7D1"/>
</linearGradient>
<linearGradient id="paint4_linear_1645_28955" x1="21.4713" y1="5.36193" x2="20.8788" y2="5.94004" gradientUnits="userSpaceOnUse">
<stop offset="0.119171" stop-color="#DBDADC"/>
<stop offset="0.577307" stop-color="#CBC7D0" stop-opacity="0"/>
</linearGradient>
<linearGradient id="paint5_linear_1645_28955" x1="7.84375" y1="11.7826" x2="20.714" y2="11.7826" gradientUnits="userSpaceOnUse">
<stop stop-color="#9C96A2"/>
<stop offset="1" stop-color="#9A95A1"/>
</linearGradient>
<linearGradient id="paint6_linear_1645_28955" x1="7.84375" y1="14.558" x2="20.714" y2="14.558" gradientUnits="userSpaceOnUse">
<stop stop-color="#9C96A2"/>
<stop offset="1" stop-color="#9A95A1"/>
</linearGradient>
<linearGradient id="paint7_linear_1645_28955" x1="7.84375" y1="17.3329" x2="20.714" y2="17.3329" gradientUnits="userSpaceOnUse">
<stop stop-color="#9C96A2"/>
<stop offset="1" stop-color="#9A95A1"/>
</linearGradient>
<linearGradient id="paint8_linear_1645_28955" x1="7.84375" y1="20.1078" x2="16.1541" y2="20.1078" gradientUnits="userSpaceOnUse">
<stop stop-color="#9C96A2"/>
<stop offset="1" stop-color="#9A95A1"/>
</linearGradient>
<linearGradient id="paint9_linear_1645_28955" x1="24.5898" y1="13.1562" x2="24.5898" y2="15.9219" gradientUnits="userSpaceOnUse">
<stop stop-color="#E0437B"/>
<stop offset="1" stop-color="#DC4369"/>
</linearGradient>
<linearGradient id="paint10_linear_1645_28955" x1="22.5311" y1="13.9062" x2="22.9218" y2="14.2187" gradientUnits="userSpaceOnUse">
<stop offset="0.263415" stop-color="#CA4A72"/>
<stop offset="1" stop-color="#CA4A72" stop-opacity="0"/>
</linearGradient>
<linearGradient id="paint11_linear_1645_28955" x1="27.5742" y1="20.1094" x2="27.5742" y2="22.875" gradientUnits="userSpaceOnUse">
<stop stop-color="#E4BD58"/>
<stop offset="1" stop-color="#D89D52"/>
</linearGradient>
<linearGradient id="paint12_linear_1645_28955" x1="25.5155" y1="20.8594" x2="25.9999" y2="21.2187" gradientUnits="userSpaceOnUse">
<stop offset="0.263415" stop-color="#AB9365"/>
<stop offset="1" stop-color="#E3B758" stop-opacity="0"/>
</linearGradient>
</defs>
</svg>
