<svg width="24" height="24" viewBox="0 0 24 24" fill="none" xmlns="http://www.w3.org/2000/svg">
<path fill-rule="evenodd" clip-rule="evenodd" d="M3.14999 12C3.14999 7.1123 7.11227 3.15002 12 3.15002C16.8877 3.15002 20.85 7.1123 20.85 12C20.85 16.8877 16.8877 20.85 12 20.85H3.14999V12ZM12 4.85002C8.05116 4.85002 4.84999 8.05119 4.84999 12V19.15H12C15.9488 19.15 19.15 15.9489 19.15 12C19.15 8.05119 15.9488 4.85002 12 4.85002Z" fill="#ABA6BA"/>
<path d="M9.72757 12C9.72757 12.7531 9.11709 13.3636 8.36403 13.3636C7.61097 13.3636 7.00049 12.7531 7.00049 12C7.00049 11.247 7.61097 10.6365 8.36403 10.6365C9.11709 10.6365 9.72757 11.247 9.72757 12Z" fill="#ABA6BA"/>
<path d="M13.3635 12C13.3635 12.7531 12.753 13.3636 11.9999 13.3636C11.2469 13.3636 10.6364 12.7531 10.6364 12C10.6364 11.247 11.2469 10.6365 11.9999 10.6365C12.753 10.6365 13.3635 11.247 13.3635 12Z" fill="#ABA6BA"/>
<path d="M17 12C17 12.7531 16.3895 13.3636 15.6365 13.3636C14.8834 13.3636 14.2729 12.7531 14.2729 12C14.2729 11.247 14.8834 10.6365 15.6365 10.6365C16.3895 10.6365 17 11.247 17 12Z" fill="#ABA6BA"/>
</svg>
