<svg width="24" height="24" viewBox="0 0 24 24" xmlns="http://www.w3.org/2000/svg">
<path fill-rule="evenodd" clip-rule="evenodd" d="M7.39792 7.39896C7.06597 7.7309 7.06597 8.2691 7.39792 8.60104L15.8832 17.0863C16.2151 17.4183 16.7533 17.4183 17.0853 17.0863C17.4172 16.7544 17.4172 16.2162 17.0853 15.8842L8.6 7.39896C8.26805 7.06701 7.72986 7.06701 7.39792 7.39896Z" />
<path fill-rule="evenodd" clip-rule="evenodd" d="M17.0865 7.39896C17.4184 7.7309 17.4184 8.2691 17.0865 8.60104L8.60118 17.0863C8.26923 17.4183 7.73104 17.4183 7.3991 17.0863C7.06715 16.7544 7.06715 16.2162 7.3991 15.8842L15.8844 7.39896C16.2163 7.06701 16.7545 7.06701 17.0865 7.39896Z" />
</svg>
