<svg width="16" height="16" viewBox="0 0 16 16" fill="none" xmlns="http://www.w3.org/2000/svg">
<path d="M6.89035 1.55438C7.23959 0.479515 8.76023 0.479514 9.10948 1.55438L10.0954 4.58866C10.2516 5.06935 10.6995 5.3948 11.2049 5.3948H14.3954C15.5255 5.3948 15.9955 6.84102 15.0811 7.50532L12.5 9.38061C12.0911 9.6777 11.92 10.2043 12.0762 10.685L13.0621 13.7193C13.4113 14.7941 12.1811 15.6879 11.2668 15.0236L8.68566 13.1484C8.27676 12.8513 7.72306 12.8513 7.31416 13.1484L4.73305 15.0236C3.81872 15.6879 2.58849 14.7941 2.93773 13.7193L3.92363 10.685C4.07982 10.2043 3.90871 9.6777 3.49981 9.38061L0.918701 7.50533C0.00436801 6.84102 0.474272 5.3948 1.60445 5.3948H4.79488C5.30031 5.3948 5.74826 5.06935 5.90445 4.58866L6.89035 1.55438Z" fill="#ECEAF9"/>
</svg>
