<svg width="24" height="24" viewBox="0 0 24 24" fill="none" xmlns="http://www.w3.org/2000/svg">
<path fill-rule="evenodd" clip-rule="evenodd" d="M13.4073 10.3454C12.5205 10.7888 11.4767 10.7888 10.5899 10.3454L7.37876 8.7398C6.95887 8.52986 6.4483 8.70005 6.23836 9.11993C6.02842 9.53982 6.19861 10.0504 6.61849 10.2603L9.82964 11.8659C11.195 12.5486 12.8022 12.5486 14.1676 11.8659L17.3788 10.2603C17.7986 10.0504 17.9688 9.53982 17.7589 9.11993C17.5489 8.70005 17.0384 8.52986 16.6185 8.7398L13.4073 10.3454Z" fill="#D6D0FF"/>
<path fill-rule="evenodd" clip-rule="evenodd" d="M2.14844 8.9999C2.14844 6.32132 4.31986 4.1499 6.99844 4.1499H16.9984C19.677 4.1499 21.8484 6.32132 21.8484 8.9999V14.4999C21.8484 17.1785 19.677 19.3499 16.9984 19.3499H6.99844C4.31986 19.3499 2.14844 17.1785 2.14844 14.4999V8.9999ZM6.99844 5.8499C5.25874 5.8499 3.84844 7.26021 3.84844 8.9999V14.4999C3.84844 16.2396 5.25874 17.6499 6.99844 17.6499H16.9984C18.7381 17.6499 20.1484 16.2396 20.1484 14.4999V8.9999C20.1484 7.26021 18.7381 5.8499 16.9984 5.8499H6.99844Z" fill="#D6D0FF"/>
</svg>
