<svg width="24" height="24" viewBox="0 0 24 24" fill="none" xmlns="http://www.w3.org/2000/svg">
<path fill-rule="evenodd" clip-rule="evenodd" d="M18.3549 10.8139C15.3175 7.04665 9.51242 7.05026 6.57191 10.8559C6.27875 11.2353 6.27875 11.7648 6.57191 12.1442C9.51242 15.9498 15.3175 15.9534 18.3549 12.1862C18.6723 11.7926 18.6723 11.2075 18.3549 10.8139ZM5.22669 9.81647C8.85708 5.118 15.9702 5.14773 19.6783 9.74682C20.4978 10.7632 20.4978 12.2368 19.6783 13.2533C15.9702 17.8523 8.85708 17.8821 5.22669 13.1836C4.46049 12.192 4.46049 10.8081 5.22669 9.81647Z" fill="#ABA6BA"/>
<path d="M15 11.5C15 12.8807 13.8807 14 12.5 14C11.1193 14 10 12.8807 10 11.5C10 10.1193 11.1193 9 12.5 9C13.8807 9 15 10.1193 15 11.5Z" fill="#ABA6BA"/>
</svg>
