<svg width="24" height="24" viewBox="0 0 24 24" fill="none" xmlns="http://www.w3.org/2000/svg">
<path fill-rule="evenodd" clip-rule="evenodd" d="M18.3552 11.8137C15.3178 8.04652 9.51273 8.05014 6.57221 11.8558C6.27906 12.2352 6.27905 12.7647 6.57221 13.1441C9.51273 16.9497 15.3178 16.9533 18.3552 13.1861C18.6726 12.7924 18.6726 12.2074 18.3552 11.8137ZM5.22699 10.8163C8.85739 6.11788 15.9705 6.14761 19.6786 10.7467C20.4981 11.7631 20.4981 13.2367 19.6786 14.2531C15.9705 18.8522 8.85739 18.8819 5.22699 14.1835C4.46079 13.1919 4.46079 11.808 5.22699 10.8163Z" fill="#D6D0FF"/>
<path fill-rule="evenodd" clip-rule="evenodd" d="M6.39792 18.601C6.06597 18.2691 6.06597 17.7309 6.39792 17.399L18.3979 5.39896C18.7299 5.06701 19.2681 5.06701 19.6 5.39896C19.9319 5.73091 19.9319 6.2691 19.6 6.60104L7.6 18.601C7.26805 18.933 6.72986 18.933 6.39792 18.601Z" fill="#D6D0FF"/>
<path d="M15 12.5C15 13.8807 13.8807 15 12.5 15C11.1193 15 10 13.8807 10 12.5C10 11.1193 11.1193 10 12.5 10C13.8807 10 15 11.1193 15 12.5Z" fill="#D6D0FF"/>
</svg>
