<svg width="32" height="32" viewBox="0 0 32 32" fill="none" xmlns="http://www.w3.org/2000/svg">
<g filter="url(#filter0_i_1326_22788)">
<path fill-rule="evenodd" clip-rule="evenodd" d="M28.3518 16.1973C28.6109 15.6668 28.7466 15.0747 28.7466 14.4579C28.7466 13.8882 28.6294 13.3537 28.4192 12.8665H28.4257C28.3277 12.6459 28.2174 12.4374 28.0829 12.2411L28.0804 12.2373C27.661 11.5958 27.4389 10.8433 27.4389 10.0785V10.0661C27.4389 7.84559 25.6378 6.04449 23.4173 6.04449C23.1952 6.04449 22.9855 5.9458 22.8621 5.76075C22.1343 4.74917 20.9376 4.08301 19.5929 4.08301C18.2482 4.08301 17.0516 4.74917 16.3238 5.76075C16.2004 5.93346 15.9907 6.04449 15.7686 6.04449C15.734 6.04449 15.6994 6.04493 15.665 6.0458C13.4923 6.10081 11.747 7.88025 11.747 10.0661V10.0785C11.747 10.8433 11.5249 11.5958 11.1055 12.2373L11.1027 12.2418C10.685 12.8823 10.4395 13.6333 10.4395 14.4579C10.4395 15.087 10.5875 15.6668 10.8342 16.1973C10.9206 16.37 10.9206 16.5797 10.8342 16.7524C10.5875 17.2706 10.4395 17.8504 10.4395 18.4672C10.4395 20.6384 12.1912 22.3901 14.3624 22.3901H24.8236C26.9948 22.3901 28.7466 20.6384 28.7466 18.4672C28.7466 17.8504 28.5985 17.2706 28.3518 16.7524C28.2655 16.5797 28.2655 16.37 28.3518 16.1973ZM13.4067 12.9396H13.3917L14.8529 15.811C15.0032 19.2273 16.3364 15.811 19.5929 15.811C22.8494 15.811 24.2694 19.6136 24.4197 16.1973L25.8044 12.3C25.7389 10.7825 24.6392 10.676 24.4197 10.676H20.4945C18.9445 10.676 17.4819 9.91734 16.6068 8.63628C16.4568 8.42484 16.1443 8.46215 16.0443 8.69846L15.9443 8.93478C15.6693 9.61884 15.1443 10.1412 14.4942 10.4397C14.4755 10.4459 14.4536 10.4553 14.4317 10.4646C14.4099 10.4739 14.388 10.4832 14.3692 10.4895C14.0817 10.6387 13.4067 11.0865 13.3817 12.2431L13.3942 12.6163L13.4067 12.9396Z" fill="url(#paint0_linear_1326_22788)"/>
<path fill-rule="evenodd" clip-rule="evenodd" d="M28.3518 16.1973C28.6109 15.6668 28.7466 15.0747 28.7466 14.4579C28.7466 13.8882 28.6294 13.3537 28.4192 12.8665H28.4257C28.3277 12.6459 28.2174 12.4374 28.0829 12.2411L28.0804 12.2373C27.661 11.5958 27.4389 10.8433 27.4389 10.0785V10.0661C27.4389 7.84559 25.6378 6.04449 23.4173 6.04449C23.1952 6.04449 22.9855 5.9458 22.8621 5.76075C22.1343 4.74917 20.9376 4.08301 19.5929 4.08301C18.2482 4.08301 17.0516 4.74917 16.3238 5.76075C16.2004 5.93346 15.9907 6.04449 15.7686 6.04449C15.734 6.04449 15.6994 6.04493 15.665 6.0458C13.4923 6.10081 11.747 7.88025 11.747 10.0661V10.0785C11.747 10.8433 11.5249 11.5958 11.1055 12.2373L11.1027 12.2418C10.685 12.8823 10.4395 13.6333 10.4395 14.4579C10.4395 15.087 10.5875 15.6668 10.8342 16.1973C10.9206 16.37 10.9206 16.5797 10.8342 16.7524C10.5875 17.2706 10.4395 17.8504 10.4395 18.4672C10.4395 20.6384 12.1912 22.3901 14.3624 22.3901H24.8236C26.9948 22.3901 28.7466 20.6384 28.7466 18.4672C28.7466 17.8504 28.5985 17.2706 28.3518 16.7524C28.2655 16.5797 28.2655 16.37 28.3518 16.1973ZM13.4067 12.9396H13.3917L14.8529 15.811C15.0032 19.2273 16.3364 15.811 19.5929 15.811C22.8494 15.811 24.2694 19.6136 24.4197 16.1973L25.8044 12.3C25.7389 10.7825 24.6392 10.676 24.4197 10.676H20.4945C18.9445 10.676 17.4819 9.91734 16.6068 8.63628C16.4568 8.42484 16.1443 8.46215 16.0443 8.69846L15.9443 8.93478C15.6693 9.61884 15.1443 10.1412 14.4942 10.4397C14.4755 10.4459 14.4536 10.4553 14.4317 10.4646C14.4099 10.4739 14.388 10.4832 14.3692 10.4895C14.0817 10.6387 13.4067 11.0865 13.3817 12.2431L13.3942 12.6163L13.4067 12.9396Z" fill="url(#paint1_radial_1326_22788)"/>
<path fill-rule="evenodd" clip-rule="evenodd" d="M28.3518 16.1973C28.6109 15.6668 28.7466 15.0747 28.7466 14.4579C28.7466 13.8882 28.6294 13.3537 28.4192 12.8665H28.4257C28.3277 12.6459 28.2174 12.4374 28.0829 12.2411L28.0804 12.2373C27.661 11.5958 27.4389 10.8433 27.4389 10.0785V10.0661C27.4389 7.84559 25.6378 6.04449 23.4173 6.04449C23.1952 6.04449 22.9855 5.9458 22.8621 5.76075C22.1343 4.74917 20.9376 4.08301 19.5929 4.08301C18.2482 4.08301 17.0516 4.74917 16.3238 5.76075C16.2004 5.93346 15.9907 6.04449 15.7686 6.04449C15.734 6.04449 15.6994 6.04493 15.665 6.0458C13.4923 6.10081 11.747 7.88025 11.747 10.0661V10.0785C11.747 10.8433 11.5249 11.5958 11.1055 12.2373L11.1027 12.2418C10.685 12.8823 10.4395 13.6333 10.4395 14.4579C10.4395 15.087 10.5875 15.6668 10.8342 16.1973C10.9206 16.37 10.9206 16.5797 10.8342 16.7524C10.5875 17.2706 10.4395 17.8504 10.4395 18.4672C10.4395 20.6384 12.1912 22.3901 14.3624 22.3901H24.8236C26.9948 22.3901 28.7466 20.6384 28.7466 18.4672C28.7466 17.8504 28.5985 17.2706 28.3518 16.7524C28.2655 16.5797 28.2655 16.37 28.3518 16.1973ZM13.4067 12.9396H13.3917L14.8529 15.811C15.0032 19.2273 16.3364 15.811 19.5929 15.811C22.8494 15.811 24.2694 19.6136 24.4197 16.1973L25.8044 12.3C25.7389 10.7825 24.6392 10.676 24.4197 10.676H20.4945C18.9445 10.676 17.4819 9.91734 16.6068 8.63628C16.4568 8.42484 16.1443 8.46215 16.0443 8.69846L15.9443 8.93478C15.6693 9.61884 15.1443 10.1412 14.4942 10.4397C14.4755 10.4459 14.4536 10.4553 14.4317 10.4646C14.4099 10.4739 14.388 10.4832 14.3692 10.4895C14.0817 10.6387 13.4067 11.0865 13.3817 12.2431L13.3942 12.6163L13.4067 12.9396Z" fill="url(#paint2_radial_1326_22788)"/>
<path fill-rule="evenodd" clip-rule="evenodd" d="M28.3518 16.1973C28.6109 15.6668 28.7466 15.0747 28.7466 14.4579C28.7466 13.8882 28.6294 13.3537 28.4192 12.8665H28.4257C28.3277 12.6459 28.2174 12.4374 28.0829 12.2411L28.0804 12.2373C27.661 11.5958 27.4389 10.8433 27.4389 10.0785V10.0661C27.4389 7.84559 25.6378 6.04449 23.4173 6.04449C23.1952 6.04449 22.9855 5.9458 22.8621 5.76075C22.1343 4.74917 20.9376 4.08301 19.5929 4.08301C18.2482 4.08301 17.0516 4.74917 16.3238 5.76075C16.2004 5.93346 15.9907 6.04449 15.7686 6.04449C15.734 6.04449 15.6994 6.04493 15.665 6.0458C13.4923 6.10081 11.747 7.88025 11.747 10.0661V10.0785C11.747 10.8433 11.5249 11.5958 11.1055 12.2373L11.1027 12.2418C10.685 12.8823 10.4395 13.6333 10.4395 14.4579C10.4395 15.087 10.5875 15.6668 10.8342 16.1973C10.9206 16.37 10.9206 16.5797 10.8342 16.7524C10.5875 17.2706 10.4395 17.8504 10.4395 18.4672C10.4395 20.6384 12.1912 22.3901 14.3624 22.3901H24.8236C26.9948 22.3901 28.7466 20.6384 28.7466 18.4672C28.7466 17.8504 28.5985 17.2706 28.3518 16.7524C28.2655 16.5797 28.2655 16.37 28.3518 16.1973ZM13.4067 12.9396H13.3917L14.8529 15.811C15.0032 19.2273 16.3364 15.811 19.5929 15.811C22.8494 15.811 24.2694 19.6136 24.4197 16.1973L25.8044 12.3C25.7389 10.7825 24.6392 10.676 24.4197 10.676H20.4945C18.9445 10.676 17.4819 9.91734 16.6068 8.63628C16.4568 8.42484 16.1443 8.46215 16.0443 8.69846L15.9443 8.93478C15.6693 9.61884 15.1443 10.1412 14.4942 10.4397C14.4755 10.4459 14.4536 10.4553 14.4317 10.4646C14.4099 10.4739 14.388 10.4832 14.3692 10.4895C14.0817 10.6387 13.4067 11.0865 13.3817 12.2431L13.3942 12.6163L13.4067 12.9396Z" fill="url(#paint3_radial_1326_22788)"/>
<path fill-rule="evenodd" clip-rule="evenodd" d="M28.3518 16.1973C28.6109 15.6668 28.7466 15.0747 28.7466 14.4579C28.7466 13.8882 28.6294 13.3537 28.4192 12.8665H28.4257C28.3277 12.6459 28.2174 12.4374 28.0829 12.2411L28.0804 12.2373C27.661 11.5958 27.4389 10.8433 27.4389 10.0785V10.0661C27.4389 7.84559 25.6378 6.04449 23.4173 6.04449C23.1952 6.04449 22.9855 5.9458 22.8621 5.76075C22.1343 4.74917 20.9376 4.08301 19.5929 4.08301C18.2482 4.08301 17.0516 4.74917 16.3238 5.76075C16.2004 5.93346 15.9907 6.04449 15.7686 6.04449C15.734 6.04449 15.6994 6.04493 15.665 6.0458C13.4923 6.10081 11.747 7.88025 11.747 10.0661V10.0785C11.747 10.8433 11.5249 11.5958 11.1055 12.2373L11.1027 12.2418C10.685 12.8823 10.4395 13.6333 10.4395 14.4579C10.4395 15.087 10.5875 15.6668 10.8342 16.1973C10.9206 16.37 10.9206 16.5797 10.8342 16.7524C10.5875 17.2706 10.4395 17.8504 10.4395 18.4672C10.4395 20.6384 12.1912 22.3901 14.3624 22.3901H24.8236C26.9948 22.3901 28.7466 20.6384 28.7466 18.4672C28.7466 17.8504 28.5985 17.2706 28.3518 16.7524C28.2655 16.5797 28.2655 16.37 28.3518 16.1973ZM13.4067 12.9396H13.3917L14.8529 15.811C15.0032 19.2273 16.3364 15.811 19.5929 15.811C22.8494 15.811 24.2694 19.6136 24.4197 16.1973L25.8044 12.3C25.7389 10.7825 24.6392 10.676 24.4197 10.676H20.4945C18.9445 10.676 17.4819 9.91734 16.6068 8.63628C16.4568 8.42484 16.1443 8.46215 16.0443 8.69846L15.9443 8.93478C15.6693 9.61884 15.1443 10.1412 14.4942 10.4397C14.4755 10.4459 14.4536 10.4553 14.4317 10.4646C14.4099 10.4739 14.388 10.4832 14.3692 10.4895C14.0817 10.6387 13.4067 11.0865 13.3817 12.2431L13.3942 12.6163L13.4067 12.9396Z" fill="url(#paint4_radial_1326_22788)"/>
<path fill-rule="evenodd" clip-rule="evenodd" d="M28.3518 16.1973C28.6109 15.6668 28.7466 15.0747 28.7466 14.4579C28.7466 13.8882 28.6294 13.3537 28.4192 12.8665H28.4257C28.3277 12.6459 28.2174 12.4374 28.0829 12.2411L28.0804 12.2373C27.661 11.5958 27.4389 10.8433 27.4389 10.0785V10.0661C27.4389 7.84559 25.6378 6.04449 23.4173 6.04449C23.1952 6.04449 22.9855 5.9458 22.8621 5.76075C22.1343 4.74917 20.9376 4.08301 19.5929 4.08301C18.2482 4.08301 17.0516 4.74917 16.3238 5.76075C16.2004 5.93346 15.9907 6.04449 15.7686 6.04449C15.734 6.04449 15.6994 6.04493 15.665 6.0458C13.4923 6.10081 11.747 7.88025 11.747 10.0661V10.0785C11.747 10.8433 11.5249 11.5958 11.1055 12.2373L11.1027 12.2418C10.685 12.8823 10.4395 13.6333 10.4395 14.4579C10.4395 15.087 10.5875 15.6668 10.8342 16.1973C10.9206 16.37 10.9206 16.5797 10.8342 16.7524C10.5875 17.2706 10.4395 17.8504 10.4395 18.4672C10.4395 20.6384 12.1912 22.3901 14.3624 22.3901H24.8236C26.9948 22.3901 28.7466 20.6384 28.7466 18.4672C28.7466 17.8504 28.5985 17.2706 28.3518 16.7524C28.2655 16.5797 28.2655 16.37 28.3518 16.1973ZM13.4067 12.9396H13.3917L14.8529 15.811C15.0032 19.2273 16.3364 15.811 19.5929 15.811C22.8494 15.811 24.2694 19.6136 24.4197 16.1973L25.8044 12.3C25.7389 10.7825 24.6392 10.676 24.4197 10.676H20.4945C18.9445 10.676 17.4819 9.91734 16.6068 8.63628C16.4568 8.42484 16.1443 8.46215 16.0443 8.69846L15.9443 8.93478C15.6693 9.61884 15.1443 10.1412 14.4942 10.4397C14.4755 10.4459 14.4536 10.4553 14.4317 10.4646C14.4099 10.4739 14.388 10.4832 14.3692 10.4895C14.0817 10.6387 13.4067 11.0865 13.3817 12.2431L13.3942 12.6163L13.4067 12.9396Z" fill="url(#paint5_radial_1326_22788)"/>
<path fill-rule="evenodd" clip-rule="evenodd" d="M28.3518 16.1973C28.6109 15.6668 28.7466 15.0747 28.7466 14.4579C28.7466 13.8882 28.6294 13.3537 28.4192 12.8665H28.4257C28.3277 12.6459 28.2174 12.4374 28.0829 12.2411L28.0804 12.2373C27.661 11.5958 27.4389 10.8433 27.4389 10.0785V10.0661C27.4389 7.84559 25.6378 6.04449 23.4173 6.04449C23.1952 6.04449 22.9855 5.9458 22.8621 5.76075C22.1343 4.74917 20.9376 4.08301 19.5929 4.08301C18.2482 4.08301 17.0516 4.74917 16.3238 5.76075C16.2004 5.93346 15.9907 6.04449 15.7686 6.04449C15.734 6.04449 15.6994 6.04493 15.665 6.0458C13.4923 6.10081 11.747 7.88025 11.747 10.0661V10.0785C11.747 10.8433 11.5249 11.5958 11.1055 12.2373L11.1027 12.2418C10.685 12.8823 10.4395 13.6333 10.4395 14.4579C10.4395 15.087 10.5875 15.6668 10.8342 16.1973C10.9206 16.37 10.9206 16.5797 10.8342 16.7524C10.5875 17.2706 10.4395 17.8504 10.4395 18.4672C10.4395 20.6384 12.1912 22.3901 14.3624 22.3901H24.8236C26.9948 22.3901 28.7466 20.6384 28.7466 18.4672C28.7466 17.8504 28.5985 17.2706 28.3518 16.7524C28.2655 16.5797 28.2655 16.37 28.3518 16.1973ZM13.4067 12.9396H13.3917L14.8529 15.811C15.0032 19.2273 16.3364 15.811 19.5929 15.811C22.8494 15.811 24.2694 19.6136 24.4197 16.1973L25.8044 12.3C25.7389 10.7825 24.6392 10.676 24.4197 10.676H20.4945C18.9445 10.676 17.4819 9.91734 16.6068 8.63628C16.4568 8.42484 16.1443 8.46215 16.0443 8.69846L15.9443 8.93478C15.6693 9.61884 15.1443 10.1412 14.4942 10.4397C14.4755 10.4459 14.4536 10.4553 14.4317 10.4646C14.4099 10.4739 14.388 10.4832 14.3692 10.4895C14.0817 10.6387 13.4067 11.0865 13.3817 12.2431L13.3942 12.6163L13.4067 12.9396Z" fill="url(#paint6_radial_1326_22788)"/>
<path fill-rule="evenodd" clip-rule="evenodd" d="M28.3518 16.1973C28.6109 15.6668 28.7466 15.0747 28.7466 14.4579C28.7466 13.8882 28.6294 13.3537 28.4192 12.8665H28.4257C28.3277 12.6459 28.2174 12.4374 28.0829 12.2411L28.0804 12.2373C27.661 11.5958 27.4389 10.8433 27.4389 10.0785V10.0661C27.4389 7.84559 25.6378 6.04449 23.4173 6.04449C23.1952 6.04449 22.9855 5.9458 22.8621 5.76075C22.1343 4.74917 20.9376 4.08301 19.5929 4.08301C18.2482 4.08301 17.0516 4.74917 16.3238 5.76075C16.2004 5.93346 15.9907 6.04449 15.7686 6.04449C15.734 6.04449 15.6994 6.04493 15.665 6.0458C13.4923 6.10081 11.747 7.88025 11.747 10.0661V10.0785C11.747 10.8433 11.5249 11.5958 11.1055 12.2373L11.1027 12.2418C10.685 12.8823 10.4395 13.6333 10.4395 14.4579C10.4395 15.087 10.5875 15.6668 10.8342 16.1973C10.9206 16.37 10.9206 16.5797 10.8342 16.7524C10.5875 17.2706 10.4395 17.8504 10.4395 18.4672C10.4395 20.6384 12.1912 22.3901 14.3624 22.3901H24.8236C26.9948 22.3901 28.7466 20.6384 28.7466 18.4672C28.7466 17.8504 28.5985 17.2706 28.3518 16.7524C28.2655 16.5797 28.2655 16.37 28.3518 16.1973ZM13.4067 12.9396H13.3917L14.8529 15.811C15.0032 19.2273 16.3364 15.811 19.5929 15.811C22.8494 15.811 24.2694 19.6136 24.4197 16.1973L25.8044 12.3C25.7389 10.7825 24.6392 10.676 24.4197 10.676H20.4945C18.9445 10.676 17.4819 9.91734 16.6068 8.63628C16.4568 8.42484 16.1443 8.46215 16.0443 8.69846L15.9443 8.93478C15.6693 9.61884 15.1443 10.1412 14.4942 10.4397C14.4755 10.4459 14.4536 10.4553 14.4317 10.4646C14.4099 10.4739 14.388 10.4832 14.3692 10.4895C14.0817 10.6387 13.4067 11.0865 13.3817 12.2431L13.3942 12.6163L13.4067 12.9396Z" fill="url(#paint7_radial_1326_22788)"/>
<path fill-rule="evenodd" clip-rule="evenodd" d="M28.3518 16.1973C28.6109 15.6668 28.7466 15.0747 28.7466 14.4579C28.7466 13.8882 28.6294 13.3537 28.4192 12.8665H28.4257C28.3277 12.6459 28.2174 12.4374 28.0829 12.2411L28.0804 12.2373C27.661 11.5958 27.4389 10.8433 27.4389 10.0785V10.0661C27.4389 7.84559 25.6378 6.04449 23.4173 6.04449C23.1952 6.04449 22.9855 5.9458 22.8621 5.76075C22.1343 4.74917 20.9376 4.08301 19.5929 4.08301C18.2482 4.08301 17.0516 4.74917 16.3238 5.76075C16.2004 5.93346 15.9907 6.04449 15.7686 6.04449C15.734 6.04449 15.6994 6.04493 15.665 6.0458C13.4923 6.10081 11.747 7.88025 11.747 10.0661V10.0785C11.747 10.8433 11.5249 11.5958 11.1055 12.2373L11.1027 12.2418C10.685 12.8823 10.4395 13.6333 10.4395 14.4579C10.4395 15.087 10.5875 15.6668 10.8342 16.1973C10.9206 16.37 10.9206 16.5797 10.8342 16.7524C10.5875 17.2706 10.4395 17.8504 10.4395 18.4672C10.4395 20.6384 12.1912 22.3901 14.3624 22.3901H24.8236C26.9948 22.3901 28.7466 20.6384 28.7466 18.4672C28.7466 17.8504 28.5985 17.2706 28.3518 16.7524C28.2655 16.5797 28.2655 16.37 28.3518 16.1973ZM13.4067 12.9396H13.3917L14.8529 15.811C15.0032 19.2273 16.3364 15.811 19.5929 15.811C22.8494 15.811 24.2694 19.6136 24.4197 16.1973L25.8044 12.3C25.7389 10.7825 24.6392 10.676 24.4197 10.676H20.4945C18.9445 10.676 17.4819 9.91734 16.6068 8.63628C16.4568 8.42484 16.1443 8.46215 16.0443 8.69846L15.9443 8.93478C15.6693 9.61884 15.1443 10.1412 14.4942 10.4397C14.4755 10.4459 14.4536 10.4553 14.4317 10.4646C14.4099 10.4739 14.388 10.4832 14.3692 10.4895C14.0817 10.6387 13.4067 11.0865 13.3817 12.2431L13.3942 12.6163L13.4067 12.9396Z" fill="url(#paint8_radial_1326_22788)"/>
<path fill-rule="evenodd" clip-rule="evenodd" d="M28.3518 16.1973C28.6109 15.6668 28.7466 15.0747 28.7466 14.4579C28.7466 13.8882 28.6294 13.3537 28.4192 12.8665H28.4257C28.3277 12.6459 28.2174 12.4374 28.0829 12.2411L28.0804 12.2373C27.661 11.5958 27.4389 10.8433 27.4389 10.0785V10.0661C27.4389 7.84559 25.6378 6.04449 23.4173 6.04449C23.1952 6.04449 22.9855 5.9458 22.8621 5.76075C22.1343 4.74917 20.9376 4.08301 19.5929 4.08301C18.2482 4.08301 17.0516 4.74917 16.3238 5.76075C16.2004 5.93346 15.9907 6.04449 15.7686 6.04449C15.734 6.04449 15.6994 6.04493 15.665 6.0458C13.4923 6.10081 11.747 7.88025 11.747 10.0661V10.0785C11.747 10.8433 11.5249 11.5958 11.1055 12.2373L11.1027 12.2418C10.685 12.8823 10.4395 13.6333 10.4395 14.4579C10.4395 15.087 10.5875 15.6668 10.8342 16.1973C10.9206 16.37 10.9206 16.5797 10.8342 16.7524C10.5875 17.2706 10.4395 17.8504 10.4395 18.4672C10.4395 20.6384 12.1912 22.3901 14.3624 22.3901H24.8236C26.9948 22.3901 28.7466 20.6384 28.7466 18.4672C28.7466 17.8504 28.5985 17.2706 28.3518 16.7524C28.2655 16.5797 28.2655 16.37 28.3518 16.1973ZM13.4067 12.9396H13.3917L14.8529 15.811C15.0032 19.2273 16.3364 15.811 19.5929 15.811C22.8494 15.811 24.2694 19.6136 24.4197 16.1973L25.8044 12.3C25.7389 10.7825 24.6392 10.676 24.4197 10.676H20.4945C18.9445 10.676 17.4819 9.91734 16.6068 8.63628C16.4568 8.42484 16.1443 8.46215 16.0443 8.69846L15.9443 8.93478C15.6693 9.61884 15.1443 10.1412 14.4942 10.4397C14.4755 10.4459 14.4536 10.4553 14.4317 10.4646C14.4099 10.4739 14.388 10.4832 14.3692 10.4895C14.0817 10.6387 13.4067 11.0865 13.3817 12.2431L13.3942 12.6163L13.4067 12.9396Z" fill="url(#paint9_radial_1326_22788)"/>
<path fill-rule="evenodd" clip-rule="evenodd" d="M28.3518 16.1973C28.6109 15.6668 28.7466 15.0747 28.7466 14.4579C28.7466 13.8882 28.6294 13.3537 28.4192 12.8665H28.4257C28.3277 12.6459 28.2174 12.4374 28.0829 12.2411L28.0804 12.2373C27.661 11.5958 27.4389 10.8433 27.4389 10.0785V10.0661C27.4389 7.84559 25.6378 6.04449 23.4173 6.04449C23.1952 6.04449 22.9855 5.9458 22.8621 5.76075C22.1343 4.74917 20.9376 4.08301 19.5929 4.08301C18.2482 4.08301 17.0516 4.74917 16.3238 5.76075C16.2004 5.93346 15.9907 6.04449 15.7686 6.04449C15.734 6.04449 15.6994 6.04493 15.665 6.0458C13.4923 6.10081 11.747 7.88025 11.747 10.0661V10.0785C11.747 10.8433 11.5249 11.5958 11.1055 12.2373L11.1027 12.2418C10.685 12.8823 10.4395 13.6333 10.4395 14.4579C10.4395 15.087 10.5875 15.6668 10.8342 16.1973C10.9206 16.37 10.9206 16.5797 10.8342 16.7524C10.5875 17.2706 10.4395 17.8504 10.4395 18.4672C10.4395 20.6384 12.1912 22.3901 14.3624 22.3901H24.8236C26.9948 22.3901 28.7466 20.6384 28.7466 18.4672C28.7466 17.8504 28.5985 17.2706 28.3518 16.7524C28.2655 16.5797 28.2655 16.37 28.3518 16.1973ZM13.4067 12.9396H13.3917L14.8529 15.811C15.0032 19.2273 16.3364 15.811 19.5929 15.811C22.8494 15.811 24.2694 19.6136 24.4197 16.1973L25.8044 12.3C25.7389 10.7825 24.6392 10.676 24.4197 10.676H20.4945C18.9445 10.676 17.4819 9.91734 16.6068 8.63628C16.4568 8.42484 16.1443 8.46215 16.0443 8.69846L15.9443 8.93478C15.6693 9.61884 15.1443 10.1412 14.4942 10.4397C14.4755 10.4459 14.4536 10.4553 14.4317 10.4646C14.4099 10.4739 14.388 10.4832 14.3692 10.4895C14.0817 10.6387 13.4067 11.0865 13.3817 12.2431L13.3942 12.6163L13.4067 12.9396Z" fill="url(#paint10_radial_1326_22788)"/>
<path fill-rule="evenodd" clip-rule="evenodd" d="M28.3518 16.1973C28.6109 15.6668 28.7466 15.0747 28.7466 14.4579C28.7466 13.8882 28.6294 13.3537 28.4192 12.8665H28.4257C28.3277 12.6459 28.2174 12.4374 28.0829 12.2411L28.0804 12.2373C27.661 11.5958 27.4389 10.8433 27.4389 10.0785V10.0661C27.4389 7.84559 25.6378 6.04449 23.4173 6.04449C23.1952 6.04449 22.9855 5.9458 22.8621 5.76075C22.1343 4.74917 20.9376 4.08301 19.5929 4.08301C18.2482 4.08301 17.0516 4.74917 16.3238 5.76075C16.2004 5.93346 15.9907 6.04449 15.7686 6.04449C15.734 6.04449 15.6994 6.04493 15.665 6.0458C13.4923 6.10081 11.747 7.88025 11.747 10.0661V10.0785C11.747 10.8433 11.5249 11.5958 11.1055 12.2373L11.1027 12.2418C10.685 12.8823 10.4395 13.6333 10.4395 14.4579C10.4395 15.087 10.5875 15.6668 10.8342 16.1973C10.9206 16.37 10.9206 16.5797 10.8342 16.7524C10.5875 17.2706 10.4395 17.8504 10.4395 18.4672C10.4395 20.6384 12.1912 22.3901 14.3624 22.3901H24.8236C26.9948 22.3901 28.7466 20.6384 28.7466 18.4672C28.7466 17.8504 28.5985 17.2706 28.3518 16.7524C28.2655 16.5797 28.2655 16.37 28.3518 16.1973ZM13.4067 12.9396H13.3917L14.8529 15.811C15.0032 19.2273 16.3364 15.811 19.5929 15.811C22.8494 15.811 24.2694 19.6136 24.4197 16.1973L25.8044 12.3C25.7389 10.7825 24.6392 10.676 24.4197 10.676H20.4945C18.9445 10.676 17.4819 9.91734 16.6068 8.63628C16.4568 8.42484 16.1443 8.46215 16.0443 8.69846L15.9443 8.93478C15.6693 9.61884 15.1443 10.1412 14.4942 10.4397C14.4755 10.4459 14.4536 10.4553 14.4317 10.4646C14.4099 10.4739 14.388 10.4832 14.3692 10.4895C14.0817 10.6387 13.4067 11.0865 13.3817 12.2431L13.3942 12.6163L13.4067 12.9396Z" fill="url(#paint11_radial_1326_22788)"/>
</g>
<path d="M3.87304 9.27364C3.74804 7.35177 3.59179 6.31531 3.54492 5.63302C3.50972 5.12077 3.56836 4.56662 4.25586 4.44162C4.85351 4.3674 5.13866 4.89344 5.1621 5.10177C5.15949 4.90125 5.1621 4.42224 5.1621 4.29709C5.1621 4.08615 5.16991 3.32052 6.02147 3.32052C6.62282 3.32052 6.83789 3.90776 6.82226 4.1838C6.83268 4.08224 6.84492 3.77052 6.85742 3.47677C6.87586 3.04347 7.10898 2.48771 7.80273 2.50021C8.40039 2.53927 8.5957 3.11349 8.56835 3.47677L8.45116 5.34396C8.4746 5.15646 8.55351 4.67911 8.72851 4.00411C8.90351 3.32911 9.43009 3.28433 9.68554 3.32052C10.0115 3.3667 10.5652 3.68146 10.334 4.59396C10.059 5.75021 9.87174 7.23849 9.80664 7.87911C10.1262 7.74822 10.4115 7.4504 10.7637 7.08287L10.7793 7.06661C11.1387 6.69161 11.7129 6.73458 11.9512 6.96114C12.3144 7.19552 12.5137 7.89864 12.1113 8.30099C11.6488 8.72599 9.98241 10.7059 9.15429 11.6955C8.92512 11.9872 8.15741 12.5705 6.91991 12.5705C4.71679 12.4768 3.97845 10.8944 3.87304 9.27364Z" fill="url(#paint12_radial_1326_22788)"/>
<path d="M3.87304 9.27364C3.74804 7.35177 3.59179 6.31531 3.54492 5.63302C3.50972 5.12077 3.56836 4.56662 4.25586 4.44162C4.85351 4.3674 5.13866 4.89344 5.1621 5.10177C5.15949 4.90125 5.1621 4.42224 5.1621 4.29709C5.1621 4.08615 5.16991 3.32052 6.02147 3.32052C6.62282 3.32052 6.83789 3.90776 6.82226 4.1838C6.83268 4.08224 6.84492 3.77052 6.85742 3.47677C6.87586 3.04347 7.10898 2.48771 7.80273 2.50021C8.40039 2.53927 8.5957 3.11349 8.56835 3.47677L8.45116 5.34396C8.4746 5.15646 8.55351 4.67911 8.72851 4.00411C8.90351 3.32911 9.43009 3.28433 9.68554 3.32052C10.0115 3.3667 10.5652 3.68146 10.334 4.59396C10.059 5.75021 9.87174 7.23849 9.80664 7.87911C10.1262 7.74822 10.4115 7.4504 10.7637 7.08287L10.7793 7.06661C11.1387 6.69161 11.7129 6.73458 11.9512 6.96114C12.3144 7.19552 12.5137 7.89864 12.1113 8.30099C11.6488 8.72599 9.98241 10.7059 9.15429 11.6955C8.92512 11.9872 8.15741 12.5705 6.91991 12.5705C4.71679 12.4768 3.97845 10.8944 3.87304 9.27364Z" fill="url(#paint13_radial_1326_22788)"/>
<path d="M3.87304 9.27364C3.74804 7.35177 3.59179 6.31531 3.54492 5.63302C3.50972 5.12077 3.56836 4.56662 4.25586 4.44162C4.85351 4.3674 5.13866 4.89344 5.1621 5.10177C5.15949 4.90125 5.1621 4.42224 5.1621 4.29709C5.1621 4.08615 5.16991 3.32052 6.02147 3.32052C6.62282 3.32052 6.83789 3.90776 6.82226 4.1838C6.83268 4.08224 6.84492 3.77052 6.85742 3.47677C6.87586 3.04347 7.10898 2.48771 7.80273 2.50021C8.40039 2.53927 8.5957 3.11349 8.56835 3.47677L8.45116 5.34396C8.4746 5.15646 8.55351 4.67911 8.72851 4.00411C8.90351 3.32911 9.43009 3.28433 9.68554 3.32052C10.0115 3.3667 10.5652 3.68146 10.334 4.59396C10.059 5.75021 9.87174 7.23849 9.80664 7.87911C10.1262 7.74822 10.4115 7.4504 10.7637 7.08287L10.7793 7.06661C11.1387 6.69161 11.7129 6.73458 11.9512 6.96114C12.3144 7.19552 12.5137 7.89864 12.1113 8.30099C11.6488 8.72599 9.98241 10.7059 9.15429 11.6955C8.92512 11.9872 8.15741 12.5705 6.91991 12.5705C4.71679 12.4768 3.97845 10.8944 3.87304 9.27364Z" fill="url(#paint14_linear_1326_22788)"/>
<path d="M3.87304 9.27364C3.74804 7.35177 3.59179 6.31531 3.54492 5.63302C3.50972 5.12077 3.56836 4.56662 4.25586 4.44162C4.85351 4.3674 5.13866 4.89344 5.1621 5.10177C5.15949 4.90125 5.1621 4.42224 5.1621 4.29709C5.1621 4.08615 5.16991 3.32052 6.02147 3.32052C6.62282 3.32052 6.83789 3.90776 6.82226 4.1838C6.83268 4.08224 6.84492 3.77052 6.85742 3.47677C6.87586 3.04347 7.10898 2.48771 7.80273 2.50021C8.40039 2.53927 8.5957 3.11349 8.56835 3.47677L8.45116 5.34396C8.4746 5.15646 8.55351 4.67911 8.72851 4.00411C8.90351 3.32911 9.43009 3.28433 9.68554 3.32052C10.0115 3.3667 10.5652 3.68146 10.334 4.59396C10.059 5.75021 9.87174 7.23849 9.80664 7.87911C10.1262 7.74822 10.4115 7.4504 10.7637 7.08287L10.7793 7.06661C11.1387 6.69161 11.7129 6.73458 11.9512 6.96114C12.3144 7.19552 12.5137 7.89864 12.1113 8.30099C11.6488 8.72599 9.98241 10.7059 9.15429 11.6955C8.92512 11.9872 8.15741 12.5705 6.91991 12.5705C4.71679 12.4768 3.97845 10.8944 3.87304 9.27364Z" fill="url(#paint15_radial_1326_22788)"/>
<path d="M3.87304 9.27364C3.74804 7.35177 3.59179 6.31531 3.54492 5.63302C3.50972 5.12077 3.56836 4.56662 4.25586 4.44162C4.85351 4.3674 5.13866 4.89344 5.1621 5.10177C5.15949 4.90125 5.1621 4.42224 5.1621 4.29709C5.1621 4.08615 5.16991 3.32052 6.02147 3.32052C6.62282 3.32052 6.83789 3.90776 6.82226 4.1838C6.83268 4.08224 6.84492 3.77052 6.85742 3.47677C6.87586 3.04347 7.10898 2.48771 7.80273 2.50021C8.40039 2.53927 8.5957 3.11349 8.56835 3.47677L8.45116 5.34396C8.4746 5.15646 8.55351 4.67911 8.72851 4.00411C8.90351 3.32911 9.43009 3.28433 9.68554 3.32052C10.0115 3.3667 10.5652 3.68146 10.334 4.59396C10.059 5.75021 9.87174 7.23849 9.80664 7.87911C10.1262 7.74822 10.4115 7.4504 10.7637 7.08287L10.7793 7.06661C11.1387 6.69161 11.7129 6.73458 11.9512 6.96114C12.3144 7.19552 12.5137 7.89864 12.1113 8.30099C11.6488 8.72599 9.98241 10.7059 9.15429 11.6955C8.92512 11.9872 8.15741 12.5705 6.91991 12.5705C4.71679 12.4768 3.97845 10.8944 3.87304 9.27364Z" fill="url(#paint16_radial_1326_22788)"/>
<path d="M3.87304 9.27364C3.74804 7.35177 3.59179 6.31531 3.54492 5.63302C3.50972 5.12077 3.56836 4.56662 4.25586 4.44162C4.85351 4.3674 5.13866 4.89344 5.1621 5.10177C5.15949 4.90125 5.1621 4.42224 5.1621 4.29709C5.1621 4.08615 5.16991 3.32052 6.02147 3.32052C6.62282 3.32052 6.83789 3.90776 6.82226 4.1838C6.83268 4.08224 6.84492 3.77052 6.85742 3.47677C6.87586 3.04347 7.10898 2.48771 7.80273 2.50021C8.40039 2.53927 8.5957 3.11349 8.56835 3.47677L8.45116 5.34396C8.4746 5.15646 8.55351 4.67911 8.72851 4.00411C8.90351 3.32911 9.43009 3.28433 9.68554 3.32052C10.0115 3.3667 10.5652 3.68146 10.334 4.59396C10.059 5.75021 9.87174 7.23849 9.80664 7.87911C10.1262 7.74822 10.4115 7.4504 10.7637 7.08287L10.7793 7.06661C11.1387 6.69161 11.7129 6.73458 11.9512 6.96114C12.3144 7.19552 12.5137 7.89864 12.1113 8.30099C11.6488 8.72599 9.98241 10.7059 9.15429 11.6955C8.92512 11.9872 8.15741 12.5705 6.91991 12.5705C4.71679 12.4768 3.97845 10.8944 3.87304 9.27364Z" fill="url(#paint17_radial_1326_22788)"/>
<path d="M3.87304 9.27364C3.74804 7.35177 3.59179 6.31531 3.54492 5.63302C3.50972 5.12077 3.56836 4.56662 4.25586 4.44162C4.85351 4.3674 5.13866 4.89344 5.1621 5.10177C5.15949 4.90125 5.1621 4.42224 5.1621 4.29709C5.1621 4.08615 5.16991 3.32052 6.02147 3.32052C6.62282 3.32052 6.83789 3.90776 6.82226 4.1838C6.83268 4.08224 6.84492 3.77052 6.85742 3.47677C6.87586 3.04347 7.10898 2.48771 7.80273 2.50021C8.40039 2.53927 8.5957 3.11349 8.56835 3.47677L8.45116 5.34396C8.4746 5.15646 8.55351 4.67911 8.72851 4.00411C8.90351 3.32911 9.43009 3.28433 9.68554 3.32052C10.0115 3.3667 10.5652 3.68146 10.334 4.59396C10.059 5.75021 9.87174 7.23849 9.80664 7.87911C10.1262 7.74822 10.4115 7.4504 10.7637 7.08287L10.7793 7.06661C11.1387 6.69161 11.7129 6.73458 11.9512 6.96114C12.3144 7.19552 12.5137 7.89864 12.1113 8.30099C11.6488 8.72599 9.98241 10.7059 9.15429 11.6955C8.92512 11.9872 8.15741 12.5705 6.91991 12.5705C4.71679 12.4768 3.97845 10.8944 3.87304 9.27364Z" fill="url(#paint18_radial_1326_22788)"/>
<path d="M3.87304 9.27364C3.74804 7.35177 3.59179 6.31531 3.54492 5.63302C3.50972 5.12077 3.56836 4.56662 4.25586 4.44162C4.85351 4.3674 5.13866 4.89344 5.1621 5.10177C5.15949 4.90125 5.1621 4.42224 5.1621 4.29709C5.1621 4.08615 5.16991 3.32052 6.02147 3.32052C6.62282 3.32052 6.83789 3.90776 6.82226 4.1838C6.83268 4.08224 6.84492 3.77052 6.85742 3.47677C6.87586 3.04347 7.10898 2.48771 7.80273 2.50021C8.40039 2.53927 8.5957 3.11349 8.56835 3.47677L8.45116 5.34396C8.4746 5.15646 8.55351 4.67911 8.72851 4.00411C8.90351 3.32911 9.43009 3.28433 9.68554 3.32052C10.0115 3.3667 10.5652 3.68146 10.334 4.59396C10.059 5.75021 9.87174 7.23849 9.80664 7.87911C10.1262 7.74822 10.4115 7.4504 10.7637 7.08287L10.7793 7.06661C11.1387 6.69161 11.7129 6.73458 11.9512 6.96114C12.3144 7.19552 12.5137 7.89864 12.1113 8.30099C11.6488 8.72599 9.98241 10.7059 9.15429 11.6955C8.92512 11.9872 8.15741 12.5705 6.91991 12.5705C4.71679 12.4768 3.97845 10.8944 3.87304 9.27364Z" fill="url(#paint19_radial_1326_22788)"/>
<path d="M3.87304 9.27364C3.74804 7.35177 3.59179 6.31531 3.54492 5.63302C3.50972 5.12077 3.56836 4.56662 4.25586 4.44162C4.85351 4.3674 5.13866 4.89344 5.1621 5.10177C5.15949 4.90125 5.1621 4.42224 5.1621 4.29709C5.1621 4.08615 5.16991 3.32052 6.02147 3.32052C6.62282 3.32052 6.83789 3.90776 6.82226 4.1838C6.83268 4.08224 6.84492 3.77052 6.85742 3.47677C6.87586 3.04347 7.10898 2.48771 7.80273 2.50021C8.40039 2.53927 8.5957 3.11349 8.56835 3.47677L8.45116 5.34396C8.4746 5.15646 8.55351 4.67911 8.72851 4.00411C8.90351 3.32911 9.43009 3.28433 9.68554 3.32052C10.0115 3.3667 10.5652 3.68146 10.334 4.59396C10.059 5.75021 9.87174 7.23849 9.80664 7.87911C10.1262 7.74822 10.4115 7.4504 10.7637 7.08287L10.7793 7.06661C11.1387 6.69161 11.7129 6.73458 11.9512 6.96114C12.3144 7.19552 12.5137 7.89864 12.1113 8.30099C11.6488 8.72599 9.98241 10.7059 9.15429 11.6955C8.92512 11.9872 8.15741 12.5705 6.91991 12.5705C4.71679 12.4768 3.97845 10.8944 3.87304 9.27364Z" fill="url(#paint20_radial_1326_22788)"/>
<path d="M3.87304 9.27364C3.74804 7.35177 3.59179 6.31531 3.54492 5.63302C3.50972 5.12077 3.56836 4.56662 4.25586 4.44162C4.85351 4.3674 5.13866 4.89344 5.1621 5.10177C5.15949 4.90125 5.1621 4.42224 5.1621 4.29709C5.1621 4.08615 5.16991 3.32052 6.02147 3.32052C6.62282 3.32052 6.83789 3.90776 6.82226 4.1838C6.83268 4.08224 6.84492 3.77052 6.85742 3.47677C6.87586 3.04347 7.10898 2.48771 7.80273 2.50021C8.40039 2.53927 8.5957 3.11349 8.56835 3.47677L8.45116 5.34396C8.4746 5.15646 8.55351 4.67911 8.72851 4.00411C8.90351 3.32911 9.43009 3.28433 9.68554 3.32052C10.0115 3.3667 10.5652 3.68146 10.334 4.59396C10.059 5.75021 9.87174 7.23849 9.80664 7.87911C10.1262 7.74822 10.4115 7.4504 10.7637 7.08287L10.7793 7.06661C11.1387 6.69161 11.7129 6.73458 11.9512 6.96114C12.3144 7.19552 12.5137 7.89864 12.1113 8.30099C11.6488 8.72599 9.98241 10.7059 9.15429 11.6955C8.92512 11.9872 8.15741 12.5705 6.91991 12.5705C4.71679 12.4768 3.97845 10.8944 3.87304 9.27364Z" fill="url(#paint21_radial_1326_22788)"/>
<path d="M3.87304 9.27364C3.74804 7.35177 3.59179 6.31531 3.54492 5.63302C3.50972 5.12077 3.56836 4.56662 4.25586 4.44162C4.85351 4.3674 5.13866 4.89344 5.1621 5.10177C5.15949 4.90125 5.1621 4.42224 5.1621 4.29709C5.1621 4.08615 5.16991 3.32052 6.02147 3.32052C6.62282 3.32052 6.83789 3.90776 6.82226 4.1838C6.83268 4.08224 6.84492 3.77052 6.85742 3.47677C6.87586 3.04347 7.10898 2.48771 7.80273 2.50021C8.40039 2.53927 8.5957 3.11349 8.56835 3.47677L8.45116 5.34396C8.4746 5.15646 8.55351 4.67911 8.72851 4.00411C8.90351 3.32911 9.43009 3.28433 9.68554 3.32052C10.0115 3.3667 10.5652 3.68146 10.334 4.59396C10.059 5.75021 9.87174 7.23849 9.80664 7.87911C10.1262 7.74822 10.4115 7.4504 10.7637 7.08287L10.7793 7.06661C11.1387 6.69161 11.7129 6.73458 11.9512 6.96114C12.3144 7.19552 12.5137 7.89864 12.1113 8.30099C11.6488 8.72599 9.98241 10.7059 9.15429 11.6955C8.92512 11.9872 8.15741 12.5705 6.91991 12.5705C4.71679 12.4768 3.97845 10.8944 3.87304 9.27364Z" fill="url(#paint22_radial_1326_22788)"/>
<path d="M4.94336 12.2029C4.94336 12.0925 5.0329 12.0029 5.14336 12.0029H8.9543C9.06475 12.0029 9.1543 12.0925 9.1543 12.2029V13.917H4.94336V12.2029Z" fill="url(#paint23_linear_1326_22788)"/>
<path d="M4.94336 12.2029C4.94336 12.0925 5.0329 12.0029 5.14336 12.0029H8.9543C9.06475 12.0029 9.1543 12.0925 9.1543 12.2029V13.917H4.94336V12.2029Z" fill="url(#paint24_radial_1326_22788)"/>
<path d="M4.94336 12.2029C4.94336 12.0925 5.0329 12.0029 5.14336 12.0029H8.9543C9.06475 12.0029 9.1543 12.0925 9.1543 12.2029V13.917H4.94336V12.2029Z" fill="url(#paint25_linear_1326_22788)"/>
<path d="M20.5589 21.0264H21.5285C24.0191 21.0264 29.0005 24.5264 29.0005 30.0264H11.0676V26.5264C11.0676 26.2497 10.8982 25.9935 10.6535 25.9013L7.58069 24.5264C5.09002 23.5264 4.09375 21.0264 4.09375 19.3284V14.0408C4.09375 13.4773 4.51733 13.0264 5.02563 13.0264L9.13948 13.0264C9.65719 13.0264 10.0714 13.4875 10.0714 14.0408V18.0264C10.0714 19.3284 11.0676 19.5264 11.0676 19.5264L17.0452 21.0264H20.5589Z" fill="url(#paint26_linear_1326_22788)"/>
<path d="M20.5589 21.0264H21.5285C24.0191 21.0264 29.0005 24.5264 29.0005 30.0264H11.0676V26.5264C11.0676 26.2497 10.8982 25.9935 10.6535 25.9013L7.58069 24.5264C5.09002 23.5264 4.09375 21.0264 4.09375 19.3284V14.0408C4.09375 13.4773 4.51733 13.0264 5.02563 13.0264L9.13948 13.0264C9.65719 13.0264 10.0714 13.4875 10.0714 14.0408V18.0264C10.0714 19.3284 11.0676 19.5264 11.0676 19.5264L17.0452 21.0264H20.5589Z" fill="url(#paint27_radial_1326_22788)"/>
<path d="M20.5589 21.0264H21.5285C24.0191 21.0264 29.0005 24.5264 29.0005 30.0264H11.0676V26.5264C11.0676 26.2497 10.8982 25.9935 10.6535 25.9013L7.58069 24.5264C5.09002 23.5264 4.09375 21.0264 4.09375 19.3284V14.0408C4.09375 13.4773 4.51733 13.0264 5.02563 13.0264L9.13948 13.0264C9.65719 13.0264 10.0714 13.4875 10.0714 14.0408V18.0264C10.0714 19.3284 11.0676 19.5264 11.0676 19.5264L17.0452 21.0264H20.5589Z" fill="url(#paint28_radial_1326_22788)"/>
<path d="M18.9518 21.1357L11.078 26.3811C11.0307 26.1635 10.8799 25.9771 10.678 25.9013L7.59375 24.5264C5.09375 23.5264 4.09375 21.0264 4.09375 19.3284V14.0408C4.09375 13.4773 4.51892 13.0264 5.02912 13.0264L9.15838 13.0264C9.67803 13.0264 10.0938 13.4875 10.0938 14.0408V18.0264C10.0938 19.3284 11.0938 19.5264 11.0938 19.5264L17.0938 21.0264L18.9518 21.1357Z" fill="url(#paint29_linear_1326_22788)"/>
<path d="M18.9518 21.1357L11.078 26.3811C11.0307 26.1635 10.8799 25.9771 10.678 25.9013L7.59375 24.5264C5.09375 23.5264 4.09375 21.0264 4.09375 19.3284V14.0408C4.09375 13.4773 4.51892 13.0264 5.02912 13.0264L9.15838 13.0264C9.67803 13.0264 10.0938 13.4875 10.0938 14.0408V18.0264C10.0938 19.3284 11.0938 19.5264 11.0938 19.5264L17.0938 21.0264L18.9518 21.1357Z" fill="url(#paint30_radial_1326_22788)"/>
<path d="M18.9518 21.1357L11.078 26.3811C11.0307 26.1635 10.8799 25.9771 10.678 25.9013L7.59375 24.5264C5.09375 23.5264 4.09375 21.0264 4.09375 19.3284V14.0408C4.09375 13.4773 4.51892 13.0264 5.02912 13.0264L9.15838 13.0264C9.67803 13.0264 10.0938 13.4875 10.0938 14.0408V18.0264C10.0938 19.3284 11.0938 19.5264 11.0938 19.5264L17.0938 21.0264L18.9518 21.1357Z" fill="url(#paint31_radial_1326_22788)"/>
<path d="M18.9518 21.1357L11.078 26.3811C11.0307 26.1635 10.8799 25.9771 10.678 25.9013L7.59375 24.5264C5.09375 23.5264 4.09375 21.0264 4.09375 19.3284V14.0408C4.09375 13.4773 4.51892 13.0264 5.02912 13.0264L9.15838 13.0264C9.67803 13.0264 10.0938 13.4875 10.0938 14.0408V18.0264C10.0938 19.3284 11.0938 19.5264 11.0938 19.5264L17.0938 21.0264L18.9518 21.1357Z" fill="url(#paint32_radial_1326_22788)"/>
<path d="M18.9518 21.1357L11.078 26.3811C11.0307 26.1635 10.8799 25.9771 10.678 25.9013L7.59375 24.5264C5.09375 23.5264 4.09375 21.0264 4.09375 19.3284V14.0408C4.09375 13.4773 4.51892 13.0264 5.02912 13.0264L9.15838 13.0264C9.67803 13.0264 10.0938 13.4875 10.0938 14.0408V18.0264C10.0938 19.3284 11.0938 19.5264 11.0938 19.5264L17.0938 21.0264L18.9518 21.1357Z" fill="url(#paint33_linear_1326_22788)"/>
<path d="M18.9518 21.1357L11.078 26.3811C11.0307 26.1635 10.8799 25.9771 10.678 25.9013L7.59375 24.5264C5.09375 23.5264 4.09375 21.0264 4.09375 19.3284V14.0408C4.09375 13.4773 4.51892 13.0264 5.02912 13.0264L9.15838 13.0264C9.67803 13.0264 10.0938 13.4875 10.0938 14.0408V18.0264C10.0938 19.3284 11.0938 19.5264 11.0938 19.5264L17.0938 21.0264L18.9518 21.1357Z" fill="url(#paint34_linear_1326_22788)"/>
<path d="M19.5931 24.1321C18.3253 24.1321 17.2969 23.1466 17.2969 21.9318V19.3323C17.2969 18.1175 18.3253 17.1321 19.5931 17.1321C20.8609 17.1321 21.8893 18.1175 21.8893 19.3323V21.9318C21.8893 23.1466 20.8609 24.1321 19.5931 24.1321Z" fill="url(#paint35_linear_1326_22788)"/>
<path d="M19.5931 24.1321C18.3253 24.1321 17.2969 23.1466 17.2969 21.9318V19.3323C17.2969 18.1175 18.3253 17.1321 19.5931 17.1321C20.8609 17.1321 21.8893 18.1175 21.8893 19.3323V21.9318C21.8893 23.1466 20.8609 24.1321 19.5931 24.1321Z" fill="url(#paint36_radial_1326_22788)"/>
<g filter="url(#filter1_f_1326_22788)">
<path d="M7.93579 13.9541L7.9356 19.1256C7.93557 19.9915 8.49272 20.7591 9.31598 21.0273L13.498 22.39" stroke="url(#paint37_linear_1326_22788)"/>
</g>
<g filter="url(#filter2_f_1326_22788)">
<path d="M5.1875 5.21338L5.3194 6.63235" stroke="url(#paint38_linear_1326_22788)" stroke-width="0.075" stroke-linecap="round"/>
</g>
<g filter="url(#filter3_f_1326_22788)">
<path d="M6.82031 4.29932L6.72656 6.36182" stroke="url(#paint39_linear_1326_22788)" stroke-width="0.075" stroke-linecap="round"/>
</g>
<g filter="url(#filter4_f_1326_22788)">
<path d="M8.42969 5.43213L8.27344 6.63525" stroke="url(#paint40_linear_1326_22788)" stroke-width="0.075" stroke-linecap="round"/>
</g>
<g filter="url(#filter5_i_1326_22788)">
<path d="M13.8814 16.44C14.9647 16.44 15.8429 15.5619 15.8429 14.4786C15.8429 13.3953 14.9647 12.5171 13.8814 12.5171C12.7981 12.5171 11.9199 13.3953 11.9199 14.4786C11.9199 15.5619 12.7981 16.44 13.8814 16.44Z" fill="url(#paint41_linear_1326_22788)"/>
</g>
<g filter="url(#filter6_i_1326_22788)">
<path d="M25.4771 16.44C26.5604 16.44 27.4386 15.5619 27.4386 14.4786C27.4386 13.3953 26.5604 12.5171 25.4771 12.5171C24.3938 12.5171 23.5156 13.3953 23.5156 14.4786C23.5156 15.5619 24.3938 16.44 25.4771 16.44Z" fill="url(#paint42_radial_1326_22788)"/>
</g>
<g filter="url(#filter7_f_1326_22788)">
<path d="M25.4773 15.7881C26.2004 15.7881 26.7867 15.2019 26.7867 14.4788C26.7867 13.7556 26.2004 13.1694 25.4773 13.1694C24.7542 13.1694 24.168 13.7556 24.168 14.4788C24.168 15.2019 24.7542 15.7881 25.4773 15.7881Z" fill="#FFCA38"/>
<path d="M25.4773 15.7881C26.2004 15.7881 26.7867 15.2019 26.7867 14.4788C26.7867 13.7556 26.2004 13.1694 25.4773 13.1694C24.7542 13.1694 24.168 13.7556 24.168 14.4788C24.168 15.2019 24.7542 15.7881 25.4773 15.7881Z" fill="url(#paint43_radial_1326_22788)"/>
</g>
<g filter="url(#filter8_f_1326_22788)">
<path d="M13.905 15.7881C14.6282 15.7881 15.2144 15.2019 15.2144 14.4788C15.2144 13.7556 14.6282 13.1694 13.905 13.1694C13.1819 13.1694 12.5957 13.7556 12.5957 14.4788C12.5957 15.2019 13.1819 15.7881 13.905 15.7881Z" fill="#E28527"/>
<path d="M13.905 15.7881C14.6282 15.7881 15.2144 15.2019 15.2144 14.4788C15.2144 13.7556 14.6282 13.1694 13.905 13.1694C13.1819 13.1694 12.5957 13.7556 12.5957 14.4788C12.5957 15.2019 13.1819 15.7881 13.905 15.7881Z" fill="url(#paint44_radial_1326_22788)"/>
</g>
<g filter="url(#filter9_i_1326_22788)">
<path d="M13.3928 12.9396H13.4078L13.3953 12.6162L13.3828 12.2431C13.4078 11.0864 14.0828 10.6386 14.3704 10.4894C14.3891 10.4832 14.411 10.4738 14.4329 10.4645C14.4547 10.4552 14.4766 10.4458 14.4954 10.4396C15.1454 10.1411 15.6704 9.61875 15.9454 8.93469L16.0454 8.69838C16.1455 8.46207 16.458 8.42475 16.608 8.63619C17.483 9.91725 18.9456 10.6759 20.4957 10.6759H24.4209C24.6404 10.6759 25.74 10.7824 25.8055 12.2999L25.6607 16.0459C25.5104 19.4622 22.8426 21.7562 19.5862 21.7562C16.3297 21.7562 13.6619 19.4622 13.5116 16.0459L13.3928 12.9396Z" fill="url(#paint45_radial_1326_22788)"/>
<path d="M13.3928 12.9396H13.4078L13.3953 12.6162L13.3828 12.2431C13.4078 11.0864 14.0828 10.6386 14.3704 10.4894C14.3891 10.4832 14.411 10.4738 14.4329 10.4645C14.4547 10.4552 14.4766 10.4458 14.4954 10.4396C15.1454 10.1411 15.6704 9.61875 15.9454 8.93469L16.0454 8.69838C16.1455 8.46207 16.458 8.42475 16.608 8.63619C17.483 9.91725 18.9456 10.6759 20.4957 10.6759H24.4209C24.6404 10.6759 25.74 10.7824 25.8055 12.2999L25.6607 16.0459C25.5104 19.4622 22.8426 21.7562 19.5862 21.7562C16.3297 21.7562 13.6619 19.4622 13.5116 16.0459L13.3928 12.9396Z" fill="url(#paint46_radial_1326_22788)"/>
<path d="M13.3928 12.9396H13.4078L13.3953 12.6162L13.3828 12.2431C13.4078 11.0864 14.0828 10.6386 14.3704 10.4894C14.3891 10.4832 14.411 10.4738 14.4329 10.4645C14.4547 10.4552 14.4766 10.4458 14.4954 10.4396C15.1454 10.1411 15.6704 9.61875 15.9454 8.93469L16.0454 8.69838C16.1455 8.46207 16.458 8.42475 16.608 8.63619C17.483 9.91725 18.9456 10.6759 20.4957 10.6759H24.4209C24.6404 10.6759 25.74 10.7824 25.8055 12.2999L25.6607 16.0459C25.5104 19.4622 22.8426 21.7562 19.5862 21.7562C16.3297 21.7562 13.6619 19.4622 13.5116 16.0459L13.3928 12.9396Z" fill="url(#paint47_radial_1326_22788)"/>
<path d="M13.3928 12.9396H13.4078L13.3953 12.6162L13.3828 12.2431C13.4078 11.0864 14.0828 10.6386 14.3704 10.4894C14.3891 10.4832 14.411 10.4738 14.4329 10.4645C14.4547 10.4552 14.4766 10.4458 14.4954 10.4396C15.1454 10.1411 15.6704 9.61875 15.9454 8.93469L16.0454 8.69838C16.1455 8.46207 16.458 8.42475 16.608 8.63619C17.483 9.91725 18.9456 10.6759 20.4957 10.6759H24.4209C24.6404 10.6759 25.74 10.7824 25.8055 12.2999L25.6607 16.0459C25.5104 19.4622 22.8426 21.7562 19.5862 21.7562C16.3297 21.7562 13.6619 19.4622 13.5116 16.0459L13.3928 12.9396Z" fill="url(#paint48_radial_1326_22788)"/>
<path d="M13.3928 12.9396H13.4078L13.3953 12.6162L13.3828 12.2431C13.4078 11.0864 14.0828 10.6386 14.3704 10.4894C14.3891 10.4832 14.411 10.4738 14.4329 10.4645C14.4547 10.4552 14.4766 10.4458 14.4954 10.4396C15.1454 10.1411 15.6704 9.61875 15.9454 8.93469L16.0454 8.69838C16.1455 8.46207 16.458 8.42475 16.608 8.63619C17.483 9.91725 18.9456 10.6759 20.4957 10.6759H24.4209C24.6404 10.6759 25.74 10.7824 25.8055 12.2999L25.6607 16.0459C25.5104 19.4622 22.8426 21.7562 19.5862 21.7562C16.3297 21.7562 13.6619 19.4622 13.5116 16.0459L13.3928 12.9396Z" fill="url(#paint49_radial_1326_22788)"/>
<path d="M13.3928 12.9396H13.4078L13.3953 12.6162L13.3828 12.2431C13.4078 11.0864 14.0828 10.6386 14.3704 10.4894C14.3891 10.4832 14.411 10.4738 14.4329 10.4645C14.4547 10.4552 14.4766 10.4458 14.4954 10.4396C15.1454 10.1411 15.6704 9.61875 15.9454 8.93469L16.0454 8.69838C16.1455 8.46207 16.458 8.42475 16.608 8.63619C17.483 9.91725 18.9456 10.6759 20.4957 10.6759H24.4209C24.6404 10.6759 25.74 10.7824 25.8055 12.2999L25.6607 16.0459C25.5104 19.4622 22.8426 21.7562 19.5862 21.7562C16.3297 21.7562 13.6619 19.4622 13.5116 16.0459L13.3928 12.9396Z" fill="url(#paint50_radial_1326_22788)"/>
<path d="M13.3928 12.9396H13.4078L13.3953 12.6162L13.3828 12.2431C13.4078 11.0864 14.0828 10.6386 14.3704 10.4894C14.3891 10.4832 14.411 10.4738 14.4329 10.4645C14.4547 10.4552 14.4766 10.4458 14.4954 10.4396C15.1454 10.1411 15.6704 9.61875 15.9454 8.93469L16.0454 8.69838C16.1455 8.46207 16.458 8.42475 16.608 8.63619C17.483 9.91725 18.9456 10.6759 20.4957 10.6759H24.4209C24.6404 10.6759 25.74 10.7824 25.8055 12.2999L25.6607 16.0459C25.5104 19.4622 22.8426 21.7562 19.5862 21.7562C16.3297 21.7562 13.6619 19.4622 13.5116 16.0459L13.3928 12.9396Z" fill="url(#paint51_radial_1326_22788)"/>
</g>
<path d="M13.3928 12.9396H13.4078L13.3953 12.6162L13.3828 12.2431C13.4078 11.0864 14.0828 10.6386 14.3704 10.4894C14.3891 10.4832 14.411 10.4738 14.4329 10.4645C14.4547 10.4552 14.4766 10.4458 14.4954 10.4396C15.1454 10.1411 15.6704 9.61875 15.9454 8.93469L16.0454 8.69838C16.1455 8.46207 16.458 8.42475 16.608 8.63619C17.483 9.91725 18.9456 10.6759 20.4957 10.6759H24.4209C24.6404 10.6759 25.74 10.7824 25.8055 12.2999L25.6607 16.0459C25.5104 19.4622 22.8426 21.7562 19.5862 21.7562C16.3297 21.7562 13.6619 19.4622 13.5116 16.0459L13.3928 12.9396Z" fill="url(#paint52_radial_1326_22788)"/>
<g filter="url(#filter10_f_1326_22788)">
<path d="M19.1155 14.2071L18.2822 16.2794C18.15 16.7057 18.4673 17.1319 18.9169 17.1319H19.8754C20.325 17.1319 20.6423 16.6991 20.5101 16.2794L19.8622 14.2071C19.7234 13.748 19.2609 13.748 19.1155 14.2071Z" fill="#EB8B29"/>
</g>
<g filter="url(#filter11_f_1326_22788)">
<path d="M19.1273 14.0384L18.4795 16.1107C18.3473 16.537 18.6646 16.9632 19.1141 16.9632H20.0727C20.5222 16.9632 20.8396 16.5304 20.7073 16.1107L20.0595 14.0384C19.9207 13.5793 19.2728 13.5793 19.1273 14.0384Z" fill="url(#paint53_linear_1326_22788)"/>
<path d="M19.1273 14.0384L18.4795 16.1107C18.3473 16.537 18.6646 16.9632 19.1141 16.9632H20.0727C20.5222 16.9632 20.8396 16.5304 20.7073 16.1107L20.0595 14.0384C19.9207 13.5793 19.2728 13.5793 19.1273 14.0384Z" fill="url(#paint54_radial_1326_22788)"/>
<path d="M19.1273 14.0384L18.4795 16.1107C18.3473 16.537 18.6646 16.9632 19.1141 16.9632H20.0727C20.5222 16.9632 20.8396 16.5304 20.7073 16.1107L20.0595 14.0384C19.9207 13.5793 19.2728 13.5793 19.1273 14.0384Z" fill="url(#paint55_linear_1326_22788)"/>
<path d="M19.1273 14.0384L18.4795 16.1107C18.3473 16.537 18.6646 16.9632 19.1141 16.9632H20.0727C20.5222 16.9632 20.8396 16.5304 20.7073 16.1107L20.0595 14.0384C19.9207 13.5793 19.2728 13.5793 19.1273 14.0384Z" fill="url(#paint56_linear_1326_22788)"/>
</g>
<path d="M19.1273 14.0384L18.4795 16.1107C18.3473 16.537 18.6646 16.9632 19.1141 16.9632H20.0727C20.5222 16.9632 20.8396 16.5304 20.7073 16.1107L20.0595 14.0384C19.9207 13.5793 19.2728 13.5793 19.1273 14.0384Z" fill="url(#paint57_linear_1326_22788)"/>
<path d="M19.1273 14.0384L18.4795 16.1107C18.3473 16.537 18.6646 16.9632 19.1141 16.9632H20.0727C20.5222 16.9632 20.8396 16.5304 20.7073 16.1107L20.0595 14.0384C19.9207 13.5793 19.2728 13.5793 19.1273 14.0384Z" fill="url(#paint58_radial_1326_22788)"/>
<path d="M17.8833 17.5635L17.8833 17.5635C18.3774 17.827 18.9659 17.9779 19.5928 17.9779C20.2259 17.9779 20.8081 17.827 21.3022 17.5635L21.3026 17.5633L21.3026 17.5633C21.4103 17.5073 21.5231 17.5399 21.5906 17.6116C21.6586 17.6837 21.683 17.7981 21.6152 17.9022C21.6152 17.9023 21.6152 17.9023 21.6151 17.9024L21.5732 17.8751C21.1543 18.5245 20.4243 18.9574 19.5928 18.9574C18.7612 18.9574 18.0312 18.5245 17.6123 17.8751L17.8833 17.5635ZM17.8833 17.5635L17.8829 17.5633C17.7744 17.5069 17.6617 17.5421 17.5947 17.6142C17.5276 17.6865 17.5019 17.8009 17.5705 17.9026L17.8833 17.5635Z" fill="#8A004F" stroke="url(#paint59_linear_1326_22788)" stroke-width="0.1"/>
<g filter="url(#filter12_i_1326_22788)">
<path d="M20.9855 13.7851C21.309 13.2161 21.8009 12.7666 22.8595 12.7666C23.323 12.7666 23.77 12.895 24.1673 13.2161C24.495 13.4809 24.4511 13.8197 24.1973 13.9466L23.5195 14.3335C22.7249 14.0767 21.8463 14.0419 20.9855 13.7851Z" fill="#635D5F"/>
</g>
<g filter="url(#filter13_i_1326_22788)">
<path d="M18.202 13.7851C17.8785 13.2161 17.3866 12.7666 16.328 12.7666C15.8645 12.7666 15.4175 12.895 15.0202 13.2161C14.6925 13.4809 14.7364 13.8197 14.9902 13.9466L15.668 14.3335C16.4626 14.0767 17.3412 14.0419 18.202 13.7851Z" fill="#635D5F"/>
</g>
<g filter="url(#filter14_i_1326_22788)">
<path d="M15.4516 12.3114L15.4463 12.3145C15.4461 12.3146 15.446 12.3147 15.4458 12.3147C15.2911 12.4071 15.0905 12.357 14.9978 12.2023C14.9049 12.0475 14.9553 11.8466 15.1101 11.7537L15.1108 11.7533L15.112 11.7525L15.1156 11.7504L15.1271 11.7438C15.1366 11.7383 15.1499 11.7309 15.1667 11.7218C15.2002 11.7037 15.2479 11.6788 15.308 11.6502C15.4281 11.5929 15.5994 11.5196 15.808 11.453C16.2223 11.3208 16.8017 11.2095 17.4271 11.3199C17.6049 11.3513 17.7236 11.5209 17.6923 11.6987C17.6609 11.8765 17.4913 11.9952 17.3135 11.9638C16.8275 11.878 16.3607 11.9629 16.0068 12.0759C15.8313 12.1319 15.6879 12.1934 15.5893 12.2404C15.5402 12.2638 15.5026 12.2834 15.4781 12.2967C15.4659 12.3033 15.457 12.3083 15.4516 12.3114Z" fill="#BD4F26"/>
</g>
<g filter="url(#filter15_i_1326_22788)">
<path fill-rule="evenodd" clip-rule="evenodd" d="M24.1419 11.7537C24.142 11.7538 24.1421 11.7538 23.9739 12.0341L24.1419 11.7537C24.2967 11.8466 24.3471 12.0475 24.2542 12.2023C24.1615 12.357 23.9611 12.4072 23.8063 12.3149C23.8062 12.3148 23.806 12.3147 23.8058 12.3145L23.8004 12.3114C23.795 12.3083 23.7861 12.3033 23.7738 12.2967C23.7494 12.2834 23.7118 12.2638 23.6626 12.2404C23.5641 12.1934 23.4207 12.1319 23.2452 12.0759C22.8913 11.9629 22.4245 11.878 21.9385 11.9638C21.7607 11.9952 21.5911 11.8765 21.5597 11.6987C21.5283 11.5209 21.647 11.3513 21.8248 11.3199C22.4503 11.2095 23.0297 11.3208 23.444 11.453C23.6526 11.5196 23.8238 11.5929 23.9439 11.6502C24.0041 11.6788 24.0518 11.7037 24.0853 11.7218C24.1021 11.7309 24.1154 11.7383 24.1249 11.7438L24.1363 11.7504L24.1399 11.7525L24.1412 11.7533L24.1419 11.7537Z" fill="#BD4F26"/>
</g>
<path d="M22.5088 12.8381C23.3049 12.8381 23.9774 13.387 24.1604 14.1288C24.2148 14.3414 24.0516 14.5442 23.834 14.5442H21.1143C20.9412 14.5442 20.8028 14.3859 20.8374 14.2128C20.9907 13.4315 21.678 12.8381 22.5088 12.8381Z" fill="white"/>
<path d="M22.2569 13.1694C22.8602 13.1694 23.3448 13.659 23.3448 14.2573C23.3448 14.3562 23.33 14.4551 23.3052 14.5441H21.2036C21.1789 14.4502 21.1641 14.3562 21.1641 14.2573C21.1641 13.659 21.6536 13.1694 22.2569 13.1694Z" fill="url(#paint60_radial_1326_22788)"/>
<path d="M21.6328 14.2573C21.6328 13.9112 21.9097 13.6343 22.2559 13.6343C22.602 13.6343 22.8789 13.9112 22.8789 14.2573C22.8789 14.3612 22.8542 14.4601 22.8097 14.5442H21.707C21.6575 14.4601 21.6328 14.3612 21.6328 14.2573Z" fill="black"/>
<g filter="url(#filter16_f_1326_22788)">
<path d="M22.1759 13.3996C22.2533 13.5032 22.0915 13.6295 21.9074 13.7671C21.7234 13.9047 21.5868 14.0016 21.5094 13.898C21.4319 13.7944 21.5184 13.5989 21.7024 13.4613C21.8865 13.3237 22.0985 13.2961 22.1759 13.3996Z" fill="#C7A7A3"/>
<path d="M22.1759 13.3996C22.2533 13.5032 22.0915 13.6295 21.9074 13.7671C21.7234 13.9047 21.5868 14.0016 21.5094 13.898C21.4319 13.7944 21.5184 13.5989 21.7024 13.4613C21.8865 13.3237 22.0985 13.2961 22.1759 13.3996Z" fill="url(#paint61_radial_1326_22788)"/>
</g>
<g filter="url(#filter17_f_1326_22788)">
<path d="M23.2233 14.1136C23.1832 13.8326 23.0187 13.6208 22.9415 13.55L22.625 13.8975L22.7678 14.1754L23.2233 14.1136Z" fill="url(#paint62_linear_1326_22788)"/>
</g>
<path d="M16.6778 12.8381C15.8817 12.8381 15.2091 13.387 15.0262 14.1288C14.9718 14.3414 15.135 14.5442 15.3525 14.5442H18.0723C18.2454 14.5442 18.3838 14.3859 18.3492 14.2128C18.1959 13.4315 17.5036 12.8381 16.6778 12.8381Z" fill="white"/>
<path d="M16.9317 13.1694C16.3284 13.1694 15.8438 13.659 15.8438 14.2573C15.8438 14.3562 15.8586 14.4551 15.8833 14.5441H17.9849C18.0097 14.4502 18.0245 14.3562 18.0245 14.2573C18.0196 13.659 17.5349 13.1694 16.9317 13.1694Z" fill="url(#paint63_radial_1326_22788)"/>
<path d="M17.5547 14.2573C17.5547 13.9112 17.2778 13.6343 16.9317 13.6343C16.5855 13.6343 16.3086 13.9112 16.3086 14.2573C16.3086 14.3612 16.3333 14.4601 16.3778 14.5442H17.4806C17.5251 14.4601 17.5547 14.3612 17.5547 14.2573Z" fill="black"/>
<g filter="url(#filter18_f_1326_22788)">
<path d="M17.9251 14.1289C17.9251 13.7776 17.6394 13.5434 17.5622 13.4727L17.2109 13.8124L17.4271 14.2524L17.9251 14.1289Z" fill="url(#paint64_linear_1326_22788)"/>
</g>
<g filter="url(#filter19_f_1326_22788)">
<ellipse cx="16.6021" cy="13.6341" rx="0.474544" ry="0.240163" transform="rotate(-27.914 16.6021 13.6341)" fill="#C7A7A3" fill-opacity="0.9"/>
<ellipse cx="16.6021" cy="13.6341" rx="0.474544" ry="0.240163" transform="rotate(-27.914 16.6021 13.6341)" fill="url(#paint65_radial_1326_22788)"/>
</g>
<g filter="url(#filter20_f_1326_22788)">
<path d="M21.957 11.5866C22.3502 11.4909 23.3279 11.5387 23.9815 12.0063" stroke="#C9725D" stroke-width="0.4" stroke-linecap="round"/>
</g>
<g filter="url(#filter21_f_1326_22788)">
<path d="M17.3359 11.5866C16.9427 11.4909 15.965 11.5387 15.3115 12.0063" stroke="#C9725D" stroke-width="0.4" stroke-linecap="round"/>
</g>
<g filter="url(#filter22_f_1326_22788)">
<path d="M13.6283 7.14773C14.3853 6.47347 15.4774 6.46666 16.0903 6.57563L16.5807 8.1489C16.2674 8.10123 15.9882 8.2102 15.7532 8.43495C15.1975 9.97145 13.2877 10.8187 12.4024 11.0503C12.2185 9.2318 12.3206 8.31236 13.6283 7.14773Z" fill="url(#paint66_radial_1326_22788)"/>
<path d="M13.6283 7.14773C14.3853 6.47347 15.4774 6.46666 16.0903 6.57563L16.5807 8.1489C16.2674 8.10123 15.9882 8.2102 15.7532 8.43495C15.1975 9.97145 13.2877 10.8187 12.4024 11.0503C12.2185 9.2318 12.3206 8.31236 13.6283 7.14773Z" fill="url(#paint67_radial_1326_22788)"/>
</g>
<g filter="url(#filter23_f_1326_22788)">
<path d="M18.859 4.98189C17.4783 4.67705 15.9985 6.14652 15.8555 6.65732C17.7352 11.0706 20.6216 10.65 23.824 10.2942C25.741 10.0812 25.9489 10.9549 26.1124 11.3771C25.5811 6.43256 22.0055 5.67658 18.859 4.98189Z" fill="url(#paint68_radial_1326_22788)"/>
<path d="M18.859 4.98189C17.4783 4.67705 15.9985 6.14652 15.8555 6.65732C17.7352 11.0706 20.6216 10.65 23.824 10.2942C25.741 10.0812 25.9489 10.9549 26.1124 11.3771C25.5811 6.43256 22.0055 5.67658 18.859 4.98189Z" fill="url(#paint69_radial_1326_22788)"/>
<path d="M18.859 4.98189C17.4783 4.67705 15.9985 6.14652 15.8555 6.65732C17.7352 11.0706 20.6216 10.65 23.824 10.2942C25.741 10.0812 25.9489 10.9549 26.1124 11.3771C25.5811 6.43256 22.0055 5.67658 18.859 4.98189Z" fill="url(#paint70_radial_1326_22788)"/>
</g>
<g filter="url(#filter24_f_1326_22788)">
<path d="M16.0684 6.50415C16.0967 6.80042 16.3544 7.91396 16.7324 8.58822" stroke="url(#paint71_linear_1326_22788)" stroke-width="0.1" stroke-linecap="round"/>
</g>
<defs>
<filter id="filter0_i_1326_22788" x="10.4395" y="3.83301" width="18.5566" height="18.5571" filterUnits="userSpaceOnUse" color-interpolation-filters="sRGB">
<feFlood flood-opacity="0" result="BackgroundImageFix"/>
<feBlend mode="normal" in="SourceGraphic" in2="BackgroundImageFix" result="shape"/>
<feColorMatrix in="SourceAlpha" type="matrix" values="0 0 0 0 0 0 0 0 0 0 0 0 0 0 0 0 0 0 127 0" result="hardAlpha"/>
<feOffset dx="0.25" dy="-0.25"/>
<feGaussianBlur stdDeviation="0.375"/>
<feComposite in2="hardAlpha" operator="arithmetic" k2="-1" k3="1"/>
<feColorMatrix type="matrix" values="0 0 0 0 0.92549 0 0 0 0 0.537255 0 0 0 0 0.12549 0 0 0 1 0"/>
<feBlend mode="normal" in2="shape" result="effect1_innerShadow_1326_22788"/>
</filter>
<filter id="filter1_f_1326_22788" x="5.93555" y="12.4541" width="9.2168" height="11.9114" filterUnits="userSpaceOnUse" color-interpolation-filters="sRGB">
<feFlood flood-opacity="0" result="BackgroundImageFix"/>
<feBlend mode="normal" in="SourceGraphic" in2="BackgroundImageFix" result="shape"/>
<feGaussianBlur stdDeviation="0.75" result="effect1_foregroundBlur_1326_22788"/>
</filter>
<filter id="filter2_f_1326_22788" x="5.05039" y="5.07578" width="0.407031" height="1.69414" filterUnits="userSpaceOnUse" color-interpolation-filters="sRGB">
<feFlood flood-opacity="0" result="BackgroundImageFix"/>
<feBlend mode="normal" in="SourceGraphic" in2="BackgroundImageFix" result="shape"/>
<feGaussianBlur stdDeviation="0.05" result="effect1_foregroundBlur_1326_22788"/>
</filter>
<filter id="filter3_f_1326_22788" x="6.58945" y="4.16172" width="0.367969" height="2.3377" filterUnits="userSpaceOnUse" color-interpolation-filters="sRGB">
<feFlood flood-opacity="0" result="BackgroundImageFix"/>
<feBlend mode="normal" in="SourceGraphic" in2="BackgroundImageFix" result="shape"/>
<feGaussianBlur stdDeviation="0.05" result="effect1_foregroundBlur_1326_22788"/>
</filter>
<filter id="filter4_f_1326_22788" x="8.13633" y="5.29453" width="0.430469" height="1.47832" filterUnits="userSpaceOnUse" color-interpolation-filters="sRGB">
<feFlood flood-opacity="0" result="BackgroundImageFix"/>
<feBlend mode="normal" in="SourceGraphic" in2="BackgroundImageFix" result="shape"/>
<feGaussianBlur stdDeviation="0.05" result="effect1_foregroundBlur_1326_22788"/>
</filter>
<filter id="filter5_i_1326_22788" x="11.9199" y="12.5171" width="4.02383" height="3.92285" filterUnits="userSpaceOnUse" color-interpolation-filters="sRGB">
<feFlood flood-opacity="0" result="BackgroundImageFix"/>
<feBlend mode="normal" in="SourceGraphic" in2="BackgroundImageFix" result="shape"/>
<feColorMatrix in="SourceAlpha" type="matrix" values="0 0 0 0 0 0 0 0 0 0 0 0 0 0 0 0 0 0 127 0" result="hardAlpha"/>
<feOffset dx="0.1"/>
<feGaussianBlur stdDeviation="0.15"/>
<feComposite in2="hardAlpha" operator="arithmetic" k2="-1" k3="1"/>
<feColorMatrix type="matrix" values="0 0 0 0 0.768627 0 0 0 0 0.501961 0 0 0 0 0.160784 0 0 0 1 0"/>
<feBlend mode="normal" in2="shape" result="effect1_innerShadow_1326_22788"/>
</filter>
<filter id="filter6_i_1326_22788" x="23.5156" y="12.2671" width="3.92383" height="4.17285" filterUnits="userSpaceOnUse" color-interpolation-filters="sRGB">
<feFlood flood-opacity="0" result="BackgroundImageFix"/>
<feBlend mode="normal" in="SourceGraphic" in2="BackgroundImageFix" result="shape"/>
<feColorMatrix in="SourceAlpha" type="matrix" values="0 0 0 0 0 0 0 0 0 0 0 0 0 0 0 0 0 0 127 0" result="hardAlpha"/>
<feOffset dy="-0.25"/>
<feGaussianBlur stdDeviation="0.25"/>
<feComposite in2="hardAlpha" operator="arithmetic" k2="-1" k3="1"/>
<feColorMatrix type="matrix" values="0 0 0 0 0.937255 0 0 0 0 0.576471 0 0 0 0 0.341176 0 0 0 1 0"/>
<feBlend mode="normal" in2="shape" result="effect1_innerShadow_1326_22788"/>
</filter>
<filter id="filter7_f_1326_22788" x="23.668" y="12.6694" width="3.61914" height="3.61865" filterUnits="userSpaceOnUse" color-interpolation-filters="sRGB">
<feFlood flood-opacity="0" result="BackgroundImageFix"/>
<feBlend mode="normal" in="SourceGraphic" in2="BackgroundImageFix" result="shape"/>
<feGaussianBlur stdDeviation="0.25" result="effect1_foregroundBlur_1326_22788"/>
</filter>
<filter id="filter8_f_1326_22788" x="12.3457" y="12.9194" width="3.11914" height="3.11865" filterUnits="userSpaceOnUse" color-interpolation-filters="sRGB">
<feFlood flood-opacity="0" result="BackgroundImageFix"/>
<feBlend mode="normal" in="SourceGraphic" in2="BackgroundImageFix" result="shape"/>
<feGaussianBlur stdDeviation="0.125" result="effect1_foregroundBlur_1326_22788"/>
</filter>
<filter id="filter9_i_1326_22788" x="13.3828" y="8.49731" width="12.4219" height="13.6588" filterUnits="userSpaceOnUse" color-interpolation-filters="sRGB">
<feFlood flood-opacity="0" result="BackgroundImageFix"/>
<feBlend mode="normal" in="SourceGraphic" in2="BackgroundImageFix" result="shape"/>
<feColorMatrix in="SourceAlpha" type="matrix" values="0 0 0 0 0 0 0 0 0 0 0 0 0 0 0 0 0 0 127 0" result="hardAlpha"/>
<feOffset dy="0.4"/>
<feGaussianBlur stdDeviation="0.3"/>
<feComposite in2="hardAlpha" operator="arithmetic" k2="-1" k3="1"/>
<feColorMatrix type="matrix" values="0 0 0 0 0.92549 0 0 0 0 0.529412 0 0 0 0 0.137255 0 0 0 1 0"/>
<feBlend mode="normal" in2="shape" result="effect1_innerShadow_1326_22788"/>
</filter>
<filter id="filter10_f_1326_22788" x="17.752" y="13.3628" width="3.28906" height="4.26904" filterUnits="userSpaceOnUse" color-interpolation-filters="sRGB">
<feFlood flood-opacity="0" result="BackgroundImageFix"/>
<feBlend mode="normal" in="SourceGraphic" in2="BackgroundImageFix" result="shape"/>
<feGaussianBlur stdDeviation="0.25" result="effect1_foregroundBlur_1326_22788"/>
</filter>
<filter id="filter11_f_1326_22788" x="18.1992" y="13.4441" width="2.78906" height="3.76904" filterUnits="userSpaceOnUse" color-interpolation-filters="sRGB">
<feFlood flood-opacity="0" result="BackgroundImageFix"/>
<feBlend mode="normal" in="SourceGraphic" in2="BackgroundImageFix" result="shape"/>
<feGaussianBlur stdDeviation="0.125" result="effect1_foregroundBlur_1326_22788"/>
</filter>
<filter id="filter12_i_1326_22788" x="20.7863" y="12.7666" width="3.61406" height="1.56689" filterUnits="userSpaceOnUse" color-interpolation-filters="sRGB">
<feFlood flood-opacity="0" result="BackgroundImageFix"/>
<feBlend mode="normal" in="SourceGraphic" in2="BackgroundImageFix" result="shape"/>
<feColorMatrix in="SourceAlpha" type="matrix" values="0 0 0 0 0 0 0 0 0 0 0 0 0 0 0 0 0 0 127 0" result="hardAlpha"/>
<feOffset dx="-0.2"/>
<feGaussianBlur stdDeviation="0.2"/>
<feComposite in2="hardAlpha" operator="arithmetic" k2="-1" k3="1"/>
<feColorMatrix type="matrix" values="0 0 0 0 0.141176 0 0 0 0 0.0862745 0 0 0 0 0.176471 0 0 0 1 0"/>
<feBlend mode="normal" in2="shape" result="effect1_innerShadow_1326_22788"/>
</filter>
<filter id="filter13_i_1326_22788" x="14.7871" y="12.7666" width="3.61406" height="1.56689" filterUnits="userSpaceOnUse" color-interpolation-filters="sRGB">
<feFlood flood-opacity="0" result="BackgroundImageFix"/>
<feBlend mode="normal" in="SourceGraphic" in2="BackgroundImageFix" result="shape"/>
<feColorMatrix in="SourceAlpha" type="matrix" values="0 0 0 0 0 0 0 0 0 0 0 0 0 0 0 0 0 0 127 0" result="hardAlpha"/>
<feOffset dx="0.2"/>
<feGaussianBlur stdDeviation="0.125"/>
<feComposite in2="hardAlpha" operator="arithmetic" k2="-1" k3="1"/>
<feColorMatrix type="matrix" values="0 0 0 0 0.133333 0 0 0 0 0.0784314 0 0 0 0 0.168627 0 0 0 1 0"/>
<feBlend mode="normal" in2="shape" result="effect1_innerShadow_1326_22788"/>
</filter>
<filter id="filter14_i_1326_22788" x="14.9512" y="11.0749" width="2.94609" height="1.28618" filterUnits="userSpaceOnUse" color-interpolation-filters="sRGB">
<feFlood flood-opacity="0" result="BackgroundImageFix"/>
<feBlend mode="normal" in="SourceGraphic" in2="BackgroundImageFix" result="shape"/>
<feColorMatrix in="SourceAlpha" type="matrix" values="0 0 0 0 0 0 0 0 0 0 0 0 0 0 0 0 0 0 127 0" result="hardAlpha"/>
<feOffset dx="0.2" dy="-0.2"/>
<feGaussianBlur stdDeviation="0.15"/>
<feComposite in2="hardAlpha" operator="arithmetic" k2="-1" k3="1"/>
<feColorMatrix type="matrix" values="0 0 0 0 0.658824 0 0 0 0 0.270588 0 0 0 0 0.141176 0 0 0 1 0"/>
<feBlend mode="normal" in2="shape" result="effect1_innerShadow_1326_22788"/>
</filter>
<filter id="filter15_i_1326_22788" x="21.5547" y="11.0749" width="2.94609" height="1.28618" filterUnits="userSpaceOnUse" color-interpolation-filters="sRGB">
<feFlood flood-opacity="0" result="BackgroundImageFix"/>
<feBlend mode="normal" in="SourceGraphic" in2="BackgroundImageFix" result="shape"/>
<feColorMatrix in="SourceAlpha" type="matrix" values="0 0 0 0 0 0 0 0 0 0 0 0 0 0 0 0 0 0 127 0" result="hardAlpha"/>
<feOffset dx="0.2" dy="-0.2"/>
<feGaussianBlur stdDeviation="0.15"/>
<feComposite in2="hardAlpha" operator="arithmetic" k2="-1" k3="1"/>
<feColorMatrix type="matrix" values="0 0 0 0 0.658824 0 0 0 0 0.270588 0 0 0 0 0.141176 0 0 0 1 0"/>
<feBlend mode="normal" in2="shape" result="effect1_innerShadow_1326_22788"/>
</filter>
<filter id="filter16_f_1326_22788" x="21.3805" y="13.2369" width="0.914844" height="0.804492" filterUnits="userSpaceOnUse" color-interpolation-filters="sRGB">
<feFlood flood-opacity="0" result="BackgroundImageFix"/>
<feBlend mode="normal" in="SourceGraphic" in2="BackgroundImageFix" result="shape"/>
<feGaussianBlur stdDeviation="0.05" result="effect1_foregroundBlur_1326_22788"/>
</filter>
<filter id="filter17_f_1326_22788" x="22.425" y="13.35" width="0.997656" height="1.02524" filterUnits="userSpaceOnUse" color-interpolation-filters="sRGB">
<feFlood flood-opacity="0" result="BackgroundImageFix"/>
<feBlend mode="normal" in="SourceGraphic" in2="BackgroundImageFix" result="shape"/>
<feGaussianBlur stdDeviation="0.1" result="effect1_foregroundBlur_1326_22788"/>
</filter>
<filter id="filter18_f_1326_22788" x="17.0109" y="13.2727" width="1.11484" height="1.17979" filterUnits="userSpaceOnUse" color-interpolation-filters="sRGB">
<feFlood flood-opacity="0" result="BackgroundImageFix"/>
<feBlend mode="normal" in="SourceGraphic" in2="BackgroundImageFix" result="shape"/>
<feGaussianBlur stdDeviation="0.1" result="effect1_foregroundBlur_1326_22788"/>
</filter>
<filter id="filter19_f_1326_22788" x="16.068" y="13.2269" width="1.06914" height="0.814502" filterUnits="userSpaceOnUse" color-interpolation-filters="sRGB">
<feFlood flood-opacity="0" result="BackgroundImageFix"/>
<feBlend mode="normal" in="SourceGraphic" in2="BackgroundImageFix" result="shape"/>
<feGaussianBlur stdDeviation="0.05" result="effect1_foregroundBlur_1326_22788"/>
</filter>
<filter id="filter20_f_1326_22788" x="21.3578" y="10.9459" width="3.22383" height="1.66035" filterUnits="userSpaceOnUse" color-interpolation-filters="sRGB">
<feFlood flood-opacity="0" result="BackgroundImageFix"/>
<feBlend mode="normal" in="SourceGraphic" in2="BackgroundImageFix" result="shape"/>
<feGaussianBlur stdDeviation="0.2" result="effect1_foregroundBlur_1326_22788"/>
</filter>
<filter id="filter21_f_1326_22788" x="14.7113" y="10.9459" width="3.22383" height="1.66035" filterUnits="userSpaceOnUse" color-interpolation-filters="sRGB">
<feFlood flood-opacity="0" result="BackgroundImageFix"/>
<feBlend mode="normal" in="SourceGraphic" in2="BackgroundImageFix" result="shape"/>
<feGaussianBlur stdDeviation="0.2" result="effect1_foregroundBlur_1326_22788"/>
</filter>
<filter id="filter22_f_1326_22788" x="11.582" y="5.77344" width="5.74805" height="6.02686" filterUnits="userSpaceOnUse" color-interpolation-filters="sRGB">
<feFlood flood-opacity="0" result="BackgroundImageFix"/>
<feBlend mode="normal" in="SourceGraphic" in2="BackgroundImageFix" result="shape"/>
<feGaussianBlur stdDeviation="0.375" result="effect1_foregroundBlur_1326_22788"/>
</filter>
<filter id="filter23_f_1326_22788" x="15.3555" y="4.44067" width="11.2578" height="7.43652" filterUnits="userSpaceOnUse" color-interpolation-filters="sRGB">
<feFlood flood-opacity="0" result="BackgroundImageFix"/>
<feBlend mode="normal" in="SourceGraphic" in2="BackgroundImageFix" result="shape"/>
<feGaussianBlur stdDeviation="0.25" result="effect1_foregroundBlur_1326_22788"/>
</filter>
<filter id="filter24_f_1326_22788" x="15.7676" y="6.2041" width="1.26562" height="2.68408" filterUnits="userSpaceOnUse" color-interpolation-filters="sRGB">
<feFlood flood-opacity="0" result="BackgroundImageFix"/>
<feBlend mode="normal" in="SourceGraphic" in2="BackgroundImageFix" result="shape"/>
<feGaussianBlur stdDeviation="0.125" result="effect1_foregroundBlur_1326_22788"/>
</filter>
<linearGradient id="paint0_linear_1326_22788" x1="25.3141" y1="6.00364" x2="16.4869" y2="22.3901" gradientUnits="userSpaceOnUse">
<stop stop-color="#FFD93C"/>
<stop offset="1" stop-color="#E37923"/>
</linearGradient>
<radialGradient id="paint1_radial_1326_22788" cx="0" cy="0" r="1" gradientUnits="userSpaceOnUse" gradientTransform="translate(24.2532 18.5001) rotate(28.3008) scale(3.88807 5.50726)">
<stop offset="0.616274" stop-color="#E38923"/>
<stop offset="1" stop-color="#E38923" stop-opacity="0"/>
</radialGradient>
<radialGradient id="paint2_radial_1326_22788" cx="0" cy="0" r="1" gradientUnits="userSpaceOnUse" gradientTransform="translate(14.0208 16.9577) rotate(90) scale(5.43242 3.27286)">
<stop stop-color="#C9641B"/>
<stop offset="1" stop-color="#D77117" stop-opacity="0"/>
</radialGradient>
<radialGradient id="paint3_radial_1326_22788" cx="0" cy="0" r="1" gradientUnits="userSpaceOnUse" gradientTransform="translate(19.593 17.0706) rotate(90) scale(6.79105 7.07411)">
<stop offset="0.617268" stop-color="#E26B25"/>
<stop offset="1" stop-color="#E26B25" stop-opacity="0"/>
</radialGradient>
<radialGradient id="paint4_radial_1326_22788" cx="0" cy="0" r="1" gradientUnits="userSpaceOnUse" gradientTransform="translate(13.607 14.8699) rotate(127.617) scale(2.47792 2.40593)">
<stop offset="0.161391" stop-color="#C9681C"/>
<stop offset="1" stop-color="#C9681C" stop-opacity="0"/>
</radialGradient>
<radialGradient id="paint5_radial_1326_22788" cx="0" cy="0" r="1" gradientUnits="userSpaceOnUse" gradientTransform="translate(14.3275 11.8996) rotate(100.537) scale(3.11686 3.24562)">
<stop offset="0.365444" stop-color="#D76A18"/>
<stop offset="1" stop-color="#D76A18" stop-opacity="0"/>
</radialGradient>
<radialGradient id="paint6_radial_1326_22788" cx="0" cy="0" r="1" gradientUnits="userSpaceOnUse" gradientTransform="translate(15.5256 5.74725) rotate(62.6046) scale(2.9024 5.52901)">
<stop offset="0.221806" stop-color="#CBA140"/>
<stop offset="0.921111" stop-color="#CBA140" stop-opacity="0"/>
</radialGradient>
<radialGradient id="paint7_radial_1326_22788" cx="0" cy="0" r="1" gradientUnits="userSpaceOnUse" gradientTransform="translate(26.2948 7.47475) rotate(132.51) scale(1.99566 2.7889)">
<stop stop-color="#FFDF3C"/>
<stop offset="1" stop-color="#FFDF3C" stop-opacity="0"/>
</radialGradient>
<radialGradient id="paint8_radial_1326_22788" cx="0" cy="0" r="1" gradientUnits="userSpaceOnUse" gradientTransform="translate(28.7466 13.4409) rotate(163.779) scale(2.3406 5.09284)">
<stop stop-color="#FFD537"/>
<stop offset="1" stop-color="#FFD336" stop-opacity="0"/>
<stop offset="1" stop-color="#FFD537" stop-opacity="0"/>
</radialGradient>
<radialGradient id="paint9_radial_1326_22788" cx="0" cy="0" r="1" gradientUnits="userSpaceOnUse" gradientTransform="translate(26.4598 22.9165) rotate(-133.315) scale(5.68317 8.16169)">
<stop stop-color="#CB6325"/>
<stop offset="1" stop-color="#CB6325" stop-opacity="0"/>
</radialGradient>
<radialGradient id="paint10_radial_1326_22788" cx="0" cy="0" r="1" gradientUnits="userSpaceOnUse" gradientTransform="translate(16.2958 8.78815) rotate(-90.3515) scale(1.67538 0.549304)">
<stop offset="0.295258" stop-color="#DB6009"/>
<stop offset="1" stop-color="#DB6009" stop-opacity="0"/>
</radialGradient>
<radialGradient id="paint11_radial_1326_22788" cx="0" cy="0" r="1" gradientUnits="userSpaceOnUse" gradientTransform="translate(18.5424 22.0452) rotate(-134.119) scale(10.1929 9.02205)">
<stop offset="0.280035" stop-color="#803706"/>
<stop offset="1" stop-color="#D96D24" stop-opacity="0"/>
</radialGradient>
<radialGradient id="paint12_radial_1326_22788" cx="0" cy="0" r="1" gradientUnits="userSpaceOnUse" gradientTransform="translate(6.4524 11.9096) rotate(-68.8849) scale(6.4772 7.74881)">
<stop offset="0.474886" stop-color="#F4B937"/>
<stop offset="1" stop-color="#F2B830"/>
<stop offset="1" stop-color="#EEB32A"/>
</radialGradient>
<radialGradient id="paint13_radial_1326_22788" cx="0" cy="0" r="1" gradientUnits="userSpaceOnUse" gradientTransform="translate(10.7166 10.0236) rotate(130.764) scale(9.5721 2.30417)">
<stop offset="0.146595" stop-color="#D27C28"/>
<stop offset="1" stop-color="#E9AA33" stop-opacity="0"/>
</radialGradient>
<linearGradient id="paint14_linear_1326_22788" x1="6.93532" y1="12.5705" x2="6.93532" y2="10.8674" gradientUnits="userSpaceOnUse">
<stop stop-color="#C77505"/>
<stop offset="1" stop-color="#EFB234" stop-opacity="0"/>
</linearGradient>
<radialGradient id="paint15_radial_1326_22788" cx="0" cy="0" r="1" gradientUnits="userSpaceOnUse" gradientTransform="translate(5.17751 5.09667) rotate(85.0559) scale(2.26624 0.271747)">
<stop offset="0.415337" stop-color="#E5A70F"/>
<stop offset="1" stop-color="#EAAA15" stop-opacity="0"/>
</radialGradient>
<radialGradient id="paint16_radial_1326_22788" cx="0" cy="0" r="1" gradientUnits="userSpaceOnUse" gradientTransform="translate(6.82594 3.93261) rotate(90.7884) scale(3.40657 0.26603)">
<stop offset="0.400744" stop-color="#EAAA15"/>
<stop offset="1" stop-color="#EAAA15" stop-opacity="0"/>
</radialGradient>
<radialGradient id="paint17_radial_1326_22788" cx="0" cy="0" r="1" gradientUnits="userSpaceOnUse" gradientTransform="translate(8.79469 3.16698) rotate(99.6086) scale(4.02522 0.57523)">
<stop offset="0.651533" stop-color="#EAAA15"/>
<stop offset="1" stop-color="#EAAA15" stop-opacity="0"/>
</radialGradient>
<radialGradient id="paint18_radial_1326_22788" cx="0" cy="0" r="1" gradientUnits="userSpaceOnUse" gradientTransform="translate(10.1384 3.71386) rotate(136.548) scale(1.22684 1.23301)">
<stop stop-color="#FFDC45"/>
<stop offset="1" stop-color="#FFDC45" stop-opacity="0"/>
</radialGradient>
<radialGradient id="paint19_radial_1326_22788" cx="0" cy="0" r="1" gradientUnits="userSpaceOnUse" gradientTransform="translate(8.38844 2.80761) rotate(138.965) scale(1.11858 0.93215)">
<stop stop-color="#FFDC45"/>
<stop offset="1" stop-color="#FFDC45" stop-opacity="0"/>
</radialGradient>
<radialGradient id="paint20_radial_1326_22788" cx="0" cy="0" r="1" gradientUnits="userSpaceOnUse" gradientTransform="translate(6.26344 3.37011) rotate(123.111) scale(0.858096 0.778796)">
<stop stop-color="#FFDC45"/>
<stop offset="1" stop-color="#FFDC45" stop-opacity="0"/>
</radialGradient>
<radialGradient id="paint21_radial_1326_22788" cx="0" cy="0" r="1" gradientUnits="userSpaceOnUse" gradientTransform="translate(4.68532 4.65136) rotate(129.369) scale(0.78825 0.715405)">
<stop stop-color="#FFDC45"/>
<stop offset="1" stop-color="#FFDC45" stop-opacity="0"/>
</radialGradient>
<radialGradient id="paint22_radial_1326_22788" cx="0" cy="0" r="1" gradientUnits="userSpaceOnUse" gradientTransform="translate(4.70094 5.2373) rotate(85.7226) scale(2.30438 0.446986)">
<stop stop-color="#FFCC3D"/>
<stop offset="1" stop-color="#FFCC3D" stop-opacity="0"/>
</radialGradient>
<linearGradient id="paint23_linear_1326_22788" x1="4.7793" y1="12.5889" x2="9.1543" y2="12.5889" gradientUnits="userSpaceOnUse">
<stop stop-color="#77639C"/>
<stop offset="0.742857" stop-color="#5F3B73"/>
</linearGradient>
<radialGradient id="paint24_radial_1326_22788" cx="0" cy="0" r="1" gradientUnits="userSpaceOnUse" gradientTransform="translate(7.7099 12.4789) rotate(90) scale(1.10937 1.15625)">
<stop stop-color="#6E5098"/>
<stop offset="1" stop-color="#6E5098" stop-opacity="0"/>
</radialGradient>
<linearGradient id="paint25_linear_1326_22788" x1="7.04883" y1="12.0029" x2="7.04883" y2="12.2607" gradientUnits="userSpaceOnUse">
<stop stop-color="#674A85"/>
<stop offset="1" stop-color="#674A85" stop-opacity="0"/>
</linearGradient>
<linearGradient id="paint26_linear_1326_22788" x1="13.9784" y1="24.5127" x2="6.04073" y2="13.0264" gradientUnits="userSpaceOnUse">
<stop stop-color="#8F63E1"/>
<stop offset="1" stop-color="#855FCF"/>
</linearGradient>
<radialGradient id="paint27_radial_1326_22788" cx="0" cy="0" r="1" gradientUnits="userSpaceOnUse" gradientTransform="translate(26.6811 27.2279) rotate(162.136) scale(9.12271 9.7572)">
<stop stop-color="#A47FF0"/>
<stop offset="1" stop-color="#A47FF0" stop-opacity="0"/>
</radialGradient>
<radialGradient id="paint28_radial_1326_22788" cx="0" cy="0" r="1" gradientUnits="userSpaceOnUse" gradientTransform="translate(11.471 30.0264) rotate(-90) scale(4.62502 2.65624)">
<stop stop-color="#9473D7"/>
<stop offset="1" stop-color="#9473D7" stop-opacity="0"/>
</radialGradient>
<linearGradient id="paint29_linear_1326_22788" x1="10.0463" y1="26.6943" x2="12.0028" y2="20.4098" gradientUnits="userSpaceOnUse">
<stop offset="0.100065" stop-color="#8751E0"/>
<stop offset="1" stop-color="#8751E0" stop-opacity="0"/>
</linearGradient>
<radialGradient id="paint30_radial_1326_22788" cx="0" cy="0" r="1" gradientUnits="userSpaceOnUse" gradientTransform="translate(3.56114 13.0264) rotate(90) scale(8.8125 5.4375)">
<stop stop-color="#8F75C7"/>
<stop offset="1" stop-color="#8F75C7" stop-opacity="0"/>
</radialGradient>
<radialGradient id="paint31_radial_1326_22788" cx="0" cy="0" r="1" gradientUnits="userSpaceOnUse" gradientTransform="translate(18.2842 20.4316) rotate(-167.876) scale(10.3399 4.20474)">
<stop offset="0.286567" stop-color="#522A56"/>
<stop offset="1" stop-color="#7952B0" stop-opacity="0"/>
</radialGradient>
<radialGradient id="paint32_radial_1326_22788" cx="0" cy="0" r="1" gradientUnits="userSpaceOnUse" gradientTransform="translate(12.331 15.9386) rotate(-180) scale(5.69115 5.7286)">
<stop offset="0.131579" stop-color="#522A56"/>
<stop offset="1" stop-color="#7952B0" stop-opacity="0"/>
</radialGradient>
<linearGradient id="paint33_linear_1326_22788" x1="14.3154" y1="24.7187" x2="13.5768" y2="23.3232" gradientUnits="userSpaceOnUse">
<stop offset="0.213266" stop-color="#8F63E1"/>
<stop offset="0.732311" stop-color="#8F63E1" stop-opacity="0"/>
</linearGradient>
<linearGradient id="paint34_linear_1326_22788" x1="7.57585" y1="13.0264" x2="7.57585" y2="14.0665" gradientUnits="userSpaceOnUse">
<stop stop-color="#7354A3"/>
<stop offset="1" stop-color="#7354A3" stop-opacity="0"/>
</linearGradient>
<linearGradient id="paint35_linear_1326_22788" x1="17.9042" y1="20.7571" x2="19.9042" y2="24.1321" gradientUnits="userSpaceOnUse">
<stop stop-color="#D16C15"/>
<stop offset="1" stop-color="#FFC436"/>
</linearGradient>
<radialGradient id="paint36_radial_1326_22788" cx="0" cy="0" r="1" gradientUnits="userSpaceOnUse" gradientTransform="translate(19.5931 21.3196) rotate(90) scale(1.15625 2.61254)">
<stop stop-color="#E97E36"/>
<stop offset="1" stop-color="#E97E36" stop-opacity="0"/>
</radialGradient>
<linearGradient id="paint37_linear_1326_22788" x1="7.59204" y1="14.7338" x2="13.342" y2="23.015" gradientUnits="userSpaceOnUse">
<stop stop-color="#9D74E7"/>
<stop offset="1" stop-color="#9D74E7" stop-opacity="0"/>
</linearGradient>
<linearGradient id="paint38_linear_1326_22788" x1="5.1875" y1="5.21338" x2="5.33984" y2="6.729" gradientUnits="userSpaceOnUse">
<stop stop-color="#BB7401"/>
<stop offset="1" stop-color="#EDAD18"/>
</linearGradient>
<linearGradient id="paint39_linear_1326_22788" x1="6.77344" y1="4.42432" x2="7.25646" y2="6.53639" gradientUnits="userSpaceOnUse">
<stop stop-color="#BB7401"/>
<stop offset="1" stop-color="#EDAD18"/>
</linearGradient>
<linearGradient id="paint40_linear_1326_22788" x1="8.35156" y1="5.50505" x2="8.45468" y2="6.79327" gradientUnits="userSpaceOnUse">
<stop stop-color="#BB7401"/>
<stop offset="1" stop-color="#EDAD18"/>
</linearGradient>
<linearGradient id="paint41_linear_1326_22788" x1="11.9199" y1="14.5848" x2="15.5273" y2="14.5848" gradientUnits="userSpaceOnUse">
<stop stop-color="#E79B27"/>
<stop offset="1" stop-color="#B96201"/>
</linearGradient>
<radialGradient id="paint42_radial_1326_22788" cx="0" cy="0" r="1" gradientUnits="userSpaceOnUse" gradientTransform="translate(24.5169 15.0139) rotate(-24.444) scale(3.3329 4.06932)">
<stop offset="0.572298" stop-color="#FFC531"/>
<stop offset="0.904617" stop-color="#FFE549"/>
</radialGradient>
<radialGradient id="paint43_radial_1326_22788" cx="0" cy="0" r="1" gradientUnits="userSpaceOnUse" gradientTransform="translate(25.1914 14.7689) rotate(-20.2976) scale(1.59029)">
<stop offset="0.71002" stop-color="#FFBA25" stop-opacity="0"/>
<stop offset="1" stop-color="#FFBA25"/>
</radialGradient>
<radialGradient id="paint44_radial_1326_22788" cx="0" cy="0" r="1" gradientUnits="userSpaceOnUse" gradientTransform="translate(13.905 14.4788) rotate(180) scale(1.30934 1.25247)">
<stop offset="0.415002" stop-color="#D67923" stop-opacity="0"/>
<stop offset="1" stop-color="#D67923"/>
</radialGradient>
<radialGradient id="paint45_radial_1326_22788" cx="0" cy="0" r="1" gradientUnits="userSpaceOnUse" gradientTransform="translate(23.0796 13.8235) rotate(155.244) scale(8.73018 11.6852)">
<stop stop-color="#FFE644"/>
<stop offset="1" stop-color="#EB9235"/>
</radialGradient>
<radialGradient id="paint46_radial_1326_22788" cx="0" cy="0" r="1" gradientUnits="userSpaceOnUse" gradientTransform="translate(21.9106 14.6737) rotate(152.124) scale(2.90937 2.46839)">
<stop stop-color="#FFE842"/>
<stop offset="1" stop-color="#FFE842" stop-opacity="0"/>
</radialGradient>
<radialGradient id="paint47_radial_1326_22788" cx="0" cy="0" r="1" gradientUnits="userSpaceOnUse" gradientTransform="translate(16.9371 22.0915) rotate(-78.3106) scale(5.03546 6.38906)">
<stop stop-color="#E4883F"/>
<stop offset="1" stop-color="#E4883F" stop-opacity="0"/>
</radialGradient>
<radialGradient id="paint48_radial_1326_22788" cx="0" cy="0" r="1" gradientUnits="userSpaceOnUse" gradientTransform="translate(19.2751 13.2339) rotate(90) scale(9.07009 14.4058)">
<stop offset="0.592664" stop-color="#F3943B" stop-opacity="0"/>
<stop offset="1" stop-color="#D97C39"/>
</radialGradient>
<radialGradient id="paint49_radial_1326_22788" cx="0" cy="0" r="1" gradientUnits="userSpaceOnUse" gradientTransform="translate(20.359 15.8427) rotate(164.542) scale(6.85819 11.8077)">
<stop offset="0.876514" stop-color="#D4993E" stop-opacity="0"/>
<stop offset="1" stop-color="#D4993E"/>
</radialGradient>
<radialGradient id="paint50_radial_1326_22788" cx="0" cy="0" r="1" gradientUnits="userSpaceOnUse" gradientTransform="translate(22.3995 13.3134) rotate(-90) scale(1.40279 1.72161)">
<stop stop-color="#FFBB31"/>
<stop offset="1" stop-color="#FFBB31" stop-opacity="0"/>
</radialGradient>
<radialGradient id="paint51_radial_1326_22788" cx="0" cy="0" r="1" gradientUnits="userSpaceOnUse" gradientTransform="translate(17.2559 13.4197) rotate(-90) scale(1.65784 1.9)">
<stop stop-color="#F09429"/>
<stop offset="1" stop-color="#F09429" stop-opacity="0"/>
</radialGradient>
<radialGradient id="paint52_radial_1326_22788" cx="0" cy="0" r="1" gradientUnits="userSpaceOnUse" gradientTransform="translate(25.8055 15.1267) rotate(-180) scale(1.64194 5.40531)">
<stop stop-color="#FFDA39"/>
<stop offset="1" stop-color="#FFDA39" stop-opacity="0"/>
</radialGradient>
<linearGradient id="paint53_linear_1326_22788" x1="19.5934" y1="16.9632" x2="19.5934" y2="13.6941" gradientUnits="userSpaceOnUse">
<stop stop-color="#FFC134"/>
<stop offset="1" stop-color="#F8C73F"/>
</linearGradient>
<radialGradient id="paint54_radial_1326_22788" cx="0" cy="0" r="1" gradientUnits="userSpaceOnUse" gradientTransform="translate(20.5496 16.0127) rotate(-105.892) scale(3.10491 1.77667)">
<stop offset="0.0168227" stop-color="#FFE848"/>
<stop offset="1" stop-color="#FFE848" stop-opacity="0"/>
</radialGradient>
<linearGradient id="paint55_linear_1326_22788" x1="18.3179" y1="16.0339" x2="19.3593" y2="16.1614" gradientUnits="userSpaceOnUse">
<stop stop-color="#F8A322"/>
<stop offset="1" stop-color="#F8A322" stop-opacity="0"/>
</linearGradient>
<linearGradient id="paint56_linear_1326_22788" x1="19.5934" y1="17.0754" x2="19.5934" y2="16.3315" gradientUnits="userSpaceOnUse">
<stop stop-color="#E48538"/>
<stop offset="1" stop-color="#E48538" stop-opacity="0"/>
</linearGradient>
<linearGradient id="paint57_linear_1326_22788" x1="19.6888" y1="17.0435" x2="19.6888" y2="16.8735" gradientUnits="userSpaceOnUse">
<stop stop-color="#E2802F"/>
<stop offset="1" stop-color="#E2802F" stop-opacity="0"/>
</linearGradient>
<radialGradient id="paint58_radial_1326_22788" cx="0" cy="0" r="1" gradientUnits="userSpaceOnUse" gradientTransform="translate(19.9438 15.5769) rotate(144.462) scale(1.91979 2.57142)">
<stop offset="0.797297" stop-color="#E2802F" stop-opacity="0"/>
<stop offset="1" stop-color="#E2802F"/>
</radialGradient>
<linearGradient id="paint59_linear_1326_22788" x1="18.7041" y1="18.8757" x2="19.2557" y2="17.8132" gradientUnits="userSpaceOnUse">
<stop stop-color="#FEAC35"/>
<stop offset="1" stop-color="#FEAC35" stop-opacity="0"/>
</linearGradient>
<radialGradient id="paint60_radial_1326_22788" cx="0" cy="0" r="1" gradientUnits="userSpaceOnUse" gradientTransform="translate(22.2544 13.7509) rotate(90) scale(0.988996 1.57311)">
<stop offset="0.80198" stop-color="#925C51"/>
<stop offset="1" stop-color="#694B43"/>
<stop offset="1" stop-color="#804D49"/>
<stop offset="1" stop-color="#85534D"/>
</radialGradient>
<radialGradient id="paint61_radial_1326_22788" cx="0" cy="0" r="1" gradientUnits="userSpaceOnUse" gradientTransform="translate(21.9754 13.8533) rotate(-127.812) scale(0.460759 0.634355)">
<stop offset="0.765532" stop-color="#FFE6E2" stop-opacity="0"/>
<stop offset="0.966159" stop-color="#FFE6E2"/>
</radialGradient>
<linearGradient id="paint62_linear_1326_22788" x1="23.2002" y1="13.8164" x2="22.818" y2="14.0519" gradientUnits="userSpaceOnUse">
<stop stop-color="#B4948D"/>
<stop offset="1" stop-color="#B4948D" stop-opacity="0"/>
</linearGradient>
<radialGradient id="paint63_radial_1326_22788" cx="0" cy="0" r="1" gradientUnits="userSpaceOnUse" gradientTransform="translate(16.9341 13.7509) rotate(90) scale(0.989002 1.57312)">
<stop offset="0.80198" stop-color="#925C51"/>
<stop offset="1" stop-color="#694B43"/>
<stop offset="1" stop-color="#804D49"/>
<stop offset="1" stop-color="#85534D"/>
</radialGradient>
<linearGradient id="paint64_linear_1326_22788" x1="17.8404" y1="13.8162" x2="17.4583" y2="14.0517" gradientUnits="userSpaceOnUse">
<stop stop-color="#B4948D"/>
<stop offset="1" stop-color="#B4948D" stop-opacity="0"/>
</linearGradient>
<radialGradient id="paint65_radial_1326_22788" cx="0" cy="0" r="1" gradientUnits="userSpaceOnUse" gradientTransform="translate(16.5837 14.0177) rotate(-90.897) scale(0.601847 0.723445)">
<stop offset="0.765532" stop-color="#FFE6E2" stop-opacity="0"/>
<stop offset="0.966159" stop-color="#FFE6E2"/>
</radialGradient>
<radialGradient id="paint66_radial_1326_22788" cx="0" cy="0" r="1" gradientUnits="userSpaceOnUse" gradientTransform="translate(16.2844 6.00354) rotate(129.554) scale(6.54544 2.85467)">
<stop offset="0.395696" stop-color="#EE971B" stop-opacity="0"/>
<stop offset="0.911046" stop-color="#D8772C"/>
</radialGradient>
<radialGradient id="paint67_radial_1326_22788" cx="0" cy="0" r="1" gradientUnits="userSpaceOnUse" gradientTransform="translate(16.1143 6.67072) rotate(144.458) scale(4.64831 2.29726)">
<stop offset="0.120488" stop-color="#FFCA2D"/>
<stop offset="1" stop-color="#FFE134" stop-opacity="0"/>
<stop offset="1" stop-color="#FFCA2D" stop-opacity="0"/>
</radialGradient>
<radialGradient id="paint68_radial_1326_22788" cx="0" cy="0" r="1" gradientUnits="userSpaceOnUse" gradientTransform="translate(21.7782 4.57414) rotate(115.63) scale(6.15857 8.74414)">
<stop offset="0.627022" stop-color="#F49523" stop-opacity="0"/>
<stop offset="1" stop-color="#F49523"/>
</radialGradient>
<radialGradient id="paint69_radial_1326_22788" cx="0" cy="0" r="1" gradientUnits="userSpaceOnUse" gradientTransform="translate(22.6527 6.10191) rotate(105.909) scale(4.19341 8.78806)">
<stop offset="0.131886" stop-color="#FFE337"/>
<stop offset="1" stop-color="#FFE337" stop-opacity="0"/>
</radialGradient>
<radialGradient id="paint70_radial_1326_22788" cx="0" cy="0" r="1" gradientUnits="userSpaceOnUse" gradientTransform="translate(20.9959 12.9666) rotate(-117.848) scale(8.91643 7.97074)">
<stop offset="0.897563" stop-color="#CA9B37" stop-opacity="0"/>
<stop offset="1" stop-color="#CA9B37"/>
</radialGradient>
<linearGradient id="paint71_linear_1326_22788" x1="16.0684" y1="6.92301" x2="16.7324" y2="8.47584" gradientUnits="userSpaceOnUse">
<stop stop-color="#FAA719"/>
<stop offset="1" stop-color="#DB6008"/>
</linearGradient>
</defs>
</svg>
