<svg width="64" height="64" viewBox="0 0 64 64" fill="none" xmlns="http://www.w3.org/2000/svg">
<rect width="64" height="64" rx="32" fill="#F2F5FF"/>
<path d="M53.0687 32.5111C53.0687 31.0592 52.9282 29.5604 52.694 28.1553H32.4136V36.4454H44.0292C43.5608 39.1152 42.0152 41.457 39.7202 42.9558L46.6521 48.3421C50.7269 44.5483 53.0687 39.0215 53.0687 32.5111Z" fill="#4280EF"/>
<path d="M32.4215 53.4997C38.2293 53.4997 43.1003 51.5793 46.66 48.3007L39.7281 42.9613C37.8077 44.2727 35.3254 45.0221 32.4215 45.0221C26.801 45.0221 22.0705 41.2283 20.3375 36.1699L13.2183 41.6499C16.8716 48.9096 24.2718 53.4997 32.4215 53.4997Z" fill="#34A353"/>
<path d="M20.3337 36.1285C19.4438 33.4588 19.4438 30.5549 20.3337 27.8852L13.2145 22.3584C10.17 28.4472 10.17 35.6133 13.2145 41.6553L20.3337 36.1285Z" fill="#F6B704"/>
<path d="M32.4215 19.0252C35.4659 18.9783 38.4635 20.1493 40.6648 22.2569L46.8005 16.0744C42.913 12.4211 37.7609 10.454 32.4215 10.5008C24.2718 10.5008 16.8716 15.0909 13.2183 22.3506L20.3375 27.8774C22.0705 22.7721 26.801 19.0252 32.4215 19.0252Z" fill="#E54335"/>
</svg>
