<svg width="33" height="32" viewBox="0 0 33 32" fill="none" xmlns="http://www.w3.org/2000/svg">
<g clip-path="url(#clip0_1645_29209)">
<g filter="url(#filter0_i_1645_29209)">
<path d="M7.31293 6.46992C7.76547 6.24757 8.95383 5.78052 10.892 5.95774C14.1233 6.42649 16.6003 6.80019 17.4545 6.93821L15.3768 8.18939C15.8618 8.67518 16.281 9.22658 16.6201 9.82913L17.0046 9.38739L27.8626 18.882C28.8339 19.7314 28.8832 21.2255 27.9699 22.1371C27.4614 22.6446 26.7651 22.8576 26.0991 22.7686C26.5565 23.6662 26.4184 24.7981 25.663 25.5599C24.9763 26.2525 23.9673 26.4443 23.1023 26.1185C23.0843 26.705 22.8534 27.2875 22.4051 27.7396C21.6121 28.5394 20.3893 28.6714 19.4547 28.1095C19.3661 28.5684 19.1454 29.0077 18.7903 29.3666C17.8801 30.2868 16.4113 30.341 15.4357 29.4905L6.59125 21.7801C5.99249 21.2581 5.70712 20.5102 5.75146 19.7742C3.7644 18.4113 2.46094 16.1242 2.46094 13.5326C2.46094 10.3111 4.4751 7.55994 7.31293 6.46992Z" fill="url(#paint0_linear_1645_29209)"/>
<path d="M7.31293 6.46992C7.76547 6.24757 8.95383 5.78052 10.892 5.95774C14.1233 6.42649 16.6003 6.80019 17.4545 6.93821L15.3768 8.18939C15.8618 8.67518 16.281 9.22658 16.6201 9.82913L17.0046 9.38739L27.8626 18.882C28.8339 19.7314 28.8832 21.2255 27.9699 22.1371C27.4614 22.6446 26.7651 22.8576 26.0991 22.7686C26.5565 23.6662 26.4184 24.7981 25.663 25.5599C24.9763 26.2525 23.9673 26.4443 23.1023 26.1185C23.0843 26.705 22.8534 27.2875 22.4051 27.7396C21.6121 28.5394 20.3893 28.6714 19.4547 28.1095C19.3661 28.5684 19.1454 29.0077 18.7903 29.3666C17.8801 30.2868 16.4113 30.341 15.4357 29.4905L6.59125 21.7801C5.99249 21.2581 5.70712 20.5102 5.75146 19.7742C3.7644 18.4113 2.46094 16.1242 2.46094 13.5326C2.46094 10.3111 4.4751 7.55994 7.31293 6.46992Z" fill="url(#paint1_radial_1645_29209)"/>
</g>
<path d="M7.31293 6.46992C7.76547 6.24757 8.95383 5.78052 10.892 5.95774C14.1233 6.42649 16.6003 6.80019 17.4545 6.93821L15.3768 8.18939C15.8618 8.67518 16.281 9.22658 16.6201 9.82913L17.0046 9.38739L27.8626 18.882C28.8339 19.7314 28.8832 21.2255 27.9699 22.1371C27.4614 22.6446 26.7651 22.8576 26.0991 22.7686C26.5565 23.6662 26.4184 24.7981 25.663 25.5599C24.9763 26.2525 23.9673 26.4443 23.1023 26.1185C23.0843 26.705 22.8534 27.2875 22.4051 27.7396C21.6121 28.5394 20.3893 28.6714 19.4547 28.1095C19.3661 28.5684 19.1454 29.0077 18.7903 29.3666C17.8801 30.2868 16.4113 30.341 15.4357 29.4905L6.59125 21.7801C5.99249 21.2581 5.70712 20.5102 5.75146 19.7742C3.7644 18.4113 2.46094 16.1242 2.46094 13.5326C2.46094 10.3111 4.4751 7.55994 7.31293 6.46992Z" fill="url(#paint2_radial_1645_29209)"/>
<path d="M7.31293 6.46992C7.76547 6.24757 8.95383 5.78052 10.892 5.95774C14.1233 6.42649 16.6003 6.80019 17.4545 6.93821L15.3768 8.18939C15.8618 8.67518 16.281 9.22658 16.6201 9.82913L17.0046 9.38739L27.8626 18.882C28.8339 19.7314 28.8832 21.2255 27.9699 22.1371C27.4614 22.6446 26.7651 22.8576 26.0991 22.7686C26.5565 23.6662 26.4184 24.7981 25.663 25.5599C24.9763 26.2525 23.9673 26.4443 23.1023 26.1185C23.0843 26.705 22.8534 27.2875 22.4051 27.7396C21.6121 28.5394 20.3893 28.6714 19.4547 28.1095C19.3661 28.5684 19.1454 29.0077 18.7903 29.3666C17.8801 30.2868 16.4113 30.341 15.4357 29.4905L6.59125 21.7801C5.99249 21.2581 5.70712 20.5102 5.75146 19.7742C3.7644 18.4113 2.46094 16.1242 2.46094 13.5326C2.46094 10.3111 4.4751 7.55994 7.31293 6.46992Z" fill="url(#paint3_radial_1645_29209)"/>
<path d="M7.31293 6.46992C7.76547 6.24757 8.95383 5.78052 10.892 5.95774C14.1233 6.42649 16.6003 6.80019 17.4545 6.93821L15.3768 8.18939C15.8618 8.67518 16.281 9.22658 16.6201 9.82913L17.0046 9.38739L27.8626 18.882C28.8339 19.7314 28.8832 21.2255 27.9699 22.1371C27.4614 22.6446 26.7651 22.8576 26.0991 22.7686C26.5565 23.6662 26.4184 24.7981 25.663 25.5599C24.9763 26.2525 23.9673 26.4443 23.1023 26.1185C23.0843 26.705 22.8534 27.2875 22.4051 27.7396C21.6121 28.5394 20.3893 28.6714 19.4547 28.1095C19.3661 28.5684 19.1454 29.0077 18.7903 29.3666C17.8801 30.2868 16.4113 30.341 15.4357 29.4905L6.59125 21.7801C5.99249 21.2581 5.70712 20.5102 5.75146 19.7742C3.7644 18.4113 2.46094 16.1242 2.46094 13.5326C2.46094 10.3111 4.4751 7.55994 7.31293 6.46992Z" fill="url(#paint4_radial_1645_29209)"/>
<path d="M7.31293 6.46992C7.76547 6.24757 8.95383 5.78052 10.892 5.95774C14.1233 6.42649 16.6003 6.80019 17.4545 6.93821L15.3768 8.18939C15.8618 8.67518 16.281 9.22658 16.6201 9.82913L17.0046 9.38739L27.8626 18.882C28.8339 19.7314 28.8832 21.2255 27.9699 22.1371C27.4614 22.6446 26.7651 22.8576 26.0991 22.7686C26.5565 23.6662 26.4184 24.7981 25.663 25.5599C24.9763 26.2525 23.9673 26.4443 23.1023 26.1185C23.0843 26.705 22.8534 27.2875 22.4051 27.7396C21.6121 28.5394 20.3893 28.6714 19.4547 28.1095C19.3661 28.5684 19.1454 29.0077 18.7903 29.3666C17.8801 30.2868 16.4113 30.341 15.4357 29.4905L6.59125 21.7801C5.99249 21.2581 5.70712 20.5102 5.75146 19.7742C3.7644 18.4113 2.46094 16.1242 2.46094 13.5326C2.46094 10.3111 4.4751 7.55994 7.31293 6.46992Z" fill="url(#paint5_radial_1645_29209)"/>
<path d="M7.31293 6.46992C7.76547 6.24757 8.95383 5.78052 10.892 5.95774C14.1233 6.42649 16.6003 6.80019 17.4545 6.93821L15.3768 8.18939C15.8618 8.67518 16.281 9.22658 16.6201 9.82913L17.0046 9.38739L27.8626 18.882C28.8339 19.7314 28.8832 21.2255 27.9699 22.1371C27.4614 22.6446 26.7651 22.8576 26.0991 22.7686C26.5565 23.6662 26.4184 24.7981 25.663 25.5599C24.9763 26.2525 23.9673 26.4443 23.1023 26.1185C23.0843 26.705 22.8534 27.2875 22.4051 27.7396C21.6121 28.5394 20.3893 28.6714 19.4547 28.1095C19.3661 28.5684 19.1454 29.0077 18.7903 29.3666C17.8801 30.2868 16.4113 30.341 15.4357 29.4905L6.59125 21.7801C5.99249 21.2581 5.70712 20.5102 5.75146 19.7742C3.7644 18.4113 2.46094 16.1242 2.46094 13.5326C2.46094 10.3111 4.4751 7.55994 7.31293 6.46992Z" fill="url(#paint6_radial_1645_29209)"/>
<g filter="url(#filter1_f_1645_29209)">
<path fill-rule="evenodd" clip-rule="evenodd" d="M5.18335 18.2519C4.46846 18.9778 4.42007 20.1273 5.07143 20.9107C5.56786 21.5077 6.33683 21.7731 7.03915 21.6393C6.68694 22.3635 6.813 23.2605 7.41455 23.8599C7.96588 24.4093 8.79094 24.6077 9.49061 24.3838C9.36986 24.98 9.65279 25.6572 10.1371 26.1416C10.615 26.6195 11.3649 26.7397 11.9608 26.5504C11.8864 27.0922 12.048 27.6798 12.4067 28.1112C13.077 28.9173 14.3802 29.1182 15.2079 28.4275L16.5502 27.0398C17.234 26.3687 17.1794 25.078 16.5502 24.3555C16.1227 23.8646 15.5163 23.6481 14.9408 23.731C15.3291 23.0522 15.1749 22.1428 14.6904 21.5883C14.2 21.0272 13.5324 20.8109 12.9402 20.9377C13.2487 20.2033 13.0975 19.3014 12.5042 18.7188C11.8766 18.1026 10.9166 18.0124 10.175 18.4188C10.2906 17.8311 10.1416 17.1998 9.72051 16.7162C8.95478 15.837 7.60264 15.7955 6.78448 16.6262L5.18335 18.2519Z" fill="#FFB21A"/>
</g>
<g filter="url(#filter2_f_1645_29209)">
<path d="M15.543 25.8511L17.9548 28.0073" stroke="url(#paint7_linear_1645_29209)" stroke-width="1.5" stroke-linecap="round"/>
</g>
<g filter="url(#filter3_f_1645_29209)">
<path d="M13.7094 8.11694C13.1017 8.28888 12.5118 8.48165 11.9553 8.69696L11.9575 8.70203C11.3421 8.99403 10.918 9.61007 10.918 10.3228C10.918 11.3175 11.7441 12.1239 12.7633 12.1239C13.0115 12.1239 13.2482 12.0761 13.4643 11.9894C13.6386 11.9351 13.8242 11.8764 14.0171 11.8154L14.0202 11.8145C14.1799 11.764 14.3539 11.7079 14.5358 11.6494C18.0343 10.5232 16.2956 10.1273 13.7094 8.11694Z" fill="#D77A15"/>
</g>
<g filter="url(#filter4_f_1645_29209)">
<path d="M18.6211 12.4197L27.1836 20.0447" stroke="url(#paint8_linear_1645_29209)" stroke-width="1.5" stroke-linecap="round"/>
</g>
<g filter="url(#filter5_f_1645_29209)">
<path d="M22.6523 21.563L25.0641 23.7193" stroke="url(#paint9_linear_1645_29209)" stroke-width="1.5" stroke-linecap="round"/>
</g>
<g filter="url(#filter6_f_1645_29209)">
<path d="M19.3984 24.1323L21.8102 26.2886" stroke="url(#paint10_linear_1645_29209)" stroke-width="1.5" stroke-linecap="round"/>
</g>
<path d="M3.90647 21.259C3.18419 20.3903 3.23784 19.1157 4.03057 18.3108L5.80601 16.5081C6.71324 15.587 8.21257 15.633 9.06166 16.608C9.83315 17.4938 9.78093 18.8274 8.94252 19.6502L7.14132 21.5158C6.22386 22.4162 4.72834 22.2474 3.90647 21.259Z" fill="url(#paint11_linear_1645_29209)"/>
<path d="M3.90647 21.259C3.18419 20.3903 3.23784 19.1157 4.03057 18.3108L5.80601 16.5081C6.71324 15.587 8.21257 15.633 9.06166 16.608C9.83315 17.4938 9.78093 18.8274 8.94252 19.6502L7.14132 21.5158C6.22386 22.4162 4.72834 22.2474 3.90647 21.259Z" fill="url(#paint12_linear_1645_29209)"/>
<path d="M3.90647 21.259C3.18419 20.3903 3.23784 19.1157 4.03057 18.3108L5.80601 16.5081C6.71324 15.587 8.21257 15.633 9.06166 16.608C9.83315 17.4938 9.78093 18.8274 8.94252 19.6502L7.14132 21.5158C6.22386 22.4162 4.72834 22.2474 3.90647 21.259Z" fill="url(#paint13_radial_1645_29209)"/>
<path d="M3.90647 21.259C3.18419 20.3903 3.23784 19.1157 4.03057 18.3108L5.80601 16.5081C6.71324 15.587 8.21257 15.633 9.06166 16.608C9.83315 17.4938 9.78093 18.8274 8.94252 19.6502L7.14132 21.5158C6.22386 22.4162 4.72834 22.2474 3.90647 21.259Z" fill="url(#paint14_radial_1645_29209)"/>
<path d="M6.50322 24.5293C5.66738 23.6964 5.65943 22.3453 6.48539 21.5026L9.05325 18.8827C9.88937 18.0297 11.2947 17.9916 12.147 18.8285C13.0023 19.6683 13.029 21.107 12.1842 21.9574L9.59927 24.626C8.76184 25.4689 7.34489 25.368 6.50322 24.5293Z" fill="url(#paint15_linear_1645_29209)"/>
<path d="M6.50322 24.5293C5.66738 23.6964 5.65943 22.3453 6.48539 21.5026L9.05325 18.8827C9.88937 18.0297 11.2947 17.9916 12.147 18.8285C13.0023 19.6683 13.029 21.107 12.1842 21.9574L9.59927 24.626C8.76184 25.4689 7.34489 25.368 6.50322 24.5293Z" fill="url(#paint16_linear_1645_29209)"/>
<path d="M6.50322 24.5293C5.66738 23.6964 5.65943 22.3453 6.48539 21.5026L9.05325 18.8827C9.88937 18.0297 11.2947 17.9916 12.147 18.8285C13.0023 19.6683 13.029 21.107 12.1842 21.9574L9.59927 24.626C8.76184 25.4689 7.34489 25.368 6.50322 24.5293Z" fill="url(#paint17_radial_1645_29209)"/>
<path d="M6.50322 24.5293C5.66738 23.6964 5.65943 22.3453 6.48539 21.5026L9.05325 18.8827C9.88937 18.0297 11.2947 17.9916 12.147 18.8285C13.0023 19.6683 13.029 21.107 12.1842 21.9574L9.59927 24.626C8.76184 25.4689 7.34489 25.368 6.50322 24.5293Z" fill="url(#paint18_radial_1645_29209)"/>
<path d="M12.0414 29.2434C11.3882 28.4578 11.3245 27.2051 12.0414 26.4772L13.7593 24.9468C14.5798 24.1137 15.8681 24.197 16.636 25.0788C17.3337 25.8799 17.3943 27.3112 16.636 28.0553L15.1477 29.5941C14.2298 30.36 12.7847 30.1373 12.0414 29.2434Z" fill="url(#paint19_linear_1645_29209)"/>
<path d="M12.0414 29.2434C11.3882 28.4578 11.3245 27.2051 12.0414 26.4772L13.7593 24.9468C14.5798 24.1137 15.8681 24.197 16.636 25.0788C17.3337 25.8799 17.3943 27.3112 16.636 28.0553L15.1477 29.5941C14.2298 30.36 12.7847 30.1373 12.0414 29.2434Z" fill="url(#paint20_linear_1645_29209)"/>
<path d="M12.0414 29.2434C11.3882 28.4578 11.3245 27.2051 12.0414 26.4772L13.7593 24.9468C14.5798 24.1137 15.8681 24.197 16.636 25.0788C17.3337 25.8799 17.3943 27.3112 16.636 28.0553L15.1477 29.5941C14.2298 30.36 12.7847 30.1373 12.0414 29.2434Z" fill="url(#paint21_radial_1645_29209)"/>
<path d="M12.0414 29.2434C11.3882 28.4578 11.3245 27.2051 12.0414 26.4772L13.7593 24.9468C14.5798 24.1137 15.8681 24.197 16.636 25.0788C17.3337 25.8799 17.3943 27.3112 16.636 28.0553L15.1477 29.5941C14.2298 30.36 12.7847 30.1373 12.0414 29.2434Z" fill="url(#paint22_radial_1645_29209)"/>
<path d="M9.52507 27.0593C8.76864 26.3029 8.45522 25.1221 9.21165 24.3657L11.7687 21.7621C12.5251 21.0057 13.7664 21.0862 14.574 22.0104C15.2039 22.7313 15.3304 23.9932 14.574 24.7497L12.2643 27.0593C11.6524 27.7642 10.2815 27.8158 9.52507 27.0593Z" fill="url(#paint23_linear_1645_29209)"/>
<path d="M9.52507 27.0593C8.76864 26.3029 8.45522 25.1221 9.21165 24.3657L11.7687 21.7621C12.5251 21.0057 13.7664 21.0862 14.574 22.0104C15.2039 22.7313 15.3304 23.9932 14.574 24.7497L12.2643 27.0593C11.6524 27.7642 10.2815 27.8158 9.52507 27.0593Z" fill="url(#paint24_linear_1645_29209)"/>
<path d="M9.52507 27.0593C8.76864 26.3029 8.45522 25.1221 9.21165 24.3657L11.7687 21.7621C12.5251 21.0057 13.7664 21.0862 14.574 22.0104C15.2039 22.7313 15.3304 23.9932 14.574 24.7497L12.2643 27.0593C11.6524 27.7642 10.2815 27.8158 9.52507 27.0593Z" fill="url(#paint25_radial_1645_29209)"/>
<path d="M9.52507 27.0593C8.76864 26.3029 8.45522 25.1221 9.21165 24.3657L11.7687 21.7621C12.5251 21.0057 13.7664 21.0862 14.574 22.0104C15.2039 22.7313 15.3304 23.9932 14.574 24.7497L12.2643 27.0593C11.6524 27.7642 10.2815 27.8158 9.52507 27.0593Z" fill="url(#paint26_radial_1645_29209)"/>
<g filter="url(#filter7_i_1645_29209)">
<path d="M12.6268 8.03638L12.6292 8.04228C11.9307 8.38187 11.4492 9.09833 11.4492 9.92723C11.4492 11.0841 12.387 12.0219 13.5439 12.0219C13.8256 12.0219 14.0943 11.9663 14.3396 11.8655C14.5375 11.8023 14.7482 11.7341 14.9671 11.6632L14.9706 11.662C15.9243 11.353 17.3292 10.8662 18.0954 10.7137C18.3331 10.6664 18.5677 10.7543 18.75 10.914L27.8434 18.875C29.4892 17.4291 30.5885 15.4597 30.5885 13.1768C30.5885 9.19347 27.4343 5.96436 23.3195 5.96436C20.4978 6.10386 16.0159 6.69288 12.6268 8.03638Z" fill="#FBB439"/>
<path d="M12.6268 8.03638L12.6292 8.04228C11.9307 8.38187 11.4492 9.09833 11.4492 9.92723C11.4492 11.0841 12.387 12.0219 13.5439 12.0219C13.8256 12.0219 14.0943 11.9663 14.3396 11.8655C14.5375 11.8023 14.7482 11.7341 14.9671 11.6632L14.9706 11.662C15.9243 11.353 17.3292 10.8662 18.0954 10.7137C18.3331 10.6664 18.5677 10.7543 18.75 10.914L27.8434 18.875C29.4892 17.4291 30.5885 15.4597 30.5885 13.1768C30.5885 9.19347 27.4343 5.96436 23.3195 5.96436C20.4978 6.10386 16.0159 6.69288 12.6268 8.03638Z" fill="url(#paint27_radial_1645_29209)"/>
<path d="M12.6268 8.03638L12.6292 8.04228C11.9307 8.38187 11.4492 9.09833 11.4492 9.92723C11.4492 11.0841 12.387 12.0219 13.5439 12.0219C13.8256 12.0219 14.0943 11.9663 14.3396 11.8655C14.5375 11.8023 14.7482 11.7341 14.9671 11.6632L14.9706 11.662C15.9243 11.353 17.3292 10.8662 18.0954 10.7137C18.3331 10.6664 18.5677 10.7543 18.75 10.914L27.8434 18.875C29.4892 17.4291 30.5885 15.4597 30.5885 13.1768C30.5885 9.19347 27.4343 5.96436 23.3195 5.96436C20.4978 6.10386 16.0159 6.69288 12.6268 8.03638Z" fill="url(#paint28_radial_1645_29209)"/>
<path d="M12.6268 8.03638L12.6292 8.04228C11.9307 8.38187 11.4492 9.09833 11.4492 9.92723C11.4492 11.0841 12.387 12.0219 13.5439 12.0219C13.8256 12.0219 14.0943 11.9663 14.3396 11.8655C14.5375 11.8023 14.7482 11.7341 14.9671 11.6632L14.9706 11.662C15.9243 11.353 17.3292 10.8662 18.0954 10.7137C18.3331 10.6664 18.5677 10.7543 18.75 10.914L27.8434 18.875C29.4892 17.4291 30.5885 15.4597 30.5885 13.1768C30.5885 9.19347 27.4343 5.96436 23.3195 5.96436C20.4978 6.10386 16.0159 6.69288 12.6268 8.03638Z" fill="url(#paint29_radial_1645_29209)"/>
</g>
<path d="M12.6268 8.03638L12.6292 8.04228C11.9307 8.38187 11.4492 9.09833 11.4492 9.92723C11.4492 11.0841 12.387 12.0219 13.5439 12.0219C13.8256 12.0219 14.0943 11.9663 14.3396 11.8655C14.5375 11.8023 14.7482 11.7341 14.9671 11.6632L14.9706 11.662C15.9243 11.353 17.3292 10.8662 18.0954 10.7137C18.3331 10.6664 18.5677 10.7543 18.75 10.914L27.8434 18.875C29.4892 17.4291 30.5885 15.4597 30.5885 13.1768C30.5885 9.19347 27.4343 5.96436 23.3195 5.96436C20.4978 6.10386 16.0159 6.69288 12.6268 8.03638Z" fill="url(#paint30_radial_1645_29209)"/>
<g filter="url(#filter8_f_1645_29209)">
<path d="M19.2356 9.50761C17.9308 9.82694 16.3419 10.314 15.1806 10.6961C14.4976 10.9208 13.7531 10.5402 13.5544 9.84921C13.3808 9.24574 13.6865 8.60662 14.2793 8.3996C15.7692 7.87931 17.5861 7.40737 18.8854 7.14268C19.5089 7.01565 20.0906 7.44063 20.2027 8.06701C20.3199 8.7217 19.8816 9.34951 19.2356 9.50761Z" fill="#FFE746"/>
</g>
</g>
<defs>
<filter id="filter0_i_1645_29209" x="2.46094" y="4.41846" width="27.6641" height="25.6758" filterUnits="userSpaceOnUse" color-interpolation-filters="sRGB">
<feFlood flood-opacity="0" result="BackgroundImageFix"/>
<feBlend mode="normal" in="SourceGraphic" in2="BackgroundImageFix" result="shape"/>
<feColorMatrix in="SourceAlpha" type="matrix" values="0 0 0 0 0 0 0 0 0 0 0 0 0 0 0 0 0 0 127 0" result="hardAlpha"/>
<feOffset dx="1.5" dy="-1.5"/>
<feGaussianBlur stdDeviation="1.5"/>
<feComposite in2="hardAlpha" operator="arithmetic" k2="-1" k3="1"/>
<feColorMatrix type="matrix" values="0 0 0 0 0.945098 0 0 0 0 0.615686 0 0 0 0 0.156863 0 0 0 1 0"/>
<feBlend mode="normal" in2="shape" result="effect1_innerShadow_1645_29209"/>
</filter>
<filter id="filter1_f_1645_29209" x="3.86328" y="15.2791" width="13.9297" height="14.3181" filterUnits="userSpaceOnUse" color-interpolation-filters="sRGB">
<feFlood flood-opacity="0" result="BackgroundImageFix"/>
<feBlend mode="normal" in="SourceGraphic" in2="BackgroundImageFix" result="shape"/>
<feGaussianBlur stdDeviation="0.375" result="effect1_foregroundBlur_1645_29209"/>
</filter>
<filter id="filter2_f_1645_29209" x="13.293" y="23.6011" width="6.91016" height="6.65625" filterUnits="userSpaceOnUse" color-interpolation-filters="sRGB">
<feFlood flood-opacity="0" result="BackgroundImageFix"/>
<feBlend mode="normal" in="SourceGraphic" in2="BackgroundImageFix" result="shape"/>
<feGaussianBlur stdDeviation="0.75" result="effect1_foregroundBlur_1645_29209"/>
</filter>
<filter id="filter3_f_1645_29209" x="10.058" y="7.25694" width="7.30203" height="5.72684" filterUnits="userSpaceOnUse" color-interpolation-filters="sRGB">
<feFlood flood-opacity="0" result="BackgroundImageFix"/>
<feBlend mode="normal" in="SourceGraphic" in2="BackgroundImageFix" result="shape"/>
<feGaussianBlur stdDeviation="0.43" result="effect1_foregroundBlur_1645_29209"/>
</filter>
<filter id="filter4_f_1645_29209" x="16.3711" y="10.1697" width="13.0625" height="12.125" filterUnits="userSpaceOnUse" color-interpolation-filters="sRGB">
<feFlood flood-opacity="0" result="BackgroundImageFix"/>
<feBlend mode="normal" in="SourceGraphic" in2="BackgroundImageFix" result="shape"/>
<feGaussianBlur stdDeviation="0.75" result="effect1_foregroundBlur_1645_29209"/>
</filter>
<filter id="filter5_f_1645_29209" x="20.4023" y="19.313" width="6.91016" height="6.65625" filterUnits="userSpaceOnUse" color-interpolation-filters="sRGB">
<feFlood flood-opacity="0" result="BackgroundImageFix"/>
<feBlend mode="normal" in="SourceGraphic" in2="BackgroundImageFix" result="shape"/>
<feGaussianBlur stdDeviation="0.75" result="effect1_foregroundBlur_1645_29209"/>
</filter>
<filter id="filter6_f_1645_29209" x="17.1484" y="21.8823" width="6.91016" height="6.65625" filterUnits="userSpaceOnUse" color-interpolation-filters="sRGB">
<feFlood flood-opacity="0" result="BackgroundImageFix"/>
<feBlend mode="normal" in="SourceGraphic" in2="BackgroundImageFix" result="shape"/>
<feGaussianBlur stdDeviation="0.75" result="effect1_foregroundBlur_1645_29209"/>
</filter>
<filter id="filter7_i_1645_29209" x="11.4492" y="5.96436" width="19.1406" height="13.0606" filterUnits="userSpaceOnUse" color-interpolation-filters="sRGB">
<feFlood flood-opacity="0" result="BackgroundImageFix"/>
<feBlend mode="normal" in="SourceGraphic" in2="BackgroundImageFix" result="shape"/>
<feColorMatrix in="SourceAlpha" type="matrix" values="0 0 0 0 0 0 0 0 0 0 0 0 0 0 0 0 0 0 127 0" result="hardAlpha"/>
<feOffset dy="0.15"/>
<feGaussianBlur stdDeviation="0.5"/>
<feComposite in2="hardAlpha" operator="arithmetic" k2="-1" k3="1"/>
<feColorMatrix type="matrix" values="0 0 0 0 0.917647 0 0 0 0 0.615686 0 0 0 0 0.137255 0 0 0 1 0"/>
<feBlend mode="normal" in2="shape" result="effect1_innerShadow_1645_29209"/>
</filter>
<filter id="filter8_f_1645_29209" x="11.5078" y="5.12012" width="10.7148" height="7.64062" filterUnits="userSpaceOnUse" color-interpolation-filters="sRGB">
<feFlood flood-opacity="0" result="BackgroundImageFix"/>
<feBlend mode="normal" in="SourceGraphic" in2="BackgroundImageFix" result="shape"/>
<feGaussianBlur stdDeviation="1" result="effect1_foregroundBlur_1645_29209"/>
</filter>
<linearGradient id="paint0_linear_1645_29209" x1="23.0873" y1="14.032" x2="16.3998" y2="23.8445" gradientUnits="userSpaceOnUse">
<stop stop-color="#FFD741"/>
<stop offset="1" stop-color="#FFBE37"/>
</linearGradient>
<radialGradient id="paint1_radial_1645_29209" cx="0" cy="0" r="1" gradientUnits="userSpaceOnUse" gradientTransform="translate(20.4623 10.4695) rotate(122.645) scale(4.75041 6.60552)">
<stop stop-color="#FFDC38"/>
<stop offset="1" stop-color="#FFDC38" stop-opacity="0"/>
</radialGradient>
<radialGradient id="paint2_radial_1645_29209" cx="0" cy="0" r="1" gradientUnits="userSpaceOnUse" gradientTransform="translate(26.8998 24.157) rotate(-136.375) scale(2.76293 2.20483)">
<stop stop-color="#FFCB41"/>
<stop offset="1" stop-color="#FFCB41" stop-opacity="0"/>
</radialGradient>
<radialGradient id="paint3_radial_1645_29209" cx="0" cy="0" r="1" gradientUnits="userSpaceOnUse" gradientTransform="translate(27.556 22.9695) rotate(-138.778) scale(4.69479 1.28252)">
<stop stop-color="#F48E5A"/>
<stop offset="1" stop-color="#F48E5A" stop-opacity="0"/>
</radialGradient>
<radialGradient id="paint4_radial_1645_29209" cx="0" cy="0" r="1" gradientUnits="userSpaceOnUse" gradientTransform="translate(24.9623 27.032) rotate(-134.193) scale(6.2762 1.71453)">
<stop stop-color="#F48E5A"/>
<stop offset="1" stop-color="#F48E5A" stop-opacity="0"/>
</radialGradient>
<radialGradient id="paint5_radial_1645_29209" cx="0" cy="0" r="1" gradientUnits="userSpaceOnUse" gradientTransform="translate(20.5873 28.8757) rotate(-133.968) scale(4.90635 1.55572)">
<stop stop-color="#F48E5A"/>
<stop offset="1" stop-color="#F48E5A" stop-opacity="0"/>
</radialGradient>
<radialGradient id="paint6_radial_1645_29209" cx="0" cy="0" r="1" gradientUnits="userSpaceOnUse" gradientTransform="translate(17.181 30.8445) rotate(-139.295) scale(5.60631 1.64332)">
<stop stop-color="#F48E5A"/>
<stop offset="1" stop-color="#F48E5A" stop-opacity="0"/>
</radialGradient>
<linearGradient id="paint7_linear_1645_29209" x1="17.9548" y1="28.0073" x2="14.3242" y2="24.4448" gradientUnits="userSpaceOnUse">
<stop stop-color="#FFCD43"/>
<stop offset="1" stop-color="#FFCD43" stop-opacity="0"/>
</linearGradient>
<linearGradient id="paint8_linear_1645_29209" x1="27.1836" y1="20.0447" x2="18.1211" y2="12.1697" gradientUnits="userSpaceOnUse">
<stop stop-color="#FFE647"/>
<stop offset="1" stop-color="#FFE647" stop-opacity="0"/>
</linearGradient>
<linearGradient id="paint9_linear_1645_29209" x1="25.0642" y1="23.7193" x2="21.4336" y2="20.1567" gradientUnits="userSpaceOnUse">
<stop stop-color="#FFD941"/>
<stop offset="1" stop-color="#FFD941" stop-opacity="0"/>
</linearGradient>
<linearGradient id="paint10_linear_1645_29209" x1="21.8102" y1="26.2886" x2="18.1797" y2="22.7261" gradientUnits="userSpaceOnUse">
<stop stop-color="#FFD63F"/>
<stop offset="1" stop-color="#FFD63F" stop-opacity="0"/>
</linearGradient>
<linearGradient id="paint11_linear_1645_29209" x1="8.1817" y1="17.1569" x2="3.83795" y2="21.3444" gradientUnits="userSpaceOnUse">
<stop stop-color="#FFBC41"/>
<stop offset="1" stop-color="#E69429"/>
</linearGradient>
<linearGradient id="paint12_linear_1645_29209" x1="7.79108" y1="21.1726" x2="6.82233" y2="20.1413" gradientUnits="userSpaceOnUse">
<stop stop-color="#E08407"/>
<stop offset="1" stop-color="#E08407" stop-opacity="0"/>
</linearGradient>
<radialGradient id="paint13_radial_1645_29209" cx="0" cy="0" r="1" gradientUnits="userSpaceOnUse" gradientTransform="translate(5.77545 22.8132) rotate(-88.8767) scale(3.18811 2.88295)">
<stop stop-color="#DA725B"/>
<stop offset="1" stop-color="#DA725B" stop-opacity="0"/>
</radialGradient>
<radialGradient id="paint14_radial_1645_29209" cx="0" cy="0" r="1" gradientUnits="userSpaceOnUse" gradientTransform="translate(9.00983 16.4382) rotate(136.229) scale(2.5749 2.49023)">
<stop stop-color="#FFE43E"/>
<stop offset="1" stop-color="#FFE43E" stop-opacity="0"/>
</radialGradient>
<linearGradient id="paint15_linear_1645_29209" x1="11.2115" y1="19.6854" x2="6.3609" y2="24.3606" gradientUnits="userSpaceOnUse">
<stop stop-color="#FFBC41"/>
<stop offset="1" stop-color="#E69429"/>
</linearGradient>
<linearGradient id="paint16_linear_1645_29209" x1="10.7754" y1="24.1696" x2="9.69356" y2="23.0182" gradientUnits="userSpaceOnUse">
<stop stop-color="#E08407"/>
<stop offset="1" stop-color="#E08407" stop-opacity="0"/>
</linearGradient>
<radialGradient id="paint17_radial_1645_29209" cx="0" cy="0" r="1" gradientUnits="userSpaceOnUse" gradientTransform="translate(8.0553 25.8444) rotate(-83.0945) scale(4.15863 4.91442)">
<stop stop-color="#E8766E"/>
<stop offset="1" stop-color="#E8766E" stop-opacity="0"/>
</radialGradient>
<radialGradient id="paint18_radial_1645_29209" cx="0" cy="0" r="1" gradientUnits="userSpaceOnUse" gradientTransform="translate(11.8053 19.1881) rotate(136.026) scale(2.425 2.34528)">
<stop stop-color="#FFE43E"/>
<stop offset="1" stop-color="#FFE43E" stop-opacity="0"/>
</radialGradient>
<linearGradient id="paint19_linear_1645_29209" x1="15.8837" y1="25.5596" x2="11.9328" y2="29.3735" gradientUnits="userSpaceOnUse">
<stop stop-color="#FFBC41"/>
<stop offset="1" stop-color="#E69429"/>
</linearGradient>
<linearGradient id="paint20_linear_1645_29209" x1="12.5579" y1="26.1256" x2="13.9629" y2="27.0338" gradientUnits="userSpaceOnUse">
<stop offset="0.155618" stop-color="#E08407"/>
<stop offset="1" stop-color="#E08407" stop-opacity="0"/>
</linearGradient>
<radialGradient id="paint21_radial_1645_29209" cx="0" cy="0" r="1" gradientUnits="userSpaceOnUse" gradientTransform="translate(13.2766 30.8444) rotate(-84.1036) scale(3.65034 4.32025)">
<stop stop-color="#E8766E"/>
<stop offset="1" stop-color="#E8766E" stop-opacity="0"/>
</radialGradient>
<radialGradient id="paint22_radial_1645_29209" cx="0" cy="0" r="1" gradientUnits="userSpaceOnUse" gradientTransform="translate(16.3681 25.1546) rotate(136.071) scale(1.97669 1.91159)">
<stop stop-color="#FFE43E"/>
<stop offset="1" stop-color="#FFE43E" stop-opacity="0"/>
</radialGradient>
<linearGradient id="paint23_linear_1645_29209" x1="13.6442" y1="22.5817" x2="9.23164" y2="26.8427" gradientUnits="userSpaceOnUse">
<stop stop-color="#FFBC41"/>
<stop offset="1" stop-color="#E69429"/>
</linearGradient>
<linearGradient id="paint24_linear_1645_29209" x1="13.5269" y1="26.9069" x2="12.6067" y2="25.921" gradientUnits="userSpaceOnUse">
<stop stop-color="#E08407"/>
<stop offset="1" stop-color="#E08407" stop-opacity="0"/>
</linearGradient>
<radialGradient id="paint25_radial_1645_29209" cx="0" cy="0" r="1" gradientUnits="userSpaceOnUse" gradientTransform="translate(10.7679 28.1842) rotate(-83.0818) scale(3.78297 4.47857)">
<stop stop-color="#E8766E"/>
<stop offset="1" stop-color="#E8766E" stop-opacity="0"/>
</radialGradient>
<radialGradient id="paint26_radial_1645_29209" cx="0" cy="0" r="1" gradientUnits="userSpaceOnUse" gradientTransform="translate(14.1854 22.1294) rotate(136.08) scale(2.20801 2.13528)">
<stop stop-color="#FFE43E"/>
<stop offset="1" stop-color="#FFE43E" stop-opacity="0"/>
</radialGradient>
<radialGradient id="paint27_radial_1645_29209" cx="0" cy="0" r="1" gradientUnits="userSpaceOnUse" gradientTransform="translate(19.677 17.0944) rotate(-33.6901) scale(12.1285 19.0621)">
<stop offset="0.360862" stop-color="#FFE949" stop-opacity="0"/>
<stop offset="1" stop-color="#FFE949"/>
</radialGradient>
<radialGradient id="paint28_radial_1645_29209" cx="0" cy="0" r="1" gradientUnits="userSpaceOnUse" gradientTransform="translate(11.4492 10.7346) rotate(-21.4027) scale(4.32093 6.93849)">
<stop stop-color="#EE9226"/>
<stop offset="1" stop-color="#EE9226" stop-opacity="0"/>
</radialGradient>
<radialGradient id="paint29_radial_1645_29209" cx="0" cy="0" r="1" gradientUnits="userSpaceOnUse" gradientTransform="translate(19.2039 17.3046) rotate(-38.5505) scale(8.6025 8.20943)">
<stop stop-color="#F7A91E"/>
<stop offset="1" stop-color="#F7A91E" stop-opacity="0"/>
</radialGradient>
<radialGradient id="paint30_radial_1645_29209" cx="0" cy="0" r="1" gradientUnits="userSpaceOnUse" gradientTransform="translate(20.7282 15.5176) rotate(-35.9316) scale(11.5542 18.0776)">
<stop offset="0.660528" stop-color="#FFEA49" stop-opacity="0"/>
<stop offset="1" stop-color="#FFEA49"/>
</radialGradient>
<clipPath id="clip0_1645_29209">
<rect width="32" height="32" fill="white" transform="translate(0.5)"/>
</clipPath>
</defs>
</svg>
