<svg width="24" height="24" viewBox="0 0 24 24" fill="none" xmlns="http://www.w3.org/2000/svg">
<path fill-rule="evenodd" clip-rule="evenodd" d="M10.3596 8.79187C9.36545 7.25809 7.12585 7.24361 6.11199 8.7644C5.48762 9.70096 5.55363 10.9366 6.27422 11.8014L11.5007 18.0731C11.7605 18.3849 12.2395 18.3849 12.4993 18.0731L17.7258 11.8014C18.4464 10.9366 18.5124 9.70096 17.888 8.7644C16.8741 7.24361 14.6346 7.25809 13.6404 8.79187L12.7133 10.2223C12.5566 10.4641 12.2881 10.61 12 10.61C11.7119 10.61 11.4434 10.4641 11.2867 10.2223L10.3596 8.79187ZM4.6975 7.82141C6.3895 5.28342 10.1271 5.30758 11.7861 7.86724L12 8.19723L12.2139 7.86724C13.8729 5.30759 17.6105 5.28342 19.3025 7.82141C20.3445 9.3844 20.2343 11.4466 19.0318 12.8897L13.8053 19.1614C12.8658 20.2888 11.1342 20.2888 10.1947 19.1614L4.96824 12.8897C3.76567 11.4466 3.65551 9.3844 4.6975 7.82141Z" fill="#ABA6BA"/>
</svg>
