<svg width="24" height="17" viewBox="0 0 24 17" fill="none" xmlns="http://www.w3.org/2000/svg">
<path fill-rule="evenodd" clip-rule="evenodd" d="M23.1211 8.62467C23.1211 7.99874 22.6137 7.49133 21.9878 7.49133L4.28452 7.49133C3.6586 7.49133 3.15119 7.99874 3.15119 8.62467C3.15119 9.25059 3.6586 9.758 4.28452 9.758L21.9878 9.758C22.6137 9.758 23.1211 9.25059 23.1211 8.62467Z" fill="#735CFF"/>
<path fill-rule="evenodd" clip-rule="evenodd" d="M9.50842 1.18457C9.06582 0.741972 8.34824 0.741972 7.90564 1.18457L2.17917 6.91103C1.21588 7.87433 1.21588 9.43613 2.17917 10.3994L7.8794 16.0997C8.32199 16.5422 9.03958 16.5422 9.48217 16.0997C9.92477 15.6571 9.92477 14.9395 9.48217 14.4969L3.78195 8.79665C3.70384 8.71855 3.70384 8.59191 3.78195 8.51381L9.50842 2.78734C9.95101 2.34475 9.95101 1.62716 9.50842 1.18457Z" fill="#735CFF"/>
</svg>
