<svg width="44" height="44" viewBox="0 0 44 44" fill="none" xmlns="http://www.w3.org/2000/svg">
<path d="M22 44C34.1503 44 44 34.1503 44 22C44 9.84974 34.1503 0 22 0C9.84974 0 0 9.84974 0 22C0 34.1503 9.84974 44 22 44Z" fill="#EDE7FF"/>
<path d="M6.97534 21.8818V38.0653C10.9031 41.7462 16.1939 43.9999 21.9997 43.9999C27.709 43.9999 32.9031 41.8321 36.8095 38.2692V22.0643C36.8095 21.2165 36.391 20.4331 35.7041 19.9501L23.5451 11.515C22.6758 10.914 21.5383 10.9033 20.6583 11.4828L8.13437 19.7355C7.41534 20.2077 6.97534 21.0233 6.97534 21.8818Z" fill="#735CFF"/>
<path d="M32.6256 36.9171H10.9475V17.8146C10.9475 16.3873 12.0958 15.239 13.5231 15.239H30.0499C31.4773 15.239 32.6256 16.3873 32.6256 17.8146V36.9171Z" fill="#F9F9F9"/>
<path d="M6.97534 38.0652C10.9031 41.7462 16.1939 43.9998 21.9997 43.9998C27.709 43.9998 32.9031 41.832 36.8095 38.2691L6.97534 27.3228V38.0652Z" fill="#9C8CFB"/>
<path d="M21.9997 43.9998C27.709 43.9998 32.9031 41.832 36.8095 38.2691V27.3228L6.97534 38.0545L6.98607 38.0759C10.9139 41.7462 16.1939 43.9998 21.9997 43.9998Z" fill="#B5A8FF"/>
<path fill-rule="evenodd" clip-rule="evenodd" d="M27.4522 20.7282C27.7625 21.0345 27.7655 21.5345 27.459 21.8445L21.4836 27.8871L17.7314 24.3887C17.4032 24.0827 17.3814 23.5698 17.6825 23.237C17.9924 22.8944 18.5238 22.8747 18.8582 23.1935L21.4685 25.6816L26.3356 20.7363C26.6416 20.4254 27.1418 20.4218 27.4522 20.7282Z" fill="#58CAA3"/>
</svg>
