<svg width="33" height="32" viewBox="0 0 33 32" fill="none" xmlns="http://www.w3.org/2000/svg">
<g filter="url(#filter0_ii_1627_11824)">
<rect x="7.72461" y="4.10938" width="20.3047" height="25.7891" rx="1.4" fill="url(#paint0_linear_1627_11824)"/>
<rect x="7.72461" y="4.10938" width="20.3047" height="25.7891" rx="1.4" fill="url(#paint1_linear_1627_11824)"/>
</g>
<g filter="url(#filter1_f_1627_11824)">
<path d="M19.493 4.10938H9.38897C8.67472 4.10938 8.0957 4.73618 8.0957 5.50937V28.4984C8.0957 28.5491 8.09818 28.5992 8.10303 28.6485H22.9572C23.6179 28.6485 24.1535 28.0687 24.1535 27.3535V9.53761C24.1535 9.29229 24.0634 9.05702 23.9032 8.88355L19.493 4.10938Z" fill="#91879F"/>
</g>
<g filter="url(#filter2_iiii_1627_11824)">
<path d="M18.3648 2.38835C18.1914 2.21488 17.9561 2.11743 17.7108 2.11743H5.43755C4.72236 2.11743 4.14258 2.69721 4.14258 3.4124V26.6425C4.14258 27.3577 4.72236 27.9374 5.43755 27.9374H23.125C23.8401 27.9374 24.4199 27.3577 24.4199 26.6425V8.82657C24.4199 8.58125 24.3225 8.34598 24.149 8.17251L18.3648 2.38835Z" fill="url(#paint2_linear_1627_11824)"/>
</g>
<g filter="url(#filter3_f_1627_11824)">
<path d="M17.751 2.50048C17.751 2.31419 17.8045 2.19521 17.7031 2.17529C17.7995 2.18143 17.9396 2.21635 18.0283 2.25117C18.1423 2.29593 18.0016 2.39475 18.0908 2.48189C18.0934 2.48443 18.096 2.48699 18.0986 2.48957L23.8827 8.27373C23.9003 8.29137 23.9172 8.30964 23.9332 8.32849C24.0122 8.42132 24.0716 8.52829 24.1087 8.64294C24.1382 8.73413 24.1536 8.83017 24.1536 8.92779V8.9862C24.1536 8.77142 23.9983 8.64294 23.8827 8.64294H18.861C18.248 8.64294 17.751 8.14598 17.751 7.53297V2.50048Z" fill="#D2C5DF"/>
</g>
<g filter="url(#filter4_ii_1627_11824)">
<path d="M18.0171 2.39934C18.0171 2.21305 17.8709 2.1393 17.7695 2.11938C17.8659 2.12552 17.96 2.14667 18.0487 2.18149C18.1626 2.22624 18.2676 2.29361 18.3569 2.38075C18.3595 2.38329 18.3621 2.38585 18.3646 2.38843L24.1488 8.17259C24.1664 8.19022 24.1833 8.20849 24.1993 8.22735C24.2783 8.32017 24.3376 8.42715 24.3748 8.5418C24.4043 8.63298 24.4197 8.72902 24.4197 8.82665V8.88505C24.4197 8.67027 24.2643 8.5418 24.1488 8.5418H19.1271C18.5141 8.5418 18.0171 8.04484 18.0171 7.43182V2.39934Z" fill="url(#paint3_linear_1627_11824)"/>
</g>
<path d="M18.0171 2.39934C18.0171 2.21305 17.8709 2.1393 17.7695 2.11938C17.8659 2.12552 17.96 2.14667 18.0487 2.18149C18.1626 2.22624 18.2676 2.29361 18.3569 2.38075C18.3595 2.38329 18.3621 2.38585 18.3646 2.38843L24.1488 8.17259C24.1664 8.19022 24.1833 8.20849 24.1993 8.22735C24.2783 8.32017 24.3376 8.42715 24.3748 8.5418C24.4043 8.63298 24.4197 8.72902 24.4197 8.82665V8.88505C24.4197 8.67027 24.2643 8.5418 24.1488 8.5418H19.1271C18.5141 8.5418 18.0171 8.04484 18.0171 7.43182V2.39934Z" fill="url(#paint4_linear_1627_11824)"/>
<rect x="7.84375" y="11.324" width="12.8703" height="0.917756" rx="0.458878" fill="url(#paint5_linear_1627_11824)"/>
<rect x="7.84375" y="14.0989" width="12.8703" height="0.917756" rx="0.458878" fill="url(#paint6_linear_1627_11824)"/>
<rect x="7.84375" y="16.8739" width="12.8703" height="0.917756" rx="0.458878" fill="url(#paint7_linear_1627_11824)"/>
<rect x="7.84375" y="19.6488" width="8.31039" height="0.917756" rx="0.458878" fill="url(#paint8_linear_1627_11824)"/>
<g filter="url(#filter5_f_1627_11824)">
<path d="M24.2957 13.4844H22.9138C22.7781 13.4844 22.6489 13.5447 22.5583 13.6502L21.6569 14.7001C21.5753 14.7951 21.5753 14.9392 21.6569 15.0343L22.5583 16.0841C22.6489 16.1897 22.7781 16.25 22.9138 16.25H24.2957V13.4844Z" fill="#BAA8C1"/>
</g>
<g filter="url(#filter6_ii_1627_11824)">
<path d="M23.1302 13.3221C23.225 13.2165 23.3602 13.1562 23.5021 13.1562H26.8026C26.9407 13.1562 27.0526 13.2682 27.0526 13.4062V15.6719C27.0526 15.8099 26.9407 15.9219 26.8026 15.9219H23.5021C23.3602 15.9219 23.225 15.8616 23.1302 15.756L22.1871 14.7061C22.1017 14.6111 22.1017 14.467 22.1871 14.372L23.1302 13.3221Z" fill="url(#paint9_linear_1627_11824)"/>
<path d="M23.1302 13.3221C23.225 13.2165 23.3602 13.1562 23.5021 13.1562H26.8026C26.9407 13.1562 27.0526 13.2682 27.0526 13.4062V15.6719C27.0526 15.8099 26.9407 15.9219 26.8026 15.9219H23.5021C23.3602 15.9219 23.225 15.8616 23.1302 15.756L22.1871 14.7061C22.1017 14.6111 22.1017 14.467 22.1871 14.372L23.1302 13.3221Z" fill="url(#paint10_linear_1627_11824)"/>
</g>
<g filter="url(#filter7_f_1627_11824)">
<path d="M27.9355 20.4884V23.254H25.9294C25.7914 23.254 25.6598 23.1937 25.5676 23.0882L24.6502 22.0383C24.5671 21.9433 24.5671 21.7992 24.6502 21.7041L25.5676 20.6543C25.6598 20.5487 25.7914 20.4884 25.9294 20.4884H27.9355Z" fill="#91879F"/>
</g>
<g filter="url(#filter8_ii_1627_11824)">
<path d="M26.1146 20.2752C26.2094 20.1697 26.3446 20.1094 26.4865 20.1094H29.787C29.9251 20.1094 30.037 20.2213 30.037 20.3594V22.625C30.037 22.7631 29.9251 22.875 29.787 22.875H26.4865C26.3446 22.875 26.2094 22.8147 26.1146 22.7091L25.1714 21.6593C25.0861 21.5642 25.0861 21.4201 25.1714 21.3251L26.1146 20.2752Z" fill="url(#paint11_linear_1627_11824)"/>
<path d="M26.1146 20.2752C26.2094 20.1697 26.3446 20.1094 26.4865 20.1094H29.787C29.9251 20.1094 30.037 20.2213 30.037 20.3594V22.625C30.037 22.7631 29.9251 22.875 29.787 22.875H26.4865C26.3446 22.875 26.2094 22.8147 26.1146 22.7091L25.1714 21.6593C25.0861 21.5642 25.0861 21.4201 25.1714 21.3251L26.1146 20.2752Z" fill="url(#paint12_linear_1627_11824)"/>
</g>
<defs>
<filter id="filter0_ii_1627_11824" x="7.62461" y="4.00937" width="20.5047" height="25.9891" filterUnits="userSpaceOnUse" color-interpolation-filters="sRGB">
<feFlood flood-opacity="0" result="BackgroundImageFix"/>
<feBlend mode="normal" in="SourceGraphic" in2="BackgroundImageFix" result="shape"/>
<feColorMatrix in="SourceAlpha" type="matrix" values="0 0 0 0 0 0 0 0 0 0 0 0 0 0 0 0 0 0 127 0" result="hardAlpha"/>
<feOffset dx="0.1" dy="-0.1"/>
<feGaussianBlur stdDeviation="0.05"/>
<feComposite in2="hardAlpha" operator="arithmetic" k2="-1" k3="1"/>
<feColorMatrix type="matrix" values="0 0 0 0 0.596078 0 0 0 0 0.529412 0 0 0 0 0.67451 0 0 0 1 0"/>
<feBlend mode="normal" in2="shape" result="effect1_innerShadow_1627_11824"/>
<feColorMatrix in="SourceAlpha" type="matrix" values="0 0 0 0 0 0 0 0 0 0 0 0 0 0 0 0 0 0 127 0" result="hardAlpha"/>
<feOffset dx="-0.1" dy="0.1"/>
<feGaussianBlur stdDeviation="0.1"/>
<feComposite in2="hardAlpha" operator="arithmetic" k2="-1" k3="1"/>
<feColorMatrix type="matrix" values="0 0 0 0 0.811765 0 0 0 0 0.8 0 0 0 0 0.827451 0 0 0 1 0"/>
<feBlend mode="normal" in2="effect1_innerShadow_1627_11824" result="effect2_innerShadow_1627_11824"/>
</filter>
<filter id="filter1_f_1627_11824" x="7.0957" y="3.10938" width="18.0586" height="26.5391" filterUnits="userSpaceOnUse" color-interpolation-filters="sRGB">
<feFlood flood-opacity="0" result="BackgroundImageFix"/>
<feBlend mode="normal" in="SourceGraphic" in2="BackgroundImageFix" result="shape"/>
<feGaussianBlur stdDeviation="0.5" result="effect1_foregroundBlur_1627_11824"/>
</filter>
<filter id="filter2_iiii_1627_11824" x="4.04258" y="1.81743" width="20.6773" height="26.2201" filterUnits="userSpaceOnUse" color-interpolation-filters="sRGB">
<feFlood flood-opacity="0" result="BackgroundImageFix"/>
<feBlend mode="normal" in="SourceGraphic" in2="BackgroundImageFix" result="shape"/>
<feColorMatrix in="SourceAlpha" type="matrix" values="0 0 0 0 0 0 0 0 0 0 0 0 0 0 0 0 0 0 127 0" result="hardAlpha"/>
<feOffset dx="0.3" dy="-0.3"/>
<feGaussianBlur stdDeviation="0.3"/>
<feComposite in2="hardAlpha" operator="arithmetic" k2="-1" k3="1"/>
<feColorMatrix type="matrix" values="0 0 0 0 0.807843 0 0 0 0 0.768627 0 0 0 0 0.85098 0 0 0 1 0"/>
<feBlend mode="normal" in2="shape" result="effect1_innerShadow_1627_11824"/>
<feColorMatrix in="SourceAlpha" type="matrix" values="0 0 0 0 0 0 0 0 0 0 0 0 0 0 0 0 0 0 127 0" result="hardAlpha"/>
<feOffset dx="0.1" dy="-0.1"/>
<feGaussianBlur stdDeviation="0.1"/>
<feComposite in2="hardAlpha" operator="arithmetic" k2="-1" k3="1"/>
<feColorMatrix type="matrix" values="0 0 0 0 0.709804 0 0 0 0 0.690196 0 0 0 0 0.733333 0 0 0 1 0"/>
<feBlend mode="normal" in2="effect1_innerShadow_1627_11824" result="effect2_innerShadow_1627_11824"/>
<feColorMatrix in="SourceAlpha" type="matrix" values="0 0 0 0 0 0 0 0 0 0 0 0 0 0 0 0 0 0 127 0" result="hardAlpha"/>
<feOffset dy="-0.1"/>
<feGaussianBlur stdDeviation="0.1"/>
<feComposite in2="hardAlpha" operator="arithmetic" k2="-1" k3="1"/>
<feColorMatrix type="matrix" values="0 0 0 0 0.72549 0 0 0 0 0.65098 0 0 0 0 0.8 0 0 0 1 0"/>
<feBlend mode="normal" in2="effect2_innerShadow_1627_11824" result="effect3_innerShadow_1627_11824"/>
<feColorMatrix in="SourceAlpha" type="matrix" values="0 0 0 0 0 0 0 0 0 0 0 0 0 0 0 0 0 0 127 0" result="hardAlpha"/>
<feOffset dx="-0.15" dy="0.15"/>
<feGaussianBlur stdDeviation="0.05"/>
<feComposite in2="hardAlpha" operator="arithmetic" k2="-1" k3="1"/>
<feColorMatrix type="matrix" values="0 0 0 0 0.952941 0 0 0 0 0.941176 0 0 0 0 0.964706 0 0 0 1 0"/>
<feBlend mode="normal" in2="effect3_innerShadow_1627_11824" result="effect4_innerShadow_1627_11824"/>
</filter>
<filter id="filter3_f_1627_11824" x="17.2031" y="1.67529" width="7.45117" height="7.81091" filterUnits="userSpaceOnUse" color-interpolation-filters="sRGB">
<feFlood flood-opacity="0" result="BackgroundImageFix"/>
<feBlend mode="normal" in="SourceGraphic" in2="BackgroundImageFix" result="shape"/>
<feGaussianBlur stdDeviation="0.25" result="effect1_foregroundBlur_1627_11824"/>
</filter>
<filter id="filter4_ii_1627_11824" x="17.7695" y="2.01938" width="6.75039" height="6.86563" filterUnits="userSpaceOnUse" color-interpolation-filters="sRGB">
<feFlood flood-opacity="0" result="BackgroundImageFix"/>
<feBlend mode="normal" in="SourceGraphic" in2="BackgroundImageFix" result="shape"/>
<feColorMatrix in="SourceAlpha" type="matrix" values="0 0 0 0 0 0 0 0 0 0 0 0 0 0 0 0 0 0 127 0" result="hardAlpha"/>
<feOffset dx="0.1"/>
<feGaussianBlur stdDeviation="0.075"/>
<feComposite in2="hardAlpha" operator="arithmetic" k2="-1" k3="1"/>
<feColorMatrix type="matrix" values="0 0 0 0 0.631373 0 0 0 0 0.611765 0 0 0 0 0.654902 0 0 0 1 0"/>
<feBlend mode="normal" in2="shape" result="effect1_innerShadow_1627_11824"/>
<feColorMatrix in="SourceAlpha" type="matrix" values="0 0 0 0 0 0 0 0 0 0 0 0 0 0 0 0 0 0 127 0" result="hardAlpha"/>
<feOffset dy="-0.1"/>
<feGaussianBlur stdDeviation="0.075"/>
<feComposite in2="hardAlpha" operator="arithmetic" k2="-1" k3="1"/>
<feColorMatrix type="matrix" values="0 0 0 0 0.752941 0 0 0 0 0.67451 0 0 0 0 0.835294 0 0 0 1 0"/>
<feBlend mode="normal" in2="effect1_innerShadow_1627_11824" result="effect2_innerShadow_1627_11824"/>
</filter>
<filter id="filter5_f_1627_11824" x="20.9957" y="12.8844" width="3.89922" height="3.96563" filterUnits="userSpaceOnUse" color-interpolation-filters="sRGB">
<feFlood flood-opacity="0" result="BackgroundImageFix"/>
<feBlend mode="normal" in="SourceGraphic" in2="BackgroundImageFix" result="shape"/>
<feGaussianBlur stdDeviation="0.3" result="effect1_foregroundBlur_1627_11824"/>
</filter>
<filter id="filter6_ii_1627_11824" x="21.923" y="12.9562" width="5.32969" height="3.16563" filterUnits="userSpaceOnUse" color-interpolation-filters="sRGB">
<feFlood flood-opacity="0" result="BackgroundImageFix"/>
<feBlend mode="normal" in="SourceGraphic" in2="BackgroundImageFix" result="shape"/>
<feColorMatrix in="SourceAlpha" type="matrix" values="0 0 0 0 0 0 0 0 0 0 0 0 0 0 0 0 0 0 127 0" result="hardAlpha"/>
<feOffset dx="-0.2" dy="0.2"/>
<feGaussianBlur stdDeviation="0.15"/>
<feComposite in2="hardAlpha" operator="arithmetic" k2="-1" k3="1"/>
<feColorMatrix type="matrix" values="0 0 0 0 0.92549 0 0 0 0 0.4 0 0 0 0 0.576471 0 0 0 1 0"/>
<feBlend mode="normal" in2="shape" result="effect1_innerShadow_1627_11824"/>
<feColorMatrix in="SourceAlpha" type="matrix" values="0 0 0 0 0 0 0 0 0 0 0 0 0 0 0 0 0 0 127 0" result="hardAlpha"/>
<feOffset dx="0.2" dy="-0.2"/>
<feGaussianBlur stdDeviation="0.15"/>
<feComposite in2="hardAlpha" operator="arithmetic" k2="-1" k3="1"/>
<feColorMatrix type="matrix" values="0 0 0 0 0.721569 0 0 0 0 0.223529 0 0 0 0 0.376471 0 0 0 1 0"/>
<feBlend mode="normal" in2="effect1_innerShadow_1627_11824" result="effect2_innerShadow_1627_11824"/>
</filter>
<filter id="filter7_f_1627_11824" x="24.1879" y="20.0884" width="4.14766" height="3.56563" filterUnits="userSpaceOnUse" color-interpolation-filters="sRGB">
<feFlood flood-opacity="0" result="BackgroundImageFix"/>
<feBlend mode="normal" in="SourceGraphic" in2="BackgroundImageFix" result="shape"/>
<feGaussianBlur stdDeviation="0.2" result="effect1_foregroundBlur_1627_11824"/>
</filter>
<filter id="filter8_ii_1627_11824" x="24.9074" y="19.9094" width="5.32969" height="3.16563" filterUnits="userSpaceOnUse" color-interpolation-filters="sRGB">
<feFlood flood-opacity="0" result="BackgroundImageFix"/>
<feBlend mode="normal" in="SourceGraphic" in2="BackgroundImageFix" result="shape"/>
<feColorMatrix in="SourceAlpha" type="matrix" values="0 0 0 0 0 0 0 0 0 0 0 0 0 0 0 0 0 0 127 0" result="hardAlpha"/>
<feOffset dx="-0.2" dy="0.2"/>
<feGaussianBlur stdDeviation="0.15"/>
<feComposite in2="hardAlpha" operator="arithmetic" k2="-1" k3="1"/>
<feColorMatrix type="matrix" values="0 0 0 0 0.988235 0 0 0 0 0.929412 0 0 0 0 0.439216 0 0 0 1 0"/>
<feBlend mode="normal" in2="shape" result="effect1_innerShadow_1627_11824"/>
<feColorMatrix in="SourceAlpha" type="matrix" values="0 0 0 0 0 0 0 0 0 0 0 0 0 0 0 0 0 0 127 0" result="hardAlpha"/>
<feOffset dx="0.2" dy="-0.2"/>
<feGaussianBlur stdDeviation="0.15"/>
<feComposite in2="hardAlpha" operator="arithmetic" k2="-1" k3="1"/>
<feColorMatrix type="matrix" values="0 0 0 0 0.647059 0 0 0 0 0.411765 0 0 0 0 0.278431 0 0 0 1 0"/>
<feBlend mode="normal" in2="effect1_innerShadow_1627_11824" result="effect2_innerShadow_1627_11824"/>
</filter>
<linearGradient id="paint0_linear_1627_11824" x1="21.3262" y1="24.25" x2="28.8262" y2="27.8125" gradientUnits="userSpaceOnUse">
<stop stop-color="#AFAAB6"/>
<stop offset="1" stop-color="#B7B0C0"/>
</linearGradient>
<linearGradient id="paint1_linear_1627_11824" x1="9.26367" y1="30.3125" x2="21.7637" y2="22.375" gradientUnits="userSpaceOnUse">
<stop stop-color="#A79FB2"/>
<stop offset="1" stop-color="#A79FB2" stop-opacity="0"/>
</linearGradient>
<linearGradient id="paint2_linear_1627_11824" x1="14.2812" y1="2.11743" x2="14.2813" y2="27.9374" gradientUnits="userSpaceOnUse">
<stop stop-color="#EBE4F3"/>
<stop offset="1" stop-color="#E4DAF0"/>
</linearGradient>
<linearGradient id="paint3_linear_1627_11824" x1="18.4796" y1="8.28165" x2="20.9221" y2="5.83912" gradientUnits="userSpaceOnUse">
<stop stop-color="#D9D3E1"/>
<stop offset="1" stop-color="#CCC7D1"/>
</linearGradient>
<linearGradient id="paint4_linear_1627_11824" x1="21.4713" y1="5.36217" x2="20.8788" y2="5.94029" gradientUnits="userSpaceOnUse">
<stop offset="0.119171" stop-color="#DBDADC"/>
<stop offset="0.577307" stop-color="#CBC7D0" stop-opacity="0"/>
</linearGradient>
<linearGradient id="paint5_linear_1627_11824" x1="7.84375" y1="11.7829" x2="20.714" y2="11.7829" gradientUnits="userSpaceOnUse">
<stop stop-color="#9C96A2"/>
<stop offset="1" stop-color="#9A95A1"/>
</linearGradient>
<linearGradient id="paint6_linear_1627_11824" x1="7.84375" y1="14.5578" x2="20.714" y2="14.5578" gradientUnits="userSpaceOnUse">
<stop stop-color="#9C96A2"/>
<stop offset="1" stop-color="#9A95A1"/>
</linearGradient>
<linearGradient id="paint7_linear_1627_11824" x1="7.84375" y1="17.3328" x2="20.714" y2="17.3328" gradientUnits="userSpaceOnUse">
<stop stop-color="#9C96A2"/>
<stop offset="1" stop-color="#9A95A1"/>
</linearGradient>
<linearGradient id="paint8_linear_1627_11824" x1="7.84375" y1="20.1077" x2="16.1541" y2="20.1077" gradientUnits="userSpaceOnUse">
<stop stop-color="#9C96A2"/>
<stop offset="1" stop-color="#9A95A1"/>
</linearGradient>
<linearGradient id="paint9_linear_1627_11824" x1="24.5878" y1="13.1562" x2="24.5878" y2="15.9219" gradientUnits="userSpaceOnUse">
<stop stop-color="#E0437B"/>
<stop offset="1" stop-color="#DC4369"/>
</linearGradient>
<linearGradient id="paint10_linear_1627_11824" x1="22.5292" y1="13.9062" x2="22.9198" y2="14.2187" gradientUnits="userSpaceOnUse">
<stop offset="0.263415" stop-color="#CA4A72"/>
<stop offset="1" stop-color="#CA4A72" stop-opacity="0"/>
</linearGradient>
<linearGradient id="paint11_linear_1627_11824" x1="27.5722" y1="20.1094" x2="27.5722" y2="22.875" gradientUnits="userSpaceOnUse">
<stop stop-color="#E4BD58"/>
<stop offset="1" stop-color="#D89D52"/>
</linearGradient>
<linearGradient id="paint12_linear_1627_11824" x1="25.5135" y1="20.8594" x2="25.9979" y2="21.2187" gradientUnits="userSpaceOnUse">
<stop offset="0.263415" stop-color="#AB9365"/>
<stop offset="1" stop-color="#E3B758" stop-opacity="0"/>
</linearGradient>
</defs>
</svg>
