<svg width="24" height="24" viewBox="0 0 24 24" fill="none" xmlns="http://www.w3.org/2000/svg">
<path fill-rule="evenodd" clip-rule="evenodd" d="M9.1738 15.8499C8.50807 15.8499 7.85946 16.0608 7.32106 16.4524L6.47204 17.0699C5.5713 17.7249 6.03468 19.1499 7.14843 19.1499H16.8477C17.9614 19.1499 18.4248 17.7249 17.5241 17.0699L16.6751 16.4524C16.1367 16.0608 15.4881 15.8499 14.8223 15.8499H9.1738ZM6.32117 15.0775C7.15013 14.4747 8.14879 14.1499 9.1738 14.1499H14.8223C15.8473 14.1499 16.846 14.4746 17.675 15.0775L18.524 15.695C20.7562 17.3185 19.6079 20.8499 16.8477 20.8499H7.14843C4.38826 20.8499 3.2399 17.3185 5.47214 15.695L6.32117 15.0775Z" fill="#D6D0FF"/>
<path fill-rule="evenodd" clip-rule="evenodd" d="M11.9984 4.8499C10.2587 4.8499 8.84844 6.26021 8.84844 7.9999C8.84844 9.7396 10.2587 11.1499 11.9984 11.1499C13.7381 11.1499 15.1484 9.7396 15.1484 7.9999C15.1484 6.26021 13.7381 4.8499 11.9984 4.8499ZM7.14844 7.9999C7.14844 5.32132 9.31986 3.1499 11.9984 3.1499C14.677 3.1499 16.8484 5.32132 16.8484 7.9999C16.8484 10.6785 14.677 12.8499 11.9984 12.8499C9.31986 12.8499 7.14844 10.6785 7.14844 7.9999Z" fill="#D6D0FF"/>
</svg>
