<svg width="32" height="32" viewBox="0 0 32 32" fill="none" xmlns="http://www.w3.org/2000/svg">
<path fill-rule="evenodd" clip-rule="evenodd" d="M14.849 20.7649C18.1162 20.7649 20.7648 18.1163 20.7648 14.8491C20.7648 11.5819 18.1162 8.93329 14.849 8.93329C11.5818 8.93329 8.93317 11.5819 8.93317 14.8491C8.93317 18.1163 11.5818 20.7649 14.849 20.7649ZM14.849 23.0316C19.368 23.0316 23.0315 19.3682 23.0315 14.8491C23.0315 10.33 19.368 6.66663 14.849 6.66663C10.3299 6.66663 6.6665 10.33 6.6665 14.8491C6.6665 19.3682 10.3299 23.0316 14.849 23.0316Z" fill="white"/>
<path fill-rule="evenodd" clip-rule="evenodd" d="M19.8922 19.8923C19.4496 20.3349 19.4496 21.0525 19.8922 21.4951L23.1984 24.8013C23.641 25.2439 24.3586 25.2439 24.8012 24.8013C25.2438 24.3587 25.2438 23.6412 24.8012 23.1986L21.495 19.8923C21.0524 19.4497 20.3348 19.4497 19.8922 19.8923Z" fill="white"/>
</svg>
