<svg width="144" height="144" viewBox="0 0 144 144" fill="none" xmlns="http://www.w3.org/2000/svg">
<g clip-path="url(#clip0_474_18305)">
<path d="M71.995 134.99C114 134.99 134.99 106.786 134.99 71.995C134.99 37.2038 114 9 71.995 9C29.99 9 9 37.2038 9 71.995C9 106.786 29.99 134.99 71.995 134.99Z" fill="url(#paint0_radial_474_18305)" fill-opacity="0.8"/>
<path d="M71.995 134.99C114 134.99 134.99 106.786 134.99 71.995C134.99 37.2038 114 9 71.995 9C29.99 9 9 37.2038 9 71.995C9 106.786 29.99 134.99 71.995 134.99Z" fill="url(#paint1_radial_474_18305)" fill-opacity="0.8"/>
<path d="M71.995 134.99C114 134.99 134.99 106.786 134.99 71.995C134.99 37.2038 114 9 71.995 9C29.99 9 9 37.2038 9 71.995C9 106.786 29.99 134.99 71.995 134.99Z" fill="url(#paint2_radial_474_18305)" fill-opacity="0.8"/>
<path d="M71.995 134.99C114 134.99 134.99 106.786 134.99 71.995C134.99 37.2038 114 9 71.995 9C29.99 9 9 37.2038 9 71.995C9 106.786 29.99 134.99 71.995 134.99Z" fill="url(#paint3_radial_474_18305)" fill-opacity="0.8"/>
<path d="M71.995 134.99C114 134.99 134.99 106.786 134.99 71.995C134.99 37.2038 114 9 71.995 9C29.99 9 9 37.2038 9 71.995C9 106.786 29.99 134.99 71.995 134.99Z" fill="url(#paint4_radial_474_18305)" fill-opacity="0.8"/>
<path d="M71.995 134.99C114 134.99 134.99 106.786 134.99 71.995C134.99 37.2038 114 9 71.995 9C29.99 9 9 37.2038 9 71.995C9 106.786 29.99 134.99 71.995 134.99Z" fill="url(#paint5_radial_474_18305)" fill-opacity="0.8"/>
<path d="M71.995 134.99C114 134.99 134.99 106.786 134.99 71.995C134.99 37.2038 114 9 71.995 9C29.99 9 9 37.2038 9 71.995C9 106.786 29.99 134.99 71.995 134.99Z" fill="url(#paint6_radial_474_18305)" fill-opacity="0.8"/>
<path d="M71.995 134.99C114 134.99 134.99 106.786 134.99 71.995C134.99 37.2038 114 9 71.995 9C29.99 9 9 37.2038 9 71.995C9 106.786 29.99 134.99 71.995 134.99Z" fill="url(#paint7_radial_474_18305)" fill-opacity="0.8"/>
<g filter="url(#filter0_f_474_18305)">
<path d="M114.75 81L85.5 56.25L112.5 49.5L114.75 81Z" fill="url(#paint8_linear_474_18305)" fill-opacity="0.8"/>
</g>
<g filter="url(#filter1_f_474_18305)">
<path d="M60.75 65.25L31.5 63L51.75 45L60.75 65.25Z" fill="url(#paint9_linear_474_18305)" fill-opacity="0.8"/>
</g>
<g filter="url(#filter2_f_474_18305)">
<path d="M74.25 27H83.25C90.45 34.2 89.25 48 87.75 54L74.25 58.5L81 42.75L74.25 27Z" fill="url(#paint10_radial_474_18305)" fill-opacity="0.8"/>
</g>
<g filter="url(#filter3_f_474_18305)">
<path d="M13.5 36H22.5C29.7 43.2 28.5 57 27 63L13.5 72L20.25 51.75L13.5 36Z" fill="url(#paint11_radial_474_18305)" fill-opacity="0.8"/>
</g>
<path d="M42.0275 56.812L23.2274 71.4343C22.9512 71.6491 22.5517 71.4308 22.5834 71.0823L24.6321 48.5469C24.7038 47.7585 24.3036 47.002 23.6116 46.6176L5.87899 36.7661C5.32667 36.4593 5.37804 35.6488 5.96468 35.4141L25.9941 27.4024C26.6216 27.1514 27.0799 26.6004 27.2125 25.9376L31.1842 6.07907C31.3062 5.46879 32.0928 5.29038 32.4662 5.78827L44.3304 21.6072C44.7466 22.1621 45.4206 22.4618 46.1115 22.399L68.8539 20.3315C69.1991 20.3001 69.4181 20.6926 69.2101 20.9698L56.9244 37.3508C56.5056 37.9092 56.4082 38.6455 56.6674 39.2936L65.0786 60.3215C65.1523 60.5058 64.9921 60.6984 64.7975 60.6595L43.6476 56.4295C43.0776 56.3155 42.4863 56.4551 42.0275 56.812Z" fill="url(#paint12_linear_474_18305)"/>
<path d="M41.874 56.6146L23.0739 71.2369C22.9703 71.3175 22.8205 71.2356 22.8324 71.105L24.8811 48.5696C24.9617 47.6826 24.5116 46.8315 23.733 46.399L6.0004 36.5476C5.63218 36.343 5.66643 35.8027 6.05753 35.6462L26.0869 27.6345C26.7929 27.3521 27.3085 26.7323 27.4576 25.9867L31.4293 6.1281C31.509 5.72972 32.0224 5.61326 32.2662 5.93827L44.1304 21.7572C44.5986 22.3815 45.3569 22.7186 46.1341 22.6479L68.8766 20.5804C69.006 20.5687 69.0881 20.7159 69.0101 20.8198L56.7244 37.2008C56.2533 37.829 56.1437 38.6574 56.4353 39.3864L64.8465 60.4143L43.6966 56.1844C43.0554 56.0561 42.3901 56.2132 41.874 56.6146Z" stroke="url(#paint13_linear_474_18305)" stroke-opacity="0.8" stroke-width="0.5"/>
<path d="M102.126 56.6146L120.926 71.2369C121.03 71.3175 121.179 71.2356 121.168 71.105L119.119 48.5696C119.038 47.6826 119.488 46.8315 120.267 46.399L138 36.5476C138.368 36.343 138.334 35.8027 137.942 35.6462L117.913 27.6345C117.207 27.3521 116.691 26.7323 116.542 25.9867L112.571 6.1281C112.491 5.72972 111.978 5.61326 111.734 5.93827L99.8696 21.7572C99.4014 22.3815 98.6431 22.7186 97.8659 22.6479L75.1234 20.5804C74.994 20.5687 74.9119 20.7159 74.9899 20.8198L87.2756 37.2008C87.7467 37.829 87.8563 38.6574 87.5647 39.3864L79.1535 60.4143L100.303 56.1844C100.945 56.0561 101.61 56.2132 102.126 56.6146Z" fill="url(#paint14_linear_474_18305)" stroke="url(#paint15_linear_474_18305)" stroke-width="0.5"/>
<path d="M72 117C31.5 117 31.5 76.5 31.5 76.5H112.5C112.5 76.5 112.5 117 72 117Z" fill="url(#paint16_radial_474_18305)"/>
<path d="M36 82.25V76.5H108V82.25C108 82.8023 107.552 83.25 107 83.25H37C36.4477 83.25 36 82.8023 36 82.25Z" fill="url(#paint17_linear_474_18305)"/>
</g>
<defs>
<filter id="filter0_f_474_18305" x="84.5" y="48.5" width="31.25" height="33.5" filterUnits="userSpaceOnUse" color-interpolation-filters="sRGB">
<feFlood flood-opacity="0" result="BackgroundImageFix"/>
<feBlend mode="normal" in="SourceGraphic" in2="BackgroundImageFix" result="shape"/>
<feGaussianBlur stdDeviation="0.5" result="effect1_foregroundBlur_474_18305"/>
</filter>
<filter id="filter1_f_474_18305" x="30.5" y="44" width="31.25" height="22.25" filterUnits="userSpaceOnUse" color-interpolation-filters="sRGB">
<feFlood flood-opacity="0" result="BackgroundImageFix"/>
<feBlend mode="normal" in="SourceGraphic" in2="BackgroundImageFix" result="shape"/>
<feGaussianBlur stdDeviation="0.5" result="effect1_foregroundBlur_474_18305"/>
</filter>
<filter id="filter2_f_474_18305" x="73.25" y="26" width="16.6377" height="33.5" filterUnits="userSpaceOnUse" color-interpolation-filters="sRGB">
<feFlood flood-opacity="0" result="BackgroundImageFix"/>
<feBlend mode="normal" in="SourceGraphic" in2="BackgroundImageFix" result="shape"/>
<feGaussianBlur stdDeviation="0.5" result="effect1_foregroundBlur_474_18305"/>
</filter>
<filter id="filter3_f_474_18305" x="12.5" y="35" width="16.6377" height="38" filterUnits="userSpaceOnUse" color-interpolation-filters="sRGB">
<feFlood flood-opacity="0" result="BackgroundImageFix"/>
<feBlend mode="normal" in="SourceGraphic" in2="BackgroundImageFix" result="shape"/>
<feGaussianBlur stdDeviation="0.5" result="effect1_foregroundBlur_474_18305"/>
</filter>
<radialGradient id="paint0_radial_474_18305" cx="0" cy="0" r="1" gradientUnits="userSpaceOnUse" gradientTransform="translate(114.75 40.5) rotate(132.839) scale(168.765)">
<stop stop-color="#FFF478"/>
<stop offset="0.474827" stop-color="#FFB02E"/>
<stop offset="1" stop-color="#F70A8D"/>
</radialGradient>
<radialGradient id="paint1_radial_474_18305" cx="0" cy="0" r="1" gradientUnits="userSpaceOnUse" gradientTransform="translate(114.75 40.5) rotate(131.878) scale(175.269)">
<stop stop-color="#FFF478"/>
<stop offset="0.474827" stop-color="#FFB02E"/>
<stop offset="1" stop-color="#F70A8D"/>
</radialGradient>
<radialGradient id="paint2_radial_474_18305" cx="0" cy="0" r="1" gradientUnits="userSpaceOnUse" gradientTransform="translate(72 56.25) rotate(101.31) scale(80.3096 102.861)">
<stop offset="0.787821" stop-color="#F59639" stop-opacity="0"/>
<stop offset="0.972509" stop-color="#FF7DCE"/>
</radialGradient>
<radialGradient id="paint3_radial_474_18305" cx="0" cy="0" r="1" gradientUnits="userSpaceOnUse" gradientTransform="translate(81 63) rotate(135) scale(184.555)">
<stop offset="0.314853" stop-opacity="0"/>
<stop offset="1"/>
</radialGradient>
<radialGradient id="paint4_radial_474_18305" cx="0" cy="0" r="1" gradientUnits="userSpaceOnUse" gradientTransform="translate(72 76.5) rotate(77.692) scale(126.661)">
<stop offset="0.507903" stop-color="#7D6133" stop-opacity="0"/>
<stop offset="1" stop-color="#715B32"/>
</radialGradient>
<radialGradient id="paint5_radial_474_18305" cx="0" cy="0" r="1" gradientUnits="userSpaceOnUse" gradientTransform="translate(74.25 74.25) rotate(55.7131) scale(59.9109 43.4264)">
<stop stop-color="#FFB849"/>
<stop offset="1" stop-color="#FFB847" stop-opacity="0"/>
</radialGradient>
<radialGradient id="paint6_radial_474_18305" cx="0" cy="0" r="1" gradientUnits="userSpaceOnUse" gradientTransform="translate(92.25 81) rotate(9.86581) scale(52.5268)">
<stop stop-color="#FFA64B"/>
<stop offset="0.900412" stop-color="#FFAE46" stop-opacity="0"/>
</radialGradient>
<radialGradient id="paint7_radial_474_18305" cx="0" cy="0" r="1" gradientUnits="userSpaceOnUse" gradientTransform="translate(78.75 67.5) rotate(43.9708) scale(265.738)">
<stop offset="0.185425" stop-opacity="0"/>
<stop offset="1" stop-opacity="0.4"/>
</radialGradient>
<linearGradient id="paint8_linear_474_18305" x1="105.75" y1="51.75" x2="98.1636" y2="66.0024" gradientUnits="userSpaceOnUse">
<stop offset="0.370082" stop-color="#EC812A"/>
<stop offset="1" stop-color="#FBA84C" stop-opacity="0"/>
</linearGradient>
<linearGradient id="paint9_linear_474_18305" x1="47.25" y1="51.75" x2="46.1269" y2="63.1114" gradientUnits="userSpaceOnUse">
<stop stop-color="#C85F27"/>
<stop offset="1" stop-color="#C85F27" stop-opacity="0"/>
</linearGradient>
<radialGradient id="paint10_radial_474_18305" cx="0" cy="0" r="1" gradientUnits="userSpaceOnUse" gradientTransform="translate(90 45) rotate(146.31) scale(24.3375 24.3375)">
<stop offset="0.116396" stop-color="#EC812A"/>
<stop offset="1" stop-color="#FBA84C" stop-opacity="0"/>
</radialGradient>
<radialGradient id="paint11_radial_474_18305" cx="0" cy="0" r="1" gradientUnits="userSpaceOnUse" gradientTransform="translate(31.5 58.5) rotate(158.199) scale(24.2332)">
<stop stop-color="#CC7521"/>
<stop offset="1" stop-color="#E6872B" stop-opacity="0"/>
</radialGradient>
<linearGradient id="paint12_linear_474_18305" x1="33.75" y1="4.5" x2="51.4286" y2="97.7143" gradientUnits="userSpaceOnUse">
<stop stop-color="#735CFF"/>
<stop offset="1" stop-color="#CB1DCF"/>
</linearGradient>
<linearGradient id="paint13_linear_474_18305" x1="67.5" y1="27" x2="38.25" y2="38.25" gradientUnits="userSpaceOnUse">
<stop stop-color="#A82D9C"/>
<stop offset="1" stop-color="#BF33B1" stop-opacity="0"/>
</linearGradient>
<linearGradient id="paint14_linear_474_18305" x1="99" y1="11.25" x2="103.371" y2="108.514" gradientUnits="userSpaceOnUse">
<stop stop-color="#735CFF"/>
<stop offset="1" stop-color="#CF1DA1"/>
</linearGradient>
<linearGradient id="paint15_linear_474_18305" x1="132.75" y1="27" x2="105.75" y2="29.25" gradientUnits="userSpaceOnUse">
<stop stop-color="#DAF2FF"/>
<stop offset="1" stop-color="#BF33B1" stop-opacity="0"/>
</linearGradient>
<radialGradient id="paint16_radial_474_18305" cx="0" cy="0" r="1" gradientUnits="userSpaceOnUse" gradientTransform="translate(72 141.429) rotate(-90) scale(64.9286 129.857)">
<stop stop-color="#F70A8D"/>
<stop offset="1" stop-color="#643CC8"/>
</radialGradient>
<linearGradient id="paint17_linear_474_18305" x1="72" y1="76.5" x2="72" y2="83.25" gradientUnits="userSpaceOnUse">
<stop stop-color="#D5A8FE"/>
<stop offset="1" stop-color="white"/>
</linearGradient>
<clipPath id="clip0_474_18305">
<rect width="144" height="144" fill="white"/>
</clipPath>
</defs>
</svg>
