<svg width="24" height="24" viewBox="0 0 24 24" fill="none" xmlns="http://www.w3.org/2000/svg">
<path d="M12.5 17.75C12.5 18.7165 11.7165 19.5 10.75 19.5C9.7835 19.5 9 18.7165 9 17.75C9 16.7835 9.7835 16 10.75 16C11.7165 16 12.5 16.7835 12.5 17.75Z" fill="#AB9DD1"/>
<path d="M19.5 17.75C19.5 18.7165 18.7165 19.5 17.75 19.5C16.7835 19.5 16 18.7165 16 17.75C16 16.7835 16.7835 16 17.75 16C18.7165 16 19.5 16.7835 19.5 17.75Z" fill="#AB9DD1"/>
<path d="M19.5 10.75C19.5 11.7165 18.7165 12.5 17.75 12.5C16.7835 12.5 16 11.7165 16 10.75C16 9.7835 16.7835 9 17.75 9C18.7165 9 19.5 9.7835 19.5 10.75Z" fill="#AB9DD1"/>
</svg>
