<svg width="24" height="24" viewBox="0 0 24 24" fill="none" xmlns="http://www.w3.org/2000/svg">
<path fill-rule="evenodd" clip-rule="evenodd" d="M5.49279 8.18901C5.24203 6.46949 6.57524 4.92773 8.31296 4.92773H16.1318C17.8695 4.92773 19.2027 6.46949 18.9519 8.18901L17.4612 18.4112C17.257 19.8116 16.0562 20.85 14.641 20.85H9.8037C8.38855 20.85 7.18775 19.8116 6.98353 18.4112L5.49279 8.18901ZM8.31296 6.62773C7.61178 6.62773 7.07381 7.24985 7.175 7.94369L8.66574 18.1659C8.74814 18.731 9.23267 19.15 9.8037 19.15H14.641C15.212 19.15 15.6966 18.731 15.779 18.1659L17.2697 7.94369C17.3709 7.24984 16.8329 6.62773 16.1318 6.62773H8.31296Z" fill="#735CFF"/>
<path fill-rule="evenodd" clip-rule="evenodd" d="M9.59473 3.00039C9.59473 2.53095 9.97528 2.15039 10.4447 2.15039H14.0003C14.4697 2.15039 14.8503 2.53095 14.8503 3.00039C14.8503 3.46983 14.4697 3.85039 14.0003 3.85039H10.4447C9.97528 3.85039 9.59473 3.46983 9.59473 3.00039Z" fill="#735CFF"/>
<path fill-rule="evenodd" clip-rule="evenodd" d="M9.47097 10.5175C9.79901 10.4706 10.1029 10.6985 10.1498 11.0266L11.0387 17.2488C11.0855 17.5768 10.8576 17.8808 10.5296 17.9276C10.2015 17.9745 9.89761 17.7466 9.85074 17.4185L8.96185 11.1963C8.91499 10.8683 9.14293 10.5643 9.47097 10.5175Z" fill="#735CFF"/>
<path fill-rule="evenodd" clip-rule="evenodd" d="M13.9153 17.9276C13.5872 17.8808 13.3593 17.5768 13.4061 17.2488L14.295 11.0266C14.3419 10.6985 14.6458 10.4706 14.9739 10.5175C15.3019 10.5643 15.5298 10.8682 15.483 11.1963L14.5941 17.4185C14.5472 17.7465 14.2433 17.9745 13.9153 17.9276Z" fill="#735CFF"/>
<path fill-rule="evenodd" clip-rule="evenodd" d="M12.2226 17.9336C11.8912 17.9336 11.6226 17.665 11.6226 17.3336L11.6226 11.1114C11.6226 10.78 11.8912 10.5114 12.2226 10.5114C12.5539 10.5114 12.8226 10.78 12.8226 11.1114L12.8226 17.3336C12.8226 17.665 12.5539 17.9336 12.2226 17.9336Z" fill="#735CFF"/>
</svg>
