<svg width="24" height="25" viewBox="0 0 24 25" fill="none" xmlns="http://www.w3.org/2000/svg">
<path fill-rule="evenodd" clip-rule="evenodd" d="M5.49279 8.48198C5.24203 6.76246 6.57524 5.2207 8.31296 5.2207H16.1318C17.8695 5.2207 19.2027 6.76245 18.9519 8.48198L17.4612 18.7042C17.257 20.1045 16.0562 21.1429 14.641 21.1429H9.8037C8.38855 21.1429 7.18775 20.1045 6.98353 18.7042L5.49279 8.48198ZM8.31296 6.9207C7.61178 6.9207 7.07381 7.54281 7.175 8.23666L8.66574 18.4589C8.74814 19.0239 9.23267 19.4429 9.8037 19.4429H14.641C15.212 19.4429 15.6966 19.0239 15.779 18.4589L17.2697 8.23666C17.3709 7.54281 16.8329 6.9207 16.1318 6.9207H8.31296Z" fill="#5E4AD5"/>
<path fill-rule="evenodd" clip-rule="evenodd" d="M9.59473 3.29336C9.59473 2.82392 9.97528 2.44336 10.4447 2.44336H14.0003C14.4697 2.44336 14.8503 2.82392 14.8503 3.29336C14.8503 3.7628 14.4697 4.14336 14.0003 4.14336H10.4447C9.97528 4.14336 9.59473 3.7628 9.59473 3.29336Z" fill="#5E4AD5"/>
<path fill-rule="evenodd" clip-rule="evenodd" d="M9.47097 10.8104C9.79901 10.7636 10.1029 10.9915 10.1498 11.3196L11.0387 17.5418C11.0855 17.8698 10.8576 18.1737 10.5296 18.2206C10.2015 18.2675 9.89761 18.0395 9.85074 17.7115L8.96185 11.4893C8.91499 11.1612 9.14293 10.8573 9.47097 10.8104Z" fill="#5E4AD5"/>
<path fill-rule="evenodd" clip-rule="evenodd" d="M13.9153 18.2206C13.5872 18.1737 13.3593 17.8698 13.4061 17.5418L14.295 11.3196C14.3419 10.9915 14.6458 10.7636 14.9739 10.8104C15.3019 10.8573 15.5298 11.1612 15.483 11.4893L14.5941 17.7115C14.5472 18.0395 14.2433 18.2675 13.9153 18.2206Z" fill="#5E4AD5"/>
<path fill-rule="evenodd" clip-rule="evenodd" d="M12.2226 18.2266C11.8912 18.2266 11.6226 17.9579 11.6226 17.6266L11.6226 11.4043C11.6226 11.073 11.8912 10.8043 12.2226 10.8043C12.5539 10.8043 12.8226 11.073 12.8226 11.4043L12.8226 17.6266C12.8226 17.9579 12.5539 18.2266 12.2226 18.2266Z" fill="#5E4AD5"/>
</svg>
