<svg width="48" height="48" viewBox="0 0 48 48" fill="none" xmlns="http://www.w3.org/2000/svg">
<rect width="48" height="48" rx="24" fill="#F2F5FF"/>
<path d="M14.4243 15.22L11.3543 16.83C10.9943 17.02 10.9243 17.51 11.2243 17.8L13.8343 20.27L14.4243 15.22Z" fill="url(#paint0_radial_637_22384)"/>
<path d="M14.4243 15.22L11.3543 16.83C10.9943 17.02 10.9243 17.51 11.2243 17.8L13.8343 20.27L14.4243 15.22Z" fill="url(#paint1_radial_637_22384)"/>
<path d="M21.5343 36.5H19.8143L21.0143 30.5H19.5143L18.3143 36.5H16.5143C15.7843 36.5 15.1843 37.02 15.0443 37.71C15.0043 37.86 15.1343 38 15.2843 38H18.0043H19.5043H22.7543C22.9143 38 23.0343 37.86 23.0043 37.71C22.8643 37.02 22.2643 36.5 21.5343 36.5Z" fill="url(#paint2_linear_637_22384)"/>
<path d="M21.5343 36.5H19.8143L21.0143 30.5H19.5143L18.3143 36.5H16.5143C15.7843 36.5 15.1843 37.02 15.0443 37.71C15.0043 37.86 15.1343 38 15.2843 38H18.0043H19.5043H22.7543C22.9143 38 23.0343 37.86 23.0043 37.71C22.8643 37.02 22.2643 36.5 21.5343 36.5Z" fill="url(#paint3_linear_637_22384)"/>
<path d="M21.5343 36.5H19.8143L21.0143 30.5H19.5143L18.3143 36.5H16.5143C15.7843 36.5 15.1843 37.02 15.0443 37.71C15.0043 37.86 15.1343 38 15.2843 38H18.0043H19.5043H22.7543C22.9143 38 23.0343 37.86 23.0043 37.71C22.8643 37.02 22.2643 36.5 21.5343 36.5Z" fill="url(#paint4_radial_637_22384)"/>
<path d="M21.5343 36.5H19.8143L21.0143 30.5H19.5143L18.3143 36.5H16.5143C15.7843 36.5 15.1843 37.02 15.0443 37.71C15.0043 37.86 15.1343 38 15.2843 38H18.0043H19.5043H22.7543C22.9143 38 23.0343 37.86 23.0043 37.71C22.8643 37.02 22.2643 36.5 21.5343 36.5Z" fill="url(#paint5_linear_637_22384)"/>
<g filter="url(#filter0_f_637_22384)">
<path d="M15.8643 37.5781H20.5361" stroke="url(#paint6_linear_637_22384)" stroke-opacity="0.75" stroke-width="0.25"/>
</g>
<path d="M26.5943 36.5H24.8143L26.0143 30.5H24.5143L23.3143 36.5H21.5143C20.7843 36.5 20.1843 37.02 20.0443 37.71C20.0043 37.86 20.1343 38 20.2843 38H23.0043H24.5043H27.8143C27.9743 38 28.0943 37.86 28.0643 37.71C27.9243 37.02 27.3143 36.5 26.5943 36.5Z" fill="url(#paint7_linear_637_22384)"/>
<path d="M26.5943 36.5H24.8143L26.0143 30.5H24.5143L23.3143 36.5H21.5143C20.7843 36.5 20.1843 37.02 20.0443 37.71C20.0043 37.86 20.1343 38 20.2843 38H23.0043H24.5043H27.8143C27.9743 38 28.0943 37.86 28.0643 37.71C27.9243 37.02 27.3143 36.5 26.5943 36.5Z" fill="url(#paint8_linear_637_22384)"/>
<path d="M26.5943 36.5H24.8143L26.0143 30.5H24.5143L23.3143 36.5H21.5143C20.7843 36.5 20.1843 37.02 20.0443 37.71C20.0043 37.86 20.1343 38 20.2843 38H23.0043H24.5043H27.8143C27.9743 38 28.0943 37.86 28.0643 37.71C27.9243 37.02 27.3143 36.5 26.5943 36.5Z" fill="url(#paint9_linear_637_22384)"/>
<path d="M26.5943 36.5H24.8143L26.0143 30.5H24.5143L23.3143 36.5H21.5143C20.7843 36.5 20.1843 37.02 20.0443 37.71C20.0043 37.86 20.1343 38 20.2843 38H23.0043H24.5043H27.8143C27.9743 38 28.0943 37.86 28.0643 37.71C27.9243 37.02 27.3143 36.5 26.5943 36.5Z" fill="url(#paint10_radial_637_22384)"/>
<g filter="url(#filter1_f_637_22384)">
<path d="M20.708 37.5781H27.5674" stroke="url(#paint11_linear_637_22384)" stroke-opacity="0.75" stroke-width="0.25"/>
</g>
<path d="M25.3243 33L25.4643 27.77L36.8443 22.47C37.3243 22.25 37.8743 22.6 37.8743 23.12V32.27C37.8743 32.67 37.5543 32.99 37.1543 32.99H25.3243V33Z" fill="url(#paint12_linear_637_22384)"/>
<path d="M25.3243 33L25.4643 27.77L36.8443 22.47C37.3243 22.25 37.8743 22.6 37.8743 23.12V32.27C37.8743 32.67 37.5543 32.99 37.1543 32.99H25.3243V33Z" fill="url(#paint13_linear_637_22384)"/>
<path d="M25.3243 33L25.4643 27.77L36.8443 22.47C37.3243 22.25 37.8743 22.6 37.8743 23.12V32.27C37.8743 32.67 37.5543 32.99 37.1543 32.99H25.3243V33Z" fill="url(#paint14_linear_637_22384)"/>
<path d="M25.6043 14.22C25.4743 13.8 25.3043 13.4 25.0843 13.03H25.7043C26.9943 13.03 28.0343 11.99 28.0343 10.7C28.0343 10.32 27.7143 10 27.3343 10H19.9643C19.9343 10 19.9043 10 19.8743 10C16.6943 10 14.0943 12.48 13.8843 15.61L12.5943 26.79C12.2143 30.1 14.7943 33 18.1243 33H31.8743L25.6043 14.22Z" fill="url(#paint15_linear_637_22384)"/>
<path d="M25.6043 14.22C25.4743 13.8 25.3043 13.4 25.0843 13.03H25.7043C26.9943 13.03 28.0343 11.99 28.0343 10.7C28.0343 10.32 27.7143 10 27.3343 10H19.9643C19.9343 10 19.9043 10 19.8743 10C16.6943 10 14.0943 12.48 13.8843 15.61L12.5943 26.79C12.2143 30.1 14.7943 33 18.1243 33H31.8743L25.6043 14.22Z" fill="url(#paint16_linear_637_22384)"/>
<path d="M25.6043 14.22C25.4743 13.8 25.3043 13.4 25.0843 13.03H25.7043C26.9943 13.03 28.0343 11.99 28.0343 10.7C28.0343 10.32 27.7143 10 27.3343 10H19.9643C19.9343 10 19.9043 10 19.8743 10C16.6943 10 14.0943 12.48 13.8843 15.61L12.5943 26.79C12.2143 30.1 14.7943 33 18.1243 33H31.8743L25.6043 14.22Z" fill="url(#paint17_radial_637_22384)"/>
<path d="M25.6043 14.22C25.4743 13.8 25.3043 13.4 25.0843 13.03H25.7043C26.9943 13.03 28.0343 11.99 28.0343 10.7C28.0343 10.32 27.7143 10 27.3343 10H19.9643C19.9343 10 19.9043 10 19.8743 10C16.6943 10 14.0943 12.48 13.8843 15.61L12.5943 26.79C12.2143 30.1 14.7943 33 18.1243 33H31.8743L25.6043 14.22Z" fill="url(#paint18_linear_637_22384)"/>
<path d="M25.6043 14.22C25.4743 13.8 25.3043 13.4 25.0843 13.03H25.7043C26.9943 13.03 28.0343 11.99 28.0343 10.7C28.0343 10.32 27.7143 10 27.3343 10H19.9643C19.9343 10 19.9043 10 19.8743 10C16.6943 10 14.0943 12.48 13.8843 15.61L12.5943 26.79C12.2143 30.1 14.7943 33 18.1243 33H31.8743L25.6043 14.22Z" fill="url(#paint19_radial_637_22384)"/>
<path d="M21.2144 19V25.93C21.2144 29.84 24.3844 33 28.2844 33H31.8744L27.2044 19H21.2144Z" fill="url(#paint20_linear_637_22384)"/>
<path d="M18.0376 17.0234C18.3137 17.0234 18.5376 16.7996 18.5376 16.5234C18.5376 16.2473 18.3137 16.0234 18.0376 16.0234C17.7615 16.0234 17.5376 16.2473 17.5376 16.5234C17.5376 16.7996 17.7615 17.0234 18.0376 17.0234Z" fill="url(#paint21_radial_637_22384)"/>
<path d="M18.0376 17.0234C18.3137 17.0234 18.5376 16.7996 18.5376 16.5234C18.5376 16.2473 18.3137 16.0234 18.0376 16.0234C17.7615 16.0234 17.5376 16.2473 17.5376 16.5234C17.5376 16.7996 17.7615 17.0234 18.0376 17.0234Z" fill="url(#paint22_radial_637_22384)"/>
<path d="M18.0376 17.0234C18.3137 17.0234 18.5376 16.7996 18.5376 16.5234C18.5376 16.2473 18.3137 16.0234 18.0376 16.0234C17.7615 16.0234 17.5376 16.2473 17.5376 16.5234C17.5376 16.7996 17.7615 17.0234 18.0376 17.0234Z" fill="url(#paint23_linear_637_22384)"/>
<g filter="url(#filter2_f_637_22384)">
<path d="M22.5987 26.7671L20.9135 14.1875H24.4737L30.4423 30.8399C30.5697 31.1954 30.2722 31.5584 29.8987 31.5033L26.8246 31.0497C24.6186 30.7242 22.8947 28.9773 22.5987 26.7671Z" fill="url(#paint24_linear_637_22384)"/>
</g>
<g filter="url(#filter3_f_637_22384)">
<path d="M25.0674 12.4844C25.6383 12.5043 26.9969 12.4308 27.4271 11.1562" stroke="url(#paint25_linear_637_22384)" stroke-width="0.25"/>
</g>
<path fill-rule="evenodd" clip-rule="evenodd" d="M25.0843 13.03C25.3043 13.4 25.4743 13.8 25.6043 14.22L26.1396 15.8233L21.8604 13.0273H25.7041L25.7051 13.03C25.7048 13.03 25.7046 13.03 25.7043 13.03H25.0843Z" fill="url(#paint26_linear_637_22384)"/>
<g filter="url(#filter4_f_637_22384)">
<path d="M37.3643 23.0625V31.9688" stroke="url(#paint27_linear_637_22384)" stroke-width="0.4" stroke-linecap="round"/>
</g>
<defs>
<filter id="filter0_f_637_22384" x="15.6143" y="37.2031" width="5.17188" height="0.75" filterUnits="userSpaceOnUse" color-interpolation-filters="sRGB">
<feFlood flood-opacity="0" result="BackgroundImageFix"/>
<feBlend mode="normal" in="SourceGraphic" in2="BackgroundImageFix" result="shape"/>
<feGaussianBlur stdDeviation="0.125" result="effect1_foregroundBlur_637_22384"/>
</filter>
<filter id="filter1_f_637_22384" x="20.458" y="37.2031" width="7.35938" height="0.75" filterUnits="userSpaceOnUse" color-interpolation-filters="sRGB">
<feFlood flood-opacity="0" result="BackgroundImageFix"/>
<feBlend mode="normal" in="SourceGraphic" in2="BackgroundImageFix" result="shape"/>
<feGaussianBlur stdDeviation="0.125" result="effect1_foregroundBlur_637_22384"/>
</filter>
<filter id="filter2_f_637_22384" x="18.9135" y="12.1875" width="13.5588" height="21.3213" filterUnits="userSpaceOnUse" color-interpolation-filters="sRGB">
<feFlood flood-opacity="0" result="BackgroundImageFix"/>
<feBlend mode="normal" in="SourceGraphic" in2="BackgroundImageFix" result="shape"/>
<feGaussianBlur stdDeviation="1" result="effect1_foregroundBlur_637_22384"/>
</filter>
<filter id="filter3_f_637_22384" x="24.563" y="10.6163" width="3.48254" height="2.49548" filterUnits="userSpaceOnUse" color-interpolation-filters="sRGB">
<feFlood flood-opacity="0" result="BackgroundImageFix"/>
<feBlend mode="normal" in="SourceGraphic" in2="BackgroundImageFix" result="shape"/>
<feGaussianBlur stdDeviation="0.25" result="effect1_foregroundBlur_637_22384"/>
</filter>
<filter id="filter4_f_637_22384" x="36.7643" y="22.4625" width="1.1999" height="10.1062" filterUnits="userSpaceOnUse" color-interpolation-filters="sRGB">
<feFlood flood-opacity="0" result="BackgroundImageFix"/>
<feBlend mode="normal" in="SourceGraphic" in2="BackgroundImageFix" result="shape"/>
<feGaussianBlur stdDeviation="0.2" result="effect1_foregroundBlur_637_22384"/>
</filter>
<radialGradient id="paint0_radial_637_22384" cx="0" cy="0" r="1" gradientUnits="userSpaceOnUse" gradientTransform="translate(11.7236 17.4687) scale(7.25 4.46875)">
<stop stop-color="#EDB134"/>
<stop offset="1" stop-color="#BE8244"/>
</radialGradient>
<radialGradient id="paint1_radial_637_22384" cx="0" cy="0" r="1" gradientUnits="userSpaceOnUse" gradientTransform="translate(11.9736 17.4062) rotate(-11.9671) scale(2.93887 2.1161)">
<stop stop-color="#FFD150"/>
<stop offset="1" stop-color="#FFD150" stop-opacity="0"/>
</radialGradient>
<linearGradient id="paint2_linear_637_22384" x1="20.0639" y1="31.9522" x2="18.8597" y2="38.6581" gradientUnits="userSpaceOnUse">
<stop stop-color="#D69946"/>
<stop offset="1" stop-color="#E99D23"/>
</linearGradient>
<linearGradient id="paint3_linear_637_22384" x1="19.6299" y1="32.4687" x2="19.023" y2="35.8437" gradientUnits="userSpaceOnUse">
<stop stop-color="#B87E33"/>
<stop offset="1" stop-color="#B87E33" stop-opacity="0"/>
</linearGradient>
<radialGradient id="paint4_radial_637_22384" cx="0" cy="0" r="1" gradientUnits="userSpaceOnUse" gradientTransform="translate(20.8487 38) rotate(-180) scale(2.15625 2.54664)">
<stop stop-color="#C67500"/>
<stop offset="1" stop-color="#C67500" stop-opacity="0"/>
</radialGradient>
<linearGradient id="paint5_linear_637_22384" x1="19.023" y1="38.7188" x2="19.023" y2="37.1867" gradientUnits="userSpaceOnUse">
<stop stop-color="#F15CC7"/>
<stop offset="0.828473" stop-color="#F15CC7" stop-opacity="0"/>
</linearGradient>
<linearGradient id="paint6_linear_637_22384" x1="19.6455" y1="37.9375" x2="16.1924" y2="37.9375" gradientUnits="userSpaceOnUse">
<stop stop-color="#FDB65D"/>
<stop offset="1" stop-color="#FDB65D" stop-opacity="0"/>
</linearGradient>
<linearGradient id="paint7_linear_637_22384" x1="25.1017" y1="31.9522" x2="24.0667" y2="37.2371" gradientUnits="userSpaceOnUse">
<stop stop-color="#D69946"/>
<stop offset="1" stop-color="#E99D23"/>
</linearGradient>
<linearGradient id="paint8_linear_637_22384" x1="24.6645" y1="32.4687" x2="24.0618" y2="35.8453" gradientUnits="userSpaceOnUse">
<stop stop-color="#B87E33"/>
<stop offset="1" stop-color="#B87E33" stop-opacity="0"/>
</linearGradient>
<linearGradient id="paint9_linear_637_22384" x1="24.053" y1="38.7188" x2="24.053" y2="37.1867" gradientUnits="userSpaceOnUse">
<stop stop-color="#F15CC7"/>
<stop offset="0.828473" stop-color="#F15CC7" stop-opacity="0"/>
</linearGradient>
<radialGradient id="paint10_radial_637_22384" cx="0" cy="0" r="1" gradientUnits="userSpaceOnUse" gradientTransform="translate(28.0689 37.5312) rotate(-172.935) scale(2.03257 1.28495)">
<stop stop-color="#FFBD59"/>
<stop offset="1" stop-color="#FFBD59" stop-opacity="0"/>
</radialGradient>
<linearGradient id="paint11_linear_637_22384" x1="25.3302" y1="37.9375" x2="21.2933" y2="37.9375" gradientUnits="userSpaceOnUse">
<stop stop-color="#FDB65D"/>
<stop offset="1" stop-color="#FDB65D" stop-opacity="0"/>
</linearGradient>
<linearGradient id="paint12_linear_637_22384" x1="25.3243" y1="29.1368" x2="36.4737" y2="29.1368" gradientUnits="userSpaceOnUse">
<stop stop-color="#ED1C26"/>
<stop offset="1" stop-color="#EC098C"/>
</linearGradient>
<linearGradient id="paint13_linear_637_22384" x1="28.3155" y1="35.875" x2="28.3155" y2="31.5" gradientUnits="userSpaceOnUse">
<stop offset="0.271429" stop-color="#992E9B"/>
<stop offset="1" stop-color="#9F31A1" stop-opacity="0"/>
</linearGradient>
<linearGradient id="paint14_linear_637_22384" x1="24.7237" y1="20.9375" x2="27.7862" y2="27.7015" gradientUnits="userSpaceOnUse">
<stop stop-color="#992E9B"/>
<stop offset="1" stop-color="#9F31A1" stop-opacity="0"/>
</linearGradient>
<linearGradient id="paint15_linear_637_22384" x1="18.5083" y1="5.07154" x2="18.5083" y2="37.375" gradientUnits="userSpaceOnUse">
<stop stop-color="#ED1C26"/>
<stop offset="1" stop-color="#EC098C"/>
</linearGradient>
<linearGradient id="paint16_linear_637_22384" x1="17.1612" y1="34.1875" x2="17.1612" y2="25.75" gradientUnits="userSpaceOnUse">
<stop stop-color="#992E9B"/>
<stop offset="1" stop-color="#9F31A1" stop-opacity="0"/>
</linearGradient>
<radialGradient id="paint17_radial_637_22384" cx="0" cy="0" r="1" gradientUnits="userSpaceOnUse" gradientTransform="translate(25.3487 28.125) rotate(132.87) scale(4.60499 6.33279)">
<stop offset="0.525311" stop-color="#BA2159"/>
<stop offset="1" stop-color="#BA2159" stop-opacity="0"/>
</radialGradient>
<linearGradient id="paint18_linear_637_22384" x1="11.6612" y1="23.9375" x2="16.8487" y2="23.9375" gradientUnits="userSpaceOnUse">
<stop stop-color="#B2516B"/>
<stop offset="1" stop-color="#B2516B" stop-opacity="0"/>
</linearGradient>
<radialGradient id="paint19_radial_637_22384" cx="0" cy="0" r="1" gradientUnits="userSpaceOnUse" gradientTransform="translate(31.8743 33) rotate(-124.025) scale(27.4117 18.7644)">
<stop offset="0.903999" stop-color="#B2516B" stop-opacity="0"/>
<stop offset="1" stop-color="#B2516B"/>
</radialGradient>
<linearGradient id="paint20_linear_637_22384" x1="26.5444" y1="30.125" x2="22.4197" y2="18.2849" gradientUnits="userSpaceOnUse">
<stop stop-color="#EC098C"/>
<stop offset="1" stop-color="#ED1746"/>
</linearGradient>
<radialGradient id="paint21_radial_637_22384" cx="0" cy="0" r="1" gradientUnits="userSpaceOnUse" gradientTransform="translate(18.186 16.3625) rotate(125.838) scale(0.693863 0.618606)">
<stop offset="0.00558659" stop-color="#433437"/>
<stop offset="1" stop-color="#3B2838"/>
</radialGradient>
<radialGradient id="paint22_radial_637_22384" cx="0" cy="0" r="1" gradientUnits="userSpaceOnUse" gradientTransform="translate(18.2245 16.3984) rotate(137.643) scale(0.35946 0.316237)">
<stop stop-color="#5C5051"/>
<stop offset="1" stop-color="#5C5051" stop-opacity="0"/>
</radialGradient>
<linearGradient id="paint23_linear_637_22384" x1="17.9393" y1="16.1307" x2="17.5956" y2="15.912" gradientUnits="userSpaceOnUse">
<stop stop-color="#5C5051" stop-opacity="0"/>
<stop offset="1" stop-color="#5C5051"/>
</linearGradient>
<linearGradient id="paint24_linear_637_22384" x1="27.7237" y1="28.875" x2="23.8803" y2="10.5629" gradientUnits="userSpaceOnUse">
<stop stop-color="#FF589B"/>
<stop offset="1" stop-color="#FF589B" stop-opacity="0"/>
</linearGradient>
<linearGradient id="paint25_linear_637_22384" x1="27.4271" y1="11.7935" x2="25.3954" y2="13.3867" gradientUnits="userSpaceOnUse">
<stop stop-color="#FFB3D1"/>
<stop offset="1" stop-color="#FFB3D1" stop-opacity="0"/>
</linearGradient>
<linearGradient id="paint26_linear_637_22384" x1="25.2549" y1="13.0273" x2="24.583" y2="14.1719" gradientUnits="userSpaceOnUse">
<stop stop-color="#A92E39"/>
<stop offset="1" stop-color="#A92E39" stop-opacity="0"/>
</linearGradient>
<linearGradient id="paint27_linear_637_22384" x1="37.8643" y1="23.0625" x2="37.8643" y2="31.9688" gradientUnits="userSpaceOnUse">
<stop stop-color="#FF5CAB"/>
<stop offset="1" stop-color="#FF5CAB" stop-opacity="0"/>
</linearGradient>
</defs>
</svg>
