<svg width="48" height="48" viewBox="0 0 48 48" fill="none" xmlns="http://www.w3.org/2000/svg">
<rect width="48" height="48" rx="24" fill="#F2F5FF"/>
<g filter="url(#filter0_i_637_22362)">
<path d="M37.9784 25.9606C36.806 23.9158 35.5727 21.8855 34.459 19.8145C34.1585 19.2556 34.0072 18.6296 34.0049 17.995L33.9784 10.6706C34.0084 10.0806 33.2884 9.77056 32.8884 10.2006L25.8184 15.6006C25.5484 15.8106 25.2084 15.9206 24.8684 15.9206H23.1184C22.7784 15.9206 22.4384 15.8106 22.1684 15.6006L15.0984 10.2006C14.6984 9.77056 13.9784 10.0806 14.0084 10.6706L13.9817 18.1638C13.9795 18.78 13.8375 19.3887 13.5501 19.9336C12.4705 21.9801 11.2371 23.956 10.0884 25.9606C9.83836 26.3906 10.1484 26.9206 10.6484 26.9206C11.0884 26.9206 11.3984 27.3506 11.2584 27.7706L10.8184 29.0706C10.6784 29.4806 10.9884 29.9106 11.4184 29.9206H11.6484C12.0884 29.9206 12.3884 30.3506 12.2484 30.7706L11.8484 31.9806C11.6984 32.4206 12.0584 32.8706 12.5284 32.8206L20.5984 31.9306H27.4484L35.5184 32.8206C35.9884 32.8706 36.3484 32.4206 36.1984 31.9806L35.7984 30.7706C35.6584 30.3606 35.9684 29.9306 36.3984 29.9206H36.6284C37.0684 29.9206 37.3684 29.4906 37.2284 29.0706L36.8084 27.8306C36.6684 27.4106 36.9484 26.9206 37.3884 26.9306C37.9084 26.9306 38.2284 26.3906 37.9784 25.9606Z" fill="url(#paint0_radial_637_22362)"/>
<path d="M37.9784 25.9606C36.806 23.9158 35.5727 21.8855 34.459 19.8145C34.1585 19.2556 34.0072 18.6296 34.0049 17.995L33.9784 10.6706C34.0084 10.0806 33.2884 9.77056 32.8884 10.2006L25.8184 15.6006C25.5484 15.8106 25.2084 15.9206 24.8684 15.9206H23.1184C22.7784 15.9206 22.4384 15.8106 22.1684 15.6006L15.0984 10.2006C14.6984 9.77056 13.9784 10.0806 14.0084 10.6706L13.9817 18.1638C13.9795 18.78 13.8375 19.3887 13.5501 19.9336C12.4705 21.9801 11.2371 23.956 10.0884 25.9606C9.83836 26.3906 10.1484 26.9206 10.6484 26.9206C11.0884 26.9206 11.3984 27.3506 11.2584 27.7706L10.8184 29.0706C10.6784 29.4806 10.9884 29.9106 11.4184 29.9206H11.6484C12.0884 29.9206 12.3884 30.3506 12.2484 30.7706L11.8484 31.9806C11.6984 32.4206 12.0584 32.8706 12.5284 32.8206L20.5984 31.9306H27.4484L35.5184 32.8206C35.9884 32.8706 36.3484 32.4206 36.1984 31.9806L35.7984 30.7706C35.6584 30.3606 35.9684 29.9306 36.3984 29.9206H36.6284C37.0684 29.9206 37.3684 29.4906 37.2284 29.0706L36.8084 27.8306C36.6684 27.4106 36.9484 26.9206 37.3884 26.9306C37.9084 26.9306 38.2284 26.3906 37.9784 25.9606Z" fill="url(#paint1_radial_637_22362)"/>
<path d="M37.9784 25.9606C36.806 23.9158 35.5727 21.8855 34.459 19.8145C34.1585 19.2556 34.0072 18.6296 34.0049 17.995L33.9784 10.6706C34.0084 10.0806 33.2884 9.77056 32.8884 10.2006L25.8184 15.6006C25.5484 15.8106 25.2084 15.9206 24.8684 15.9206H23.1184C22.7784 15.9206 22.4384 15.8106 22.1684 15.6006L15.0984 10.2006C14.6984 9.77056 13.9784 10.0806 14.0084 10.6706L13.9817 18.1638C13.9795 18.78 13.8375 19.3887 13.5501 19.9336C12.4705 21.9801 11.2371 23.956 10.0884 25.9606C9.83836 26.3906 10.1484 26.9206 10.6484 26.9206C11.0884 26.9206 11.3984 27.3506 11.2584 27.7706L10.8184 29.0706C10.6784 29.4806 10.9884 29.9106 11.4184 29.9206H11.6484C12.0884 29.9206 12.3884 30.3506 12.2484 30.7706L11.8484 31.9806C11.6984 32.4206 12.0584 32.8706 12.5284 32.8206L20.5984 31.9306H27.4484L35.5184 32.8206C35.9884 32.8706 36.3484 32.4206 36.1984 31.9806L35.7984 30.7706C35.6584 30.3606 35.9684 29.9306 36.3984 29.9206H36.6284C37.0684 29.9206 37.3684 29.4906 37.2284 29.0706L36.8084 27.8306C36.6684 27.4106 36.9484 26.9206 37.3884 26.9306C37.9084 26.9306 38.2284 26.3906 37.9784 25.9606Z" fill="url(#paint2_linear_637_22362)"/>
<path d="M37.9784 25.9606C36.806 23.9158 35.5727 21.8855 34.459 19.8145C34.1585 19.2556 34.0072 18.6296 34.0049 17.995L33.9784 10.6706C34.0084 10.0806 33.2884 9.77056 32.8884 10.2006L25.8184 15.6006C25.5484 15.8106 25.2084 15.9206 24.8684 15.9206H23.1184C22.7784 15.9206 22.4384 15.8106 22.1684 15.6006L15.0984 10.2006C14.6984 9.77056 13.9784 10.0806 14.0084 10.6706L13.9817 18.1638C13.9795 18.78 13.8375 19.3887 13.5501 19.9336C12.4705 21.9801 11.2371 23.956 10.0884 25.9606C9.83836 26.3906 10.1484 26.9206 10.6484 26.9206C11.0884 26.9206 11.3984 27.3506 11.2584 27.7706L10.8184 29.0706C10.6784 29.4806 10.9884 29.9106 11.4184 29.9206H11.6484C12.0884 29.9206 12.3884 30.3506 12.2484 30.7706L11.8484 31.9806C11.6984 32.4206 12.0584 32.8706 12.5284 32.8206L20.5984 31.9306H27.4484L35.5184 32.8206C35.9884 32.8706 36.3484 32.4206 36.1984 31.9806L35.7984 30.7706C35.6584 30.3606 35.9684 29.9306 36.3984 29.9206H36.6284C37.0684 29.9206 37.3684 29.4906 37.2284 29.0706L36.8084 27.8306C36.6684 27.4106 36.9484 26.9206 37.3884 26.9306C37.9084 26.9306 38.2284 26.3906 37.9784 25.9606Z" fill="url(#paint3_linear_637_22362)"/>
</g>
<path fill-rule="evenodd" clip-rule="evenodd" d="M10.8718 28.9125L15.0781 25.7875L10.6877 26.9218C11.1066 26.9465 11.3941 27.3633 11.2583 27.7706L10.8718 28.9125Z" fill="url(#paint4_radial_637_22362)"/>
<path d="M37.1792 28.9125L30.125 24.5219L37.3633 26.9218C36.9444 26.9465 36.6914 27.3929 36.7927 27.7706L37.1792 28.9125Z" fill="url(#paint5_radial_637_22362)" fill-opacity="0.5"/>
<g filter="url(#filter1_f_637_22362)">
<path d="M27.4297 16.6472L32.5587 18.8043C32.9664 18.9757 33.3057 19.2774 33.5237 19.6623L37.1875 26.1312H10.8125L14.4037 19.6898C14.6277 19.2881 14.9833 18.9758 15.4106 18.8056L20.9216 16.611C21.5102 16.3766 22.1379 16.2562 22.7715 16.2562H25.4914C26.1571 16.2562 26.8161 16.3892 27.4297 16.6472Z" fill="url(#paint6_linear_637_22362)"/>
</g>
<path d="M15.5683 18.1705C15.2883 18.2705 14.9883 18.0605 14.9983 17.7705L15.0083 12.8905C14.9883 12.5205 15.4483 12.3205 15.6983 12.6005L19.9783 15.8705C20.2483 16.0805 20.1783 16.5005 19.8683 16.6105L15.5683 18.1705Z" fill="#D3D3D3"/>
<path d="M15.5683 18.1705C15.2883 18.2705 14.9883 18.0605 14.9983 17.7705L15.0083 12.8905C14.9883 12.5205 15.4483 12.3205 15.6983 12.6005L19.9783 15.8705C20.2483 16.0805 20.1783 16.5005 19.8683 16.6105L15.5683 18.1705Z" fill="url(#paint7_linear_637_22362)"/>
<path d="M15.5683 18.1705C15.2883 18.2705 14.9883 18.0605 14.9983 17.7705L15.0083 12.8905C14.9883 12.5205 15.4483 12.3205 15.6983 12.6005L19.9783 15.8705C20.2483 16.0805 20.1783 16.5005 19.8683 16.6105L15.5683 18.1705Z" fill="url(#paint8_linear_637_22362)"/>
<path d="M15.5683 18.1705C15.2883 18.2705 14.9883 18.0605 14.9983 17.7705L15.0083 12.8905C14.9883 12.5205 15.4483 12.3205 15.6983 12.6005L19.9783 15.8705C20.2483 16.0805 20.1783 16.5005 19.8683 16.6105L15.5683 18.1705Z" fill="url(#paint9_radial_637_22362)"/>
<path d="M32.4383 18.1706C32.7183 18.2706 33.0083 18.0606 33.0083 17.7706L32.9883 12.9006C33.0083 12.5306 32.5483 12.3306 32.2983 12.6006L28.0183 15.8706C27.7483 16.0806 27.8183 16.5006 28.1283 16.6106L32.4383 18.1706Z" fill="#D3D3D3"/>
<path d="M32.4383 18.1706C32.7183 18.2706 33.0083 18.0606 33.0083 17.7706L32.9883 12.9006C33.0083 12.5306 32.5483 12.3306 32.2983 12.6006L28.0183 15.8706C27.7483 16.0806 27.8183 16.5006 28.1283 16.6106L32.4383 18.1706Z" fill="url(#paint10_linear_637_22362)"/>
<path d="M32.4383 18.1706C32.7183 18.2706 33.0083 18.0606 33.0083 17.7706L32.9883 12.9006C33.0083 12.5306 32.5483 12.3306 32.2983 12.6006L28.0183 15.8706C27.7483 16.0806 27.8183 16.5006 28.1283 16.6106L32.4383 18.1706Z" fill="url(#paint11_linear_637_22362)"/>
<path d="M32.4383 18.1706C32.7183 18.2706 33.0083 18.0606 33.0083 17.7706L32.9883 12.9006C33.0083 12.5306 32.5483 12.3306 32.2983 12.6006L28.0183 15.8706C27.7483 16.0806 27.8183 16.5006 28.1283 16.6106L32.4383 18.1706Z" fill="url(#paint12_radial_637_22362)"/>
<path d="M22.0984 37.9206H25.9884C27.1384 37.9206 28.1584 37.2006 28.5484 36.1206L29.2284 32.9406C29.3284 32.4806 29.7584 32.1806 30.2184 32.2306C31.7384 32.4206 34.6016 32.7093 35.4766 32.8187C36.461 32.889 36.2184 31.9606 36.2184 31.9606L35.8684 30.9106C35.8184 30.7606 35.6885 29.9415 36.6485 29.9515C37.6719 29.9622 37.1719 28.9085 37.1719 28.9085L32.4384 26.9106C32.4384 26.9106 29.8584 25.6506 28.5884 26.9306L25.6684 29.8706C25.6084 29.9406 25.5284 29.9906 25.4484 30.0406C25.0099 30.2797 24.5316 30.3997 24.0434 30.4105C23.5551 30.3997 23.0769 30.2797 22.6384 30.0406C22.5584 29.9906 22.4784 29.9406 22.4184 29.8706L19.4984 26.9306C18.2284 25.6506 15.6484 26.9106 15.6484 26.9106L10.875 28.9085C10.875 28.9085 10.3575 29.9402 11.4375 29.9202C12.3975 29.9102 12.2532 30.7546 12.2032 30.9046L11.8399 31.9827C11.8399 31.9827 11.5689 32.8876 12.5547 32.8187C13.2578 32.7367 16.3484 32.4206 17.8684 32.2306C18.3284 32.1806 18.7584 32.4806 18.8584 32.9406L19.5384 36.1206C19.9284 37.2006 20.9484 37.9206 22.0984 37.9206Z" fill="url(#paint13_linear_637_22362)"/>
<path d="M22.0984 37.9206H25.9884C27.1384 37.9206 28.1584 37.2006 28.5484 36.1206L29.2284 32.9406C29.3284 32.4806 29.7584 32.1806 30.2184 32.2306C31.7384 32.4206 34.6016 32.7093 35.4766 32.8187C36.461 32.889 36.2184 31.9606 36.2184 31.9606L35.8684 30.9106C35.8184 30.7606 35.6885 29.9415 36.6485 29.9515C37.6719 29.9622 37.1719 28.9085 37.1719 28.9085L32.4384 26.9106C32.4384 26.9106 29.8584 25.6506 28.5884 26.9306L25.6684 29.8706C25.6084 29.9406 25.5284 29.9906 25.4484 30.0406C25.0099 30.2797 24.5316 30.3997 24.0434 30.4105C23.5551 30.3997 23.0769 30.2797 22.6384 30.0406C22.5584 29.9906 22.4784 29.9406 22.4184 29.8706L19.4984 26.9306C18.2284 25.6506 15.6484 26.9106 15.6484 26.9106L10.875 28.9085C10.875 28.9085 10.3575 29.9402 11.4375 29.9202C12.3975 29.9102 12.2532 30.7546 12.2032 30.9046L11.8399 31.9827C11.8399 31.9827 11.5689 32.8876 12.5547 32.8187C13.2578 32.7367 16.3484 32.4206 17.8684 32.2306C18.3284 32.1806 18.7584 32.4806 18.8584 32.9406L19.5384 36.1206C19.9284 37.2006 20.9484 37.9206 22.0984 37.9206Z" fill="url(#paint14_radial_637_22362)"/>
<path d="M22.0984 37.9206H25.9884C27.1384 37.9206 28.1584 37.2006 28.5484 36.1206L29.2284 32.9406C29.3284 32.4806 29.7584 32.1806 30.2184 32.2306C31.7384 32.4206 34.6016 32.7093 35.4766 32.8187C36.461 32.889 36.2184 31.9606 36.2184 31.9606L35.8684 30.9106C35.8184 30.7606 35.6885 29.9415 36.6485 29.9515C37.6719 29.9622 37.1719 28.9085 37.1719 28.9085L32.4384 26.9106C32.4384 26.9106 29.8584 25.6506 28.5884 26.9306L25.6684 29.8706C25.6084 29.9406 25.5284 29.9906 25.4484 30.0406C25.0099 30.2797 24.5316 30.3997 24.0434 30.4105C23.5551 30.3997 23.0769 30.2797 22.6384 30.0406C22.5584 29.9906 22.4784 29.9406 22.4184 29.8706L19.4984 26.9306C18.2284 25.6506 15.6484 26.9106 15.6484 26.9106L10.875 28.9085C10.875 28.9085 10.3575 29.9402 11.4375 29.9202C12.3975 29.9102 12.2532 30.7546 12.2032 30.9046L11.8399 31.9827C11.8399 31.9827 11.5689 32.8876 12.5547 32.8187C13.2578 32.7367 16.3484 32.4206 17.8684 32.2306C18.3284 32.1806 18.7584 32.4806 18.8584 32.9406L19.5384 36.1206C19.9284 37.2006 20.9484 37.9206 22.0984 37.9206Z" fill="url(#paint15_radial_637_22362)"/>
<path d="M22.0984 37.9206H25.9884C27.1384 37.9206 28.1584 37.2006 28.5484 36.1206L29.2284 32.9406C29.3284 32.4806 29.7584 32.1806 30.2184 32.2306C31.7384 32.4206 34.6016 32.7093 35.4766 32.8187C36.461 32.889 36.2184 31.9606 36.2184 31.9606L35.8684 30.9106C35.8184 30.7606 35.6885 29.9415 36.6485 29.9515C37.6719 29.9622 37.1719 28.9085 37.1719 28.9085L32.4384 26.9106C32.4384 26.9106 29.8584 25.6506 28.5884 26.9306L25.6684 29.8706C25.6084 29.9406 25.5284 29.9906 25.4484 30.0406C25.0099 30.2797 24.5316 30.3997 24.0434 30.4105C23.5551 30.3997 23.0769 30.2797 22.6384 30.0406C22.5584 29.9906 22.4784 29.9406 22.4184 29.8706L19.4984 26.9306C18.2284 25.6506 15.6484 26.9106 15.6484 26.9106L10.875 28.9085C10.875 28.9085 10.3575 29.9402 11.4375 29.9202C12.3975 29.9102 12.2532 30.7546 12.2032 30.9046L11.8399 31.9827C11.8399 31.9827 11.5689 32.8876 12.5547 32.8187C13.2578 32.7367 16.3484 32.4206 17.8684 32.2306C18.3284 32.1806 18.7584 32.4806 18.8584 32.9406L19.5384 36.1206C19.9284 37.2006 20.9484 37.9206 22.0984 37.9206Z" fill="url(#paint16_linear_637_22362)"/>
<path d="M22.0984 37.9206H25.9884C27.1384 37.9206 28.1584 37.2006 28.5484 36.1206L29.2284 32.9406C29.3284 32.4806 29.7584 32.1806 30.2184 32.2306C31.7384 32.4206 34.6016 32.7093 35.4766 32.8187C36.461 32.889 36.2184 31.9606 36.2184 31.9606L35.8684 30.9106C35.8184 30.7606 35.6885 29.9415 36.6485 29.9515C37.6719 29.9622 37.1719 28.9085 37.1719 28.9085L32.4384 26.9106C32.4384 26.9106 29.8584 25.6506 28.5884 26.9306L25.6684 29.8706C25.6084 29.9406 25.5284 29.9906 25.4484 30.0406C25.0099 30.2797 24.5316 30.3997 24.0434 30.4105C23.5551 30.3997 23.0769 30.2797 22.6384 30.0406C22.5584 29.9906 22.4784 29.9406 22.4184 29.8706L19.4984 26.9306C18.2284 25.6506 15.6484 26.9106 15.6484 26.9106L10.875 28.9085C10.875 28.9085 10.3575 29.9402 11.4375 29.9202C12.3975 29.9102 12.2532 30.7546 12.2032 30.9046L11.8399 31.9827C11.8399 31.9827 11.5689 32.8876 12.5547 32.8187C13.2578 32.7367 16.3484 32.4206 17.8684 32.2306C18.3284 32.1806 18.7584 32.4806 18.8584 32.9406L19.5384 36.1206C19.9284 37.2006 20.9484 37.9206 22.0984 37.9206Z" fill="url(#paint17_radial_637_22362)"/>
<path d="M22.0984 37.9206H25.9884C27.1384 37.9206 28.1584 37.2006 28.5484 36.1206L29.2284 32.9406C29.3284 32.4806 29.7584 32.1806 30.2184 32.2306C31.7384 32.4206 34.6016 32.7093 35.4766 32.8187C36.461 32.889 36.2184 31.9606 36.2184 31.9606L35.8684 30.9106C35.8184 30.7606 35.6885 29.9415 36.6485 29.9515C37.6719 29.9622 37.1719 28.9085 37.1719 28.9085L32.4384 26.9106C32.4384 26.9106 29.8584 25.6506 28.5884 26.9306L25.6684 29.8706C25.6084 29.9406 25.5284 29.9906 25.4484 30.0406C25.0099 30.2797 24.5316 30.3997 24.0434 30.4105C23.5551 30.3997 23.0769 30.2797 22.6384 30.0406C22.5584 29.9906 22.4784 29.9406 22.4184 29.8706L19.4984 26.9306C18.2284 25.6506 15.6484 26.9106 15.6484 26.9106L10.875 28.9085C10.875 28.9085 10.3575 29.9402 11.4375 29.9202C12.3975 29.9102 12.2532 30.7546 12.2032 30.9046L11.8399 31.9827C11.8399 31.9827 11.5689 32.8876 12.5547 32.8187C13.2578 32.7367 16.3484 32.4206 17.8684 32.2306C18.3284 32.1806 18.7584 32.4806 18.8584 32.9406L19.5384 36.1206C19.9284 37.2006 20.9484 37.9206 22.0984 37.9206Z" fill="url(#paint18_linear_637_22362)"/>
<path d="M11.8152 32.1053L15.5938 28.7719L11.225 29.9086C11.2878 29.9176 11.3584 29.9218 11.4375 29.9203C12.3975 29.9103 12.2531 30.7547 12.2031 30.9047L11.8399 31.9828C11.8399 31.9828 11.8253 32.0314 11.8152 32.1053Z" fill="url(#paint19_radial_637_22362)" fill-opacity="0.75"/>
<path d="M36.2497 32.1053L31.7188 27.3656L36.918 29.9242C36.8551 29.9332 36.7198 29.9452 36.6406 29.9437C35.6806 29.9337 35.8118 30.7547 35.8618 30.9047L36.2251 31.9828C36.2251 31.9828 36.2396 32.0314 36.2497 32.1053Z" fill="url(#paint20_radial_637_22362)" fill-opacity="0.75"/>
<path d="M19.6203 36.3225L22.2812 23.8812L11.8479 32.435C11.9102 32.6254 12.0915 32.8006 12.5483 32.8006C13.1883 32.8006 16.3483 32.4206 17.8683 32.2306C18.3283 32.1806 18.7583 32.4806 18.8583 32.9406L19.5383 36.1206C19.5631 36.1894 19.5905 36.2567 19.6203 36.3225Z" fill="url(#paint21_radial_637_22362)"/>
<path d="M19.6203 36.3225L22.2812 23.8812L11.8479 32.435C11.9102 32.6254 12.0915 32.8006 12.5483 32.8006C13.1883 32.8006 16.3483 32.4206 17.8683 32.2306C18.3283 32.1806 18.7583 32.4806 18.8583 32.9406L19.5383 36.1206C19.5631 36.1894 19.5905 36.2567 19.6203 36.3225Z" fill="url(#paint22_radial_637_22362)"/>
<path d="M28.4645 36.3225L25.8037 23.8812L36.1992 32.4554C36.137 32.6458 35.9123 32.8651 35.4805 32.8148C34.7422 32.7289 31.7366 32.4206 30.2166 32.2306C29.7566 32.1806 29.3266 32.4806 29.2266 32.9406L28.5466 36.1206C28.5217 36.1894 28.4943 36.2567 28.4645 36.3225Z" fill="url(#paint23_radial_637_22362)"/>
<path d="M28.4645 36.3225L25.8037 23.8812L36.1992 32.4554C36.137 32.6458 35.9123 32.8651 35.4805 32.8148C34.7422 32.7289 31.7366 32.4206 30.2166 32.2306C29.7566 32.1806 29.3266 32.4806 29.2266 32.9406L28.5466 36.1206C28.5217 36.1894 28.4943 36.2567 28.4645 36.3225Z" fill="url(#paint24_radial_637_22362)"/>
<path d="M24.0253 32.8206C24.0253 34.2706 22.8553 35.4406 21.4053 35.4406" stroke="url(#paint25_radial_637_22362)" stroke-linecap="round"/>
<path d="M24.0253 32.8206C24.0253 34.2706 22.8553 35.4406 21.4053 35.4406" stroke="url(#paint26_radial_637_22362)" stroke-linecap="round"/>
<path d="M24.0253 32.8206C24.0253 34.2706 22.8553 35.4406 21.4053 35.4406" stroke="url(#paint27_linear_637_22362)" stroke-linecap="round"/>
<path d="M24.0483 32.8206C24.0483 34.2706 25.2183 35.4406 26.6683 35.4406" stroke="url(#paint28_radial_637_22362)" stroke-linecap="round"/>
<path d="M24.0483 32.8206C24.0483 34.2706 25.2183 35.4406 26.6683 35.4406" stroke="url(#paint29_radial_637_22362)" stroke-linecap="round"/>
<g filter="url(#filter2_f_637_22362)">
<rect x="19.0581" y="22.2875" width="1.40638" height="2.86155" rx="0.703189" fill="#6B676E"/>
</g>
<g filter="url(#filter3_f_637_22362)">
<rect x="27.1123" y="22.2875" width="1.40638" height="2.86155" rx="0.703189" fill="#6B676E"/>
</g>
<rect x="19.3237" y="21.9906" width="1.47656" height="3.00435" rx="0.738281" fill="url(#paint30_linear_637_22362)"/>
<rect x="19.3237" y="21.9906" width="1.47656" height="3.00435" rx="0.738281" fill="url(#paint31_linear_637_22362)"/>
<rect x="27.2964" y="21.9906" width="1.47656" height="3.00435" rx="0.738281" fill="url(#paint32_linear_637_22362)"/>
<rect x="27.2964" y="21.9906" width="1.47656" height="3.00435" rx="0.738281" fill="url(#paint33_linear_637_22362)"/>
<path d="M25.3252 28.1625H22.6293C21.8519 28.1625 21.2739 28.8986 21.6101 29.5996C22.0146 30.443 22.5265 31.0551 23.0102 31.4953C23.5935 32.0259 24.4851 31.9759 25.047 31.4226C25.5812 30.8965 26.0022 30.3253 26.3436 29.6758C26.7208 28.9579 26.1361 28.1625 25.3252 28.1625Z" fill="url(#paint34_linear_637_22362)"/>
<path d="M25.3252 28.1625H22.6293C21.8519 28.1625 21.2739 28.8986 21.6101 29.5996C22.0146 30.443 22.5265 31.0551 23.0102 31.4953C23.5935 32.0259 24.4851 31.9759 25.047 31.4226C25.5812 30.8965 26.0022 30.3253 26.3436 29.6758C26.7208 28.9579 26.1361 28.1625 25.3252 28.1625Z" fill="url(#paint35_radial_637_22362)"/>
<path d="M25.3252 28.1625H22.6293C21.8519 28.1625 21.2739 28.8986 21.6101 29.5996C22.0146 30.443 22.5265 31.0551 23.0102 31.4953C23.5935 32.0259 24.4851 31.9759 25.047 31.4226C25.5812 30.8965 26.0022 30.3253 26.3436 29.6758C26.7208 28.9579 26.1361 28.1625 25.3252 28.1625Z" fill="url(#paint36_linear_637_22362)"/>
<path d="M25.3252 28.1625H22.6293C21.8519 28.1625 21.2739 28.8986 21.6101 29.5996C22.0146 30.443 22.5265 31.0551 23.0102 31.4953C23.5935 32.0259 24.4851 31.9759 25.047 31.4226C25.5812 30.8965 26.0022 30.3253 26.3436 29.6758C26.7208 28.9579 26.1361 28.1625 25.3252 28.1625Z" fill="url(#paint37_linear_637_22362)"/>
<g filter="url(#filter4_f_637_22362)">
<path d="M15.0938 11.3812L21.4062 16.2562" stroke="#CCC9CC" stroke-width="0.5" stroke-linecap="round"/>
</g>
<g filter="url(#filter5_f_637_22362)">
<path d="M33.0625 11.5375V18.35" stroke="#CCC9CC" stroke-width="0.5" stroke-linecap="round"/>
</g>
<g filter="url(#filter6_f_637_22362)">
<path d="M29.625 18.225L34.625 31.8812L35.5312 29.225H36.8125L35.9375 26.6L37.25 25.975L33.375 19.725L29.625 18.225Z" fill="url(#paint38_linear_637_22362)" fill-opacity="0.5"/>
</g>
<g filter="url(#filter7_f_637_22362)">
<circle cx="20.2816" cy="22.6273" r="0.269531" fill="#635859"/>
</g>
<g filter="url(#filter8_f_637_22362)">
<circle cx="28.3042" cy="22.6273" r="0.269531" fill="#635859"/>
</g>
<g filter="url(#filter9_f_637_22362)">
<ellipse cx="25.4814" cy="29.3186" rx="0.502099" ry="0.613549" transform="rotate(30.3699 25.4814 29.3186)" fill="#6A6566"/>
</g>
<defs>
<filter id="filter0_i_637_22362" x="10" y="9.75" width="28.5649" height="23.0743" filterUnits="userSpaceOnUse" color-interpolation-filters="sRGB">
<feFlood flood-opacity="0" result="BackgroundImageFix"/>
<feBlend mode="normal" in="SourceGraphic" in2="BackgroundImageFix" result="shape"/>
<feColorMatrix in="SourceAlpha" type="matrix" values="0 0 0 0 0 0 0 0 0 0 0 0 0 0 0 0 0 0 127 0" result="hardAlpha"/>
<feOffset dx="0.5" dy="-0.25"/>
<feGaussianBlur stdDeviation="0.375"/>
<feComposite in2="hardAlpha" operator="arithmetic" k2="-1" k3="1"/>
<feColorMatrix type="matrix" values="0 0 0 0 0.4625 0 0 0 0 0.458646 0 0 0 0 0.458646 0 0 0 1 0"/>
<feBlend mode="normal" in2="shape" result="effect1_innerShadow_637_22362"/>
</filter>
<filter id="filter1_f_637_22362" x="9.8125" y="15.2562" width="28.375" height="11.875" filterUnits="userSpaceOnUse" color-interpolation-filters="sRGB">
<feFlood flood-opacity="0" result="BackgroundImageFix"/>
<feBlend mode="normal" in="SourceGraphic" in2="BackgroundImageFix" result="shape"/>
<feGaussianBlur stdDeviation="0.5" result="effect1_foregroundBlur_637_22362"/>
</filter>
<filter id="filter2_f_637_22362" x="18.3081" y="21.5375" width="2.90637" height="4.36157" filterUnits="userSpaceOnUse" color-interpolation-filters="sRGB">
<feFlood flood-opacity="0" result="BackgroundImageFix"/>
<feBlend mode="normal" in="SourceGraphic" in2="BackgroundImageFix" result="shape"/>
<feGaussianBlur stdDeviation="0.375" result="effect1_foregroundBlur_637_22362"/>
</filter>
<filter id="filter3_f_637_22362" x="26.3623" y="21.5375" width="2.90637" height="4.36157" filterUnits="userSpaceOnUse" color-interpolation-filters="sRGB">
<feFlood flood-opacity="0" result="BackgroundImageFix"/>
<feBlend mode="normal" in="SourceGraphic" in2="BackgroundImageFix" result="shape"/>
<feGaussianBlur stdDeviation="0.375" result="effect1_foregroundBlur_637_22362"/>
</filter>
<filter id="filter4_f_637_22362" x="13.8438" y="10.1312" width="8.8125" height="7.375" filterUnits="userSpaceOnUse" color-interpolation-filters="sRGB">
<feFlood flood-opacity="0" result="BackgroundImageFix"/>
<feBlend mode="normal" in="SourceGraphic" in2="BackgroundImageFix" result="shape"/>
<feGaussianBlur stdDeviation="0.5" result="effect1_foregroundBlur_637_22362"/>
</filter>
<filter id="filter5_f_637_22362" x="32.1125" y="10.5875" width="1.9" height="8.7125" filterUnits="userSpaceOnUse" color-interpolation-filters="sRGB">
<feFlood flood-opacity="0" result="BackgroundImageFix"/>
<feBlend mode="normal" in="SourceGraphic" in2="BackgroundImageFix" result="shape"/>
<feGaussianBlur stdDeviation="0.35" result="effect1_foregroundBlur_637_22362"/>
</filter>
<filter id="filter6_f_637_22362" x="27.625" y="16.225" width="11.625" height="17.6562" filterUnits="userSpaceOnUse" color-interpolation-filters="sRGB">
<feFlood flood-opacity="0" result="BackgroundImageFix"/>
<feBlend mode="normal" in="SourceGraphic" in2="BackgroundImageFix" result="shape"/>
<feGaussianBlur stdDeviation="1" result="effect1_foregroundBlur_637_22362"/>
</filter>
<filter id="filter7_f_637_22362" x="19.5121" y="21.8578" width="1.53906" height="1.53906" filterUnits="userSpaceOnUse" color-interpolation-filters="sRGB">
<feFlood flood-opacity="0" result="BackgroundImageFix"/>
<feBlend mode="normal" in="SourceGraphic" in2="BackgroundImageFix" result="shape"/>
<feGaussianBlur stdDeviation="0.25" result="effect1_foregroundBlur_637_22362"/>
</filter>
<filter id="filter8_f_637_22362" x="27.5347" y="21.8578" width="1.53906" height="1.53906" filterUnits="userSpaceOnUse" color-interpolation-filters="sRGB">
<feFlood flood-opacity="0" result="BackgroundImageFix"/>
<feBlend mode="normal" in="SourceGraphic" in2="BackgroundImageFix" result="shape"/>
<feGaussianBlur stdDeviation="0.25" result="effect1_foregroundBlur_637_22362"/>
</filter>
<filter id="filter9_f_637_22362" x="24.4486" y="28.2314" width="2.06567" height="2.17432" filterUnits="userSpaceOnUse" color-interpolation-filters="sRGB">
<feFlood flood-opacity="0" result="BackgroundImageFix"/>
<feBlend mode="normal" in="SourceGraphic" in2="BackgroundImageFix" result="shape"/>
<feGaussianBlur stdDeviation="0.25" result="effect1_foregroundBlur_637_22362"/>
</filter>
<radialGradient id="paint0_radial_637_22362" cx="0" cy="0" r="1" gradientUnits="userSpaceOnUse" gradientTransform="translate(29.5 19.5374) rotate(119.632) scale(15.6749 29.1892)">
<stop stop-color="#B4B3B5"/>
<stop offset="1" stop-color="#848484"/>
</radialGradient>
<radialGradient id="paint1_radial_637_22362" cx="0" cy="0" r="1" gradientUnits="userSpaceOnUse" gradientTransform="translate(9.5 20.4124) rotate(30.1414) scale(6.72129 7.85092)">
<stop stop-color="#767575"/>
<stop offset="1" stop-color="#767575" stop-opacity="0"/>
</radialGradient>
<linearGradient id="paint2_linear_637_22362" x1="8.6875" y1="28.4749" x2="20.4375" y2="23.9124" gradientUnits="userSpaceOnUse">
<stop stop-color="#747474"/>
<stop offset="0.492379" stop-color="#747474" stop-opacity="0"/>
</linearGradient>
<linearGradient id="paint3_linear_637_22362" x1="38.5" y1="35.7874" x2="32.5" y2="28.7874" gradientUnits="userSpaceOnUse">
<stop stop-color="#747474"/>
<stop offset="1" stop-color="#747474" stop-opacity="0"/>
</linearGradient>
<radialGradient id="paint4_radial_637_22362" cx="0" cy="0" r="1" gradientUnits="userSpaceOnUse" gradientTransform="translate(9.84371 28.5844) rotate(-34.848) scale(4.07441 1.13657)">
<stop stop-color="#634185"/>
<stop offset="0.783891" stop-color="#634185" stop-opacity="0"/>
</radialGradient>
<radialGradient id="paint5_radial_637_22362" cx="0" cy="0" r="1" gradientUnits="userSpaceOnUse" gradientTransform="translate(38.9687 28.9125) rotate(-152.201) scale(6.16458 1.13044)">
<stop stop-color="#351F4B"/>
<stop offset="0.908767" stop-color="#634185" stop-opacity="0"/>
</radialGradient>
<linearGradient id="paint6_linear_637_22362" x1="23.9688" y1="13.4125" x2="23.9688" y2="21.725" gradientUnits="userSpaceOnUse">
<stop stop-color="#747474"/>
<stop offset="1" stop-color="#747474" stop-opacity="0"/>
</linearGradient>
<linearGradient id="paint7_linear_637_22362" x1="19.3749" y1="14.3499" x2="17.2499" y2="17.0999" gradientUnits="userSpaceOnUse">
<stop stop-color="#BAB8BD"/>
<stop offset="1" stop-color="#BAB8BD" stop-opacity="0"/>
</linearGradient>
<linearGradient id="paint8_linear_637_22362" x1="14.998" y1="17.4593" x2="16.1249" y2="17.4124" gradientUnits="userSpaceOnUse">
<stop stop-color="#DCDBDD"/>
<stop offset="1" stop-color="#DCDBDD" stop-opacity="0"/>
</linearGradient>
<radialGradient id="paint9_radial_637_22362" cx="0" cy="0" r="1" gradientUnits="userSpaceOnUse" gradientTransform="translate(14.998 18.3656) rotate(-44.233) scale(2.57588 1.45826)">
<stop stop-color="white"/>
<stop offset="1" stop-color="#DCDBDD" stop-opacity="0"/>
</radialGradient>
<linearGradient id="paint10_linear_637_22362" x1="34.0624" y1="16.2874" x2="30.8755" y2="16.4845" gradientUnits="userSpaceOnUse">
<stop stop-color="#BAB8BD"/>
<stop offset="1" stop-color="#BAB8BD" stop-opacity="0"/>
</linearGradient>
<linearGradient id="paint11_linear_637_22362" x1="28.3437" y1="16.9749" x2="29.1553" y2="15.3355" gradientUnits="userSpaceOnUse">
<stop offset="0.275114" stop-color="#DCDBDD"/>
<stop offset="1" stop-color="#DCDBDD" stop-opacity="0"/>
</linearGradient>
<radialGradient id="paint12_radial_637_22362" cx="0" cy="0" r="1" gradientUnits="userSpaceOnUse" gradientTransform="translate(27.5937 16.7249) rotate(-24.8804) scale(2.37685 1.34547)">
<stop stop-color="white"/>
<stop offset="1" stop-color="#DCDBDD" stop-opacity="0"/>
</radialGradient>
<linearGradient id="paint13_linear_637_22362" x1="27.75" y1="27.3499" x2="19.625" y2="37.9206" gradientUnits="userSpaceOnUse">
<stop stop-color="#D7D3DB"/>
<stop offset="1" stop-color="#B7B1BC"/>
</linearGradient>
<radialGradient id="paint14_radial_637_22362" cx="0" cy="0" r="1" gradientUnits="userSpaceOnUse" gradientTransform="translate(14.75 37.9206) rotate(-43.58) scale(12.2513 13.3011)">
<stop stop-color="#9890A0"/>
<stop offset="1" stop-color="#9890A0" stop-opacity="0"/>
</radialGradient>
<radialGradient id="paint15_radial_637_22362" cx="0" cy="0" r="1" gradientUnits="userSpaceOnUse" gradientTransform="translate(29.9258 36.0871) rotate(-123.154) scale(7.68056 4.59645)">
<stop stop-color="#9890A0"/>
<stop offset="0.64392" stop-color="#9890A0" stop-opacity="0"/>
</radialGradient>
<linearGradient id="paint16_linear_637_22362" x1="10.0625" y1="39.5374" x2="20.3125" y2="31.4749" gradientUnits="userSpaceOnUse">
<stop stop-color="#9890A0"/>
<stop offset="1" stop-color="#9890A0" stop-opacity="0"/>
</linearGradient>
<radialGradient id="paint17_radial_637_22362" cx="0" cy="0" r="1" gradientUnits="userSpaceOnUse" gradientTransform="translate(24.0434 38.8499) rotate(-90) scale(5 6.33167)">
<stop stop-color="#9874BC"/>
<stop offset="1" stop-color="#8A74A0" stop-opacity="0"/>
</radialGradient>
<linearGradient id="paint18_linear_637_22362" x1="24.0434" y1="39.3499" x2="24.0434" y2="37.4124" gradientUnits="userSpaceOnUse">
<stop stop-color="#855CAE"/>
<stop offset="1" stop-color="#855CAE" stop-opacity="0"/>
</linearGradient>
<radialGradient id="paint19_radial_637_22362" cx="0" cy="0" r="1" gradientUnits="userSpaceOnUse" gradientTransform="translate(10.3438 31.5687) rotate(-29.6445) scale(4.42262 1.25494)">
<stop stop-color="#634185"/>
<stop offset="0.831611" stop-color="#634185" stop-opacity="0"/>
</radialGradient>
<radialGradient id="paint20_radial_637_22362" cx="0" cy="0" r="1" gradientUnits="userSpaceOnUse" gradientTransform="translate(37.7212 31.5687) rotate(-147.433) scale(4.9346 1.40021)">
<stop stop-color="#634185"/>
<stop offset="0.831611" stop-color="#634185" stop-opacity="0"/>
</radialGradient>
<radialGradient id="paint21_radial_637_22362" cx="0" cy="0" r="1" gradientUnits="userSpaceOnUse" gradientTransform="translate(14.1249 36.1312) rotate(-50.5187) scale(9.19079 3.84482)">
<stop stop-color="#855CAE"/>
<stop offset="0.953125" stop-color="#855CAE" stop-opacity="0"/>
</radialGradient>
<radialGradient id="paint22_radial_637_22362" cx="0" cy="0" r="1" gradientUnits="userSpaceOnUse" gradientTransform="translate(14.4687 37.0687) rotate(-57.8567) scale(9.63276 5.02912)">
<stop stop-color="#634185"/>
<stop offset="0.783891" stop-color="#634185" stop-opacity="0"/>
</radialGradient>
<radialGradient id="paint23_radial_637_22362" cx="0" cy="0" r="1" gradientUnits="userSpaceOnUse" gradientTransform="translate(34.6562 36.5375) rotate(-134.31) scale(11.0051 3.88934)">
<stop stop-color="#855CAE"/>
<stop offset="0.953125" stop-color="#855CAE" stop-opacity="0"/>
</radialGradient>
<radialGradient id="paint24_radial_637_22362" cx="0" cy="0" r="1" gradientUnits="userSpaceOnUse" gradientTransform="translate(34.0313 36.9125) rotate(-125.91) scale(11.1891 4.60044)">
<stop stop-color="#634185"/>
<stop offset="0.815367" stop-color="#634185" stop-opacity="0"/>
</radialGradient>
<radialGradient id="paint25_radial_637_22362" cx="0" cy="0" r="1" gradientUnits="userSpaceOnUse" gradientTransform="translate(21.7969 33.3812) rotate(54.3924) scale(2.97885 3.73897)">
<stop stop-color="#261317"/>
<stop offset="0.588542" stop-color="#4E4647"/>
<stop offset="0.747451" stop-color="#2F172A"/>
</radialGradient>
<radialGradient id="paint26_radial_637_22362" cx="0" cy="0" r="1" gradientUnits="userSpaceOnUse" gradientTransform="translate(22.6094 34.4437) rotate(-128.517) scale(0.978529 1.62106)">
<stop stop-color="#261317"/>
<stop offset="1" stop-color="#261317" stop-opacity="0"/>
</radialGradient>
<linearGradient id="paint27_linear_637_22362" x1="23.8906" y1="33.7093" x2="23.1875" y2="34.7249" gradientUnits="userSpaceOnUse">
<stop stop-color="#2F172A"/>
<stop offset="1" stop-color="#2F172A" stop-opacity="0"/>
</linearGradient>
<radialGradient id="paint28_radial_637_22362" cx="0" cy="0" r="1" gradientUnits="userSpaceOnUse" gradientTransform="translate(26.5156 33.4593) rotate(122.471) scale(3.05588 4.35358)">
<stop stop-color="#261317"/>
<stop offset="0.588542" stop-color="#4E4647"/>
<stop offset="0.747451" stop-color="#2F172A"/>
</radialGradient>
<radialGradient id="paint29_radial_637_22362" cx="0" cy="0" r="1" gradientUnits="userSpaceOnUse" gradientTransform="translate(25.7344 33.6781) rotate(135.988) scale(1.28182 2.1235)">
<stop stop-color="#261317"/>
<stop offset="1" stop-color="#261317" stop-opacity="0"/>
</radialGradient>
<linearGradient id="paint30_linear_637_22362" x1="20.7144" y1="23.4928" x2="19.9019" y2="23.4928" gradientUnits="userSpaceOnUse">
<stop offset="0.225" stop-color="#594C4F"/>
<stop offset="1" stop-color="#392833"/>
</linearGradient>
<linearGradient id="paint31_linear_637_22362" x1="21.031" y1="25.5206" x2="21.031" y2="23.9281" gradientUnits="userSpaceOnUse">
<stop stop-color="#552D52"/>
<stop offset="1" stop-color="#552D52" stop-opacity="0"/>
</linearGradient>
<linearGradient id="paint32_linear_637_22362" x1="28.687" y1="23.4928" x2="27.8745" y2="23.4928" gradientUnits="userSpaceOnUse">
<stop offset="0.225" stop-color="#594C4F"/>
<stop offset="1" stop-color="#392833"/>
</linearGradient>
<linearGradient id="paint33_linear_637_22362" x1="29.0037" y1="25.5206" x2="29.0037" y2="23.9281" gradientUnits="userSpaceOnUse">
<stop stop-color="#552D52"/>
<stop offset="1" stop-color="#552D52" stop-opacity="0"/>
</linearGradient>
<linearGradient id="paint34_linear_637_22362" x1="25.6489" y1="27.8229" x2="22.0192" y2="31.1098" gradientUnits="userSpaceOnUse">
<stop offset="0.191489" stop-color="#5F5254"/>
<stop offset="1" stop-color="#2E2127"/>
</linearGradient>
<radialGradient id="paint35_radial_637_22362" cx="0" cy="0" r="1" gradientUnits="userSpaceOnUse" gradientTransform="translate(24.4541 28.9482) rotate(133.023) scale(2.60078 4.77774)">
<stop offset="0.462647" stop-color="#34222C" stop-opacity="0"/>
<stop offset="0.955607" stop-color="#34222C"/>
</radialGradient>
<linearGradient id="paint36_linear_637_22362" x1="24.5" y1="29.2719" x2="24.5" y2="27.2875" gradientUnits="userSpaceOnUse">
<stop offset="0.146552" stop-color="#34222C" stop-opacity="0"/>
<stop offset="0.872727" stop-color="#34222C"/>
</linearGradient>
<linearGradient id="paint37_linear_637_22362" x1="25.5156" y1="32.6" x2="25.5156" y2="29.6" gradientUnits="userSpaceOnUse">
<stop stop-color="#552D52"/>
<stop offset="1" stop-color="#552D52" stop-opacity="0"/>
</linearGradient>
<linearGradient id="paint38_linear_637_22362" x1="32.4688" y1="25.5062" x2="34.9375" y2="32.1625" gradientUnits="userSpaceOnUse">
<stop stop-color="#C2C1C3"/>
<stop offset="0.72362" stop-color="#D9D9D9"/>
</linearGradient>
</defs>
</svg>
