<svg width="48" height="48" viewBox="0 0 48 48" fill="none" xmlns="http://www.w3.org/2000/svg">
<rect width="48" height="48" rx="24" fill="#F2F5FF"/>
<path d="M36.9284 27H34.7884C34.3384 27 33.9784 26.64 33.9784 26.19V26V18.42C33.9784 15.33 32.5584 12.15 30.1584 10.24C29.9684 10.08 29.7184 10 29.4684 10C29.2184 10 28.9684 10.08 28.7684 10.24C27.0184 11.64 25.7984 13.84 25.2684 16H22.6884C22.1584 13.84 20.9384 11.64 19.1884 10.24C18.9984 10.08 18.7484 10 18.4984 10C18.2484 10 17.9984 10.08 17.7984 10.24C15.4084 12.15 13.9884 15.32 13.9884 18.42V26V26.19C13.9884 26.64 13.6284 27 13.1784 27H11.0384C10.6284 27 10.3284 27.4 10.4384 27.8C12.0984 33.68 17.4984 38 23.9184 38C23.9384 38 23.9684 38 23.9884 38C24.0084 38 24.0384 38 24.0584 38C30.4684 38 35.8784 33.69 37.5384 27.8C37.6484 27.4 37.3484 27 36.9284 27Z" fill="url(#paint0_radial_637_22361)"/>
<path d="M36.9284 27H34.7884C34.3384 27 33.9784 26.64 33.9784 26.19V26V18.42C33.9784 15.33 32.5584 12.15 30.1584 10.24C29.9684 10.08 29.7184 10 29.4684 10C29.2184 10 28.9684 10.08 28.7684 10.24C27.0184 11.64 25.7984 13.84 25.2684 16H22.6884C22.1584 13.84 20.9384 11.64 19.1884 10.24C18.9984 10.08 18.7484 10 18.4984 10C18.2484 10 17.9984 10.08 17.7984 10.24C15.4084 12.15 13.9884 15.32 13.9884 18.42V26V26.19C13.9884 26.64 13.6284 27 13.1784 27H11.0384C10.6284 27 10.3284 27.4 10.4384 27.8C12.0984 33.68 17.4984 38 23.9184 38C23.9384 38 23.9684 38 23.9884 38C24.0084 38 24.0384 38 24.0584 38C30.4684 38 35.8784 33.69 37.5384 27.8C37.6484 27.4 37.3484 27 36.9284 27Z" fill="url(#paint1_radial_637_22361)"/>
<path d="M36.9284 27H34.7884C34.3384 27 33.9784 26.64 33.9784 26.19V26V18.42C33.9784 15.33 32.5584 12.15 30.1584 10.24C29.9684 10.08 29.7184 10 29.4684 10C29.2184 10 28.9684 10.08 28.7684 10.24C27.0184 11.64 25.7984 13.84 25.2684 16H22.6884C22.1584 13.84 20.9384 11.64 19.1884 10.24C18.9984 10.08 18.7484 10 18.4984 10C18.2484 10 17.9984 10.08 17.7984 10.24C15.4084 12.15 13.9884 15.32 13.9884 18.42V26V26.19C13.9884 26.64 13.6284 27 13.1784 27H11.0384C10.6284 27 10.3284 27.4 10.4384 27.8C12.0984 33.68 17.4984 38 23.9184 38C23.9384 38 23.9684 38 23.9884 38C24.0084 38 24.0384 38 24.0584 38C30.4684 38 35.8784 33.69 37.5384 27.8C37.6484 27.4 37.3484 27 36.9284 27Z" fill="url(#paint2_radial_637_22361)"/>
<ellipse cx="23.9884" cy="25.6314" rx="9.76748" ry="9.66262" fill="url(#paint3_radial_637_22361)" fill-opacity="0.5"/>
<g filter="url(#filter0_f_637_22361)">
<path d="M28.4241 11.8906C27.9866 12.4427 26.7209 14.0312 26.3459 15.9688" stroke="url(#paint4_linear_637_22361)" stroke-width="0.25" stroke-linecap="round"/>
</g>
<g filter="url(#filter1_f_637_22361)">
<path d="M32.074 13.1936C32.824 14.2249 33.574 16.2561 33.574 20.0686" stroke="#FFB160" stroke-width="0.25" stroke-linecap="round"/>
</g>
<g filter="url(#filter2_f_637_22361)">
<path d="M20.4884 12.3499C20.9821 13.0286 21.8459 14.7031 22.0022 15.9531" stroke="#FFB160" stroke-width="0.25" stroke-linecap="round"/>
</g>
<path d="M30.1685 10.24C29.9685 10.08 29.7185 10 29.4685 10C29.2185 10 28.9685 10.08 28.7685 10.24C27.5685 11.21 26.6085 12.55 25.9585 14H33.0285C32.3685 12.53 31.3985 11.22 30.1685 10.24Z" fill="url(#paint5_linear_637_22361)"/>
<path d="M30.1685 10.24C29.9685 10.08 29.7185 10 29.4685 10C29.2185 10 28.9685 10.08 28.7685 10.24C27.5685 11.21 26.6085 12.55 25.9585 14H33.0285C32.3685 12.53 31.3985 11.22 30.1685 10.24Z" fill="url(#paint6_linear_637_22361)"/>
<path d="M30.1685 10.24C29.9685 10.08 29.7185 10 29.4685 10C29.2185 10 28.9685 10.08 28.7685 10.24C27.5685 11.21 26.6085 12.55 25.9585 14H33.0285C32.3685 12.53 31.3985 11.22 30.1685 10.24Z" fill="url(#paint7_linear_637_22361)"/>
<path d="M31.9829 20.0019C32.1338 20.2036 32.4785 20.1008 32.4785 19.8489V18.4199C32.4785 15.9399 31.4185 13.6099 29.5885 11.9899C29.5185 11.9299 29.4085 11.9299 29.3385 11.9899C28.1738 13.0302 27.3252 14.355 26.8632 15.8239C26.7665 16.1314 26.9545 16.4478 27.259 16.5535C29.1637 17.2145 30.8041 18.4263 31.9829 20.0019Z" fill="url(#paint8_linear_637_22361)"/>
<path d="M31.9829 20.0019C32.1338 20.2036 32.4785 20.1008 32.4785 19.8489V18.4199C32.4785 15.9399 31.4185 13.6099 29.5885 11.9899C29.5185 11.9299 29.4085 11.9299 29.3385 11.9899C28.1738 13.0302 27.3252 14.355 26.8632 15.8239C26.7665 16.1314 26.9545 16.4478 27.259 16.5535C29.1637 17.2145 30.8041 18.4263 31.9829 20.0019Z" fill="url(#paint9_linear_637_22361)"/>
<path d="M31.9829 20.0019C32.1338 20.2036 32.4785 20.1008 32.4785 19.8489V18.4199C32.4785 15.9399 31.4185 13.6099 29.5885 11.9899C29.5185 11.9299 29.4085 11.9299 29.3385 11.9899C28.1738 13.0302 27.3252 14.355 26.8632 15.8239C26.7665 16.1314 26.9545 16.4478 27.259 16.5535C29.1637 17.2145 30.8041 18.4263 31.9829 20.0019Z" fill="url(#paint10_linear_637_22361)"/>
<path d="M31.9829 20.0019C32.1338 20.2036 32.4785 20.1008 32.4785 19.8489V18.4199C32.4785 15.9399 31.4185 13.6099 29.5885 11.9899C29.5185 11.9299 29.4085 11.9299 29.3385 11.9899C28.1738 13.0302 27.3252 14.355 26.8632 15.8239C26.7665 16.1314 26.9545 16.4478 27.259 16.5535C29.1637 17.2145 30.8041 18.4263 31.9829 20.0019Z" fill="url(#paint11_linear_637_22361)"/>
<path d="M31.9829 20.0019C32.1338 20.2036 32.4785 20.1008 32.4785 19.8489V18.4199C32.4785 15.9399 31.4185 13.6099 29.5885 11.9899C29.5185 11.9299 29.4085 11.9299 29.3385 11.9899C28.1738 13.0302 27.3252 14.355 26.8632 15.8239C26.7665 16.1314 26.9545 16.4478 27.259 16.5535C29.1637 17.2145 30.8041 18.4263 31.9829 20.0019Z" fill="url(#paint12_radial_637_22361)"/>
<path d="M31.9829 20.0019C32.1338 20.2036 32.4785 20.1008 32.4785 19.8489V18.4199C32.4785 15.9399 31.4185 13.6099 29.5885 11.9899C29.5185 11.9299 29.4085 11.9299 29.3385 11.9899C28.1738 13.0302 27.3252 14.355 26.8632 15.8239C26.7665 16.1314 26.9545 16.4478 27.259 16.5535C29.1637 17.2145 30.8041 18.4263 31.9829 20.0019Z" fill="url(#paint13_linear_637_22361)"/>
<g filter="url(#filter3_f_637_22361)">
<path d="M27.5623 28.2812C27.1523 28.2812 26.8123 27.9413 26.8123 27.5312V26.0312C26.8123 25.6213 27.1523 25.2812 27.5623 25.2812C27.9723 25.2812 28.3123 25.6213 28.3123 26.0312V27.5312C28.3123 27.9413 27.9723 28.2812 27.5623 28.2812Z" fill="#CD5C25"/>
</g>
<g filter="url(#filter4_f_637_22361)">
<path d="M19.9822 28.2812C19.5722 28.2812 19.2322 27.9413 19.2322 27.5312V26.0312C19.2322 25.6213 19.5722 25.2812 19.9822 25.2812C20.3922 25.2812 20.7322 25.6213 20.7322 26.0312V27.5312C20.7322 27.9413 20.4022 28.2812 19.9822 28.2812Z" fill="#CD5C25"/>
</g>
<path d="M27.8085 28C27.3985 28 27.0585 27.66 27.0585 27.25V25.75C27.0585 25.34 27.3985 25 27.8085 25C28.2185 25 28.5585 25.34 28.5585 25.75V27.25C28.5585 27.66 28.2185 28 27.8085 28Z" fill="url(#paint14_linear_637_22361)"/>
<path d="M27.8085 28C27.3985 28 27.0585 27.66 27.0585 27.25V25.75C27.0585 25.34 27.3985 25 27.8085 25C28.2185 25 28.5585 25.34 28.5585 25.75V27.25C28.5585 27.66 28.2185 28 27.8085 28Z" fill="url(#paint15_linear_637_22361)"/>
<path d="M20.2285 28C19.8185 28 19.4785 27.66 19.4785 27.25V25.75C19.4785 25.34 19.8185 25 20.2285 25C20.6385 25 20.9785 25.34 20.9785 25.75V27.25C20.9785 27.66 20.6485 28 20.2285 28Z" fill="url(#paint16_linear_637_22361)"/>
<path d="M20.2285 28C19.8185 28 19.4785 27.66 19.4785 27.25V25.75C19.4785 25.34 19.8185 25 20.2285 25C20.6385 25 20.9785 25.34 20.9785 25.75V27.25C20.9785 27.66 20.6485 28 20.2285 28Z" fill="url(#paint17_linear_637_22361)"/>
<g filter="url(#filter5_f_637_22361)">
<path d="M16.7341 13.0781C16.2966 13.6302 14.9685 15.6375 14.9685 18.0625C14.9685 20.4875 14.9685 20.25 14.9685 20.0938" stroke="url(#paint18_linear_637_22361)" stroke-width="0.25" stroke-linecap="round"/>
</g>
<path d="M21.9885 13.95C21.3385 12.52 20.3885 11.2 19.1985 10.24C18.9985 10.08 18.7485 10 18.4985 10C18.2485 10 17.9985 10.08 17.7985 10.24C16.5885 11.21 15.6185 12.5 14.9685 13.95H21.9885Z" fill="url(#paint19_linear_637_22361)"/>
<path d="M21.9885 13.95C21.3385 12.52 20.3885 11.2 19.1985 10.24C18.9985 10.08 18.7485 10 18.4985 10C18.2485 10 17.9985 10.08 17.7985 10.24C16.5885 11.21 15.6185 12.5 14.9685 13.95H21.9885Z" fill="url(#paint20_linear_637_22361)"/>
<path d="M21.9885 13.95C21.3385 12.52 20.3885 11.2 19.1985 10.24C18.9985 10.08 18.7485 10 18.4985 10C18.2485 10 17.9985 10.08 17.7985 10.24C16.5885 11.21 15.6185 12.5 14.9685 13.95H21.9885Z" fill="url(#paint21_linear_637_22361)"/>
<path d="M37.1385 28.99H30.6785C28.9285 28.99 27.2185 29.54 25.7985 30.56L23.9885 31.85L22.1785 30.56C20.7585 29.54 19.0485 28.99 17.2985 28.99H10.8285C12.8385 34.26 17.9385 38 23.9085 38C23.9285 38 23.9585 38 23.9785 38C23.9985 38 24.0285 38 24.0485 38C30.0285 37.99 35.1285 34.25 37.1385 28.99Z" fill="url(#paint22_radial_637_22361)"/>
<path d="M37.1385 28.99H30.6785C28.9285 28.99 27.2185 29.54 25.7985 30.56L23.9885 31.85L22.1785 30.56C20.7585 29.54 19.0485 28.99 17.2985 28.99H10.8285C12.8385 34.26 17.9385 38 23.9085 38C23.9285 38 23.9585 38 23.9785 38C23.9985 38 24.0285 38 24.0485 38C30.0285 37.99 35.1285 34.25 37.1385 28.99Z" fill="url(#paint23_radial_637_22361)"/>
<path d="M37.1385 28.99H30.6785C28.9285 28.99 27.2185 29.54 25.7985 30.56L23.9885 31.85L22.1785 30.56C20.7585 29.54 19.0485 28.99 17.2985 28.99H10.8285C12.8385 34.26 17.9385 38 23.9085 38C23.9285 38 23.9585 38 23.9785 38C23.9985 38 24.0285 38 24.0485 38C30.0285 37.99 35.1285 34.25 37.1385 28.99Z" fill="url(#paint24_radial_637_22361)"/>
<path d="M37.1385 28.99H30.6785C28.9285 28.99 27.2185 29.54 25.7985 30.56L23.9885 31.85L22.1785 30.56C20.7585 29.54 19.0485 28.99 17.2985 28.99H10.8285C12.8385 34.26 17.9385 38 23.9085 38C23.9285 38 23.9585 38 23.9785 38C23.9985 38 24.0285 38 24.0485 38C30.0285 37.99 35.1285 34.25 37.1385 28.99Z" fill="url(#paint25_radial_637_22361)"/>
<path d="M37.1385 28.99H30.6785C28.9285 28.99 27.2185 29.54 25.7985 30.56L23.9885 31.85L22.1785 30.56C20.7585 29.54 19.0485 28.99 17.2985 28.99H10.8285C12.8385 34.26 17.9385 38 23.9085 38C23.9285 38 23.9585 38 23.9785 38C23.9985 38 24.0285 38 24.0485 38C30.0285 37.99 35.1285 34.25 37.1385 28.99Z" fill="url(#paint26_radial_637_22361)"/>
<path d="M37.1385 28.99H30.6785C28.9285 28.99 27.2185 29.54 25.7985 30.56L23.9885 31.85L22.1785 30.56C20.7585 29.54 19.0485 28.99 17.2985 28.99H10.8285C12.8385 34.26 17.9385 38 23.9085 38C23.9285 38 23.9585 38 23.9785 38C23.9985 38 24.0285 38 24.0485 38C30.0285 37.99 35.1285 34.25 37.1385 28.99Z" fill="url(#paint27_radial_637_22361)"/>
<g filter="url(#filter6_f_637_22361)">
<path d="M23.1708 31.9533L22.0613 30.8438C21.5213 30.3038 21.9042 29.3906 22.6701 29.3906H24.8891C25.6451 29.3906 25.0266 29.8662 24.4866 30.4062L24.3785 31.9533C24.3481 31.9838 24.3159 32.0115 24.2823 32.0364C24.305 33.169 25.2252 34.075 26.3634 34.075C26.6346 34.075 26.8544 34.2948 26.8544 34.5659C26.8544 34.8371 26.6346 35.0569 26.3634 35.0569C25.2762 35.0569 24.3231 34.4936 23.7796 33.6424C23.2361 34.4936 22.2831 35.0569 21.1958 35.0569C20.9246 35.0569 20.7048 34.8371 20.7048 34.5659C20.7048 34.2948 20.9246 34.075 21.1958 34.075C22.3316 34.075 23.2503 33.1728 23.2768 32.0434C23.2397 32.0167 23.2042 31.9867 23.1708 31.9533Z" fill="#B66A7D"/>
</g>
<path d="M23.9769 31.6409C23.9769 33.0909 22.8069 34.2609 21.3569 34.2609" stroke="url(#paint28_radial_637_22361)" stroke-linecap="round"/>
<path d="M23.9769 31.6409C23.9769 33.0909 22.8069 34.2609 21.3569 34.2609" stroke="url(#paint29_radial_637_22361)" stroke-linecap="round"/>
<path d="M23.9769 31.6409C23.9769 33.0909 22.8069 34.2609 21.3569 34.2609" stroke="url(#paint30_linear_637_22361)" stroke-linecap="round"/>
<path d="M24 31.6409C24 33.0909 25.17 34.2609 26.62 34.2609" stroke="url(#paint31_radial_637_22361)" stroke-linecap="round"/>
<path d="M24 31.6409C24 33.0909 25.17 34.2609 26.62 34.2609" stroke="url(#paint32_radial_637_22361)" stroke-linecap="round"/>
<path d="M22.2385 30.47L23.3685 31.6C23.7085 31.94 24.2585 31.94 24.5985 31.6L25.7285 30.47C26.2785 29.92 25.8885 28.99 25.1185 28.99H22.8585C22.0785 28.99 21.6885 29.92 22.2385 30.47Z" fill="url(#paint33_linear_637_22361)"/>
<path d="M22.2385 30.47L23.3685 31.6C23.7085 31.94 24.2585 31.94 24.5985 31.6L25.7285 30.47C26.2785 29.92 25.8885 28.99 25.1185 28.99H22.8585C22.0785 28.99 21.6885 29.92 22.2385 30.47Z" fill="url(#paint34_radial_637_22361)"/>
<path d="M22.2385 30.47L23.3685 31.6C23.7085 31.94 24.2585 31.94 24.5985 31.6L25.7285 30.47C26.2785 29.92 25.8885 28.99 25.1185 28.99H22.8585C22.0785 28.99 21.6885 29.92 22.2385 30.47Z" fill="url(#paint35_linear_637_22361)"/>
<path d="M22.2385 30.47L23.3685 31.6C23.7085 31.94 24.2585 31.94 24.5985 31.6L25.7285 30.47C26.2785 29.92 25.8885 28.99 25.1185 28.99H22.8585C22.0785 28.99 21.6885 29.92 22.2385 30.47Z" fill="url(#paint36_linear_637_22361)"/>
<path d="M20.6888 16.5541C20.9929 16.4481 21.1806 16.1319 21.0838 15.8247C20.6201 14.3537 19.7635 13.0206 18.5985 11.9801C18.5285 11.9201 18.4185 11.9201 18.3485 11.9801C16.5385 13.6101 15.4785 15.9301 15.4785 18.4001V19.8612C15.4785 20.113 15.8224 20.2156 15.9731 20.0139C17.1563 18.43 18.7907 17.216 20.6888 16.5541Z" fill="url(#paint37_linear_637_22361)"/>
<path d="M20.6888 16.5541C20.9929 16.4481 21.1806 16.1319 21.0838 15.8247C20.6201 14.3537 19.7635 13.0206 18.5985 11.9801C18.5285 11.9201 18.4185 11.9201 18.3485 11.9801C16.5385 13.6101 15.4785 15.9301 15.4785 18.4001V19.8612C15.4785 20.113 15.8224 20.2156 15.9731 20.0139C17.1563 18.43 18.7907 17.216 20.6888 16.5541Z" fill="url(#paint38_linear_637_22361)"/>
<path d="M20.6888 16.5541C20.9929 16.4481 21.1806 16.1319 21.0838 15.8247C20.6201 14.3537 19.7635 13.0206 18.5985 11.9801C18.5285 11.9201 18.4185 11.9201 18.3485 11.9801C16.5385 13.6101 15.4785 15.9301 15.4785 18.4001V19.8612C15.4785 20.113 15.8224 20.2156 15.9731 20.0139C17.1563 18.43 18.7907 17.216 20.6888 16.5541Z" fill="url(#paint39_linear_637_22361)"/>
<path d="M20.6888 16.5541C20.9929 16.4481 21.1806 16.1319 21.0838 15.8247C20.6201 14.3537 19.7635 13.0206 18.5985 11.9801C18.5285 11.9201 18.4185 11.9201 18.3485 11.9801C16.5385 13.6101 15.4785 15.9301 15.4785 18.4001V19.8612C15.4785 20.113 15.8224 20.2156 15.9731 20.0139C17.1563 18.43 18.7907 17.216 20.6888 16.5541Z" fill="url(#paint40_linear_637_22361)"/>
<path d="M20.6888 16.5541C20.9929 16.4481 21.1806 16.1319 21.0838 15.8247C20.6201 14.3537 19.7635 13.0206 18.5985 11.9801C18.5285 11.9201 18.4185 11.9201 18.3485 11.9801C16.5385 13.6101 15.4785 15.9301 15.4785 18.4001V19.8612C15.4785 20.113 15.8224 20.2156 15.9731 20.0139C17.1563 18.43 18.7907 17.216 20.6888 16.5541Z" fill="url(#paint41_radial_637_22361)"/>
<path d="M20.6888 16.5541C20.9929 16.4481 21.1806 16.1319 21.0838 15.8247C20.6201 14.3537 19.7635 13.0206 18.5985 11.9801C18.5285 11.9201 18.4185 11.9201 18.3485 11.9801C16.5385 13.6101 15.4785 15.9301 15.4785 18.4001V19.8612C15.4785 20.113 15.8224 20.2156 15.9731 20.0139C17.1563 18.43 18.7907 17.216 20.6888 16.5541Z" fill="url(#paint42_linear_637_22361)"/>
<g filter="url(#filter7_f_637_22361)">
<circle cx="25.0881" cy="29.8359" r="0.320312" fill="#6A6566"/>
</g>
<g filter="url(#filter8_f_637_22361)">
<path d="M36.8928 27.6094C36.6897 27.9219 34.8928 29.1875 34.0803 29.4062" stroke="url(#paint43_linear_637_22361)" stroke-width="0.25" stroke-linecap="round"/>
</g>
<g filter="url(#filter9_f_637_22361)">
<path d="M11.244 27.6094C11.4471 27.9219 13.244 29.1875 14.0565 29.4062" stroke="url(#paint44_linear_637_22361)" stroke-width="0.25" stroke-linecap="round"/>
</g>
<g filter="url(#filter10_f_637_22361)">
<path d="M31.4084 23.1875C31.4084 23.4065 31.419 25.6472 31.4395 25.847C31.6525 27.9282 32.9395 28.9688 34.5647 28.9688" stroke="#FFC177"/>
</g>
<g filter="url(#filter11_f_637_22361)">
<path d="M29.6755 10.6641C30.1208 11.0625 31.3396 12.2344 32.074 13.5625" stroke="#665D5F" stroke-width="0.25" stroke-linecap="round"/>
</g>
<g filter="url(#filter12_f_637_22361)">
<path d="M18.5801 10.6641C19.0254 11.0625 20.2441 12.2344 20.9785 13.5625" stroke="#665D5F" stroke-width="0.25" stroke-linecap="round"/>
</g>
<g filter="url(#filter13_f_637_22361)">
<path d="M29.5115 10.6641C29.0662 11.0625 27.8474 12.2344 27.113 13.5625" stroke="url(#paint45_linear_637_22361)" stroke-opacity="0.5" stroke-width="0.25" stroke-linecap="round"/>
</g>
<g filter="url(#filter14_f_637_22361)">
<path d="M18.416 10.6641C17.9707 11.0625 16.752 12.2344 16.0176 13.5625" stroke="url(#paint46_linear_637_22361)" stroke-opacity="0.5" stroke-width="0.25" stroke-linecap="round"/>
</g>
<defs>
<filter id="filter0_f_637_22361" x="25.7209" y="11.2656" width="3.32812" height="5.32812" filterUnits="userSpaceOnUse" color-interpolation-filters="sRGB">
<feFlood flood-opacity="0" result="BackgroundImageFix"/>
<feBlend mode="normal" in="SourceGraphic" in2="BackgroundImageFix" result="shape"/>
<feGaussianBlur stdDeviation="0.25" result="effect1_foregroundBlur_637_22361"/>
</filter>
<filter id="filter1_f_637_22361" x="31.449" y="12.5686" width="2.75" height="8.125" filterUnits="userSpaceOnUse" color-interpolation-filters="sRGB">
<feFlood flood-opacity="0" result="BackgroundImageFix"/>
<feBlend mode="normal" in="SourceGraphic" in2="BackgroundImageFix" result="shape"/>
<feGaussianBlur stdDeviation="0.25" result="effect1_foregroundBlur_637_22361"/>
</filter>
<filter id="filter2_f_637_22361" x="19.8634" y="11.7249" width="2.76379" height="4.85327" filterUnits="userSpaceOnUse" color-interpolation-filters="sRGB">
<feFlood flood-opacity="0" result="BackgroundImageFix"/>
<feBlend mode="normal" in="SourceGraphic" in2="BackgroundImageFix" result="shape"/>
<feGaussianBlur stdDeviation="0.25" result="effect1_foregroundBlur_637_22361"/>
</filter>
<filter id="filter3_f_637_22361" x="26.0623" y="24.5312" width="3" height="4.5" filterUnits="userSpaceOnUse" color-interpolation-filters="sRGB">
<feFlood flood-opacity="0" result="BackgroundImageFix"/>
<feBlend mode="normal" in="SourceGraphic" in2="BackgroundImageFix" result="shape"/>
<feGaussianBlur stdDeviation="0.375" result="effect1_foregroundBlur_637_22361"/>
</filter>
<filter id="filter4_f_637_22361" x="18.4822" y="24.5312" width="3" height="4.5" filterUnits="userSpaceOnUse" color-interpolation-filters="sRGB">
<feFlood flood-opacity="0" result="BackgroundImageFix"/>
<feBlend mode="normal" in="SourceGraphic" in2="BackgroundImageFix" result="shape"/>
<feGaussianBlur stdDeviation="0.375" result="effect1_foregroundBlur_637_22361"/>
</filter>
<filter id="filter5_f_637_22361" x="14.3435" y="12.4531" width="3.01562" height="8.23096" filterUnits="userSpaceOnUse" color-interpolation-filters="sRGB">
<feFlood flood-opacity="0" result="BackgroundImageFix"/>
<feBlend mode="normal" in="SourceGraphic" in2="BackgroundImageFix" result="shape"/>
<feGaussianBlur stdDeviation="0.25" result="effect1_foregroundBlur_637_22361"/>
</filter>
<filter id="filter6_f_637_22361" x="19.9548" y="28.6406" width="7.64954" height="7.16626" filterUnits="userSpaceOnUse" color-interpolation-filters="sRGB">
<feFlood flood-opacity="0" result="BackgroundImageFix"/>
<feBlend mode="normal" in="SourceGraphic" in2="BackgroundImageFix" result="shape"/>
<feGaussianBlur stdDeviation="0.375" result="effect1_foregroundBlur_637_22361"/>
</filter>
<filter id="filter7_f_637_22361" x="24.2678" y="29.0156" width="1.64062" height="1.64062" filterUnits="userSpaceOnUse" color-interpolation-filters="sRGB">
<feFlood flood-opacity="0" result="BackgroundImageFix"/>
<feBlend mode="normal" in="SourceGraphic" in2="BackgroundImageFix" result="shape"/>
<feGaussianBlur stdDeviation="0.25" result="effect1_foregroundBlur_637_22361"/>
</filter>
<filter id="filter8_f_637_22361" x="33.4553" y="26.9844" width="4.0625" height="3.04688" filterUnits="userSpaceOnUse" color-interpolation-filters="sRGB">
<feFlood flood-opacity="0" result="BackgroundImageFix"/>
<feBlend mode="normal" in="SourceGraphic" in2="BackgroundImageFix" result="shape"/>
<feGaussianBlur stdDeviation="0.25" result="effect1_foregroundBlur_637_22361"/>
</filter>
<filter id="filter9_f_637_22361" x="10.119" y="26.4844" width="5.0625" height="4.04688" filterUnits="userSpaceOnUse" color-interpolation-filters="sRGB">
<feFlood flood-opacity="0" result="BackgroundImageFix"/>
<feBlend mode="normal" in="SourceGraphic" in2="BackgroundImageFix" result="shape"/>
<feGaussianBlur stdDeviation="0.5" result="effect1_foregroundBlur_637_22361"/>
</filter>
<filter id="filter10_f_637_22361" x="28.4084" y="20.6875" width="8.65625" height="11.2812" filterUnits="userSpaceOnUse" color-interpolation-filters="sRGB">
<feFlood flood-opacity="0" result="BackgroundImageFix"/>
<feBlend mode="normal" in="SourceGraphic" in2="BackgroundImageFix" result="shape"/>
<feGaussianBlur stdDeviation="1.25" result="effect1_foregroundBlur_637_22361"/>
</filter>
<filter id="filter11_f_637_22361" x="29.0505" y="10.0391" width="3.64844" height="4.14844" filterUnits="userSpaceOnUse" color-interpolation-filters="sRGB">
<feFlood flood-opacity="0" result="BackgroundImageFix"/>
<feBlend mode="normal" in="SourceGraphic" in2="BackgroundImageFix" result="shape"/>
<feGaussianBlur stdDeviation="0.25" result="effect1_foregroundBlur_637_22361"/>
</filter>
<filter id="filter12_f_637_22361" x="17.9551" y="10.0391" width="3.64844" height="4.14844" filterUnits="userSpaceOnUse" color-interpolation-filters="sRGB">
<feFlood flood-opacity="0" result="BackgroundImageFix"/>
<feBlend mode="normal" in="SourceGraphic" in2="BackgroundImageFix" result="shape"/>
<feGaussianBlur stdDeviation="0.25" result="effect1_foregroundBlur_637_22361"/>
</filter>
<filter id="filter13_f_637_22361" x="26.488" y="10.0391" width="3.64844" height="4.14844" filterUnits="userSpaceOnUse" color-interpolation-filters="sRGB">
<feFlood flood-opacity="0" result="BackgroundImageFix"/>
<feBlend mode="normal" in="SourceGraphic" in2="BackgroundImageFix" result="shape"/>
<feGaussianBlur stdDeviation="0.25" result="effect1_foregroundBlur_637_22361"/>
</filter>
<filter id="filter14_f_637_22361" x="15.3926" y="10.0391" width="3.64844" height="4.14844" filterUnits="userSpaceOnUse" color-interpolation-filters="sRGB">
<feFlood flood-opacity="0" result="BackgroundImageFix"/>
<feBlend mode="normal" in="SourceGraphic" in2="BackgroundImageFix" result="shape"/>
<feGaussianBlur stdDeviation="0.25" result="effect1_foregroundBlur_637_22361"/>
</filter>
<radialGradient id="paint0_radial_637_22361" cx="0" cy="0" r="1" gradientUnits="userSpaceOnUse" gradientTransform="translate(28.1584 20.5) rotate(136.338) scale(20.8211 20.8211)">
<stop stop-color="#FFC177"/>
<stop offset="0.284634" stop-color="#FF8D28"/>
<stop offset="0.610861" stop-color="#F4763D"/>
</radialGradient>
<radialGradient id="paint1_radial_637_22361" cx="0" cy="0" r="1" gradientUnits="userSpaceOnUse" gradientTransform="translate(37.2209 26.125) rotate(134.433) scale(4.46383 3.0354)">
<stop stop-color="#E78327"/>
<stop offset="1" stop-color="#F4953D" stop-opacity="0"/>
</radialGradient>
<radialGradient id="paint2_radial_637_22361" cx="0" cy="0" r="1" gradientUnits="userSpaceOnUse" gradientTransform="translate(9.9397 27.6875) rotate(32.6375) scale(3.30276 1.76965)">
<stop stop-color="#C9510E"/>
<stop offset="1" stop-color="#C9510E" stop-opacity="0"/>
</radialGradient>
<radialGradient id="paint3_radial_637_22361" cx="0" cy="0" r="1" gradientUnits="userSpaceOnUse" gradientTransform="translate(23.9884 27.875) rotate(-90) scale(13.4375 12.9825)">
<stop offset="0.795349" stop-color="#F46639" stop-opacity="0"/>
<stop offset="1" stop-color="#F46639"/>
</radialGradient>
<linearGradient id="paint4_linear_637_22361" x1="28.4741" y1="15.4062" x2="28.4741" y2="4.125" gradientUnits="userSpaceOnUse">
<stop stop-color="#FFB444"/>
<stop offset="1" stop-color="#FFB444" stop-opacity="0"/>
</linearGradient>
<linearGradient id="paint5_linear_637_22361" x1="29.4935" y1="8.63924" x2="30.0873" y2="13.664" gradientUnits="userSpaceOnUse">
<stop offset="0.191489" stop-color="#5F5254"/>
<stop offset="1" stop-color="#2E2127"/>
</linearGradient>
<linearGradient id="paint6_linear_637_22361" x1="30.0576" y1="11.084" x2="29.9569" y2="8.54435" gradientUnits="userSpaceOnUse">
<stop offset="0.146552" stop-color="#34222C" stop-opacity="0"/>
<stop offset="0.872727" stop-color="#34222C"/>
</linearGradient>
<linearGradient id="paint7_linear_637_22361" x1="31.2831" y1="15.2848" x2="31.2831" y2="12.5" gradientUnits="userSpaceOnUse">
<stop stop-color="#552D52"/>
<stop offset="1" stop-color="#552D52" stop-opacity="0"/>
</linearGradient>
<linearGradient id="paint8_linear_637_22361" x1="31.346" y1="21.75" x2="28.0335" y2="13.1875" gradientUnits="userSpaceOnUse">
<stop stop-color="#FC5737"/>
<stop offset="1" stop-color="#EF7E3F"/>
</linearGradient>
<linearGradient id="paint9_linear_637_22361" x1="33.0335" y1="20.7299" x2="30.9085" y2="15.6875" gradientUnits="userSpaceOnUse">
<stop stop-color="#E83525"/>
<stop offset="1" stop-color="#E83525" stop-opacity="0"/>
</linearGradient>
<linearGradient id="paint10_linear_637_22361" x1="32.7835" y1="15.6875" x2="30.6273" y2="15.6875" gradientUnits="userSpaceOnUse">
<stop stop-color="#E83525"/>
<stop offset="1" stop-color="#E83525" stop-opacity="0"/>
</linearGradient>
<linearGradient id="paint11_linear_637_22361" x1="33.2835" y1="12.5625" x2="30.346" y2="15.375" gradientUnits="userSpaceOnUse">
<stop stop-color="#BF5733"/>
<stop offset="1" stop-color="#BF5733" stop-opacity="0"/>
</linearGradient>
<radialGradient id="paint12_radial_637_22361" cx="0" cy="0" r="1" gradientUnits="userSpaceOnUse" gradientTransform="translate(26.7085 17.375) rotate(-22.746) scale(2.18223 4.8172)">
<stop stop-color="#FF894C"/>
<stop offset="1" stop-color="#FF894C" stop-opacity="0"/>
</radialGradient>
<linearGradient id="paint13_linear_637_22361" x1="26.7085" y1="14.4062" x2="28.0335" y2="15.3437" gradientUnits="userSpaceOnUse">
<stop stop-color="#FF894C"/>
<stop offset="1" stop-color="#FF894C" stop-opacity="0"/>
</linearGradient>
<linearGradient id="paint14_linear_637_22361" x1="28.4712" y1="26.5" x2="27.6458" y2="26.5" gradientUnits="userSpaceOnUse">
<stop offset="0.225" stop-color="#594C4F"/>
<stop offset="1" stop-color="#392833"/>
</linearGradient>
<linearGradient id="paint15_linear_637_22361" x1="28.7928" y1="28.5249" x2="28.7928" y2="26.9347" gradientUnits="userSpaceOnUse">
<stop stop-color="#552D52"/>
<stop offset="1" stop-color="#552D52" stop-opacity="0"/>
</linearGradient>
<linearGradient id="paint16_linear_637_22361" x1="20.8912" y1="26.5" x2="20.0658" y2="26.5" gradientUnits="userSpaceOnUse">
<stop offset="0.225" stop-color="#594C4F"/>
<stop offset="1" stop-color="#392833"/>
</linearGradient>
<linearGradient id="paint17_linear_637_22361" x1="21.2129" y1="28.5249" x2="21.2129" y2="26.9347" gradientUnits="userSpaceOnUse">
<stop stop-color="#552D52"/>
<stop offset="1" stop-color="#552D52" stop-opacity="0"/>
</linearGradient>
<linearGradient id="paint18_linear_637_22361" x1="16.7341" y1="17.5625" x2="16.7341" y2="6.28125" gradientUnits="userSpaceOnUse">
<stop stop-color="#FFB444"/>
<stop offset="1" stop-color="#FFB444" stop-opacity="0"/>
</linearGradient>
<linearGradient id="paint19_linear_637_22361" x1="18.4785" y1="8.65625" x2="19.0618" y2="13.6189" gradientUnits="userSpaceOnUse">
<stop offset="0.191489" stop-color="#5F5254"/>
<stop offset="1" stop-color="#2E2127"/>
</linearGradient>
<linearGradient id="paint20_linear_637_22361" x1="19.0386" y1="11.0704" x2="18.9398" y2="8.5625" gradientUnits="userSpaceOnUse">
<stop offset="0.146552" stop-color="#34222C" stop-opacity="0"/>
<stop offset="0.872727" stop-color="#34222C"/>
</linearGradient>
<linearGradient id="paint21_linear_637_22361" x1="20.2554" y1="15.2188" x2="20.2554" y2="12.4688" gradientUnits="userSpaceOnUse">
<stop stop-color="#552D52"/>
<stop offset="1" stop-color="#552D52" stop-opacity="0"/>
</linearGradient>
<radialGradient id="paint22_radial_637_22361" cx="0" cy="0" r="1" gradientUnits="userSpaceOnUse" gradientTransform="translate(30.2835 26.625) rotate(116.074) scale(14.3337 20.0167)">
<stop offset="0.0844541" stop-color="#FFDFA1"/>
<stop offset="1" stop-color="#EBA582"/>
</radialGradient>
<radialGradient id="paint23_radial_637_22361" cx="0" cy="0" r="1" gradientUnits="userSpaceOnUse" gradientTransform="translate(23.9835 28.99) rotate(90) scale(10.01 21.575)">
<stop offset="0.512987" stop-color="#D87DA0" stop-opacity="0"/>
<stop offset="1" stop-color="#D87DA0"/>
</radialGradient>
<radialGradient id="paint24_radial_637_22361" cx="0" cy="0" r="1" gradientUnits="userSpaceOnUse" gradientTransform="translate(23.9835 28.99) rotate(128.469) scale(13.5833 44.3384)">
<stop offset="0.588887" stop-color="#D87DA0" stop-opacity="0"/>
<stop offset="1" stop-color="#D87DA0"/>
</radialGradient>
<radialGradient id="paint25_radial_637_22361" cx="0" cy="0" r="1" gradientUnits="userSpaceOnUse" gradientTransform="translate(23.9835 28.99) rotate(90) scale(10.5725 16.07)">
<stop offset="0.7921" stop-color="#C55188" stop-opacity="0"/>
<stop offset="1" stop-color="#C55188"/>
</radialGradient>
<radialGradient id="paint26_radial_637_22361" cx="0" cy="0" r="1" gradientUnits="userSpaceOnUse" gradientTransform="translate(32.346 27.625) rotate(118.156) scale(5.03309 7.12647)">
<stop stop-color="#F9E58C"/>
<stop offset="1" stop-color="#F9E58C" stop-opacity="0"/>
</radialGradient>
<radialGradient id="paint27_radial_637_22361" cx="0" cy="0" r="1" gradientUnits="userSpaceOnUse" gradientTransform="translate(17.721 39.1875) rotate(-46.0662) scale(9.026 11.2593)">
<stop stop-color="#D87DA0"/>
<stop offset="1" stop-color="#D87DA0" stop-opacity="0"/>
</radialGradient>
<radialGradient id="paint28_radial_637_22361" cx="0" cy="0" r="1" gradientUnits="userSpaceOnUse" gradientTransform="translate(21.7485 32.2015) rotate(54.3924) scale(2.97885 3.73897)">
<stop stop-color="#261317"/>
<stop offset="0.588542" stop-color="#4E4647"/>
<stop offset="0.747451" stop-color="#2F172A"/>
</radialGradient>
<radialGradient id="paint29_radial_637_22361" cx="0" cy="0" r="1" gradientUnits="userSpaceOnUse" gradientTransform="translate(22.561 33.264) rotate(-128.517) scale(0.978529 1.62106)">
<stop stop-color="#261317"/>
<stop offset="1" stop-color="#261317" stop-opacity="0"/>
</radialGradient>
<linearGradient id="paint30_linear_637_22361" x1="23.8423" y1="32.5296" x2="23.1392" y2="33.5452" gradientUnits="userSpaceOnUse">
<stop stop-color="#2F172A"/>
<stop offset="1" stop-color="#2F172A" stop-opacity="0"/>
</linearGradient>
<radialGradient id="paint31_radial_637_22361" cx="0" cy="0" r="1" gradientUnits="userSpaceOnUse" gradientTransform="translate(26.4673 32.2796) rotate(122.471) scale(3.05588 4.35358)">
<stop stop-color="#261317"/>
<stop offset="0.588542" stop-color="#4E4647"/>
<stop offset="0.747451" stop-color="#2F172A"/>
</radialGradient>
<radialGradient id="paint32_radial_637_22361" cx="0" cy="0" r="1" gradientUnits="userSpaceOnUse" gradientTransform="translate(25.686 32.4984) rotate(135.988) scale(1.28182 2.1235)">
<stop stop-color="#261317"/>
<stop offset="1" stop-color="#261317" stop-opacity="0"/>
</radialGradient>
<linearGradient id="paint33_linear_637_22361" x1="25.0884" y1="28.7524" x2="22.5549" y2="30.9931" gradientUnits="userSpaceOnUse">
<stop offset="0.191489" stop-color="#5F5254"/>
<stop offset="1" stop-color="#2E2127"/>
</linearGradient>
<radialGradient id="paint34_radial_637_22361" cx="0" cy="0" r="1" gradientUnits="userSpaceOnUse" gradientTransform="translate(24.2719 29.5399) rotate(132.349) scale(1.80048 3.30126)">
<stop offset="0.462647" stop-color="#34222C" stop-opacity="0"/>
<stop offset="0.955607" stop-color="#34222C"/>
</radialGradient>
<linearGradient id="paint35_linear_637_22361" x1="24.3032" y1="29.7664" x2="24.3032" y2="28.3776" gradientUnits="userSpaceOnUse">
<stop offset="0.146552" stop-color="#34222C" stop-opacity="0"/>
<stop offset="0.872727" stop-color="#34222C"/>
</linearGradient>
<linearGradient id="paint36_linear_637_22361" x1="24.9974" y1="32.0956" x2="24.9974" y2="29.996" gradientUnits="userSpaceOnUse">
<stop stop-color="#552D52"/>
<stop offset="1" stop-color="#552D52" stop-opacity="0"/>
</linearGradient>
<linearGradient id="paint37_linear_637_22361" x1="20.108" y1="21.7624" x2="16.3261" y2="14.3852" gradientUnits="userSpaceOnUse">
<stop stop-color="#FC5737"/>
<stop offset="1" stop-color="#EF7E3F"/>
</linearGradient>
<linearGradient id="paint38_linear_637_22361" x1="21.2385" y1="19.0625" x2="18.3481" y2="15.4458" gradientUnits="userSpaceOnUse">
<stop offset="0.139209" stop-color="#E83525"/>
<stop offset="1" stop-color="#E83525" stop-opacity="0"/>
</linearGradient>
<linearGradient id="paint39_linear_637_22361" x1="21.543" y1="15.6861" x2="19.3905" y2="15.6861" gradientUnits="userSpaceOnUse">
<stop stop-color="#E83525"/>
<stop offset="1" stop-color="#E83525" stop-opacity="0"/>
</linearGradient>
<linearGradient id="paint40_linear_637_22361" x1="21.2385" y1="13.875" x2="19.1038" y2="15.3644" gradientUnits="userSpaceOnUse">
<stop stop-color="#BF5733"/>
<stop offset="1" stop-color="#BF5733" stop-opacity="0"/>
</linearGradient>
<radialGradient id="paint41_radial_637_22361" cx="0" cy="0" r="1" gradientUnits="userSpaceOnUse" gradientTransform="translate(14.096 15.125) rotate(10.6197) scale(3.05228 12.7697)">
<stop stop-color="#FF894C"/>
<stop offset="1" stop-color="#FF894C" stop-opacity="0"/>
</radialGradient>
<linearGradient id="paint42_linear_637_22361" x1="15.4785" y1="14.402" x2="17.6004" y2="15.5545" gradientUnits="userSpaceOnUse">
<stop stop-color="#FF894C"/>
<stop offset="1" stop-color="#FF894C" stop-opacity="0"/>
</linearGradient>
<linearGradient id="paint43_linear_637_22361" x1="37.2053" y1="27.6094" x2="34.7834" y2="29.125" gradientUnits="userSpaceOnUse">
<stop offset="0.211043" stop-color="#FFCB8C"/>
<stop offset="1" stop-color="#FFCB8C" stop-opacity="0"/>
</linearGradient>
<linearGradient id="paint44_linear_637_22361" x1="10.9315" y1="27.6094" x2="14.6273" y2="29.875" gradientUnits="userSpaceOnUse">
<stop offset="0.211043" stop-color="#FFD199"/>
<stop offset="1" stop-color="#FFCB8C" stop-opacity="0"/>
</linearGradient>
<linearGradient id="paint45_linear_637_22361" x1="29.5115" y1="10.6641" x2="27.2458" y2="13.6719" gradientUnits="userSpaceOnUse">
<stop stop-color="#665D5F"/>
<stop offset="1" stop-color="#665D5F" stop-opacity="0"/>
</linearGradient>
<linearGradient id="paint46_linear_637_22361" x1="18.416" y1="10.6641" x2="16.1504" y2="13.6719" gradientUnits="userSpaceOnUse">
<stop stop-color="#665D5F"/>
<stop offset="1" stop-color="#665D5F" stop-opacity="0"/>
</linearGradient>
</defs>
</svg>
