<svg width="48" height="48" viewBox="0 0 48 48" fill="none" xmlns="http://www.w3.org/2000/svg">
<rect width="48" height="48" rx="24" fill="#F2F5FF"/>
<path d="M35.9617 32.0652V12.4219C35.9617 10.9844 34.6257 10.2813 33.532 11.2969L29.5184 15.2491C29.3313 15.4333 29.0793 15.5366 28.8167 15.5366H19.2204C18.9578 15.5366 18.7058 15.4333 18.5188 15.2491L14.5051 11.2969C13.4114 10.2813 12.0754 10.9844 12.0754 12.4219V32.0652C12.0754 34.277 13.8354 36.0703 16.006 36.0703H32.0312C34.2018 36.0703 35.9617 34.277 35.9617 32.0652Z" fill="url(#paint0_linear_637_22390)"/>
<path d="M35.9617 32.0652V12.4219C35.9617 10.9844 34.6257 10.2813 33.532 11.2969L29.5184 15.2491C29.3313 15.4333 29.0793 15.5366 28.8167 15.5366H19.2204C18.9578 15.5366 18.7058 15.4333 18.5188 15.2491L14.5051 11.2969C13.4114 10.2813 12.0754 10.9844 12.0754 12.4219V32.0652C12.0754 34.277 13.8354 36.0703 16.006 36.0703H32.0312C34.2018 36.0703 35.9617 34.277 35.9617 32.0652Z" fill="url(#paint1_linear_637_22390)"/>
<path d="M35.9617 32.0652V12.4219C35.9617 10.9844 34.6257 10.2813 33.532 11.2969L29.5184 15.2491C29.3313 15.4333 29.0793 15.5366 28.8167 15.5366H19.2204C18.9578 15.5366 18.7058 15.4333 18.5188 15.2491L14.5051 11.2969C13.4114 10.2813 12.0754 10.9844 12.0754 12.4219V32.0652C12.0754 34.277 13.8354 36.0703 16.006 36.0703H32.0312C34.2018 36.0703 35.9617 34.277 35.9617 32.0652Z" fill="url(#paint2_linear_637_22390)"/>
<path d="M35.9617 32.0652V12.4219C35.9617 10.9844 34.6257 10.2813 33.532 11.2969L29.5184 15.2491C29.3313 15.4333 29.0793 15.5366 28.8167 15.5366H19.2204C18.9578 15.5366 18.7058 15.4333 18.5188 15.2491L14.5051 11.2969C13.4114 10.2813 12.0754 10.9844 12.0754 12.4219V32.0652C12.0754 34.277 13.8354 36.0703 16.006 36.0703H32.0312C34.2018 36.0703 35.9617 34.277 35.9617 32.0652Z" fill="url(#paint3_linear_637_22390)"/>
<path d="M35.9617 32.0652V12.4219C35.9617 10.9844 34.6257 10.2813 33.532 11.2969L29.5184 15.2491C29.3313 15.4333 29.0793 15.5366 28.8167 15.5366H19.2204C18.9578 15.5366 18.7058 15.4333 18.5188 15.2491L14.5051 11.2969C13.4114 10.2813 12.0754 10.9844 12.0754 12.4219V32.0652C12.0754 34.277 13.8354 36.0703 16.006 36.0703H32.0312C34.2018 36.0703 35.9617 34.277 35.9617 32.0652Z" fill="url(#paint4_linear_637_22390)"/>
<path d="M35.9617 32.0652V12.4219C35.9617 10.9844 34.6257 10.2813 33.532 11.2969L29.5184 15.2491C29.3313 15.4333 29.0793 15.5366 28.8167 15.5366H19.2204C18.9578 15.5366 18.7058 15.4333 18.5188 15.2491L14.5051 11.2969C13.4114 10.2813 12.0754 10.9844 12.0754 12.4219V32.0652C12.0754 34.277 13.8354 36.0703 16.006 36.0703H32.0312C34.2018 36.0703 35.9617 34.277 35.9617 32.0652Z" fill="url(#paint5_radial_637_22390)"/>
<g filter="url(#filter0_f_637_22390)">
<rect x="13.0541" y="27.8203" width="2.72692" height="3.69801" rx="1.36346" fill="#D67908"/>
</g>
<g filter="url(#filter1_f_637_22390)">
<path d="M28.7508 16.2007C25.7675 16.3082 33.9773 21.1544 33.9773 21.1544L35.1023 12.0919C35.157 11.631 34.7382 11.1384 33.8523 11.961C33.8523 11.961 30.0258 15.729 29.8387 15.9132C29.6516 16.0974 29.4307 16.1621 29.1371 16.2007C28.9875 16.2203 28.9015 16.1952 28.7508 16.2007Z" fill="url(#paint6_linear_637_22390)"/>
</g>
<path d="M14.1326 19.5034L16.9326 16.9034C17.2526 16.6034 17.2526 16.1234 16.9326 15.8334L13.9179 13.1563C13.5351 12.8203 12.7426 12.9297 12.7426 13.7634V18.9634C12.7426 19.7969 13.6226 19.9834 14.1326 19.5034Z" fill="url(#paint7_linear_637_22390)"/>
<g filter="url(#filter2_f_637_22390)">
<path d="M34.4908 11.6518C34.5487 11.5082 34.6881 11.4141 34.843 11.4141C35.0528 11.4141 35.2229 11.5841 35.2229 11.7939V14.0391L33.8054 13.3516L34.4908 11.6518Z" fill="url(#paint8_linear_637_22390)"/>
</g>
<g filter="url(#filter3_f_637_22390)">
<path d="M13.446 11.7266L16.821 14.9461C17.5751 15.6655 17.5892 16.8646 16.8523 17.6016V17.6016" stroke="#FFDF70" stroke-linecap="round"/>
</g>
<g filter="url(#filter4_f_637_22390)">
<path d="M22.8054 26.6503L22.8697 26.6353C23.3433 26.5248 23.8365 26.53 24.3077 26.6503C24.8288 26.7484 25.1399 27.3458 24.6999 27.7758L24.1491 28.3773C23.8791 28.6473 23.2863 28.6473 23.0163 28.3773L22.4733 27.7758C22.0241 27.2679 22.3054 26.7601 22.8054 26.6503Z" fill="url(#paint9_linear_637_22390)"/>
</g>
<path d="M23.2265 26.2066L23.2908 26.1916C23.7644 26.0811 24.2577 26.0862 24.7289 26.2066C25.25 26.3047 25.561 26.902 25.121 27.332L24.5703 27.9336C24.3003 28.2036 23.7075 28.2036 23.4375 27.9336L22.8945 27.332C22.4453 26.8242 22.7265 26.3164 23.2265 26.2066Z" fill="url(#paint10_radial_637_22390)"/>
<g filter="url(#filter5_f_637_22390)">
<ellipse cx="24.2703" cy="26.7414" rx="0.761719" ry="0.274258" fill="url(#paint11_linear_637_22390)"/>
</g>
<g filter="url(#filter6_f_637_22390)">
<path d="M32.7852 28.8922L36.5898 27.0797" stroke="url(#paint12_linear_637_22390)" stroke-width="1.2" stroke-miterlimit="10" stroke-linecap="round"/>
</g>
<g filter="url(#filter7_f_637_22390)">
<path d="M32.7852 30.9235L34.7118 32.2891" stroke="url(#paint13_linear_637_22390)" stroke-width="1.2" stroke-miterlimit="10" stroke-linecap="round"/>
</g>
<path d="M33.5664 28.5391L37.3711 26.7266" stroke="url(#paint14_linear_637_22390)" stroke-width="1.2" stroke-miterlimit="10" stroke-linecap="round"/>
<g filter="url(#filter8_f_637_22390)">
<path d="M33.5664 28.7109L37.3711 26.8984" stroke="#FF8485" stroke-width="0.3" stroke-miterlimit="10" stroke-linecap="round"/>
</g>
<g filter="url(#filter9_f_637_22390)">
<ellipse cx="37.6059" cy="26.5805" rx="0.18384" ry="0.165827" transform="rotate(-22.7455 37.6059 26.5805)" fill="#FFDD86"/>
</g>
<path d="M33.5636 30.6692L37.3651 32.4883" stroke="url(#paint15_linear_637_22390)" stroke-width="1.2" stroke-miterlimit="10" stroke-linecap="round"/>
<g filter="url(#filter10_f_637_22390)">
<path d="M33.4984 30.5491L37.3 32.3682" stroke="#FF8485" stroke-width="0.3" stroke-miterlimit="10" stroke-linecap="round"/>
</g>
<g filter="url(#filter11_f_637_22390)">
<ellipse cx="37.5404" cy="32.3682" rx="0.18384" ry="0.165827" transform="rotate(28.2981 37.5404 32.3682)" fill="#FFDD86"/>
</g>
<path d="M14.5281 30.681L10.7265 32.5" stroke="url(#paint16_linear_637_22390)" stroke-width="1.2" stroke-miterlimit="10" stroke-linecap="round"/>
<g filter="url(#filter12_f_637_22390)">
<path d="M14.5933 30.5608L10.7917 32.3799" stroke="#FF8485" stroke-width="0.3" stroke-miterlimit="10" stroke-linecap="round"/>
</g>
<g filter="url(#filter13_f_637_22390)">
<ellipse rx="0.18384" ry="0.165827" transform="matrix(-0.942776 -0.333427 -0.333427 0.942776 14.6461 30.505)" fill="#FFDD86"/>
</g>
<path d="M14.5397 28.5243L10.7261 26.7305" stroke="url(#paint17_linear_637_22390)" stroke-width="1.2" stroke-miterlimit="10" stroke-linecap="round"/>
<g filter="url(#filter14_f_637_22390)">
<path d="M14.674 28.4989L10.8604 26.7052" stroke="#FF8485" stroke-width="0.3" stroke-miterlimit="10" stroke-linecap="round"/>
</g>
<g filter="url(#filter15_f_637_22390)">
<ellipse rx="0.18384" ry="0.165827" transform="matrix(-0.338111 -0.941106 -0.941106 0.338111 14.7508 28.5044)" fill="#FFDD86"/>
</g>
<path d="M28.418 29.0547C28.418 31.4947 26.4361 33.3906 23.9961 33.3906C21.5561 33.3906 19.6836 31.4478 19.6836 29.0078C19.6836 29.0078 21.4883 31.1406 23.9961 29.0078C26.3477 31.0859 28.418 29.0547 28.418 29.0547Z" fill="url(#paint18_linear_637_22390)"/>
<g filter="url(#filter16_f_637_22390)">
<path d="M27.4317 26.4682C27.0065 26.4682 26.6564 26.1251 26.6564 25.7086V24.2872C26.6564 23.8707 27.0065 23.5276 27.4317 23.5276C27.8569 23.5276 28.207 23.8707 28.207 24.2872V25.7086C28.207 26.1374 27.8569 26.4682 27.4317 26.4682Z" fill="url(#paint19_linear_637_22390)"/>
</g>
<path d="M27.9707 26.0859C27.5456 26.0859 27.1954 25.7428 27.1954 25.3262V23.9049C27.1954 23.4883 27.5456 23.1453 27.9707 23.1453C28.3959 23.1453 28.7461 23.4883 28.7461 23.9049V25.3262C28.7461 25.7551 28.3959 26.0859 27.9707 26.0859Z" fill="url(#paint20_linear_637_22390)"/>
<path d="M27.9707 26.0859C27.5456 26.0859 27.1954 25.7428 27.1954 25.3262V23.9049C27.1954 23.4883 27.5456 23.1453 27.9707 23.1453C28.3959 23.1453 28.7461 23.4883 28.7461 23.9049V25.3262C28.7461 25.7551 28.3959 26.0859 27.9707 26.0859Z" fill="url(#paint21_linear_637_22390)"/>
<g filter="url(#filter17_f_637_22390)">
<path d="M19.6054 26.4682C19.1802 26.4682 18.8301 26.1251 18.8301 25.7086V24.2872C18.8301 23.8707 19.1802 23.5276 19.6054 23.5276C20.0306 23.5276 20.3807 23.8707 20.3807 24.2872V25.7086C20.3807 26.1374 20.0306 26.4682 19.6054 26.4682Z" fill="url(#paint22_linear_637_22390)"/>
</g>
<path d="M20.029 26.0859C19.6038 26.0859 19.2537 25.7428 19.2537 25.3262V23.9049C19.2537 23.4883 19.6038 23.1453 20.029 23.1453C20.4541 23.1453 20.8043 23.4883 20.8043 23.9049V25.3262C20.8043 25.7551 20.4541 26.0859 20.029 26.0859Z" fill="url(#paint23_linear_637_22390)"/>
<path d="M20.029 26.0859C19.6038 26.0859 19.2537 25.7428 19.2537 25.3262V23.9049C19.2537 23.4883 19.6038 23.1453 20.029 23.1453C20.4541 23.1453 20.8043 23.4883 20.8043 23.9049V25.3262C20.8043 25.7551 20.4541 26.0859 20.029 26.0859Z" fill="url(#paint24_linear_637_22390)"/>
<g filter="url(#filter18_f_637_22390)">
<circle cx="28.2069" cy="23.7638" r="0.236228" fill="#775B70"/>
</g>
<g filter="url(#filter19_f_637_22390)">
<circle cx="20.2653" cy="23.7638" r="0.236228" fill="#775B70"/>
</g>
<g filter="url(#filter20_f_637_22390)">
<rect x="30.1023" y="16.1016" width="4.5851" height="14.1857" fill="url(#paint25_linear_637_22390)"/>
</g>
<path d="M33.8329 19.5034L31.0329 16.9034C30.7129 16.6034 30.7129 16.1234 31.0329 15.8334L34.0476 13.1563C34.4304 12.8203 35.2229 12.9297 35.2229 13.7634V18.9634C35.2229 19.7969 34.3429 19.9834 33.8329 19.5034Z" fill="#FFB915"/>
<path d="M33.8329 19.5034L31.0329 16.9034C30.7129 16.6034 30.7129 16.1234 31.0329 15.8334L34.0476 13.1563C34.4304 12.8203 35.2229 12.9297 35.2229 13.7634V18.9634C35.2229 19.7969 34.3429 19.9834 33.8329 19.5034Z" fill="url(#paint26_linear_637_22390)"/>
<g filter="url(#filter21_f_637_22390)">
<path d="M34.6335 13.3672L31.0085 16.4922L34.5554 19.3047L34.6335 13.3672Z" fill="url(#paint27_radial_637_22390)"/>
</g>
<g filter="url(#filter22_f_637_22390)">
<path d="M31.7273 16.2891L34.2585 19.0234" stroke="url(#paint28_linear_637_22390)" stroke-width="0.5" stroke-linecap="round"/>
</g>
<g filter="url(#filter23_f_637_22390)">
<path d="M13.2233 13.4993V19.407L16.692 16.3176L13.2233 13.4993Z" fill="#FEB33E"/>
</g>
<g filter="url(#filter24_f_637_22390)">
<path d="M13.2233 13.7266V18.9141" stroke="#FFE7A3" stroke-width="0.15" stroke-linecap="round"/>
</g>
<defs>
<filter id="filter0_f_637_22390" x="11.5541" y="26.3203" width="5.72693" height="6.698" filterUnits="userSpaceOnUse" color-interpolation-filters="sRGB">
<feFlood flood-opacity="0" result="BackgroundImageFix"/>
<feBlend mode="normal" in="SourceGraphic" in2="BackgroundImageFix" result="shape"/>
<feGaussianBlur stdDeviation="0.75" result="effect1_foregroundBlur_637_22390"/>
</filter>
<filter id="filter1_f_637_22390" x="27.098" y="10.5188" width="9.00903" height="11.6356" filterUnits="userSpaceOnUse" color-interpolation-filters="sRGB">
<feFlood flood-opacity="0" result="BackgroundImageFix"/>
<feBlend mode="normal" in="SourceGraphic" in2="BackgroundImageFix" result="shape"/>
<feGaussianBlur stdDeviation="0.5" result="effect1_foregroundBlur_637_22390"/>
</filter>
<filter id="filter2_f_637_22390" x="32.8054" y="10.4141" width="3.41748" height="4.625" filterUnits="userSpaceOnUse" color-interpolation-filters="sRGB">
<feFlood flood-opacity="0" result="BackgroundImageFix"/>
<feBlend mode="normal" in="SourceGraphic" in2="BackgroundImageFix" result="shape"/>
<feGaussianBlur stdDeviation="0.5" result="effect1_foregroundBlur_637_22390"/>
</filter>
<filter id="filter3_f_637_22390" x="10.946" y="9.22656" width="8.94983" height="10.7285" filterUnits="userSpaceOnUse" color-interpolation-filters="sRGB">
<feFlood flood-opacity="0" result="BackgroundImageFix"/>
<feBlend mode="normal" in="SourceGraphic" in2="BackgroundImageFix" result="shape"/>
<feGaussianBlur stdDeviation="1" result="effect1_foregroundBlur_637_22390"/>
</filter>
<filter id="filter4_f_637_22390" x="21.7482" y="26.056" width="3.66138" height="3.0238" filterUnits="userSpaceOnUse" color-interpolation-filters="sRGB">
<feFlood flood-opacity="0" result="BackgroundImageFix"/>
<feBlend mode="normal" in="SourceGraphic" in2="BackgroundImageFix" result="shape"/>
<feGaussianBlur stdDeviation="0.25" result="effect1_foregroundBlur_637_22390"/>
</filter>
<filter id="filter5_f_637_22390" x="22.9085" y="25.8672" width="2.72344" height="1.74846" filterUnits="userSpaceOnUse" color-interpolation-filters="sRGB">
<feFlood flood-opacity="0" result="BackgroundImageFix"/>
<feBlend mode="normal" in="SourceGraphic" in2="BackgroundImageFix" result="shape"/>
<feGaussianBlur stdDeviation="0.3" result="effect1_foregroundBlur_637_22390"/>
</filter>
<filter id="filter6_f_637_22390" x="31.6851" y="25.9796" width="6.00488" height="4.0127" filterUnits="userSpaceOnUse" color-interpolation-filters="sRGB">
<feFlood flood-opacity="0" result="BackgroundImageFix"/>
<feBlend mode="normal" in="SourceGraphic" in2="BackgroundImageFix" result="shape"/>
<feGaussianBlur stdDeviation="0.25" result="effect1_foregroundBlur_637_22390"/>
</filter>
<filter id="filter7_f_637_22390" x="31.6851" y="29.8235" width="4.12671" height="3.56567" filterUnits="userSpaceOnUse" color-interpolation-filters="sRGB">
<feFlood flood-opacity="0" result="BackgroundImageFix"/>
<feBlend mode="normal" in="SourceGraphic" in2="BackgroundImageFix" result="shape"/>
<feGaussianBlur stdDeviation="0.25" result="effect1_foregroundBlur_637_22390"/>
</filter>
<filter id="filter8_f_637_22390" x="32.9164" y="26.2484" width="5.10474" height="3.11255" filterUnits="userSpaceOnUse" color-interpolation-filters="sRGB">
<feFlood flood-opacity="0" result="BackgroundImageFix"/>
<feBlend mode="normal" in="SourceGraphic" in2="BackgroundImageFix" result="shape"/>
<feGaussianBlur stdDeviation="0.25" result="effect1_foregroundBlur_637_22390"/>
</filter>
<filter id="filter9_f_637_22390" x="36.9246" y="25.9119" width="1.36255" height="1.33728" filterUnits="userSpaceOnUse" color-interpolation-filters="sRGB">
<feFlood flood-opacity="0" result="BackgroundImageFix"/>
<feBlend mode="normal" in="SourceGraphic" in2="BackgroundImageFix" result="shape"/>
<feGaussianBlur stdDeviation="0.25" result="effect1_foregroundBlur_637_22390"/>
</filter>
<filter id="filter10_f_637_22390" x="32.8484" y="29.899" width="5.10156" height="3.11914" filterUnits="userSpaceOnUse" color-interpolation-filters="sRGB">
<feFlood flood-opacity="0" result="BackgroundImageFix"/>
<feBlend mode="normal" in="SourceGraphic" in2="BackgroundImageFix" result="shape"/>
<feGaussianBlur stdDeviation="0.25" result="effect1_foregroundBlur_637_22390"/>
</filter>
<filter id="filter11_f_637_22390" x="36.8605" y="31.6981" width="1.35999" height="1.34009" filterUnits="userSpaceOnUse" color-interpolation-filters="sRGB">
<feFlood flood-opacity="0" result="BackgroundImageFix"/>
<feBlend mode="normal" in="SourceGraphic" in2="BackgroundImageFix" result="shape"/>
<feGaussianBlur stdDeviation="0.25" result="effect1_foregroundBlur_637_22390"/>
</filter>
<filter id="filter12_f_637_22390" x="10.1417" y="29.9108" width="5.10156" height="3.11914" filterUnits="userSpaceOnUse" color-interpolation-filters="sRGB">
<feFlood flood-opacity="0" result="BackgroundImageFix"/>
<feBlend mode="normal" in="SourceGraphic" in2="BackgroundImageFix" result="shape"/>
<feGaussianBlur stdDeviation="0.25" result="effect1_foregroundBlur_637_22390"/>
</filter>
<filter id="filter13_f_637_22390" x="13.9641" y="29.837" width="1.36401" height="1.33594" filterUnits="userSpaceOnUse" color-interpolation-filters="sRGB">
<feFlood flood-opacity="0" result="BackgroundImageFix"/>
<feBlend mode="normal" in="SourceGraphic" in2="BackgroundImageFix" result="shape"/>
<feGaussianBlur stdDeviation="0.25" result="effect1_foregroundBlur_637_22390"/>
</filter>
<filter id="filter14_f_637_22390" x="10.2103" y="26.0552" width="5.11365" height="3.09375" filterUnits="userSpaceOnUse" color-interpolation-filters="sRGB">
<feFlood flood-opacity="0" result="BackgroundImageFix"/>
<feBlend mode="normal" in="SourceGraphic" in2="BackgroundImageFix" result="shape"/>
<feGaussianBlur stdDeviation="0.25" result="effect1_foregroundBlur_637_22390"/>
</filter>
<filter id="filter15_f_637_22390" x="14.0828" y="27.8225" width="1.33606" height="1.36377" filterUnits="userSpaceOnUse" color-interpolation-filters="sRGB">
<feFlood flood-opacity="0" result="BackgroundImageFix"/>
<feBlend mode="normal" in="SourceGraphic" in2="BackgroundImageFix" result="shape"/>
<feGaussianBlur stdDeviation="0.25" result="effect1_foregroundBlur_637_22390"/>
</filter>
<filter id="filter16_f_637_22390" x="26.1564" y="23.0276" width="2.55066" height="3.94067" filterUnits="userSpaceOnUse" color-interpolation-filters="sRGB">
<feFlood flood-opacity="0" result="BackgroundImageFix"/>
<feBlend mode="normal" in="SourceGraphic" in2="BackgroundImageFix" result="shape"/>
<feGaussianBlur stdDeviation="0.25" result="effect1_foregroundBlur_637_22390"/>
</filter>
<filter id="filter17_f_637_22390" x="18.3301" y="23.0276" width="2.55066" height="3.94067" filterUnits="userSpaceOnUse" color-interpolation-filters="sRGB">
<feFlood flood-opacity="0" result="BackgroundImageFix"/>
<feBlend mode="normal" in="SourceGraphic" in2="BackgroundImageFix" result="shape"/>
<feGaussianBlur stdDeviation="0.25" result="effect1_foregroundBlur_637_22390"/>
</filter>
<filter id="filter18_f_637_22390" x="27.4707" y="23.0276" width="1.47241" height="1.47241" filterUnits="userSpaceOnUse" color-interpolation-filters="sRGB">
<feFlood flood-opacity="0" result="BackgroundImageFix"/>
<feBlend mode="normal" in="SourceGraphic" in2="BackgroundImageFix" result="shape"/>
<feGaussianBlur stdDeviation="0.25" result="effect1_foregroundBlur_637_22390"/>
</filter>
<filter id="filter19_f_637_22390" x="19.5291" y="23.0276" width="1.47241" height="1.47241" filterUnits="userSpaceOnUse" color-interpolation-filters="sRGB">
<feFlood flood-opacity="0" result="BackgroundImageFix"/>
<feBlend mode="normal" in="SourceGraphic" in2="BackgroundImageFix" result="shape"/>
<feGaussianBlur stdDeviation="0.25" result="effect1_foregroundBlur_637_22390"/>
</filter>
<filter id="filter20_f_637_22390" x="26.1023" y="12.1016" width="12.5851" height="22.1857" filterUnits="userSpaceOnUse" color-interpolation-filters="sRGB">
<feFlood flood-opacity="0" result="BackgroundImageFix"/>
<feBlend mode="normal" in="SourceGraphic" in2="BackgroundImageFix" result="shape"/>
<feGaussianBlur stdDeviation="2" result="effect1_foregroundBlur_637_22390"/>
</filter>
<filter id="filter21_f_637_22390" x="30.4085" y="12.7672" width="4.825" height="7.1375" filterUnits="userSpaceOnUse" color-interpolation-filters="sRGB">
<feFlood flood-opacity="0" result="BackgroundImageFix"/>
<feBlend mode="normal" in="SourceGraphic" in2="BackgroundImageFix" result="shape"/>
<feGaussianBlur stdDeviation="0.3" result="effect1_foregroundBlur_637_22390"/>
</filter>
<filter id="filter22_f_637_22390" x="30.7273" y="15.2891" width="4.53125" height="4.73438" filterUnits="userSpaceOnUse" color-interpolation-filters="sRGB">
<feFlood flood-opacity="0" result="BackgroundImageFix"/>
<feBlend mode="normal" in="SourceGraphic" in2="BackgroundImageFix" result="shape"/>
<feGaussianBlur stdDeviation="0.375" result="effect1_foregroundBlur_637_22390"/>
</filter>
<filter id="filter23_f_637_22390" x="12.7233" y="12.9993" width="4.46875" height="6.90771" filterUnits="userSpaceOnUse" color-interpolation-filters="sRGB">
<feFlood flood-opacity="0" result="BackgroundImageFix"/>
<feBlend mode="normal" in="SourceGraphic" in2="BackgroundImageFix" result="shape"/>
<feGaussianBlur stdDeviation="0.25" result="effect1_foregroundBlur_637_22390"/>
</filter>
<filter id="filter24_f_637_22390" x="12.6483" y="13.1516" width="1.1499" height="6.3374" filterUnits="userSpaceOnUse" color-interpolation-filters="sRGB">
<feFlood flood-opacity="0" result="BackgroundImageFix"/>
<feBlend mode="normal" in="SourceGraphic" in2="BackgroundImageFix" result="shape"/>
<feGaussianBlur stdDeviation="0.25" result="effect1_foregroundBlur_637_22390"/>
</filter>
<linearGradient id="paint0_linear_637_22390" x1="15.9636" y1="7.13036" x2="15.9636" y2="37.0703" gradientUnits="userSpaceOnUse">
<stop offset="0.288159" stop-color="#F2CC26"/>
<stop offset="0.762024" stop-color="#E99E20"/>
<stop offset="0.9925" stop-color="#E3821D"/>
<stop offset="1" stop-color="#E3801D"/>
</linearGradient>
<linearGradient id="paint1_linear_637_22390" x1="16.8836" y1="17.9216" x2="9.25856" y2="17.9216" gradientUnits="userSpaceOnUse">
<stop stop-color="#E99E20" stop-opacity="0"/>
<stop offset="0.9925" stop-color="#E3821D"/>
<stop offset="1" stop-color="#E3801D"/>
</linearGradient>
<linearGradient id="paint2_linear_637_22390" x1="34.7586" y1="17.9216" x2="38.1961" y2="17.9216" gradientUnits="userSpaceOnUse">
<stop stop-color="#E99E20" stop-opacity="0"/>
<stop offset="0.9925" stop-color="#E3821D"/>
<stop offset="1" stop-color="#E3801D"/>
</linearGradient>
<linearGradient id="paint3_linear_637_22390" x1="24.0195" y1="4.15622" x2="24.0186" y2="37.0703" gradientUnits="userSpaceOnUse">
<stop offset="0.77079" stop-color="#F59639" stop-opacity="0"/>
<stop offset="1" stop-color="#FF63C4"/>
</linearGradient>
<linearGradient id="paint4_linear_637_22390" x1="24.0186" y1="17.1328" x2="24.0186" y2="38.5703" gradientUnits="userSpaceOnUse">
<stop offset="0.854227" stop-color="white" stop-opacity="0"/>
<stop offset="0.985362" stop-color="white"/>
</linearGradient>
<radialGradient id="paint5_radial_637_22390" cx="0" cy="0" r="1" gradientUnits="userSpaceOnUse" gradientTransform="translate(30.1648 10.2891) rotate(55.8501) scale(5.39983 10.6704)">
<stop stop-color="#FFA720"/>
<stop offset="0.921158" stop-color="#FFA720" stop-opacity="0"/>
</radialGradient>
<linearGradient id="paint6_linear_637_22390" x1="29.9081" y1="12.8516" x2="36.1649" y2="19.6953" gradientUnits="userSpaceOnUse">
<stop stop-color="#FFA720"/>
<stop offset="1" stop-color="#FFA720" stop-opacity="0"/>
</linearGradient>
<linearGradient id="paint7_linear_637_22390" x1="18.6023" y1="16.6172" x2="12.7426" y2="16.0703" gradientUnits="userSpaceOnUse">
<stop offset="0.437473" stop-color="#ED8C1B"/>
<stop offset="1" stop-color="#FFB03A"/>
</linearGradient>
<linearGradient id="paint8_linear_637_22390" x1="35.0398" y1="10.9609" x2="34.4437" y2="13.3024" gradientUnits="userSpaceOnUse">
<stop offset="0.28598" stop-color="#FFE792"/>
<stop offset="1" stop-color="#FFDD65" stop-opacity="0"/>
</linearGradient>
<linearGradient id="paint9_linear_637_22390" x1="23.7507" y1="28.3512" x2="23.0789" y2="29.445" gradientUnits="userSpaceOnUse">
<stop stop-color="#E3900E"/>
<stop offset="1" stop-color="#EA9D26" stop-opacity="0"/>
</linearGradient>
<radialGradient id="paint10_radial_637_22390" cx="0" cy="0" r="1" gradientUnits="userSpaceOnUse" gradientTransform="translate(24.4461 27.1797) rotate(-153.246) scale(2.11729 2.12981)">
<stop stop-color="#EA088B"/>
<stop offset="1" stop-color="#E61E27"/>
</radialGradient>
<linearGradient id="paint11_linear_637_22390" x1="25.2035" y1="26.7414" x2="23.6801" y2="26.7414" gradientUnits="userSpaceOnUse">
<stop stop-color="white" stop-opacity="0.9"/>
<stop offset="1" stop-color="white" stop-opacity="0"/>
</linearGradient>
<linearGradient id="paint12_linear_637_22390" x1="32.2899" y1="29.236" x2="36.0243" y2="27.3203" gradientUnits="userSpaceOnUse">
<stop stop-color="#E88105"/>
<stop offset="1" stop-color="#E37D02" stop-opacity="0"/>
</linearGradient>
<linearGradient id="paint13_linear_637_22390" x1="32.2899" y1="30.5798" x2="36.0243" y2="32.4955" gradientUnits="userSpaceOnUse">
<stop offset="0.286458" stop-color="#DE7D07"/>
<stop offset="0.817708" stop-color="#E37D02" stop-opacity="0"/>
</linearGradient>
<linearGradient id="paint14_linear_637_22390" x1="33.2899" y1="28.9453" x2="37.3711" y2="27.0078" gradientUnits="userSpaceOnUse">
<stop offset="0.15625" stop-color="#D64A38"/>
<stop offset="1" stop-color="#FB7425"/>
</linearGradient>
<linearGradient id="paint15_linear_637_22390" x1="33.0738" y1="30.7096" x2="37.1464" y2="32.6651" gradientUnits="userSpaceOnUse">
<stop offset="0.15625" stop-color="#D64A38"/>
<stop offset="1" stop-color="#FB7425"/>
</linearGradient>
<linearGradient id="paint16_linear_637_22390" x1="15.0179" y1="30.7214" x2="10.9452" y2="32.6768" gradientUnits="userSpaceOnUse">
<stop offset="0.15625" stop-color="#D64A38"/>
<stop offset="1" stop-color="#FB7425"/>
</linearGradient>
<linearGradient id="paint17_linear_637_22390" x1="14.8182" y1="28.9292" x2="10.7275" y2="27.0118" gradientUnits="userSpaceOnUse">
<stop offset="0.15625" stop-color="#D64A38"/>
<stop offset="1" stop-color="#FB7425"/>
</linearGradient>
<linearGradient id="paint18_linear_637_22390" x1="24.0467" y1="33.5225" x2="24.0467" y2="29.1004" gradientUnits="userSpaceOnUse">
<stop stop-color="#E61E27"/>
<stop offset="1" stop-color="#672A7A"/>
</linearGradient>
<linearGradient id="paint19_linear_637_22390" x1="28.6883" y1="25.6797" x2="29.6885" y2="29.1407" gradientUnits="userSpaceOnUse">
<stop stop-color="#EC9611"/>
<stop offset="1" stop-color="#EA9D26" stop-opacity="0"/>
</linearGradient>
<linearGradient id="paint20_linear_637_22390" x1="30.8992" y1="24.2109" x2="26.4305" y2="24.2109" gradientUnits="userSpaceOnUse">
<stop stop-color="#432A3D"/>
<stop offset="0.567708" stop-color="#684E61"/>
<stop offset="0.765625" stop-color="#43253D"/>
</linearGradient>
<linearGradient id="paint21_linear_637_22390" x1="28.3211" y1="24.0546" x2="28.3211" y2="26.3515" gradientUnits="userSpaceOnUse">
<stop offset="0.326531" stop-color="#43253D" stop-opacity="0"/>
<stop offset="1" stop-color="#43253D"/>
</linearGradient>
<linearGradient id="paint22_linear_637_22390" x1="20.862" y1="25.6797" x2="21.8622" y2="29.1407" gradientUnits="userSpaceOnUse">
<stop stop-color="#E89311"/>
<stop offset="1" stop-color="#EA9D26" stop-opacity="0"/>
</linearGradient>
<linearGradient id="paint23_linear_637_22390" x1="22.9575" y1="24.2109" x2="18.4887" y2="24.2109" gradientUnits="userSpaceOnUse">
<stop stop-color="#432A3D"/>
<stop offset="0.567708" stop-color="#684E61"/>
<stop offset="0.765625" stop-color="#43253D"/>
</linearGradient>
<linearGradient id="paint24_linear_637_22390" x1="20.3793" y1="24.0546" x2="20.3793" y2="26.3515" gradientUnits="userSpaceOnUse">
<stop offset="0.326531" stop-color="#43253D" stop-opacity="0"/>
<stop offset="1" stop-color="#43253D"/>
</linearGradient>
<linearGradient id="paint25_linear_637_22390" x1="31.3523" y1="16.8385" x2="30.9557" y2="28.8891" gradientUnits="userSpaceOnUse">
<stop offset="0.548257" stop-color="#FFDD65"/>
<stop offset="1" stop-color="#FFDD65" stop-opacity="0"/>
</linearGradient>
<linearGradient id="paint26_linear_637_22390" x1="34.5398" y1="21.5078" x2="33.2898" y2="18.0391" gradientUnits="userSpaceOnUse">
<stop stop-color="#EF8A47"/>
<stop offset="1" stop-color="#EF8A47" stop-opacity="0"/>
</linearGradient>
<radialGradient id="paint27_radial_637_22390" cx="0" cy="0" r="1" gradientUnits="userSpaceOnUse" gradientTransform="translate(30.8679 13.7734) rotate(55.7389) scale(7.82686 9.38424)">
<stop stop-color="#FFDF70"/>
<stop offset="1" stop-color="#FFDF70" stop-opacity="0"/>
</radialGradient>
<linearGradient id="paint28_linear_637_22390" x1="33.0554" y1="16.4766" x2="33.0554" y2="18.8203" gradientUnits="userSpaceOnUse">
<stop offset="0.432292" stop-color="#FFE7A3"/>
<stop offset="1" stop-color="#FFDF83" stop-opacity="0"/>
</linearGradient>
</defs>
</svg>
