<svg width="48" height="48" viewBox="0 0 48 48" fill="none" xmlns="http://www.w3.org/2000/svg">
<rect width="48" height="48" rx="24" fill="#F2F5FF"/>
<path d="M35.73 29.89C35.73 29.44 35.69 28.99 35.61 28.56C35.35 26.83 34.56 23.74 32.12 21.24C31.57 20.67 30.99 20.2 30.4 19.81L31.62 13.2C31.92 11.54 30.64 10 28.95 10C27.45 10 26.24 11.21 26.24 12.71V18.11C24.92 17.85 24.01 17.89 24.01 17.89C24.01 17.89 23.31 17.85 22.25 18.02V12.71C22.25 11.21 21.04 10 19.54 10C17.84 10 16.56 11.54 16.87 13.2L18.04 19.54C17.31 19.98 16.58 20.54 15.89 21.24C13.46 23.74 12.66 26.82 12.4 28.56C12.32 29 12.28 29.44 12.27 29.9C12.27 29.91 12.27 29.92 12.27 29.92C12.27 32.8 13.94 35.28 16.35 36.47C16.35 36.47 18.97 38 23.99 38C29.02 38 31.63 36.47 31.63 36.47C34.05 35.28 35.71 32.8 35.71 29.92C35.73 29.92 35.73 29.91 35.73 29.89Z" fill="url(#paint0_radial_637_22383)"/>
<path d="M35.73 29.89C35.73 29.44 35.69 28.99 35.61 28.56C35.35 26.83 34.56 23.74 32.12 21.24C31.57 20.67 30.99 20.2 30.4 19.81L31.62 13.2C31.92 11.54 30.64 10 28.95 10C27.45 10 26.24 11.21 26.24 12.71V18.11C24.92 17.85 24.01 17.89 24.01 17.89C24.01 17.89 23.31 17.85 22.25 18.02V12.71C22.25 11.21 21.04 10 19.54 10C17.84 10 16.56 11.54 16.87 13.2L18.04 19.54C17.31 19.98 16.58 20.54 15.89 21.24C13.46 23.74 12.66 26.82 12.4 28.56C12.32 29 12.28 29.44 12.27 29.9C12.27 29.91 12.27 29.92 12.27 29.92C12.27 32.8 13.94 35.28 16.35 36.47C16.35 36.47 18.97 38 23.99 38C29.02 38 31.63 36.47 31.63 36.47C34.05 35.28 35.71 32.8 35.71 29.92C35.73 29.92 35.73 29.91 35.73 29.89Z" fill="url(#paint1_radial_637_22383)"/>
<path d="M35.73 29.89C35.73 29.44 35.69 28.99 35.61 28.56C35.35 26.83 34.56 23.74 32.12 21.24C31.57 20.67 30.99 20.2 30.4 19.81L31.62 13.2C31.92 11.54 30.64 10 28.95 10C27.45 10 26.24 11.21 26.24 12.71V18.11C24.92 17.85 24.01 17.89 24.01 17.89C24.01 17.89 23.31 17.85 22.25 18.02V12.71C22.25 11.21 21.04 10 19.54 10C17.84 10 16.56 11.54 16.87 13.2L18.04 19.54C17.31 19.98 16.58 20.54 15.89 21.24C13.46 23.74 12.66 26.82 12.4 28.56C12.32 29 12.28 29.44 12.27 29.9C12.27 29.91 12.27 29.92 12.27 29.92C12.27 32.8 13.94 35.28 16.35 36.47C16.35 36.47 18.97 38 23.99 38C29.02 38 31.63 36.47 31.63 36.47C34.05 35.28 35.71 32.8 35.71 29.92C35.73 29.92 35.73 29.91 35.73 29.89Z" fill="url(#paint2_radial_637_22383)"/>
<path d="M35.73 29.89C35.73 29.44 35.69 28.99 35.61 28.56C35.35 26.83 34.56 23.74 32.12 21.24C31.57 20.67 30.99 20.2 30.4 19.81L31.62 13.2C31.92 11.54 30.64 10 28.95 10C27.45 10 26.24 11.21 26.24 12.71V18.11C24.92 17.85 24.01 17.89 24.01 17.89C24.01 17.89 23.31 17.85 22.25 18.02V12.71C22.25 11.21 21.04 10 19.54 10C17.84 10 16.56 11.54 16.87 13.2L18.04 19.54C17.31 19.98 16.58 20.54 15.89 21.24C13.46 23.74 12.66 26.82 12.4 28.56C12.32 29 12.28 29.44 12.27 29.9C12.27 29.91 12.27 29.92 12.27 29.92C12.27 32.8 13.94 35.28 16.35 36.47C16.35 36.47 18.97 38 23.99 38C29.02 38 31.63 36.47 31.63 36.47C34.05 35.28 35.71 32.8 35.71 29.92C35.73 29.92 35.73 29.91 35.73 29.89Z" fill="url(#paint3_radial_637_22383)"/>
<path d="M35.73 29.89C35.73 29.44 35.69 28.99 35.61 28.56C35.35 26.83 34.56 23.74 32.12 21.24C31.57 20.67 30.99 20.2 30.4 19.81L31.62 13.2C31.92 11.54 30.64 10 28.95 10C27.45 10 26.24 11.21 26.24 12.71V18.11C24.92 17.85 24.01 17.89 24.01 17.89C24.01 17.89 23.31 17.85 22.25 18.02V12.71C22.25 11.21 21.04 10 19.54 10C17.84 10 16.56 11.54 16.87 13.2L18.04 19.54C17.31 19.98 16.58 20.54 15.89 21.24C13.46 23.74 12.66 26.82 12.4 28.56C12.32 29 12.28 29.44 12.27 29.9C12.27 29.91 12.27 29.92 12.27 29.92C12.27 32.8 13.94 35.28 16.35 36.47C16.35 36.47 18.97 38 23.99 38C29.02 38 31.63 36.47 31.63 36.47C34.05 35.28 35.71 32.8 35.71 29.92C35.73 29.92 35.73 29.91 35.73 29.89Z" fill="url(#paint4_radial_637_22383)"/>
<path d="M35.73 29.89C35.73 29.44 35.69 28.99 35.61 28.56C35.35 26.83 34.56 23.74 32.12 21.24C31.57 20.67 30.99 20.2 30.4 19.81L31.62 13.2C31.92 11.54 30.64 10 28.95 10C27.45 10 26.24 11.21 26.24 12.71V18.11C24.92 17.85 24.01 17.89 24.01 17.89C24.01 17.89 23.31 17.85 22.25 18.02V12.71C22.25 11.21 21.04 10 19.54 10C17.84 10 16.56 11.54 16.87 13.2L18.04 19.54C17.31 19.98 16.58 20.54 15.89 21.24C13.46 23.74 12.66 26.82 12.4 28.56C12.32 29 12.28 29.44 12.27 29.9C12.27 29.91 12.27 29.92 12.27 29.92C12.27 32.8 13.94 35.28 16.35 36.47C16.35 36.47 18.97 38 23.99 38C29.02 38 31.63 36.47 31.63 36.47C34.05 35.28 35.71 32.8 35.71 29.92C35.73 29.92 35.73 29.91 35.73 29.89Z" fill="url(#paint5_radial_637_22383)"/>
<path d="M35.73 29.89C35.73 29.44 35.69 28.99 35.61 28.56C35.35 26.83 34.56 23.74 32.12 21.24C31.57 20.67 30.99 20.2 30.4 19.81L31.62 13.2C31.92 11.54 30.64 10 28.95 10C27.45 10 26.24 11.21 26.24 12.71V18.11C24.92 17.85 24.01 17.89 24.01 17.89C24.01 17.89 23.31 17.85 22.25 18.02V12.71C22.25 11.21 21.04 10 19.54 10C17.84 10 16.56 11.54 16.87 13.2L18.04 19.54C17.31 19.98 16.58 20.54 15.89 21.24C13.46 23.74 12.66 26.82 12.4 28.56C12.32 29 12.28 29.44 12.27 29.9C12.27 29.91 12.27 29.92 12.27 29.92C12.27 32.8 13.94 35.28 16.35 36.47C16.35 36.47 18.97 38 23.99 38C29.02 38 31.63 36.47 31.63 36.47C34.05 35.28 35.71 32.8 35.71 29.92C35.73 29.92 35.73 29.91 35.73 29.89Z" fill="url(#paint6_radial_637_22383)"/>
<path d="M35.73 29.89C35.73 29.44 35.69 28.99 35.61 28.56C35.35 26.83 34.56 23.74 32.12 21.24C31.57 20.67 30.99 20.2 30.4 19.81L31.62 13.2C31.92 11.54 30.64 10 28.95 10C27.45 10 26.24 11.21 26.24 12.71V18.11C24.92 17.85 24.01 17.89 24.01 17.89C24.01 17.89 23.31 17.85 22.25 18.02V12.71C22.25 11.21 21.04 10 19.54 10C17.84 10 16.56 11.54 16.87 13.2L18.04 19.54C17.31 19.98 16.58 20.54 15.89 21.24C13.46 23.74 12.66 26.82 12.4 28.56C12.32 29 12.28 29.44 12.27 29.9C12.27 29.91 12.27 29.92 12.27 29.92C12.27 32.8 13.94 35.28 16.35 36.47C16.35 36.47 18.97 38 23.99 38C29.02 38 31.63 36.47 31.63 36.47C34.05 35.28 35.71 32.8 35.71 29.92C35.73 29.92 35.73 29.91 35.73 29.89Z" fill="url(#paint7_radial_637_22383)"/>
<path d="M29.9675 37.1512V25.4375L17.9917 19.5693C17.2778 20.0048 16.5648 20.5555 15.89 21.24C13.46 23.74 12.66 26.82 12.4 28.56C12.32 29 12.28 29.44 12.27 29.9V29.92C12.27 32.8 13.94 35.28 16.35 36.47C16.35 36.47 18.97 38 23.99 38C26.6891 38 28.6914 37.5595 29.9675 37.1512Z" fill="url(#paint8_radial_637_22383)"/>
<path d="M29.9675 37.1512V25.4375L17.9917 19.5693C17.2778 20.0048 16.5648 20.5555 15.89 21.24C13.46 23.74 12.66 26.82 12.4 28.56C12.32 29 12.28 29.44 12.27 29.9V29.92C12.27 32.8 13.94 35.28 16.35 36.47C16.35 36.47 18.97 38 23.99 38C26.6891 38 28.6914 37.5595 29.9675 37.1512Z" fill="url(#paint9_radial_637_22383)"/>
<path d="M22.25 15.415H17.2787L16.87 13.2C16.56 11.54 17.84 10 19.54 10C21.04 10 22.25 11.21 22.25 12.71V15.415Z" fill="url(#paint10_radial_637_22383)"/>
<path d="M18.0421 19.2277C18.2454 20.2732 19.2325 20.976 20.287 20.826L20.5304 20.7913C21.5162 20.6511 22.2487 19.807 22.2487 18.8113V13.4898C22.2487 13.4888 22.2489 13.4878 22.2493 13.4868C22.2497 13.4859 22.25 13.4849 22.25 13.4838V12.71C22.25 11.21 21.04 10 19.54 10C17.84 10 16.56 11.54 16.87 13.2L18.0421 19.2277Z" fill="url(#paint11_linear_637_22383)"/>
<path d="M30.4767 19.2316C30.2734 20.2772 29.2863 20.9799 28.2318 20.8299L27.9884 20.7953C27.0026 20.655 26.2701 19.8109 26.2701 18.8152V13.4938C26.2701 13.4927 26.2699 13.4917 26.2695 13.4908C26.269 13.4898 26.2688 13.4888 26.2688 13.4878V12.7139C26.2688 11.2139 27.4788 10.0039 28.9788 10.0039C30.6788 10.0039 31.9588 11.5439 31.6488 13.2039L30.4767 19.2316Z" fill="url(#paint12_linear_637_22383)"/>
<path d="M30.4767 19.2316C30.2734 20.2772 29.2863 20.9799 28.2318 20.8299L27.9884 20.7953C27.0026 20.655 26.2701 19.8109 26.2701 18.8152V13.4938C26.2701 13.4927 26.2699 13.4917 26.2695 13.4908C26.269 13.4898 26.2688 13.4888 26.2688 13.4878V12.7139C26.2688 11.2139 27.4788 10.0039 28.9788 10.0039C30.6788 10.0039 31.9588 11.5439 31.6488 13.2039L30.4767 19.2316Z" fill="url(#paint13_linear_637_22383)"/>
<path d="M30.4767 19.2316C30.2734 20.2772 29.2863 20.9799 28.2318 20.8299L27.9884 20.7953C27.0026 20.655 26.2701 19.8109 26.2701 18.8152V13.4938C26.2701 13.4927 26.2699 13.4917 26.2695 13.4908C26.269 13.4898 26.2688 13.4888 26.2688 13.4878V12.7139C26.2688 11.2139 27.4788 10.0039 28.9788 10.0039C30.6788 10.0039 31.9588 11.5439 31.6488 13.2039L30.4767 19.2316Z" fill="url(#paint14_radial_637_22383)"/>
<path d="M30.4767 19.2316C30.2734 20.2772 29.2863 20.9799 28.2318 20.8299L27.9884 20.7953C27.0026 20.655 26.2701 19.8109 26.2701 18.8152V13.4938C26.2701 13.4927 26.2699 13.4917 26.2695 13.4908C26.269 13.4898 26.2688 13.4888 26.2688 13.4878V12.7139C26.2688 11.2139 27.4788 10.0039 28.9788 10.0039C30.6788 10.0039 31.9588 11.5439 31.6488 13.2039L30.4767 19.2316Z" fill="url(#paint15_radial_637_22383)"/>
<path d="M30.4767 19.2316C30.2734 20.2772 29.2863 20.9799 28.2318 20.8299L27.9884 20.7953C27.0026 20.655 26.2701 19.8109 26.2701 18.8152V13.4938C26.2701 13.4927 26.2699 13.4917 26.2695 13.4908C26.269 13.4898 26.2688 13.4888 26.2688 13.4878V12.7139C26.2688 11.2139 27.4788 10.0039 28.9788 10.0039C30.6788 10.0039 31.9588 11.5439 31.6488 13.2039L30.4767 19.2316Z" fill="url(#paint16_linear_637_22383)"/>
<path d="M26.2376 15.415H31.2088L31.6176 13.2C31.9276 11.54 30.6476 10 28.9476 10C27.4476 10 26.2376 11.21 26.2376 12.71V15.415Z" fill="url(#paint17_radial_637_22383)"/>
<path d="M20.07 19.33C19.74 19.33 19.47 19.1 19.41 18.78L18.33 12.93C18.24 12.44 18.46 12.09 18.59 11.93C18.73 11.77 19.03 11.5 19.52 11.5C20.19 11.5 20.75 12.07 20.75 12.74V18.66C20.75 19.02 20.45 19.33 20.07 19.33Z" fill="url(#paint18_radial_637_22383)"/>
<path d="M20.07 19.33C19.74 19.33 19.47 19.1 19.41 18.78L18.33 12.93C18.24 12.44 18.46 12.09 18.59 11.93C18.73 11.77 19.03 11.5 19.52 11.5C20.19 11.5 20.75 12.07 20.75 12.74V18.66C20.75 19.02 20.45 19.33 20.07 19.33Z" fill="url(#paint19_radial_637_22383)"/>
<path d="M20.07 19.33C19.74 19.33 19.47 19.1 19.41 18.78L18.33 12.93C18.24 12.44 18.46 12.09 18.59 11.93C18.73 11.77 19.03 11.5 19.52 11.5C20.19 11.5 20.75 12.07 20.75 12.74V18.66C20.75 19.02 20.45 19.33 20.07 19.33Z" fill="url(#paint20_linear_637_22383)"/>
<path d="M27.73 18.65V12.74C27.73 12.07 28.28 11.5 28.96 11.5C29.45 11.5 29.75 11.78 29.89 11.94C30.03 12.1 30.24 12.45 30.15 12.94L29.07 18.78C29.01 19.1 28.73 19.33 28.41 19.33C28.03 19.33 27.73 19.02 27.73 18.65Z" fill="url(#paint21_radial_637_22383)"/>
<path d="M27.73 18.65V12.74C27.73 12.07 28.28 11.5 28.96 11.5C29.45 11.5 29.75 11.78 29.89 11.94C30.03 12.1 30.24 12.45 30.15 12.94L29.07 18.78C29.01 19.1 28.73 19.33 28.41 19.33C28.03 19.33 27.73 19.02 27.73 18.65Z" fill="url(#paint22_radial_637_22383)"/>
<path d="M27.73 18.65V12.74C27.73 12.07 28.28 11.5 28.96 11.5C29.45 11.5 29.75 11.78 29.89 11.94C30.03 12.1 30.24 12.45 30.15 12.94L29.07 18.78C29.01 19.1 28.73 19.33 28.41 19.33C28.03 19.33 27.73 19.02 27.73 18.65Z" fill="url(#paint23_linear_637_22383)"/>
<path d="M30.84 31.13L37.58 32.94C37.85 33.01 38 33.28 37.93 33.55C37.86 33.82 37.59 33.97 37.32 33.9L30.58 32.09C30.31 32.02 30.16 31.75 30.23 31.48C30.3 31.21 30.57 31.05 30.84 31.13Z" fill="url(#paint24_linear_637_22383)"/>
<path d="M30.73 28.98H37.71C37.99 28.98 38.21 29.2 38.21 29.48C38.21 29.76 37.99 29.98 37.71 29.98H30.73C30.45 29.98 30.23 29.76 30.23 29.48C30.23 29.21 30.45 28.98 30.73 28.98Z" fill="url(#paint25_linear_637_22383)"/>
<path d="M17.65 31.13L10.91 32.94C10.64 33 10.48 33.28 10.55 33.54C10.62 33.81 10.89 33.96 11.16 33.89L17.9 32.08C18.17 32.01 18.32 31.74 18.25 31.47C18.19 31.21 17.91 31.05 17.65 31.13Z" fill="url(#paint26_linear_637_22383)"/>
<path d="M17.76 28.98H10.78C10.5 28.98 10.28 29.2 10.28 29.48C10.28 29.76 10.5 29.98 10.78 29.98H17.76C18.04 29.98 18.26 29.76 18.26 29.48C18.26 29.21 18.03 28.98 17.76 28.98Z" fill="url(#paint27_linear_637_22383)"/>
<path d="M24.23 31.52C24.23 32.565 23.45 33.4141 22.49 33.4141C21.53 33.4141 20.75 32.565 20.75 31.52" stroke="url(#paint28_radial_637_22383)" stroke-miterlimit="10" stroke-linecap="round"/>
<path d="M27.72 31.52C27.72 32.565 26.94 33.4141 25.98 33.4141C25.02 33.4141 24.24 32.565 24.24 31.52" stroke="url(#paint29_radial_637_22383)" stroke-miterlimit="10" stroke-linecap="round"/>
<path d="M21.25 27.9643C20.85 27.9643 20.52 27.6343 20.52 27.2343V25.7162C20.52 25.3162 20.85 24.9862 21.25 24.9862C21.65 24.9862 21.98 25.3162 21.98 25.7162V27.2343C21.98 27.6443 21.65 27.9643 21.25 27.9643Z" fill="url(#paint30_linear_637_22383)"/>
<path d="M21.25 27.9643C20.85 27.9643 20.52 27.6343 20.52 27.2343V25.7162C20.52 25.3162 20.85 24.9862 21.25 24.9862C21.65 24.9862 21.98 25.3162 21.98 25.7162V27.2343C21.98 27.6443 21.65 27.9643 21.25 27.9643Z" fill="url(#paint31_linear_637_22383)"/>
<path d="M21.25 27.9643C20.85 27.9643 20.52 27.6343 20.52 27.2343V25.7162C20.52 25.3162 20.85 24.9862 21.25 24.9862C21.65 24.9862 21.98 25.3162 21.98 25.7162V27.2343C21.98 27.6443 21.65 27.9643 21.25 27.9643Z" fill="url(#paint32_radial_637_22383)"/>
<path d="M25.8309 29.0658C25.8309 29.492 24.9012 30.5547 24.2528 30.5547C23.5591 30.5547 22.6591 29.5848 22.6591 29.0658C22.6591 28.5467 23.3622 28.4989 24.2528 28.4989C25.1434 28.4989 25.8309 28.5331 25.8309 29.0658Z" fill="url(#paint33_linear_637_22383)"/>
<path d="M25.8309 29.0658C25.8309 29.492 24.9012 30.5547 24.2528 30.5547C23.5591 30.5547 22.6591 29.5848 22.6591 29.0658C22.6591 28.5467 23.3622 28.4989 24.2528 28.4989C25.1434 28.4989 25.8309 28.5331 25.8309 29.0658Z" fill="url(#paint34_radial_637_22383)"/>
<path d="M25.8309 29.0658C25.8309 29.492 24.9012 30.5547 24.2528 30.5547C23.5591 30.5547 22.6591 29.5848 22.6591 29.0658C22.6591 28.5467 23.3622 28.4989 24.2528 28.4989C25.1434 28.4989 25.8309 28.5331 25.8309 29.0658Z" fill="url(#paint35_radial_637_22383)"/>
<path d="M27.25 27.9643C26.85 27.9643 26.52 27.6343 26.52 27.2343V25.7162C26.52 25.3162 26.85 24.9862 27.25 24.9862C27.65 24.9862 27.98 25.3162 27.98 25.7162V27.2343C27.98 27.6443 27.65 27.9643 27.25 27.9643Z" fill="url(#paint36_linear_637_22383)"/>
<path d="M27.25 27.9643C26.85 27.9643 26.52 27.6343 26.52 27.2343V25.7162C26.52 25.3162 26.85 24.9862 27.25 24.9862C27.65 24.9862 27.98 25.3162 27.98 25.7162V27.2343C27.98 27.6443 27.65 27.9643 27.25 27.9643Z" fill="url(#paint37_linear_637_22383)"/>
<path d="M27.25 27.9643C26.85 27.9643 26.52 27.6343 26.52 27.2343V25.7162C26.52 25.3162 26.85 24.9862 27.25 24.9862C27.65 24.9862 27.98 25.3162 27.98 25.7162V27.2343C27.98 27.6443 27.65 27.9643 27.25 27.9643Z" fill="url(#paint38_radial_637_22383)"/>
<g filter="url(#filter0_f_637_22383)">
<circle cx="17.842" cy="29.3433" r="0.183594" fill="#D6CEDE"/>
</g>
<g filter="url(#filter1_f_637_22383)">
<circle cx="37.7635" cy="29.3433" r="0.183594" fill="#D6CEDE"/>
</g>
<g filter="url(#filter2_f_637_22383)">
<circle cx="37.5878" cy="33.293" r="0.183594" fill="#D6CEDE" fill-opacity="0.75"/>
</g>
<g filter="url(#filter3_f_637_22383)">
<circle cx="17.8158" cy="31.4598" r="0.183594" fill="#D6CEDE" fill-opacity="0.75"/>
</g>
<g filter="url(#filter4_f_637_22383)">
<path d="M20.75 31.52C20.7917 32.0409 21.2844 33.1013 22.3594 33.1763C23.7031 33.27 24.1719 32.2075 24.2188 31.52C24.1927 32.0721 24.7969 33.2544 26.0625 33.2544C27.15 33.2544 27.6615 32.0721 27.7188 31.52" stroke="url(#paint39_linear_637_22383)" stroke-width="0.25" stroke-linecap="round" stroke-linejoin="round"/>
</g>
<defs>
<filter id="filter0_f_637_22383" x="17.4084" y="28.9097" width="0.867188" height="0.867188" filterUnits="userSpaceOnUse" color-interpolation-filters="sRGB">
<feFlood flood-opacity="0" result="BackgroundImageFix"/>
<feBlend mode="normal" in="SourceGraphic" in2="BackgroundImageFix" result="shape"/>
<feGaussianBlur stdDeviation="0.125" result="effect1_foregroundBlur_637_22383"/>
</filter>
<filter id="filter1_f_637_22383" x="37.33" y="28.9097" width="0.867188" height="0.867188" filterUnits="userSpaceOnUse" color-interpolation-filters="sRGB">
<feFlood flood-opacity="0" result="BackgroundImageFix"/>
<feBlend mode="normal" in="SourceGraphic" in2="BackgroundImageFix" result="shape"/>
<feGaussianBlur stdDeviation="0.125" result="effect1_foregroundBlur_637_22383"/>
</filter>
<filter id="filter2_f_637_22383" x="37.1542" y="32.8594" width="0.867188" height="0.867188" filterUnits="userSpaceOnUse" color-interpolation-filters="sRGB">
<feFlood flood-opacity="0" result="BackgroundImageFix"/>
<feBlend mode="normal" in="SourceGraphic" in2="BackgroundImageFix" result="shape"/>
<feGaussianBlur stdDeviation="0.125" result="effect1_foregroundBlur_637_22383"/>
</filter>
<filter id="filter3_f_637_22383" x="17.3822" y="31.0262" width="0.867188" height="0.867188" filterUnits="userSpaceOnUse" color-interpolation-filters="sRGB">
<feFlood flood-opacity="0" result="BackgroundImageFix"/>
<feBlend mode="normal" in="SourceGraphic" in2="BackgroundImageFix" result="shape"/>
<feGaussianBlur stdDeviation="0.125" result="effect1_foregroundBlur_637_22383"/>
</filter>
<filter id="filter4_f_637_22383" x="20.375" y="31.145" width="7.71875" height="2.48438" filterUnits="userSpaceOnUse" color-interpolation-filters="sRGB">
<feFlood flood-opacity="0" result="BackgroundImageFix"/>
<feBlend mode="normal" in="SourceGraphic" in2="BackgroundImageFix" result="shape"/>
<feGaussianBlur stdDeviation="0.125" result="effect1_foregroundBlur_637_22383"/>
</filter>
<radialGradient id="paint0_radial_637_22383" cx="0" cy="0" r="1" gradientUnits="userSpaceOnUse" gradientTransform="translate(32.457 20.1973) rotate(132.256) scale(14.7823)">
<stop stop-color="#E6E6E6"/>
<stop offset="1" stop-color="#D3D3D3"/>
</radialGradient>
<radialGradient id="paint1_radial_637_22383" cx="0" cy="0" r="1" gradientUnits="userSpaceOnUse" gradientTransform="translate(29.8552 20.6643) rotate(134.095) scale(20.9005 24.4853)">
<stop offset="0.621351" stop-color="#CCC9CF" stop-opacity="0"/>
<stop offset="1" stop-color="#CCC9CF"/>
</radialGradient>
<radialGradient id="paint2_radial_637_22383" cx="0" cy="0" r="1" gradientUnits="userSpaceOnUse" gradientTransform="translate(36.1262 22.7992) rotate(144.002) scale(9.64789 8.08355)">
<stop stop-color="#F7F5FA"/>
<stop offset="1" stop-color="#F7F5FA" stop-opacity="0"/>
</radialGradient>
<radialGradient id="paint3_radial_637_22383" cx="0" cy="0" r="1" gradientUnits="userSpaceOnUse" gradientTransform="translate(27.1866 20.264) rotate(87.0746) scale(20.1998 29.0575)">
<stop offset="0.550643" stop-color="#B59AD0" stop-opacity="0"/>
<stop offset="1" stop-color="#B59AD0"/>
</radialGradient>
<radialGradient id="paint4_radial_637_22383" cx="0" cy="0" r="1" gradientUnits="userSpaceOnUse" gradientTransform="translate(27.1866 20.264) rotate(92.0005) scale(18.8099 27.2611)">
<stop offset="0.921768" stop-color="#D6B8E0" stop-opacity="0"/>
<stop offset="1" stop-color="#D6B8E0"/>
</radialGradient>
<radialGradient id="paint5_radial_637_22383" cx="0" cy="0" r="1" gradientUnits="userSpaceOnUse" gradientTransform="translate(22.2488 10.1562) rotate(118.752) scale(4.02786 5.37368)">
<stop stop-color="#E7E3E7"/>
<stop offset="1" stop-color="#E7E3E7" stop-opacity="0"/>
</radialGradient>
<radialGradient id="paint6_radial_637_22383" cx="0" cy="0" r="1" gradientUnits="userSpaceOnUse" gradientTransform="translate(15.28 30.8125) rotate(16.9837) scale(13.2661 17.4906)">
<stop stop-color="#CDCAD2"/>
<stop offset="1" stop-color="#CDCAD2" stop-opacity="0"/>
</radialGradient>
<radialGradient id="paint7_radial_637_22383" cx="0" cy="0" r="1" gradientUnits="userSpaceOnUse" gradientTransform="translate(30.9675 31.0625) rotate(90) scale(3.71875 5.46875)">
<stop stop-color="#D3C8DF"/>
<stop offset="1" stop-color="#D2CBDA" stop-opacity="0"/>
</radialGradient>
<radialGradient id="paint8_radial_637_22383" cx="0" cy="0" r="1" gradientUnits="userSpaceOnUse" gradientTransform="translate(32.7175 26.375) rotate(159.238) scale(22.3916 15.088)">
<stop offset="0.910988" stop-color="#E9E9E9" stop-opacity="0"/>
<stop offset="0.994952" stop-color="#E9E9E9"/>
</radialGradient>
<radialGradient id="paint9_radial_637_22383" cx="0" cy="0" r="1" gradientUnits="userSpaceOnUse" gradientTransform="translate(17.905 38.4375) rotate(-67.3127) scale(8.33222 25.6719)">
<stop stop-color="#B59AD0"/>
<stop offset="0.880339" stop-color="#B59AD0" stop-opacity="0"/>
</radialGradient>
<radialGradient id="paint10_radial_637_22383" cx="0" cy="0" r="1" gradientUnits="userSpaceOnUse" gradientTransform="translate(19.5367 14.5156) rotate(-90) scale(4.51563 3.49949)">
<stop offset="0.951557" stop-color="#EFEEEF" stop-opacity="0"/>
<stop offset="1" stop-color="#EFEEEF"/>
</radialGradient>
<linearGradient id="paint11_linear_637_22383" x1="17.7175" y1="18.375" x2="21.405" y2="17.625" gradientUnits="userSpaceOnUse">
<stop stop-color="#D3CED5"/>
<stop offset="1" stop-color="#D3CED5" stop-opacity="0"/>
</linearGradient>
<linearGradient id="paint12_linear_637_22383" x1="23.4362" y1="14.3164" x2="32.8112" y2="15.0664" gradientUnits="userSpaceOnUse">
<stop stop-color="#D3CED5"/>
<stop offset="1" stop-color="#D3CED5" stop-opacity="0"/>
</linearGradient>
<linearGradient id="paint13_linear_637_22383" x1="28.28" y1="21.0977" x2="28.28" y2="15.8789" gradientUnits="userSpaceOnUse">
<stop stop-color="#E1E1E1"/>
<stop offset="1" stop-color="#E1E1E1" stop-opacity="0"/>
</linearGradient>
<radialGradient id="paint14_radial_637_22383" cx="0" cy="0" r="1" gradientUnits="userSpaceOnUse" gradientTransform="translate(30.5612 20.3789) rotate(-167.047) scale(3.20659 1.5685)">
<stop stop-color="#ECEBED"/>
<stop offset="1" stop-color="#ECEBED" stop-opacity="0"/>
</radialGradient>
<radialGradient id="paint15_radial_637_22383" cx="0" cy="0" r="1" gradientUnits="userSpaceOnUse" gradientTransform="translate(32.1862 11.9414) rotate(148.079) scale(4.49175 8.31212)">
<stop stop-color="#E7E3E7"/>
<stop offset="1" stop-color="#E7E3E7" stop-opacity="0"/>
</radialGradient>
<linearGradient id="paint16_linear_637_22383" x1="31.1393" y1="16.7227" x2="30.4987" y2="16.6133" gradientUnits="userSpaceOnUse">
<stop stop-color="#DDD6E1"/>
<stop offset="1" stop-color="#DFDBE1" stop-opacity="0"/>
</linearGradient>
<radialGradient id="paint17_radial_637_22383" cx="0" cy="0" r="1" gradientUnits="userSpaceOnUse" gradientTransform="translate(28.9508 14.5156) rotate(-90) scale(4.51563 3.49949)">
<stop offset="0.951557" stop-color="#EFEEEF" stop-opacity="0"/>
<stop offset="1" stop-color="#EFEEEF"/>
</radialGradient>
<radialGradient id="paint18_radial_637_22383" cx="0" cy="0" r="1" gradientUnits="userSpaceOnUse" gradientTransform="translate(18.9987 16.9062) rotate(-100.592) scale(7.82075 1.54737)">
<stop stop-color="#FABDB6"/>
<stop offset="1" stop-color="#EEA49C"/>
</radialGradient>
<radialGradient id="paint19_radial_637_22383" cx="0" cy="0" r="1" gradientUnits="userSpaceOnUse" gradientTransform="translate(17.3592 15.5937) rotate(-62.2783) scale(5.50712 2.2337)">
<stop stop-color="#FABDB6"/>
<stop offset="1" stop-color="#FABDB6" stop-opacity="0"/>
</radialGradient>
<linearGradient id="paint20_linear_637_22383" x1="21.0925" y1="11.5" x2="19.5295" y2="14.0625" gradientUnits="userSpaceOnUse">
<stop offset="0.10924" stop-color="#F59D94"/>
<stop offset="1" stop-color="#F2A7A0" stop-opacity="0"/>
</linearGradient>
<radialGradient id="paint21_radial_637_22383" cx="0" cy="0" r="1" gradientUnits="userSpaceOnUse" gradientTransform="translate(27.73 16.1563) rotate(-90) scale(7.84375 1.58125)">
<stop stop-color="#FABDB6"/>
<stop offset="1" stop-color="#EEA49C"/>
</radialGradient>
<radialGradient id="paint22_radial_637_22383" cx="0" cy="0" r="1" gradientUnits="userSpaceOnUse" gradientTransform="translate(26.78 15.5937) rotate(-62.2717) scale(5.50745 2.23419)">
<stop stop-color="#FABDB6"/>
<stop offset="1" stop-color="#FABDB6" stop-opacity="0"/>
</radialGradient>
<linearGradient id="paint23_linear_637_22383" x1="30.8112" y1="11.8125" x2="28.4993" y2="13.9693" gradientUnits="userSpaceOnUse">
<stop offset="0.10924" stop-color="#F59D94"/>
<stop offset="1" stop-color="#F2A7A0" stop-opacity="0"/>
</linearGradient>
<linearGradient id="paint24_linear_637_22383" x1="34.53" y1="32.3281" x2="34.3358" y2="33.0855" gradientUnits="userSpaceOnUse">
<stop stop-color="#BAB4C0"/>
<stop offset="1" stop-color="#9987AA"/>
</linearGradient>
<linearGradient id="paint25_linear_637_22383" x1="34.22" y1="29.2187" x2="34.22" y2="30.125" gradientUnits="userSpaceOnUse">
<stop stop-color="#CAC6D0"/>
<stop offset="1" stop-color="#ADA0BB"/>
</linearGradient>
<linearGradient id="paint26_linear_637_22383" x1="14.4441" y1="32.2109" x2="14.655" y2="33.0781" gradientUnits="userSpaceOnUse">
<stop stop-color="#BAB4C0"/>
<stop offset="1" stop-color="#9987AA"/>
</linearGradient>
<linearGradient id="paint27_linear_637_22383" x1="14.27" y1="29.2187" x2="14.27" y2="30.125" gradientUnits="userSpaceOnUse">
<stop stop-color="#CAC6D0"/>
<stop offset="1" stop-color="#ADA0BB"/>
</linearGradient>
<radialGradient id="paint28_radial_637_22383" cx="0" cy="0" r="1" gradientUnits="userSpaceOnUse" gradientTransform="translate(22.484 32.0781) rotate(90) scale(1.71875 2.18838)">
<stop offset="0.00558659" stop-color="#423539"/>
<stop offset="1" stop-color="#3C223C"/>
</radialGradient>
<radialGradient id="paint29_radial_637_22383" cx="0" cy="0" r="1" gradientUnits="userSpaceOnUse" gradientTransform="translate(25.974 32.0781) rotate(90) scale(1.71875 2.18838)">
<stop offset="0.00558659" stop-color="#423539"/>
<stop offset="1" stop-color="#3C223C"/>
</radialGradient>
<linearGradient id="paint30_linear_637_22383" x1="21.98" y1="26.4753" x2="21.1349" y2="26.4753" gradientUnits="userSpaceOnUse">
<stop offset="0.225" stop-color="#594C4F"/>
<stop offset="1" stop-color="#392833"/>
</linearGradient>
<linearGradient id="paint31_linear_637_22383" x1="22.2081" y1="28.0077" x2="22.2081" y2="26.6087" gradientUnits="userSpaceOnUse">
<stop stop-color="#552D52"/>
<stop offset="1" stop-color="#552D52" stop-opacity="0"/>
</linearGradient>
<radialGradient id="paint32_radial_637_22383" cx="0" cy="0" r="1" gradientUnits="userSpaceOnUse" gradientTransform="translate(21.5341 26.6536) rotate(-109.132) scale(1.71834 1.64486)">
<stop offset="0.813951" stop-color="#594C4F" stop-opacity="0"/>
<stop offset="1" stop-color="#594C4F"/>
</radialGradient>
<linearGradient id="paint33_linear_637_22383" x1="23.2762" y1="28.7243" x2="24.5798" y2="30.4284" gradientUnits="userSpaceOnUse">
<stop stop-color="#F03273"/>
<stop offset="1" stop-color="#FF32AF"/>
</linearGradient>
<radialGradient id="paint34_radial_637_22383" cx="0" cy="0" r="1" gradientUnits="userSpaceOnUse" gradientTransform="translate(25.0106 29.2297) rotate(-172.881) scale(2.53517 2.1517)">
<stop offset="0.451843" stop-color="#D53238" stop-opacity="0"/>
<stop offset="1" stop-color="#D53238"/>
</radialGradient>
<radialGradient id="paint35_radial_637_22383" cx="0" cy="0" r="1" gradientUnits="userSpaceOnUse" gradientTransform="translate(25.5809 28.895) rotate(154.691) scale(1.47779 0.801625)">
<stop stop-color="#FF8AD5"/>
<stop offset="0.663187" stop-color="#FF6CCB" stop-opacity="0"/>
</radialGradient>
<linearGradient id="paint36_linear_637_22383" x1="27.98" y1="26.4753" x2="27.1349" y2="26.4753" gradientUnits="userSpaceOnUse">
<stop offset="0.225" stop-color="#594C4F"/>
<stop offset="1" stop-color="#392833"/>
</linearGradient>
<linearGradient id="paint37_linear_637_22383" x1="28.2081" y1="28.0077" x2="28.2081" y2="26.6087" gradientUnits="userSpaceOnUse">
<stop stop-color="#552D52"/>
<stop offset="1" stop-color="#552D52" stop-opacity="0"/>
</linearGradient>
<radialGradient id="paint38_radial_637_22383" cx="0" cy="0" r="1" gradientUnits="userSpaceOnUse" gradientTransform="translate(27.5341 26.6536) rotate(-109.132) scale(1.71834 1.64486)">
<stop offset="0.813951" stop-color="#594C4F" stop-opacity="0"/>
<stop offset="1" stop-color="#594C4F"/>
</radialGradient>
<linearGradient id="paint39_linear_637_22383" x1="20.5625" y1="32.02" x2="28.0781" y2="32.02" gradientUnits="userSpaceOnUse">
<stop stop-color="#5F5356"/>
<stop offset="0.288981" stop-color="#5F5356" stop-opacity="0"/>
<stop offset="0.444906" stop-color="#5F5356" stop-opacity="0"/>
<stop offset="0.534304" stop-color="#5F5356"/>
<stop offset="1" stop-color="#5F5356" stop-opacity="0"/>
</linearGradient>
</defs>
</svg>
