<svg width="48" height="48" viewBox="0 0 48 48" fill="none" xmlns="http://www.w3.org/2000/svg">
<rect width="48" height="48" rx="24" fill="#F2F5FF"/>
<path d="M15.3202 25.9832L15.3202 25.3844L17.453 25.525V29.025H13.8827C13.0699 28.2249 12.67 27.1253 12.5823 26.2676C12.5548 25.998 12.8282 25.8219 13.0872 25.9017C13.8069 26.1236 14.5858 26.2502 15.0606 26.2565C15.2101 26.2585 15.3202 26.1327 15.3202 25.9832Z" fill="url(#paint0_linear_637_22376)"/>
<path d="M32.8736 25.9754L32.8736 25.3766L30.7408 25.5172V29.0172H34.3111C35.124 28.217 35.5239 27.1175 35.6115 26.2598C35.6391 25.9902 35.3656 25.8141 35.1066 25.8939C34.3869 26.1158 33.6081 26.2424 33.1332 26.2487C32.9838 26.2507 32.8736 26.1248 32.8736 25.9754Z" fill="url(#paint1_linear_637_22376)"/>
<path d="M31.8827 27.4812V27.0563L27.3983 29.2594L30.1327 33.5563C34.5149 34.1199 37.1562 31.5428 37.9761 29.5816C38.0862 29.3182 37.915 29.0352 37.6364 28.9726L32.0779 27.7251C31.9638 27.6995 31.8827 27.5981 31.8827 27.4812Z" fill="url(#paint2_linear_637_22376)"/>
<path d="M31.8827 27.4812V27.0563L27.3983 29.2594L30.1327 33.5563C34.5149 34.1199 37.1562 31.5428 37.9761 29.5816C38.0862 29.3182 37.915 29.0352 37.6364 28.9726L32.0779 27.7251C31.9638 27.6995 31.8827 27.5981 31.8827 27.4812Z" fill="url(#paint3_radial_637_22376)"/>
<path d="M16.1864 27.4812V27.0563L20.6708 29.2594L17.9364 33.5563C13.5541 34.1199 10.9129 31.5428 10.093 29.5816C9.98285 29.3182 10.154 29.0352 10.4327 28.9726L15.9911 27.7251C16.1053 27.6995 16.1864 27.5981 16.1864 27.4812Z" fill="url(#paint4_radial_637_22376)"/>
<path d="M16.1864 27.4812V27.0563L20.6708 29.2594L17.9364 33.5563C13.5541 34.1199 10.9129 31.5428 10.093 29.5816C9.98285 29.3182 10.154 29.0352 10.4327 28.9726L15.9911 27.7251C16.1053 27.6995 16.1864 27.5981 16.1864 27.4812Z" fill="url(#paint5_radial_637_22376)"/>
<path d="M16.1864 27.4812V27.0563L20.6708 29.2594L17.9364 33.5563C13.5541 34.1199 10.9129 31.5428 10.093 29.5816C9.98285 29.3182 10.154 29.0352 10.4327 28.9726L15.9911 27.7251C16.1053 27.6995 16.1864 27.5981 16.1864 27.4812Z" fill="url(#paint6_linear_637_22376)"/>
<g filter="url(#filter0_f_637_22376)">
<path d="M34.4803 29.9821L30.5507 29.15L30.7928 28.9508L34.4803 29.9821Z" fill="url(#paint7_linear_637_22376)"/>
</g>
<path d="M34.84 30.0063L27.9999 28.5656L26.8749 29.6749L29.4843 32.9562C32.5253 33.5597 34.4724 32.6585 35.1979 30.6063C35.2919 30.3406 35.1158 30.0644 34.84 30.0063Z" fill="#FF658C"/>
<path d="M34.84 30.0063L27.9999 28.5656L26.8749 29.6749L29.4843 32.9562C32.5253 33.5597 34.4724 32.6585 35.1979 30.6063C35.2919 30.3406 35.1158 30.0644 34.84 30.0063Z" fill="url(#paint8_linear_637_22376)"/>
<path d="M34.84 30.0063L27.9999 28.5656L26.8749 29.6749L29.4843 32.9562C32.5253 33.5597 34.4724 32.6585 35.1979 30.6063C35.2919 30.3406 35.1158 30.0644 34.84 30.0063Z" fill="url(#paint9_radial_637_22376)"/>
<path d="M34.84 30.0063L27.9999 28.5656L26.8749 29.6749L29.4843 32.9562C32.5253 33.5597 34.4724 32.6585 35.1979 30.6063C35.2919 30.3406 35.1158 30.0644 34.84 30.0063Z" fill="url(#paint10_radial_637_22376)"/>
<path d="M34.84 30.0063L27.9999 28.5656L26.8749 29.6749L29.4843 32.9562C32.5253 33.5597 34.4724 32.6585 35.1979 30.6063C35.2919 30.3406 35.1158 30.0644 34.84 30.0063Z" fill="url(#paint11_radial_637_22376)"/>
<path d="M12.7057 30.0063L19.5458 28.5656L20.6708 29.6749L18.0614 32.9562C15.0204 33.5597 13.0733 32.6585 12.3477 30.6063C12.2538 30.3406 12.4299 30.0644 12.7057 30.0063Z" fill="#F26388"/>
<path d="M12.7057 30.0063L19.5458 28.5656L20.6708 29.6749L18.0614 32.9562C15.0204 33.5597 13.0733 32.6585 12.3477 30.6063C12.2538 30.3406 12.4299 30.0644 12.7057 30.0063Z" fill="url(#paint12_linear_637_22376)"/>
<path d="M12.7057 30.0063L19.5458 28.5656L20.6708 29.6749L18.0614 32.9562C15.0204 33.5597 13.0733 32.6585 12.3477 30.6063C12.2538 30.3406 12.4299 30.0644 12.7057 30.0063Z" fill="url(#paint13_radial_637_22376)"/>
<path d="M12.7057 30.0063L19.5458 28.5656L20.6708 29.6749L18.0614 32.9562C15.0204 33.5597 13.0733 32.6585 12.3477 30.6063C12.2538 30.3406 12.4299 30.0644 12.7057 30.0063Z" fill="url(#paint14_linear_637_22376)"/>
<path d="M12.7057 30.0063L19.5458 28.5656L20.6708 29.6749L18.0614 32.9562C15.0204 33.5597 13.0733 32.6585 12.3477 30.6063C12.2538 30.3406 12.4299 30.0644 12.7057 30.0063Z" fill="url(#paint15_radial_637_22376)"/>
<path d="M19.0155 29.3593C19.1822 29.552 19.3624 30.0655 18.7499 30.578C18.1374 31.0905 15.0051 33.854 13.5155 35.1718C13.2271 35.4269 13.3437 35.5968 13.5573 35.9082C13.5741 35.9326 13.5914 35.958 13.6093 35.9843C14.6118 37.4642 19.7343 39.9218 23.7499 34.7655C23.857 34.6279 23.9437 34.5453 24.0969 34.5189C24.2501 34.5453 24.3368 34.6279 24.444 34.7655C28.4596 39.9218 33.5821 37.4642 34.5846 35.9843C34.6024 35.958 34.6198 35.9326 34.6365 35.9082C34.8501 35.5968 34.9667 35.4269 34.6783 35.1718C33.1887 33.854 30.0565 31.0905 29.444 30.578C28.8315 30.0655 29.0117 29.552 29.1783 29.3593L28.0768 28.9764L24.0969 30.2622L20.1171 28.9764L19.0155 29.3593Z" fill="url(#paint16_linear_637_22376)"/>
<path d="M19.0155 29.3593C19.1822 29.552 19.3624 30.0655 18.7499 30.578C18.1374 31.0905 15.0051 33.854 13.5155 35.1718C13.2271 35.4269 13.3437 35.5968 13.5573 35.9082C13.5741 35.9326 13.5914 35.958 13.6093 35.9843C14.6118 37.4642 19.7343 39.9218 23.7499 34.7655C23.857 34.6279 23.9437 34.5453 24.0969 34.5189C24.2501 34.5453 24.3368 34.6279 24.444 34.7655C28.4596 39.9218 33.5821 37.4642 34.5846 35.9843C34.6024 35.958 34.6198 35.9326 34.6365 35.9082C34.8501 35.5968 34.9667 35.4269 34.6783 35.1718C33.1887 33.854 30.0565 31.0905 29.444 30.578C28.8315 30.0655 29.0117 29.552 29.1783 29.3593L28.0768 28.9764L24.0969 30.2622L20.1171 28.9764L19.0155 29.3593Z" fill="url(#paint17_radial_637_22376)"/>
<path d="M19.0155 29.3593C19.1822 29.552 19.3624 30.0655 18.7499 30.578C18.1374 31.0905 15.0051 33.854 13.5155 35.1718C13.2271 35.4269 13.3437 35.5968 13.5573 35.9082C13.5741 35.9326 13.5914 35.958 13.6093 35.9843C14.6118 37.4642 19.7343 39.9218 23.7499 34.7655C23.857 34.6279 23.9437 34.5453 24.0969 34.5189C24.2501 34.5453 24.3368 34.6279 24.444 34.7655C28.4596 39.9218 33.5821 37.4642 34.5846 35.9843C34.6024 35.958 34.6198 35.9326 34.6365 35.9082C34.8501 35.5968 34.9667 35.4269 34.6783 35.1718C33.1887 33.854 30.0565 31.0905 29.444 30.578C28.8315 30.0655 29.0117 29.552 29.1783 29.3593L28.0768 28.9764L24.0969 30.2622L20.1171 28.9764L19.0155 29.3593Z" fill="url(#paint18_radial_637_22376)"/>
<path d="M19.0155 29.3593C19.1822 29.552 19.3624 30.0655 18.7499 30.578C18.1374 31.0905 15.0051 33.854 13.5155 35.1718C13.2271 35.4269 13.3437 35.5968 13.5573 35.9082C13.5741 35.9326 13.5914 35.958 13.6093 35.9843C14.6118 37.4642 19.7343 39.9218 23.7499 34.7655C23.857 34.6279 23.9437 34.5453 24.0969 34.5189C24.2501 34.5453 24.3368 34.6279 24.444 34.7655C28.4596 39.9218 33.5821 37.4642 34.5846 35.9843C34.6024 35.958 34.6198 35.9326 34.6365 35.9082C34.8501 35.5968 34.9667 35.4269 34.6783 35.1718C33.1887 33.854 30.0565 31.0905 29.444 30.578C28.8315 30.0655 29.0117 29.552 29.1783 29.3593L28.0768 28.9764L24.0969 30.2622L20.1171 28.9764L19.0155 29.3593Z" fill="url(#paint19_linear_637_22376)"/>
<g filter="url(#filter1_f_637_22376)">
<path d="M24.0969 10.8719C21.0582 10.8719 18.3474 12.1336 16.6092 14.104C15.09 15.7592 14.1625 17.9668 14.1625 20.3906V21.7531C14.1625 26.8894 18.3263 31.0532 23.4626 31.0532H24.7313C29.8675 31.0532 34.0313 26.8894 34.0313 21.7531V20.3906C34.0313 17.9667 33.1038 15.759 31.5845 14.1037C29.8462 12.1335 27.1355 10.8719 24.0969 10.8719Z" stroke="url(#paint20_radial_637_22376)" stroke-width="0.4"/>
</g>
<path d="M16.7578 14.2378C18.4564 12.3115 21.1122 11.0719 24.0969 11.0719C27.0815 11.0719 29.7372 12.3114 31.4358 14.2375C32.9233 15.8575 33.8313 18.018 33.8313 20.3906V21.7531C33.8313 26.7789 29.7571 30.8531 24.7313 30.8531H23.4626C18.4368 30.8531 14.3625 26.7789 14.3625 21.7531V20.3906C14.3625 18.0181 15.2704 15.8577 16.7578 14.2378Z" fill="url(#paint21_radial_637_22376)"/>
<path d="M16.7578 14.2378C18.4564 12.3115 21.1122 11.0719 24.0969 11.0719C27.0815 11.0719 29.7372 12.3114 31.4358 14.2375C32.9233 15.8575 33.8313 18.018 33.8313 20.3906V21.7531C33.8313 26.7789 29.7571 30.8531 24.7313 30.8531H23.4626C18.4368 30.8531 14.3625 26.7789 14.3625 21.7531V20.3906C14.3625 18.0181 15.2704 15.8577 16.7578 14.2378Z" fill="url(#paint22_radial_637_22376)"/>
<path d="M16.7578 14.2378C18.4564 12.3115 21.1122 11.0719 24.0969 11.0719C27.0815 11.0719 29.7372 12.3114 31.4358 14.2375C32.9233 15.8575 33.8313 18.018 33.8313 20.3906V21.7531C33.8313 26.7789 29.7571 30.8531 24.7313 30.8531H23.4626C18.4368 30.8531 14.3625 26.7789 14.3625 21.7531V20.3906C14.3625 18.0181 15.2704 15.8577 16.7578 14.2378Z" fill="url(#paint23_radial_637_22376)"/>
<path d="M16.7578 14.2378C18.4564 12.3115 21.1122 11.0719 24.0969 11.0719C27.0815 11.0719 29.7372 12.3114 31.4358 14.2375C32.9233 15.8575 33.8313 18.018 33.8313 20.3906V21.7531C33.8313 26.7789 29.7571 30.8531 24.7313 30.8531H23.4626C18.4368 30.8531 14.3625 26.7789 14.3625 21.7531V20.3906C14.3625 18.0181 15.2704 15.8577 16.7578 14.2378Z" fill="url(#paint24_radial_637_22376)"/>
<path d="M16.7578 14.2378C18.4564 12.3115 21.1122 11.0719 24.0969 11.0719C27.0815 11.0719 29.7372 12.3114 31.4358 14.2375C32.9233 15.8575 33.8313 18.018 33.8313 20.3906V21.7531C33.8313 26.7789 29.7571 30.8531 24.7313 30.8531H23.4626C18.4368 30.8531 14.3625 26.7789 14.3625 21.7531V20.3906C14.3625 18.0181 15.2704 15.8577 16.7578 14.2378Z" fill="url(#paint25_radial_637_22376)"/>
<path d="M16.7578 14.2378C18.4564 12.3115 21.1122 11.0719 24.0969 11.0719C27.0815 11.0719 29.7372 12.3114 31.4358 14.2375C32.9233 15.8575 33.8313 18.018 33.8313 20.3906V21.7531C33.8313 26.7789 29.7571 30.8531 24.7313 30.8531H23.4626C18.4368 30.8531 14.3625 26.7789 14.3625 21.7531V20.3906C14.3625 18.0181 15.2704 15.8577 16.7578 14.2378Z" fill="url(#paint26_radial_637_22376)"/>
<path d="M16.7578 14.2378C18.4564 12.3115 21.1122 11.0719 24.0969 11.0719C27.0815 11.0719 29.7372 12.3114 31.4358 14.2375C32.9233 15.8575 33.8313 18.018 33.8313 20.3906V21.7531C33.8313 26.7789 29.7571 30.8531 24.7313 30.8531H23.4626C18.4368 30.8531 14.3625 26.7789 14.3625 21.7531V20.3906C14.3625 18.0181 15.2704 15.8577 16.7578 14.2378Z" fill="url(#paint27_radial_637_22376)"/>
<path d="M16.7578 14.2378C18.4564 12.3115 21.1122 11.0719 24.0969 11.0719C27.0815 11.0719 29.7372 12.3114 31.4358 14.2375C32.9233 15.8575 33.8313 18.018 33.8313 20.3906V21.7531C33.8313 26.7789 29.7571 30.8531 24.7313 30.8531H23.4626C18.4368 30.8531 14.3625 26.7789 14.3625 21.7531V20.3906C14.3625 18.0181 15.2704 15.8577 16.7578 14.2378Z" fill="url(#paint28_radial_637_22376)"/>
<circle cx="14.4556" cy="21.5094" r="1.71875" fill="url(#paint29_radial_637_22376)"/>
<circle cx="14.4556" cy="21.5094" r="1.71875" fill="url(#paint30_radial_637_22376)"/>
<circle cx="14.4556" cy="21.5094" r="1.71875" fill="url(#paint31_radial_637_22376)"/>
<circle cx="33.6249" cy="21.5094" r="1.71875" fill="url(#paint32_radial_637_22376)"/>
<circle cx="33.6249" cy="21.5094" r="1.71875" fill="url(#paint33_radial_637_22376)"/>
<circle cx="33.6249" cy="21.5094" r="1.71875" fill="url(#paint34_radial_637_22376)"/>
<g filter="url(#filter2_f_637_22376)">
<path d="M32.7733 26.2906C32.8163 26.4313 32.9413 26.5289 33.1053 26.5289C33.4104 26.5289 34.3827 26.4274 35.1444 26.1461" stroke="url(#paint35_linear_637_22376)" stroke-width="0.1" stroke-linecap="round"/>
</g>
<g filter="url(#filter3_f_637_22376)">
<path d="M34.4999 35.4391C33.7326 35.9911 32.2411 36.7986 30.6438 36.8376C28.2551 36.8958 25.948 35.7593 24.4183 34.0988C24.2467 33.9125 23.9472 33.9125 23.7755 34.0988C22.2458 35.7593 19.9387 36.8958 17.55 36.8376C16.0001 36.7998 14.7038 36.1641 13.9272 35.6221" stroke="url(#paint36_radial_637_22376)" stroke-width="0.4" stroke-linecap="round"/>
<path d="M34.4999 35.4391C33.7326 35.9911 32.2411 36.7986 30.6438 36.8376C28.2551 36.8958 25.948 35.7593 24.4183 34.0988C24.2467 33.9125 23.9472 33.9125 23.7755 34.0988C22.2458 35.7593 19.9387 36.8958 17.55 36.8376C16.0001 36.7998 14.7038 36.1641 13.9272 35.6221" stroke="url(#paint37_radial_637_22376)" stroke-width="0.4" stroke-linecap="round"/>
</g>
<path fill-rule="evenodd" clip-rule="evenodd" d="M34.7495 35.2421C34.1258 35.8067 32.5834 36.7903 30.6438 36.8376C28.2552 36.8958 25.948 35.7593 24.4183 34.0988C24.2467 33.9125 23.9472 33.9125 23.7755 34.0988C22.2459 35.7593 19.9387 36.8958 17.55 36.8376C15.6104 36.7903 14.068 35.8067 13.4443 35.2421C13.25 35.4604 13.3639 35.6264 13.5573 35.9083C13.5741 35.9328 13.5914 35.9581 13.6093 35.9844C14.6118 37.4643 19.7343 39.9219 23.7499 34.7656C23.8646 34.6183 23.9549 34.5183 24.0624 34.5163V34.5281C24.0741 34.524 24.0856 34.521 24.0969 34.519C24.1082 34.521 24.1197 34.524 24.1315 34.5281V34.5163C24.2389 34.5183 24.3293 34.6183 24.444 34.7656C28.4596 39.9219 33.5821 37.4643 34.5846 35.9844C34.6024 35.9581 34.6198 35.9328 34.6365 35.9083C34.8299 35.6264 34.9438 35.4604 34.7495 35.2421Z" fill="#FF2FBD"/>
<path fill-rule="evenodd" clip-rule="evenodd" d="M34.7495 35.2421C34.1258 35.8067 32.5834 36.7903 30.6438 36.8376C28.2552 36.8958 25.948 35.7593 24.4183 34.0988C24.2467 33.9125 23.9472 33.9125 23.7755 34.0988C22.2459 35.7593 19.9387 36.8958 17.55 36.8376C15.6104 36.7903 14.068 35.8067 13.4443 35.2421C13.25 35.4604 13.3639 35.6264 13.5573 35.9083C13.5741 35.9328 13.5914 35.9581 13.6093 35.9844C14.6118 37.4643 19.7343 39.9219 23.7499 34.7656C23.8646 34.6183 23.9549 34.5183 24.0624 34.5163V34.5281C24.0741 34.524 24.0856 34.521 24.0969 34.519C24.1082 34.521 24.1197 34.524 24.1315 34.5281V34.5163C24.2389 34.5183 24.3293 34.6183 24.444 34.7656C28.4596 39.9219 33.5821 37.4643 34.5846 35.9844C34.6024 35.9581 34.6198 35.9328 34.6365 35.9083C34.8299 35.6264 34.9438 35.4604 34.7495 35.2421Z" fill="url(#paint38_radial_637_22376)"/>
<path fill-rule="evenodd" clip-rule="evenodd" d="M34.7495 35.2421C34.1258 35.8067 32.5834 36.7903 30.6438 36.8376C28.2552 36.8958 25.948 35.7593 24.4183 34.0988C24.2467 33.9125 23.9472 33.9125 23.7755 34.0988C22.2459 35.7593 19.9387 36.8958 17.55 36.8376C15.6104 36.7903 14.068 35.8067 13.4443 35.2421C13.25 35.4604 13.3639 35.6264 13.5573 35.9083C13.5741 35.9328 13.5914 35.9581 13.6093 35.9844C14.6118 37.4643 19.7343 39.9219 23.7499 34.7656C23.8646 34.6183 23.9549 34.5183 24.0624 34.5163V34.5281C24.0741 34.524 24.0856 34.521 24.0969 34.519C24.1082 34.521 24.1197 34.524 24.1315 34.5281V34.5163C24.2389 34.5183 24.3293 34.6183 24.444 34.7656C28.4596 39.9219 33.5821 37.4643 34.5846 35.9844C34.6024 35.9581 34.6198 35.9328 34.6365 35.9083C34.8299 35.6264 34.9438 35.4604 34.7495 35.2421Z" fill="url(#paint39_radial_637_22376)"/>
<g filter="url(#filter4_f_637_22376)">
<path d="M12.7655 30.3219L17.7499 29.2281" stroke="url(#paint40_linear_637_22376)" stroke-width="0.25" stroke-linecap="round"/>
</g>
<g filter="url(#filter5_f_637_22376)">
<path d="M10.6093 29.3063L16.1249 28.025" stroke="url(#paint41_linear_637_22376)" stroke-width="0.15" stroke-linecap="round"/>
</g>
<g filter="url(#filter6_f_637_22376)">
<path d="M31.8085 27.7789C31.8632 27.8727 31.9771 27.9713 32.121 28.0016C32.3436 28.0485 35.8645 28.9 37.5936 29.275" stroke="url(#paint42_linear_637_22376)" stroke-width="0.1" stroke-linecap="round"/>
</g>
<defs>
<filter id="filter0_f_637_22376" x="30.3007" y="28.7008" width="4.42969" height="1.53125" filterUnits="userSpaceOnUse" color-interpolation-filters="sRGB">
<feFlood flood-opacity="0" result="BackgroundImageFix"/>
<feBlend mode="normal" in="SourceGraphic" in2="BackgroundImageFix" result="shape"/>
<feGaussianBlur stdDeviation="0.125" result="effect1_foregroundBlur_637_22376"/>
</filter>
<filter id="filter1_f_637_22376" x="13.4625" y="10.1719" width="21.2688" height="21.5813" filterUnits="userSpaceOnUse" color-interpolation-filters="sRGB">
<feFlood flood-opacity="0" result="BackgroundImageFix"/>
<feBlend mode="normal" in="SourceGraphic" in2="BackgroundImageFix" result="shape"/>
<feGaussianBlur stdDeviation="0.25" result="effect1_foregroundBlur_637_22376"/>
</filter>
<filter id="filter2_f_637_22376" x="32.5733" y="25.9461" width="2.77119" height="0.78291" filterUnits="userSpaceOnUse" color-interpolation-filters="sRGB">
<feFlood flood-opacity="0" result="BackgroundImageFix"/>
<feBlend mode="normal" in="SourceGraphic" in2="BackgroundImageFix" result="shape"/>
<feGaussianBlur stdDeviation="0.075" result="effect1_foregroundBlur_637_22376"/>
</filter>
<filter id="filter3_f_637_22376" x="13.4772" y="33.5092" width="21.4728" height="3.78052" filterUnits="userSpaceOnUse" color-interpolation-filters="sRGB">
<feFlood flood-opacity="0" result="BackgroundImageFix"/>
<feBlend mode="normal" in="SourceGraphic" in2="BackgroundImageFix" result="shape"/>
<feGaussianBlur stdDeviation="0.125" result="effect1_foregroundBlur_637_22376"/>
</filter>
<filter id="filter4_f_637_22376" x="12.3905" y="28.8531" width="5.73438" height="1.84375" filterUnits="userSpaceOnUse" color-interpolation-filters="sRGB">
<feFlood flood-opacity="0" result="BackgroundImageFix"/>
<feBlend mode="normal" in="SourceGraphic" in2="BackgroundImageFix" result="shape"/>
<feGaussianBlur stdDeviation="0.125" result="effect1_foregroundBlur_637_22376"/>
</filter>
<filter id="filter5_f_637_22376" x="10.2842" y="27.7" width="6.16577" height="1.9314" filterUnits="userSpaceOnUse" color-interpolation-filters="sRGB">
<feFlood flood-opacity="0" result="BackgroundImageFix"/>
<feBlend mode="normal" in="SourceGraphic" in2="BackgroundImageFix" result="shape"/>
<feGaussianBlur stdDeviation="0.125" result="effect1_foregroundBlur_637_22376"/>
</filter>
<filter id="filter6_f_637_22376" x="31.5084" y="27.4789" width="6.38525" height="2.09619" filterUnits="userSpaceOnUse" color-interpolation-filters="sRGB">
<feFlood flood-opacity="0" result="BackgroundImageFix"/>
<feBlend mode="normal" in="SourceGraphic" in2="BackgroundImageFix" result="shape"/>
<feGaussianBlur stdDeviation="0.125" result="effect1_foregroundBlur_637_22376"/>
</filter>
<linearGradient id="paint0_linear_637_22376" x1="15.2083" y1="25.8297" x2="14.5677" y2="28.5016" gradientUnits="userSpaceOnUse">
<stop stop-color="#C25B51"/>
<stop offset="1" stop-color="#C14C3B"/>
</linearGradient>
<linearGradient id="paint1_linear_637_22376" x1="33.599" y1="25.7594" x2="33.1856" y2="28.2125" gradientUnits="userSpaceOnUse">
<stop stop-color="#FF8A71"/>
<stop offset="1" stop-color="#FF7B5F"/>
</linearGradient>
<linearGradient id="paint2_linear_637_22376" x1="32.2811" y1="28.7594" x2="32.9999" y2="32.5406" gradientUnits="userSpaceOnUse">
<stop stop-color="#FF726D"/>
<stop offset="1" stop-color="#FB4F9D"/>
</linearGradient>
<radialGradient id="paint3_radial_637_22376" cx="0" cy="0" r="1" gradientUnits="userSpaceOnUse" gradientTransform="translate(31.0311 27.5719) rotate(72.2451) scale(6.66102 9.4555)">
<stop offset="0.883479" stop-color="#F54B9F" stop-opacity="0"/>
<stop offset="1" stop-color="#F54B9F"/>
</radialGradient>
<radialGradient id="paint4_radial_637_22376" cx="0" cy="0" r="1" gradientUnits="userSpaceOnUse" gradientTransform="translate(14.4687 29.0719) rotate(85.4752) scale(4.35733 10.3631)">
<stop stop-color="#E3648F"/>
<stop offset="1" stop-color="#E03D93"/>
</radialGradient>
<radialGradient id="paint5_radial_637_22376" cx="0" cy="0" r="1" gradientUnits="userSpaceOnUse" gradientTransform="translate(15.6874 30.3457) rotate(-166.938) scale(3.7694 2.49605)">
<stop stop-color="#DB5553"/>
<stop offset="1" stop-color="#DB5553" stop-opacity="0"/>
</radialGradient>
<linearGradient id="paint6_linear_637_22376" x1="13.8358" y1="28.1656" x2="13.9374" y2="28.6891" gradientUnits="userSpaceOnUse">
<stop stop-color="#D46660"/>
<stop offset="1" stop-color="#D46660" stop-opacity="0"/>
</linearGradient>
<linearGradient id="paint7_linear_637_22376" x1="31.4491" y1="29.4313" x2="35.4803" y2="30.3375" gradientUnits="userSpaceOnUse">
<stop stop-color="#FF9292"/>
<stop offset="1" stop-color="#FF9292" stop-opacity="0"/>
</linearGradient>
<linearGradient id="paint8_linear_637_22376" x1="30.9999" y1="31.8375" x2="33.7499" y2="29.8219" gradientUnits="userSpaceOnUse">
<stop stop-color="#F84658"/>
<stop offset="1" stop-color="#F84658" stop-opacity="0"/>
</linearGradient>
<radialGradient id="paint9_radial_637_22376" cx="0" cy="0" r="1" gradientUnits="userSpaceOnUse" gradientTransform="translate(31.3749 28.8062) rotate(74.817) scale(4.35515 5.33091)">
<stop offset="0.77634" stop-color="#F6419A" stop-opacity="0"/>
<stop offset="1" stop-color="#F6419A"/>
</radialGradient>
<radialGradient id="paint10_radial_637_22376" cx="0" cy="0" r="1" gradientUnits="userSpaceOnUse" gradientTransform="translate(31.3749 28.8062) rotate(75.1882) scale(4.33951 4.36526)">
<stop offset="0.989882" stop-color="#F963B4" stop-opacity="0"/>
<stop offset="1" stop-color="#F963B4"/>
</radialGradient>
<radialGradient id="paint11_radial_637_22376" cx="0" cy="0" r="1" gradientUnits="userSpaceOnUse" gradientTransform="translate(31.8124 29.5094) rotate(9.36345) scale(2.97717 0.481373)">
<stop stop-color="#FF706F"/>
<stop offset="1" stop-color="#FF706F" stop-opacity="0"/>
</radialGradient>
<linearGradient id="paint12_linear_637_22376" x1="17.4999" y1="32.0094" x2="16.1874" y2="30.1969" gradientUnits="userSpaceOnUse">
<stop stop-color="#E03B55"/>
<stop offset="1" stop-color="#E03B55" stop-opacity="0"/>
</linearGradient>
<radialGradient id="paint13_radial_637_22376" cx="0" cy="0" r="1" gradientUnits="userSpaceOnUse" gradientTransform="translate(16.078 29.1187) rotate(120.455) scale(4.22332 6.02155)">
<stop offset="0.788209" stop-color="#DC3489" stop-opacity="0"/>
<stop offset="1" stop-color="#DC3489"/>
</radialGradient>
<linearGradient id="paint14_linear_637_22376" x1="15.5937" y1="29.3531" x2="15.7187" y2="29.9" gradientUnits="userSpaceOnUse">
<stop stop-color="#EA666E"/>
<stop offset="1" stop-color="#EA666E" stop-opacity="0"/>
</linearGradient>
<radialGradient id="paint15_radial_637_22376" cx="0" cy="0" r="1" gradientUnits="userSpaceOnUse" gradientTransform="translate(16.2499 30.65) rotate(96.6486) scale(2.56412 4.50179)">
<stop offset="0.920906" stop-color="#E652AE" stop-opacity="0"/>
<stop offset="1" stop-color="#E652AE"/>
</radialGradient>
<linearGradient id="paint16_linear_637_22376" x1="24.0969" y1="31.7906" x2="24.0969" y2="38.4156" gradientUnits="userSpaceOnUse">
<stop stop-color="#FF6E7D"/>
<stop offset="1" stop-color="#FF4AA0"/>
</linearGradient>
<radialGradient id="paint17_radial_637_22376" cx="0" cy="0" r="1" gradientUnits="userSpaceOnUse" gradientTransform="translate(8.06238 39.3531) rotate(-17.7251) scale(16.8337 7.40209)">
<stop stop-color="#F62DA9"/>
<stop offset="0.874353" stop-color="#F62DA9" stop-opacity="0"/>
</radialGradient>
<radialGradient id="paint18_radial_637_22376" cx="0" cy="0" r="1" gradientUnits="userSpaceOnUse" gradientTransform="translate(30.0624 39.3531) rotate(-111.851) scale(6.38113 12.1484)">
<stop stop-color="#F62DA9"/>
<stop offset="1" stop-color="#F62DA9" stop-opacity="0"/>
</radialGradient>
<linearGradient id="paint19_linear_637_22376" x1="17.828" y1="31.1343" x2="18.453" y2="31.8374" gradientUnits="userSpaceOnUse">
<stop stop-color="#EC4E5E"/>
<stop offset="1" stop-color="#EC4E5E" stop-opacity="0"/>
</linearGradient>
<radialGradient id="paint20_radial_637_22376" cx="0" cy="0" r="1" gradientUnits="userSpaceOnUse" gradientTransform="translate(24.0969 31.1969) rotate(-90) scale(6.25 5.65295)">
<stop stop-color="#FF8994"/>
<stop offset="1" stop-color="#FF8994" stop-opacity="0"/>
</radialGradient>
<radialGradient id="paint21_radial_637_22376" cx="0" cy="0" r="1" gradientUnits="userSpaceOnUse" gradientTransform="translate(28.1249 18.1657) rotate(134.114) scale(17.1494 23.8934)">
<stop stop-color="#FFBF6B"/>
<stop offset="1" stop-color="#DA8C42"/>
</radialGradient>
<radialGradient id="paint22_radial_637_22376" cx="0" cy="0" r="1" gradientUnits="userSpaceOnUse" gradientTransform="translate(31.1249 17.4781) rotate(147.771) scale(3.39864 7.16968)">
<stop stop-color="#FFD37F"/>
<stop offset="1" stop-color="#FFD37F" stop-opacity="0"/>
</radialGradient>
<radialGradient id="paint23_radial_637_22376" cx="0" cy="0" r="1" gradientUnits="userSpaceOnUse" gradientTransform="translate(32.4374 22.5094) rotate(179.39) scale(1.46883 1.9841)">
<stop offset="0.448276" stop-color="#F87E3D"/>
<stop offset="1" stop-color="#F87E3D" stop-opacity="0"/>
</radialGradient>
<radialGradient id="paint24_radial_637_22376" cx="0" cy="0" r="1" gradientUnits="userSpaceOnUse" gradientTransform="translate(32.8749 23.0407) rotate(-163.25) scale(20.1682 15.3323)">
<stop offset="0.78588" stop-color="#BA7A4F" stop-opacity="0"/>
<stop offset="1" stop-color="#BA7A4F"/>
</radialGradient>
<radialGradient id="paint25_radial_637_22376" cx="0" cy="0" r="1" gradientUnits="userSpaceOnUse" gradientTransform="translate(32.8749 23.0407) rotate(-163.25) scale(20.1682 15.3323)">
<stop offset="0.898413" stop-color="#A87450" stop-opacity="0"/>
<stop offset="1" stop-color="#A87450"/>
</radialGradient>
<radialGradient id="paint26_radial_637_22376" cx="0" cy="0" r="1" gradientUnits="userSpaceOnUse" gradientTransform="translate(24.0969 10.3531) rotate(90) scale(22 17.8352)">
<stop offset="0.640327" stop-color="#FF52A5" stop-opacity="0"/>
<stop offset="0.972752" stop-color="#FF52A5"/>
</radialGradient>
<radialGradient id="paint27_radial_637_22376" cx="0" cy="0" r="1" gradientUnits="userSpaceOnUse" gradientTransform="translate(24.0969 10.3531) rotate(90) scale(20.5 15.3169)">
<stop offset="0.917683" stop-color="#FF586B" stop-opacity="0"/>
<stop offset="1" stop-color="#FF586B"/>
</radialGradient>
<radialGradient id="paint28_radial_637_22376" cx="0" cy="0" r="1" gradientUnits="userSpaceOnUse" gradientTransform="translate(14.3625 23.4625) rotate(47.4733) scale(1.59014 2.38027)">
<stop stop-color="#BA7A4F"/>
<stop offset="1" stop-color="#BA7A4F" stop-opacity="0"/>
</radialGradient>
<radialGradient id="paint29_radial_637_22376" cx="0" cy="0" r="1" gradientUnits="userSpaceOnUse" gradientTransform="translate(15.6118 20.8219) rotate(125.48) scale(3.60731 4.04673)">
<stop stop-color="#4D4061"/>
<stop offset="1" stop-color="#3C2057"/>
</radialGradient>
<radialGradient id="paint30_radial_637_22376" cx="0" cy="0" r="1" gradientUnits="userSpaceOnUse" gradientTransform="translate(13.0493 19.7906) rotate(48.0128) scale(2.10213 2.87953)">
<stop stop-color="#382541"/>
<stop offset="1" stop-color="#382541" stop-opacity="0"/>
</radialGradient>
<radialGradient id="paint31_radial_637_22376" cx="0" cy="0" r="1" gradientUnits="userSpaceOnUse" gradientTransform="translate(14.4556 19.025) rotate(90) scale(4.39063 3.46875)">
<stop offset="0.791837" stop-color="#3F1C52" stop-opacity="0"/>
<stop offset="1" stop-color="#3F1C52"/>
</radialGradient>
<radialGradient id="paint32_radial_637_22376" cx="0" cy="0" r="1" gradientUnits="userSpaceOnUse" gradientTransform="translate(34.7811 20.8219) rotate(125.48) scale(3.60731 4.04673)">
<stop stop-color="#4D4061"/>
<stop offset="1" stop-color="#3C2057"/>
</radialGradient>
<radialGradient id="paint33_radial_637_22376" cx="0" cy="0" r="1" gradientUnits="userSpaceOnUse" gradientTransform="translate(32.2186 19.7906) rotate(48.0128) scale(2.10213 2.87953)">
<stop stop-color="#382541"/>
<stop offset="1" stop-color="#382541" stop-opacity="0"/>
</radialGradient>
<radialGradient id="paint34_radial_637_22376" cx="0" cy="0" r="1" gradientUnits="userSpaceOnUse" gradientTransform="translate(33.6249 19.025) rotate(90) scale(4.39063 3.46875)">
<stop offset="0.791837" stop-color="#3F1C52" stop-opacity="0"/>
<stop offset="1" stop-color="#3F1C52"/>
</radialGradient>
<linearGradient id="paint35_linear_637_22376" x1="32.9686" y1="26.4235" x2="36.5936" y2="25.525" gradientUnits="userSpaceOnUse">
<stop stop-color="#FFA78E"/>
<stop offset="1" stop-color="#FFA78E" stop-opacity="0"/>
</linearGradient>
<radialGradient id="paint36_radial_637_22376" cx="0" cy="0" r="1" gradientUnits="userSpaceOnUse" gradientTransform="translate(22.9999 33.0094) rotate(150.541) scale(7.78822 3.26921)">
<stop offset="0.00773205" stop-color="#FF81B1"/>
<stop offset="1" stop-color="#FF81B1" stop-opacity="0"/>
</radialGradient>
<radialGradient id="paint37_radial_637_22376" cx="0" cy="0" r="1" gradientUnits="userSpaceOnUse" gradientTransform="translate(34.3436 34.9782) rotate(172.129) scale(6.84574 2.8736)">
<stop offset="0.00773205" stop-color="#FF81B1"/>
<stop offset="1" stop-color="#FF81B1" stop-opacity="0"/>
</radialGradient>
<radialGradient id="paint38_radial_637_22376" cx="0" cy="0" r="1" gradientUnits="userSpaceOnUse" gradientTransform="translate(28.6874 38.3219) rotate(-79.3302) scale(2.19419 7.1162)">
<stop stop-color="#FC5ADC"/>
<stop offset="1" stop-color="#FC5ADC" stop-opacity="0"/>
</radialGradient>
<radialGradient id="paint39_radial_637_22376" cx="0" cy="0" r="1" gradientUnits="userSpaceOnUse" gradientTransform="translate(19.4999 38.2594) rotate(-93.8141) scale(1.40937 6.05927)">
<stop stop-color="#FC5ADC"/>
<stop offset="1" stop-color="#FC5ADC" stop-opacity="0"/>
</radialGradient>
<linearGradient id="paint40_linear_637_22376" x1="13.3436" y1="30.65" x2="17.4686" y2="29.775" gradientUnits="userSpaceOnUse">
<stop stop-color="#F68696"/>
<stop offset="1" stop-color="#F68696" stop-opacity="0"/>
</linearGradient>
<linearGradient id="paint41_linear_637_22376" x1="11.1661" y1="29.6297" x2="15.8095" y2="28.6475" gradientUnits="userSpaceOnUse">
<stop stop-color="#DF6E7B"/>
<stop offset="1" stop-color="#F68696" stop-opacity="0"/>
</linearGradient>
<linearGradient id="paint42_linear_637_22376" x1="32.4686" y1="28.15" x2="38.6561" y2="29.3531" gradientUnits="userSpaceOnUse">
<stop stop-color="#FF9F93"/>
<stop offset="1" stop-color="#FF9F93" stop-opacity="0"/>
</linearGradient>
</defs>
</svg>
