<svg width="48" height="48" viewBox="0 0 48 48" fill="none" xmlns="http://www.w3.org/2000/svg">
<rect width="48" height="48" rx="24" fill="#F2F5FF"/>
<path d="M32.4201 21.2064C34.9237 21.2064 36.9532 19.1768 36.9532 16.6733C36.9532 14.1697 34.9237 12.1401 32.4201 12.1401C29.9165 12.1401 27.887 14.1697 27.887 16.6733C27.887 19.1768 29.9165 21.2064 32.4201 21.2064Z" fill="#DCDDDF"/>
<path d="M32.4201 21.2064C34.9237 21.2064 36.9532 19.1768 36.9532 16.6733C36.9532 14.1697 34.9237 12.1401 32.4201 12.1401C29.9165 12.1401 27.887 14.1697 27.887 16.6733C27.887 19.1768 29.9165 21.2064 32.4201 21.2064Z" fill="url(#paint0_linear_637_22369)"/>
<path d="M32.4201 21.2064C34.9237 21.2064 36.9532 19.1768 36.9532 16.6733C36.9532 14.1697 34.9237 12.1401 32.4201 12.1401C29.9165 12.1401 27.887 14.1697 27.887 16.6733C27.887 19.1768 29.9165 21.2064 32.4201 21.2064Z" fill="url(#paint1_linear_637_22369)"/>
<path d="M32.4201 21.2064C34.9237 21.2064 36.9532 19.1768 36.9532 16.6733C36.9532 14.1697 34.9237 12.1401 32.4201 12.1401C29.9165 12.1401 27.887 14.1697 27.887 16.6733C27.887 19.1768 29.9165 21.2064 32.4201 21.2064Z" fill="url(#paint2_radial_637_22369)"/>
<path d="M32.4201 21.2064C34.9237 21.2064 36.9532 19.1768 36.9532 16.6733C36.9532 14.1697 34.9237 12.1401 32.4201 12.1401C29.9165 12.1401 27.887 14.1697 27.887 16.6733C27.887 19.1768 29.9165 21.2064 32.4201 21.2064Z" fill="url(#paint3_radial_637_22369)"/>
<path d="M32.4201 21.2064C34.9237 21.2064 36.9532 19.1768 36.9532 16.6733C36.9532 14.1697 34.9237 12.1401 32.4201 12.1401C29.9165 12.1401 27.887 14.1697 27.887 16.6733C27.887 19.1768 29.9165 21.2064 32.4201 21.2064Z" fill="url(#paint4_radial_637_22369)"/>
<path d="M32.42 19.3236C33.8504 19.3236 35.0099 18.1641 35.0099 16.7338C35.0099 15.3034 33.8504 14.1439 32.42 14.1439C30.9897 14.1439 29.8302 15.3034 29.8302 16.7338C29.8302 18.1641 30.9897 19.3236 32.42 19.3236Z" fill="url(#paint5_linear_637_22369)"/>
<path d="M15.58 21.2064C13.0765 21.2064 11.0469 19.1768 11.0469 16.6733C11.0469 14.1697 13.0765 12.1401 15.58 12.1401C18.0836 12.1401 20.1132 14.1697 20.1132 16.6733C20.1132 19.1768 18.0836 21.2064 15.58 21.2064Z" fill="#DCDDDF"/>
<path d="M15.58 21.2064C13.0765 21.2064 11.0469 19.1768 11.0469 16.6733C11.0469 14.1697 13.0765 12.1401 15.58 12.1401C18.0836 12.1401 20.1132 14.1697 20.1132 16.6733C20.1132 19.1768 18.0836 21.2064 15.58 21.2064Z" fill="url(#paint6_linear_637_22369)"/>
<path d="M15.58 21.2064C13.0765 21.2064 11.0469 19.1768 11.0469 16.6733C11.0469 14.1697 13.0765 12.1401 15.58 12.1401C18.0836 12.1401 20.1132 14.1697 20.1132 16.6733C20.1132 19.1768 18.0836 21.2064 15.58 21.2064Z" fill="url(#paint7_radial_637_22369)"/>
<path d="M15.58 21.2064C13.0765 21.2064 11.0469 19.1768 11.0469 16.6733C11.0469 14.1697 13.0765 12.1401 15.58 12.1401C18.0836 12.1401 20.1132 14.1697 20.1132 16.6733C20.1132 19.1768 18.0836 21.2064 15.58 21.2064Z" fill="url(#paint8_radial_637_22369)"/>
<path d="M15.5801 19.3236C14.1497 19.3236 12.9902 18.1641 12.9902 16.7338C12.9902 15.3034 14.1497 14.1439 15.5801 14.1439C17.0104 14.1439 18.1699 15.3034 18.1699 16.7338C18.1699 18.1641 17.0104 19.3236 15.5801 19.3236Z" fill="url(#paint9_radial_637_22369)"/>
<path d="M15.5801 19.3236C14.1497 19.3236 12.9902 18.1641 12.9902 16.7338C12.9902 15.3034 14.1497 14.1439 15.5801 14.1439C17.0104 14.1439 18.1699 15.3034 18.1699 16.7338C18.1699 18.1641 17.0104 19.3236 15.5801 19.3236Z" fill="url(#paint10_radial_637_22369)"/>
<path d="M38.2137 27.5403C38.2137 27.5403 38.2137 27.5304 38.2137 27.5105C38.2137 26.9744 38.163 26.4483 38.0614 25.942C37.7466 23.887 36.7817 20.2238 33.8364 17.2654C29.6012 13.0165 23.995 13.2945 23.995 13.2945C23.995 13.2945 18.3887 13.0165 14.1536 17.2654C11.1981 20.2238 10.2434 23.887 9.92859 25.942C9.82703 26.4483 9.77625 26.9744 9.77625 27.5204C9.77625 27.5403 9.77625 27.5502 9.77625 27.5502C9.77625 30.9553 11.7973 33.9037 14.7325 35.3134C14.7325 35.3134 17.9012 37.1301 23.995 37.1301C30.0887 37.1301 33.2575 35.3134 33.2575 35.3134C36.1927 33.8938 38.2137 30.9454 38.2137 27.5403Z" fill="url(#paint11_radial_637_22369)"/>
<path d="M38.2137 27.5403C38.2137 27.5403 38.2137 27.5304 38.2137 27.5105C38.2137 26.9744 38.163 26.4483 38.0614 25.942C37.7466 23.887 36.7817 20.2238 33.8364 17.2654C29.6012 13.0165 23.995 13.2945 23.995 13.2945C23.995 13.2945 18.3887 13.0165 14.1536 17.2654C11.1981 20.2238 10.2434 23.887 9.92859 25.942C9.82703 26.4483 9.77625 26.9744 9.77625 27.5204C9.77625 27.5403 9.77625 27.5502 9.77625 27.5502C9.77625 30.9553 11.7973 33.9037 14.7325 35.3134C14.7325 35.3134 17.9012 37.1301 23.995 37.1301C30.0887 37.1301 33.2575 35.3134 33.2575 35.3134C36.1927 33.8938 38.2137 30.9454 38.2137 27.5403Z" fill="url(#paint12_radial_637_22369)"/>
<path d="M38.2137 27.5403C38.2137 27.5403 38.2137 27.5304 38.2137 27.5105C38.2137 26.9744 38.163 26.4483 38.0614 25.942C37.7466 23.887 36.7817 20.2238 33.8364 17.2654C29.6012 13.0165 23.995 13.2945 23.995 13.2945C23.995 13.2945 18.3887 13.0165 14.1536 17.2654C11.1981 20.2238 10.2434 23.887 9.92859 25.942C9.82703 26.4483 9.77625 26.9744 9.77625 27.5204C9.77625 27.5403 9.77625 27.5502 9.77625 27.5502C9.77625 30.9553 11.7973 33.9037 14.7325 35.3134C14.7325 35.3134 17.9012 37.1301 23.995 37.1301C30.0887 37.1301 33.2575 35.3134 33.2575 35.3134C36.1927 33.8938 38.2137 30.9454 38.2137 27.5403Z" fill="url(#paint13_radial_637_22369)"/>
<path d="M38.2137 27.5403C38.2137 27.5403 38.2137 27.5304 38.2137 27.5105C38.2137 26.9744 38.163 26.4483 38.0614 25.942C37.7466 23.887 36.7817 20.2238 33.8364 17.2654C29.6012 13.0165 23.995 13.2945 23.995 13.2945C23.995 13.2945 18.3887 13.0165 14.1536 17.2654C11.1981 20.2238 10.2434 23.887 9.92859 25.942C9.82703 26.4483 9.77625 26.9744 9.77625 27.5204C9.77625 27.5403 9.77625 27.5502 9.77625 27.5502C9.77625 30.9553 11.7973 33.9037 14.7325 35.3134C14.7325 35.3134 17.9012 37.1301 23.995 37.1301C30.0887 37.1301 33.2575 35.3134 33.2575 35.3134C36.1927 33.8938 38.2137 30.9454 38.2137 27.5403Z" fill="url(#paint14_radial_637_22369)"/>
<path d="M38.2137 27.5403C38.2137 27.5403 38.2137 27.5304 38.2137 27.5105C38.2137 26.9744 38.163 26.4483 38.0614 25.942C37.7466 23.887 36.7817 20.2238 33.8364 17.2654C29.6012 13.0165 23.995 13.2945 23.995 13.2945C23.995 13.2945 18.3887 13.0165 14.1536 17.2654C11.1981 20.2238 10.2434 23.887 9.92859 25.942C9.82703 26.4483 9.77625 26.9744 9.77625 27.5204C9.77625 27.5403 9.77625 27.5502 9.77625 27.5502C9.77625 30.9553 11.7973 33.9037 14.7325 35.3134C14.7325 35.3134 17.9012 37.1301 23.995 37.1301C30.0887 37.1301 33.2575 35.3134 33.2575 35.3134C36.1927 33.8938 38.2137 30.9454 38.2137 27.5403Z" fill="url(#paint15_radial_637_22369)"/>
<path d="M38.2137 27.5403C38.2137 27.5403 38.2137 27.5304 38.2137 27.5105C38.2137 26.9744 38.163 26.4483 38.0614 25.942C37.7466 23.887 36.7817 20.2238 33.8364 17.2654C29.6012 13.0165 23.995 13.2945 23.995 13.2945C23.995 13.2945 18.3887 13.0165 14.1536 17.2654C11.1981 20.2238 10.2434 23.887 9.92859 25.942C9.82703 26.4483 9.77625 26.9744 9.77625 27.5204C9.77625 27.5403 9.77625 27.5502 9.77625 27.5502C9.77625 30.9553 11.7973 33.9037 14.7325 35.3134C14.7325 35.3134 17.9012 37.1301 23.995 37.1301C30.0887 37.1301 33.2575 35.3134 33.2575 35.3134C36.1927 33.8938 38.2137 30.9454 38.2137 27.5403Z" fill="url(#paint16_radial_637_22369)"/>
<path d="M38.2137 27.5403C38.2137 27.5403 38.2137 27.5304 38.2137 27.5105C38.2137 26.9744 38.163 26.4483 38.0614 25.942C37.7466 23.887 36.7817 20.2238 33.8364 17.2654C29.6012 13.0165 23.995 13.2945 23.995 13.2945C23.995 13.2945 18.3887 13.0165 14.1536 17.2654C11.1981 20.2238 10.2434 23.887 9.92859 25.942C9.82703 26.4483 9.77625 26.9744 9.77625 27.5204C9.77625 27.5403 9.77625 27.5502 9.77625 27.5502C9.77625 30.9553 11.7973 33.9037 14.7325 35.3134C14.7325 35.3134 17.9012 37.1301 23.995 37.1301C30.0887 37.1301 33.2575 35.3134 33.2575 35.3134C36.1927 33.8938 38.2137 30.9454 38.2137 27.5403Z" fill="url(#paint17_radial_637_22369)"/>
<g filter="url(#filter0_f_637_22369)">
<path d="M19.6826 25.493C19.2726 25.493 18.9326 25.153 18.9326 24.743V23.2571C18.9326 22.8471 19.2726 22.5071 19.6826 22.5071C20.0926 22.5071 20.4326 22.8471 20.4326 23.2571V24.743C20.4326 25.153 20.1026 25.493 19.6826 25.493Z" fill="#9E9BA4"/>
</g>
<g filter="url(#filter1_f_637_22369)">
<path d="M27.6823 25.4079C27.2723 25.4079 26.9323 25.0679 26.9323 24.6579V23.172C26.9323 22.762 27.2723 22.422 27.6823 22.422C28.0923 22.422 28.4323 22.762 28.4323 23.172V24.6579C28.4323 25.0679 28.1023 25.4079 27.6823 25.4079Z" fill="#9E9BA4"/>
</g>
<path d="M19.995 25.0954C19.585 25.0954 19.245 24.7554 19.245 24.3454V22.8595C19.245 22.4495 19.585 22.1095 19.995 22.1095C20.405 22.1095 20.745 22.4495 20.745 22.8595V24.3454C20.745 24.7554 20.415 25.0954 19.995 25.0954Z" fill="url(#paint18_linear_637_22369)"/>
<path d="M19.995 25.0954C19.585 25.0954 19.245 24.7554 19.245 24.3454V22.8595C19.245 22.4495 19.585 22.1095 19.995 22.1095C20.405 22.1095 20.745 22.4495 20.745 22.8595V24.3454C20.745 24.7554 20.415 25.0954 19.995 25.0954Z" fill="url(#paint19_linear_637_22369)"/>
<path d="M19.995 25.0954C19.585 25.0954 19.245 24.7554 19.245 24.3454V22.8595C19.245 22.4495 19.585 22.1095 19.995 22.1095C20.405 22.1095 20.745 22.4495 20.745 22.8595V24.3454C20.745 24.7554 20.415 25.0954 19.995 25.0954Z" fill="url(#paint20_radial_637_22369)"/>
<path d="M27.995 25.0954C27.585 25.0954 27.245 24.7554 27.245 24.3454V22.8595C27.245 22.4495 27.585 22.1095 27.995 22.1095C28.405 22.1095 28.745 22.4495 28.745 22.8595V24.3454C28.745 24.7554 28.415 25.0954 27.995 25.0954Z" fill="url(#paint21_linear_637_22369)"/>
<path d="M27.995 25.0954C27.585 25.0954 27.245 24.7554 27.245 24.3454V22.8595C27.245 22.4495 27.585 22.1095 27.995 22.1095C28.405 22.1095 28.745 22.4495 28.745 22.8595V24.3454C28.745 24.7554 28.415 25.0954 27.995 25.0954Z" fill="url(#paint22_linear_637_22369)"/>
<path d="M27.995 25.0954C27.585 25.0954 27.245 24.7554 27.245 24.3454V22.8595C27.245 22.4495 27.585 22.1095 27.995 22.1095C28.405 22.1095 28.745 22.4495 28.745 22.8595V24.3454C28.745 24.7554 28.415 25.0954 27.995 25.0954Z" fill="url(#paint23_radial_637_22369)"/>
<g filter="url(#filter2_f_637_22369)">
<path d="M23.6799 26.2088C22.9739 26.1745 21.7773 26.2576 20.5379 26.7133C19.116 27.2361 18.4541 27.625 18.4541 29.9375C18.4541 35.0312 21.3624 35.9479 23.5166 35.2187C25.5479 34.5312 27.7353 33.4494 28.6104 30.625C29.0587 29.1779 28.1727 27.5127 26.7854 26.9041C25.576 26.3736 24.3867 26.2176 23.6799 26.2088Z" fill="url(#paint24_linear_637_22369)"/>
</g>
<path d="M23.995 25.4939C23.2618 25.4806 22.0236 25.6047 20.7528 26.1165C19.2949 26.7036 18.6381 28.3577 19.0571 29.8725C19.65 32.0154 20.9774 34.1501 23.995 34.1501C27.0127 34.1501 28.34 32.0154 28.9329 29.8725C29.3519 28.3577 28.6951 26.7036 27.2372 26.1165C25.9664 25.6047 24.7282 25.4806 23.995 25.4939Z" fill="url(#paint25_linear_637_22369)"/>
<path d="M23.995 25.4939C23.2618 25.4806 22.0236 25.6047 20.7528 26.1165C19.2949 26.7036 18.6381 28.3577 19.0571 29.8725C19.65 32.0154 20.9774 34.1501 23.995 34.1501C27.0127 34.1501 28.34 32.0154 28.9329 29.8725C29.3519 28.3577 28.6951 26.7036 27.2372 26.1165C25.9664 25.6047 24.7282 25.4806 23.995 25.4939Z" fill="url(#paint26_radial_637_22369)"/>
<path d="M23.995 25.4939C23.2618 25.4806 22.0236 25.6047 20.7528 26.1165C19.2949 26.7036 18.6381 28.3577 19.0571 29.8725C19.65 32.0154 20.9774 34.1501 23.995 34.1501C27.0127 34.1501 28.34 32.0154 28.9329 29.8725C29.3519 28.3577 28.6951 26.7036 27.2372 26.1165C25.9664 25.6047 24.7282 25.4806 23.995 25.4939Z" fill="url(#paint27_radial_637_22369)"/>
<g filter="url(#filter3_f_637_22369)">
<path fill-rule="evenodd" clip-rule="evenodd" d="M21.0734 29.7839C21.0734 29.5078 20.8554 29.2839 20.5865 29.2839C20.3176 29.2839 20.0996 29.5078 20.0996 29.7839C20.0996 31.0643 21.0391 32.178 22.2808 32.178C22.9818 32.178 23.5864 31.8232 23.9801 31.2838C24.3738 31.8232 24.9783 32.178 25.6793 32.178C26.921 32.178 27.8605 31.0643 27.8605 29.7839C27.8605 29.5078 27.6425 29.2839 27.3736 29.2839C27.1047 29.2839 26.8867 29.5078 26.8867 29.7839C26.8867 30.5936 26.3071 31.178 25.6793 31.178C25.0514 31.178 24.4718 30.5936 24.4718 29.7839C24.4718 29.5078 24.2538 29.2839 23.9849 29.2839C23.9833 29.2839 23.9817 29.2839 23.9801 29.284C23.9784 29.2839 23.9768 29.2839 23.9752 29.2839C23.7063 29.2839 23.4883 29.5078 23.4883 29.7839C23.4883 30.5936 22.9087 31.178 22.2808 31.178C21.653 31.178 21.0734 30.5936 21.0734 29.7839Z" fill="#BAADCB"/>
</g>
<path d="M23.99 29.6433C23.99 30.6883 23.21 31.5374 22.25 31.5374C21.29 31.5374 20.51 30.6883 20.51 29.6433" stroke="url(#paint28_radial_637_22369)" stroke-miterlimit="10" stroke-linecap="round"/>
<path d="M23.99 29.6433C23.99 30.6883 23.21 31.5374 22.25 31.5374C21.29 31.5374 20.51 30.6883 20.51 29.6433" stroke="url(#paint29_radial_637_22369)" stroke-miterlimit="10" stroke-linecap="round"/>
<path d="M27.48 29.6433C27.48 30.6883 26.7 31.5374 25.74 31.5374C24.78 31.5374 24 30.6883 24 29.6433" stroke="url(#paint30_radial_637_22369)" stroke-miterlimit="10" stroke-linecap="round"/>
<g filter="url(#filter4_f_637_22369)">
<path d="M20.51 29.6433C20.5517 30.1641 21.0444 31.2246 22.1194 31.2996C23.4631 31.3933 23.9319 30.3308 23.9788 29.6433C23.9527 30.1954 24.5569 31.3777 25.8225 31.3777C26.91 31.3777 27.4215 30.1954 27.4788 29.6433" stroke="url(#paint31_linear_637_22369)" stroke-width="0.25" stroke-linecap="round" stroke-linejoin="round"/>
</g>
<g filter="url(#filter5_f_637_22369)">
<path d="M22.7049 26.4657L24.595 26.2875C25.3235 26.2188 25.7516 26.8844 25.4271 27.4641C25.0508 28.1363 24.4767 28.5907 24.4767 28.5907C24.2882 28.7452 24.0841 28.8357 23.8834 28.8531C23.683 28.8736 23.4656 28.8228 23.2515 28.7062C23.2515 28.7062 22.6026 28.3671 22.1074 27.7771C21.6802 27.2682 21.9763 26.5344 22.7049 26.4657Z" fill="#AEABB5"/>
</g>
<path d="M23.1082 26.1166H24.8818C25.5654 26.1166 25.9052 26.8415 25.5525 27.4055C25.1436 28.0594 24.5698 28.4705 24.5698 28.4705C24.381 28.6109 24.1832 28.6841 23.995 28.6825C23.8068 28.6841 23.6091 28.6109 23.4202 28.4705C23.4202 28.4705 22.8464 28.0594 22.4375 27.4055C22.0848 26.8415 22.4246 26.1166 23.1082 26.1166Z" fill="url(#paint32_linear_637_22369)"/>
<path d="M23.1082 26.1166H24.8818C25.5654 26.1166 25.9052 26.8415 25.5525 27.4055C25.1436 28.0594 24.5698 28.4705 24.5698 28.4705C24.381 28.6109 24.1832 28.6841 23.995 28.6825C23.8068 28.6841 23.6091 28.6109 23.4202 28.4705C23.4202 28.4705 22.8464 28.0594 22.4375 27.4055C22.0848 26.8415 22.4246 26.1166 23.1082 26.1166Z" fill="url(#paint33_linear_637_22369)"/>
<path d="M23.1082 26.1166H24.8818C25.5654 26.1166 25.9052 26.8415 25.5525 27.4055C25.1436 28.0594 24.5698 28.4705 24.5698 28.4705C24.381 28.6109 24.1832 28.6841 23.995 28.6825C23.8068 28.6841 23.6091 28.6109 23.4202 28.4705C23.4202 28.4705 22.8464 28.0594 22.4375 27.4055C22.0848 26.8415 22.4246 26.1166 23.1082 26.1166Z" fill="url(#paint34_linear_637_22369)"/>
<path d="M23.1082 26.1166H24.8818C25.5654 26.1166 25.9052 26.8415 25.5525 27.4055C25.1436 28.0594 24.5698 28.4705 24.5698 28.4705C24.381 28.6109 24.1832 28.6841 23.995 28.6825C23.8068 28.6841 23.6091 28.6109 23.4202 28.4705C23.4202 28.4705 22.8464 28.0594 22.4375 27.4055C22.0848 26.8415 22.4246 26.1166 23.1082 26.1166Z" fill="url(#paint35_radial_637_22369)"/>
<path d="M23.1082 26.1166H24.8818C25.5654 26.1166 25.9052 26.8415 25.5525 27.4055C25.1436 28.0594 24.5698 28.4705 24.5698 28.4705C24.381 28.6109 24.1832 28.6841 23.995 28.6825C23.8068 28.6841 23.6091 28.6109 23.4202 28.4705C23.4202 28.4705 22.8464 28.0594 22.4375 27.4055C22.0848 26.8415 22.4246 26.1166 23.1082 26.1166Z" fill="url(#paint36_radial_637_22369)"/>
<g filter="url(#filter6_f_637_22369)">
<path d="M36.8531 27.7829C36.2386 22.6555 34.1072 18.2161 30.0377 16.4158C29.5115 16.1829 28.9119 16.4311 28.6402 16.9384C28.3961 17.3939 28.4765 17.9527 28.8211 18.3379C30.9721 20.7432 32.3569 23.4028 32.5009 27.6993C32.5539 29.2802 34.1337 30.4555 35.5967 29.8543C36.4291 29.5122 36.9602 28.6764 36.8531 27.7829Z" fill="url(#paint37_linear_637_22369)"/>
</g>
<defs>
<filter id="filter0_f_637_22369" x="18.4326" y="22.0071" width="2.5" height="3.98596" filterUnits="userSpaceOnUse" color-interpolation-filters="sRGB">
<feFlood flood-opacity="0" result="BackgroundImageFix"/>
<feBlend mode="normal" in="SourceGraphic" in2="BackgroundImageFix" result="shape"/>
<feGaussianBlur stdDeviation="0.25" result="effect1_foregroundBlur_637_22369"/>
</filter>
<filter id="filter1_f_637_22369" x="26.4323" y="21.922" width="2.5" height="3.98596" filterUnits="userSpaceOnUse" color-interpolation-filters="sRGB">
<feFlood flood-opacity="0" result="BackgroundImageFix"/>
<feBlend mode="normal" in="SourceGraphic" in2="BackgroundImageFix" result="shape"/>
<feGaussianBlur stdDeviation="0.25" result="effect1_foregroundBlur_637_22369"/>
</filter>
<filter id="filter2_f_637_22369" x="17.7041" y="25.4519" width="11.7736" height="10.7369" filterUnits="userSpaceOnUse" color-interpolation-filters="sRGB">
<feFlood flood-opacity="0" result="BackgroundImageFix"/>
<feBlend mode="normal" in="SourceGraphic" in2="BackgroundImageFix" result="shape"/>
<feGaussianBlur stdDeviation="0.375" result="effect1_foregroundBlur_637_22369"/>
</filter>
<filter id="filter3_f_637_22369" x="19.6996" y="28.8839" width="8.56086" height="3.69404" filterUnits="userSpaceOnUse" color-interpolation-filters="sRGB">
<feFlood flood-opacity="0" result="BackgroundImageFix"/>
<feBlend mode="normal" in="SourceGraphic" in2="BackgroundImageFix" result="shape"/>
<feGaussianBlur stdDeviation="0.2" result="effect1_foregroundBlur_637_22369"/>
</filter>
<filter id="filter4_f_637_22369" x="20.135" y="29.2683" width="7.71875" height="2.48438" filterUnits="userSpaceOnUse" color-interpolation-filters="sRGB">
<feFlood flood-opacity="0" result="BackgroundImageFix"/>
<feBlend mode="normal" in="SourceGraphic" in2="BackgroundImageFix" result="shape"/>
<feGaussianBlur stdDeviation="0.125" result="effect1_foregroundBlur_637_22369"/>
</filter>
<filter id="filter5_f_637_22369" x="21.2099" y="25.5826" width="5.0272" height="3.97495" filterUnits="userSpaceOnUse" color-interpolation-filters="sRGB">
<feFlood flood-opacity="0" result="BackgroundImageFix"/>
<feBlend mode="normal" in="SourceGraphic" in2="BackgroundImageFix" result="shape"/>
<feGaussianBlur stdDeviation="0.35" result="effect1_foregroundBlur_637_22369"/>
</filter>
<filter id="filter6_f_637_22369" x="24.4991" y="12.3278" width="16.3677" height="21.6865" filterUnits="userSpaceOnUse" color-interpolation-filters="sRGB">
<feFlood flood-opacity="0" result="BackgroundImageFix"/>
<feBlend mode="normal" in="SourceGraphic" in2="BackgroundImageFix" result="shape"/>
<feGaussianBlur stdDeviation="2" result="effect1_foregroundBlur_637_22369"/>
</filter>
<linearGradient id="paint0_linear_637_22369" x1="33.1417" y1="21.4062" x2="33.5167" y2="15.7812" gradientUnits="userSpaceOnUse">
<stop stop-color="#C8C8CD"/>
<stop offset="1" stop-color="#C8C8CD" stop-opacity="0"/>
</linearGradient>
<linearGradient id="paint1_linear_637_22369" x1="27.3917" y1="14.2812" x2="31.298" y2="14.875" gradientUnits="userSpaceOnUse">
<stop stop-color="#C8C8CD"/>
<stop offset="1" stop-color="#C8C8CD" stop-opacity="0"/>
</linearGradient>
<radialGradient id="paint2_radial_637_22369" cx="0" cy="0" r="1" gradientUnits="userSpaceOnUse" gradientTransform="translate(36.5167 18.9375) rotate(-141.865) scale(9.05846 6.10725)">
<stop offset="0.909074" stop-color="#C8C8CD" stop-opacity="0"/>
<stop offset="0.998595" stop-color="#C0C0C0"/>
</radialGradient>
<radialGradient id="paint3_radial_637_22369" cx="0" cy="0" r="1" gradientUnits="userSpaceOnUse" gradientTransform="translate(29.8605 9.93748) rotate(54.148) scale(11.258 7.63242)">
<stop offset="0.909074" stop-color="#C8C8CD" stop-opacity="0"/>
<stop offset="0.97576" stop-color="#C0C0C0"/>
</radialGradient>
<radialGradient id="paint4_radial_637_22369" cx="0" cy="0" r="1" gradientUnits="userSpaceOnUse" gradientTransform="translate(36.0626 14.2126) rotate(142.716) scale(3.45634 3.61664)">
<stop stop-color="white"/>
<stop offset="1" stop-color="white" stop-opacity="0"/>
</radialGradient>
<linearGradient id="paint5_linear_637_22369" x1="33.423" y1="14.5313" x2="31.8605" y2="16.7338" gradientUnits="userSpaceOnUse">
<stop stop-color="#B8B8BD"/>
<stop offset="1" stop-color="#C6C7C9"/>
</linearGradient>
<linearGradient id="paint6_linear_637_22369" x1="14.8292" y1="20.125" x2="14.7667" y2="13.0625" gradientUnits="userSpaceOnUse">
<stop stop-color="#C8C8CD"/>
<stop offset="1" stop-color="#C8C8CD" stop-opacity="0"/>
</linearGradient>
<radialGradient id="paint7_radial_637_22369" cx="0" cy="0" r="1" gradientUnits="userSpaceOnUse" gradientTransform="translate(24.2042 17.0625) rotate(-175.225) scale(13.5157 8.57156)">
<stop offset="0.913027" stop-color="#C8C8CD" stop-opacity="0"/>
<stop offset="0.97576" stop-color="#C0C0C0"/>
</radialGradient>
<radialGradient id="paint8_radial_637_22369" cx="0" cy="0" r="1" gradientUnits="userSpaceOnUse" gradientTransform="translate(17.5792 12.1401) rotate(127.193) scale(3.82543 4.3788)">
<stop stop-color="white"/>
<stop offset="1" stop-color="white" stop-opacity="0"/>
</radialGradient>
<radialGradient id="paint9_radial_637_22369" cx="0" cy="0" r="1" gradientUnits="userSpaceOnUse" gradientTransform="translate(12.9902 16.7338) rotate(-23.8342) scale(4.36774 1.85848)">
<stop stop-color="#D2D2D5"/>
<stop offset="1" stop-color="#B8B8BD"/>
</radialGradient>
<radialGradient id="paint10_radial_637_22369" cx="0" cy="0" r="1" gradientUnits="userSpaceOnUse" gradientTransform="translate(14.2667 17.6563) rotate(-51.2098) scale(4.28991 2.79442)">
<stop offset="0.75463" stop-color="#ADADB2" stop-opacity="0"/>
<stop offset="1" stop-color="#98989C"/>
</radialGradient>
<radialGradient id="paint11_radial_637_22369" cx="0" cy="0" r="1" gradientUnits="userSpaceOnUse" gradientTransform="translate(24.3292 15.75) rotate(90) scale(28.0625 27.4301)">
<stop stop-color="#EEEDF4"/>
<stop offset="1" stop-color="#DFDAE7"/>
</radialGradient>
<radialGradient id="paint12_radial_637_22369" cx="0" cy="0" r="1" gradientUnits="userSpaceOnUse" gradientTransform="translate(23.995 47.75) rotate(-90) scale(20.0625 30.4634)">
<stop stop-color="#C4AFDD"/>
<stop offset="1" stop-color="#B6A4CC" stop-opacity="0"/>
</radialGradient>
<radialGradient id="paint13_radial_637_22369" cx="0" cy="0" r="1" gradientUnits="userSpaceOnUse" gradientTransform="translate(23.995 13.9783) rotate(90) scale(24.2717 27.628)">
<stop offset="0.881549" stop-color="#B9A6D1" stop-opacity="0"/>
<stop offset="1" stop-color="#ADA0BD"/>
</radialGradient>
<radialGradient id="paint14_radial_637_22369" cx="0" cy="0" r="1" gradientUnits="userSpaceOnUse" gradientTransform="translate(23.995 13.9783) rotate(76.3782) scale(27.1607 29.631)">
<stop offset="0.810654" stop-color="#9A88AF" stop-opacity="0"/>
<stop offset="1" stop-color="#9A88AF"/>
</radialGradient>
<radialGradient id="paint15_radial_637_22369" cx="0" cy="0" r="1" gradientUnits="userSpaceOnUse" gradientTransform="translate(33.25 27.3064) rotate(180) scale(24.4375 17.875)">
<stop offset="0.877238" stop-color="#DBDADD" stop-opacity="0"/>
<stop offset="1" stop-color="#DBDADD"/>
</radialGradient>
<radialGradient id="paint16_radial_637_22369" cx="0" cy="0" r="1" gradientUnits="userSpaceOnUse" gradientTransform="translate(24.3917 28.6875) rotate(-104.781) scale(15.9237 20.0699)">
<stop offset="0.848089" stop-color="#D0D1D2" stop-opacity="0"/>
<stop offset="1" stop-color="#C9C9C9"/>
</radialGradient>
<radialGradient id="paint17_radial_637_22369" cx="0" cy="0" r="1" gradientUnits="userSpaceOnUse" gradientTransform="translate(16.5792 25.2105) rotate(18.3229) scale(22.79 19.8884)">
<stop offset="0.848089" stop-color="#D0D1D2" stop-opacity="0"/>
<stop offset="1" stop-color="#C9C9C9"/>
</radialGradient>
<linearGradient id="paint18_linear_637_22369" x1="20.745" y1="23.4158" x2="19.8767" y2="23.4158" gradientUnits="userSpaceOnUse">
<stop offset="0.225" stop-color="#594C4F"/>
<stop offset="1" stop-color="#392833"/>
</linearGradient>
<linearGradient id="paint19_linear_637_22369" x1="20.9794" y1="24.9555" x2="20.9794" y2="23.5329" gradientUnits="userSpaceOnUse">
<stop stop-color="#492847"/>
<stop offset="1" stop-color="#552D52" stop-opacity="0"/>
</linearGradient>
<radialGradient id="paint20_radial_637_22369" cx="0" cy="0" r="1" gradientUnits="userSpaceOnUse" gradientTransform="translate(20.1563 23.8376) rotate(-104.85) scale(1.74797 1.88432)">
<stop offset="0.813951" stop-color="#594C4F" stop-opacity="0"/>
<stop offset="1" stop-color="#594C4F"/>
</radialGradient>
<linearGradient id="paint21_linear_637_22369" x1="28.745" y1="23.4158" x2="27.8767" y2="23.4158" gradientUnits="userSpaceOnUse">
<stop offset="0.225" stop-color="#594C4F"/>
<stop offset="1" stop-color="#392833"/>
</linearGradient>
<linearGradient id="paint22_linear_637_22369" x1="28.9794" y1="24.9555" x2="28.9794" y2="23.5329" gradientUnits="userSpaceOnUse">
<stop stop-color="#492847"/>
<stop offset="1" stop-color="#552D52" stop-opacity="0"/>
</linearGradient>
<radialGradient id="paint23_radial_637_22369" cx="0" cy="0" r="1" gradientUnits="userSpaceOnUse" gradientTransform="translate(28.1563 23.8376) rotate(-104.85) scale(1.74797 1.88432)">
<stop offset="0.813951" stop-color="#594C4F" stop-opacity="0"/>
<stop offset="1" stop-color="#594C4F"/>
</radialGradient>
<linearGradient id="paint24_linear_637_22369" x1="23.3814" y1="31.75" x2="19.8916" y2="35.875" gradientUnits="userSpaceOnUse">
<stop stop-color="#C7BED5"/>
<stop offset="1" stop-color="#B7A7D1" stop-opacity="0"/>
</linearGradient>
<linearGradient id="paint25_linear_637_22369" x1="23.995" y1="25.4929" x2="23.995" y2="34.1501" gradientUnits="userSpaceOnUse">
<stop stop-color="white"/>
<stop offset="0.0001" stop-color="white"/>
<stop offset="1" stop-color="#E9DEFA"/>
</linearGradient>
<radialGradient id="paint26_radial_637_22369" cx="0" cy="0" r="1" gradientUnits="userSpaceOnUse" gradientTransform="translate(23.4375 34.75) rotate(-90) scale(3.9436 10.6104)">
<stop stop-color="#D3BEF1"/>
<stop offset="1" stop-color="#DACBF0" stop-opacity="0"/>
</radialGradient>
<radialGradient id="paint27_radial_637_22369" cx="0" cy="0" r="1" gradientUnits="userSpaceOnUse" gradientTransform="translate(23.995 34.9626) rotate(-90) scale(9.8064 10.113)">
<stop offset="0.837479" stop-color="#D8D8DC" stop-opacity="0"/>
<stop offset="0.970338" stop-color="#D8D8DC"/>
</radialGradient>
<radialGradient id="paint28_radial_637_22369" cx="0" cy="0" r="1" gradientUnits="userSpaceOnUse" gradientTransform="translate(22.244 30.2014) rotate(90) scale(1.71875 2.18838)">
<stop offset="0.00558659" stop-color="#423539"/>
<stop offset="1" stop-color="#3C223C"/>
</radialGradient>
<radialGradient id="paint29_radial_637_22369" cx="0" cy="0" r="1" gradientUnits="userSpaceOnUse" gradientTransform="translate(22.3594 29.1815) rotate(70.994) scale(2.97467 7.41114)">
<stop offset="0.00558659" stop-color="#533530"/>
<stop offset="1" stop-color="#543057"/>
</radialGradient>
<radialGradient id="paint30_radial_637_22369" cx="0" cy="0" r="1" gradientUnits="userSpaceOnUse" gradientTransform="translate(25.9375 30.2283) rotate(96.8587) scale(1.70404 4.78132)">
<stop offset="0.00558659" stop-color="#533530"/>
<stop offset="1" stop-color="#543057"/>
</radialGradient>
<linearGradient id="paint31_linear_637_22369" x1="20.3225" y1="30.1433" x2="27.8381" y2="30.1433" gradientUnits="userSpaceOnUse">
<stop stop-color="#5F5356"/>
<stop offset="0.288981" stop-color="#5F5356" stop-opacity="0"/>
<stop offset="0.444906" stop-color="#5F5356" stop-opacity="0"/>
<stop offset="0.534304" stop-color="#5F5356"/>
<stop offset="1" stop-color="#5F5356" stop-opacity="0"/>
</linearGradient>
<linearGradient id="paint32_linear_637_22369" x1="23.5781" y1="26.4314" x2="24.075" y2="28.2151" gradientUnits="userSpaceOnUse">
<stop stop-color="#5F5254"/>
<stop offset="1" stop-color="#2E2127"/>
</linearGradient>
<linearGradient id="paint33_linear_637_22369" x1="23.7587" y1="26.7897" x2="23.7587" y2="25.5857" gradientUnits="userSpaceOnUse">
<stop offset="0.146552" stop-color="#34222C" stop-opacity="0"/>
<stop offset="0.872727" stop-color="#34222C"/>
</linearGradient>
<linearGradient id="paint34_linear_637_22369" x1="23.1555" y1="28.8091" x2="23.1555" y2="26.9888" gradientUnits="userSpaceOnUse">
<stop stop-color="#552D52"/>
<stop offset="1" stop-color="#552D52" stop-opacity="0"/>
</linearGradient>
<radialGradient id="paint35_radial_637_22369" cx="0" cy="0" r="1" gradientUnits="userSpaceOnUse" gradientTransform="translate(21.8546 27.9136) rotate(-18.752) scale(4.48262 2.01281)">
<stop offset="0.827602" stop-color="#5C5458" stop-opacity="0"/>
<stop offset="0.935007" stop-color="#5C5458"/>
</radialGradient>
<radialGradient id="paint36_radial_637_22369" cx="0" cy="0" r="1" gradientUnits="userSpaceOnUse" gradientTransform="translate(25.0938 26.7908) rotate(145.376) scale(0.797488 0.483742)">
<stop stop-color="#6A5C5E"/>
<stop offset="1" stop-color="#6A5C5E" stop-opacity="0"/>
</radialGradient>
<linearGradient id="paint37_linear_637_22369" x1="36.6729" y1="20.2455" x2="28.4578" y2="24.7954" gradientUnits="userSpaceOnUse">
<stop stop-color="white"/>
<stop offset="1" stop-color="white" stop-opacity="0"/>
</linearGradient>
</defs>
</svg>
