<svg width="48" height="48" viewBox="0 0 48 48" fill="none" xmlns="http://www.w3.org/2000/svg">
<rect width="48" height="48" rx="24" fill="#F2F5FF"/>
<g filter="url(#filter0_ii_637_22367)">
<path d="M14.2477 15.0263C14.3722 16.834 15.1422 18.2743 15.8105 19.0818L18.9199 15.7381C17.6633 14.8109 15.94 14.4235 14.9102 14.3453C14.5197 14.3156 14.2208 14.6356 14.2477 15.0263Z" fill="url(#paint0_linear_637_22367)"/>
<path d="M14.2477 15.0263C14.3722 16.834 15.1422 18.2743 15.8105 19.0818L18.9199 15.7381C17.6633 14.8109 15.94 14.4235 14.9102 14.3453C14.5197 14.3156 14.2208 14.6356 14.2477 15.0263Z" fill="url(#paint1_linear_637_22367)"/>
</g>
<path d="M15.1942 19.5919L15.7755 20.2943L16.3964 19.6266L19.5057 16.2829L20.1161 15.6265L19.3949 15.0943C17.9732 14.0454 16.0842 13.6321 14.9707 13.5476C14.0558 13.4781 13.3919 14.243 13.4496 15.0812C13.5871 17.079 14.435 18.6745 15.1942 19.5919Z" stroke="#AEAAB3" stroke-width="1.6"/>
<path d="M15.1942 19.5919L15.7755 20.2943L16.3964 19.6266L19.5057 16.2829L20.1161 15.6265L19.3949 15.0943C17.9732 14.0454 16.0842 13.6321 14.9707 13.5476C14.0558 13.4781 13.3919 14.243 13.4496 15.0812C13.5871 17.079 14.435 18.6745 15.1942 19.5919Z" stroke="url(#paint2_linear_637_22367)" stroke-width="1.6"/>
<path d="M15.1942 19.5919L15.7755 20.2943L16.3964 19.6266L19.5057 16.2829L20.1161 15.6265L19.3949 15.0943C17.9732 14.0454 16.0842 13.6321 14.9707 13.5476C14.0558 13.4781 13.3919 14.243 13.4496 15.0812C13.5871 17.079 14.435 18.6745 15.1942 19.5919Z" stroke="url(#paint3_radial_637_22367)" stroke-width="1.6"/>
<g filter="url(#filter1_f_637_22367)">
<path d="M14.3151 13.2568C15.2213 13.2673 17.8932 13.7256 19.4869 14.7725" stroke="url(#paint4_linear_637_22367)" stroke-width="0.15" stroke-linecap="round"/>
</g>
<g filter="url(#filter2_f_637_22367)">
<path d="M14.6198 15.1006C14.7057 16.1396 15.2291 17.7412 15.6823 18.3231" stroke="url(#paint5_linear_637_22367)" stroke-width="0.15" stroke-linecap="round"/>
</g>
<g filter="url(#filter3_ii_637_22367)">
<path d="M34.333 15.0263C34.2085 16.834 33.4385 18.2743 32.7702 19.0818L29.6608 15.7381C30.9174 14.8109 32.6407 14.4235 33.6705 14.3453C34.061 14.3156 34.3599 14.6356 34.333 15.0263Z" fill="url(#paint6_linear_637_22367)"/>
</g>
<path d="M33.3865 19.5919L32.8052 20.2943L32.1843 19.6266L29.075 16.2829L28.4646 15.6265L29.1858 15.0943C30.6075 14.0454 32.4965 13.6321 33.61 13.5476C34.5249 13.4781 35.1888 14.243 35.1311 15.0812C34.9936 17.079 34.1457 18.6745 33.3865 19.5919Z" stroke="#AEAAB3" stroke-width="1.6"/>
<path d="M33.3865 19.5919L32.8052 20.2943L32.1843 19.6266L29.075 16.2829L28.4646 15.6265L29.1858 15.0943C30.6075 14.0454 32.4965 13.6321 33.61 13.5476C34.5249 13.4781 35.1888 14.243 35.1311 15.0812C34.9936 17.079 34.1457 18.6745 33.3865 19.5919Z" stroke="url(#paint7_linear_637_22367)" stroke-width="1.6"/>
<path d="M33.3865 19.5919L32.8052 20.2943L32.1843 19.6266L29.075 16.2829L28.4646 15.6265L29.1858 15.0943C30.6075 14.0454 32.4965 13.6321 33.61 13.5476C34.5249 13.4781 35.1888 14.243 35.1311 15.0812C34.9936 17.079 34.1457 18.6745 33.3865 19.5919Z" stroke="url(#paint8_radial_637_22367)" stroke-width="1.6"/>
<path d="M33.3865 19.5919L32.8052 20.2943L32.1843 19.6266L29.075 16.2829L28.4646 15.6265L29.1858 15.0943C30.6075 14.0454 32.4965 13.6321 33.61 13.5476C34.5249 13.4781 35.1888 14.243 35.1311 15.0812C34.9936 17.079 34.1457 18.6745 33.3865 19.5919Z" stroke="url(#paint9_radial_637_22367)" stroke-width="1.6"/>
<g filter="url(#filter4_f_637_22367)">
<path d="M35.0182 13.9287C35.4557 14.4443 35.2838 16.96 34.0651 18.8662" stroke="url(#paint10_linear_637_22367)" stroke-width="0.15" stroke-linecap="round"/>
</g>
<g filter="url(#filter5_f_637_22367)">
<path d="M33.5963 14.7412C32.4817 14.7412 30.5182 15.4718 30.0651 16.0537" stroke="url(#paint11_linear_637_22367)" stroke-opacity="0.3" stroke-width="0.15" stroke-linecap="round"/>
</g>
<path d="M31.505 16.72C31.445 16.64 31.375 16.56 31.305 16.49C29.535 14.44 26.925 13.15 24.005 13.15C21.085 13.15 18.475 14.44 16.695 16.48C16.635 16.56 16.565 16.64 16.505 16.72L10.705 23.64C9.965 24.53 9.795 25.76 10.265 26.81C12.615 32.05 17.885 35.71 24.005 35.71C30.125 35.71 35.395 32.05 37.745 26.8C38.215 25.74 38.055 24.51 37.305 23.63L31.505 16.72Z" fill="url(#paint12_radial_637_22367)"/>
<path d="M31.505 16.72C31.445 16.64 31.375 16.56 31.305 16.49C29.535 14.44 26.925 13.15 24.005 13.15C21.085 13.15 18.475 14.44 16.695 16.48C16.635 16.56 16.565 16.64 16.505 16.72L10.705 23.64C9.965 24.53 9.795 25.76 10.265 26.81C12.615 32.05 17.885 35.71 24.005 35.71C30.125 35.71 35.395 32.05 37.745 26.8C38.215 25.74 38.055 24.51 37.305 23.63L31.505 16.72Z" fill="url(#paint13_radial_637_22367)"/>
<path d="M31.505 16.72C31.445 16.64 31.375 16.56 31.305 16.49C29.535 14.44 26.925 13.15 24.005 13.15C21.085 13.15 18.475 14.44 16.695 16.48C16.635 16.56 16.565 16.64 16.505 16.72L10.705 23.64C9.965 24.53 9.795 25.76 10.265 26.81C12.615 32.05 17.885 35.71 24.005 35.71C30.125 35.71 35.395 32.05 37.745 26.8C38.215 25.74 38.055 24.51 37.305 23.63L31.505 16.72Z" fill="url(#paint14_radial_637_22367)"/>
<path d="M31.505 16.72C31.445 16.64 31.375 16.56 31.305 16.49C29.535 14.44 26.925 13.15 24.005 13.15C21.085 13.15 18.475 14.44 16.695 16.48C16.635 16.56 16.565 16.64 16.505 16.72L10.705 23.64C9.965 24.53 9.795 25.76 10.265 26.81C12.615 32.05 17.885 35.71 24.005 35.71C30.125 35.71 35.395 32.05 37.745 26.8C38.215 25.74 38.055 24.51 37.305 23.63L31.505 16.72Z" fill="url(#paint15_radial_637_22367)"/>
<path d="M31.505 16.72C31.445 16.64 31.375 16.56 31.305 16.49C29.535 14.44 26.925 13.15 24.005 13.15C21.085 13.15 18.475 14.44 16.695 16.48C16.635 16.56 16.565 16.64 16.505 16.72L10.705 23.64C9.965 24.53 9.795 25.76 10.265 26.81C12.615 32.05 17.885 35.71 24.005 35.71C30.125 35.71 35.395 32.05 37.745 26.8C38.215 25.74 38.055 24.51 37.305 23.63L31.505 16.72Z" fill="url(#paint16_linear_637_22367)"/>
<path d="M31.505 16.72C31.445 16.64 31.375 16.56 31.305 16.49C29.535 14.44 26.925 13.15 24.005 13.15C21.085 13.15 18.475 14.44 16.695 16.48C16.635 16.56 16.565 16.64 16.505 16.72L10.705 23.64C9.965 24.53 9.795 25.76 10.265 26.81C12.615 32.05 17.885 35.71 24.005 35.71C30.125 35.71 35.395 32.05 37.745 26.8C38.215 25.74 38.055 24.51 37.305 23.63L31.505 16.72Z" fill="url(#paint17_radial_637_22367)"/>
<path d="M31.505 16.72C31.445 16.64 31.375 16.56 31.305 16.49C29.535 14.44 26.925 13.15 24.005 13.15C21.085 13.15 18.475 14.44 16.695 16.48C16.635 16.56 16.565 16.64 16.505 16.72L10.705 23.64C9.965 24.53 9.795 25.76 10.265 26.81C12.615 32.05 17.885 35.71 24.005 35.71C30.125 35.71 35.395 32.05 37.745 26.8C38.215 25.74 38.055 24.51 37.305 23.63L31.505 16.72Z" fill="url(#paint18_radial_637_22367)"/>
<path d="M31.505 16.72C31.445 16.64 31.375 16.56 31.305 16.49C29.535 14.44 26.925 13.15 24.005 13.15C21.085 13.15 18.475 14.44 16.695 16.48C16.635 16.56 16.565 16.64 16.505 16.72L10.705 23.64C9.965 24.53 9.795 25.76 10.265 26.81C12.615 32.05 17.885 35.71 24.005 35.71C30.125 35.71 35.395 32.05 37.745 26.8C38.215 25.74 38.055 24.51 37.305 23.63L31.505 16.72Z" fill="url(#paint19_radial_637_22367)"/>
<path d="M19.785 21.21C19.755 21.21 19.735 21.21 19.705 21.21C18.595 21.21 17.555 21.7 16.835 22.54L14.245 25.52C13.015 26.94 12.475 28.8 12.755 30.65C15.395 33.63 19.205 35.55 23.475 35.7V25.01C23.465 22.95 21.815 21.25 19.785 21.21Z" fill="url(#paint20_linear_637_22367)"/>
<path d="M28.2451 21.21C28.2751 21.21 28.2951 21.21 28.3251 21.21C29.4351 21.21 30.4751 21.7 31.1951 22.54L33.7851 25.52C35.0151 26.94 35.5551 28.8 35.2751 30.65C32.6351 33.63 28.8251 35.55 24.5551 35.7V25.01C24.5651 22.95 26.2151 21.25 28.2451 21.21Z" fill="url(#paint21_linear_637_22367)"/>
<path d="M19.6888 22.8199C19.0088 22.8099 18.3988 23.1099 17.9988 23.5899L15.3988 26.5799C13.4288 28.8499 14.0188 32.3699 16.6488 33.8299C18.2088 34.6999 19.9488 35.2999 21.7888 35.5599V25.0099C21.7888 23.8299 20.8588 22.8399 19.6888 22.8199Z" fill="url(#paint22_linear_637_22367)"/>
<path d="M19.6888 22.8199C19.0088 22.8099 18.3988 23.1099 17.9988 23.5899L15.3988 26.5799C13.4288 28.8499 14.0188 32.3699 16.6488 33.8299C18.2088 34.6999 19.9488 35.2999 21.7888 35.5599V25.0099C21.7888 23.8299 20.8588 22.8399 19.6888 22.8199Z" fill="url(#paint23_radial_637_22367)"/>
<path d="M28.275 22.8199C28.955 22.8099 29.565 23.1099 29.965 23.5899L32.565 26.5799C34.535 28.8499 33.945 32.3699 31.315 33.8299C29.755 34.6999 28.015 35.2999 26.175 35.5599V25.0099C26.175 23.8299 27.105 22.8399 28.275 22.8199Z" fill="url(#paint24_linear_637_22367)"/>
<path d="M28.275 22.8199C28.955 22.8099 29.565 23.1099 29.965 23.5899L32.565 26.5799C34.535 28.8499 33.945 32.3699 31.315 33.8299C29.755 34.6999 28.015 35.2999 26.175 35.5599V25.0099C26.175 23.8299 27.105 22.8399 28.275 22.8199Z" fill="url(#paint25_radial_637_22367)"/>
<g filter="url(#filter6_f_637_22367)">
<path d="M27.8737 27.2344C27.4637 27.2344 27.1237 26.8944 27.1237 26.4844V24.9844C27.1237 24.5744 27.4637 24.2344 27.8737 24.2344C28.2837 24.2344 28.6237 24.5744 28.6237 24.9844V26.4844C28.6237 26.9044 28.2837 27.2344 27.8737 27.2344Z" fill="#574F5E"/>
</g>
<g filter="url(#filter7_f_637_22367)">
<path d="M19.755 27.2344C19.345 27.2344 19.005 26.8944 19.005 26.4844V24.9844C19.005 24.5744 19.345 24.2344 19.755 24.2344C20.165 24.2344 20.505 24.5744 20.505 24.9844V26.4844C20.505 26.9044 20.165 27.2344 19.755 27.2344Z" fill="#574F5E"/>
</g>
<path d="M28.0525 27C27.6425 27 27.3025 26.66 27.3025 26.25V24.75C27.3025 24.34 27.6425 24 28.0525 24C28.4625 24 28.8025 24.34 28.8025 24.75V26.25C28.8025 26.67 28.4625 27 28.0525 27Z" fill="url(#paint26_linear_637_22367)"/>
<path d="M28.0525 27C27.6425 27 27.3025 26.66 27.3025 26.25V24.75C27.3025 24.34 27.6425 24 28.0525 24C28.4625 24 28.8025 24.34 28.8025 24.75V26.25C28.8025 26.67 28.4625 27 28.0525 27Z" fill="url(#paint27_linear_637_22367)"/>
<path d="M20.005 27C19.595 27 19.255 26.66 19.255 26.25V24.75C19.255 24.34 19.595 24 20.005 24C20.415 24 20.755 24.34 20.755 24.75V26.25C20.755 26.67 20.415 27 20.005 27Z" fill="url(#paint28_linear_637_22367)"/>
<path d="M20.005 27C19.595 27 19.255 26.66 19.255 26.25V24.75C19.255 24.34 19.595 24 20.005 24C20.415 24 20.755 24.34 20.755 24.75V26.25C20.755 26.67 20.415 27 20.005 27Z" fill="url(#paint29_linear_637_22367)"/>
<path d="M29.375 30.9111C29.375 28.8175 27.705 27.11 25.635 27.11H22.365C20.305 27.11 18.625 28.8073 18.625 30.9111C18.625 33.5231 20.635 35.688 23.205 35.8303C23.475 35.8404 23.745 35.8506 24.005 35.8506C24.265 35.8506 24.535 35.8404 24.795 35.8303C27.365 35.6981 29.375 33.5333 29.375 30.9111Z" fill="url(#paint30_radial_637_22367)"/>
<path d="M29.375 30.9111C29.375 28.8175 27.705 27.11 25.635 27.11H22.365C20.305 27.11 18.625 28.8073 18.625 30.9111C18.625 33.5231 20.635 35.688 23.205 35.8303C23.475 35.8404 23.745 35.8506 24.005 35.8506C24.265 35.8506 24.535 35.8404 24.795 35.8303C27.365 35.6981 29.375 33.5333 29.375 30.9111Z" fill="url(#paint31_radial_637_22367)"/>
<path d="M29.375 30.9111C29.375 28.8175 27.705 27.11 25.635 27.11H22.365C20.305 27.11 18.625 28.8073 18.625 30.9111C18.625 33.5231 20.635 35.688 23.205 35.8303C23.475 35.8404 23.745 35.8506 24.005 35.8506C24.265 35.8506 24.535 35.8404 24.795 35.8303C27.365 35.6981 29.375 33.5333 29.375 30.9111Z" fill="url(#paint32_radial_637_22367)"/>
<path d="M29.375 30.9111C29.375 28.8175 27.705 27.11 25.635 27.11H22.365C20.305 27.11 18.625 28.8073 18.625 30.9111C18.625 33.5231 20.635 35.688 23.205 35.8303C23.475 35.8404 23.745 35.8506 24.005 35.8506C24.265 35.8506 24.535 35.8404 24.795 35.8303C27.365 35.6981 29.375 33.5333 29.375 30.9111Z" fill="url(#paint33_radial_637_22367)"/>
<path d="M29.375 30.9111C29.375 28.8175 27.705 27.11 25.635 27.11H22.365C20.305 27.11 18.625 28.8073 18.625 30.9111C18.625 33.5231 20.635 35.688 23.205 35.8303C23.475 35.8404 23.745 35.8506 24.005 35.8506C24.265 35.8506 24.535 35.8404 24.795 35.8303C27.365 35.6981 29.375 33.5333 29.375 30.9111Z" fill="url(#paint34_radial_637_22367)"/>
<path d="M22.075 28.77L23.325 30.03C23.705 30.41 24.315 30.41 24.685 30.03L25.935 28.77C26.545 28.16 26.115 27.11 25.255 27.11H22.755C21.895 27.11 21.465 28.16 22.075 28.77Z" fill="url(#paint35_linear_637_22367)"/>
<path d="M22.075 28.77L23.325 30.03C23.705 30.41 24.315 30.41 24.685 30.03L25.935 28.77C26.545 28.16 26.115 27.11 25.255 27.11H22.755C21.895 27.11 21.465 28.16 22.075 28.77Z" fill="url(#paint36_radial_637_22367)"/>
<path d="M22.075 28.77L23.325 30.03C23.705 30.41 24.315 30.41 24.685 30.03L25.935 28.77C26.545 28.16 26.115 27.11 25.255 27.11H22.755C21.895 27.11 21.465 28.16 22.075 28.77Z" fill="url(#paint37_linear_637_22367)"/>
<path d="M22.075 28.77L23.325 30.03C23.705 30.41 24.315 30.41 24.685 30.03L25.935 28.77C26.545 28.16 26.115 27.11 25.255 27.11H22.755C21.895 27.11 21.465 28.16 22.075 28.77Z" fill="url(#paint38_linear_637_22367)"/>
<path d="M22.075 28.77L23.325 30.03C23.705 30.41 24.315 30.41 24.685 30.03L25.935 28.77C26.545 28.16 26.115 27.11 25.255 27.11H22.755C21.895 27.11 21.465 28.16 22.075 28.77Z" fill="url(#paint39_radial_637_22367)"/>
<g filter="url(#filter8_f_637_22367)">
<ellipse cx="33.6201" cy="25.2907" rx="3.47628" ry="0.919355" fill="#E1DDE6" fill-opacity="0.5"/>
</g>
<g filter="url(#filter9_f_637_22367)">
<path d="M25.425 15.1213C26.05 15.1422 27.6 15.5463 28.8 16.9963C30 18.4463 33.3417 22.5172 34.8625 24.3713" stroke="#E1DDE6" stroke-linecap="round"/>
</g>
<path d="M20.8984 31.3975C20.8984 31.9287 21.2266 32.9053 22.4141 32.9053C23.6016 32.9053 23.9479 31.9782 24 31.499" stroke="url(#paint40_radial_637_22367)" stroke-linecap="round"/>
<path d="M20.8984 31.3975C20.8984 31.9287 21.2266 32.9053 22.4141 32.9053C23.6016 32.9053 23.9479 31.9782 24 31.499" stroke="url(#paint41_radial_637_22367)" stroke-linecap="round"/>
<path d="M20.8984 31.3975C20.8984 31.9287 21.2266 32.9053 22.4141 32.9053C23.6016 32.9053 23.9479 31.9782 24 31.499" stroke="url(#paint42_radial_637_22367)" stroke-linecap="round"/>
<path d="M27.1016 31.3975C27.1016 31.9287 26.7734 32.9053 25.5859 32.9053C24.3984 32.9053 24.0521 31.9782 24 31.499" stroke="url(#paint43_radial_637_22367)" stroke-linecap="round"/>
<path d="M27.1016 31.3975C27.1016 31.9287 26.7734 32.9053 25.5859 32.9053C24.3984 32.9053 24.0521 31.9782 24 31.499" stroke="url(#paint44_radial_637_22367)" stroke-linecap="round"/>
<defs>
<filter id="filter0_ii_637_22367" x="12.6462" y="12.743" width="9.16602" height="9.26367" filterUnits="userSpaceOnUse" color-interpolation-filters="sRGB">
<feFlood flood-opacity="0" result="BackgroundImageFix"/>
<feBlend mode="normal" in="SourceGraphic" in2="BackgroundImageFix" result="shape"/>
<feColorMatrix in="SourceAlpha" type="matrix" values="0 0 0 0 0 0 0 0 0 0 0 0 0 0 0 0 0 0 127 0" result="hardAlpha"/>
<feOffset dx="2"/>
<feGaussianBlur stdDeviation="0.25"/>
<feComposite in2="hardAlpha" operator="arithmetic" k2="-1" k3="1"/>
<feColorMatrix type="matrix" values="0 0 0 0 0.26434 0 0 0 0 0.25276 0 0 0 0 0.2875 0 0 0 0.5 0"/>
<feBlend mode="normal" in2="shape" result="effect1_innerShadow_637_22367"/>
<feColorMatrix in="SourceAlpha" type="matrix" values="0 0 0 0 0 0 0 0 0 0 0 0 0 0 0 0 0 0 127 0" result="hardAlpha"/>
<feOffset dy="2"/>
<feGaussianBlur stdDeviation="0.25"/>
<feComposite in2="hardAlpha" operator="arithmetic" k2="-1" k3="1"/>
<feColorMatrix type="matrix" values="0 0 0 0 0.26434 0 0 0 0 0.25276 0 0 0 0 0.2875 0 0 0 0.5 0"/>
<feBlend mode="normal" in2="effect1_innerShadow_637_22367" result="effect2_innerShadow_637_22367"/>
</filter>
<filter id="filter1_f_637_22367" x="13.9401" y="12.8819" width="5.92178" height="2.26553" filterUnits="userSpaceOnUse" color-interpolation-filters="sRGB">
<feFlood flood-opacity="0" result="BackgroundImageFix"/>
<feBlend mode="normal" in="SourceGraphic" in2="BackgroundImageFix" result="shape"/>
<feGaussianBlur stdDeviation="0.15" result="effect1_foregroundBlur_637_22367"/>
</filter>
<filter id="filter2_f_637_22367" x="14.2948" y="14.7756" width="1.7124" height="3.87244" filterUnits="userSpaceOnUse" color-interpolation-filters="sRGB">
<feFlood flood-opacity="0" result="BackgroundImageFix"/>
<feBlend mode="normal" in="SourceGraphic" in2="BackgroundImageFix" result="shape"/>
<feGaussianBlur stdDeviation="0.125" result="effect1_foregroundBlur_637_22367"/>
</filter>
<filter id="filter3_ii_637_22367" x="27.2684" y="12.743" width="9.16602" height="9.26367" filterUnits="userSpaceOnUse" color-interpolation-filters="sRGB">
<feFlood flood-opacity="0" result="BackgroundImageFix"/>
<feBlend mode="normal" in="SourceGraphic" in2="BackgroundImageFix" result="shape"/>
<feColorMatrix in="SourceAlpha" type="matrix" values="0 0 0 0 0 0 0 0 0 0 0 0 0 0 0 0 0 0 127 0" result="hardAlpha"/>
<feOffset dx="2"/>
<feGaussianBlur stdDeviation="0.25"/>
<feComposite in2="hardAlpha" operator="arithmetic" k2="-1" k3="1"/>
<feColorMatrix type="matrix" values="0 0 0 0 0.26434 0 0 0 0 0.25276 0 0 0 0 0.2875 0 0 0 0.5 0"/>
<feBlend mode="normal" in2="shape" result="effect1_innerShadow_637_22367"/>
<feColorMatrix in="SourceAlpha" type="matrix" values="0 0 0 0 0 0 0 0 0 0 0 0 0 0 0 0 0 0 127 0" result="hardAlpha"/>
<feOffset dy="2"/>
<feGaussianBlur stdDeviation="0.25"/>
<feComposite in2="hardAlpha" operator="arithmetic" k2="-1" k3="1"/>
<feColorMatrix type="matrix" values="0 0 0 0 0.26434 0 0 0 0 0.25276 0 0 0 0 0.2875 0 0 0 0.5 0"/>
<feBlend mode="normal" in2="effect1_innerShadow_637_22367" result="effect2_innerShadow_637_22367"/>
</filter>
<filter id="filter4_f_637_22367" x="33.6901" y="13.5538" width="1.92153" height="5.6874" filterUnits="userSpaceOnUse" color-interpolation-filters="sRGB">
<feFlood flood-opacity="0" result="BackgroundImageFix"/>
<feBlend mode="normal" in="SourceGraphic" in2="BackgroundImageFix" result="shape"/>
<feGaussianBlur stdDeviation="0.15" result="effect1_foregroundBlur_637_22367"/>
</filter>
<filter id="filter5_f_637_22367" x="29.7401" y="14.4163" width="4.18115" height="1.9624" filterUnits="userSpaceOnUse" color-interpolation-filters="sRGB">
<feFlood flood-opacity="0" result="BackgroundImageFix"/>
<feBlend mode="normal" in="SourceGraphic" in2="BackgroundImageFix" result="shape"/>
<feGaussianBlur stdDeviation="0.125" result="effect1_foregroundBlur_637_22367"/>
</filter>
<filter id="filter6_f_637_22367" x="26.6237" y="23.7344" width="2.5" height="4" filterUnits="userSpaceOnUse" color-interpolation-filters="sRGB">
<feFlood flood-opacity="0" result="BackgroundImageFix"/>
<feBlend mode="normal" in="SourceGraphic" in2="BackgroundImageFix" result="shape"/>
<feGaussianBlur stdDeviation="0.25" result="effect1_foregroundBlur_637_22367"/>
</filter>
<filter id="filter7_f_637_22367" x="18.505" y="23.7344" width="2.5" height="4" filterUnits="userSpaceOnUse" color-interpolation-filters="sRGB">
<feFlood flood-opacity="0" result="BackgroundImageFix"/>
<feBlend mode="normal" in="SourceGraphic" in2="BackgroundImageFix" result="shape"/>
<feGaussianBlur stdDeviation="0.25" result="effect1_foregroundBlur_637_22367"/>
</filter>
<filter id="filter8_f_637_22367" x="28.1438" y="22.3713" width="10.9525" height="5.83875" filterUnits="userSpaceOnUse" color-interpolation-filters="sRGB">
<feFlood flood-opacity="0" result="BackgroundImageFix"/>
<feBlend mode="normal" in="SourceGraphic" in2="BackgroundImageFix" result="shape"/>
<feGaussianBlur stdDeviation="1" result="effect1_foregroundBlur_637_22367"/>
</filter>
<filter id="filter9_f_637_22367" x="21.925" y="11.6213" width="16.4375" height="16.25" filterUnits="userSpaceOnUse" color-interpolation-filters="sRGB">
<feFlood flood-opacity="0" result="BackgroundImageFix"/>
<feBlend mode="normal" in="SourceGraphic" in2="BackgroundImageFix" result="shape"/>
<feGaussianBlur stdDeviation="1.5" result="effect1_foregroundBlur_637_22367"/>
</filter>
<linearGradient id="paint0_linear_637_22367" x1="16.5751" y1="14.33" x2="16.2057" y2="17.3506" gradientUnits="userSpaceOnUse">
<stop stop-color="#656169"/>
<stop offset="1" stop-color="#77747C"/>
</linearGradient>
<linearGradient id="paint1_linear_637_22367" x1="16.7213" y1="17.1943" x2="15.7525" y2="16.2881" gradientUnits="userSpaceOnUse">
<stop stop-color="#5A585D"/>
<stop offset="0.737991" stop-color="#5A585D" stop-opacity="0"/>
</linearGradient>
<linearGradient id="paint2_linear_637_22367" x1="17.69" y1="18.0225" x2="15.1275" y2="15.2725" gradientUnits="userSpaceOnUse">
<stop stop-color="#A19EA5"/>
<stop offset="1" stop-color="#A19EA5" stop-opacity="0"/>
</linearGradient>
<radialGradient id="paint3_radial_637_22367" cx="0" cy="0" r="1" gradientUnits="userSpaceOnUse" gradientTransform="translate(17.5338 15.5225) rotate(166.185) scale(4.95587 10.6481)">
<stop offset="0.783876" stop-color="#BDBAC0" stop-opacity="0"/>
<stop offset="1" stop-color="#BDBAC0"/>
</radialGradient>
<linearGradient id="paint4_linear_637_22367" x1="19.0494" y1="14.8662" x2="14.3307" y2="14.0068" gradientUnits="userSpaceOnUse">
<stop stop-color="#CBC7CE"/>
<stop offset="1" stop-color="#CBC7CE" stop-opacity="0"/>
</linearGradient>
<linearGradient id="paint5_linear_637_22367" x1="18.4746" y1="16.62" x2="13.7559" y2="15.7606" gradientUnits="userSpaceOnUse">
<stop stop-color="#CBC7CE"/>
<stop offset="1" stop-color="#CBC7CE" stop-opacity="0"/>
</linearGradient>
<linearGradient id="paint6_linear_637_22367" x1="32.0056" y1="13.7725" x2="32.5338" y2="16.7059" gradientUnits="userSpaceOnUse">
<stop stop-color="#656169"/>
<stop offset="1" stop-color="#77747C"/>
</linearGradient>
<linearGradient id="paint7_linear_637_22367" x1="32.0056" y1="12.4287" x2="33.4532" y2="15.2725" gradientUnits="userSpaceOnUse">
<stop stop-color="#A19EA5"/>
<stop offset="1" stop-color="#A19EA5" stop-opacity="0"/>
</linearGradient>
<radialGradient id="paint8_radial_637_22367" cx="0" cy="0" r="1" gradientUnits="userSpaceOnUse" gradientTransform="translate(31.0469 15.5225) rotate(13.8154) scale(4.95587 10.6481)">
<stop offset="0.783876" stop-color="#BDBAC0" stop-opacity="0"/>
<stop offset="1" stop-color="#BDBAC0"/>
</radialGradient>
<radialGradient id="paint9_radial_637_22367" cx="0" cy="0" r="1" gradientUnits="userSpaceOnUse" gradientTransform="translate(36.5026 13.2568) rotate(103.069) scale(1.79654 2.92202)">
<stop stop-color="#BFBDC2"/>
<stop offset="1" stop-color="#BFBDC2" stop-opacity="0"/>
</radialGradient>
<linearGradient id="paint10_linear_637_22367" x1="29.5313" y1="14.8662" x2="34.25" y2="14.0068" gradientUnits="userSpaceOnUse">
<stop stop-color="#CBC7CE"/>
<stop offset="1" stop-color="#CBC7CE" stop-opacity="0"/>
</linearGradient>
<linearGradient id="paint11_linear_637_22367" x1="30.1061" y1="16.62" x2="34.8248" y2="15.7606" gradientUnits="userSpaceOnUse">
<stop stop-color="#CBC7CE"/>
<stop offset="1" stop-color="#CBC7CE" stop-opacity="0"/>
</linearGradient>
<radialGradient id="paint12_radial_637_22367" cx="0" cy="0" r="1" gradientUnits="userSpaceOnUse" gradientTransform="translate(28.1276 17.46) rotate(100.521) scale(17.7992 33.527)">
<stop stop-color="#C6C5C7"/>
<stop offset="1" stop-color="#B0A7B9"/>
</radialGradient>
<radialGradient id="paint13_radial_637_22367" cx="0" cy="0" r="1" gradientUnits="userSpaceOnUse" gradientTransform="translate(36.9401 32.8975) rotate(-133.345) scale(7.64878 26.8589)">
<stop offset="0.0942793" stop-color="#978EA0"/>
<stop offset="0.64732" stop-color="#978EA0" stop-opacity="0"/>
</radialGradient>
<radialGradient id="paint14_radial_637_22367" cx="0" cy="0" r="1" gradientUnits="userSpaceOnUse" gradientTransform="translate(17.0651 26.3975) rotate(90) scale(4.375 6.91532)">
<stop offset="0.479167" stop-color="#9C93A7"/>
<stop offset="1" stop-color="#A098A9" stop-opacity="0"/>
</radialGradient>
<radialGradient id="paint15_radial_637_22367" cx="0" cy="0" r="1" gradientUnits="userSpaceOnUse" gradientTransform="translate(31.8151 27.335) rotate(90) scale(3.5 5.53226)">
<stop offset="0.277778" stop-color="#A99EB6"/>
<stop offset="1" stop-color="#A098A9" stop-opacity="0"/>
</radialGradient>
<linearGradient id="paint16_linear_637_22367" x1="11.3776" y1="18.8975" x2="15.2526" y2="22.46" gradientUnits="userSpaceOnUse">
<stop stop-color="#E1DDE6"/>
<stop offset="0.707654" stop-color="#E1DDE6" stop-opacity="0"/>
</linearGradient>
<radialGradient id="paint17_radial_637_22367" cx="0" cy="0" r="1" gradientUnits="userSpaceOnUse" gradientTransform="translate(25.5026 19.835) rotate(145.919) scale(20.299 22.0288)">
<stop offset="0.730729" stop-color="#E1DDE6" stop-opacity="0"/>
<stop offset="1" stop-color="#E1DDE6"/>
</radialGradient>
<radialGradient id="paint18_radial_637_22367" cx="0" cy="0" r="1" gradientUnits="userSpaceOnUse" gradientTransform="translate(24.0063 31.71) rotate(-90) scale(20.375 19.4539)">
<stop offset="0.868167" stop-color="#B0A9B8" stop-opacity="0"/>
<stop offset="1" stop-color="#B0A9B8"/>
</radialGradient>
<radialGradient id="paint19_radial_637_22367" cx="0" cy="0" r="1" gradientUnits="userSpaceOnUse" gradientTransform="translate(19.5651 16.7725) rotate(55.2348) scale(6.46686 7.14113)">
<stop stop-color="#B6B2B9"/>
<stop offset="1" stop-color="#B6B2B9" stop-opacity="0"/>
</radialGradient>
<linearGradient id="paint20_linear_637_22367" x1="21.8776" y1="21.96" x2="19.3775" y2="34.8975" gradientUnits="userSpaceOnUse">
<stop stop-color="#E1DAEA"/>
<stop offset="1" stop-color="#B7A8C7"/>
</linearGradient>
<linearGradient id="paint21_linear_637_22367" x1="29.9512" y1="23.835" x2="34.6276" y2="34.335" gradientUnits="userSpaceOnUse">
<stop stop-color="#E6E1ED"/>
<stop offset="1" stop-color="#B7A8C7"/>
</linearGradient>
<linearGradient id="paint22_linear_637_22367" x1="21.4364" y1="22.8197" x2="21.4364" y2="37.0849" gradientUnits="userSpaceOnUse">
<stop stop-color="#6F6C72"/>
<stop offset="1" stop-color="#574F60"/>
</linearGradient>
<radialGradient id="paint23_radial_637_22367" cx="0" cy="0" r="1" gradientUnits="userSpaceOnUse" gradientTransform="translate(16.8739 27.1474) rotate(109.567) scale(7.89334 19.6076)">
<stop offset="0.652159" stop-color="#8664A8" stop-opacity="0"/>
<stop offset="1" stop-color="#8664A8"/>
</radialGradient>
<linearGradient id="paint24_linear_637_22367" x1="33.3811" y1="22.8197" x2="33.3811" y2="37.7724" gradientUnits="userSpaceOnUse">
<stop stop-color="#868488"/>
<stop offset="1" stop-color="#574F60"/>
</linearGradient>
<radialGradient id="paint25_radial_637_22367" cx="0" cy="0" r="1" gradientUnits="userSpaceOnUse" gradientTransform="translate(28.8186 27.1474) rotate(76.6492) scale(8.64617 21.4777)">
<stop offset="0.652159" stop-color="#8664A8" stop-opacity="0"/>
<stop offset="1" stop-color="#8664A8"/>
</radialGradient>
<linearGradient id="paint26_linear_637_22367" x1="28.7152" y1="25.5" x2="27.8898" y2="25.5" gradientUnits="userSpaceOnUse">
<stop offset="0.225" stop-color="#594C4F"/>
<stop offset="1" stop-color="#392833"/>
</linearGradient>
<linearGradient id="paint27_linear_637_22367" x1="29.0369" y1="27.5249" x2="29.0369" y2="25.9347" gradientUnits="userSpaceOnUse">
<stop stop-color="#552D52"/>
<stop offset="1" stop-color="#552D52" stop-opacity="0"/>
</linearGradient>
<linearGradient id="paint28_linear_637_22367" x1="20.6677" y1="25.5" x2="19.8423" y2="25.5" gradientUnits="userSpaceOnUse">
<stop offset="0.225" stop-color="#594C4F"/>
<stop offset="1" stop-color="#392833"/>
</linearGradient>
<linearGradient id="paint29_linear_637_22367" x1="20.9894" y1="27.5249" x2="20.9894" y2="25.9347" gradientUnits="userSpaceOnUse">
<stop stop-color="#552D52"/>
<stop offset="1" stop-color="#552D52" stop-opacity="0"/>
</linearGradient>
<radialGradient id="paint30_radial_637_22367" cx="0" cy="0" r="1" gradientUnits="userSpaceOnUse" gradientTransform="translate(27.3776 28.7361) rotate(111.165) scale(9.35488 9.26794)">
<stop stop-color="#DFDBE4"/>
<stop offset="1" stop-color="#978EA2"/>
</radialGradient>
<radialGradient id="paint31_radial_637_22367" cx="0" cy="0" r="1" gradientUnits="userSpaceOnUse" gradientTransform="translate(24 37.7412) rotate(-90) scale(7.09375 14.8776)">
<stop stop-color="#8664A8"/>
<stop offset="1" stop-color="#8664A8" stop-opacity="0"/>
</radialGradient>
<radialGradient id="paint32_radial_637_22367" cx="0" cy="0" r="1" gradientUnits="userSpaceOnUse" gradientTransform="translate(24.5026 30.835) rotate(145.763) scale(7.10955 6.98471)">
<stop offset="0.677908" stop-color="#E1DDE6" stop-opacity="0"/>
<stop offset="1" stop-color="#E1DDE6"/>
</radialGradient>
<radialGradient id="paint33_radial_637_22367" cx="0" cy="0" r="1" gradientUnits="userSpaceOnUse" gradientTransform="translate(23.4401 33.46) rotate(-49.1028) scale(8.40074 8.25323)">
<stop offset="0.609581" stop-color="#ABA5B1" stop-opacity="0"/>
<stop offset="1" stop-color="#ABA5B1"/>
</radialGradient>
<radialGradient id="paint34_radial_637_22367" cx="0" cy="0" r="1" gradientUnits="userSpaceOnUse" gradientTransform="translate(23.4401 33.1475) rotate(-90) scale(6.0375 9.5625)">
<stop offset="0.561023" stop-color="#ABA5B1" stop-opacity="0"/>
<stop offset="1" stop-color="#ABA5B1"/>
</radialGradient>
<linearGradient id="paint35_linear_637_22367" x1="25.2277" y1="26.8442" x2="22.3973" y2="29.3206" gradientUnits="userSpaceOnUse">
<stop offset="0.191489" stop-color="#5F5254"/>
<stop offset="1" stop-color="#2E2127"/>
</linearGradient>
<radialGradient id="paint36_radial_637_22367" cx="0" cy="0" r="1" gradientUnits="userSpaceOnUse" gradientTransform="translate(24.3239 27.7252) rotate(132.042) scale(2.00441 3.67132)">
<stop offset="0.462647" stop-color="#34222C" stop-opacity="0"/>
<stop offset="0.955607" stop-color="#34222C"/>
</radialGradient>
<linearGradient id="paint37_linear_637_22367" x1="24.3586" y1="27.9785" x2="24.3586" y2="26.4249" gradientUnits="userSpaceOnUse">
<stop offset="0.146552" stop-color="#34222C" stop-opacity="0"/>
<stop offset="0.872727" stop-color="#34222C"/>
</linearGradient>
<linearGradient id="paint38_linear_637_22367" x1="25.1269" y1="30.5841" x2="25.1269" y2="28.2354" gradientUnits="userSpaceOnUse">
<stop stop-color="#552D52"/>
<stop offset="1" stop-color="#552D52" stop-opacity="0"/>
</linearGradient>
<radialGradient id="paint39_radial_637_22367" cx="0" cy="0" r="1" gradientUnits="userSpaceOnUse" gradientTransform="translate(26.7838 29.4287) rotate(-161.02) scale(5.71706 2.5936)">
<stop offset="0.827602" stop-color="#5C5458" stop-opacity="0"/>
<stop offset="0.935007" stop-color="#5C5458"/>
</radialGradient>
<radialGradient id="paint40_radial_637_22367" cx="0" cy="0" r="1" gradientUnits="userSpaceOnUse" gradientTransform="translate(22.7057 30.8193) rotate(100.835) scale(3.3249 2.8652)">
<stop stop-color="#261317"/>
<stop offset="0.588542" stop-color="#4E4647"/>
<stop offset="0.747451" stop-color="#2F172A"/>
</radialGradient>
<radialGradient id="paint41_radial_637_22367" cx="0" cy="0" r="1" gradientUnits="userSpaceOnUse" gradientTransform="translate(23.5338 31.9131) rotate(138.918) scale(0.808433 1.03129)">
<stop stop-color="#261317"/>
<stop offset="1" stop-color="#261317" stop-opacity="0"/>
</radialGradient>
<radialGradient id="paint42_radial_637_22367" cx="0" cy="0" r="1" gradientUnits="userSpaceOnUse" gradientTransform="translate(20.7369 30.5225) rotate(50.1104) scale(1.36439 1.02305)">
<stop stop-color="#261317"/>
<stop offset="1" stop-color="#261317" stop-opacity="0"/>
</radialGradient>
<radialGradient id="paint43_radial_637_22367" cx="0" cy="0" r="1" gradientUnits="userSpaceOnUse" gradientTransform="translate(25.6901 31.3193) rotate(81.3546) scale(2.70258 2.8068)">
<stop stop-color="#261317"/>
<stop offset="0.588542" stop-color="#4E4647"/>
<stop offset="0.747451" stop-color="#2F172A"/>
</radialGradient>
<radialGradient id="paint44_radial_637_22367" cx="0" cy="0" r="1" gradientUnits="userSpaceOnUse" gradientTransform="translate(23.7057 31.0381) rotate(43.5057) scale(1.27101 1.40586)">
<stop stop-color="#261317"/>
<stop offset="1" stop-color="#261317" stop-opacity="0"/>
</radialGradient>
</defs>
</svg>
