<svg width="48" height="48" viewBox="0 0 48 48" fill="none" xmlns="http://www.w3.org/2000/svg">
<rect width="48" height="48" rx="24" fill="#F2F5FF"/>
<g filter="url(#filter0_i_637_22373)">
<path d="M24 36.4989C32.6676 36.4989 36.9989 30.9029 36.9989 24C36.9989 17.097 32.6676 11.5011 24 11.5011C15.3323 11.5011 11.0011 17.097 11.0011 24C11.0011 30.9029 15.3323 36.4989 24 36.4989Z" fill="url(#paint0_radial_637_22373)"/>
<path d="M24 36.4989C32.6676 36.4989 36.9989 30.9029 36.9989 24C36.9989 17.097 32.6676 11.5011 24 11.5011C15.3323 11.5011 11.0011 17.097 11.0011 24C11.0011 30.9029 15.3323 36.4989 24 36.4989Z" fill="url(#paint1_radial_637_22373)"/>
<path d="M24 36.4989C32.6676 36.4989 36.9989 30.9029 36.9989 24C36.9989 17.097 32.6676 11.5011 24 11.5011C15.3323 11.5011 11.0011 17.097 11.0011 24C11.0011 30.9029 15.3323 36.4989 24 36.4989Z" fill="url(#paint2_radial_637_22373)"/>
<path d="M24 36.4989C32.6676 36.4989 36.9989 30.9029 36.9989 24C36.9989 17.097 32.6676 11.5011 24 11.5011C15.3323 11.5011 11.0011 17.097 11.0011 24C11.0011 30.9029 15.3323 36.4989 24 36.4989Z" fill="url(#paint3_radial_637_22373)"/>
<path d="M24 36.4989C32.6676 36.4989 36.9989 30.9029 36.9989 24C36.9989 17.097 32.6676 11.5011 24 11.5011C15.3323 11.5011 11.0011 17.097 11.0011 24C11.0011 30.9029 15.3323 36.4989 24 36.4989Z" fill="url(#paint4_radial_637_22373)"/>
<path d="M24 36.4989C32.6676 36.4989 36.9989 30.9029 36.9989 24C36.9989 17.097 32.6676 11.5011 24 11.5011C15.3323 11.5011 11.0011 17.097 11.0011 24C11.0011 30.9029 15.3323 36.4989 24 36.4989Z" fill="url(#paint5_radial_637_22373)" fill-opacity="0.3"/>
<path d="M24 36.4989C32.6676 36.4989 36.9989 30.9029 36.9989 24C36.9989 17.097 32.6676 11.5011 24 11.5011C15.3323 11.5011 11.0011 17.097 11.0011 24C11.0011 30.9029 15.3323 36.4989 24 36.4989Z" fill="url(#paint6_radial_637_22373)"/>
</g>
<g filter="url(#filter1_f_637_22373)">
<rect x="18.0057" y="25.5229" width="10.6114" height="7.51562" rx="3.75781" fill="url(#paint7_linear_637_22373)"/>
<rect x="18.2557" y="25.7729" width="10.1114" height="7.01562" rx="3.50781" stroke="url(#paint8_radial_637_22373)" stroke-width="0.5"/>
</g>
<rect x="19.3828" y="24.8511" width="9.23438" height="6.625" rx="3.3125" fill="url(#paint9_linear_637_22373)"/>
<rect x="19.3828" y="24.8511" width="9.23438" height="6.625" rx="3.3125" fill="url(#paint10_linear_637_22373)"/>
<rect x="19.3828" y="24.8511" width="9.23438" height="6.625" rx="3.3125" fill="url(#paint11_linear_637_22373)"/>
<rect x="19.3828" y="24.8511" width="9.23438" height="6.625" rx="3.3125" fill="url(#paint12_radial_637_22373)" fill-opacity="0.5"/>
<g filter="url(#filter2_f_637_22373)">
<circle cx="22.3712" cy="27.9204" r="1.08449" fill="#FF93D0"/>
</g>
<g filter="url(#filter3_f_637_22373)">
<circle cx="25.9669" cy="27.9204" r="1.08449" fill="#FF93D0"/>
</g>
<g filter="url(#filter4_f_637_22373)">
<path d="M33.0613 13.4836L35.8485 16.2707C36.552 16.9742 36.552 18.1288 35.8485 18.8323L33.0613 21.6195C31.9158 22.765 29.9675 21.9532 29.9675 20.3386V14.7734C29.9675 13.1589 31.9248 12.3471 33.0613 13.4836Z" fill="url(#paint13_linear_637_22373)"/>
</g>
<path d="M33.7011 12.5412L36.7911 15.6312C37.5711 16.4112 37.5711 17.6912 36.7911 18.4712L33.7011 21.5612C32.4311 22.8312 30.2711 21.9312 30.2711 20.1412V13.9712C30.2711 12.1812 32.4411 11.2812 33.7011 12.5412Z" fill="url(#paint14_linear_637_22373)"/>
<path d="M33.7011 12.5412L36.7911 15.6312C37.5711 16.4112 37.5711 17.6912 36.7911 18.4712L33.7011 21.5612C32.4311 22.8312 30.2711 21.9312 30.2711 20.1412V13.9712C30.2711 12.1812 32.4411 11.2812 33.7011 12.5412Z" fill="url(#paint15_linear_637_22373)"/>
<path d="M33.7011 12.5412L36.7911 15.6312C37.5711 16.4112 37.5711 17.6912 36.7911 18.4712L33.7011 21.5612C32.4311 22.8312 30.2711 21.9312 30.2711 20.1412V13.9712C30.2711 12.1812 32.4411 11.2812 33.7011 12.5412Z" fill="url(#paint16_linear_637_22373)"/>
<path d="M33.7011 12.5412L36.7911 15.6312C37.5711 16.4112 37.5711 17.6912 36.7911 18.4712L33.7011 21.5612C32.4311 22.8312 30.2711 21.9312 30.2711 20.1412V13.9712C30.2711 12.1812 32.4411 11.2812 33.7011 12.5412Z" fill="url(#paint17_linear_637_22373)"/>
<path d="M33.7011 12.5412L36.7911 15.6312C37.5711 16.4112 37.5711 17.6912 36.7911 18.4712L33.7011 21.5612C32.4311 22.8312 30.2711 21.9312 30.2711 20.1412V13.9712C30.2711 12.1812 32.4411 11.2812 33.7011 12.5412Z" fill="url(#paint18_radial_637_22373)"/>
<path d="M33.7011 12.5412L36.7911 15.6312C37.5711 16.4112 37.5711 17.6912 36.7911 18.4712L33.7011 21.5612C32.4311 22.8312 30.2711 21.9312 30.2711 20.1412V13.9712C30.2711 12.1812 32.4411 11.2812 33.7011 12.5412Z" fill="url(#paint19_radial_637_22373)"/>
<path d="M33.7011 12.5412L36.7911 15.6312C37.5711 16.4112 37.5711 17.6912 36.7911 18.4712L33.7011 21.5612C32.4311 22.8312 30.2711 21.9312 30.2711 20.1412V13.9712C30.2711 12.1812 32.4411 11.2812 33.7011 12.5412Z" fill="url(#paint20_linear_637_22373)"/>
<g filter="url(#filter5_f_637_22373)">
<path d="M11.9386 20.3292C12.2261 18.6042 13.4803 17.9021 14.0948 17.7511L16.5167 22.173L14.3761 23.0167L11.9386 20.3292Z" fill="url(#paint21_linear_637_22373)"/>
</g>
<path d="M13.6218 12.1341L10.5775 15.4732C9.80898 16.3134 9.80898 17.6921 10.5775 18.5323L13.6218 21.8607C14.873 23.2286 17.0011 22.2592 17.0011 20.3311V13.6744C17.0011 11.7464 14.873 10.7769 13.6218 12.1341Z" fill="url(#paint22_linear_637_22373)"/>
<path d="M13.6218 12.1341L10.5775 15.4732C9.80898 16.3134 9.80898 17.6921 10.5775 18.5323L13.6218 21.8607C14.873 23.2286 17.0011 22.2592 17.0011 20.3311V13.6744C17.0011 11.7464 14.873 10.7769 13.6218 12.1341Z" fill="url(#paint23_linear_637_22373)"/>
<path d="M13.6218 12.1341L10.5775 15.4732C9.80898 16.3134 9.80898 17.6921 10.5775 18.5323L13.6218 21.8607C14.873 23.2286 17.0011 22.2592 17.0011 20.3311V13.6744C17.0011 11.7464 14.873 10.7769 13.6218 12.1341Z" fill="url(#paint24_linear_637_22373)"/>
<path d="M13.6218 12.1341L10.5775 15.4732C9.80898 16.3134 9.80898 17.6921 10.5775 18.5323L13.6218 21.8607C14.873 23.2286 17.0011 22.2592 17.0011 20.3311V13.6744C17.0011 11.7464 14.873 10.7769 13.6218 12.1341Z" fill="url(#paint25_linear_637_22373)"/>
<path d="M13.6218 12.1341L10.5775 15.4732C9.80898 16.3134 9.80898 17.6921 10.5775 18.5323L13.6218 21.8607C14.873 23.2286 17.0011 22.2592 17.0011 20.3311V13.6744C17.0011 11.7464 14.873 10.7769 13.6218 12.1341Z" fill="url(#paint26_radial_637_22373)"/>
<path d="M13.6218 12.1341L10.5775 15.4732C9.80898 16.3134 9.80898 17.6921 10.5775 18.5323L13.6218 21.8607C14.873 23.2286 17.0011 22.2592 17.0011 20.3311V13.6744C17.0011 11.7464 14.873 10.7769 13.6218 12.1341Z" fill="url(#paint27_linear_637_22373)"/>
<path d="M13.6218 12.1341L10.5775 15.4732C9.80898 16.3134 9.80898 17.6921 10.5775 18.5323L13.6218 21.8607C14.873 23.2286 17.0011 22.2592 17.0011 20.3311V13.6744C17.0011 11.7464 14.873 10.7769 13.6218 12.1341Z" fill="url(#paint28_radial_637_22373)"/>
<path d="M25.8281 29.1558C26.3804 29.1558 26.8281 28.708 26.8281 28.1558C26.8281 27.6035 26.3804 27.1558 25.8281 27.1558C25.2758 27.1558 24.8281 27.6035 24.8281 28.1558C24.8281 28.708 25.2758 29.1558 25.8281 29.1558Z" fill="url(#paint29_linear_637_22373)"/>
<path d="M22.1719 29.1558C22.7242 29.1558 23.1719 28.708 23.1719 28.1558C23.1719 27.6035 22.7242 27.1558 22.1719 27.1558C21.6196 27.1558 21.1719 27.6035 21.1719 28.1558C21.1719 28.708 21.6196 29.1558 22.1719 29.1558Z" fill="url(#paint30_linear_637_22373)"/>
<g filter="url(#filter6_f_637_22373)">
<rect x="27.173" y="21.7667" width="1.5" height="2.5" rx="0.75" fill="#FF648B"/>
</g>
<g filter="url(#filter7_f_637_22373)">
<rect x="18.673" y="21.7667" width="1.5" height="2.5" rx="0.75" fill="#FF648B"/>
</g>
<rect x="27.5011" y="21.5011" width="1.5" height="2.5" rx="0.75" fill="url(#paint31_linear_637_22373)"/>
<rect x="27.5011" y="21.5011" width="1.5" height="2.5" rx="0.75" fill="url(#paint32_linear_637_22373)"/>
<rect x="27.5011" y="21.5011" width="1.5" height="2.5" rx="0.75" fill="url(#paint33_linear_637_22373)"/>
<rect x="19.0011" y="21.5011" width="1.5" height="2.5" rx="0.75" fill="url(#paint34_linear_637_22373)"/>
<rect x="19.0011" y="21.5011" width="1.5" height="2.5" rx="0.75" fill="url(#paint35_linear_637_22373)"/>
<rect x="19.0011" y="21.5011" width="1.5" height="2.5" rx="0.75" fill="url(#paint36_linear_637_22373)"/>
<g filter="url(#filter8_f_637_22373)">
<path d="M36.6261 16.9761L32.8136 21.1636" stroke="url(#paint37_linear_637_22373)" stroke-linecap="round"/>
</g>
<g filter="url(#filter9_f_637_22373)">
<path d="M16.2266 13.6849L16.2266 21.1636" stroke="url(#paint38_linear_637_22373)" stroke-width="0.3" stroke-linecap="round"/>
</g>
<g filter="url(#filter10_f_637_22373)">
<path d="M25.5569 25.5229C26.7756 25.5229 28.2199 26.3198 28.2199 28.5542" stroke="url(#paint39_linear_637_22373)" stroke-width="0.15" stroke-linecap="round"/>
</g>
<g filter="url(#filter11_f_637_22373)">
<path d="M24.4441 28.2366C24.4893 28.6889 24.8602 29.5755 25.982 29.5031" stroke="url(#paint40_linear_637_22373)" stroke-width="0.15" stroke-linecap="round"/>
</g>
<g filter="url(#filter12_f_637_22373)">
<path d="M20.75 28.2366C20.7952 28.6889 21.1661 29.5755 22.2879 29.5031" stroke="url(#paint41_linear_637_22373)" stroke-opacity="0.75" stroke-width="0.15" stroke-linecap="round"/>
</g>
<defs>
<filter id="filter0_i_637_22373" x="11.0011" y="11.5011" width="27.2478" height="25.3978" filterUnits="userSpaceOnUse" color-interpolation-filters="sRGB">
<feFlood flood-opacity="0" result="BackgroundImageFix"/>
<feBlend mode="normal" in="SourceGraphic" in2="BackgroundImageFix" result="shape"/>
<feColorMatrix in="SourceAlpha" type="matrix" values="0 0 0 0 0 0 0 0 0 0 0 0 0 0 0 0 0 0 127 0" result="hardAlpha"/>
<feOffset dx="1.25" dy="0.4"/>
<feGaussianBlur stdDeviation="1"/>
<feComposite in2="hardAlpha" operator="arithmetic" k2="-1" k3="1"/>
<feColorMatrix type="matrix" values="0 0 0 0 0 0 0 0 0 0 0 0 0 0 0 0 0 0 0.12 0"/>
<feBlend mode="normal" in2="shape" result="effect1_innerShadow_637_22373"/>
</filter>
<filter id="filter1_f_637_22373" x="16.0057" y="23.5229" width="14.6115" height="11.5156" filterUnits="userSpaceOnUse" color-interpolation-filters="sRGB">
<feFlood flood-opacity="0" result="BackgroundImageFix"/>
<feBlend mode="normal" in="SourceGraphic" in2="BackgroundImageFix" result="shape"/>
<feGaussianBlur stdDeviation="1" result="effect1_foregroundBlur_637_22373"/>
</filter>
<filter id="filter2_f_637_22373" x="20.7867" y="26.3359" width="3.16895" height="3.16895" filterUnits="userSpaceOnUse" color-interpolation-filters="sRGB">
<feFlood flood-opacity="0" result="BackgroundImageFix"/>
<feBlend mode="normal" in="SourceGraphic" in2="BackgroundImageFix" result="shape"/>
<feGaussianBlur stdDeviation="0.25" result="effect1_foregroundBlur_637_22373"/>
</filter>
<filter id="filter3_f_637_22373" x="24.3824" y="26.3359" width="3.16895" height="3.16895" filterUnits="userSpaceOnUse" color-interpolation-filters="sRGB">
<feFlood flood-opacity="0" result="BackgroundImageFix"/>
<feBlend mode="normal" in="SourceGraphic" in2="BackgroundImageFix" result="shape"/>
<feGaussianBlur stdDeviation="0.25" result="effect1_foregroundBlur_637_22373"/>
</filter>
<filter id="filter4_f_637_22373" x="28.4675" y="11.4535" width="9.40857" height="12.2023" filterUnits="userSpaceOnUse" color-interpolation-filters="sRGB">
<feFlood flood-opacity="0" result="BackgroundImageFix"/>
<feBlend mode="normal" in="SourceGraphic" in2="BackgroundImageFix" result="shape"/>
<feGaussianBlur stdDeviation="0.75" result="effect1_foregroundBlur_637_22373"/>
</filter>
<filter id="filter5_f_637_22373" x="10.9386" y="16.7511" width="6.57812" height="7.26562" filterUnits="userSpaceOnUse" color-interpolation-filters="sRGB">
<feFlood flood-opacity="0" result="BackgroundImageFix"/>
<feBlend mode="normal" in="SourceGraphic" in2="BackgroundImageFix" result="shape"/>
<feGaussianBlur stdDeviation="0.5" result="effect1_foregroundBlur_637_22373"/>
</filter>
<filter id="filter6_f_637_22373" x="26.673" y="21.2667" width="2.5" height="3.5" filterUnits="userSpaceOnUse" color-interpolation-filters="sRGB">
<feFlood flood-opacity="0" result="BackgroundImageFix"/>
<feBlend mode="normal" in="SourceGraphic" in2="BackgroundImageFix" result="shape"/>
<feGaussianBlur stdDeviation="0.25" result="effect1_foregroundBlur_637_22373"/>
</filter>
<filter id="filter7_f_637_22373" x="18.173" y="21.2667" width="2.5" height="3.5" filterUnits="userSpaceOnUse" color-interpolation-filters="sRGB">
<feFlood flood-opacity="0" result="BackgroundImageFix"/>
<feBlend mode="normal" in="SourceGraphic" in2="BackgroundImageFix" result="shape"/>
<feGaussianBlur stdDeviation="0.25" result="effect1_foregroundBlur_637_22373"/>
</filter>
<filter id="filter8_f_637_22373" x="31.3136" y="15.4761" width="6.8125" height="7.1875" filterUnits="userSpaceOnUse" color-interpolation-filters="sRGB">
<feFlood flood-opacity="0" result="BackgroundImageFix"/>
<feBlend mode="normal" in="SourceGraphic" in2="BackgroundImageFix" result="shape"/>
<feGaussianBlur stdDeviation="0.5" result="effect1_foregroundBlur_637_22373"/>
</filter>
<filter id="filter9_f_637_22373" x="15.0765" y="12.5349" width="2.30005" height="9.77869" filterUnits="userSpaceOnUse" color-interpolation-filters="sRGB">
<feFlood flood-opacity="0" result="BackgroundImageFix"/>
<feBlend mode="normal" in="SourceGraphic" in2="BackgroundImageFix" result="shape"/>
<feGaussianBlur stdDeviation="0.5" result="effect1_foregroundBlur_637_22373"/>
</filter>
<filter id="filter10_f_637_22373" x="25.1819" y="25.148" width="3.41299" height="3.78115" filterUnits="userSpaceOnUse" color-interpolation-filters="sRGB">
<feFlood flood-opacity="0" result="BackgroundImageFix"/>
<feBlend mode="normal" in="SourceGraphic" in2="BackgroundImageFix" result="shape"/>
<feGaussianBlur stdDeviation="0.15" result="effect1_foregroundBlur_637_22373"/>
</filter>
<filter id="filter11_f_637_22373" x="24.0691" y="27.8616" width="2.28787" height="2.02065" filterUnits="userSpaceOnUse" color-interpolation-filters="sRGB">
<feFlood flood-opacity="0" result="BackgroundImageFix"/>
<feBlend mode="normal" in="SourceGraphic" in2="BackgroundImageFix" result="shape"/>
<feGaussianBlur stdDeviation="0.15" result="effect1_foregroundBlur_637_22373"/>
</filter>
<filter id="filter12_f_637_22373" x="20.375" y="27.8616" width="2.28787" height="2.02065" filterUnits="userSpaceOnUse" color-interpolation-filters="sRGB">
<feFlood flood-opacity="0" result="BackgroundImageFix"/>
<feBlend mode="normal" in="SourceGraphic" in2="BackgroundImageFix" result="shape"/>
<feGaussianBlur stdDeviation="0.15" result="effect1_foregroundBlur_637_22373"/>
</filter>
<radialGradient id="paint0_radial_637_22373" cx="0" cy="0" r="1" gradientUnits="userSpaceOnUse" gradientTransform="translate(30.0011 14.0385) rotate(104.362) scale(24.1936 31.0966)">
<stop offset="0.163934" stop-color="#FFC0CA"/>
<stop offset="0.543326" stop-color="#FF8CA8"/>
<stop offset="0.890625" stop-color="#FA5292"/>
</radialGradient>
<radialGradient id="paint1_radial_637_22373" cx="0" cy="0" r="1" gradientUnits="userSpaceOnUse" gradientTransform="translate(24 20.7885) rotate(90) scale(16.375 17.3923)">
<stop offset="0.884293" stop-color="#FF6CD7" stop-opacity="0"/>
<stop offset="1" stop-color="#FF6CD7"/>
</radialGradient>
<radialGradient id="paint2_radial_637_22373" cx="0" cy="0" r="1" gradientUnits="userSpaceOnUse" gradientTransform="translate(31.9542 15.7104) rotate(-137.793) scale(4.53529 2.73031)">
<stop stop-color="#E2697D"/>
<stop offset="0.286276" stop-color="#F78296"/>
<stop offset="1" stop-color="#F78296" stop-opacity="0"/>
</radialGradient>
<radialGradient id="paint3_radial_637_22373" cx="0" cy="0" r="1" gradientUnits="userSpaceOnUse" gradientTransform="translate(8.1886 20.9135) rotate(34.2673) scale(6.8821 11.9046)">
<stop stop-color="#C86C80"/>
<stop offset="1" stop-color="#C86C80" stop-opacity="0"/>
</radialGradient>
<radialGradient id="paint4_radial_637_22373" cx="0" cy="0" r="1" gradientUnits="userSpaceOnUse" gradientTransform="translate(24 25.6432) rotate(-90) scale(2.89497 6.79187)">
<stop stop-color="#FF857D"/>
<stop offset="1" stop-color="#FF857D" stop-opacity="0"/>
</radialGradient>
<radialGradient id="paint5_radial_637_22373" cx="0" cy="0" r="1" gradientUnits="userSpaceOnUse" gradientTransform="translate(34.6886 25.726) rotate(176.947) scale(4.69416 11.2001)">
<stop stop-color="#FFB5C8"/>
<stop offset="1" stop-color="#FFB5C8" stop-opacity="0"/>
</radialGradient>
<radialGradient id="paint6_radial_637_22373" cx="0" cy="0" r="1" gradientUnits="userSpaceOnUse" gradientTransform="translate(36.9989 19.1635) rotate(124.608) scale(6.37863 5.88374)">
<stop stop-color="#FFB5C8"/>
<stop offset="1" stop-color="#FFB5C8" stop-opacity="0"/>
</radialGradient>
<linearGradient id="paint7_linear_637_22373" x1="23.3115" y1="29.7322" x2="20.1685" y2="33.5208" gradientUnits="userSpaceOnUse">
<stop stop-color="#EB3F85"/>
<stop offset="1" stop-color="#FC4992" stop-opacity="0"/>
</linearGradient>
<radialGradient id="paint8_radial_637_22373" cx="0" cy="0" r="1" gradientUnits="userSpaceOnUse" gradientTransform="translate(27.0255 26.1493) rotate(109.954) scale(4.66412 4.13224)">
<stop stop-color="#FFD0EF"/>
<stop offset="1" stop-color="#FFCEF0" stop-opacity="0"/>
</radialGradient>
<linearGradient id="paint9_linear_637_22373" x1="22.3627" y1="32.603" x2="27.0263" y2="25.5761" gradientUnits="userSpaceOnUse">
<stop stop-color="#FF9DE5"/>
<stop offset="1" stop-color="#FFAFE5"/>
</linearGradient>
<linearGradient id="paint10_linear_637_22373" x1="24" y1="32.311" x2="24" y2="28.757" gradientUnits="userSpaceOnUse">
<stop stop-color="#FF8DF3"/>
<stop offset="1" stop-color="#FF8DF3" stop-opacity="0"/>
</linearGradient>
<linearGradient id="paint11_linear_637_22373" x1="24" y1="23.7192" x2="24" y2="26.0656" gradientUnits="userSpaceOnUse">
<stop stop-color="#FFABC8"/>
<stop offset="1" stop-color="#FFABC8" stop-opacity="0"/>
</linearGradient>
<radialGradient id="paint12_radial_637_22373" cx="0" cy="0" r="1" gradientUnits="userSpaceOnUse" gradientTransform="translate(28.6172 25.9146) rotate(137.281) scale(3.68944 5.09474)">
<stop stop-color="#FFC7EA"/>
<stop offset="1" stop-color="#FFC7EA" stop-opacity="0"/>
</radialGradient>
<linearGradient id="paint13_linear_637_22373" x1="33.1718" y1="15.849" x2="31.5843" y2="21.2045" gradientUnits="userSpaceOnUse">
<stop stop-color="#F78296"/>
<stop offset="1" stop-color="#E3519C"/>
</linearGradient>
<linearGradient id="paint14_linear_637_22373" x1="33.8236" y1="15.1636" x2="32.0636" y2="21.1011" gradientUnits="userSpaceOnUse">
<stop stop-color="#FFC5DE"/>
<stop offset="1" stop-color="#FFB5EA"/>
</linearGradient>
<linearGradient id="paint15_linear_637_22373" x1="35.0948" y1="20.4136" x2="33.8236" y2="19.2105" gradientUnits="userSpaceOnUse">
<stop stop-color="#FFA0D5"/>
<stop offset="1" stop-color="#FFADDB" stop-opacity="0"/>
</linearGradient>
<linearGradient id="paint16_linear_637_22373" x1="30.2711" y1="18.7886" x2="32.2511" y2="18.7886" gradientUnits="userSpaceOnUse">
<stop stop-color="#FFA0D5"/>
<stop offset="1" stop-color="#FFADDB" stop-opacity="0"/>
</linearGradient>
<linearGradient id="paint17_linear_637_22373" x1="28.3136" y1="22.1558" x2="35.1261" y2="18.7886" gradientUnits="userSpaceOnUse">
<stop stop-color="#FFA0D5"/>
<stop offset="1" stop-color="#FFADDB" stop-opacity="0"/>
</linearGradient>
<radialGradient id="paint18_radial_637_22373" cx="0" cy="0" r="1" gradientUnits="userSpaceOnUse" gradientTransform="translate(29.5011 10.2261) rotate(52.284) scale(5.92565 4.96071)">
<stop stop-color="#EC9099"/>
<stop offset="1" stop-color="#EC9099" stop-opacity="0"/>
</radialGradient>
<radialGradient id="paint19_radial_637_22373" cx="0" cy="0" r="1" gradientUnits="userSpaceOnUse" gradientTransform="translate(43.0011 22.1558) rotate(-149.503) scale(16.6104 12.5171)">
<stop offset="0.862877" stop-color="#EC9099" stop-opacity="0"/>
<stop offset="1" stop-color="#EC9099"/>
</radialGradient>
<linearGradient id="paint20_linear_637_22373" x1="36.6261" y1="10.7261" x2="33.1573" y2="14.4449" gradientUnits="userSpaceOnUse">
<stop offset="0.282154" stop-color="#EC9099"/>
<stop offset="1" stop-color="#EC9099" stop-opacity="0"/>
</linearGradient>
<linearGradient id="paint21_linear_637_22373" x1="13.0323" y1="20.101" x2="16.6134" y2="22.7295" gradientUnits="userSpaceOnUse">
<stop stop-color="#BC4F87"/>
<stop offset="1" stop-color="#E3519C"/>
</linearGradient>
<linearGradient id="paint22_linear_637_22373" x1="13.5011" y1="14.9622" x2="11.457" y2="21.2634" gradientUnits="userSpaceOnUse">
<stop stop-color="#FFC5DE"/>
<stop offset="1" stop-color="#FFB5EA"/>
</linearGradient>
<linearGradient id="paint23_linear_637_22373" x1="14.6283" y1="22.9291" x2="11.8199" y2="18.5383" gradientUnits="userSpaceOnUse">
<stop stop-color="#FFA0D5"/>
<stop offset="1" stop-color="#FFADDB" stop-opacity="0"/>
</linearGradient>
<linearGradient id="paint24_linear_637_22373" x1="11.4921" y1="21.9038" x2="14.6886" y2="19.1295" gradientUnits="userSpaceOnUse">
<stop stop-color="#E88BC9"/>
<stop offset="1" stop-color="#E88BC9" stop-opacity="0"/>
</linearGradient>
<linearGradient id="paint25_linear_637_22373" x1="10.7683" y1="12.8571" x2="17.3919" y2="19.0024" gradientUnits="userSpaceOnUse">
<stop stop-color="#EC9099"/>
<stop offset="1" stop-color="#EC9099" stop-opacity="0"/>
</linearGradient>
<radialGradient id="paint26_radial_637_22373" cx="0" cy="0" r="1" gradientUnits="userSpaceOnUse" gradientTransform="translate(14.6886 11.875) rotate(92.0948) scale(5.12956 3.26426)">
<stop stop-color="#FFA4B7"/>
<stop offset="1" stop-color="#FFA4B7" stop-opacity="0"/>
</radialGradient>
<linearGradient id="paint27_linear_637_22373" x1="9.1886" y1="12.75" x2="13.1261" y2="16.6875" gradientUnits="userSpaceOnUse">
<stop offset="0.238095" stop-color="#BD747C"/>
<stop offset="1" stop-color="#CC8C93" stop-opacity="0"/>
</linearGradient>
<radialGradient id="paint28_radial_637_22373" cx="0" cy="0" r="1" gradientUnits="userSpaceOnUse" gradientTransform="translate(17.9153 18.6771) rotate(-169.114) scale(8.87476 9.05786)">
<stop offset="0.776139" stop-color="#CC8C93" stop-opacity="0"/>
<stop offset="1" stop-color="#CC8C93"/>
</radialGradient>
<linearGradient id="paint29_linear_637_22373" x1="25.8281" y1="27.6307" x2="25.8281" y2="28.9901" gradientUnits="userSpaceOnUse">
<stop stop-color="#D6085D"/>
<stop offset="1" stop-color="#AB087F"/>
</linearGradient>
<linearGradient id="paint30_linear_637_22373" x1="22.1719" y1="27.6307" x2="22.1719" y2="28.9901" gradientUnits="userSpaceOnUse">
<stop stop-color="#D6085D"/>
<stop offset="1" stop-color="#AB087F"/>
</linearGradient>
<linearGradient id="paint31_linear_637_22373" x1="28.7592" y1="22.7511" x2="27.8398" y2="22.7511" gradientUnits="userSpaceOnUse">
<stop stop-color="#574D50"/>
<stop offset="0.855263" stop-color="#31232C"/>
</linearGradient>
<linearGradient id="paint32_linear_637_22373" x1="29.2355" y1="24.282" x2="29.2355" y2="23.3746" gradientUnits="userSpaceOnUse">
<stop stop-color="#552D52"/>
<stop offset="1" stop-color="#552D52" stop-opacity="0"/>
</linearGradient>
<linearGradient id="paint33_linear_637_22373" x1="27.1866" y1="22.904" x2="27.864" y2="22.904" gradientUnits="userSpaceOnUse">
<stop stop-color="#574D50"/>
<stop offset="1" stop-color="#574D50" stop-opacity="0"/>
</linearGradient>
<linearGradient id="paint34_linear_637_22373" x1="20.2592" y1="22.7511" x2="19.3398" y2="22.7511" gradientUnits="userSpaceOnUse">
<stop stop-color="#574D50"/>
<stop offset="0.855263" stop-color="#31232C"/>
</linearGradient>
<linearGradient id="paint35_linear_637_22373" x1="20.7355" y1="24.282" x2="20.7355" y2="23.3746" gradientUnits="userSpaceOnUse">
<stop stop-color="#552D52"/>
<stop offset="1" stop-color="#552D52" stop-opacity="0"/>
</linearGradient>
<linearGradient id="paint36_linear_637_22373" x1="18.6866" y1="22.904" x2="19.364" y2="22.904" gradientUnits="userSpaceOnUse">
<stop stop-color="#574D50"/>
<stop offset="1" stop-color="#574D50" stop-opacity="0"/>
</linearGradient>
<linearGradient id="paint37_linear_637_22373" x1="36.4073" y1="17.8823" x2="32.5948" y2="21.6636" gradientUnits="userSpaceOnUse">
<stop stop-color="#FFD8EE"/>
<stop offset="1" stop-color="#FFD8EE" stop-opacity="0"/>
</linearGradient>
<linearGradient id="paint38_linear_637_22373" x1="15.0941" y1="16.6704" x2="15.0941" y2="28.5518" gradientUnits="userSpaceOnUse">
<stop stop-color="#FFE6F4"/>
<stop offset="1" stop-color="#FFE5F4" stop-opacity="0"/>
</linearGradient>
<linearGradient id="paint39_linear_637_22373" x1="24.8662" y1="24.6631" x2="30.3094" y2="28.5542" gradientUnits="userSpaceOnUse">
<stop stop-color="#FFD6F0" stop-opacity="0"/>
<stop offset="0.447917" stop-color="#FFE1F4"/>
<stop offset="1" stop-color="#FFD6F0" stop-opacity="0"/>
</linearGradient>
<linearGradient id="paint40_linear_637_22373" x1="24.0452" y1="27.8761" x2="26.4565" y2="30.2509" gradientUnits="userSpaceOnUse">
<stop stop-color="#FFD6F0" stop-opacity="0"/>
<stop offset="0.447917" stop-color="#FFE1F4"/>
<stop offset="1" stop-color="#FFD6F0" stop-opacity="0"/>
</linearGradient>
<linearGradient id="paint41_linear_637_22373" x1="20.3511" y1="27.8761" x2="22.7624" y2="30.2509" gradientUnits="userSpaceOnUse">
<stop stop-color="#FFD6F0" stop-opacity="0"/>
<stop offset="0.078125" stop-color="#FFD8F1" stop-opacity="0.174419"/>
<stop offset="0.447917" stop-color="#FFE1F4"/>
<stop offset="1" stop-color="#FFD6F0" stop-opacity="0"/>
</linearGradient>
</defs>
</svg>
