<svg width="48" height="48" viewBox="0 0 48 48" fill="none" xmlns="http://www.w3.org/2000/svg">
<rect width="48" height="48" rx="24" fill="#F2F5FF"/>
<circle cx="11.0547" cy="27.9453" r="1.05469" fill="url(#paint0_radial_637_22371)"/>
<circle cx="11.0547" cy="25.9453" r="1.05469" fill="url(#paint1_radial_637_22371)"/>
<g filter="url(#filter0_ii_637_22371)">
<rect x="11" y="18.6875" width="22" height="17.3125" rx="8.65625" fill="url(#paint2_radial_637_22371)"/>
<rect x="11" y="18.6875" width="22" height="17.3125" rx="8.65625" fill="url(#paint3_linear_637_22371)"/>
</g>
<rect x="11" y="18.6875" width="22" height="17.3125" rx="8.65625" fill="url(#paint4_radial_637_22371)"/>
<rect x="11" y="18.6875" width="22" height="17.3125" rx="8.65625" fill="url(#paint5_radial_637_22371)"/>
<g filter="url(#filter1_f_637_22371)">
<path d="M20.1091 22.5078C22.906 24.8516 23.1091 29.0078 20.1091 32.1797" stroke="#3A94E7" stroke-linecap="round"/>
</g>
<g filter="url(#filter2_i_637_22371)">
<path d="M20.1091 22.5078C22.906 24.8516 23.1091 29.0078 20.1091 32.1797" stroke="#3F61E7" stroke-linecap="round"/>
<path d="M20.1091 22.5078C22.906 24.8516 23.1091 29.0078 20.1091 32.1797" stroke="url(#paint6_radial_637_22371)" stroke-linecap="round"/>
<path d="M20.1091 22.5078C22.906 24.8516 23.1091 29.0078 20.1091 32.1797" stroke="url(#paint7_radial_637_22371)" stroke-linecap="round"/>
<path d="M20.1091 22.5078C22.906 24.8516 23.1091 29.0078 20.1091 32.1797" stroke="url(#paint8_radial_637_22371)" stroke-linecap="round"/>
</g>
<circle cx="16.6797" cy="25.4805" r="0.5" fill="url(#paint9_radial_637_22371)"/>
<circle cx="16.6797" cy="25.4805" r="0.5" fill="url(#paint10_radial_637_22371)"/>
<circle cx="16.6797" cy="25.4805" r="0.5" fill="url(#paint11_linear_637_22371)"/>
<path d="M33 32.125C33 34.3341 34.7909 36.125 37 36.125H37.2188C37.4949 36.125 37.7188 35.9011 37.7188 35.625V31.375C37.7188 29.1659 35.9279 27.375 33.7188 27.375H33V32.125Z" fill="url(#paint12_radial_637_22371)"/>
<path d="M33 32.125C33 34.3341 34.7909 36.125 37 36.125H37.2188C37.4949 36.125 37.7188 35.9011 37.7188 35.625V31.375C37.7188 29.1659 35.9279 27.375 33.7188 27.375H33V32.125Z" fill="url(#paint13_radial_637_22371)"/>
<path d="M33 32.125C33 34.3341 34.7909 36.125 37 36.125H37.2188C37.4949 36.125 37.7188 35.9011 37.7188 35.625V31.375C37.7188 29.1659 35.9279 27.375 33.7188 27.375H33V32.125Z" fill="url(#paint14_linear_637_22371)"/>
<path d="M33 32.125C33 34.3341 34.7909 36.125 37 36.125H37.2188C37.4949 36.125 37.7188 35.9011 37.7188 35.625V31.375C37.7188 29.1659 35.9279 27.375 33.7188 27.375H33V32.125Z" fill="url(#paint15_radial_637_22371)"/>
<path d="M33 22.625C33 20.4159 34.7909 18.625 37 18.625H37.2188C37.4949 18.625 37.7188 18.8489 37.7188 19.125V23.375C37.7188 25.5841 35.9279 27.375 33.7188 27.375H33V22.625Z" fill="url(#paint16_radial_637_22371)"/>
<path d="M33 22.625C33 20.4159 34.7909 18.625 37 18.625H37.2188C37.4949 18.625 37.7188 18.8489 37.7188 19.125V23.375C37.7188 25.5841 35.9279 27.375 33.7188 27.375H33V22.625Z" fill="url(#paint17_radial_637_22371)"/>
<path d="M33 22.625C33 20.4159 34.7909 18.625 37 18.625H37.2188C37.4949 18.625 37.7188 18.8489 37.7188 19.125V23.375C37.7188 25.5841 35.9279 27.375 33.7188 27.375H33V22.625Z" fill="url(#paint18_radial_637_22371)"/>
<path d="M23.1709 36C24.1467 36 24.9377 36.791 24.9377 37.7668C24.9377 37.8888 24.8389 37.9877 24.7169 37.9877L22.9563 37.9877C21.8586 37.9877 20.9686 37.0978 20.9686 36L23.1709 36Z" fill="url(#paint19_radial_637_22371)"/>
<path d="M23.1709 36C24.1467 36 24.9377 36.791 24.9377 37.7668C24.9377 37.8888 24.8389 37.9877 24.7169 37.9877L22.9563 37.9877C21.8586 37.9877 20.9686 37.0978 20.9686 36L23.1709 36Z" fill="url(#paint20_linear_637_22371)"/>
<path d="M23.1709 36C24.1467 36 24.9377 36.791 24.9377 37.7668C24.9377 37.8888 24.8389 37.9877 24.7169 37.9877L22.9563 37.9877C21.8586 37.9877 20.9686 37.0978 20.9686 36L23.1709 36Z" fill="url(#paint21_radial_637_22371)"/>
<path d="M25.7502 18.6875C27.9594 18.6875 29.7502 16.8966 29.7502 14.6875L29.7502 14.3594C29.7502 14.0832 29.5264 13.8594 29.2502 13.8594L24.1093 13.8594C21.9001 13.8594 20.1093 15.6502 20.1093 17.8594L20.1093 18.6875L25.7502 18.6875Z" fill="url(#paint22_radial_637_22371)"/>
<path d="M25.7502 18.6875C27.9594 18.6875 29.7502 16.8966 29.7502 14.6875L29.7502 14.3594C29.7502 14.0832 29.5264 13.8594 29.2502 13.8594L24.1093 13.8594C21.9001 13.8594 20.1093 15.6502 20.1093 17.8594L20.1093 18.6875L25.7502 18.6875Z" fill="url(#paint23_linear_637_22371)"/>
<path d="M25.7502 18.6875C27.9594 18.6875 29.7502 16.8966 29.7502 14.6875L29.7502 14.3594C29.7502 14.0832 29.5264 13.8594 29.2502 13.8594L24.1093 13.8594C21.9001 13.8594 20.1093 15.6502 20.1093 17.8594L20.1093 18.6875L25.7502 18.6875Z" fill="url(#paint24_radial_637_22371)"/>
<defs>
<filter id="filter0_ii_637_22371" x="10.5" y="18.1875" width="22.5" height="17.8125" filterUnits="userSpaceOnUse" color-interpolation-filters="sRGB">
<feFlood flood-opacity="0" result="BackgroundImageFix"/>
<feBlend mode="normal" in="SourceGraphic" in2="BackgroundImageFix" result="shape"/>
<feColorMatrix in="SourceAlpha" type="matrix" values="0 0 0 0 0 0 0 0 0 0 0 0 0 0 0 0 0 0 127 0" result="hardAlpha"/>
<feOffset dx="-0.5" dy="-0.5"/>
<feGaussianBlur stdDeviation="1"/>
<feComposite in2="hardAlpha" operator="arithmetic" k2="-1" k3="1"/>
<feColorMatrix type="matrix" values="0 0 0 0 0.364706 0 0 0 0 0.407843 0 0 0 0 1 0 0 0 1 0"/>
<feBlend mode="normal" in2="shape" result="effect1_innerShadow_637_22371"/>
<feColorMatrix in="SourceAlpha" type="matrix" values="0 0 0 0 0 0 0 0 0 0 0 0 0 0 0 0 0 0 127 0" result="hardAlpha"/>
<feOffset dx="-0.25"/>
<feGaussianBlur stdDeviation="0.25"/>
<feComposite in2="hardAlpha" operator="arithmetic" k2="-1" k3="1"/>
<feColorMatrix type="matrix" values="0 0 0 0 0.164706 0 0 0 0 0.411765 0 0 0 0 0.823529 0 0 0 1 0"/>
<feBlend mode="normal" in2="effect1_innerShadow_637_22371" result="effect2_innerShadow_637_22371"/>
</filter>
<filter id="filter1_f_637_22371" x="17.6091" y="20.0078" width="7.17444" height="14.6719" filterUnits="userSpaceOnUse" color-interpolation-filters="sRGB">
<feFlood flood-opacity="0" result="BackgroundImageFix"/>
<feBlend mode="normal" in="SourceGraphic" in2="BackgroundImageFix" result="shape"/>
<feGaussianBlur stdDeviation="1" result="effect1_foregroundBlur_637_22371"/>
</filter>
<filter id="filter2_i_637_22371" x="19.6091" y="22.0078" width="3.17444" height="10.6719" filterUnits="userSpaceOnUse" color-interpolation-filters="sRGB">
<feFlood flood-opacity="0" result="BackgroundImageFix"/>
<feBlend mode="normal" in="SourceGraphic" in2="BackgroundImageFix" result="shape"/>
<feColorMatrix in="SourceAlpha" type="matrix" values="0 0 0 0 0 0 0 0 0 0 0 0 0 0 0 0 0 0 127 0" result="hardAlpha"/>
<feOffset/>
<feGaussianBlur stdDeviation="0.3"/>
<feComposite in2="hardAlpha" operator="arithmetic" k2="-1" k3="1"/>
<feColorMatrix type="matrix" values="0 0 0 0 0.133333 0 0 0 0 0.439216 0 0 0 0 0.941176 0 0 0 1 0"/>
<feBlend mode="normal" in2="shape" result="effect1_innerShadow_637_22371"/>
</filter>
<radialGradient id="paint0_radial_637_22371" cx="0" cy="0" r="1" gradientUnits="userSpaceOnUse" gradientTransform="translate(11.2187 27.6016) rotate(150.684) scale(1.1648 1.5939)">
<stop stop-color="#3AAEE7"/>
<stop offset="1" stop-color="#45A5E8"/>
</radialGradient>
<radialGradient id="paint1_radial_637_22371" cx="0" cy="0" r="1" gradientUnits="userSpaceOnUse" gradientTransform="translate(11.2187 25.6016) rotate(150.684) scale(1.1648 1.5939)">
<stop stop-color="#3AAEE7"/>
<stop offset="1" stop-color="#45A5E8"/>
</radialGradient>
<radialGradient id="paint2_radial_637_22371" cx="0" cy="0" r="1" gradientUnits="userSpaceOnUse" gradientTransform="translate(19 24) rotate(52.125) scale(18.5279 24.3438)">
<stop stop-color="#50CAFF"/>
<stop offset="1" stop-color="#4D7FFF"/>
</radialGradient>
<linearGradient id="paint3_linear_637_22371" x1="22" y1="37.375" x2="22" y2="32.4375" gradientUnits="userSpaceOnUse">
<stop stop-color="#508BFF"/>
<stop offset="1" stop-color="#508BFF" stop-opacity="0"/>
</linearGradient>
<radialGradient id="paint4_radial_637_22371" cx="0" cy="0" r="1" gradientUnits="userSpaceOnUse" gradientTransform="translate(13.75 19.5) rotate(54.3004) scale(12.8527 14.7095)">
<stop stop-color="#50CAFF"/>
<stop offset="1" stop-color="#50CAFF" stop-opacity="0"/>
</radialGradient>
<radialGradient id="paint5_radial_637_22371" cx="0" cy="0" r="1" gradientUnits="userSpaceOnUse" gradientTransform="translate(34 37.1875) rotate(-144.29) scale(26.5554 22.4157)">
<stop offset="0.935277" stop-color="#59C0E7" stop-opacity="0"/>
<stop offset="1" stop-color="#59C0E7"/>
</radialGradient>
<radialGradient id="paint6_radial_637_22371" cx="0" cy="0" r="1" gradientUnits="userSpaceOnUse" gradientTransform="translate(19.9062 32.5078) rotate(-51.9939) scale(1.49717 0.843924)">
<stop stop-color="#4A8CFF"/>
<stop offset="0.609165" stop-color="#4A8CFF" stop-opacity="0"/>
</radialGradient>
<radialGradient id="paint7_radial_637_22371" cx="0" cy="0" r="1" gradientUnits="userSpaceOnUse" gradientTransform="translate(20.0468 22.4297) rotate(46.7357) scale(1.27669 0.760996)">
<stop stop-color="#4A8CFF"/>
<stop offset="0.609165" stop-color="#4A8CFF" stop-opacity="0"/>
</radialGradient>
<radialGradient id="paint8_radial_637_22371" cx="0" cy="0" r="1" gradientUnits="userSpaceOnUse" gradientTransform="translate(21.1964 27.3437) scale(1.64731 3.34375)">
<stop offset="0.203247" stop-color="#4F7FE6"/>
<stop offset="1" stop-color="#4F7FE6" stop-opacity="0"/>
</radialGradient>
<radialGradient id="paint9_radial_637_22371" cx="0" cy="0" r="1" gradientUnits="userSpaceOnUse" gradientTransform="translate(16.8281 25.3196) rotate(125.838) scale(0.693863 0.618606)">
<stop offset="0.00558659" stop-color="#433437"/>
<stop offset="1" stop-color="#3B2838"/>
</radialGradient>
<radialGradient id="paint10_radial_637_22371" cx="0" cy="0" r="1" gradientUnits="userSpaceOnUse" gradientTransform="translate(16.8665 25.3555) rotate(137.643) scale(0.35946 0.316238)">
<stop stop-color="#5C5051"/>
<stop offset="1" stop-color="#5C5051" stop-opacity="0"/>
</radialGradient>
<linearGradient id="paint11_linear_637_22371" x1="16.5814" y1="25.0877" x2="16.2376" y2="24.869" gradientUnits="userSpaceOnUse">
<stop stop-color="#5C5051" stop-opacity="0"/>
<stop offset="1" stop-color="#5C5051"/>
</linearGradient>
<radialGradient id="paint12_radial_637_22371" cx="0" cy="0" r="1" gradientUnits="userSpaceOnUse" gradientTransform="translate(36.375 28.75) rotate(89.029) scale(7.37606 7.47018)">
<stop stop-color="#46AAFF"/>
<stop offset="1" stop-color="#368AFF"/>
</radialGradient>
<radialGradient id="paint13_radial_637_22371" cx="0" cy="0" r="1" gradientUnits="userSpaceOnUse" gradientTransform="translate(40.8125 28.6875) rotate(135.266) scale(9.50185 15.6131)">
<stop offset="0.800545" stop-color="#3184E6" stop-opacity="0"/>
<stop offset="1" stop-color="#3184E6"/>
</radialGradient>
<linearGradient id="paint14_linear_637_22371" x1="46.4375" y1="33.5625" x2="33" y2="33.5625" gradientUnits="userSpaceOnUse">
<stop offset="0.848889" stop-color="#3184E6" stop-opacity="0"/>
<stop offset="1" stop-color="#3184E6"/>
</linearGradient>
<radialGradient id="paint15_radial_637_22371" cx="0" cy="0" r="1" gradientUnits="userSpaceOnUse" gradientTransform="translate(37.7187 29.125) rotate(90) scale(7 2.96293)">
<stop stop-color="#54BDFF"/>
<stop offset="0.92268" stop-color="#54BDFF" stop-opacity="0"/>
</radialGradient>
<radialGradient id="paint16_radial_637_22371" cx="0" cy="0" r="1" gradientUnits="userSpaceOnUse" gradientTransform="translate(36.7261 19.5895) rotate(109.396) scale(8.58528 6.27348)">
<stop stop-color="#46AAFF"/>
<stop offset="1" stop-color="#368AFF"/>
</radialGradient>
<radialGradient id="paint17_radial_637_22371" cx="0" cy="0" r="1" gradientUnits="userSpaceOnUse" gradientTransform="translate(41.1875 24) rotate(-165.196) scale(9.05042 14.8713)">
<stop offset="0.725568" stop-color="#3184E6" stop-opacity="0"/>
<stop offset="1" stop-color="#3184E6"/>
</radialGradient>
<radialGradient id="paint18_radial_637_22371" cx="0" cy="0" r="1" gradientUnits="userSpaceOnUse" gradientTransform="translate(37.7188 19.0937) rotate(90) scale(6.3125 1.16539)">
<stop stop-color="#54BDFF"/>
<stop offset="0.92268" stop-color="#54BDFF" stop-opacity="0"/>
</radialGradient>
<radialGradient id="paint19_radial_637_22371" cx="0" cy="0" r="1" gradientUnits="userSpaceOnUse" gradientTransform="translate(23.6876 37.5) rotate(-156.615) scale(2.51946 1.78774)">
<stop stop-color="#4286FF"/>
<stop offset="1" stop-color="#3170FF"/>
</radialGradient>
<linearGradient id="paint20_linear_637_22371" x1="23.1876" y1="35.5312" x2="23.2188" y2="36.5156" gradientUnits="userSpaceOnUse">
<stop stop-color="#0E66FD"/>
<stop offset="1" stop-color="#0E66FD" stop-opacity="0"/>
</linearGradient>
<radialGradient id="paint21_radial_637_22371" cx="0" cy="0" r="1" gradientUnits="userSpaceOnUse" gradientTransform="translate(25.2344 37.8125) rotate(-153.997) scale(2.85112 1.12711)">
<stop stop-color="#519DFF"/>
<stop offset="0.969412" stop-color="#519DFF" stop-opacity="0"/>
</radialGradient>
<radialGradient id="paint22_radial_637_22371" cx="0" cy="0" r="1" gradientUnits="userSpaceOnUse" gradientTransform="translate(28.6876 14.875) rotate(156.038) scale(9.38736 4.65552)">
<stop stop-color="#46AAFF"/>
<stop offset="1" stop-color="#2B86D9"/>
</radialGradient>
<linearGradient id="paint23_linear_637_22371" x1="20.1093" y1="19.4687" x2="20.1093" y2="17.4687" gradientUnits="userSpaceOnUse">
<stop offset="0.109375" stop-color="#0A75CC"/>
<stop offset="1" stop-color="#0A75CC" stop-opacity="0"/>
</linearGradient>
<radialGradient id="paint24_radial_637_22371" cx="0" cy="0" r="1" gradientUnits="userSpaceOnUse" gradientTransform="translate(30.2501 13.5) rotate(143.267) scale(5.22502 1.64552)">
<stop stop-color="#54BDFF"/>
<stop offset="0.644093" stop-color="#54BDFF" stop-opacity="0"/>
</radialGradient>
</defs>
</svg>
