<svg width="48" height="48" viewBox="0 0 48 48" fill="none" xmlns="http://www.w3.org/2000/svg">
<rect width="48" height="48" rx="24" fill="#F2F5FF"/>
<rect x="11.9688" y="13" width="24" height="22" rx="4" fill="url(#paint0_linear_637_22388)"/>
<rect x="11.9688" y="13" width="24" height="22" rx="4" fill="url(#paint1_linear_637_22388)"/>
<rect x="11.9688" y="13" width="24" height="22" rx="4" fill="url(#paint2_linear_637_22388)"/>
<rect x="11.9688" y="13" width="24" height="22" rx="4" fill="url(#paint3_linear_637_22388)"/>
<rect x="11.9688" y="13" width="24" height="22" rx="4" fill="url(#paint4_linear_637_22388)"/>
<rect x="11.9688" y="13" width="24" height="22" rx="4" fill="url(#paint5_radial_637_22388)"/>
<rect x="11.9688" y="13" width="24" height="22" rx="4" fill="url(#paint6_radial_637_22388)"/>
<rect x="11.9688" y="13" width="24" height="22" rx="4" fill="url(#paint7_radial_637_22388)"/>
<rect x="11.9688" y="13" width="24" height="22" rx="4" fill="url(#paint8_radial_637_22388)"/>
<rect x="11.9688" y="13" width="24" height="22" rx="4" fill="url(#paint9_linear_637_22388)"/>
<g filter="url(#filter0_f_637_22388)">
<path d="M32.6875 18.3187H34.9062V30.3656C34.9062 30.9783 34.4096 31.475 33.7969 31.475C33.1842 31.475 32.6875 30.9783 32.6875 30.3656V18.3187Z" fill="url(#paint10_linear_637_22388)" fill-opacity="0.75"/>
</g>
<g filter="url(#filter1_f_637_22388)">
<path d="M34.2188 29.475L27.4722 15.5156C27.0537 14.6497 27.7288 13.6554 28.6879 13.7249L31.0257 13.8942C33.5354 14.0759 35.4084 16.2804 35.1825 18.7865L34.2188 29.475Z" fill="#D89475"/>
</g>
<path d="M32.0312 29.8438C32.0312 25.3688 27.7188 23.9688 24.0312 23.9688C19.9062 23.9688 15.9688 25.5312 15.9688 29.8438C15.9688 33.7937 20.2812 37.1875 24.0312 37.1875C28.5312 37.1875 32.0312 32.5312 32.0312 29.8438Z" fill="url(#paint11_radial_637_22388)"/>
<path d="M32.0312 29.8438C32.0312 25.3688 27.7188 23.9688 24.0312 23.9688C19.9062 23.9688 15.9688 25.5312 15.9688 29.8438C15.9688 33.7937 20.2812 37.1875 24.0312 37.1875C28.5312 37.1875 32.0312 32.5312 32.0312 29.8438Z" fill="url(#paint12_radial_637_22388)"/>
<path d="M32.0312 29.8438C32.0312 25.3688 27.7188 23.9688 24.0312 23.9688C19.9062 23.9688 15.9688 25.5312 15.9688 29.8438C15.9688 33.7937 20.2812 37.1875 24.0312 37.1875C28.5312 37.1875 32.0312 32.5312 32.0312 29.8438Z" fill="url(#paint13_radial_637_22388)"/>
<g filter="url(#filter2_i_637_22388)">
<path d="M20.9609 32.6562L23.9688 30.4062L26.9766 32.6562V35C26.9766 36.6569 25.6256 38 23.9688 38C22.3119 38 20.9609 36.6569 20.9609 35V32.6562Z" fill="url(#paint14_linear_637_22388)"/>
</g>
<g filter="url(#filter3_f_637_22388)">
<path d="M23.5938 30.4062V37.8281C26.1607 37.7031 26.8125 35.5625 26.8125 34.7344V32.4688C24.922 32.0938 23.879 30.9375 23.5938 30.4062Z" fill="url(#paint15_linear_637_22388)"/>
</g>
<g filter="url(#filter4_f_637_22388)">
<path d="M24.6231 30.8957L23.9688 30.4062L23.3003 30.9063C22.906 31.889 22.0841 32.0733 21.3633 32.2211V33.1104C22.3227 33.0178 23.384 32.6578 23.9638 31.5218C24.5457 32.6617 25.6122 33.0208 26.5742 33.1114V32.2231C25.8485 32.0777 25.0175 31.8897 24.6231 30.8957Z" fill="#BD1836"/>
</g>
<path d="M20.5 32.4844C21.9531 32.4844 23.9688 31.2031 23.9688 28.5156" stroke="url(#paint16_radial_637_22388)" stroke-linecap="round"/>
<path d="M20.5 32.4844C21.9531 32.4844 23.9688 31.2031 23.9688 28.5156" stroke="url(#paint17_linear_637_22388)" stroke-linecap="round"/>
<path d="M27.4261 32.4844C25.973 32.4844 23.9574 31.2031 23.9574 28.5156" stroke="url(#paint18_radial_637_22388)" stroke-linecap="round"/>
<path d="M27.4261 32.4844C25.973 32.4844 23.9574 31.2031 23.9574 28.5156" stroke="url(#paint19_linear_637_22388)" stroke-linecap="round"/>
<path d="M24.4745 28.5156C24.4745 28.2395 24.2506 28.0156 23.9745 28.0156L23.9688 28.0157L23.9631 28.0156C23.687 28.0156 23.4631 28.2395 23.4631 28.5156C23.4631 28.598 23.4648 28.6793 23.4682 28.7594C23.3525 30.98 21.662 31.9844 20.5057 31.9844C20.2296 31.9844 20.0057 32.2082 20.0057 32.4844C20.0057 32.7605 20.2296 32.9844 20.5057 32.9844C21.7166 32.9844 23.2047 32.2385 23.9688 30.7417C24.7329 32.2385 26.221 32.9844 27.4318 32.9844C27.708 32.9844 27.9318 32.7605 27.9318 32.4844C27.9318 32.2082 27.708 31.9844 27.4318 31.9844C26.2756 31.9844 24.5851 30.98 24.4694 28.7594C24.4728 28.6793 24.4745 28.598 24.4745 28.5156Z" fill="url(#paint20_radial_637_22388)"/>
<path d="M12.3947 24.3617L19.6947 14.0668C20.2816 13.239 19.6898 12.0938 18.675 12.0938H14.625C12.1397 12.0938 10.125 14.1085 10.125 16.5938V23.6387C10.125 24.8569 11.69 25.3555 12.3947 24.3617Z" fill="url(#paint21_linear_637_22388)"/>
<path d="M12.3947 24.3617L19.6947 14.0668C20.2816 13.239 19.6898 12.0938 18.675 12.0938H14.625C12.1397 12.0938 10.125 14.1085 10.125 16.5938V23.6387C10.125 24.8569 11.69 25.3555 12.3947 24.3617Z" fill="url(#paint22_linear_637_22388)"/>
<path d="M12.3947 24.3617L19.6947 14.0668C20.2816 13.239 19.6898 12.0938 18.675 12.0938H14.625C12.1397 12.0938 10.125 14.1085 10.125 16.5938V23.6387C10.125 24.8569 11.69 25.3555 12.3947 24.3617Z" fill="url(#paint23_linear_637_22388)"/>
<path d="M12.3947 24.3617L19.6947 14.0668C20.2816 13.239 19.6898 12.0938 18.675 12.0938H14.625C12.1397 12.0938 10.125 14.1085 10.125 16.5938V23.6387C10.125 24.8569 11.69 25.3555 12.3947 24.3617Z" fill="url(#paint24_linear_637_22388)"/>
<path d="M12.3947 24.3617L19.6947 14.0668C20.2816 13.239 19.6898 12.0938 18.675 12.0938H14.625C12.1397 12.0938 10.125 14.1085 10.125 16.5938V23.6387C10.125 24.8569 11.69 25.3555 12.3947 24.3617Z" fill="url(#paint25_radial_637_22388)"/>
<path d="M35.5116 24.3617L28.2116 14.0668C27.6246 13.239 28.2165 12.0938 29.2312 12.0938H33.2812C35.7665 12.0938 37.7812 14.1085 37.7812 16.5938V23.6387C37.7812 24.8569 36.2163 25.3555 35.5116 24.3617Z" fill="url(#paint26_linear_637_22388)"/>
<path d="M35.5116 24.3617L28.2116 14.0668C27.6246 13.239 28.2165 12.0938 29.2312 12.0938H33.2812C35.7665 12.0938 37.7812 14.1085 37.7812 16.5938V23.6387C37.7812 24.8569 36.2163 25.3555 35.5116 24.3617Z" fill="url(#paint27_linear_637_22388)"/>
<path d="M35.5116 24.3617L28.2116 14.0668C27.6246 13.239 28.2165 12.0938 29.2312 12.0938H33.2812C35.7665 12.0938 37.7812 14.1085 37.7812 16.5938V23.6387C37.7812 24.8569 36.2163 25.3555 35.5116 24.3617Z" fill="url(#paint28_linear_637_22388)"/>
<path d="M35.5116 24.3617L28.2116 14.0668C27.6246 13.239 28.2165 12.0938 29.2312 12.0938H33.2812C35.7665 12.0938 37.7812 14.1085 37.7812 16.5938V23.6387C37.7812 24.8569 36.2163 25.3555 35.5116 24.3617Z" fill="url(#paint29_radial_637_22388)"/>
<g filter="url(#filter5_f_637_22388)">
<rect x="19.7615" y="20.2285" width="1.47696" height="2.97717" rx="0.738478" fill="#DC9868"/>
</g>
<rect x="20.2267" y="20.0098" width="1.47696" height="2.97717" rx="0.738478" fill="url(#paint30_linear_637_22388)"/>
<rect x="20.2267" y="20.0098" width="1.47696" height="2.97717" rx="0.738478" fill="url(#paint31_linear_637_22388)"/>
<g filter="url(#filter6_f_637_22388)">
<path d="M21.2209 20.4634V22.0566" stroke="#725F62" stroke-width="0.2" stroke-linecap="round"/>
</g>
<rect x="26.2111" y="20.0098" width="1.47696" height="2.97717" rx="0.738478" fill="url(#paint32_linear_637_22388)"/>
<rect x="26.2111" y="20.0098" width="1.47696" height="2.97717" rx="0.738478" fill="url(#paint33_linear_637_22388)"/>
<g filter="url(#filter7_f_637_22388)">
<path d="M27.2053 20.4634V22.0566" stroke="#725F62" stroke-width="0.2" stroke-linecap="round"/>
</g>
<path d="M24.9697 24.9984H23.063C22.3862 24.9984 22.0152 25.7867 22.4465 26.3083L23.1213 27.1242C23.6154 27.7216 24.5379 27.7008 25.0044 27.0816L25.6086 26.2799C26.0058 25.7527 25.6297 24.9984 24.9697 24.9984Z" fill="url(#paint34_linear_637_22388)"/>
<path d="M24.9697 24.9984H23.063C22.3862 24.9984 22.0152 25.7867 22.4465 26.3083L23.1213 27.1242C23.6154 27.7216 24.5379 27.7008 25.0044 27.0816L25.6086 26.2799C26.0058 25.7527 25.6297 24.9984 24.9697 24.9984Z" fill="url(#paint35_radial_637_22388)"/>
<path d="M24.9697 24.9984H23.063C22.3862 24.9984 22.0152 25.7867 22.4465 26.3083L23.1213 27.1242C23.6154 27.7216 24.5379 27.7008 25.0044 27.0816L25.6086 26.2799C26.0058 25.7527 25.6297 24.9984 24.9697 24.9984Z" fill="url(#paint36_linear_637_22388)"/>
<g filter="url(#filter8_f_637_22388)">
<ellipse cx="25.1118" cy="25.6468" rx="0.215947" ry="0.370376" transform="rotate(-41.9976 25.1118 25.6468)" fill="#786366"/>
</g>
<g filter="url(#filter9_f_637_22388)">
<path d="M36.875 15.2875V23.5375" stroke="url(#paint37_linear_637_22388)" stroke-width="0.2"/>
</g>
<g filter="url(#filter10_f_637_22388)">
<path d="M19.2812 13.475L15.7031 18.6312" stroke="url(#paint38_linear_637_22388)" stroke-width="0.2"/>
</g>
<defs>
<filter id="filter0_f_637_22388" x="30.1875" y="15.8187" width="7.21875" height="18.1562" filterUnits="userSpaceOnUse" color-interpolation-filters="sRGB">
<feFlood flood-opacity="0" result="BackgroundImageFix"/>
<feBlend mode="normal" in="SourceGraphic" in2="BackgroundImageFix" result="shape"/>
<feGaussianBlur stdDeviation="1.25" result="effect1_foregroundBlur_637_22388"/>
</filter>
<filter id="filter1_f_637_22388" x="25.3457" y="11.7214" width="11.8552" height="19.7535" filterUnits="userSpaceOnUse" color-interpolation-filters="sRGB">
<feFlood flood-opacity="0" result="BackgroundImageFix"/>
<feBlend mode="normal" in="SourceGraphic" in2="BackgroundImageFix" result="shape"/>
<feGaussianBlur stdDeviation="1" result="effect1_foregroundBlur_637_22388"/>
</filter>
<filter id="filter2_i_637_22388" x="20.9609" y="29.9062" width="6.01562" height="8.09375" filterUnits="userSpaceOnUse" color-interpolation-filters="sRGB">
<feFlood flood-opacity="0" result="BackgroundImageFix"/>
<feBlend mode="normal" in="SourceGraphic" in2="BackgroundImageFix" result="shape"/>
<feColorMatrix in="SourceAlpha" type="matrix" values="0 0 0 0 0 0 0 0 0 0 0 0 0 0 0 0 0 0 127 0" result="hardAlpha"/>
<feOffset dy="-0.5"/>
<feGaussianBlur stdDeviation="0.25"/>
<feComposite in2="hardAlpha" operator="arithmetic" k2="-1" k3="1"/>
<feColorMatrix type="matrix" values="0 0 0 0 0.841667 0 0 0 0 0.164826 0 0 0 0 0.552771 0 0 0 1 0"/>
<feBlend mode="normal" in2="shape" result="effect1_innerShadow_637_22388"/>
</filter>
<filter id="filter3_f_637_22388" x="23.1937" y="30.0062" width="4.01875" height="8.22188" filterUnits="userSpaceOnUse" color-interpolation-filters="sRGB">
<feFlood flood-opacity="0" result="BackgroundImageFix"/>
<feBlend mode="normal" in="SourceGraphic" in2="BackgroundImageFix" result="shape"/>
<feGaussianBlur stdDeviation="0.2" result="effect1_foregroundBlur_637_22388"/>
</filter>
<filter id="filter4_f_637_22388" x="20.8633" y="29.9062" width="6.21094" height="3.70508" filterUnits="userSpaceOnUse" color-interpolation-filters="sRGB">
<feFlood flood-opacity="0" result="BackgroundImageFix"/>
<feBlend mode="normal" in="SourceGraphic" in2="BackgroundImageFix" result="shape"/>
<feGaussianBlur stdDeviation="0.25" result="effect1_foregroundBlur_637_22388"/>
</filter>
<filter id="filter5_f_637_22388" x="18.9615" y="19.4285" width="3.07693" height="4.57717" filterUnits="userSpaceOnUse" color-interpolation-filters="sRGB">
<feFlood flood-opacity="0" result="BackgroundImageFix"/>
<feBlend mode="normal" in="SourceGraphic" in2="BackgroundImageFix" result="shape"/>
<feGaussianBlur stdDeviation="0.4" result="effect1_foregroundBlur_637_22388"/>
</filter>
<filter id="filter6_f_637_22388" x="20.821" y="20.0634" width="0.799951" height="2.39321" filterUnits="userSpaceOnUse" color-interpolation-filters="sRGB">
<feFlood flood-opacity="0" result="BackgroundImageFix"/>
<feBlend mode="normal" in="SourceGraphic" in2="BackgroundImageFix" result="shape"/>
<feGaussianBlur stdDeviation="0.15" result="effect1_foregroundBlur_637_22388"/>
</filter>
<filter id="filter7_f_637_22388" x="26.8053" y="20.0634" width="0.799951" height="2.39321" filterUnits="userSpaceOnUse" color-interpolation-filters="sRGB">
<feFlood flood-opacity="0" result="BackgroundImageFix"/>
<feBlend mode="normal" in="SourceGraphic" in2="BackgroundImageFix" result="shape"/>
<feGaussianBlur stdDeviation="0.15" result="effect1_foregroundBlur_637_22388"/>
</filter>
<filter id="filter8_f_637_22388" x="24.3165" y="24.8358" width="1.59058" height="1.62183" filterUnits="userSpaceOnUse" color-interpolation-filters="sRGB">
<feFlood flood-opacity="0" result="BackgroundImageFix"/>
<feBlend mode="normal" in="SourceGraphic" in2="BackgroundImageFix" result="shape"/>
<feGaussianBlur stdDeviation="0.25" result="effect1_foregroundBlur_637_22388"/>
</filter>
<filter id="filter9_f_637_22388" x="36.025" y="14.5375" width="1.69995" height="9.75" filterUnits="userSpaceOnUse" color-interpolation-filters="sRGB">
<feFlood flood-opacity="0" result="BackgroundImageFix"/>
<feBlend mode="normal" in="SourceGraphic" in2="BackgroundImageFix" result="shape"/>
<feGaussianBlur stdDeviation="0.375" result="effect1_foregroundBlur_637_22388"/>
</filter>
<filter id="filter10_f_637_22388" x="15.121" y="12.918" width="4.74243" height="6.27026" filterUnits="userSpaceOnUse" color-interpolation-filters="sRGB">
<feFlood flood-opacity="0" result="BackgroundImageFix"/>
<feBlend mode="normal" in="SourceGraphic" in2="BackgroundImageFix" result="shape"/>
<feGaussianBlur stdDeviation="0.25" result="effect1_foregroundBlur_637_22388"/>
</filter>
<linearGradient id="paint0_linear_637_22388" x1="23.9687" y1="14.0374" x2="23.9687" y2="39.4434" gradientUnits="userSpaceOnUse">
<stop stop-color="#F7C5A1"/>
<stop offset="1" stop-color="#E28454"/>
</linearGradient>
<linearGradient id="paint1_linear_637_22388" x1="10.8437" y1="35" x2="15.6563" y2="35" gradientUnits="userSpaceOnUse">
<stop stop-color="#BD8465"/>
<stop offset="1" stop-color="#BD8465" stop-opacity="0"/>
</linearGradient>
<linearGradient id="paint2_linear_637_22388" x1="39.7813" y1="35" x2="32.1562" y2="35" gradientUnits="userSpaceOnUse">
<stop stop-color="#FFC390"/>
<stop offset="1" stop-color="#FFC390" stop-opacity="0"/>
</linearGradient>
<linearGradient id="paint3_linear_637_22388" x1="23.9688" y1="29.2874" x2="23.9688" y2="39.4749" gradientUnits="userSpaceOnUse">
<stop stop-color="#89254F" stop-opacity="0"/>
<stop offset="1" stop-color="#98335E"/>
</linearGradient>
<linearGradient id="paint4_linear_637_22388" x1="23.9687" y1="34.5374" x2="23.9687" y2="35.3187" gradientUnits="userSpaceOnUse">
<stop stop-color="#E273A2" stop-opacity="0"/>
<stop offset="1" stop-color="#E273A2"/>
</linearGradient>
<radialGradient id="paint5_radial_637_22388" cx="0" cy="0" r="1" gradientUnits="userSpaceOnUse" gradientTransform="translate(10.0313 20.1624) rotate(76.0717) scale(8.04916 7.19335)">
<stop stop-color="#BD8465"/>
<stop offset="1" stop-color="#BD8465" stop-opacity="0"/>
</radialGradient>
<radialGradient id="paint6_radial_637_22388" cx="0" cy="0" r="1" gradientUnits="userSpaceOnUse" gradientTransform="translate(23.9687 31.0374) rotate(180) scale(10.8125 8.28742)">
<stop stop-color="#AD5C30"/>
<stop offset="1" stop-color="#AD5C30" stop-opacity="0"/>
</radialGradient>
<radialGradient id="paint7_radial_637_22388" cx="0" cy="0" r="1" gradientUnits="userSpaceOnUse" gradientTransform="translate(22.8437 32.6624) rotate(87.7454) scale(7.94365 6.9459)">
<stop stop-color="#AD5C30"/>
<stop offset="1" stop-color="#AD5C30" stop-opacity="0"/>
</radialGradient>
<radialGradient id="paint8_radial_637_22388" cx="0" cy="0" r="1" gradientUnits="userSpaceOnUse" gradientTransform="translate(20.4687 13) rotate(70.7479) scale(8.1942 18.8165)">
<stop stop-color="#FFD6B3"/>
<stop offset="1" stop-color="#FFC390" stop-opacity="0"/>
</radialGradient>
<linearGradient id="paint9_linear_637_22388" x1="23.1706" y1="11.7334" x2="23.1706" y2="14.415" gradientUnits="userSpaceOnUse">
<stop stop-color="#FFE0C6"/>
<stop offset="1" stop-color="#FFC390" stop-opacity="0"/>
</linearGradient>
<linearGradient id="paint10_linear_637_22388" x1="35.375" y1="29.7228" x2="35.7751" y2="12.7449" gradientUnits="userSpaceOnUse">
<stop stop-color="#FFC390"/>
<stop offset="1" stop-color="#FFC390" stop-opacity="0"/>
</linearGradient>
<radialGradient id="paint11_radial_637_22388" cx="0" cy="0" r="1" gradientUnits="userSpaceOnUse" gradientTransform="translate(24 26.5374) rotate(90) scale(11.625 24.0312)">
<stop stop-color="#FFE3B6"/>
<stop offset="0.317708" stop-color="#F5C19B"/>
<stop offset="0.895833" stop-color="#BE625B"/>
</radialGradient>
<radialGradient id="paint12_radial_637_22388" cx="0" cy="0" r="1" gradientUnits="userSpaceOnUse" gradientTransform="translate(26.4687 27.9749) rotate(140.599) scale(13.5883 13.9042)">
<stop offset="0.595075" stop-color="#BE625B" stop-opacity="0"/>
<stop offset="1" stop-color="#BE625B"/>
</radialGradient>
<radialGradient id="paint13_radial_637_22388" cx="0" cy="0" r="1" gradientUnits="userSpaceOnUse" gradientTransform="translate(31.0937 24.9749) rotate(125.776) scale(5.23845 6.83497)">
<stop stop-color="#FFE9BE"/>
<stop offset="1" stop-color="#FFE9BE" stop-opacity="0"/>
</radialGradient>
<linearGradient id="paint14_linear_637_22388" x1="22.2187" y1="29.2249" x2="22.2187" y2="36.4124" gradientUnits="userSpaceOnUse">
<stop stop-color="#B41D4E"/>
<stop offset="1" stop-color="#C9297C"/>
</linearGradient>
<linearGradient id="paint15_linear_637_22388" x1="28.2534" y1="37.5937" x2="23.5942" y2="37.693" gradientUnits="userSpaceOnUse">
<stop offset="0.4375" stop-color="#F26D9E"/>
<stop offset="0.947917" stop-color="#EF6A9A" stop-opacity="0"/>
</linearGradient>
<radialGradient id="paint16_radial_637_22388" cx="0" cy="0" r="1" gradientUnits="userSpaceOnUse" gradientTransform="translate(22.2344 30.7562) rotate(48.0128) scale(1.6817 3.82046)">
<stop stop-color="#261317"/>
<stop offset="0.652642" stop-color="#65484A"/>
<stop offset="1" stop-color="#3C1534"/>
</radialGradient>
<linearGradient id="paint17_linear_637_22388" x1="20.5" y1="32.2562" x2="22.345" y2="31.8379" gradientUnits="userSpaceOnUse">
<stop stop-color="#4A3435"/>
<stop offset="1" stop-color="#473132" stop-opacity="0"/>
</linearGradient>
<radialGradient id="paint18_radial_637_22388" cx="0" cy="0" r="1" gradientUnits="userSpaceOnUse" gradientTransform="translate(25.836 30.5921) rotate(132.556) scale(1.81361 4.34755)">
<stop stop-color="#261317"/>
<stop offset="0.507886" stop-color="#65484A"/>
<stop offset="0.901577" stop-color="#3C1534"/>
</radialGradient>
<linearGradient id="paint19_linear_637_22388" x1="24.1563" y1="27.5218" x2="24.5957" y2="29.1244" gradientUnits="userSpaceOnUse">
<stop stop-color="#65484A"/>
<stop offset="1" stop-color="#65484A" stop-opacity="0"/>
</linearGradient>
<radialGradient id="paint20_radial_637_22388" cx="0" cy="0" r="1" gradientUnits="userSpaceOnUse" gradientTransform="translate(22.75 29.1781) rotate(133.995) scale(3.77918 1.8994)">
<stop stop-color="#392930"/>
<stop offset="1" stop-color="#392930" stop-opacity="0"/>
</radialGradient>
<linearGradient id="paint21_linear_637_22388" x1="15.6094" y1="12.0938" x2="10.8125" y2="23.5999" gradientUnits="userSpaceOnUse">
<stop stop-color="#9F6C5B"/>
<stop offset="1" stop-color="#683C44"/>
</linearGradient>
<linearGradient id="paint22_linear_637_22388" x1="8.71875" y1="19.3499" x2="12.4062" y2="19.3499" gradientUnits="userSpaceOnUse">
<stop stop-color="#5F333B"/>
<stop offset="1" stop-color="#683C44" stop-opacity="0"/>
</linearGradient>
<linearGradient id="paint23_linear_637_22388" x1="15.9687" y1="20.5374" x2="14.875" y2="19.6937" gradientUnits="userSpaceOnUse">
<stop offset="0.208291" stop-color="#5F333B"/>
<stop offset="1" stop-color="#683C44" stop-opacity="0"/>
</linearGradient>
<linearGradient id="paint24_linear_637_22388" x1="11.75" y1="26.3499" x2="13.0625" y2="20.6624" gradientUnits="userSpaceOnUse">
<stop stop-color="#50212A"/>
<stop offset="1" stop-color="#683C44" stop-opacity="0"/>
</linearGradient>
<radialGradient id="paint25_radial_637_22388" cx="0" cy="0" r="1" gradientUnits="userSpaceOnUse" gradientTransform="translate(19.2187 8.97494) rotate(125.218) scale(9.10379 9.64599)">
<stop stop-color="#BF867C"/>
<stop offset="1" stop-color="#BF867C" stop-opacity="0"/>
</radialGradient>
<linearGradient id="paint26_linear_637_22388" x1="32.2969" y1="12.0938" x2="37.0938" y2="23.5999" gradientUnits="userSpaceOnUse">
<stop stop-color="#9F6C5B"/>
<stop offset="1" stop-color="#683C44"/>
</linearGradient>
<linearGradient id="paint27_linear_637_22388" x1="30.7188" y1="21.5374" x2="33.9688" y2="19.3499" gradientUnits="userSpaceOnUse">
<stop stop-color="#5F333B"/>
<stop offset="1" stop-color="#683C44" stop-opacity="0"/>
</linearGradient>
<linearGradient id="paint28_linear_637_22388" x1="36.1563" y1="26.3499" x2="34.8438" y2="20.6624" gradientUnits="userSpaceOnUse">
<stop stop-color="#50212A"/>
<stop offset="1" stop-color="#683C44" stop-opacity="0"/>
</linearGradient>
<radialGradient id="paint29_radial_637_22388" cx="0" cy="0" r="1" gradientUnits="userSpaceOnUse" gradientTransform="translate(40.9687 18.6624) rotate(-173.904) scale(6.47411 6.85969)">
<stop stop-color="#BF867C"/>
<stop offset="1" stop-color="#BF867C" stop-opacity="0"/>
</radialGradient>
<linearGradient id="paint30_linear_637_22388" x1="22.2019" y1="21.4984" x2="19.9954" y2="21.4984" gradientUnits="userSpaceOnUse">
<stop offset="0.00558659" stop-color="#5F5254"/>
<stop offset="1" stop-color="#2E2127"/>
</linearGradient>
<linearGradient id="paint31_linear_637_22388" x1="19.9954" y1="23.0916" x2="19.9954" y2="22.2543" gradientUnits="userSpaceOnUse">
<stop offset="0.00558659" stop-color="#34222C"/>
<stop offset="1" stop-color="#34222C" stop-opacity="0"/>
</linearGradient>
<linearGradient id="paint32_linear_637_22388" x1="28.1863" y1="21.4984" x2="25.9797" y2="21.4984" gradientUnits="userSpaceOnUse">
<stop offset="0.00558659" stop-color="#5F5254"/>
<stop offset="1" stop-color="#2E2127"/>
</linearGradient>
<linearGradient id="paint33_linear_637_22388" x1="25.9797" y1="23.0916" x2="25.9797" y2="22.2543" gradientUnits="userSpaceOnUse">
<stop offset="0.00558659" stop-color="#34222C"/>
<stop offset="1" stop-color="#34222C" stop-opacity="0"/>
</linearGradient>
<linearGradient id="paint34_linear_637_22388" x1="25.4063" y1="24.725" x2="22.4688" y2="27.6625" gradientUnits="userSpaceOnUse">
<stop offset="0.191489" stop-color="#5F5254"/>
<stop offset="1" stop-color="#2E2127"/>
</linearGradient>
<radialGradient id="paint35_radial_637_22388" cx="0" cy="0" r="1" gradientUnits="userSpaceOnUse" gradientTransform="translate(24.3438 25.6312) rotate(135.864) scale(2.19891 4.04729)">
<stop offset="0.462647" stop-color="#34222C" stop-opacity="0"/>
<stop offset="0.955607" stop-color="#34222C"/>
</radialGradient>
<linearGradient id="paint36_linear_637_22388" x1="24.375" y1="26.1469" x2="24.375" y2="24.4281" gradientUnits="userSpaceOnUse">
<stop offset="0.146552" stop-color="#34222C" stop-opacity="0"/>
<stop offset="0.872727" stop-color="#34222C"/>
</linearGradient>
<linearGradient id="paint37_linear_637_22388" x1="38.75" y1="16.8812" x2="38.75" y2="24.3812" gradientUnits="userSpaceOnUse">
<stop stop-color="#B3887F"/>
<stop offset="1" stop-color="#B3887F" stop-opacity="0"/>
</linearGradient>
<linearGradient id="paint38_linear_637_22388" x1="19.2656" y1="14.4594" x2="15.3906" y2="20.2094" gradientUnits="userSpaceOnUse">
<stop stop-color="#D3B4AE"/>
<stop offset="1" stop-color="#D3B4AE" stop-opacity="0"/>
</linearGradient>
</defs>
</svg>
