<svg width="48" height="48" viewBox="0 0 48 48" fill="none" xmlns="http://www.w3.org/2000/svg">
<rect width="48" height="48" rx="24" fill="#F2F5FF"/>
<path d="M14.5156 30.4238C17.5446 30.4238 20 28.0069 20 25.0254C20 22.0439 17.5446 19.627 14.5156 19.627C11.4866 19.627 9.03113 22.0439 9.03113 25.0254C9.03113 28.0069 11.4866 30.4238 14.5156 30.4238Z" fill="url(#paint0_linear_637_22381)"/>
<path d="M14.5156 30.4238C17.5446 30.4238 20 28.0069 20 25.0254C20 22.0439 17.5446 19.627 14.5156 19.627C11.4866 19.627 9.03113 22.0439 9.03113 25.0254C9.03113 28.0069 11.4866 30.4238 14.5156 30.4238Z" fill="url(#paint1_linear_637_22381)"/>
<path d="M14.5156 30.4238C17.5446 30.4238 20 28.0069 20 25.0254C20 22.0439 17.5446 19.627 14.5156 19.627C11.4866 19.627 9.03113 22.0439 9.03113 25.0254C9.03113 28.0069 11.4866 30.4238 14.5156 30.4238Z" fill="url(#paint2_radial_637_22381)" fill-opacity="0.5"/>
<path d="M33.4329 30.4238C36.4619 30.4238 38.9174 28.0069 38.9174 25.0254C38.9174 22.0439 36.4619 19.627 33.4329 19.627C30.404 19.627 27.9485 22.0439 27.9485 25.0254C27.9485 28.0069 30.404 30.4238 33.4329 30.4238Z" fill="url(#paint3_linear_637_22381)"/>
<g filter="url(#filter0_f_637_22381)">
<path d="M34.8369 20.3984C35.8162 20.5459 37.7109 21.8359 38.13 23.9082C38.6144 25.6895 37.9581 27.9707 36.4581 28.8614" stroke="url(#paint4_radial_637_22381)" stroke-opacity="0.8" stroke-width="0.5" stroke-linecap="round"/>
</g>
<path d="M24 37.3721C31.9663 37.3721 35.9471 32.0231 35.9471 25.4249C35.9471 18.8267 31.9663 13.4778 24 13.4778C16.0336 13.4778 12.0529 18.8267 12.0529 25.4249C12.0529 32.0231 16.0336 37.3721 24 37.3721Z" fill="url(#paint5_radial_637_22381)"/>
<path d="M24 37.3721C31.9663 37.3721 35.9471 32.0231 35.9471 25.4249C35.9471 18.8267 31.9663 13.4778 24 13.4778C16.0336 13.4778 12.0529 18.8267 12.0529 25.4249C12.0529 32.0231 16.0336 37.3721 24 37.3721Z" fill="url(#paint6_linear_637_22381)"/>
<path d="M24 37.3721C31.9663 37.3721 35.9471 32.0231 35.9471 25.4249C35.9471 18.8267 31.9663 13.4778 24 13.4778C16.0336 13.4778 12.0529 18.8267 12.0529 25.4249C12.0529 32.0231 16.0336 37.3721 24 37.3721Z" fill="url(#paint7_radial_637_22381)"/>
<path d="M24 37.3721C31.9663 37.3721 35.9471 32.0231 35.9471 25.4249C35.9471 18.8267 31.9663 13.4778 24 13.4778C16.0336 13.4778 12.0529 18.8267 12.0529 25.4249C12.0529 32.0231 16.0336 37.3721 24 37.3721Z" fill="url(#paint8_radial_637_22381)"/>
<g filter="url(#filter1_f_637_22381)">
<ellipse cx="31.4176" cy="20.9398" rx="1.84881" ry="4.33309" transform="rotate(-23.3995 31.4176 20.9398)" fill="#C58E7D"/>
</g>
<g filter="url(#filter2_f_637_22381)">
<ellipse cx="23.7734" cy="14.9707" rx="0.386034" ry="3.0636" transform="rotate(-90 23.7734 14.9707)" fill="#C58E7D"/>
</g>
<g filter="url(#filter3_f_637_22381)">
<path d="M19.8773 17.1484C17.2488 17.1484 15.1179 19.2793 15.1179 21.9078C15.1179 23.0687 15.5336 24.1326 16.2241 24.9586C16.3304 25.0858 16.3765 25.2536 16.3457 25.4165C16.2599 25.8692 16.2151 26.3364 16.2151 26.814C16.2151 30.936 19.5566 34.2776 23.6786 34.2776C27.8007 34.2776 31.1422 30.936 31.1422 26.814C31.1422 26.3364 31.0973 25.8692 31.0116 25.4165C30.9807 25.2536 31.0268 25.0858 31.1331 24.9586C31.8237 24.1326 32.2393 23.0687 32.2393 21.9078C32.2393 19.2793 30.1085 17.1484 27.48 17.1484H19.8773Z" fill="#561E25"/>
</g>
<path d="M20.1562 16.9006C17.4984 16.9006 15.3438 19.0553 15.3438 21.7131C15.3438 22.8881 15.7648 23.9646 16.4642 24.8002C16.5706 24.9273 16.6167 25.0952 16.5858 25.258C16.4987 25.7167 16.4531 26.1901 16.4531 26.6741C16.4531 30.8421 19.832 34.2209 24 34.2209C28.168 34.2209 31.5469 30.8421 31.5469 26.6741C31.5469 26.1901 31.5013 25.7167 31.4142 25.258C31.3833 25.0952 31.4294 24.9273 31.5358 24.8002C32.2352 23.9646 32.6562 22.8881 32.6562 21.7131C32.6562 19.0553 30.5016 16.9006 27.8438 16.9006H20.1562Z" fill="url(#paint9_linear_637_22381)"/>
<path d="M20.1562 16.9006C17.4984 16.9006 15.3438 19.0553 15.3438 21.7131C15.3438 22.8881 15.7648 23.9646 16.4642 24.8002C16.5706 24.9273 16.6167 25.0952 16.5858 25.258C16.4987 25.7167 16.4531 26.1901 16.4531 26.6741C16.4531 30.8421 19.832 34.2209 24 34.2209C28.168 34.2209 31.5469 30.8421 31.5469 26.6741C31.5469 26.1901 31.5013 25.7167 31.4142 25.258C31.3833 25.0952 31.4294 24.9273 31.5358 24.8002C32.2352 23.9646 32.6562 22.8881 32.6562 21.7131C32.6562 19.0553 30.5016 16.9006 27.8438 16.9006H20.1562Z" fill="url(#paint10_radial_637_22381)"/>
<path d="M20.1562 16.9006C17.4984 16.9006 15.3438 19.0553 15.3438 21.7131C15.3438 22.8881 15.7648 23.9646 16.4642 24.8002C16.5706 24.9273 16.6167 25.0952 16.5858 25.258C16.4987 25.7167 16.4531 26.1901 16.4531 26.6741C16.4531 30.8421 19.832 34.2209 24 34.2209C28.168 34.2209 31.5469 30.8421 31.5469 26.6741C31.5469 26.1901 31.5013 25.7167 31.4142 25.258C31.3833 25.0952 31.4294 24.9273 31.5358 24.8002C32.2352 23.9646 32.6562 22.8881 32.6562 21.7131C32.6562 19.0553 30.5016 16.9006 27.8438 16.9006H20.1562Z" fill="url(#paint11_radial_637_22381)"/>
<g filter="url(#filter4_f_637_22381)">
<path d="M13.7101 18.8251C12.1174 22.7545 12.2987 28.5069 14.0409 30.9549" stroke="url(#paint12_linear_637_22381)" stroke-opacity="0.4" stroke-width="0.8" stroke-linecap="round"/>
</g>
<g filter="url(#filter5_f_637_22381)">
<path d="M34.9201 20.9551C35.7501 24.2348 35.6702 28.5176 34.1702 30.9551" stroke="url(#paint13_linear_637_22381)" stroke-opacity="0.5" stroke-width="0.4" stroke-linecap="round"/>
</g>
<g filter="url(#filter6_f_637_22381)">
<path d="M29.4197 17.5156C30.7163 18.025 33.1095 20.0107 31.9148 23.4005" stroke="url(#paint14_linear_637_22381)" stroke-width="0.4" stroke-linecap="round"/>
</g>
<g filter="url(#filter7_f_637_22381)">
<path d="M31.0134 25.26C31.5134 28.1975 30.4197 30.385 29.4197 31.2913" stroke="url(#paint15_linear_637_22381)" stroke-width="0.1" stroke-linecap="round"/>
</g>
<path d="M20.0062 28.4058C20.0062 30.7015 21.6545 32.4113 24 32.4113C26.5229 32.4113 27.9938 30.6295 27.9938 28.4058H20.0062Z" fill="url(#paint16_radial_637_22381)"/>
<g filter="url(#filter8_f_637_22381)">
<rect x="19.6807" y="21.5413" width="1.625" height="3.25" rx="0.8125" fill="#BB6F89" fill-opacity="0.6"/>
</g>
<g filter="url(#filter9_f_637_22381)">
<rect x="25.8573" y="21.5413" width="1.625" height="3.25" rx="0.8125" fill="#BB6F89" fill-opacity="0.6"/>
</g>
<rect x="20.2494" y="21.3862" width="1.50801" height="3.01601" rx="0.754003" fill="url(#paint17_linear_637_22381)"/>
<rect x="20.2494" y="21.3862" width="1.50801" height="3.01601" rx="0.754003" fill="url(#paint18_linear_637_22381)"/>
<rect x="26.2427" y="21.3862" width="1.50801" height="3.01601" rx="0.754003" fill="url(#paint19_linear_637_22381)"/>
<rect x="26.2427" y="21.3862" width="1.50801" height="3.01601" rx="0.754003" fill="url(#paint20_linear_637_22381)"/>
<g filter="url(#filter10_f_637_22381)">
<rect x="21.1016" y="24.7913" width="5.34375" height="2.41769" rx="1.11607" fill="#BB6F89"/>
</g>
<rect x="21.5547" y="24.3872" width="4.89062" height="2.23214" rx="1.11607" fill="url(#paint21_linear_637_22381)"/>
<rect x="21.5547" y="24.3872" width="4.89062" height="2.23214" rx="1.11607" fill="url(#paint22_linear_637_22381)"/>
<circle cx="22.5487" cy="25.9045" r="0.511719" fill="url(#paint23_radial_637_22381)"/>
<circle cx="25.3456" cy="25.9045" r="0.511719" fill="url(#paint24_radial_637_22381)"/>
<g filter="url(#filter11_f_637_22381)">
<path d="M25.2429 25.0021C25.5867 24.9318 26.0632 25.1896 26.1179 25.713" stroke="url(#paint25_linear_637_22381)" stroke-width="0.05"/>
</g>
<g filter="url(#filter12_f_637_22381)">
<circle cx="27.1986" cy="22.0142" r="0.283707" fill="#795D72"/>
</g>
<g filter="url(#filter13_f_637_22381)">
<circle cx="21.271" cy="22.1582" r="0.283707" fill="#795D72"/>
</g>
<defs>
<filter id="filter0_f_637_22381" x="34.1869" y="19.7484" width="4.75032" height="9.76301" filterUnits="userSpaceOnUse" color-interpolation-filters="sRGB">
<feFlood flood-opacity="0" result="BackgroundImageFix"/>
<feBlend mode="normal" in="SourceGraphic" in2="BackgroundImageFix" result="shape"/>
<feGaussianBlur stdDeviation="0.2" result="effect1_foregroundBlur_637_22381"/>
</filter>
<filter id="filter1_f_637_22381" x="25.501" y="13.3951" width="11.8333" height="15.0892" filterUnits="userSpaceOnUse" color-interpolation-filters="sRGB">
<feFlood flood-opacity="0" result="BackgroundImageFix"/>
<feBlend mode="normal" in="SourceGraphic" in2="BackgroundImageFix" result="shape"/>
<feGaussianBlur stdDeviation="1.75" result="effect1_foregroundBlur_637_22381"/>
</filter>
<filter id="filter2_f_637_22381" x="17.2098" y="11.0846" width="13.1272" height="7.77209" filterUnits="userSpaceOnUse" color-interpolation-filters="sRGB">
<feFlood flood-opacity="0" result="BackgroundImageFix"/>
<feBlend mode="normal" in="SourceGraphic" in2="BackgroundImageFix" result="shape"/>
<feGaussianBlur stdDeviation="1.75" result="effect1_foregroundBlur_637_22381"/>
</filter>
<filter id="filter3_f_637_22381" x="13.1179" y="15.1484" width="21.1215" height="21.1292" filterUnits="userSpaceOnUse" color-interpolation-filters="sRGB">
<feFlood flood-opacity="0" result="BackgroundImageFix"/>
<feBlend mode="normal" in="SourceGraphic" in2="BackgroundImageFix" result="shape"/>
<feGaussianBlur stdDeviation="1" result="effect1_foregroundBlur_637_22381"/>
</filter>
<filter id="filter4_f_637_22381" x="11.8175" y="18.0249" width="3.02339" height="13.7301" filterUnits="userSpaceOnUse" color-interpolation-filters="sRGB">
<feFlood flood-opacity="0" result="BackgroundImageFix"/>
<feBlend mode="normal" in="SourceGraphic" in2="BackgroundImageFix" result="shape"/>
<feGaussianBlur stdDeviation="0.2" result="effect1_foregroundBlur_637_22381"/>
</filter>
<filter id="filter5_f_637_22381" x="33.5701" y="20.355" width="2.47688" height="11.2001" filterUnits="userSpaceOnUse" color-interpolation-filters="sRGB">
<feFlood flood-opacity="0" result="BackgroundImageFix"/>
<feBlend mode="normal" in="SourceGraphic" in2="BackgroundImageFix" result="shape"/>
<feGaussianBlur stdDeviation="0.2" result="effect1_foregroundBlur_637_22381"/>
</filter>
<filter id="filter6_f_637_22381" x="28.8196" y="16.9156" width="4.01973" height="7.08491" filterUnits="userSpaceOnUse" color-interpolation-filters="sRGB">
<feFlood flood-opacity="0" result="BackgroundImageFix"/>
<feBlend mode="normal" in="SourceGraphic" in2="BackgroundImageFix" result="shape"/>
<feGaussianBlur stdDeviation="0.2" result="effect1_foregroundBlur_637_22381"/>
</filter>
<filter id="filter7_f_637_22381" x="28.9696" y="24.81" width="2.61897" height="6.93135" filterUnits="userSpaceOnUse" color-interpolation-filters="sRGB">
<feFlood flood-opacity="0" result="BackgroundImageFix"/>
<feBlend mode="normal" in="SourceGraphic" in2="BackgroundImageFix" result="shape"/>
<feGaussianBlur stdDeviation="0.2" result="effect1_foregroundBlur_637_22381"/>
</filter>
<filter id="filter8_f_637_22381" x="18.6807" y="20.5413" width="3.625" height="5.25" filterUnits="userSpaceOnUse" color-interpolation-filters="sRGB">
<feFlood flood-opacity="0" result="BackgroundImageFix"/>
<feBlend mode="normal" in="SourceGraphic" in2="BackgroundImageFix" result="shape"/>
<feGaussianBlur stdDeviation="0.5" result="effect1_foregroundBlur_637_22381"/>
</filter>
<filter id="filter9_f_637_22381" x="24.8573" y="20.5413" width="3.625" height="5.25" filterUnits="userSpaceOnUse" color-interpolation-filters="sRGB">
<feFlood flood-opacity="0" result="BackgroundImageFix"/>
<feBlend mode="normal" in="SourceGraphic" in2="BackgroundImageFix" result="shape"/>
<feGaussianBlur stdDeviation="0.5" result="effect1_foregroundBlur_637_22381"/>
</filter>
<filter id="filter10_f_637_22381" x="20.1016" y="23.7913" width="7.34375" height="4.41772" filterUnits="userSpaceOnUse" color-interpolation-filters="sRGB">
<feFlood flood-opacity="0" result="BackgroundImageFix"/>
<feBlend mode="normal" in="SourceGraphic" in2="BackgroundImageFix" result="shape"/>
<feGaussianBlur stdDeviation="0.5" result="effect1_foregroundBlur_637_22381"/>
</filter>
<filter id="filter11_f_637_22381" x="25.0379" y="24.7657" width="1.30491" height="1.14988" filterUnits="userSpaceOnUse" color-interpolation-filters="sRGB">
<feFlood flood-opacity="0" result="BackgroundImageFix"/>
<feBlend mode="normal" in="SourceGraphic" in2="BackgroundImageFix" result="shape"/>
<feGaussianBlur stdDeviation="0.1" result="effect1_foregroundBlur_637_22381"/>
</filter>
<filter id="filter12_f_637_22381" x="25.9149" y="20.7305" width="2.56738" height="2.56738" filterUnits="userSpaceOnUse" color-interpolation-filters="sRGB">
<feFlood flood-opacity="0" result="BackgroundImageFix"/>
<feBlend mode="normal" in="SourceGraphic" in2="BackgroundImageFix" result="shape"/>
<feGaussianBlur stdDeviation="0.5" result="effect1_foregroundBlur_637_22381"/>
</filter>
<filter id="filter13_f_637_22381" x="19.9873" y="20.8745" width="2.56738" height="2.56738" filterUnits="userSpaceOnUse" color-interpolation-filters="sRGB">
<feFlood flood-opacity="0" result="BackgroundImageFix"/>
<feBlend mode="normal" in="SourceGraphic" in2="BackgroundImageFix" result="shape"/>
<feGaussianBlur stdDeviation="0.5" result="effect1_foregroundBlur_637_22381"/>
</filter>
<linearGradient id="paint0_linear_637_22381" x1="14.5156" y1="21.2051" x2="14.5156" y2="32.1426" gradientUnits="userSpaceOnUse">
<stop stop-color="#A67874"/>
<stop offset="1" stop-color="#8F5872"/>
</linearGradient>
<linearGradient id="paint1_linear_637_22381" x1="14.5156" y1="24.4551" x2="14.5156" y2="32.6426" gradientUnits="userSpaceOnUse">
<stop stop-color="#B56595" stop-opacity="0"/>
<stop offset="1" stop-color="#CA6FA6"/>
</linearGradient>
<radialGradient id="paint2_radial_637_22381" cx="0" cy="0" r="1" gradientUnits="userSpaceOnUse" gradientTransform="translate(18.3847 31.0801) rotate(-135.32) scale(15.8218 18.8849)">
<stop offset="0.631933" stop-color="#F39585" stop-opacity="0"/>
<stop offset="1" stop-color="#F39585"/>
</radialGradient>
<linearGradient id="paint3_linear_637_22381" x1="33.4329" y1="22.3926" x2="33.4329" y2="32.6426" gradientUnits="userSpaceOnUse">
<stop offset="0.09375" stop-color="#FAB8A9"/>
<stop offset="1" stop-color="#B56595"/>
</linearGradient>
<radialGradient id="paint4_radial_637_22381" cx="0" cy="0" r="1" gradientUnits="userSpaceOnUse" gradientTransform="translate(37.0206 28.5489) rotate(-131.065) scale(8.37243 17.6373)">
<stop stop-color="#FFDACC" stop-opacity="0"/>
<stop offset="0.447917" stop-color="#FFDACC"/>
<stop offset="1" stop-color="#FFDACC" stop-opacity="0"/>
</radialGradient>
<radialGradient id="paint5_radial_637_22381" cx="0" cy="0" r="1" gradientUnits="userSpaceOnUse" gradientTransform="translate(32.2596 18.9551) rotate(120.705) scale(21.4199 37.9602)">
<stop stop-color="#A06857"/>
<stop offset="1" stop-color="#5B3838"/>
</radialGradient>
<linearGradient id="paint6_linear_637_22381" x1="24" y1="25.4249" x2="24" y2="42.2823" gradientUnits="userSpaceOnUse">
<stop stop-color="#682B5B" stop-opacity="0"/>
<stop offset="1" stop-color="#682B5B"/>
</linearGradient>
<radialGradient id="paint7_radial_637_22381" cx="0" cy="0" r="1" gradientUnits="userSpaceOnUse" gradientTransform="translate(24.0009 22.4389) rotate(90) scale(20.6725 18.4611)">
<stop offset="0.688473" stop-color="#FF7AF2" stop-opacity="0"/>
<stop offset="1" stop-color="#FFBCE6"/>
</radialGradient>
<radialGradient id="paint8_radial_637_22381" cx="0" cy="0" r="1" gradientUnits="userSpaceOnUse" gradientTransform="translate(31.4924 17.7972) rotate(123.75) scale(19.0483)">
<stop stop-color="#A9705E"/>
<stop offset="1" stop-color="#A9705E" stop-opacity="0"/>
</radialGradient>
<linearGradient id="paint9_linear_637_22381" x1="24" y1="16.9006" x2="24" y2="34.9475" gradientUnits="userSpaceOnUse">
<stop stop-color="#FFC8BC"/>
<stop offset="0.188" stop-color="#FAB8A9"/>
<stop offset="0.895425" stop-color="#AC628E"/>
</linearGradient>
<radialGradient id="paint10_radial_637_22381" cx="0" cy="0" r="1" gradientUnits="userSpaceOnUse" gradientTransform="translate(33.3054 20.3225) rotate(159.382) scale(20.2335 27.146)">
<stop offset="0.817708" stop-color="#A55F89" stop-opacity="0"/>
<stop offset="1" stop-color="#A55F89"/>
</radialGradient>
<radialGradient id="paint11_radial_637_22381" cx="0" cy="0" r="1" gradientUnits="userSpaceOnUse" gradientTransform="translate(24.0007 23.3963) rotate(90.0031) scale(12.7039 10.8463)">
<stop offset="0.812621" stop-color="#EF5CF2" stop-opacity="0"/>
<stop offset="1" stop-color="#FF63C4"/>
</radialGradient>
<linearGradient id="paint12_linear_637_22381" x1="14.6465" y1="31.5835" x2="12.1837" y2="18.9142" gradientUnits="userSpaceOnUse">
<stop stop-color="#7C6160" stop-opacity="0"/>
<stop offset="0.502642" stop-color="#7C6160"/>
<stop offset="1" stop-color="#7C6160" stop-opacity="0"/>
</linearGradient>
<linearGradient id="paint13_linear_637_22381" x1="32.9784" y1="30.9551" x2="36.2693" y2="23.014" gradientUnits="userSpaceOnUse">
<stop stop-color="#BE8B89" stop-opacity="0"/>
<stop offset="0.295666" stop-color="#BE8B89" stop-opacity="0.6"/>
<stop offset="0.808331" stop-color="#BE8B89" stop-opacity="0"/>
</linearGradient>
<linearGradient id="paint14_linear_637_22381" x1="32.5281" y1="22.8318" x2="28.9161" y2="17.4138" gradientUnits="userSpaceOnUse">
<stop stop-color="#FFDACC" stop-opacity="0"/>
<stop offset="0.557292" stop-color="#FFDACC"/>
<stop offset="1" stop-color="#FFDACC" stop-opacity="0"/>
</linearGradient>
<linearGradient id="paint15_linear_637_22381" x1="30.7673" y1="30.709" x2="30.0867" y2="26.635" gradientUnits="userSpaceOnUse">
<stop offset="0.0255118" stop-color="#FFDACC" stop-opacity="0"/>
<stop offset="1" stop-color="#FFDACC"/>
</linearGradient>
<radialGradient id="paint16_radial_637_22381" cx="0" cy="0" r="1" gradientUnits="userSpaceOnUse" gradientTransform="translate(24.6533 33.2032) rotate(-90) scale(9.07087 17.6698)">
<stop stop-color="#EF0084"/>
<stop offset="0.547619" stop-color="#89029C"/>
</radialGradient>
<linearGradient id="paint17_linear_637_22381" x1="23.8514" y1="22.4792" x2="19.5055" y2="22.4792" gradientUnits="userSpaceOnUse">
<stop stop-color="#432A3D"/>
<stop offset="0.567708" stop-color="#684E61"/>
<stop offset="0.765625" stop-color="#43253D"/>
</linearGradient>
<linearGradient id="paint18_linear_637_22381" x1="21.3441" y1="22.3189" x2="21.3441" y2="24.6747" gradientUnits="userSpaceOnUse">
<stop offset="0.326531" stop-color="#43253D" stop-opacity="0"/>
<stop offset="1" stop-color="#43253D"/>
</linearGradient>
<linearGradient id="paint19_linear_637_22381" x1="29.8447" y1="22.4792" x2="25.4988" y2="22.4792" gradientUnits="userSpaceOnUse">
<stop stop-color="#432A3D"/>
<stop offset="0.567708" stop-color="#684E61"/>
<stop offset="0.765625" stop-color="#43253D"/>
</linearGradient>
<linearGradient id="paint20_linear_637_22381" x1="27.3374" y1="22.3189" x2="27.3374" y2="24.6747" gradientUnits="userSpaceOnUse">
<stop offset="0.326531" stop-color="#43253D" stop-opacity="0"/>
<stop offset="1" stop-color="#43253D"/>
</linearGradient>
<linearGradient id="paint21_linear_637_22381" x1="24" y1="24.3872" x2="24" y2="26.5256" gradientUnits="userSpaceOnUse">
<stop stop-color="#E9A4A2"/>
<stop offset="1" stop-color="#DC89A8"/>
</linearGradient>
<linearGradient id="paint22_linear_637_22381" x1="23.4929" y1="29.3225" x2="22.7528" y2="25.7073" gradientUnits="userSpaceOnUse">
<stop offset="0.0700389" stop-color="#C971B6"/>
<stop offset="1" stop-color="#DC90CC" stop-opacity="0"/>
</linearGradient>
<radialGradient id="paint23_radial_637_22381" cx="0" cy="0" r="1" gradientUnits="userSpaceOnUse" gradientTransform="translate(22.9044 25.544) rotate(133.174) scale(1.90311 1.14415)">
<stop stop-color="#3E2739"/>
<stop offset="1" stop-color="#684E61"/>
</radialGradient>
<radialGradient id="paint24_radial_637_22381" cx="0" cy="0" r="1" gradientUnits="userSpaceOnUse" gradientTransform="translate(25.6079 25.544) rotate(129.408) scale(1.21922 1.90769)">
<stop stop-color="#3C2737"/>
<stop offset="1" stop-color="#684E61"/>
</radialGradient>
<linearGradient id="paint25_linear_637_22381" x1="25.6804" y1="24.9907" x2="25.6804" y2="25.713" gradientUnits="userSpaceOnUse">
<stop stop-color="#FFDACC" stop-opacity="0"/>
<stop offset="0.348958" stop-color="#FFEBE3"/>
</linearGradient>
</defs>
</svg>
