<svg width="48" height="48" viewBox="0 0 48 48" fill="none" xmlns="http://www.w3.org/2000/svg">
<rect width="48" height="48" rx="24" fill="#F2F5FF"/>
<circle cx="15.8725" cy="14.8973" r="3.89729" fill="url(#paint0_radial_637_22377)"/>
<circle cx="32.0936" cy="14.8973" r="3.89729" fill="url(#paint1_radial_637_22377)"/>
<circle cx="32.0936" cy="14.8973" r="3.89729" fill="url(#paint2_radial_637_22377)"/>
<circle cx="32.0936" cy="14.8973" r="3.89729" fill="url(#paint3_radial_637_22377)" fill-opacity="0.5"/>
<circle cx="15.944" cy="14.9551" r="2.45312" fill="url(#paint4_radial_637_22377)"/>
<circle cx="15.944" cy="14.9551" r="2.45312" fill="url(#paint5_radial_637_22377)"/>
<circle cx="32.0277" cy="14.9551" r="2.45312" fill="url(#paint6_radial_637_22377)"/>
<circle cx="32.0277" cy="14.9551" r="2.45312" fill="url(#paint7_radial_637_22377)" fill-opacity="0.75"/>
<path d="M35.7408 20.4657L33.9608 18.3857C32.9908 17.1875 30.9542 14.4507 28.6408 13.2357C27.2508 12.5057 25.6708 12.0957 23.9908 12.0957C22.3108 12.0957 20.7308 12.5057 19.3408 13.2357C17.7721 13.9687 14.8346 17.4374 14.0108 18.3857L12.2408 20.4657C10.7908 22.1657 9.99084 24.3257 9.99084 26.5557V30.4057C9.99084 32.9957 12.0908 35.0957 14.6808 35.0957H33.3008C35.8908 35.0957 37.9908 32.9957 37.9908 30.4057V26.5557C37.9908 24.3257 37.1908 22.1657 35.7408 20.4657Z" fill="url(#paint8_radial_637_22377)"/>
<path d="M35.7408 20.4657L33.9608 18.3857C32.9908 17.1875 30.9542 14.4507 28.6408 13.2357C27.2508 12.5057 25.6708 12.0957 23.9908 12.0957C22.3108 12.0957 20.7308 12.5057 19.3408 13.2357C17.7721 13.9687 14.8346 17.4374 14.0108 18.3857L12.2408 20.4657C10.7908 22.1657 9.99084 24.3257 9.99084 26.5557V30.4057C9.99084 32.9957 12.0908 35.0957 14.6808 35.0957H33.3008C35.8908 35.0957 37.9908 32.9957 37.9908 30.4057V26.5557C37.9908 24.3257 37.1908 22.1657 35.7408 20.4657Z" fill="url(#paint9_linear_637_22377)"/>
<path d="M35.7408 20.4657L33.9608 18.3857C32.9908 17.1875 30.9542 14.4507 28.6408 13.2357C27.2508 12.5057 25.6708 12.0957 23.9908 12.0957C22.3108 12.0957 20.7308 12.5057 19.3408 13.2357C17.7721 13.9687 14.8346 17.4374 14.0108 18.3857L12.2408 20.4657C10.7908 22.1657 9.99084 24.3257 9.99084 26.5557V30.4057C9.99084 32.9957 12.0908 35.0957 14.6808 35.0957H33.3008C35.8908 35.0957 37.9908 32.9957 37.9908 30.4057V26.5557C37.9908 24.3257 37.1908 22.1657 35.7408 20.4657Z" fill="url(#paint10_radial_637_22377)"/>
<path d="M35.7408 20.4657L33.9608 18.3857C32.9908 17.1875 30.9542 14.4507 28.6408 13.2357C27.2508 12.5057 25.6708 12.0957 23.9908 12.0957C22.3108 12.0957 20.7308 12.5057 19.3408 13.2357C17.7721 13.9687 14.8346 17.4374 14.0108 18.3857L12.2408 20.4657C10.7908 22.1657 9.99084 24.3257 9.99084 26.5557V30.4057C9.99084 32.9957 12.0908 35.0957 14.6808 35.0957H33.3008C35.8908 35.0957 37.9908 32.9957 37.9908 30.4057V26.5557C37.9908 24.3257 37.1908 22.1657 35.7408 20.4657Z" fill="url(#paint11_linear_637_22377)"/>
<path d="M35.7408 20.4657L33.9608 18.3857C32.9908 17.1875 30.9542 14.4507 28.6408 13.2357C27.2508 12.5057 25.6708 12.0957 23.9908 12.0957C22.3108 12.0957 20.7308 12.5057 19.3408 13.2357C17.7721 13.9687 14.8346 17.4374 14.0108 18.3857L12.2408 20.4657C10.7908 22.1657 9.99084 24.3257 9.99084 26.5557V30.4057C9.99084 32.9957 12.0908 35.0957 14.6808 35.0957H33.3008C35.8908 35.0957 37.9908 32.9957 37.9908 30.4057V26.5557C37.9908 24.3257 37.1908 22.1657 35.7408 20.4657Z" fill="url(#paint12_linear_637_22377)"/>
<path d="M23.9908 38.002C20.1208 38.002 16.9908 34.872 16.9908 31.002V29.002H30.9908V31.002C30.9908 34.872 27.8608 38.002 23.9908 38.002Z" fill="url(#paint13_radial_637_22377)"/>
<path d="M23.9908 38.002C20.1208 38.002 16.9908 34.872 16.9908 31.002V29.002H30.9908V31.002C30.9908 34.872 27.8608 38.002 23.9908 38.002Z" fill="url(#paint14_radial_637_22377)"/>
<path d="M23.9908 38.002C20.1208 38.002 16.9908 34.872 16.9908 31.002V29.002H30.9908V31.002C30.9908 34.872 27.8608 38.002 23.9908 38.002Z" fill="url(#paint15_radial_637_22377)"/>
<path d="M23.9908 38.002C20.1208 38.002 16.9908 34.872 16.9908 31.002V29.002H30.9908V31.002C30.9908 34.872 27.8608 38.002 23.9908 38.002Z" fill="url(#paint16_radial_637_22377)"/>
<g filter="url(#filter0_i_637_22377)">
<path d="M27.9908 26.002H19.9908C18.3308 26.002 16.9908 27.342 16.9908 29.002C16.9908 30.662 18.3308 32.002 19.9908 32.002H21.4908C22.5308 32.002 23.4508 31.472 23.9908 30.662C24.5308 31.472 25.4508 32.002 26.4908 32.002H27.9908C29.6508 32.002 30.9908 30.662 30.9908 29.002C30.9908 27.342 29.6508 26.002 27.9908 26.002Z" fill="url(#paint17_radial_637_22377)"/>
<path d="M27.9908 26.002H19.9908C18.3308 26.002 16.9908 27.342 16.9908 29.002C16.9908 30.662 18.3308 32.002 19.9908 32.002H21.4908C22.5308 32.002 23.4508 31.472 23.9908 30.662C24.5308 31.472 25.4508 32.002 26.4908 32.002H27.9908C29.6508 32.002 30.9908 30.662 30.9908 29.002C30.9908 27.342 29.6508 26.002 27.9908 26.002Z" fill="url(#paint18_linear_637_22377)"/>
<path d="M27.9908 26.002H19.9908C18.3308 26.002 16.9908 27.342 16.9908 29.002C16.9908 30.662 18.3308 32.002 19.9908 32.002H21.4908C22.5308 32.002 23.4508 31.472 23.9908 30.662C24.5308 31.472 25.4508 32.002 26.4908 32.002H27.9908C29.6508 32.002 30.9908 30.662 30.9908 29.002C30.9908 27.342 29.6508 26.002 27.9908 26.002Z" fill="url(#paint19_radial_637_22377)"/>
</g>
<g filter="url(#filter1_f_637_22377)">
<circle cx="28.4671" cy="28.3832" r="0.72625" fill="#D6C8D9"/>
</g>
<g filter="url(#filter2_f_637_22377)">
<path d="M27.7408 25.0957C27.3308 25.0957 26.9908 24.7557 26.9908 24.3457V22.8457C26.9908 22.4357 27.3308 22.0957 27.7408 22.0957C28.1508 22.0957 28.4908 22.4357 28.4908 22.8457V24.3457C28.4908 24.7657 28.1508 25.0957 27.7408 25.0957Z" fill="#F86121"/>
</g>
<g filter="url(#filter3_f_637_22377)">
<path d="M19.7408 25.0957C19.3308 25.0957 18.9908 24.7557 18.9908 24.3457V22.8457C18.9908 22.4357 19.3308 22.0957 19.7408 22.0957C20.1508 22.0957 20.4908 22.4357 20.4908 22.8457V24.3457C20.4908 24.7657 20.1508 25.0957 19.7408 25.0957Z" fill="#F86121"/>
</g>
<path d="M27.9908 24.892C27.5808 24.892 27.2408 24.552 27.2408 24.142V22.642C27.2408 22.232 27.5808 21.892 27.9908 21.892C28.4008 21.892 28.7408 22.232 28.7408 22.642V24.142C28.7408 24.562 28.4008 24.892 27.9908 24.892Z" fill="url(#paint20_linear_637_22377)"/>
<path d="M27.9908 24.892C27.5808 24.892 27.2408 24.552 27.2408 24.142V22.642C27.2408 22.232 27.5808 21.892 27.9908 21.892C28.4008 21.892 28.7408 22.232 28.7408 22.642V24.142C28.7408 24.562 28.4008 24.892 27.9908 24.892Z" fill="url(#paint21_linear_637_22377)"/>
<path d="M21.8708 27.812L23.2508 29.192C23.6608 29.602 24.3308 29.602 24.7508 29.192L26.1308 27.812C26.8008 27.142 26.3208 26.002 25.3808 26.002H22.6308C21.6708 26.002 21.2008 27.142 21.8708 27.812Z" fill="url(#paint22_linear_637_22377)"/>
<path d="M21.8708 27.812L23.2508 29.192C23.6608 29.602 24.3308 29.602 24.7508 29.192L26.1308 27.812C26.8008 27.142 26.3208 26.002 25.3808 26.002H22.6308C21.6708 26.002 21.2008 27.142 21.8708 27.812Z" fill="url(#paint23_linear_637_22377)"/>
<path d="M21.8708 27.812L23.2508 29.192C23.6608 29.602 24.3308 29.602 24.7508 29.192L26.1308 27.812C26.8008 27.142 26.3208 26.002 25.3808 26.002H22.6308C21.6708 26.002 21.2008 27.142 21.8708 27.812Z" fill="url(#paint24_linear_637_22377)"/>
<path d="M21.8708 27.812L23.2508 29.192C23.6608 29.602 24.3308 29.602 24.7508 29.192L26.1308 27.812C26.8008 27.142 26.3208 26.002 25.3808 26.002H22.6308C21.6708 26.002 21.2008 27.142 21.8708 27.812Z" fill="url(#paint25_radial_637_22377)"/>
<path d="M37.6209 32.132C37.8609 31.572 37.9909 30.962 37.9909 30.312V26.462C37.9909 25.612 37.8709 24.772 37.6509 23.962L33.2909 26.882C32.7309 27.252 32.9909 28.132 33.6709 28.132H37.4209L33.2909 30.882C32.7309 31.252 32.9909 32.132 33.6709 32.132H37.6209Z" fill="url(#paint26_linear_637_22377)"/>
<path d="M14.6908 30.892L10.5608 28.142H14.3108C14.9808 28.142 15.2508 27.272 14.6908 26.892L10.3408 23.962C10.1108 24.762 9.99084 25.612 9.99084 26.462V30.312C9.99084 30.962 10.1208 31.572 10.3608 32.132H14.3108C14.9808 32.132 15.2508 31.262 14.6908 30.892Z" fill="url(#paint27_linear_637_22377)"/>
<path d="M21.141 15.502H26.841C27.221 15.502 27.381 15.972 27.091 16.212L24.391 18.372C24.161 18.562 23.831 18.562 23.591 18.372L20.891 16.212C20.601 15.972 20.761 15.502 21.141 15.502Z" fill="url(#paint28_linear_637_22377)"/>
<path d="M25.8808 12.2757C25.2708 12.1557 24.6408 12.0957 23.9908 12.0957C23.3408 12.0957 22.7108 12.1557 22.1008 12.2757L23.2708 13.7969C23.6608 14.2069 24.3108 14.2069 24.6908 13.7969L25.8808 12.2757Z" fill="url(#paint29_linear_637_22377)"/>
<path d="M19.5309 27.5721L16.0709 25.5721C15.8309 25.4321 15.5309 25.5121 15.3909 25.7521C15.2509 25.9921 15.3309 26.2921 15.5709 26.4321L19.0309 28.4321C19.2709 28.5721 19.5709 28.4921 19.7109 28.2521C19.8509 28.0121 19.7709 27.7121 19.5309 27.5721Z" fill="url(#paint30_linear_637_22377)"/>
<path d="M19.5309 27.5721L16.0709 25.5721C15.8309 25.4321 15.5309 25.5121 15.3909 25.7521C15.2509 25.9921 15.3309 26.2921 15.5709 26.4321L19.0309 28.4321C19.2709 28.5721 19.5709 28.4921 19.7109 28.2521C19.8509 28.0121 19.7709 27.7121 19.5309 27.5721Z" fill="url(#paint31_linear_637_22377)"/>
<path d="M19.5309 27.5721L16.0709 25.5721C15.8309 25.4321 15.5309 25.5121 15.3909 25.7521C15.2509 25.9921 15.3309 26.2921 15.5709 26.4321L19.0309 28.4321C19.2709 28.5721 19.5709 28.4921 19.7109 28.2521C19.8509 28.0121 19.7709 27.7121 19.5309 27.5721Z" fill="url(#paint32_linear_637_22377)"/>
<path d="M15.5609 31.5721L19.0209 29.5721C19.2609 29.4321 19.5609 29.5121 19.7009 29.7521C19.8409 29.9921 19.7609 30.2921 19.5209 30.4321L16.0609 32.4321C15.8209 32.5721 15.5209 32.4921 15.3809 32.2521C15.2409 32.0121 15.3309 31.7121 15.5609 31.5721Z" fill="url(#paint33_linear_637_22377)"/>
<path d="M15.5609 31.5721L19.0209 29.5721C19.2609 29.4321 19.5609 29.5121 19.7009 29.7521C19.8409 29.9921 19.7609 30.2921 19.5209 30.4321L16.0609 32.4321C15.8209 32.5721 15.5209 32.4921 15.3809 32.2521C15.2409 32.0121 15.3309 31.7121 15.5609 31.5721Z" fill="url(#paint34_linear_637_22377)"/>
<path d="M28.4509 27.5721L31.9109 25.5721C32.1509 25.4321 32.4509 25.5121 32.5909 25.7521C32.7309 25.9921 32.6509 26.2921 32.4109 26.4321L28.9509 28.4321C28.7109 28.5721 28.4109 28.4921 28.2709 28.2521C28.1309 28.0121 28.2109 27.7121 28.4509 27.5721Z" fill="url(#paint35_linear_637_22377)"/>
<path d="M28.4509 27.5721L31.9109 25.5721C32.1509 25.4321 32.4509 25.5121 32.5909 25.7521C32.7309 25.9921 32.6509 26.2921 32.4109 26.4321L28.9509 28.4321C28.7109 28.5721 28.4109 28.4921 28.2709 28.2521C28.1309 28.0121 28.2109 27.7121 28.4509 27.5721Z" fill="url(#paint36_linear_637_22377)"/>
<path d="M28.4509 27.5721L31.9109 25.5721C32.1509 25.4321 32.4509 25.5121 32.5909 25.7521C32.7309 25.9921 32.6509 26.2921 32.4109 26.4321L28.9509 28.4321C28.7109 28.5721 28.4109 28.4921 28.2709 28.2521C28.1309 28.0121 28.2109 27.7121 28.4509 27.5721Z" fill="url(#paint37_linear_637_22377)"/>
<path d="M32.4209 31.5721L28.9609 29.5721C28.7209 29.4321 28.4209 29.5121 28.2809 29.7521C28.1409 29.9921 28.2209 30.2921 28.4609 30.4321L31.9209 32.4321C32.1609 32.5721 32.4609 32.4921 32.6009 32.2521C32.7409 32.0121 32.6509 31.7121 32.4209 31.5721Z" fill="url(#paint38_linear_637_22377)"/>
<path d="M32.4209 31.5721L28.9609 29.5721C28.7209 29.4321 28.4209 29.5121 28.2809 29.7521C28.1409 29.9921 28.2209 30.2921 28.4609 30.4321L31.9209 32.4321C32.1609 32.5721 32.4609 32.4921 32.6009 32.2521C32.7409 32.0121 32.6509 31.7121 32.4209 31.5721Z" fill="url(#paint39_linear_637_22377)"/>
<path d="M32.4209 31.5721L28.9609 29.5721C28.7209 29.4321 28.4209 29.5121 28.2809 29.7521C28.1409 29.9921 28.2209 30.2921 28.4609 30.4321L31.9209 32.4321C32.1609 32.5721 32.4609 32.4921 32.6009 32.2521C32.7409 32.0121 32.6509 31.7121 32.4209 31.5721Z" fill="url(#paint40_linear_637_22377)"/>
<path d="M32.4209 31.5721L28.9609 29.5721C28.7209 29.4321 28.4209 29.5121 28.2809 29.7521C28.1409 29.9921 28.2209 30.2921 28.4609 30.4321L31.9209 32.4321C32.1609 32.5721 32.4609 32.4921 32.6009 32.2521C32.7409 32.0121 32.6509 31.7121 32.4209 31.5721Z" fill="url(#paint41_linear_637_22377)"/>
<path d="M19.9908 24.892C19.5808 24.892 19.2408 24.552 19.2408 24.142V22.642C19.2408 22.232 19.5808 21.892 19.9908 21.892C20.4008 21.892 20.7408 22.232 20.7408 22.642V24.142C20.7408 24.562 20.4008 24.892 19.9908 24.892Z" fill="url(#paint42_linear_637_22377)"/>
<path d="M19.9908 24.892C19.5808 24.892 19.2408 24.552 19.2408 24.142V22.642C19.2408 22.232 19.5808 21.892 19.9908 21.892C20.4008 21.892 20.7408 22.232 20.7408 22.642V24.142C20.7408 24.562 20.4008 24.892 19.9908 24.892Z" fill="url(#paint43_linear_637_22377)"/>
<path d="M19.9908 24.892C19.5808 24.892 19.2408 24.552 19.2408 24.142V22.642C19.2408 22.232 19.5808 21.892 19.9908 21.892C20.4008 21.892 20.7408 22.232 20.7408 22.642V24.142C20.7408 24.562 20.4008 24.892 19.9908 24.892Z" fill="url(#paint44_linear_637_22377)"/>
<g filter="url(#filter4_f_637_22377)">
<path d="M28.8971 28.0062L32.2096 26.0687" stroke="url(#paint45_linear_637_22377)" stroke-width="0.2" stroke-linecap="round"/>
</g>
<g filter="url(#filter5_f_637_22377)">
<path d="M28.7565 29.7875L32.194 31.8031" stroke="url(#paint46_linear_637_22377)" stroke-width="0.2" stroke-linecap="round"/>
</g>
<g filter="url(#filter6_f_637_22377)">
<circle cx="19.2955" cy="30.0297" r="0.1875" fill="#CCC1D6"/>
</g>
<defs>
<filter id="filter0_i_637_22377" x="16.9908" y="25.752" width="14" height="6.25" filterUnits="userSpaceOnUse" color-interpolation-filters="sRGB">
<feFlood flood-opacity="0" result="BackgroundImageFix"/>
<feBlend mode="normal" in="SourceGraphic" in2="BackgroundImageFix" result="shape"/>
<feColorMatrix in="SourceAlpha" type="matrix" values="0 0 0 0 0 0 0 0 0 0 0 0 0 0 0 0 0 0 127 0" result="hardAlpha"/>
<feOffset dy="-0.25"/>
<feGaussianBlur stdDeviation="0.375"/>
<feComposite in2="hardAlpha" operator="arithmetic" k2="-1" k3="1"/>
<feColorMatrix type="matrix" values="0 0 0 0 0.652983 0 0 0 0 0.534201 0 0 0 0 0.754167 0 0 0 1 0"/>
<feBlend mode="normal" in2="shape" result="effect1_innerShadow_637_22377"/>
</filter>
<filter id="filter1_f_637_22377" x="27.2408" y="27.157" width="2.45251" height="2.45251" filterUnits="userSpaceOnUse" color-interpolation-filters="sRGB">
<feFlood flood-opacity="0" result="BackgroundImageFix"/>
<feBlend mode="normal" in="SourceGraphic" in2="BackgroundImageFix" result="shape"/>
<feGaussianBlur stdDeviation="0.25" result="effect1_foregroundBlur_637_22377"/>
</filter>
<filter id="filter2_f_637_22377" x="25.9908" y="21.0957" width="3.5" height="5" filterUnits="userSpaceOnUse" color-interpolation-filters="sRGB">
<feFlood flood-opacity="0" result="BackgroundImageFix"/>
<feBlend mode="normal" in="SourceGraphic" in2="BackgroundImageFix" result="shape"/>
<feGaussianBlur stdDeviation="0.5" result="effect1_foregroundBlur_637_22377"/>
</filter>
<filter id="filter3_f_637_22377" x="17.9908" y="21.0957" width="3.5" height="5" filterUnits="userSpaceOnUse" color-interpolation-filters="sRGB">
<feFlood flood-opacity="0" result="BackgroundImageFix"/>
<feBlend mode="normal" in="SourceGraphic" in2="BackgroundImageFix" result="shape"/>
<feGaussianBlur stdDeviation="0.5" result="effect1_foregroundBlur_637_22377"/>
</filter>
<filter id="filter4_f_637_22377" x="28.5971" y="25.7687" width="3.91245" height="2.53745" filterUnits="userSpaceOnUse" color-interpolation-filters="sRGB">
<feFlood flood-opacity="0" result="BackgroundImageFix"/>
<feBlend mode="normal" in="SourceGraphic" in2="BackgroundImageFix" result="shape"/>
<feGaussianBlur stdDeviation="0.1" result="effect1_foregroundBlur_637_22377"/>
</filter>
<filter id="filter5_f_637_22377" x="28.4565" y="29.4875" width="4.03745" height="2.61558" filterUnits="userSpaceOnUse" color-interpolation-filters="sRGB">
<feFlood flood-opacity="0" result="BackgroundImageFix"/>
<feBlend mode="normal" in="SourceGraphic" in2="BackgroundImageFix" result="shape"/>
<feGaussianBlur stdDeviation="0.1" result="effect1_foregroundBlur_637_22377"/>
</filter>
<filter id="filter6_f_637_22377" x="18.708" y="29.4422" width="1.175" height="1.175" filterUnits="userSpaceOnUse" color-interpolation-filters="sRGB">
<feFlood flood-opacity="0" result="BackgroundImageFix"/>
<feBlend mode="normal" in="SourceGraphic" in2="BackgroundImageFix" result="shape"/>
<feGaussianBlur stdDeviation="0.2" result="effect1_foregroundBlur_637_22377"/>
</filter>
<radialGradient id="paint0_radial_637_22377" cx="0" cy="0" r="1" gradientUnits="userSpaceOnUse" gradientTransform="translate(18.5534 12.25) rotate(135.385) scale(6.58508)">
<stop stop-color="#FF9E56"/>
<stop offset="1" stop-color="#D65E27"/>
</radialGradient>
<radialGradient id="paint1_radial_637_22377" cx="0" cy="0" r="1" gradientUnits="userSpaceOnUse" gradientTransform="translate(34.8033 13.25) rotate(152.526) scale(5.28338)">
<stop stop-color="#FFA761"/>
<stop offset="1" stop-color="#FC7520"/>
</radialGradient>
<radialGradient id="paint2_radial_637_22377" cx="0" cy="0" r="1" gradientUnits="userSpaceOnUse" gradientTransform="translate(34.2721 16.5687) rotate(-148.662) scale(7.39067 6.69471)">
<stop offset="0.723775" stop-color="#E16F15" stop-opacity="0"/>
<stop offset="1" stop-color="#CA572A"/>
</radialGradient>
<radialGradient id="paint3_radial_637_22377" cx="0" cy="0" r="1" gradientUnits="userSpaceOnUse" gradientTransform="translate(32.5846 13.7249) rotate(49.9138) scale(4.90147 5.73234)">
<stop offset="0.783692" stop-color="#E16F15" stop-opacity="0"/>
<stop offset="1" stop-color="#CA572A"/>
</radialGradient>
<radialGradient id="paint4_radial_637_22377" cx="0" cy="0" r="1" gradientUnits="userSpaceOnUse" gradientTransform="translate(14.5846 14.9551) rotate(16.5316) scale(2.70559 5.16131)">
<stop stop-color="#E16F15"/>
<stop offset="1" stop-color="#CA572A"/>
</radialGradient>
<radialGradient id="paint5_radial_637_22377" cx="0" cy="0" r="1" gradientUnits="userSpaceOnUse" gradientTransform="translate(13.4908 15.5374) rotate(-12.5085) scale(2.68882 2.35237)">
<stop stop-color="#E08353"/>
<stop offset="0.875617" stop-color="#E08353" stop-opacity="0"/>
</radialGradient>
<radialGradient id="paint6_radial_637_22377" cx="0" cy="0" r="1" gradientUnits="userSpaceOnUse" gradientTransform="translate(30.4284 15.6312) rotate(-24.901) scale(4.46783 2.45749)">
<stop stop-color="#F88A5D"/>
<stop offset="0.83742" stop-color="#FF7612"/>
</radialGradient>
<radialGradient id="paint7_radial_637_22377" cx="0" cy="0" r="1" gradientUnits="userSpaceOnUse" gradientTransform="translate(33.6315 16.5999) rotate(-139.341) scale(5.34783 4.06175)">
<stop offset="0.693561" stop-color="#E16F15" stop-opacity="0"/>
<stop offset="1" stop-color="#CA572A"/>
</radialGradient>
<radialGradient id="paint8_radial_637_22377" cx="0" cy="0" r="1" gradientUnits="userSpaceOnUse" gradientTransform="translate(30.2408 18.5937) rotate(107.9) scale(20.3342 25.8683)">
<stop stop-color="#FFA24D"/>
<stop offset="0.501156" stop-color="#FC7C2B"/>
<stop offset="1" stop-color="#CA4835"/>
</radialGradient>
<linearGradient id="paint9_linear_637_22377" x1="34.9283" y1="17.2561" x2="32.1158" y2="19.8186" gradientUnits="userSpaceOnUse">
<stop offset="0.136266" stop-color="#F97420"/>
<stop offset="0.648948" stop-color="#FC7C2B" stop-opacity="0"/>
</linearGradient>
<radialGradient id="paint10_radial_637_22377" cx="0" cy="0" r="1" gradientUnits="userSpaceOnUse" gradientTransform="translate(23.9908 27.9124) rotate(-90) scale(5.625 6.51316)">
<stop stop-color="#E75F09"/>
<stop offset="1" stop-color="#E75F09" stop-opacity="0"/>
</radialGradient>
<linearGradient id="paint11_linear_637_22377" x1="23.9908" y1="36.0686" x2="23.9908" y2="32.3186" gradientUnits="userSpaceOnUse">
<stop stop-color="#C8485B"/>
<stop offset="1" stop-color="#C8485B" stop-opacity="0"/>
</linearGradient>
<linearGradient id="paint12_linear_637_22377" x1="9.99084" y1="21.6936" x2="11.9596" y2="23.5957" gradientUnits="userSpaceOnUse">
<stop stop-color="#BF603D"/>
<stop offset="0.462401" stop-color="#BF603D" stop-opacity="0"/>
</linearGradient>
<radialGradient id="paint13_radial_637_22377" cx="0" cy="0" r="1" gradientUnits="userSpaceOnUse" gradientTransform="translate(23.9908 30.25) rotate(92.4264) scale(8.85783 8.28011)">
<stop stop-color="#E8D0FF"/>
<stop offset="0.78125" stop-color="#E1D2EE"/>
<stop offset="1" stop-color="#AB8BCA"/>
</radialGradient>
<radialGradient id="paint14_radial_637_22377" cx="0" cy="0" r="1" gradientUnits="userSpaceOnUse" gradientTransform="translate(23.9908 30.0374) rotate(90) scale(11.5 14.5)">
<stop offset="0.48913" stop-color="#C7A5E6" stop-opacity="0"/>
<stop offset="0.864583" stop-color="#C7A5E6"/>
</radialGradient>
<radialGradient id="paint15_radial_637_22377" cx="0" cy="0" r="1" gradientUnits="userSpaceOnUse" gradientTransform="translate(23.9908 28.0999) rotate(90) scale(6.125 10.25)">
<stop offset="0.130208" stop-color="#A58EB9"/>
<stop offset="1" stop-color="#A58EB9" stop-opacity="0"/>
</radialGradient>
<radialGradient id="paint16_radial_637_22377" cx="0" cy="0" r="1" gradientUnits="userSpaceOnUse" gradientTransform="translate(15.2408 29.5374) rotate(30.4464) scale(9.49712 7.44628)">
<stop offset="0.130208" stop-color="#A58EB9"/>
<stop offset="1" stop-color="#A58EB9" stop-opacity="0"/>
</radialGradient>
<radialGradient id="paint17_radial_637_22377" cx="0" cy="0" r="1" gradientUnits="userSpaceOnUse" gradientTransform="translate(27.8043 26.3499) rotate(90) scale(8 14.4548)">
<stop offset="0.177083" stop-color="#E4D5E8"/>
<stop offset="1" stop-color="#C7A5E6"/>
</radialGradient>
<linearGradient id="paint18_linear_637_22377" x1="23.9908" y1="33.7874" x2="23.9908" y2="29.5374" gradientUnits="userSpaceOnUse">
<stop stop-color="#C7A5E6"/>
<stop offset="1" stop-color="#C7A5E6" stop-opacity="0"/>
</linearGradient>
<radialGradient id="paint19_radial_637_22377" cx="0" cy="0" r="1" gradientUnits="userSpaceOnUse" gradientTransform="translate(29.4283 28.5374) rotate(154.885) scale(2.20882 1.99123)">
<stop stop-color="#F6E9F9"/>
<stop offset="1" stop-color="#F6E9F9" stop-opacity="0"/>
</radialGradient>
<linearGradient id="paint20_linear_637_22377" x1="28.6535" y1="23.392" x2="27.8281" y2="23.392" gradientUnits="userSpaceOnUse">
<stop offset="0.225" stop-color="#594C4F"/>
<stop offset="1" stop-color="#392833"/>
</linearGradient>
<linearGradient id="paint21_linear_637_22377" x1="28.9752" y1="25.4169" x2="28.9752" y2="23.8267" gradientUnits="userSpaceOnUse">
<stop stop-color="#552D52"/>
<stop offset="1" stop-color="#552D52" stop-opacity="0"/>
</linearGradient>
<linearGradient id="paint22_linear_637_22377" x1="25.3481" y1="25.7119" x2="22.2553" y2="28.4459" gradientUnits="userSpaceOnUse">
<stop offset="0.191489" stop-color="#5F5254"/>
<stop offset="1" stop-color="#2E2127"/>
</linearGradient>
<linearGradient id="paint23_linear_637_22377" x1="24.3899" y1="26.9497" x2="24.3899" y2="25.2544" gradientUnits="userSpaceOnUse">
<stop offset="0.146552" stop-color="#34222C" stop-opacity="0"/>
<stop offset="0.872727" stop-color="#34222C"/>
</linearGradient>
<linearGradient id="paint24_linear_637_22377" x1="25.2369" y1="29.7931" x2="25.2369" y2="27.2301" gradientUnits="userSpaceOnUse">
<stop stop-color="#552D52"/>
<stop offset="1" stop-color="#552D52" stop-opacity="0"/>
</linearGradient>
<radialGradient id="paint25_radial_637_22377" cx="0" cy="0" r="1" gradientUnits="userSpaceOnUse" gradientTransform="translate(27.0638 28.5323) rotate(-161.201) scale(6.29662 2.83336)">
<stop offset="0.827602" stop-color="#5C5458" stop-opacity="0"/>
<stop offset="0.935007" stop-color="#5C5458"/>
</radialGradient>
<linearGradient id="paint26_linear_637_22377" x1="34.9284" y1="31.2875" x2="33.6784" y2="26.6625" gradientUnits="userSpaceOnUse">
<stop offset="0.00558659" stop-color="#4E3D5E"/>
<stop offset="1" stop-color="#695C77"/>
</linearGradient>
<linearGradient id="paint27_linear_637_22377" x1="14.9934" y1="28.047" x2="8.11584" y2="28.047" gradientUnits="userSpaceOnUse">
<stop offset="0.06398" stop-color="#443851"/>
<stop offset="1" stop-color="#5D5863"/>
</linearGradient>
<linearGradient id="paint28_linear_637_22377" x1="21.5535" y1="17.9749" x2="25.6785" y2="14.9749" gradientUnits="userSpaceOnUse">
<stop offset="0.00558659" stop-color="#4E3D5E"/>
<stop offset="1" stop-color="#5A4969"/>
</linearGradient>
<linearGradient id="paint29_linear_637_22377" x1="23.9908" y1="11.7249" x2="23.9908" y2="14.1044" gradientUnits="userSpaceOnUse">
<stop offset="0.00558659" stop-color="#635C6C"/>
<stop offset="1" stop-color="#4F3E5E"/>
<stop offset="1" stop-color="#503F5F"/>
</linearGradient>
<linearGradient id="paint30_linear_637_22377" x1="18.6315" y1="26.3187" x2="17.9128" y2="27.5531" gradientUnits="userSpaceOnUse">
<stop stop-color="#E8DFED"/>
<stop offset="1" stop-color="#C3B3D2"/>
</linearGradient>
<linearGradient id="paint31_linear_637_22377" x1="18.5847" y1="29.5062" x2="18.2097" y2="28.0219" gradientUnits="userSpaceOnUse">
<stop stop-color="#BEADCC"/>
<stop offset="0.783217" stop-color="#BEADCC" stop-opacity="0"/>
</linearGradient>
<linearGradient id="paint32_linear_637_22377" x1="19.5534" y1="26.3812" x2="18.9593" y2="27.8811" gradientUnits="userSpaceOnUse">
<stop stop-color="#F6EBF9"/>
<stop offset="1" stop-color="#F6EBF9" stop-opacity="0"/>
</linearGradient>
<linearGradient id="paint33_linear_637_22377" x1="14.9909" y1="27.9125" x2="16.7551" y2="31.3195" gradientUnits="userSpaceOnUse">
<stop stop-color="#E8DFED"/>
<stop offset="1" stop-color="#C3B3D2"/>
</linearGradient>
<linearGradient id="paint34_linear_637_22377" x1="17.8347" y1="31.725" x2="16.8353" y2="30.2246" gradientUnits="userSpaceOnUse">
<stop stop-color="#BB99D7"/>
<stop offset="0.783217" stop-color="#BEADCC" stop-opacity="0"/>
</linearGradient>
<linearGradient id="paint35_linear_637_22377" x1="33.6784" y1="25" x2="27.3347" y2="28.501" gradientUnits="userSpaceOnUse">
<stop stop-color="#E8DFED"/>
<stop offset="1" stop-color="#C3B3D2"/>
</linearGradient>
<linearGradient id="paint36_linear_637_22377" x1="26.9909" y1="29.5062" x2="29.7409" y2="27.85" gradientUnits="userSpaceOnUse">
<stop stop-color="#BEADCC"/>
<stop offset="1" stop-color="#BEADCC" stop-opacity="0"/>
</linearGradient>
<linearGradient id="paint37_linear_637_22377" x1="33.2097" y1="25.3969" x2="31.9753" y2="26.1937" gradientUnits="userSpaceOnUse">
<stop stop-color="#F6EBF9"/>
<stop offset="1" stop-color="#F6EBF9" stop-opacity="0"/>
</linearGradient>
<linearGradient id="paint38_linear_637_22377" x1="31.3659" y1="30.475" x2="30.4392" y2="32.0996" gradientUnits="userSpaceOnUse">
<stop stop-color="#E8DFED"/>
<stop offset="1" stop-color="#C3B3D2"/>
</linearGradient>
<linearGradient id="paint39_linear_637_22377" x1="29.5378" y1="31.1312" x2="29.9131" y2="30.4595" gradientUnits="userSpaceOnUse">
<stop stop-color="#BEADCC"/>
<stop offset="0.783217" stop-color="#BEADCC" stop-opacity="0"/>
</linearGradient>
<linearGradient id="paint40_linear_637_22377" x1="27.7878" y1="29.5032" x2="30.0372" y2="30.8353" gradientUnits="userSpaceOnUse">
<stop stop-color="#BEADCC"/>
<stop offset="1" stop-color="#BEADCC" stop-opacity="0"/>
</linearGradient>
<linearGradient id="paint41_linear_637_22377" x1="33.3659" y1="30.6" x2="31.6782" y2="31.0013" gradientUnits="userSpaceOnUse">
<stop stop-color="#F6EBF9"/>
<stop offset="1" stop-color="#F6EBF9" stop-opacity="0"/>
</linearGradient>
<linearGradient id="paint42_linear_637_22377" x1="20.6535" y1="23.392" x2="19.8281" y2="23.392" gradientUnits="userSpaceOnUse">
<stop offset="0.225" stop-color="#594C4F"/>
<stop offset="1" stop-color="#392833"/>
</linearGradient>
<linearGradient id="paint43_linear_637_22377" x1="18.7847" y1="23.392" x2="19.9908" y2="23.392" gradientUnits="userSpaceOnUse">
<stop stop-color="#594C4F"/>
<stop offset="1" stop-color="#594C4F" stop-opacity="0"/>
</linearGradient>
<linearGradient id="paint44_linear_637_22377" x1="20.9752" y1="25.4169" x2="20.9752" y2="23.8267" gradientUnits="userSpaceOnUse">
<stop stop-color="#552D52"/>
<stop offset="1" stop-color="#552D52" stop-opacity="0"/>
</linearGradient>
<linearGradient id="paint45_linear_637_22377" x1="33.0533" y1="25.8031" x2="29.5533" y2="27.9281" gradientUnits="userSpaceOnUse">
<stop stop-color="#F6EBF9"/>
<stop offset="0.936976" stop-color="#E4D6E8" stop-opacity="0"/>
</linearGradient>
<linearGradient id="paint46_linear_637_22377" x1="32.3502" y1="32.0062" x2="29.319" y2="30.2406" gradientUnits="userSpaceOnUse">
<stop stop-color="#F6EBF9"/>
<stop offset="0.936976" stop-color="#E4D6E8" stop-opacity="0"/>
</linearGradient>
</defs>
</svg>
