<svg width="48" height="48" viewBox="0 0 48 48" fill="none" xmlns="http://www.w3.org/2000/svg">
<rect width="48" height="48" rx="24" fill="#F2F5FF"/>
<path d="M22.21 36.4964H20.96L22.46 31.1864H20.96L19.46 36.4964H16.71C16.3 36.4964 15.96 36.8364 15.96 37.2464C15.96 37.6564 16.29 37.9964 16.71 37.9964H19.46H20.96H22.21C22.62 37.9964 22.96 37.6564 22.96 37.2464C22.96 36.8364 22.62 36.4964 22.21 36.4964Z" fill="url(#paint0_linear_637_22387)"/>
<path d="M22.21 36.4964H20.96L22.46 31.1864H20.96L19.46 36.4964H16.71C16.3 36.4964 15.96 36.8364 15.96 37.2464C15.96 37.6564 16.29 37.9964 16.71 37.9964H19.46H20.96H22.21C22.62 37.9964 22.96 37.6564 22.96 37.2464C22.96 36.8364 22.62 36.4964 22.21 36.4964Z" fill="url(#paint1_linear_637_22387)"/>
<path d="M22.2833 36.5H16.6366C16.2602 36.5376 15.96 36.8611 15.96 37.2464C15.96 37.6564 16.2899 37.9964 16.71 37.9964H22.21C22.62 37.9964 22.96 37.6564 22.96 37.2464C22.96 36.8611 22.6597 36.5376 22.2833 36.5Z" fill="url(#paint2_linear_637_22387)"/>
<path d="M22.2833 36.5H16.6366C16.2602 36.5376 15.96 36.8611 15.96 37.2464C15.96 37.6564 16.2899 37.9964 16.71 37.9964H22.21C22.62 37.9964 22.96 37.6564 22.96 37.2464C22.96 36.8611 22.6597 36.5376 22.2833 36.5Z" fill="url(#paint3_linear_637_22387)"/>
<path d="M22.2833 36.5H16.6366C16.2602 36.5376 15.96 36.8611 15.96 37.2464C15.96 37.6564 16.2899 37.9964 16.71 37.9964H22.21C22.62 37.9964 22.96 37.6564 22.96 37.2464C22.96 36.8611 22.6597 36.5376 22.2833 36.5Z" fill="url(#paint4_radial_637_22387)"/>
<path d="M22.2833 36.5H16.6366C16.2602 36.5376 15.96 36.8611 15.96 37.2464C15.96 37.6564 16.2899 37.9964 16.71 37.9964H22.21C22.62 37.9964 22.96 37.6564 22.96 37.2464C22.96 36.8611 22.6597 36.5376 22.2833 36.5Z" fill="url(#paint5_linear_637_22387)"/>
<path d="M26.21 36.4964H24.96V31.1864H23.46V36.4964H20.71C20.3 36.4964 19.96 36.8364 19.96 37.2464C19.96 37.6564 20.29 37.9964 20.71 37.9964H23.46H24.96H26.21C26.62 37.9964 26.96 37.6564 26.96 37.2464C26.96 36.8364 26.62 36.4964 26.21 36.4964Z" fill="url(#paint6_linear_637_22387)"/>
<path d="M35.27 29.0563L27.62 29.7863V34.9963H32.83C34.56 34.9963 35.95 33.5963 35.95 31.8763V29.6863C35.96 29.3163 35.64 29.0263 35.27 29.0563Z" fill="url(#paint7_linear_637_22387)"/>
<path d="M35.27 29.0563L27.62 29.7863V34.9963H32.83C34.56 34.9963 35.95 33.5963 35.95 31.8763V29.6863C35.96 29.3163 35.64 29.0263 35.27 29.0563Z" fill="url(#paint8_linear_637_22387)"/>
<path d="M24.42 14.2664C23.96 11.7564 21.7 9.87635 19.04 10.0064C16.34 10.1264 14.22 12.2664 14.09 14.9564C14.06 15.6664 14.17 16.3564 14.39 16.9764C14.64 17.6764 14.52 18.4564 14.06 19.0364C12.76 20.7264 12 22.8264 12 25.0464C12 30.5464 16.55 34.9964 22.17 34.9964H27.86C28.28 34.9964 28.59 34.6164 28.51 34.2064L24.42 14.2664Z" fill="url(#paint9_linear_637_22387)"/>
<path d="M24.42 14.2664C23.96 11.7564 21.7 9.87635 19.04 10.0064C16.34 10.1264 14.22 12.2664 14.09 14.9564C14.06 15.6664 14.17 16.3564 14.39 16.9764C14.64 17.6764 14.52 18.4564 14.06 19.0364C12.76 20.7264 12 22.8264 12 25.0464C12 30.5464 16.55 34.9964 22.17 34.9964H27.86C28.28 34.9964 28.59 34.6164 28.51 34.2064L24.42 14.2664Z" fill="url(#paint10_linear_637_22387)"/>
<path d="M24.42 14.2664C23.96 11.7564 21.7 9.87635 19.04 10.0064C16.34 10.1264 14.22 12.2664 14.09 14.9564C14.06 15.6664 14.17 16.3564 14.39 16.9764C14.64 17.6764 14.52 18.4564 14.06 19.0364C12.76 20.7264 12 22.8264 12 25.0464C12 30.5464 16.55 34.9964 22.17 34.9964H27.86C28.28 34.9964 28.59 34.6164 28.51 34.2064L24.42 14.2664Z" fill="url(#paint11_radial_637_22387)"/>
<path d="M24.42 14.2664C23.96 11.7564 21.7 9.87635 19.04 10.0064C16.34 10.1264 14.22 12.2664 14.09 14.9564C14.06 15.6664 14.17 16.3564 14.39 16.9764C14.64 17.6764 14.52 18.4564 14.06 19.0364C12.76 20.7264 12 22.8264 12 25.0464C12 30.5464 16.55 34.9964 22.17 34.9964H27.86C28.28 34.9964 28.59 34.6164 28.51 34.2064L24.42 14.2664Z" fill="url(#paint12_radial_637_22387)"/>
<path d="M24.42 14.2664C23.96 11.7564 21.7 9.87635 19.04 10.0064C16.34 10.1264 14.22 12.2664 14.09 14.9564C14.06 15.6664 14.17 16.3564 14.39 16.9764C14.64 17.6764 14.52 18.4564 14.06 19.0364C12.76 20.7264 12 22.8264 12 25.0464C12 30.5464 16.55 34.9964 22.17 34.9964H27.86C28.28 34.9964 28.59 34.6164 28.51 34.2064L24.42 14.2664Z" fill="url(#paint13_radial_637_22387)"/>
<path d="M24.42 14.2664C23.96 11.7564 21.7 9.87635 19.04 10.0064C16.34 10.1264 14.22 12.2664 14.09 14.9564C14.06 15.6664 14.17 16.3564 14.39 16.9764C14.64 17.6764 14.52 18.4564 14.06 19.0364C12.76 20.7264 12 22.8264 12 25.0464C12 30.5464 16.55 34.9964 22.17 34.9964H27.86C28.28 34.9964 28.59 34.6164 28.51 34.2064L24.42 14.2664Z" fill="url(#paint14_radial_637_22387)"/>
<g filter="url(#filter0_f_637_22387)">
<path d="M20.8006 20.389C18.9888 20.5165 17.5795 22.029 17.5227 23.8988C17.5116 24.2506 17.5183 24.6011 17.5429 24.9504C17.9045 30.0883 21.9162 34.0733 26.7735 34.3965C27.1751 34.3683 27.4431 33.9707 27.3343 33.5719L24.4585 23.0412C24.0003 21.3738 22.4786 20.2709 20.8006 20.389Z" fill="#9F205B"/>
</g>
<g filter="url(#filter1_i_637_22387)">
<path d="M22.24 19.3763C20.21 19.3763 18.52 20.9063 18.31 22.9263C18.27 23.3063 18.25 23.6863 18.25 24.0663C18.25 29.6563 22.41 34.2763 27.8 34.9963C28.25 34.9963 28.58 34.5863 28.49 34.1463L26.11 22.5263C25.73 20.6863 24.12 19.3763 22.24 19.3763Z" fill="#FCC44C"/>
</g>
<path d="M22.24 19.3763C20.21 19.3763 18.52 20.9063 18.31 22.9263C18.27 23.3063 18.25 23.6863 18.25 24.0663C18.25 29.6563 22.41 34.2763 27.8 34.9963C28.25 34.9963 28.58 34.5863 28.49 34.1463L26.11 22.5263C25.73 20.6863 24.12 19.3763 22.24 19.3763Z" fill="url(#paint15_radial_637_22387)"/>
<g filter="url(#filter2_f_637_22387)">
<path d="M24.6321 22.6301L26.8662 32.25C23.3951 30.8536 21.4309 26.678 20.5355 23.4071C20.206 22.2035 21.1067 21.0692 22.3503 20.9663C23.4184 20.878 24.3896 21.5862 24.6321 22.6301Z" fill="#FFDD5E"/>
</g>
<path d="M27.8 31.8164C22.94 31.1664 19.09 27.3564 18.37 22.5264C18.34 22.6564 18.32 22.7964 18.31 22.9264C18.27 23.3064 18.25 23.6864 18.25 24.0664C18.25 29.6564 22.41 34.2764 27.8 34.9964C28.25 34.9964 28.58 34.5864 28.49 34.1464L28.01 31.8064H27.8V31.8164Z" fill="#3994FB"/>
<path d="M27.8 31.8164C22.94 31.1664 19.09 27.3564 18.37 22.5264C18.34 22.6564 18.32 22.7964 18.31 22.9264C18.27 23.3064 18.25 23.6864 18.25 24.0664C18.25 29.6564 22.41 34.2764 27.8 34.9964C28.25 34.9964 28.58 34.5864 28.49 34.1464L28.01 31.8064H27.8V31.8164Z" fill="url(#paint16_radial_637_22387)"/>
<path d="M27.8 31.8164C22.94 31.1664 19.09 27.3564 18.37 22.5264C18.34 22.6564 18.32 22.7964 18.31 22.9264C18.27 23.3064 18.25 23.6864 18.25 24.0664C18.25 29.6564 22.41 34.2764 27.8 34.9964C28.25 34.9964 28.58 34.5864 28.49 34.1464L28.01 31.8064H27.8V31.8164Z" fill="url(#paint17_linear_637_22387)"/>
<path d="M27.8 31.8164C22.94 31.1664 19.09 27.3564 18.37 22.5264C18.34 22.6564 18.32 22.7964 18.31 22.9264C18.27 23.3064 18.25 23.6864 18.25 24.0664C18.25 29.6564 22.41 34.2764 27.8 34.9964C28.25 34.9964 28.58 34.5864 28.49 34.1464L28.01 31.8064H27.8V31.8164Z" fill="url(#paint18_radial_637_22387)"/>
<path d="M18.8982 16.0876C20.0183 16.0876 20.9263 15.1796 20.9263 14.0594C20.9263 12.9393 20.0183 12.0312 18.8982 12.0312C17.778 12.0312 16.87 12.9393 16.87 14.0594C16.87 15.1796 17.778 16.0876 18.8982 16.0876Z" fill="#D7D7D7"/>
<path d="M18.8975 15.0594C19.4497 15.0594 19.8975 14.6117 19.8975 14.0594C19.8975 13.5072 19.4497 13.0594 18.8975 13.0594C18.3452 13.0594 17.8975 13.5072 17.8975 14.0594C17.8975 14.6117 18.3452 15.0594 18.8975 15.0594Z" fill="url(#paint19_radial_637_22387)"/>
<path d="M18.8975 15.0594C19.4497 15.0594 19.8975 14.6117 19.8975 14.0594C19.8975 13.5072 19.4497 13.0594 18.8975 13.0594C18.3452 13.0594 17.8975 13.5072 17.8975 14.0594C17.8975 14.6117 18.3452 15.0594 18.8975 15.0594Z" fill="url(#paint20_radial_637_22387)"/>
<path d="M18.8975 15.0594C19.4497 15.0594 19.8975 14.6117 19.8975 14.0594C19.8975 13.5072 19.4497 13.0594 18.8975 13.0594C18.3452 13.0594 17.8975 13.5072 17.8975 14.0594C17.8975 14.6117 18.3452 15.0594 18.8975 15.0594Z" fill="url(#paint21_linear_637_22387)"/>
<path d="M15.11 17.6463C16.082 17.6463 16.87 16.8584 16.87 15.8863C16.87 14.9143 16.082 14.1263 15.11 14.1263C14.138 14.1263 13.35 14.9143 13.35 15.8863C13.35 16.8584 14.138 17.6463 15.11 17.6463Z" fill="url(#paint22_radial_637_22387)"/>
<path d="M14.03 16.8264L16.84 15.5464C16.62 14.4164 15.59 13.5764 14.37 13.6264C13.18 13.6764 12.2 14.6264 12.1 15.8164C12.03 16.6964 12.44 17.4964 13.1 17.9564C13.32 18.1164 13.64 17.9564 13.64 17.6764V17.4364C13.64 17.1764 13.79 16.9364 14.03 16.8264Z" fill="url(#paint23_radial_637_22387)"/>
<g filter="url(#filter3_f_637_22387)">
<path d="M14.7812 14.1992C14.125 14.0742 13.0312 14.4023 12.8438 15.6523" stroke="url(#paint24_linear_637_22387)" stroke-width="0.5" stroke-linecap="round"/>
</g>
<g filter="url(#filter4_f_637_22387)">
<path d="M28.5049 30.2991L35.4155 29.625V31.3585C35.4155 32.3749 34.6531 33.2297 33.6433 33.3454L29.0247 33.875L28.5049 30.2991Z" fill="url(#paint25_linear_637_22387)"/>
<path d="M28.5049 30.2991L35.4155 29.625V31.3585C35.4155 32.3749 34.6531 33.2297 33.6433 33.3454L29.0247 33.875L28.5049 30.2991Z" fill="url(#paint26_radial_637_22387)"/>
</g>
<path d="M26.2833 36.5H20.6366C20.2602 36.5376 19.96 36.8611 19.96 37.2464C19.96 37.6564 20.2899 37.9964 20.71 37.9964H26.21C26.62 37.9964 26.96 37.6564 26.96 37.2464C26.96 36.8611 26.6597 36.5376 26.2833 36.5Z" fill="url(#paint27_linear_637_22387)"/>
<path d="M26.2833 36.5H20.6366C20.2602 36.5376 19.96 36.8611 19.96 37.2464C19.96 37.6564 20.2899 37.9964 20.71 37.9964H26.21C26.62 37.9964 26.96 37.6564 26.96 37.2464C26.96 36.8611 26.6597 36.5376 26.2833 36.5Z" fill="url(#paint28_linear_637_22387)"/>
<path d="M26.2833 36.5H20.6366C20.2602 36.5376 19.96 36.8611 19.96 37.2464C19.96 37.6564 20.2899 37.9964 20.71 37.9964H26.21C26.62 37.9964 26.96 37.6564 26.96 37.2464C26.96 36.8611 26.6597 36.5376 26.2833 36.5Z" fill="url(#paint29_radial_637_22387)"/>
<path d="M26.2833 36.5H20.6366C20.2602 36.5376 19.96 36.8611 19.96 37.2464C19.96 37.6564 20.2899 37.9964 20.71 37.9964H26.21C26.62 37.9964 26.96 37.6564 26.96 37.2464C26.96 36.8611 26.6597 36.5376 26.2833 36.5Z" fill="url(#paint30_radial_637_22387)"/>
<defs>
<filter id="filter0_f_637_22387" x="16.5175" y="19.3804" width="11.8412" height="16.0161" filterUnits="userSpaceOnUse" color-interpolation-filters="sRGB">
<feFlood flood-opacity="0" result="BackgroundImageFix"/>
<feBlend mode="normal" in="SourceGraphic" in2="BackgroundImageFix" result="shape"/>
<feGaussianBlur stdDeviation="0.5" result="effect1_foregroundBlur_637_22387"/>
</filter>
<filter id="filter1_i_637_22387" x="18.25" y="19.3763" width="10.2549" height="15.82" filterUnits="userSpaceOnUse" color-interpolation-filters="sRGB">
<feFlood flood-opacity="0" result="BackgroundImageFix"/>
<feBlend mode="normal" in="SourceGraphic" in2="BackgroundImageFix" result="shape"/>
<feColorMatrix in="SourceAlpha" type="matrix" values="0 0 0 0 0 0 0 0 0 0 0 0 0 0 0 0 0 0 127 0" result="hardAlpha"/>
<feOffset dy="0.2"/>
<feGaussianBlur stdDeviation="0.5"/>
<feComposite in2="hardAlpha" operator="arithmetic" k2="-1" k3="1"/>
<feColorMatrix type="matrix" values="0 0 0 0 0.960784 0 0 0 0 0.537255 0 0 0 0 0.305882 0 0 0 1 0"/>
<feBlend mode="normal" in2="shape" result="effect1_innerShadow_637_22387"/>
</filter>
<filter id="filter2_f_637_22387" x="17.4669" y="17.9589" width="12.3993" height="17.2911" filterUnits="userSpaceOnUse" color-interpolation-filters="sRGB">
<feFlood flood-opacity="0" result="BackgroundImageFix"/>
<feBlend mode="normal" in="SourceGraphic" in2="BackgroundImageFix" result="shape"/>
<feGaussianBlur stdDeviation="1.5" result="effect1_foregroundBlur_637_22387"/>
</filter>
<filter id="filter3_f_637_22387" x="11.8338" y="13.1644" width="3.9575" height="3.49791" filterUnits="userSpaceOnUse" color-interpolation-filters="sRGB">
<feFlood flood-opacity="0" result="BackgroundImageFix"/>
<feBlend mode="normal" in="SourceGraphic" in2="BackgroundImageFix" result="shape"/>
<feGaussianBlur stdDeviation="0.38" result="effect1_foregroundBlur_637_22387"/>
</filter>
<filter id="filter4_f_637_22387" x="27.5049" y="28.625" width="8.91052" height="6.25" filterUnits="userSpaceOnUse" color-interpolation-filters="sRGB">
<feFlood flood-opacity="0" result="BackgroundImageFix"/>
<feBlend mode="normal" in="SourceGraphic" in2="BackgroundImageFix" result="shape"/>
<feGaussianBlur stdDeviation="0.5" result="effect1_foregroundBlur_637_22387"/>
</filter>
<linearGradient id="paint0_linear_637_22387" x1="20.6875" y1="34.4688" x2="20.1718" y2="36.4532" gradientUnits="userSpaceOnUse">
<stop stop-color="#BC6925"/>
<stop offset="1" stop-color="#CA7A27"/>
</linearGradient>
<linearGradient id="paint1_linear_637_22387" x1="19.46" y1="35.7813" x2="20.3906" y2="36.0625" gradientUnits="userSpaceOnUse">
<stop stop-color="#C78441"/>
<stop offset="1" stop-color="#C78441" stop-opacity="0"/>
</linearGradient>
<linearGradient id="paint2_linear_637_22387" x1="19.46" y1="36.2813" x2="19.46" y2="37.375" gradientUnits="userSpaceOnUse">
<stop stop-color="#CA8234"/>
<stop offset="1" stop-color="#DB8D3C"/>
</linearGradient>
<linearGradient id="paint3_linear_637_22387" x1="19.46" y1="37.9964" x2="19.46" y2="37.5469" gradientUnits="userSpaceOnUse">
<stop stop-color="#FA816E"/>
<stop offset="1" stop-color="#FA816E" stop-opacity="0"/>
</linearGradient>
<radialGradient id="paint4_radial_637_22387" cx="0" cy="0" r="1" gradientUnits="userSpaceOnUse" gradientTransform="translate(15.8437 37.2482) scale(2.51563 0.556511)">
<stop stop-color="#E0A04D"/>
<stop offset="1" stop-color="#E0A04D" stop-opacity="0"/>
</radialGradient>
<linearGradient id="paint5_linear_637_22387" x1="20.25" y1="37.9964" x2="19.2343" y2="37.9964" gradientUnits="userSpaceOnUse">
<stop stop-color="#CA7A27"/>
<stop offset="1" stop-color="#CA7A27" stop-opacity="0"/>
</linearGradient>
<linearGradient id="paint6_linear_637_22387" x1="23.4583" y1="35.2657" x2="23.4583" y2="37.2813" gradientUnits="userSpaceOnUse">
<stop stop-color="#C96D32"/>
<stop offset="1" stop-color="#FA945D"/>
</linearGradient>
<linearGradient id="paint7_linear_637_22387" x1="30.5625" y1="28.5" x2="30.5625" y2="34.25" gradientUnits="userSpaceOnUse">
<stop stop-color="#ED1C26"/>
<stop offset="1" stop-color="#EC098C"/>
</linearGradient>
<linearGradient id="paint8_linear_637_22387" x1="32.126" y1="36.9375" x2="32.126" y2="32.5" gradientUnits="userSpaceOnUse">
<stop stop-color="#A73078"/>
<stop offset="1" stop-color="#A73078" stop-opacity="0"/>
</linearGradient>
<linearGradient id="paint9_linear_637_22387" x1="20.2588" y1="37.4375" x2="20.2588" y2="19.875" gradientUnits="userSpaceOnUse">
<stop stop-color="#B2286C"/>
<stop offset="1" stop-color="#EF348D"/>
</linearGradient>
<linearGradient id="paint10_linear_637_22387" x1="20.9375" y1="34.9964" x2="20.9375" y2="21.875" gradientUnits="userSpaceOnUse">
<stop stop-color="#A73078"/>
<stop offset="1" stop-color="#A73078" stop-opacity="0"/>
</linearGradient>
<radialGradient id="paint11_radial_637_22387" cx="0" cy="0" r="1" gradientUnits="userSpaceOnUse" gradientTransform="translate(14.125 31.5625) rotate(-28.0977) scale(8.3603 13.3571)">
<stop stop-color="#BE476B"/>
<stop offset="1" stop-color="#BE476B" stop-opacity="0"/>
</radialGradient>
<radialGradient id="paint12_radial_637_22387" cx="0" cy="0" r="1" gradientUnits="userSpaceOnUse" gradientTransform="translate(15.9844 16.5625) rotate(46.3639) scale(1.85668 2.53669)">
<stop stop-color="#D52855"/>
<stop offset="0.875256" stop-color="#D52855" stop-opacity="0"/>
</radialGradient>
<radialGradient id="paint13_radial_637_22387" cx="0" cy="0" r="1" gradientUnits="userSpaceOnUse" gradientTransform="translate(21.4063 14.1562) rotate(160.866) scale(3.24158 5.45946)">
<stop stop-color="#FF58A2"/>
<stop offset="1" stop-color="#FF58A2" stop-opacity="0"/>
</radialGradient>
<radialGradient id="paint14_radial_637_22387" cx="0" cy="0" r="1" gradientUnits="userSpaceOnUse" gradientTransform="translate(16.9688 34.2969) scale(4.67188 1.79441)">
<stop stop-color="#B05282"/>
<stop offset="1" stop-color="#B05282" stop-opacity="0"/>
</radialGradient>
<radialGradient id="paint15_radial_637_22387" cx="0" cy="0" r="1" gradientUnits="userSpaceOnUse" gradientTransform="translate(29.9063 33.6562) rotate(-126.809) scale(17.525 8.41976)">
<stop offset="0.926023" stop-color="#CA8A2A" stop-opacity="0"/>
<stop offset="1" stop-color="#CA8A2A"/>
</radialGradient>
<radialGradient id="paint16_radial_637_22387" cx="0" cy="0" r="1" gradientUnits="userSpaceOnUse" gradientTransform="translate(24.4375 27.8225) rotate(134.774) scale(5.59061 11.0507)">
<stop offset="0.751508" stop-color="#3748D4" stop-opacity="0"/>
<stop offset="0.953007" stop-color="#3748D5"/>
</radialGradient>
<linearGradient id="paint17_linear_637_22387" x1="19.125" y1="31.385" x2="15.0625" y2="21.26" gradientUnits="userSpaceOnUse">
<stop stop-color="#3748D4" stop-opacity="0"/>
<stop offset="0.953007" stop-color="#3748D5"/>
</linearGradient>
<radialGradient id="paint18_radial_637_22387" cx="0" cy="0" r="1" gradientUnits="userSpaceOnUse" gradientTransform="translate(27.0625 31.26) rotate(124.854) scale(2.13257 3.36112)">
<stop stop-color="#429BF6"/>
<stop offset="1" stop-color="#429BF6" stop-opacity="0"/>
</radialGradient>
<radialGradient id="paint19_radial_637_22387" cx="0" cy="0" r="1" gradientUnits="userSpaceOnUse" gradientTransform="translate(19.1943 13.7377) rotate(125.838) scale(1.38773 1.23721)">
<stop offset="0.00558659" stop-color="#433437"/>
<stop offset="1" stop-color="#3B2838"/>
</radialGradient>
<radialGradient id="paint20_radial_637_22387" cx="0" cy="0" r="1" gradientUnits="userSpaceOnUse" gradientTransform="translate(19.2712 13.8094) rotate(137.643) scale(0.71892 0.632475)">
<stop stop-color="#5C5051"/>
<stop offset="1" stop-color="#5C5051" stop-opacity="0"/>
</radialGradient>
<linearGradient id="paint21_linear_637_22387" x1="18.7009" y1="13.274" x2="18.0134" y2="12.8365" gradientUnits="userSpaceOnUse">
<stop stop-color="#5C5051" stop-opacity="0"/>
<stop offset="1" stop-color="#5C5051"/>
</linearGradient>
<radialGradient id="paint22_radial_637_22387" cx="0" cy="0" r="1" gradientUnits="userSpaceOnUse" gradientTransform="translate(15.4531 15.0625) rotate(95.2497) scale(3.7501 3.79582)">
<stop offset="0.330357" stop-color="#FAAD22"/>
<stop offset="0.790567" stop-color="#C96528"/>
</radialGradient>
<radialGradient id="paint23_radial_637_22387" cx="0" cy="0" r="1" gradientUnits="userSpaceOnUse" gradientTransform="translate(14.6875 14.5) rotate(129.152) scale(4.11041 5.01882)">
<stop stop-color="#FFD151"/>
<stop offset="1" stop-color="#EC9A49"/>
</radialGradient>
<linearGradient id="paint24_linear_637_22387" x1="13.4219" y1="13.5898" x2="15.0937" y2="14.9134" gradientUnits="userSpaceOnUse">
<stop stop-color="#FFD749"/>
<stop offset="1" stop-color="#FFD749" stop-opacity="0"/>
</linearGradient>
<linearGradient id="paint25_linear_637_22387" x1="35.4155" y1="30.1562" x2="28.5049" y2="33.0312" gradientUnits="userSpaceOnUse">
<stop stop-color="#FF5C80"/>
<stop offset="1" stop-color="#FF5C80" stop-opacity="0"/>
</linearGradient>
<radialGradient id="paint26_radial_637_22387" cx="0" cy="0" r="1" gradientUnits="userSpaceOnUse" gradientTransform="translate(35.4155 29.2813) rotate(143.665) scale(3.26998 1.30937)">
<stop stop-color="#FF5B7E"/>
<stop offset="1" stop-color="#FF5B7E" stop-opacity="0"/>
</radialGradient>
<linearGradient id="paint27_linear_637_22387" x1="23.4583" y1="36.1094" x2="23.4583" y2="38.2188" gradientUnits="userSpaceOnUse">
<stop stop-color="#C96D32"/>
<stop offset="1" stop-color="#FA945D"/>
</linearGradient>
<linearGradient id="paint28_linear_637_22387" x1="23.46" y1="37.9964" x2="23.46" y2="37.5469" gradientUnits="userSpaceOnUse">
<stop stop-color="#FA816E"/>
<stop offset="1" stop-color="#FA816E" stop-opacity="0"/>
</linearGradient>
<radialGradient id="paint29_radial_637_22387" cx="0" cy="0" r="1" gradientUnits="userSpaceOnUse" gradientTransform="translate(26.96 36.8594) rotate(180) scale(1.20999 0.796875)">
<stop stop-color="#F9A95B"/>
<stop offset="1" stop-color="#F9A95B" stop-opacity="0"/>
</radialGradient>
<radialGradient id="paint30_radial_637_22387" cx="0" cy="0" r="1" gradientUnits="userSpaceOnUse" gradientTransform="translate(19.7187 37.2482) scale(0.90625 0.890351)">
<stop stop-color="#F9A95B"/>
<stop offset="1" stop-color="#F9A95B" stop-opacity="0"/>
</radialGradient>
</defs>
</svg>
