<svg width="48" height="48" viewBox="0 0 48 48" fill="none" xmlns="http://www.w3.org/2000/svg">
<rect width="48" height="48" rx="24" fill="#F2F5FF"/>
<path d="M15.7668 22.0701C18.2823 22.0701 20.3215 20.0309 20.3215 17.5154C20.3215 14.9999 18.2823 12.9607 15.7668 12.9607C13.2514 12.9607 11.2122 14.9999 11.2122 17.5154C11.2122 20.0309 13.2514 22.0701 15.7668 22.0701Z" fill="url(#paint0_linear_637_22374)"/>
<path d="M15.7668 22.0701C18.2823 22.0701 20.3215 20.0309 20.3215 17.5154C20.3215 14.9999 18.2823 12.9607 15.7668 12.9607C13.2514 12.9607 11.2122 14.9999 11.2122 17.5154C11.2122 20.0309 13.2514 22.0701 15.7668 22.0701Z" fill="url(#paint1_linear_637_22374)"/>
<path d="M15.7668 22.0701C18.2823 22.0701 20.3215 20.0309 20.3215 17.5154C20.3215 14.9999 18.2823 12.9607 15.7668 12.9607C13.2514 12.9607 11.2122 14.9999 11.2122 17.5154C11.2122 20.0309 13.2514 22.0701 15.7668 22.0701Z" fill="url(#paint2_linear_637_22374)"/>
<path d="M15.7668 22.0701C18.2823 22.0701 20.3215 20.0309 20.3215 17.5154C20.3215 14.9999 18.2823 12.9607 15.7668 12.9607C13.2514 12.9607 11.2122 14.9999 11.2122 17.5154C11.2122 20.0309 13.2514 22.0701 15.7668 22.0701Z" fill="url(#paint3_radial_637_22374)"/>
<path d="M15.7668 22.0701C18.2823 22.0701 20.3215 20.0309 20.3215 17.5154C20.3215 14.9999 18.2823 12.9607 15.7668 12.9607C13.2514 12.9607 11.2122 14.9999 11.2122 17.5154C11.2122 20.0309 13.2514 22.0701 15.7668 22.0701Z" fill="url(#paint4_radial_637_22374)"/>
<path d="M32.6097 22.0701C35.1252 22.0701 37.1644 20.0309 37.1644 17.5154C37.1644 14.9999 35.1252 12.9607 32.6097 12.9607C30.0943 12.9607 28.0551 14.9999 28.0551 17.5154C28.0551 20.0309 30.0943 22.0701 32.6097 22.0701Z" fill="url(#paint5_linear_637_22374)"/>
<g filter="url(#filter0_f_637_22374)">
<path d="M36.6006 17.5154C36.6006 19.7196 34.8138 21.5064 32.6097 21.5064C30.4056 21.5064 28.6188 19.7196 28.6188 17.5154C28.6188 15.3113 30.4056 13.5245 32.6097 13.5245C34.8138 13.5245 36.6006 15.3113 36.6006 17.5154Z" stroke="url(#paint6_linear_637_22374)" stroke-width="0.3"/>
</g>
<g filter="url(#filter1_f_637_22374)">
<path d="M19.7828 17.5154C19.7828 19.7334 17.9848 21.5314 15.7669 21.5314C13.549 21.5314 11.751 19.7334 11.751 17.5154C11.751 15.2975 13.549 13.4995 15.7669 13.4995C17.9848 13.4995 19.7828 15.2975 19.7828 17.5154Z" stroke="url(#paint7_linear_637_22374)" stroke-width="0.25"/>
</g>
<g filter="url(#filter2_ii_637_22374)">
<path d="M38.235 27.8706C38.235 35.6006 31.965 37.7506 24.235 37.7506C16.505 37.7506 10.235 35.6006 10.235 27.8706C10.235 20.1406 16.505 13.8706 24.235 13.8706C31.965 13.8706 38.235 20.1306 38.235 27.8706Z" fill="url(#paint8_radial_637_22374)"/>
<path d="M38.235 27.8706C38.235 35.6006 31.965 37.7506 24.235 37.7506C16.505 37.7506 10.235 35.6006 10.235 27.8706C10.235 20.1406 16.505 13.8706 24.235 13.8706C31.965 13.8706 38.235 20.1306 38.235 27.8706Z" fill="url(#paint9_radial_637_22374)"/>
</g>
<path d="M38.235 27.8706C38.235 35.6006 31.965 37.7506 24.235 37.7506C16.505 37.7506 10.235 35.6006 10.235 27.8706C10.235 20.1406 16.505 13.8706 24.235 13.8706C31.965 13.8706 38.235 20.1306 38.235 27.8706Z" fill="url(#paint10_radial_637_22374)"/>
<path d="M38.235 27.8706C38.235 35.6006 31.965 37.7506 24.235 37.7506C16.505 37.7506 10.235 35.6006 10.235 27.8706C10.235 20.1406 16.505 13.8706 24.235 13.8706C31.965 13.8706 38.235 20.1306 38.235 27.8706Z" fill="url(#paint11_linear_637_22374)"/>
<path d="M38.235 27.8706C38.235 35.6006 31.965 37.7506 24.235 37.7506C16.505 37.7506 10.235 35.6006 10.235 27.8706C10.235 20.1406 16.505 13.8706 24.235 13.8706C31.965 13.8706 38.235 20.1306 38.235 27.8706Z" fill="url(#paint12_radial_637_22374)"/>
<path d="M20.9357 27.7967C19.3341 29.3983 17.2013 29.2654 15.8888 27.7967C14.381 26.1951 15.1629 24.1795 16.6076 22.6092C18.2247 20.8514 19.411 20.397 20.881 21.867C22.351 23.337 22.4057 26.3267 20.9357 27.7967Z" fill="url(#paint13_linear_637_22374)"/>
<path d="M20.9357 27.7967C19.3341 29.3983 17.2013 29.2654 15.8888 27.7967C14.381 26.1951 15.1629 24.1795 16.6076 22.6092C18.2247 20.8514 19.411 20.397 20.881 21.867C22.351 23.337 22.4057 26.3267 20.9357 27.7967Z" fill="url(#paint14_radial_637_22374)"/>
<path d="M27.0543 27.7967C28.6559 29.3983 30.7887 29.2654 32.1012 27.7967C33.609 26.1951 32.8271 24.1795 31.3824 22.6092C29.7653 20.8514 28.579 20.397 27.109 21.867C25.639 23.337 25.5843 26.3267 27.0543 27.7967Z" fill="url(#paint15_linear_637_22374)"/>
<path d="M27.0543 27.7967C28.6559 29.3983 30.7887 29.2654 32.1012 27.7967C33.609 26.1951 32.8271 24.1795 31.3824 22.6092C29.7653 20.8514 28.579 20.397 27.109 21.867C25.639 23.337 25.5843 26.3267 27.0543 27.7967Z" fill="url(#paint16_radial_637_22374)"/>
<g filter="url(#filter3_f_637_22374)">
<path d="M22.8648 27.2549H24.5623C25.2166 27.2549 25.5417 27.9487 25.2042 28.4884C24.8129 29.1143 24.2637 29.5077 24.2637 29.5077C24.083 29.6421 23.8937 29.7122 23.7136 29.7106C23.5334 29.7122 23.3442 29.6421 23.1634 29.5077C23.1634 29.5077 22.6143 29.1143 22.2229 28.4884C21.8854 27.9487 22.2106 27.2549 22.8648 27.2549Z" fill="#A081BC"/>
</g>
<path d="M23.1132 26.958H24.8868C25.5704 26.958 25.9102 27.6829 25.5575 28.2469C25.1486 28.9008 24.5748 29.3119 24.5748 29.3119C24.386 29.4523 24.1882 29.5255 24 29.524C23.8118 29.5255 23.6141 29.4523 23.4252 29.3119C23.4252 29.3119 22.8514 28.9008 22.4425 28.2469C22.0898 27.6829 22.4296 26.958 23.1132 26.958Z" fill="url(#paint17_linear_637_22374)"/>
<path d="M23.1132 26.958H24.8868C25.5704 26.958 25.9102 27.6829 25.5575 28.2469C25.1486 28.9008 24.5748 29.3119 24.5748 29.3119C24.386 29.4523 24.1882 29.5255 24 29.524C23.8118 29.5255 23.6141 29.4523 23.4252 29.3119C23.4252 29.3119 22.8514 28.9008 22.4425 28.2469C22.0898 27.6829 22.4296 26.958 23.1132 26.958Z" fill="url(#paint18_linear_637_22374)"/>
<path d="M23.1132 26.958H24.8868C25.5704 26.958 25.9102 27.6829 25.5575 28.2469C25.1486 28.9008 24.5748 29.3119 24.5748 29.3119C24.386 29.4523 24.1882 29.5255 24 29.524C23.8118 29.5255 23.6141 29.4523 23.4252 29.3119C23.4252 29.3119 22.8514 28.9008 22.4425 28.2469C22.0898 27.6829 22.4296 26.958 23.1132 26.958Z" fill="url(#paint19_linear_637_22374)"/>
<path d="M23.1132 26.958H24.8868C25.5704 26.958 25.9102 27.6829 25.5575 28.2469C25.1486 28.9008 24.5748 29.3119 24.5748 29.3119C24.386 29.4523 24.1882 29.5255 24 29.524C23.8118 29.5255 23.6141 29.4523 23.4252 29.3119C23.4252 29.3119 22.8514 28.9008 22.4425 28.2469C22.0898 27.6829 22.4296 26.958 23.1132 26.958Z" fill="url(#paint20_radial_637_22374)"/>
<path d="M23.1132 26.958H24.8868C25.5704 26.958 25.9102 27.6829 25.5575 28.2469C25.1486 28.9008 24.5748 29.3119 24.5748 29.3119C24.386 29.4523 24.1882 29.5255 24 29.524C23.8118 29.5255 23.6141 29.4523 23.4252 29.3119C23.4252 29.3119 22.8514 28.9008 22.4425 28.2469C22.0898 27.6829 22.4296 26.958 23.1132 26.958Z" fill="url(#paint21_radial_637_22374)"/>
<g filter="url(#filter4_f_637_22374)">
<rect x="18.8528" y="23.3669" width="1.46875" height="2.80469" rx="0.734375" fill="#45366A"/>
</g>
<g filter="url(#filter5_f_637_22374)">
<rect x="26.884" y="23.3669" width="1.46875" height="2.80469" rx="0.734375" fill="#45366A"/>
</g>
<rect x="19.2677" y="22.9607" width="1.46875" height="2.97656" rx="0.734375" fill="url(#paint22_linear_637_22374)"/>
<rect x="19.2677" y="22.9607" width="1.46875" height="2.97656" rx="0.734375" fill="url(#paint23_linear_637_22374)"/>
<rect width="1.46875" height="2.97656" rx="0.734375" transform="matrix(-1 0 0 1 28.7223 22.9607)" fill="url(#paint24_linear_637_22374)"/>
<rect width="1.46875" height="2.97656" rx="0.734375" transform="matrix(-1 0 0 1 28.7223 22.9607)" fill="url(#paint25_linear_637_22374)"/>
<g filter="url(#filter6_f_637_22374)">
<path fill-rule="evenodd" clip-rule="evenodd" d="M21.0114 31.0189C21.0114 30.7571 20.7992 30.5449 20.5374 30.5449C20.2757 30.5449 20.0635 30.7571 20.0635 31.0189C20.0635 32.2326 20.978 33.2883 22.1868 33.2883C22.8692 33.2883 23.4577 32.9519 23.841 32.4407C24.2242 32.9519 24.8128 33.2883 25.4951 33.2883C26.704 33.2883 27.6185 32.2326 27.6185 31.0189C27.6185 30.7571 27.4063 30.5449 27.1445 30.5449C26.8828 30.5449 26.6706 30.7571 26.6706 31.0189C26.6706 31.7864 26.1063 32.3404 25.4951 32.3404C24.8839 32.3404 24.3197 31.7864 24.3197 31.0189C24.3197 30.7571 24.1075 30.5449 23.8457 30.5449C23.8441 30.5449 23.8426 30.5449 23.841 30.5449C23.8394 30.5449 23.8378 30.5449 23.8363 30.5449C23.5745 30.5449 23.3623 30.7571 23.3623 31.0189C23.3623 31.7864 22.798 32.3404 22.1868 32.3404C21.5756 32.3404 21.0114 31.7864 21.0114 31.0189Z" fill="#A081BC"/>
</g>
<path d="M23.99 30.6033C23.99 31.6483 23.21 32.4973 22.25 32.4973C21.29 32.4973 20.51 31.6483 20.51 30.6033" stroke="url(#paint26_radial_637_22374)" stroke-miterlimit="10" stroke-linecap="round"/>
<path d="M27.48 30.6033C27.48 31.6483 26.7 32.4973 25.74 32.4973C24.78 32.4973 24 31.6483 24 30.6033" stroke="url(#paint27_radial_637_22374)" stroke-miterlimit="10" stroke-linecap="round"/>
<g filter="url(#filter7_f_637_22374)">
<path d="M20.51 30.6033C20.5517 31.1241 21.0444 32.1845 22.1194 32.2595C23.4631 32.3533 23.9319 31.2908 23.9788 30.6033C23.9527 31.1554 24.5569 32.3376 25.8225 32.3376C26.91 32.3376 27.4215 31.1554 27.4788 30.6033" stroke="url(#paint28_linear_637_22374)" stroke-width="0.25" stroke-linecap="round" stroke-linejoin="round"/>
</g>
<g filter="url(#filter8_f_637_22374)">
<rect x="20.0865" y="23.406" width="0.353119" height="1.84375" rx="0.176559" fill="#665A5C"/>
</g>
<g filter="url(#filter9_f_637_22374)">
<rect x="28.0551" y="23.406" width="0.353119" height="1.84375" rx="0.176559" fill="#665A5C"/>
</g>
<defs>
<filter id="filter0_f_637_22374" x="27.8687" y="12.7745" width="9.48186" height="9.48186" filterUnits="userSpaceOnUse" color-interpolation-filters="sRGB">
<feFlood flood-opacity="0" result="BackgroundImageFix"/>
<feBlend mode="normal" in="SourceGraphic" in2="BackgroundImageFix" result="shape"/>
<feGaussianBlur stdDeviation="0.3" result="effect1_foregroundBlur_637_22374"/>
</filter>
<filter id="filter1_f_637_22374" x="11.126" y="12.8745" width="9.28186" height="9.28186" filterUnits="userSpaceOnUse" color-interpolation-filters="sRGB">
<feFlood flood-opacity="0" result="BackgroundImageFix"/>
<feBlend mode="normal" in="SourceGraphic" in2="BackgroundImageFix" result="shape"/>
<feGaussianBlur stdDeviation="0.25" result="effect1_foregroundBlur_637_22374"/>
</filter>
<filter id="filter2_ii_637_22374" x="10.235" y="12.8706" width="29" height="25.38" filterUnits="userSpaceOnUse" color-interpolation-filters="sRGB">
<feFlood flood-opacity="0" result="BackgroundImageFix"/>
<feBlend mode="normal" in="SourceGraphic" in2="BackgroundImageFix" result="shape"/>
<feColorMatrix in="SourceAlpha" type="matrix" values="0 0 0 0 0 0 0 0 0 0 0 0 0 0 0 0 0 0 127 0" result="hardAlpha"/>
<feOffset dx="1" dy="0.5"/>
<feGaussianBlur stdDeviation="1"/>
<feComposite in2="hardAlpha" operator="arithmetic" k2="-1" k3="1"/>
<feColorMatrix type="matrix" values="0 0 0 0 0.596078 0 0 0 0 0.584314 0 0 0 0 0.643137 0 0 0 0.6 0"/>
<feBlend mode="normal" in2="shape" result="effect1_innerShadow_637_22374"/>
<feColorMatrix in="SourceAlpha" type="matrix" values="0 0 0 0 0 0 0 0 0 0 0 0 0 0 0 0 0 0 127 0" result="hardAlpha"/>
<feOffset dy="-1"/>
<feGaussianBlur stdDeviation="1"/>
<feComposite in2="hardAlpha" operator="arithmetic" k2="-1" k3="1"/>
<feColorMatrix type="matrix" values="0 0 0 0 0.686275 0 0 0 0 0.490196 0 0 0 0 0.862745 0 0 0 1 0"/>
<feBlend mode="normal" in2="effect1_innerShadow_637_22374" result="effect2_innerShadow_637_22374"/>
</filter>
<filter id="filter3_f_637_22374" x="21.5879" y="26.7549" width="4.25134" height="3.45581" filterUnits="userSpaceOnUse" color-interpolation-filters="sRGB">
<feFlood flood-opacity="0" result="BackgroundImageFix"/>
<feBlend mode="normal" in="SourceGraphic" in2="BackgroundImageFix" result="shape"/>
<feGaussianBlur stdDeviation="0.25" result="effect1_foregroundBlur_637_22374"/>
</filter>
<filter id="filter4_f_637_22374" x="18.3528" y="22.8669" width="2.46875" height="3.80469" filterUnits="userSpaceOnUse" color-interpolation-filters="sRGB">
<feFlood flood-opacity="0" result="BackgroundImageFix"/>
<feBlend mode="normal" in="SourceGraphic" in2="BackgroundImageFix" result="shape"/>
<feGaussianBlur stdDeviation="0.25" result="effect1_foregroundBlur_637_22374"/>
</filter>
<filter id="filter5_f_637_22374" x="26.384" y="22.8669" width="2.46875" height="3.80469" filterUnits="userSpaceOnUse" color-interpolation-filters="sRGB">
<feFlood flood-opacity="0" result="BackgroundImageFix"/>
<feBlend mode="normal" in="SourceGraphic" in2="BackgroundImageFix" result="shape"/>
<feGaussianBlur stdDeviation="0.25" result="effect1_foregroundBlur_637_22374"/>
</filter>
<filter id="filter6_f_637_22374" x="19.5635" y="30.0449" width="8.55505" height="3.74341" filterUnits="userSpaceOnUse" color-interpolation-filters="sRGB">
<feFlood flood-opacity="0" result="BackgroundImageFix"/>
<feBlend mode="normal" in="SourceGraphic" in2="BackgroundImageFix" result="shape"/>
<feGaussianBlur stdDeviation="0.25" result="effect1_foregroundBlur_637_22374"/>
</filter>
<filter id="filter7_f_637_22374" x="20.135" y="30.2283" width="7.71875" height="2.48438" filterUnits="userSpaceOnUse" color-interpolation-filters="sRGB">
<feFlood flood-opacity="0" result="BackgroundImageFix"/>
<feBlend mode="normal" in="SourceGraphic" in2="BackgroundImageFix" result="shape"/>
<feGaussianBlur stdDeviation="0.125" result="effect1_foregroundBlur_637_22374"/>
</filter>
<filter id="filter8_f_637_22374" x="19.5865" y="22.906" width="1.35315" height="2.84375" filterUnits="userSpaceOnUse" color-interpolation-filters="sRGB">
<feFlood flood-opacity="0" result="BackgroundImageFix"/>
<feBlend mode="normal" in="SourceGraphic" in2="BackgroundImageFix" result="shape"/>
<feGaussianBlur stdDeviation="0.25" result="effect1_foregroundBlur_637_22374"/>
</filter>
<filter id="filter9_f_637_22374" x="27.5551" y="22.906" width="1.35315" height="2.84375" filterUnits="userSpaceOnUse" color-interpolation-filters="sRGB">
<feFlood flood-opacity="0" result="BackgroundImageFix"/>
<feBlend mode="normal" in="SourceGraphic" in2="BackgroundImageFix" result="shape"/>
<feGaussianBlur stdDeviation="0.25" result="effect1_foregroundBlur_637_22374"/>
</filter>
<linearGradient id="paint0_linear_637_22374" x1="12.61" y1="19.4294" x2="17.9225" y2="12.5544" gradientUnits="userSpaceOnUse">
<stop stop-color="#6363A2"/>
<stop offset="1" stop-color="#5A4A8A"/>
</linearGradient>
<linearGradient id="paint1_linear_637_22374" x1="16.9225" y1="17.5154" x2="16.0787" y2="12.0857" gradientUnits="userSpaceOnUse">
<stop offset="0.549155" stop-color="#4D4175" stop-opacity="0"/>
<stop offset="1" stop-color="#4D4175"/>
</linearGradient>
<linearGradient id="paint2_linear_637_22374" x1="15.0787" y1="17.6638" x2="14.1569" y2="16.8982" gradientUnits="userSpaceOnUse">
<stop stop-color="#4E4B84"/>
<stop offset="1" stop-color="#4E4B84" stop-opacity="0"/>
</linearGradient>
<radialGradient id="paint3_radial_637_22374" cx="0" cy="0" r="1" gradientUnits="userSpaceOnUse" gradientTransform="translate(20.0787 13.9294) rotate(146.983) scale(10.3233 4.71988)">
<stop offset="0.869329" stop-color="#4E4B84" stop-opacity="0"/>
<stop offset="1" stop-color="#4E4B84"/>
</radialGradient>
<radialGradient id="paint4_radial_637_22374" cx="0" cy="0" r="1" gradientUnits="userSpaceOnUse" gradientTransform="translate(20.3215 13.9607) rotate(153.909) scale(3.83693 5.37999)">
<stop stop-color="#5A4482"/>
<stop offset="1" stop-color="#5A4482" stop-opacity="0"/>
</radialGradient>
<linearGradient id="paint5_linear_637_22374" x1="29.3288" y1="15.9607" x2="37.1644" y2="16.3357" gradientUnits="userSpaceOnUse">
<stop stop-color="#6363A2"/>
<stop offset="1" stop-color="#5A4A8A"/>
</linearGradient>
<linearGradient id="paint6_linear_637_22374" x1="36.7506" y1="19.6014" x2="29.9381" y2="13.492" gradientUnits="userSpaceOnUse">
<stop stop-color="#9A8BBD" stop-opacity="0"/>
<stop offset="0.378229" stop-color="#A997CF"/>
<stop offset="1" stop-color="#9A8BBD" stop-opacity="0"/>
</linearGradient>
<linearGradient id="paint7_linear_637_22374" x1="19.9078" y1="19.6014" x2="13.0953" y2="13.492" gradientUnits="userSpaceOnUse">
<stop stop-color="#9A8BBD" stop-opacity="0"/>
<stop offset="0.378229" stop-color="#A997CF"/>
<stop offset="1" stop-color="#9A8BBD" stop-opacity="0"/>
</linearGradient>
<radialGradient id="paint8_radial_637_22374" cx="0" cy="0" r="1" gradientUnits="userSpaceOnUse" gradientTransform="translate(24.235 18.2549) rotate(90) scale(18.3932)">
<stop stop-color="#EBE3F5"/>
<stop offset="1" stop-color="#DAC8ED"/>
</radialGradient>
<radialGradient id="paint9_radial_637_22374" cx="0" cy="0" r="1" gradientUnits="userSpaceOnUse" gradientTransform="translate(24.235 36.8356) rotate(-90) scale(11.025 31.318)">
<stop stop-color="#C7B0DE"/>
<stop offset="1" stop-color="#C7B0DE" stop-opacity="0"/>
</radialGradient>
<radialGradient id="paint10_radial_637_22374" cx="0" cy="0" r="1" gradientUnits="userSpaceOnUse" gradientTransform="translate(34.4225 19.5856) rotate(138.552) scale(6.42049 16.4397)">
<stop stop-color="#F4F2F8"/>
<stop offset="1" stop-color="#F4F2F8" stop-opacity="0"/>
</radialGradient>
<linearGradient id="paint11_linear_637_22374" x1="39.11" y1="33.2106" x2="34.5475" y2="31.7731" gradientUnits="userSpaceOnUse">
<stop stop-color="#E1D3F1"/>
<stop offset="1" stop-color="#E1D3F1" stop-opacity="0"/>
</linearGradient>
<radialGradient id="paint12_radial_637_22374" cx="0" cy="0" r="1" gradientUnits="userSpaceOnUse" gradientTransform="translate(16.2975 22.7106) rotate(23.798) scale(24.3176 18.5159)">
<stop offset="0.896988" stop-color="#BAB0C7" stop-opacity="0"/>
<stop offset="0.991591" stop-color="#BAB0C7"/>
</radialGradient>
<linearGradient id="paint13_linear_637_22374" x1="18.4987" y1="21.105" x2="18.4987" y2="27.5545" gradientUnits="userSpaceOnUse">
<stop stop-color="#706AA5"/>
<stop offset="1" stop-color="#604685"/>
</linearGradient>
<radialGradient id="paint14_radial_637_22374" cx="0" cy="0" r="1" gradientUnits="userSpaceOnUse" gradientTransform="translate(22.985 24.9676) rotate(180) scale(3.8125 5.39683)">
<stop offset="0.0139847" stop-color="#5F4E87"/>
<stop offset="1" stop-color="#5F4E87" stop-opacity="0"/>
</radialGradient>
<linearGradient id="paint15_linear_637_22374" x1="29.4913" y1="20.9866" x2="29.4913" y2="30.0233" gradientUnits="userSpaceOnUse">
<stop stop-color="#706AA5"/>
<stop offset="1" stop-color="#604685"/>
</linearGradient>
<radialGradient id="paint16_radial_637_22374" cx="0" cy="0" r="1" gradientUnits="userSpaceOnUse" gradientTransform="translate(25.485 27.1483) rotate(-33.1994) scale(3.98256 5.63757)">
<stop offset="0.0139847" stop-color="#5F4E87"/>
<stop offset="1" stop-color="#5F4E87" stop-opacity="0"/>
</radialGradient>
<linearGradient id="paint17_linear_637_22374" x1="23.8644" y1="26.1169" x2="24.2833" y2="29.5819" gradientUnits="userSpaceOnUse">
<stop stop-color="#5F5254"/>
<stop offset="1" stop-color="#2E2127"/>
</linearGradient>
<linearGradient id="paint18_linear_637_22374" x1="23.7637" y1="27.6311" x2="23.7637" y2="26.4271" gradientUnits="userSpaceOnUse">
<stop offset="0.146552" stop-color="#34222C" stop-opacity="0"/>
<stop offset="0.872727" stop-color="#34222C"/>
</linearGradient>
<linearGradient id="paint19_linear_637_22374" x1="23.1605" y1="29.6505" x2="23.1605" y2="27.8302" gradientUnits="userSpaceOnUse">
<stop stop-color="#552D52"/>
<stop offset="0.713744" stop-color="#552D52" stop-opacity="0"/>
</linearGradient>
<radialGradient id="paint20_radial_637_22374" cx="0" cy="0" r="1" gradientUnits="userSpaceOnUse" gradientTransform="translate(21.8596 28.7551) rotate(-18.752) scale(4.48262 2.01281)">
<stop offset="0.827602" stop-color="#5C5458" stop-opacity="0"/>
<stop offset="0.935007" stop-color="#5C5458"/>
</radialGradient>
<radialGradient id="paint21_radial_637_22374" cx="0" cy="0" r="1" gradientUnits="userSpaceOnUse" gradientTransform="translate(25.6986 27.3044) rotate(148.131) scale(1.47909 0.532085)">
<stop stop-color="#6A5C5E"/>
<stop offset="0.80779" stop-color="#6A5C5E" stop-opacity="0"/>
</radialGradient>
<linearGradient id="paint22_linear_637_22374" x1="20.6569" y1="24.5857" x2="19.8131" y2="24.5857" gradientUnits="userSpaceOnUse">
<stop stop-color="#594C4F"/>
<stop offset="1" stop-color="#413039"/>
</linearGradient>
<linearGradient id="paint23_linear_637_22374" x1="20.9659" y1="26.2732" x2="20.9659" y2="25.2107" gradientUnits="userSpaceOnUse">
<stop stop-color="#492847"/>
<stop offset="1" stop-color="#552D52" stop-opacity="0"/>
</linearGradient>
<linearGradient id="paint24_linear_637_22374" x1="-0.0908508" y1="1.30225" x2="0.893524" y2="1.30225" gradientUnits="userSpaceOnUse">
<stop stop-color="#594C4F"/>
<stop offset="1" stop-color="#413039"/>
</linearGradient>
<linearGradient id="paint25_linear_637_22374" x1="1.69824" y1="2.97656" x2="1.69824" y2="2.0625" gradientUnits="userSpaceOnUse">
<stop stop-color="#492847"/>
<stop offset="1" stop-color="#552D52" stop-opacity="0"/>
</linearGradient>
<radialGradient id="paint26_radial_637_22374" cx="0" cy="0" r="1" gradientUnits="userSpaceOnUse" gradientTransform="translate(22.244 30.9764) rotate(90) scale(1.71875 3.74337)">
<stop offset="0.00558659" stop-color="#423539"/>
<stop offset="1" stop-color="#472849"/>
</radialGradient>
<radialGradient id="paint27_radial_637_22374" cx="0" cy="0" r="1" gradientUnits="userSpaceOnUse" gradientTransform="translate(25.734 31.5503) rotate(90) scale(1.62922 2.82735)">
<stop offset="0.00558659" stop-color="#423539"/>
<stop offset="1" stop-color="#472849"/>
</radialGradient>
<linearGradient id="paint28_linear_637_22374" x1="20.3225" y1="31.1033" x2="27.8381" y2="31.1033" gradientUnits="userSpaceOnUse">
<stop stop-color="#5F5356"/>
<stop offset="0.288981" stop-color="#5F5356" stop-opacity="0"/>
<stop offset="0.444906" stop-color="#5F5356" stop-opacity="0"/>
<stop offset="0.534304" stop-color="#5F5356"/>
<stop offset="1" stop-color="#5F5356" stop-opacity="0"/>
</linearGradient>
</defs>
</svg>
