<svg width="48" height="48" viewBox="0 0 48 48" fill="none" xmlns="http://www.w3.org/2000/svg">
<rect width="48" height="48" rx="24" fill="#F2F5FF"/>
<g filter="url(#filter0_i_637_22380)">
<path d="M13.825 20.7031C13.1452 20.0388 11.4726 17.6167 12.0906 15.5156C12.8262 13.0148 15.5249 13.0873 16.5828 13.8047C17.7235 14.5781 18.7235 14.8047 19.7044 13.8497C20.473 13.1015 20.4344 10.8438 18.2625 10.6797" stroke="url(#paint0_linear_637_22380)" stroke-width="1.93806" stroke-linecap="round"/>
<path d="M13.825 20.7031C13.1452 20.0388 11.4726 17.6167 12.0906 15.5156C12.8262 13.0148 15.5249 13.0873 16.5828 13.8047C17.7235 14.5781 18.7235 14.8047 19.7044 13.8497C20.473 13.1015 20.4344 10.8438 18.2625 10.6797" stroke="url(#paint1_radial_637_22380)" stroke-width="1.93806" stroke-linecap="round"/>
<path d="M13.825 20.7031C13.1452 20.0388 11.4726 17.6167 12.0906 15.5156C12.8262 13.0148 15.5249 13.0873 16.5828 13.8047C17.7235 14.5781 18.7235 14.8047 19.7044 13.8497C20.473 13.1015 20.4344 10.8438 18.2625 10.6797" stroke="url(#paint2_radial_637_22380)" stroke-width="1.93806" stroke-linecap="round"/>
<path d="M13.825 20.7031C13.1452 20.0388 11.4726 17.6167 12.0906 15.5156C12.8262 13.0148 15.5249 13.0873 16.5828 13.8047C17.7235 14.5781 18.7235 14.8047 19.7044 13.8497C20.473 13.1015 20.4344 10.8438 18.2625 10.6797" stroke="url(#paint3_radial_637_22380)" stroke-width="1.93806" stroke-linecap="round"/>
</g>
<path d="M13.825 20.7031C13.1452 20.0388 11.4726 17.6167 12.0906 15.5156C12.8262 13.0148 15.5249 13.0873 16.5828 13.8047C17.7235 14.5781 18.7235 14.8047 19.7044 13.8497C20.473 13.1015 20.4344 10.8438 18.2625 10.6797" stroke="url(#paint4_radial_637_22380)" stroke-width="1.93806" stroke-linecap="round"/>
<path d="M13.825 20.7031C13.1452 20.0388 11.4726 17.6167 12.0906 15.5156C12.8262 13.0148 15.5249 13.0873 16.5828 13.8047C17.7235 14.5781 18.7235 14.8047 19.7044 13.8497C20.473 13.1015 20.4344 10.8438 18.2625 10.6797" stroke="url(#paint5_radial_637_22380)" stroke-width="1.93806" stroke-linecap="round"/>
<path d="M13.825 20.7031C13.1452 20.0388 11.4726 17.6167 12.0906 15.5156C12.8262 13.0148 15.5249 13.0873 16.5828 13.8047C17.7235 14.5781 18.7235 14.8047 19.7044 13.8497C20.473 13.1015 20.4344 10.8438 18.2625 10.6797" stroke="url(#paint6_radial_637_22380)" stroke-width="1.93806" stroke-linecap="round"/>
<path d="M13.825 20.7031C13.1452 20.0388 11.4726 17.6167 12.0906 15.5156C12.8262 13.0148 15.5249 13.0873 16.5828 13.8047C17.7235 14.5781 18.7235 14.8047 19.7044 13.8497C20.473 13.1015 20.4344 10.8438 18.2625 10.6797" stroke="url(#paint7_radial_637_22380)" stroke-width="1.93806" stroke-linecap="round"/>
<path d="M13.825 20.7031C13.1452 20.0388 11.4726 17.6167 12.0906 15.5156C12.8262 13.0148 15.5249 13.0873 16.5828 13.8047C17.7235 14.5781 18.7235 14.8047 19.7044 13.8497C20.473 13.1015 20.4344 10.8438 18.2625 10.6797" stroke="url(#paint8_radial_637_22380)" stroke-width="1.93806" stroke-linecap="round"/>
<g filter="url(#filter1_f_637_22380)">
<path d="M14.215 13.7344C13.465 13.8438 12.2931 14.5188 12.1681 16.3438C12.063 17.8785 13.3191 19.6979 13.7775 20.25" stroke="url(#paint9_linear_637_22380)" stroke-width="0.8" stroke-linecap="round"/>
</g>
<g filter="url(#filter2_i_637_22380)">
<path d="M12.525 26.8281L13.7169 28.02C13.9869 28.29 14.4169 28.29 14.6869 28.02L15.8297 26.8281H12.525Z" fill="#FFDDFF"/>
</g>
<g filter="url(#filter3_i_637_22380)">
<path d="M15.2438 26.7891L16.4513 28.02C16.7213 28.29 17.1513 28.29 17.4213 28.02L18.6266 26.7891H15.2438Z" fill="#FFDDFF"/>
</g>
<g filter="url(#filter4_i_637_22380)">
<path d="M17.8375 26.75L19.17 28.02C19.44 28.29 19.87 28.29 20.14 28.02L21.2438 26.75H17.8375Z" fill="#FFDDFF"/>
</g>
<path d="M27.0094 27.0002H33.5194C36.5003 27.0002 38.5563 24.99 38.5563 22.5V21.1875C38.5563 20.6075 38.2613 20.0625 37.6813 20.0625H27.5463L27.0094 27.0002Z" fill="#E13A8E"/>
<path d="M27.0094 27.0002H33.5194C36.5003 27.0002 38.5563 24.99 38.5563 22.5V21.1875C38.5563 20.6075 38.2613 20.0625 37.6813 20.0625H27.5463L27.0094 27.0002Z" fill="url(#paint10_radial_637_22380)"/>
<path d="M27.0094 27.0002H33.5194C36.5003 27.0002 38.5563 24.99 38.5563 22.5V21.1875C38.5563 20.6075 38.2613 20.0625 37.6813 20.0625H27.5463L27.0094 27.0002Z" fill="url(#paint11_linear_637_22380)"/>
<path d="M27.0094 27.0002H33.5194C36.5003 27.0002 38.5563 24.99 38.5563 22.5V21.1875C38.5563 20.6075 38.2613 20.0625 37.6813 20.0625H27.5463L27.0094 27.0002Z" fill="url(#paint12_radial_637_22380)"/>
<path d="M27.6656 37.9209H34.1969C37.0744 37.9209 38.6656 35.5159 38.6656 31.7609V28.1096C38.6656 27.3796 38.0656 26.9688 37.3356 26.9688H27.6656V37.9209Z" fill="#E13A8E"/>
<path d="M27.6656 37.9209H34.1969C37.0744 37.9209 38.6656 35.5159 38.6656 31.7609V28.1096C38.6656 27.3796 38.0656 26.9688 37.3356 26.9688H27.6656V37.9209Z" fill="url(#paint13_linear_637_22380)"/>
<path d="M27.6656 37.9209H34.1969C37.0744 37.9209 38.6656 35.5159 38.6656 31.7609V28.1096C38.6656 27.3796 38.0656 26.9688 37.3356 26.9688H27.6656V37.9209Z" fill="url(#paint14_radial_637_22380)"/>
<path d="M27.6656 37.9209H34.1969C37.0744 37.9209 38.6656 35.5159 38.6656 31.7609V28.1096C38.6656 27.3796 38.0656 26.9688 37.3356 26.9688H27.6656V37.9209Z" fill="url(#paint15_linear_637_22380)"/>
<path d="M27.6656 37.9209H34.1969C37.0744 37.9209 38.6656 35.5159 38.6656 31.7609V28.1096C38.6656 27.3796 38.0656 26.9688 37.3356 26.9688H27.6656V37.9209Z" fill="url(#paint16_radial_637_22380)"/>
<path d="M35.5527 13H30.8679C29.3921 13 28.0495 13.92 27.4591 15.34L25.869 19.17C25.7071 19.56 25.9832 20 26.3832 20H28.3351C28.5541 20 28.7541 19.86 28.8493 19.65L30.2395 16.42C30.3538 16.17 30.6013 16 30.8679 16H32.7533C34.0006 16 35.1242 15.21 35.6003 14L35.8288 13.43C35.9145 13.23 35.7622 13 35.5527 13Z" fill="#F1B74E"/>
<path d="M35.5527 13H30.8679C29.3921 13 28.0495 13.92 27.4591 15.34L25.869 19.17C25.7071 19.56 25.9832 20 26.3832 20H28.3351C28.5541 20 28.7541 19.86 28.8493 19.65L30.2395 16.42C30.3538 16.17 30.6013 16 30.8679 16H32.7533C34.0006 16 35.1242 15.21 35.6003 14L35.8288 13.43C35.9145 13.23 35.7622 13 35.5527 13Z" fill="url(#paint17_radial_637_22380)"/>
<path d="M35.5527 13H30.8679C29.3921 13 28.0495 13.92 27.4591 15.34L25.869 19.17C25.7071 19.56 25.9832 20 26.3832 20H28.3351C28.5541 20 28.7541 19.86 28.8493 19.65L30.2395 16.42C30.3538 16.17 30.6013 16 30.8679 16H32.7533C34.0006 16 35.1242 15.21 35.6003 14L35.8288 13.43C35.9145 13.23 35.7622 13 35.5527 13Z" fill="url(#paint18_radial_637_22380)"/>
<path d="M35.5527 13H30.8679C29.3921 13 28.0495 13.92 27.4591 15.34L25.869 19.17C25.7071 19.56 25.9832 20 26.3832 20H28.3351C28.5541 20 28.7541 19.86 28.8493 19.65L30.2395 16.42C30.3538 16.17 30.6013 16 30.8679 16H32.7533C34.0006 16 35.1242 15.21 35.6003 14L35.8288 13.43C35.9145 13.23 35.7622 13 35.5527 13Z" fill="url(#paint19_radial_637_22380)"/>
<path d="M35.5527 13H30.8679C29.3921 13 28.0495 13.92 27.4591 15.34L25.869 19.17C25.7071 19.56 25.9832 20 26.3832 20H28.3351C28.5541 20 28.7541 19.86 28.8493 19.65L30.2395 16.42C30.3538 16.17 30.6013 16 30.8679 16H32.7533C34.0006 16 35.1242 15.21 35.6003 14L35.8288 13.43C35.9145 13.23 35.7622 13 35.5527 13Z" fill="url(#paint20_linear_637_22380)"/>
<g filter="url(#filter5_i_637_22380)">
<path d="M21.5543 15.749C21.7203 15.4647 21.8341 15.2698 21.8532 15.2344C21.9548 15.0468 22.4937 14.0784 23.4157 14.0782C24.2829 14.078 24.9621 14.0782 25.1579 14.0782C25.7204 14.0782 26.0329 14.6484 26.0329 14.9844C26.0329 15.375 25.8141 16 25.1579 16H24.3845C24.2855 16 24.1494 16.0461 24.0744 16.1836C24.052 16.2246 23.9955 16.3774 23.9209 16.5905C23.8643 16.7522 23.985 16.9207 24.1563 16.9207H35.6888C35.9388 16.9207 36.1087 17.1507 36.0587 17.3907L35.7287 19.3507C35.4287 20.5507 34.3488 21.3907 33.1187 21.3907H31.4088L31.4688 21.4607C32.0087 22.0607 32.3087 22.8307 32.3087 23.6407L32.2987 31.0607V31.4207L32.2588 32.4607C32.2487 32.6307 32.2287 32.8107 32.2087 32.9807L32.1487 33.5007C32.135 33.6244 32.1118 33.7433 32.089 33.8608C32.0785 33.9143 32.0681 33.9675 32.0587 34.0207L31.9587 34.5307C31.9387 34.6441 31.9098 34.7575 31.881 34.8709C31.8665 34.9275 31.8521 34.9841 31.8387 35.0407C31.6051 35.9302 31.2908 36.8036 30.903 37.639C30.8226 37.8122 30.6516 37.9207 30.4606 37.9207H16.6213C16.6105 37.9207 16.597 37.9213 16.5812 37.9219C16.4258 37.9281 16.0575 37.9427 16.0575 37.5301C16.0575 37.1131 16.5712 36.9472 17.1274 36.7675C17.1772 36.7514 17.2274 36.7352 17.2776 36.7187C18.507 36.3143 20.3491 35.6524 21.3461 34.7123C22.0421 34.066 22.1495 33.2768 22.271 32.3842L22.2771 32.3392C22.2935 32.2186 22.2 32.1107 22.0783 32.1107H15.1487C13.5088 32.1107 12.0787 30.7707 12.0887 29.5207C12.0887 29.1907 12.3556 29.0338 12.6856 29.0338H18.2372C18.7289 29.0338 19.4099 28.7176 19.7599 28.3676L20.9348 27.0884C20.9937 27.0242 20.9482 26.9207 20.8611 26.9207H11.8287C10.8687 26.9207 10.0887 26.1407 10.0887 25.1807V21.3807C10.1087 20.0207 11.2188 18.9207 12.5887 18.9207C13.1888 18.9207 13.9244 19.0607 14.3544 19.4207C14.3824 19.4441 14.4109 19.4682 14.4398 19.4926C14.7197 19.7292 15.0386 19.9988 15.4012 19.9988L18.4388 19.8907C18.9388 19.8907 19.3788 19.5907 19.5688 19.1407L20.0088 18.4207C20.0355 18.3746 20.0633 18.3295 20.0922 18.2853C20.5096 17.5386 21.1711 16.4055 21.5543 15.749Z" fill="url(#paint21_linear_637_22380)"/>
<path d="M21.5543 15.749C21.7203 15.4647 21.8341 15.2698 21.8532 15.2344C21.9548 15.0468 22.4937 14.0784 23.4157 14.0782C24.2829 14.078 24.9621 14.0782 25.1579 14.0782C25.7204 14.0782 26.0329 14.6484 26.0329 14.9844C26.0329 15.375 25.8141 16 25.1579 16H24.3845C24.2855 16 24.1494 16.0461 24.0744 16.1836C24.052 16.2246 23.9955 16.3774 23.9209 16.5905C23.8643 16.7522 23.985 16.9207 24.1563 16.9207H35.6888C35.9388 16.9207 36.1087 17.1507 36.0587 17.3907L35.7287 19.3507C35.4287 20.5507 34.3488 21.3907 33.1187 21.3907H31.4088L31.4688 21.4607C32.0087 22.0607 32.3087 22.8307 32.3087 23.6407L32.2987 31.0607V31.4207L32.2588 32.4607C32.2487 32.6307 32.2287 32.8107 32.2087 32.9807L32.1487 33.5007C32.135 33.6244 32.1118 33.7433 32.089 33.8608C32.0785 33.9143 32.0681 33.9675 32.0587 34.0207L31.9587 34.5307C31.9387 34.6441 31.9098 34.7575 31.881 34.8709C31.8665 34.9275 31.8521 34.9841 31.8387 35.0407C31.6051 35.9302 31.2908 36.8036 30.903 37.639C30.8226 37.8122 30.6516 37.9207 30.4606 37.9207H16.6213C16.6105 37.9207 16.597 37.9213 16.5812 37.9219C16.4258 37.9281 16.0575 37.9427 16.0575 37.5301C16.0575 37.1131 16.5712 36.9472 17.1274 36.7675C17.1772 36.7514 17.2274 36.7352 17.2776 36.7187C18.507 36.3143 20.3491 35.6524 21.3461 34.7123C22.0421 34.066 22.1495 33.2768 22.271 32.3842L22.2771 32.3392C22.2935 32.2186 22.2 32.1107 22.0783 32.1107H15.1487C13.5088 32.1107 12.0787 30.7707 12.0887 29.5207C12.0887 29.1907 12.3556 29.0338 12.6856 29.0338H18.2372C18.7289 29.0338 19.4099 28.7176 19.7599 28.3676L20.9348 27.0884C20.9937 27.0242 20.9482 26.9207 20.8611 26.9207H11.8287C10.8687 26.9207 10.0887 26.1407 10.0887 25.1807V21.3807C10.1087 20.0207 11.2188 18.9207 12.5887 18.9207C13.1888 18.9207 13.9244 19.0607 14.3544 19.4207C14.3824 19.4441 14.4109 19.4682 14.4398 19.4926C14.7197 19.7292 15.0386 19.9988 15.4012 19.9988L18.4388 19.8907C18.9388 19.8907 19.3788 19.5907 19.5688 19.1407L20.0088 18.4207C20.0355 18.3746 20.0633 18.3295 20.0922 18.2853C20.5096 17.5386 21.1711 16.4055 21.5543 15.749Z" fill="url(#paint22_linear_637_22380)"/>
</g>
<path d="M21.5543 15.749C21.7203 15.4647 21.8341 15.2698 21.8532 15.2344C21.9548 15.0468 22.4937 14.0784 23.4157 14.0782C24.2829 14.078 24.9621 14.0782 25.1579 14.0782C25.7204 14.0782 26.0329 14.6484 26.0329 14.9844C26.0329 15.375 25.8141 16 25.1579 16H24.3845C24.2855 16 24.1494 16.0461 24.0744 16.1836C24.052 16.2246 23.9955 16.3774 23.9209 16.5905C23.8643 16.7522 23.985 16.9207 24.1563 16.9207H35.6888C35.9388 16.9207 36.1087 17.1507 36.0587 17.3907L35.7287 19.3507C35.4287 20.5507 34.3488 21.3907 33.1187 21.3907H31.4088L31.4688 21.4607C32.0087 22.0607 32.3087 22.8307 32.3087 23.6407L32.2987 31.0607V31.4207L32.2588 32.4607C32.2487 32.6307 32.2287 32.8107 32.2087 32.9807L32.1487 33.5007C32.135 33.6244 32.1118 33.7433 32.089 33.8608C32.0785 33.9143 32.0681 33.9675 32.0587 34.0207L31.9587 34.5307C31.9387 34.6441 31.9098 34.7575 31.881 34.8709C31.8665 34.9275 31.8521 34.9841 31.8387 35.0407C31.6051 35.9302 31.2908 36.8036 30.903 37.639C30.8226 37.8122 30.6516 37.9207 30.4606 37.9207H16.6213C16.6105 37.9207 16.597 37.9213 16.5812 37.9219C16.4258 37.9281 16.0575 37.9427 16.0575 37.5301C16.0575 37.1131 16.5712 36.9472 17.1274 36.7675C17.1772 36.7514 17.2274 36.7352 17.2776 36.7187C18.507 36.3143 20.3491 35.6524 21.3461 34.7123C22.0421 34.066 22.1495 33.2768 22.271 32.3842L22.2771 32.3392C22.2935 32.2186 22.2 32.1107 22.0783 32.1107H15.1487C13.5088 32.1107 12.0787 30.7707 12.0887 29.5207C12.0887 29.1907 12.3556 29.0338 12.6856 29.0338H18.2372C18.7289 29.0338 19.4099 28.7176 19.7599 28.3676L20.7039 27.3398C20.8511 27.1795 20.7374 26.9207 20.5197 26.9207H11.8287C10.8687 26.9207 10.0887 26.1407 10.0887 25.1807V21.3807C10.1087 20.0207 11.2188 18.9207 12.5887 18.9207C13.1888 18.9207 13.9244 19.0607 14.3544 19.4207C14.3824 19.4441 14.4109 19.4682 14.4398 19.4926C14.7197 19.7292 15.0386 19.9988 15.4012 19.9988L18.4388 19.8907C18.9388 19.8907 19.3788 19.5907 19.5688 19.1407L20.0088 18.4207C20.0355 18.3746 20.0633 18.3295 20.0922 18.2853C20.5096 17.5386 21.1711 16.4055 21.5543 15.749Z" fill="url(#paint23_radial_637_22380)"/>
<path d="M21.5543 15.749C21.7203 15.4647 21.8341 15.2698 21.8532 15.2344C21.9548 15.0468 22.4937 14.0784 23.4157 14.0782C24.2829 14.078 24.9621 14.0782 25.1579 14.0782C25.7204 14.0782 26.0329 14.6484 26.0329 14.9844C26.0329 15.375 25.8141 16 25.1579 16H24.3845C24.2855 16 24.1494 16.0461 24.0744 16.1836C24.052 16.2246 23.9955 16.3774 23.9209 16.5905C23.8643 16.7522 23.985 16.9207 24.1563 16.9207H35.6888C35.9388 16.9207 36.1087 17.1507 36.0587 17.3907L35.7287 19.3507C35.4287 20.5507 34.3488 21.3907 33.1187 21.3907H31.4088L31.4688 21.4607C32.0087 22.0607 32.3087 22.8307 32.3087 23.6407L32.2987 31.0607V31.4207L32.2588 32.4607C32.2487 32.6307 32.2287 32.8107 32.2087 32.9807L32.1487 33.5007C32.135 33.6244 32.1118 33.7433 32.089 33.8608C32.0785 33.9143 32.0681 33.9675 32.0587 34.0207L31.9587 34.5307C31.9387 34.6441 31.9098 34.7575 31.881 34.8709C31.8665 34.9275 31.8521 34.9841 31.8387 35.0407C31.6051 35.9302 31.2908 36.8036 30.903 37.639C30.8226 37.8122 30.6516 37.9207 30.4606 37.9207H16.6213C16.6105 37.9207 16.597 37.9213 16.5812 37.9219C16.4258 37.9281 16.0575 37.9427 16.0575 37.5301C16.0575 37.1131 16.5712 36.9472 17.1274 36.7675C17.1772 36.7514 17.2274 36.7352 17.2776 36.7187C18.507 36.3143 20.3491 35.6524 21.3461 34.7123C22.0421 34.066 22.1495 33.2768 22.271 32.3842L22.2771 32.3392C22.2935 32.2186 22.2 32.1107 22.0783 32.1107H15.1487C13.5088 32.1107 12.0787 30.7707 12.0887 29.5207C12.0887 29.1907 12.3556 29.0338 12.6856 29.0338H18.2372C18.7289 29.0338 19.4099 28.7176 19.7599 28.3676L20.7039 27.3398C20.8511 27.1795 20.7374 26.9207 20.5197 26.9207H11.8287C10.8687 26.9207 10.0887 26.1407 10.0887 25.1807V21.3807C10.1087 20.0207 11.2188 18.9207 12.5887 18.9207C13.1888 18.9207 13.9244 19.0607 14.3544 19.4207C14.3824 19.4441 14.4109 19.4682 14.4398 19.4926C14.7197 19.7292 15.0386 19.9988 15.4012 19.9988L18.4388 19.8907C18.9388 19.8907 19.3788 19.5907 19.5688 19.1407L20.0088 18.4207C20.0355 18.3746 20.0633 18.3295 20.0922 18.2853C20.5096 17.5386 21.1711 16.4055 21.5543 15.749Z" fill="url(#paint24_radial_637_22380)"/>
<path d="M21.5543 15.749C21.7203 15.4647 21.8341 15.2698 21.8532 15.2344C21.9548 15.0468 22.4937 14.0784 23.4157 14.0782C24.2829 14.078 24.9621 14.0782 25.1579 14.0782C25.7204 14.0782 26.0329 14.6484 26.0329 14.9844C26.0329 15.375 25.8141 16 25.1579 16H24.3845C24.2855 16 24.1494 16.0461 24.0744 16.1836C24.052 16.2246 23.9955 16.3774 23.9209 16.5905C23.8643 16.7522 23.985 16.9207 24.1563 16.9207H35.6888C35.9388 16.9207 36.1087 17.1507 36.0587 17.3907L35.7287 19.3507C35.4287 20.5507 34.3488 21.3907 33.1187 21.3907H31.4088L31.4688 21.4607C32.0087 22.0607 32.3087 22.8307 32.3087 23.6407L32.2987 31.0607V31.4207L32.2588 32.4607C32.2487 32.6307 32.2287 32.8107 32.2087 32.9807L32.1487 33.5007C32.135 33.6244 32.1118 33.7433 32.089 33.8608C32.0785 33.9143 32.0681 33.9675 32.0587 34.0207L31.9587 34.5307C31.9387 34.6441 31.9098 34.7575 31.881 34.8709C31.8665 34.9275 31.8521 34.9841 31.8387 35.0407C31.6051 35.9302 31.2908 36.8036 30.903 37.639C30.8226 37.8122 30.6516 37.9207 30.4606 37.9207H16.6213C16.6105 37.9207 16.597 37.9213 16.5812 37.9219C16.4258 37.9281 16.0575 37.9427 16.0575 37.5301C16.0575 37.1131 16.5712 36.9472 17.1274 36.7675C17.1772 36.7514 17.2274 36.7352 17.2776 36.7187C18.507 36.3143 20.3491 35.6524 21.3461 34.7123C22.0421 34.066 22.1495 33.2768 22.271 32.3842L22.2771 32.3392C22.2935 32.2186 22.2 32.1107 22.0783 32.1107H15.1487C13.5088 32.1107 12.0787 30.7707 12.0887 29.5207C12.0887 29.1907 12.3556 29.0338 12.6856 29.0338H18.2372C18.7289 29.0338 19.4099 28.7176 19.7599 28.3676L20.7039 27.3398C20.8511 27.1795 20.7374 26.9207 20.5197 26.9207H11.8287C10.8687 26.9207 10.0887 26.1407 10.0887 25.1807V21.3807C10.1087 20.0207 11.2188 18.9207 12.5887 18.9207C13.1888 18.9207 13.9244 19.0607 14.3544 19.4207C14.3824 19.4441 14.4109 19.4682 14.4398 19.4926C14.7197 19.7292 15.0386 19.9988 15.4012 19.9988L18.4388 19.8907C18.9388 19.8907 19.3788 19.5907 19.5688 19.1407L20.0088 18.4207C20.0355 18.3746 20.0633 18.3295 20.0922 18.2853C20.5096 17.5386 21.1711 16.4055 21.5543 15.749Z" fill="url(#paint25_radial_637_22380)"/>
<path d="M21.5543 15.749C21.7203 15.4647 21.8341 15.2698 21.8532 15.2344C21.9548 15.0468 22.4937 14.0784 23.4157 14.0782C24.2829 14.078 24.9621 14.0782 25.1579 14.0782C25.7204 14.0782 26.0329 14.6484 26.0329 14.9844C26.0329 15.375 25.8141 16 25.1579 16H24.3845C24.2855 16 24.1494 16.0461 24.0744 16.1836C24.052 16.2246 23.9955 16.3774 23.9209 16.5905C23.8643 16.7522 23.985 16.9207 24.1563 16.9207H35.6888C35.9388 16.9207 36.1087 17.1507 36.0587 17.3907L35.7287 19.3507C35.4287 20.5507 34.3488 21.3907 33.1187 21.3907H31.4088L31.4688 21.4607C32.0087 22.0607 32.3087 22.8307 32.3087 23.6407L32.2987 31.0607V31.4207L32.2588 32.4607C32.2487 32.6307 32.2287 32.8107 32.2087 32.9807L32.1487 33.5007C32.135 33.6244 32.1118 33.7433 32.089 33.8608C32.0785 33.9143 32.0681 33.9675 32.0587 34.0207L31.9587 34.5307C31.9387 34.6441 31.9098 34.7575 31.881 34.8709C31.8665 34.9275 31.8521 34.9841 31.8387 35.0407C31.6051 35.9302 31.2908 36.8036 30.903 37.639C30.8226 37.8122 30.6516 37.9207 30.4606 37.9207H16.6213C16.6105 37.9207 16.597 37.9213 16.5812 37.9219C16.4258 37.9281 16.0575 37.9427 16.0575 37.5301C16.0575 37.1131 16.5712 36.9472 17.1274 36.7675C17.1772 36.7514 17.2274 36.7352 17.2776 36.7187C18.507 36.3143 20.3491 35.6524 21.3461 34.7123C22.0421 34.066 22.1495 33.2768 22.271 32.3842L22.2771 32.3392C22.2935 32.2186 22.2 32.1107 22.0783 32.1107H15.1487C13.5088 32.1107 12.0787 30.7707 12.0887 29.5207C12.0887 29.1907 12.3556 29.0338 12.6856 29.0338H18.2372C18.7289 29.0338 19.4099 28.7176 19.7599 28.3676L20.7039 27.3398C20.8511 27.1795 20.7374 26.9207 20.5197 26.9207H11.8287C10.8687 26.9207 10.0887 26.1407 10.0887 25.1807V21.3807C10.1087 20.0207 11.2188 18.9207 12.5887 18.9207C13.1888 18.9207 13.9244 19.0607 14.3544 19.4207C14.3824 19.4441 14.4109 19.4682 14.4398 19.4926C14.7197 19.7292 15.0386 19.9988 15.4012 19.9988L18.4388 19.8907C18.9388 19.8907 19.3788 19.5907 19.5688 19.1407L20.0088 18.4207C20.0355 18.3746 20.0633 18.3295 20.0922 18.2853C20.5096 17.5386 21.1711 16.4055 21.5543 15.749Z" fill="url(#paint26_linear_637_22380)"/>
<path d="M21.5543 15.749C21.7203 15.4647 21.8341 15.2698 21.8532 15.2344C21.9548 15.0468 22.4937 14.0784 23.4157 14.0782C24.2829 14.078 24.9621 14.0782 25.1579 14.0782C25.7204 14.0782 26.0329 14.6484 26.0329 14.9844C26.0329 15.375 25.8141 16 25.1579 16H24.3845C24.2855 16 24.1494 16.0461 24.0744 16.1836C24.052 16.2246 23.9955 16.3774 23.9209 16.5905C23.8643 16.7522 23.985 16.9207 24.1563 16.9207H35.6888C35.9388 16.9207 36.1087 17.1507 36.0587 17.3907L35.7287 19.3507C35.4287 20.5507 34.3488 21.3907 33.1187 21.3907H31.4088L31.4688 21.4607C32.0087 22.0607 32.3087 22.8307 32.3087 23.6407L32.2987 31.0607V31.4207L32.2588 32.4607C32.2487 32.6307 32.2287 32.8107 32.2087 32.9807L32.1487 33.5007C32.135 33.6244 32.1118 33.7433 32.089 33.8608C32.0785 33.9143 32.0681 33.9675 32.0587 34.0207L31.9587 34.5307C31.9387 34.6441 31.9098 34.7575 31.881 34.8709C31.8665 34.9275 31.8521 34.9841 31.8387 35.0407C31.6051 35.9302 31.2908 36.8036 30.903 37.639C30.8226 37.8122 30.6516 37.9207 30.4606 37.9207H16.6213C16.6105 37.9207 16.597 37.9213 16.5812 37.9219C16.4258 37.9281 16.0575 37.9427 16.0575 37.5301C16.0575 37.1131 16.5712 36.9472 17.1274 36.7675C17.1772 36.7514 17.2274 36.7352 17.2776 36.7187C18.507 36.3143 20.3491 35.6524 21.3461 34.7123C22.0421 34.066 22.1495 33.2768 22.271 32.3842L22.2771 32.3392C22.2935 32.2186 22.2 32.1107 22.0783 32.1107H15.1487C13.5088 32.1107 12.0787 30.7707 12.0887 29.5207C12.0887 29.1907 12.3556 29.0338 12.6856 29.0338H18.2372C18.7289 29.0338 19.4099 28.7176 19.7599 28.3676L20.7039 27.3398C20.8511 27.1795 20.7374 26.9207 20.5197 26.9207H11.8287C10.8687 26.9207 10.0887 26.1407 10.0887 25.1807V21.3807C10.1087 20.0207 11.2188 18.9207 12.5887 18.9207C13.1888 18.9207 13.9244 19.0607 14.3544 19.4207C14.3824 19.4441 14.4109 19.4682 14.4398 19.4926C14.7197 19.7292 15.0386 19.9988 15.4012 19.9988L18.4388 19.8907C18.9388 19.8907 19.3788 19.5907 19.5688 19.1407L20.0088 18.4207C20.0355 18.3746 20.0633 18.3295 20.0922 18.2853C20.5096 17.5386 21.1711 16.4055 21.5543 15.749Z" fill="url(#paint27_linear_637_22380)"/>
<path d="M21.5543 15.749C21.7203 15.4647 21.8341 15.2698 21.8532 15.2344C21.9548 15.0468 22.4937 14.0784 23.4157 14.0782C24.2829 14.078 24.9621 14.0782 25.1579 14.0782C25.7204 14.0782 26.0329 14.6484 26.0329 14.9844C26.0329 15.375 25.8141 16 25.1579 16H24.3845C24.2855 16 24.1494 16.0461 24.0744 16.1836C24.052 16.2246 23.9955 16.3774 23.9209 16.5905C23.8643 16.7522 23.985 16.9207 24.1563 16.9207H35.6888C35.9388 16.9207 36.1087 17.1507 36.0587 17.3907L35.7287 19.3507C35.4287 20.5507 34.3488 21.3907 33.1187 21.3907H31.4088L31.4688 21.4607C32.0087 22.0607 32.3087 22.8307 32.3087 23.6407L32.2987 31.0607V31.4207L32.2588 32.4607C32.2487 32.6307 32.2287 32.8107 32.2087 32.9807L32.1487 33.5007C32.135 33.6244 32.1118 33.7433 32.089 33.8608C32.0785 33.9143 32.0681 33.9675 32.0587 34.0207L31.9587 34.5307C31.9387 34.6441 31.9098 34.7575 31.881 34.8709C31.8665 34.9275 31.8521 34.9841 31.8387 35.0407C31.6051 35.9302 31.2908 36.8036 30.903 37.639C30.8226 37.8122 30.6516 37.9207 30.4606 37.9207H16.6213C16.6105 37.9207 16.597 37.9213 16.5812 37.9219C16.4258 37.9281 16.0575 37.9427 16.0575 37.5301C16.0575 37.1131 16.5712 36.9472 17.1274 36.7675C17.1772 36.7514 17.2274 36.7352 17.2776 36.7187C18.507 36.3143 20.3491 35.6524 21.3461 34.7123C22.0421 34.066 22.1495 33.2768 22.271 32.3842L22.2771 32.3392C22.2935 32.2186 22.2 32.1107 22.0783 32.1107H15.1487C13.5088 32.1107 12.0787 30.7707 12.0887 29.5207C12.0887 29.1907 12.3556 29.0338 12.6856 29.0338H18.2372C18.7289 29.0338 19.4099 28.7176 19.7599 28.3676L20.7039 27.3398C20.8511 27.1795 20.7374 26.9207 20.5197 26.9207H11.8287C10.8687 26.9207 10.0887 26.1407 10.0887 25.1807V21.3807C10.1087 20.0207 11.2188 18.9207 12.5887 18.9207C13.1888 18.9207 13.9244 19.0607 14.3544 19.4207C14.3824 19.4441 14.4109 19.4682 14.4398 19.4926C14.7197 19.7292 15.0386 19.9988 15.4012 19.9988L18.4388 19.8907C18.9388 19.8907 19.3788 19.5907 19.5688 19.1407L20.0088 18.4207C20.0355 18.3746 20.0633 18.3295 20.0922 18.2853C20.5096 17.5386 21.1711 16.4055 21.5543 15.749Z" fill="url(#paint28_radial_637_22380)"/>
<path d="M21.5543 15.749C21.7203 15.4647 21.8341 15.2698 21.8532 15.2344C21.9548 15.0468 22.4937 14.0784 23.4157 14.0782C24.2829 14.078 24.9621 14.0782 25.1579 14.0782C25.7204 14.0782 26.0329 14.6484 26.0329 14.9844C26.0329 15.375 25.8141 16 25.1579 16H24.3845C24.2855 16 24.1494 16.0461 24.0744 16.1836C24.052 16.2246 23.9955 16.3774 23.9209 16.5905C23.8643 16.7522 23.985 16.9207 24.1563 16.9207H35.6888C35.9388 16.9207 36.1087 17.1507 36.0587 17.3907L35.7287 19.3507C35.4287 20.5507 34.3488 21.3907 33.1187 21.3907H31.4088L31.4688 21.4607C32.0087 22.0607 32.3087 22.8307 32.3087 23.6407L32.2987 31.0607V31.4207L32.2588 32.4607C32.2487 32.6307 32.2287 32.8107 32.2087 32.9807L32.1487 33.5007C32.135 33.6244 32.1118 33.7433 32.089 33.8608C32.0785 33.9143 32.0681 33.9675 32.0587 34.0207L31.9587 34.5307C31.9387 34.6441 31.9098 34.7575 31.881 34.8709C31.8665 34.9275 31.8521 34.9841 31.8387 35.0407C31.6051 35.9302 31.2908 36.8036 30.903 37.639C30.8226 37.8122 30.6516 37.9207 30.4606 37.9207H16.6213C16.6105 37.9207 16.597 37.9213 16.5812 37.9219C16.4258 37.9281 16.0575 37.9427 16.0575 37.5301C16.0575 37.1131 16.5712 36.9472 17.1274 36.7675C17.1772 36.7514 17.2274 36.7352 17.2776 36.7187C18.507 36.3143 20.3491 35.6524 21.3461 34.7123C22.0421 34.066 22.1495 33.2768 22.271 32.3842L22.2771 32.3392C22.2935 32.2186 22.2 32.1107 22.0783 32.1107H15.1487C13.5088 32.1107 12.0787 30.7707 12.0887 29.5207C12.0887 29.1907 12.3556 29.0338 12.6856 29.0338H18.2372C18.7289 29.0338 19.4099 28.7176 19.7599 28.3676L20.7039 27.3398C20.8511 27.1795 20.7374 26.9207 20.5197 26.9207H11.8287C10.8687 26.9207 10.0887 26.1407 10.0887 25.1807V21.3807C10.1087 20.0207 11.2188 18.9207 12.5887 18.9207C13.1888 18.9207 13.9244 19.0607 14.3544 19.4207C14.3824 19.4441 14.4109 19.4682 14.4398 19.4926C14.7197 19.7292 15.0386 19.9988 15.4012 19.9988L18.4388 19.8907C18.9388 19.8907 19.3788 19.5907 19.5688 19.1407L20.0088 18.4207C20.0355 18.3746 20.0633 18.3295 20.0922 18.2853C20.5096 17.5386 21.1711 16.4055 21.5543 15.749Z" fill="url(#paint29_radial_637_22380)"/>
<path d="M21.5543 15.749C21.7203 15.4647 21.8341 15.2698 21.8532 15.2344C21.9548 15.0468 22.4937 14.0784 23.4157 14.0782C24.2829 14.078 24.9621 14.0782 25.1579 14.0782C25.7204 14.0782 26.0329 14.6484 26.0329 14.9844C26.0329 15.375 25.8141 16 25.1579 16H24.3845C24.2855 16 24.1494 16.0461 24.0744 16.1836C24.052 16.2246 23.9955 16.3774 23.9209 16.5905C23.8643 16.7522 23.985 16.9207 24.1563 16.9207H35.6888C35.9388 16.9207 36.1087 17.1507 36.0587 17.3907L35.7287 19.3507C35.4287 20.5507 34.3488 21.3907 33.1187 21.3907H31.4088L31.4688 21.4607C32.0087 22.0607 32.3087 22.8307 32.3087 23.6407L32.2987 31.0607V31.4207L32.2588 32.4607C32.2487 32.6307 32.2287 32.8107 32.2087 32.9807L32.1487 33.5007C32.135 33.6244 32.1118 33.7433 32.089 33.8608C32.0785 33.9143 32.0681 33.9675 32.0587 34.0207L31.9587 34.5307C31.9387 34.6441 31.9098 34.7575 31.881 34.8709C31.8665 34.9275 31.8521 34.9841 31.8387 35.0407C31.6051 35.9302 31.2908 36.8036 30.903 37.639C30.8226 37.8122 30.6516 37.9207 30.4606 37.9207H16.6213C16.6105 37.9207 16.597 37.9213 16.5812 37.9219C16.4258 37.9281 16.0575 37.9427 16.0575 37.5301C16.0575 37.1131 16.5712 36.9472 17.1274 36.7675C17.1772 36.7514 17.2274 36.7352 17.2776 36.7187C18.507 36.3143 20.3491 35.6524 21.3461 34.7123C22.0421 34.066 22.1495 33.2768 22.271 32.3842L22.2771 32.3392C22.2935 32.2186 22.2 32.1107 22.0783 32.1107H15.1487C13.5088 32.1107 12.0787 30.7707 12.0887 29.5207C12.0887 29.1907 12.3556 29.0338 12.6856 29.0338H18.2372C18.7289 29.0338 19.4099 28.7176 19.7599 28.3676L20.7039 27.3398C20.8511 27.1795 20.7374 26.9207 20.5197 26.9207H11.8287C10.8687 26.9207 10.0887 26.1407 10.0887 25.1807V21.3807C10.1087 20.0207 11.2188 18.9207 12.5887 18.9207C13.1888 18.9207 13.9244 19.0607 14.3544 19.4207C14.3824 19.4441 14.4109 19.4682 14.4398 19.4926C14.7197 19.7292 15.0386 19.9988 15.4012 19.9988L18.4388 19.8907C18.9388 19.8907 19.3788 19.5907 19.5688 19.1407L20.0088 18.4207C20.0355 18.3746 20.0633 18.3295 20.0922 18.2853C20.5096 17.5386 21.1711 16.4055 21.5543 15.749Z" fill="url(#paint30_radial_637_22380)"/>
<path d="M21.5543 15.749C21.7203 15.4647 21.8341 15.2698 21.8532 15.2344C21.9548 15.0468 22.4937 14.0784 23.4157 14.0782C24.2829 14.078 24.9621 14.0782 25.1579 14.0782C25.7204 14.0782 26.0329 14.6484 26.0329 14.9844C26.0329 15.375 25.8141 16 25.1579 16H24.3845C24.2855 16 24.1494 16.0461 24.0744 16.1836C24.052 16.2246 23.9955 16.3774 23.9209 16.5905C23.8643 16.7522 23.985 16.9207 24.1563 16.9207H35.6888C35.9388 16.9207 36.1087 17.1507 36.0587 17.3907L35.7287 19.3507C35.4287 20.5507 34.3488 21.3907 33.1187 21.3907H31.4088L31.4688 21.4607C32.0087 22.0607 32.3087 22.8307 32.3087 23.6407L32.2987 31.0607V31.4207L32.2588 32.4607C32.2487 32.6307 32.2287 32.8107 32.2087 32.9807L32.1487 33.5007C32.135 33.6244 32.1118 33.7433 32.089 33.8608C32.0785 33.9143 32.0681 33.9675 32.0587 34.0207L31.9587 34.5307C31.9387 34.6441 31.9098 34.7575 31.881 34.8709C31.8665 34.9275 31.8521 34.9841 31.8387 35.0407C31.6051 35.9302 31.2908 36.8036 30.903 37.639C30.8226 37.8122 30.6516 37.9207 30.4606 37.9207H16.6213C16.6105 37.9207 16.597 37.9213 16.5812 37.9219C16.4258 37.9281 16.0575 37.9427 16.0575 37.5301C16.0575 37.1131 16.5712 36.9472 17.1274 36.7675C17.1772 36.7514 17.2274 36.7352 17.2776 36.7187C18.507 36.3143 20.3491 35.6524 21.3461 34.7123C22.0421 34.066 22.1495 33.2768 22.271 32.3842L22.2771 32.3392C22.2935 32.2186 22.2 32.1107 22.0783 32.1107H15.1487C13.5088 32.1107 12.0787 30.7707 12.0887 29.5207C12.0887 29.1907 12.3556 29.0338 12.6856 29.0338H18.2372C18.7289 29.0338 19.4099 28.7176 19.7599 28.3676L20.7039 27.3398C20.8511 27.1795 20.7374 26.9207 20.5197 26.9207H11.8287C10.8687 26.9207 10.0887 26.1407 10.0887 25.1807V21.3807C10.1087 20.0207 11.2188 18.9207 12.5887 18.9207C13.1888 18.9207 13.9244 19.0607 14.3544 19.4207C14.3824 19.4441 14.4109 19.4682 14.4398 19.4926C14.7197 19.7292 15.0386 19.9988 15.4012 19.9988L18.4388 19.8907C18.9388 19.8907 19.3788 19.5907 19.5688 19.1407L20.0088 18.4207C20.0355 18.3746 20.0633 18.3295 20.0922 18.2853C20.5096 17.5386 21.1711 16.4055 21.5543 15.749Z" fill="url(#paint31_radial_637_22380)"/>
<path d="M21.5543 15.749C21.7203 15.4647 21.8341 15.2698 21.8532 15.2344C21.9548 15.0468 22.4937 14.0784 23.4157 14.0782C24.2829 14.078 24.9621 14.0782 25.1579 14.0782C25.7204 14.0782 26.0329 14.6484 26.0329 14.9844C26.0329 15.375 25.8141 16 25.1579 16H24.3845C24.2855 16 24.1494 16.0461 24.0744 16.1836C24.052 16.2246 23.9955 16.3774 23.9209 16.5905C23.8643 16.7522 23.985 16.9207 24.1563 16.9207H35.6888C35.9388 16.9207 36.1087 17.1507 36.0587 17.3907L35.7287 19.3507C35.4287 20.5507 34.3488 21.3907 33.1187 21.3907H31.4088L31.4688 21.4607C32.0087 22.0607 32.3087 22.8307 32.3087 23.6407L32.2987 31.0607V31.4207L32.2588 32.4607C32.2487 32.6307 32.2287 32.8107 32.2087 32.9807L32.1487 33.5007C32.135 33.6244 32.1118 33.7433 32.089 33.8608C32.0785 33.9143 32.0681 33.9675 32.0587 34.0207L31.9587 34.5307C31.9387 34.6441 31.9098 34.7575 31.881 34.8709C31.8665 34.9275 31.8521 34.9841 31.8387 35.0407C31.6051 35.9302 31.2908 36.8036 30.903 37.639C30.8226 37.8122 30.6516 37.9207 30.4606 37.9207H16.6213C16.6105 37.9207 16.597 37.9213 16.5812 37.9219C16.4258 37.9281 16.0575 37.9427 16.0575 37.5301C16.0575 37.1131 16.5712 36.9472 17.1274 36.7675C17.1772 36.7514 17.2274 36.7352 17.2776 36.7187C18.507 36.3143 20.3491 35.6524 21.3461 34.7123C22.0421 34.066 22.1495 33.2768 22.271 32.3842L22.2771 32.3392C22.2935 32.2186 22.2 32.1107 22.0783 32.1107H15.1487C13.5088 32.1107 12.0787 30.7707 12.0887 29.5207C12.0887 29.1907 12.3556 29.0338 12.6856 29.0338H18.2372C18.7289 29.0338 19.4099 28.7176 19.7599 28.3676L20.7039 27.3398C20.8511 27.1795 20.7374 26.9207 20.5197 26.9207H11.8287C10.8687 26.9207 10.0887 26.1407 10.0887 25.1807V21.3807C10.1087 20.0207 11.2188 18.9207 12.5887 18.9207C13.1888 18.9207 13.9244 19.0607 14.3544 19.4207C14.3824 19.4441 14.4109 19.4682 14.4398 19.4926C14.7197 19.7292 15.0386 19.9988 15.4012 19.9988L18.4388 19.8907C18.9388 19.8907 19.3788 19.5907 19.5688 19.1407L20.0088 18.4207C20.0355 18.3746 20.0633 18.3295 20.0922 18.2853C20.5096 17.5386 21.1711 16.4055 21.5543 15.749Z" fill="url(#paint32_radial_637_22380)"/>
<path d="M12.3494 25.0301C11.8194 25.0301 11.3794 24.6175 11.3794 24.0993V21.9308C11.3794 21.4222 11.8094 21 12.3494 21C12.8794 21 13.3194 21.4126 13.3194 21.9308V24.0993C13.3094 24.6079 12.8794 25.0301 12.3494 25.0301Z" fill="url(#paint33_linear_637_22380)"/>
<path d="M12.3494 25.0301C11.8194 25.0301 11.3794 24.6175 11.3794 24.0993V21.9308C11.3794 21.4222 11.8094 21 12.3494 21C12.8794 21 13.3194 21.4126 13.3194 21.9308V24.0993C13.3094 24.6079 12.8794 25.0301 12.3494 25.0301Z" fill="url(#paint34_radial_637_22380)"/>
<g filter="url(#filter6_f_637_22380)">
<rect x="21.8135" y="21.2812" width="1.43869" height="3.54688" rx="0.719346" fill="#2F9776"/>
</g>
<rect x="22.1969" y="21.1094" width="1.57812" height="3.89062" rx="0.789062" fill="url(#paint35_linear_637_22380)"/>
<rect x="22.1969" y="21.1094" width="1.57812" height="3.89062" rx="0.789062" fill="url(#paint36_linear_637_22380)"/>
<rect x="22.1969" y="21.1094" width="1.57812" height="3.89062" rx="0.789062" fill="url(#paint37_radial_637_22380)"/>
<path d="M22.0861 32.1109C22.204 32.1154 22.2932 32.2212 22.2771 32.3392L22.271 32.3843C22.1495 33.2768 22.0421 34.066 21.3461 34.7123C20.3491 35.6524 18.507 36.3143 17.2776 36.7187C17.2274 36.7352 17.1772 36.7514 17.1274 36.7675C16.5712 36.9472 16.0575 37.1131 16.0575 37.5301C16.0575 37.9427 16.4258 37.9281 16.5812 37.9219C16.597 37.9213 16.6105 37.9207 16.6213 37.9207H22.5901C23.3113 37.3251 24.4129 35.596 25.0565 34.0252C25.619 32.6522 24.9183 32.1082 24.1033 32.1082H22.0861V32.1109Z" fill="#FFD85A"/>
<path d="M22.0861 32.1109C22.204 32.1154 22.2932 32.2212 22.2771 32.3392L22.271 32.3843C22.1495 33.2768 22.0421 34.066 21.3461 34.7123C20.3491 35.6524 18.507 36.3143 17.2776 36.7187C17.2274 36.7352 17.1772 36.7514 17.1274 36.7675C16.5712 36.9472 16.0575 37.1131 16.0575 37.5301C16.0575 37.9427 16.4258 37.9281 16.5812 37.9219C16.597 37.9213 16.6105 37.9207 16.6213 37.9207H22.5901C23.3113 37.3251 24.4129 35.596 25.0565 34.0252C25.619 32.6522 24.9183 32.1082 24.1033 32.1082H22.0861V32.1109Z" fill="url(#paint38_radial_637_22380)"/>
<path d="M22.0861 32.1109C22.204 32.1154 22.2932 32.2212 22.2771 32.3392L22.271 32.3843C22.1495 33.2768 22.0421 34.066 21.3461 34.7123C20.3491 35.6524 18.507 36.3143 17.2776 36.7187C17.2274 36.7352 17.1772 36.7514 17.1274 36.7675C16.5712 36.9472 16.0575 37.1131 16.0575 37.5301C16.0575 37.9427 16.4258 37.9281 16.5812 37.9219C16.597 37.9213 16.6105 37.9207 16.6213 37.9207H22.5901C23.3113 37.3251 24.4129 35.596 25.0565 34.0252C25.619 32.6522 24.9183 32.1082 24.1033 32.1082H22.0861V32.1109Z" fill="url(#paint39_radial_637_22380)"/>
<path d="M22.0861 32.1109C22.204 32.1154 22.2932 32.2212 22.2771 32.3392L22.271 32.3843C22.1495 33.2768 22.0421 34.066 21.3461 34.7123C20.3491 35.6524 18.507 36.3143 17.2776 36.7187C17.2274 36.7352 17.1772 36.7514 17.1274 36.7675C16.5712 36.9472 16.0575 37.1131 16.0575 37.5301C16.0575 37.9427 16.4258 37.9281 16.5812 37.9219C16.597 37.9213 16.6105 37.9207 16.6213 37.9207H22.5901C23.3113 37.3251 24.4129 35.596 25.0565 34.0252C25.619 32.6522 24.9183 32.1082 24.1033 32.1082H22.0861V32.1109Z" fill="url(#paint40_linear_637_22380)"/>
<g filter="url(#filter7_f_637_22380)">
<rect x="11.7592" y="21.5312" width="0.590299" height="2.96758" rx="0.29515" fill="#5BABA0"/>
</g>
<g filter="url(#filter8_f_637_22380)">
<path d="M37.6525 27.4999C37.8608 27.4895 38.2775 27.6905 38.2775 28.2655C38.2775 28.8405 38.2775 30.7811 38.2775 31.7186C38.2775 33.6874 37.7775 36.4686 35.715 37.2186" stroke="url(#paint41_linear_637_22380)" stroke-width="0.25" stroke-linecap="round"/>
</g>
<g filter="url(#filter9_f_637_22380)">
<path d="M37.7931 20.3516C37.9181 20.3724 38.1681 20.4938 38.1681 20.8125C38.1681 21.1312 38.1681 22.3828 38.1681 22.9688C38.1316 23.5234 37.8181 24.8 36.8556 25.4688" stroke="url(#paint42_linear_637_22380)" stroke-width="0.25" stroke-linecap="round"/>
</g>
<g filter="url(#filter10_f_637_22380)">
<path d="M34.0119 26.7969C33.9455 26.8203 33.9064 27.1016 34.0119 27.2344" stroke="#E65B91" stroke-width="0.25" stroke-linecap="round"/>
</g>
<path d="M35.1707 14.77H30.8694C30.4601 14.77 30.0921 15.0195 29.9405 15.3997L29.3322 16.9258H30.0197L30.2395 16.42C30.3537 16.17 30.6013 16 30.8679 16H32.7532C33.7111 16 34.596 15.5342 35.1707 14.77Z" fill="url(#paint43_linear_637_22380)"/>
<path d="M35.1707 14.77H30.8694C30.4601 14.77 30.0921 15.0195 29.9405 15.3997L29.3322 16.9258H30.0197L30.2395 16.42C30.3537 16.17 30.6013 16 30.8679 16H32.7532C33.7111 16 34.596 15.5342 35.1707 14.77Z" fill="url(#paint44_linear_637_22380)"/>
<g filter="url(#filter11_f_637_22380)">
<path d="M29.0587 16.5625L29.5554 15.4373C29.7183 15.0683 30.0869 14.8333 30.4901 14.8413L33.7618 14.9062" stroke="#E3A652"/>
</g>
<g filter="url(#filter12_f_637_22380)">
<path d="M18.4181 10.6562C18.9962 10.6562 20.3087 11.1641 20.3087 12.8828" stroke="url(#paint45_linear_637_22380)" stroke-width="0.6" stroke-linecap="round"/>
</g>
<g filter="url(#filter13_f_637_22380)">
<path d="M29.9181 21.5625C30.3556 21.7292 31.2306 22.4625 31.2306 24.0625C31.2306 25.6625 31.2306 29.9792 31.2306 31.9375C31.2723 32.9583 30.7931 35.3125 29.6056 36.8125" stroke="url(#paint46_linear_637_22380)" stroke-linecap="round"/>
</g>
<g filter="url(#filter14_f_637_22380)">
<path d="M28.9493 19.8906L30.4962 20.8594H33.1525C34.1025 20.8594 34.5275 20.3281 34.6212 19.8906H28.9493Z" fill="url(#paint47_linear_637_22380)"/>
</g>
<defs>
<filter id="filter0_i_637_22380" x="10.9868" y="9.61057" width="10.1403" height="12.0615" filterUnits="userSpaceOnUse" color-interpolation-filters="sRGB">
<feFlood flood-opacity="0" result="BackgroundImageFix"/>
<feBlend mode="normal" in="SourceGraphic" in2="BackgroundImageFix" result="shape"/>
<feColorMatrix in="SourceAlpha" type="matrix" values="0 0 0 0 0 0 0 0 0 0 0 0 0 0 0 0 0 0 127 0" result="hardAlpha"/>
<feOffset dy="-0.1"/>
<feGaussianBlur stdDeviation="0.25"/>
<feComposite in2="hardAlpha" operator="arithmetic" k2="-1" k3="1"/>
<feColorMatrix type="matrix" values="0 0 0 0 0.72549 0 0 0 0 0.541176 0 0 0 0 0.329412 0 0 0 1 0"/>
<feBlend mode="normal" in2="shape" result="effect1_innerShadow_637_22380"/>
</filter>
<filter id="filter1_f_637_22380" x="11.2618" y="12.8344" width="3.85315" height="8.31567" filterUnits="userSpaceOnUse" color-interpolation-filters="sRGB">
<feFlood flood-opacity="0" result="BackgroundImageFix"/>
<feBlend mode="normal" in="SourceGraphic" in2="BackgroundImageFix" result="shape"/>
<feGaussianBlur stdDeviation="0.25" result="effect1_foregroundBlur_637_22380"/>
</filter>
<filter id="filter2_i_637_22380" x="12.525" y="26.8281" width="3.30469" height="1.39441" filterUnits="userSpaceOnUse" color-interpolation-filters="sRGB">
<feFlood flood-opacity="0" result="BackgroundImageFix"/>
<feBlend mode="normal" in="SourceGraphic" in2="BackgroundImageFix" result="shape"/>
<feColorMatrix in="SourceAlpha" type="matrix" values="0 0 0 0 0 0 0 0 0 0 0 0 0 0 0 0 0 0 127 0" result="hardAlpha"/>
<feOffset/>
<feGaussianBlur stdDeviation="0.2"/>
<feComposite in2="hardAlpha" operator="arithmetic" k2="-1" k3="1"/>
<feColorMatrix type="matrix" values="0 0 0 0 0.741042 0 0 0 0 0.657222 0 0 0 0 0.933333 0 0 0 1 0"/>
<feBlend mode="normal" in2="shape" result="effect1_innerShadow_637_22380"/>
</filter>
<filter id="filter3_i_637_22380" x="15.2438" y="26.7891" width="3.38281" height="1.43347" filterUnits="userSpaceOnUse" color-interpolation-filters="sRGB">
<feFlood flood-opacity="0" result="BackgroundImageFix"/>
<feBlend mode="normal" in="SourceGraphic" in2="BackgroundImageFix" result="shape"/>
<feColorMatrix in="SourceAlpha" type="matrix" values="0 0 0 0 0 0 0 0 0 0 0 0 0 0 0 0 0 0 127 0" result="hardAlpha"/>
<feOffset/>
<feGaussianBlur stdDeviation="0.2"/>
<feComposite in2="hardAlpha" operator="arithmetic" k2="-1" k3="1"/>
<feColorMatrix type="matrix" values="0 0 0 0 0.741042 0 0 0 0 0.657222 0 0 0 0 0.933333 0 0 0 1 0"/>
<feBlend mode="normal" in2="shape" result="effect1_innerShadow_637_22380"/>
</filter>
<filter id="filter4_i_637_22380" x="17.8375" y="26.75" width="3.40625" height="1.47253" filterUnits="userSpaceOnUse" color-interpolation-filters="sRGB">
<feFlood flood-opacity="0" result="BackgroundImageFix"/>
<feBlend mode="normal" in="SourceGraphic" in2="BackgroundImageFix" result="shape"/>
<feColorMatrix in="SourceAlpha" type="matrix" values="0 0 0 0 0 0 0 0 0 0 0 0 0 0 0 0 0 0 127 0" result="hardAlpha"/>
<feOffset/>
<feGaussianBlur stdDeviation="0.2"/>
<feComposite in2="hardAlpha" operator="arithmetic" k2="-1" k3="1"/>
<feColorMatrix type="matrix" values="0 0 0 0 0.741042 0 0 0 0 0.657222 0 0 0 0 0.933333 0 0 0 1 0"/>
<feBlend mode="normal" in2="shape" result="effect1_innerShadow_637_22380"/>
</filter>
<filter id="filter5_i_637_22380" x="10.0887" y="14.0781" width="26.2788" height="24.1457" filterUnits="userSpaceOnUse" color-interpolation-filters="sRGB">
<feFlood flood-opacity="0" result="BackgroundImageFix"/>
<feBlend mode="normal" in="SourceGraphic" in2="BackgroundImageFix" result="shape"/>
<feColorMatrix in="SourceAlpha" type="matrix" values="0 0 0 0 0 0 0 0 0 0 0 0 0 0 0 0 0 0 127 0" result="hardAlpha"/>
<feOffset dx="0.3" dy="0.3"/>
<feGaussianBlur stdDeviation="0.75"/>
<feComposite in2="hardAlpha" operator="arithmetic" k2="-1" k3="1"/>
<feColorMatrix type="matrix" values="0 0 0 0 0.203922 0 0 0 0 0.607843 0 0 0 0 0.466667 0 0 0 1 0"/>
<feBlend mode="normal" in2="shape" result="effect1_innerShadow_637_22380"/>
</filter>
<filter id="filter6_f_637_22380" x="20.8135" y="20.2812" width="3.43872" height="5.54688" filterUnits="userSpaceOnUse" color-interpolation-filters="sRGB">
<feFlood flood-opacity="0" result="BackgroundImageFix"/>
<feBlend mode="normal" in="SourceGraphic" in2="BackgroundImageFix" result="shape"/>
<feGaussianBlur stdDeviation="0.5" result="effect1_foregroundBlur_637_22380"/>
</filter>
<filter id="filter7_f_637_22380" x="11.0092" y="20.7812" width="2.09033" height="4.46753" filterUnits="userSpaceOnUse" color-interpolation-filters="sRGB">
<feFlood flood-opacity="0" result="BackgroundImageFix"/>
<feBlend mode="normal" in="SourceGraphic" in2="BackgroundImageFix" result="shape"/>
<feGaussianBlur stdDeviation="0.375" result="effect1_foregroundBlur_637_22380"/>
</filter>
<filter id="filter8_f_637_22380" x="35.09" y="26.8745" width="3.8125" height="10.9691" filterUnits="userSpaceOnUse" color-interpolation-filters="sRGB">
<feFlood flood-opacity="0" result="BackgroundImageFix"/>
<feBlend mode="normal" in="SourceGraphic" in2="BackgroundImageFix" result="shape"/>
<feGaussianBlur stdDeviation="0.25" result="effect1_foregroundBlur_637_22380"/>
</filter>
<filter id="filter9_f_637_22380" x="36.2306" y="19.7266" width="2.5625" height="6.36719" filterUnits="userSpaceOnUse" color-interpolation-filters="sRGB">
<feFlood flood-opacity="0" result="BackgroundImageFix"/>
<feBlend mode="normal" in="SourceGraphic" in2="BackgroundImageFix" result="shape"/>
<feGaussianBlur stdDeviation="0.25" result="effect1_foregroundBlur_637_22380"/>
</filter>
<filter id="filter10_f_637_22380" x="33.5217" y="26.3719" width="0.915308" height="1.2875" filterUnits="userSpaceOnUse" color-interpolation-filters="sRGB">
<feFlood flood-opacity="0" result="BackgroundImageFix"/>
<feBlend mode="normal" in="SourceGraphic" in2="BackgroundImageFix" result="shape"/>
<feGaussianBlur stdDeviation="0.15" result="effect1_foregroundBlur_637_22380"/>
</filter>
<filter id="filter11_f_637_22380" x="27.3513" y="13.0912" width="7.67041" height="4.92322" filterUnits="userSpaceOnUse" color-interpolation-filters="sRGB">
<feFlood flood-opacity="0" result="BackgroundImageFix"/>
<feBlend mode="normal" in="SourceGraphic" in2="BackgroundImageFix" result="shape"/>
<feGaussianBlur stdDeviation="0.625" result="effect1_foregroundBlur_637_22380"/>
</filter>
<filter id="filter12_f_637_22380" x="17.118" y="9.3562" width="4.49072" height="4.82666" filterUnits="userSpaceOnUse" color-interpolation-filters="sRGB">
<feFlood flood-opacity="0" result="BackgroundImageFix"/>
<feBlend mode="normal" in="SourceGraphic" in2="BackgroundImageFix" result="shape"/>
<feGaussianBlur stdDeviation="0.5" result="effect1_foregroundBlur_637_22380"/>
</filter>
<filter id="filter13_f_637_22380" x="27.8556" y="19.8124" width="5.12744" height="18.7501" filterUnits="userSpaceOnUse" color-interpolation-filters="sRGB">
<feFlood flood-opacity="0" result="BackgroundImageFix"/>
<feBlend mode="normal" in="SourceGraphic" in2="BackgroundImageFix" result="shape"/>
<feGaussianBlur stdDeviation="0.625" result="effect1_foregroundBlur_637_22380"/>
</filter>
<filter id="filter14_f_637_22380" x="27.9493" y="18.8906" width="7.67188" height="2.96875" filterUnits="userSpaceOnUse" color-interpolation-filters="sRGB">
<feFlood flood-opacity="0" result="BackgroundImageFix"/>
<feBlend mode="normal" in="SourceGraphic" in2="BackgroundImageFix" result="shape"/>
<feGaussianBlur stdDeviation="0.5" result="effect1_foregroundBlur_637_22380"/>
</filter>
<linearGradient id="paint0_linear_637_22380" x1="21.0848" y1="8.04543" x2="15.6111" y2="18.3248" gradientUnits="userSpaceOnUse">
<stop stop-color="#FADA54"/>
<stop offset="1" stop-color="#DC9825"/>
</linearGradient>
<radialGradient id="paint1_radial_637_22380" cx="0" cy="0" r="1" gradientUnits="userSpaceOnUse" gradientTransform="translate(14.8401 16.1875) rotate(-103.87) scale(2.60727 2.86841)">
<stop offset="0.413167" stop-color="#E7A053"/>
<stop offset="1" stop-color="#E7A053" stop-opacity="0"/>
</radialGradient>
<radialGradient id="paint2_radial_637_22380" cx="0" cy="0" r="1" gradientUnits="userSpaceOnUse" gradientTransform="translate(12.2279 19.4805) rotate(-72.1219) scale(2.14671 2.57097)">
<stop stop-color="#C69C3B"/>
<stop offset="1" stop-color="#C69C3B" stop-opacity="0"/>
</radialGradient>
<radialGradient id="paint3_radial_637_22380" cx="0" cy="0" r="1" gradientUnits="userSpaceOnUse" gradientTransform="translate(17.0962 10.4113) rotate(12.8628) scale(1.97565 1.95225)">
<stop stop-color="#DBBD3D"/>
<stop offset="0.708604" stop-color="#DBBD3D" stop-opacity="0"/>
</radialGradient>
<radialGradient id="paint4_radial_637_22380" cx="0" cy="0" r="1" gradientUnits="userSpaceOnUse" gradientTransform="translate(21.0901 10.5313) rotate(132.421) scale(1.22763 6.40325)">
<stop stop-color="#FFEC52"/>
<stop offset="1" stop-color="#FFEC52" stop-opacity="0"/>
</radialGradient>
<radialGradient id="paint5_radial_637_22380" cx="0" cy="0" r="1" gradientUnits="userSpaceOnUse" gradientTransform="translate(17.0962 10.4113) rotate(12.8628) scale(1.97565 1.95225)">
<stop stop-color="#DBBD3D"/>
<stop offset="0.708604" stop-color="#DBBD3D" stop-opacity="0"/>
</radialGradient>
<radialGradient id="paint6_radial_637_22380" cx="0" cy="0" r="1" gradientUnits="userSpaceOnUse" gradientTransform="translate(18.8088 12.6016) scale(1.30469 1.54687)">
<stop offset="0.281437" stop-color="#E2AA43"/>
<stop offset="0.997801" stop-color="#E2AA43" stop-opacity="0"/>
</radialGradient>
<radialGradient id="paint7_radial_637_22380" cx="0" cy="0" r="1" gradientUnits="userSpaceOnUse" gradientTransform="translate(18.8088 12.6016) scale(1.30469 1.32031)">
<stop offset="0.281437" stop-color="#E1B36C"/>
<stop offset="0.598803" stop-color="#E1B36C" stop-opacity="0"/>
</radialGradient>
<radialGradient id="paint8_radial_637_22380" cx="0" cy="0" r="1" gradientUnits="userSpaceOnUse" gradientTransform="translate(15.7619 16.0625) rotate(-148.346) scale(3.78128 2.88156)">
<stop offset="0.257033" stop-color="#D89347"/>
<stop offset="1" stop-color="#D89347" stop-opacity="0"/>
</radialGradient>
<linearGradient id="paint9_linear_637_22380" x1="12.1619" y1="18.5937" x2="9.94764" y2="14.6613" gradientUnits="userSpaceOnUse">
<stop stop-color="#F9C95B"/>
<stop offset="1" stop-color="#F9C95B" stop-opacity="0"/>
</linearGradient>
<radialGradient id="paint10_radial_637_22380" cx="0" cy="0" r="1" gradientUnits="userSpaceOnUse" gradientTransform="translate(31.8341 20.993) rotate(30.8837) scale(7.38046 6.59551)">
<stop offset="0.854203" stop-color="#D12366" stop-opacity="0"/>
<stop offset="1" stop-color="#D12366"/>
</radialGradient>
<linearGradient id="paint11_linear_637_22380" x1="37.5748" y1="22.1411" x2="37.5748" y2="19.9636" gradientUnits="userSpaceOnUse">
<stop offset="0.771402" stop-color="#D12366" stop-opacity="0"/>
<stop offset="1" stop-color="#D12366"/>
</linearGradient>
<radialGradient id="paint12_radial_637_22380" cx="0" cy="0" r="1" gradientUnits="userSpaceOnUse" gradientTransform="translate(31.2306 21.1876) rotate(40.1009) scale(2.3287 5.47012)">
<stop stop-color="#CF2766"/>
<stop offset="1" stop-color="#CF2766" stop-opacity="0"/>
</radialGradient>
<linearGradient id="paint13_linear_637_22380" x1="33.1656" y1="39.5001" x2="33.1656" y2="31.8126" gradientUnits="userSpaceOnUse">
<stop stop-color="#BF3E85"/>
<stop offset="1" stop-color="#BF3E85" stop-opacity="0"/>
</linearGradient>
<radialGradient id="paint14_radial_637_22380" cx="0" cy="0" r="1" gradientUnits="userSpaceOnUse" gradientTransform="translate(32.2619 28.4376) rotate(68.1986) scale(9.9289 9.13338)">
<stop offset="0.904733" stop-color="#BC2F9C" stop-opacity="0"/>
<stop offset="1" stop-color="#BC2F9C"/>
</radialGradient>
<linearGradient id="paint15_linear_637_22380" x1="37.7306" y1="30.2501" x2="37.7306" y2="26.8126" gradientUnits="userSpaceOnUse">
<stop offset="0.771402" stop-color="#D12366" stop-opacity="0"/>
<stop offset="1" stop-color="#D12366"/>
</linearGradient>
<radialGradient id="paint16_radial_637_22380" cx="0" cy="0" r="1" gradientUnits="userSpaceOnUse" gradientTransform="translate(33.3869 26.9687) scale(1.85938 1.8675)">
<stop stop-color="#E13A8E"/>
<stop offset="1" stop-color="#E13A8E" stop-opacity="0"/>
</radialGradient>
<radialGradient id="paint17_radial_637_22380" cx="0" cy="0" r="1" gradientUnits="userSpaceOnUse" gradientTransform="translate(32.1994 18.0312) rotate(-122.574) scale(5.34 7.55281)">
<stop offset="0.823014" stop-color="#D7AE4F" stop-opacity="0"/>
<stop offset="1" stop-color="#D7AE4F"/>
</radialGradient>
<radialGradient id="paint18_radial_637_22380" cx="0" cy="0" r="1" gradientUnits="userSpaceOnUse" gradientTransform="translate(35.6837 13.2656) rotate(155.072) scale(3.67005 0.719241)">
<stop stop-color="#FFD465"/>
<stop offset="0.659771" stop-color="#FFD465" stop-opacity="0"/>
</radialGradient>
<radialGradient id="paint19_radial_637_22380" cx="0" cy="0" r="1" gradientUnits="userSpaceOnUse" gradientTransform="translate(26.5744 17.2344) scale(2.5 3.58259)">
<stop stop-color="#938036"/>
<stop offset="1" stop-color="#938036" stop-opacity="0"/>
</radialGradient>
<linearGradient id="paint20_linear_637_22380" x1="34.9337" y1="15.375" x2="34.1837" y2="14.5313" gradientUnits="userSpaceOnUse">
<stop stop-color="#DAAB57"/>
<stop offset="1" stop-color="#DAAB57" stop-opacity="0"/>
</linearGradient>
<linearGradient id="paint21_linear_637_22380" x1="38.2932" y1="37.125" x2="23.0781" y2="22.6875" gradientUnits="userSpaceOnUse">
<stop stop-color="#57CBA4"/>
<stop offset="1" stop-color="#4AB297"/>
</linearGradient>
<linearGradient id="paint22_linear_637_22380" x1="25.6612" y1="38.8437" x2="25.6612" y2="35.625" gradientUnits="userSpaceOnUse">
<stop offset="0.126214" stop-color="#7897CC"/>
<stop offset="1" stop-color="#7897CC" stop-opacity="0"/>
</linearGradient>
<radialGradient id="paint23_radial_637_22380" cx="0" cy="0" r="1" gradientUnits="userSpaceOnUse" gradientTransform="translate(36.0675 17.0937) rotate(150.445) scale(2.4708 0.651607)">
<stop stop-color="#65C89A"/>
<stop offset="1" stop-color="#65C89A" stop-opacity="0"/>
</radialGradient>
<radialGradient id="paint24_radial_637_22380" cx="0" cy="0" r="1" gradientUnits="userSpaceOnUse" gradientTransform="translate(24.1369 16.6875) rotate(147.004) scale(1.26244 0.304084)">
<stop stop-color="#65C89A"/>
<stop offset="1" stop-color="#65C89A" stop-opacity="0"/>
</radialGradient>
<radialGradient id="paint25_radial_637_22380" cx="0" cy="0" r="1" gradientUnits="userSpaceOnUse" gradientTransform="translate(25.9182 14.9375) rotate(170.727) scale(1.55152 0.919221)">
<stop stop-color="#65C89A"/>
<stop offset="1" stop-color="#65C89A" stop-opacity="0"/>
</radialGradient>
<linearGradient id="paint26_linear_637_22380" x1="9.35568" y1="23.75" x2="11.9807" y2="23.75" gradientUnits="userSpaceOnUse">
<stop stop-color="#3DA57B"/>
<stop offset="1" stop-color="#3DA57B" stop-opacity="0"/>
</linearGradient>
<linearGradient id="paint27_linear_637_22380" x1="9.94943" y1="23.75" x2="10.4963" y2="23.75" gradientUnits="userSpaceOnUse">
<stop stop-color="#85C3A1"/>
<stop offset="1" stop-color="#85C3A1" stop-opacity="0"/>
</linearGradient>
<radialGradient id="paint28_radial_637_22380" cx="0" cy="0" r="1" gradientUnits="userSpaceOnUse" gradientTransform="translate(14.4807 19.9062) rotate(131.055) scale(1.28468 2.18623)">
<stop stop-color="#54BF8D"/>
<stop offset="1" stop-color="#54BF8D" stop-opacity="0"/>
</radialGradient>
<radialGradient id="paint29_radial_637_22380" cx="0" cy="0" r="1" gradientUnits="userSpaceOnUse" gradientTransform="translate(24.5197 16.2734) rotate(-165.15) scale(1.06689 0.814336)">
<stop offset="0.0290911" stop-color="#0E8D61"/>
<stop offset="1" stop-color="#0E8D61" stop-opacity="0"/>
</radialGradient>
<radialGradient id="paint30_radial_637_22380" cx="0" cy="0" r="1" gradientUnits="userSpaceOnUse" gradientTransform="translate(17.4494 32.4687) rotate(-90) scale(2.4375 12.0937)">
<stop stop-color="#6B9BAB"/>
<stop offset="0.653846" stop-color="#6B9BAB" stop-opacity="0"/>
</radialGradient>
<radialGradient id="paint31_radial_637_22380" cx="0" cy="0" r="1" gradientUnits="userSpaceOnUse" gradientTransform="translate(14.1994 27.125) rotate(-90) scale(2.53125 13.7187)">
<stop stop-color="#6B9BAB"/>
<stop offset="0.467391" stop-color="#6B9BAB" stop-opacity="0"/>
</radialGradient>
<radialGradient id="paint32_radial_637_22380" cx="0" cy="0" r="1" gradientUnits="userSpaceOnUse" gradientTransform="translate(12.4494 31.2812) rotate(-19.0935) scale(1.7196 4.32967)">
<stop stop-color="#6DAFA5"/>
<stop offset="1" stop-color="#6DAFA5" stop-opacity="0"/>
</radialGradient>
<linearGradient id="paint33_linear_637_22380" x1="12.6212" y1="24.1406" x2="12.6212" y2="21.1719" gradientUnits="userSpaceOnUse">
<stop stop-color="#1D946D"/>
<stop offset="1" stop-color="#19766C"/>
</linearGradient>
<radialGradient id="paint34_radial_637_22380" cx="0" cy="0" r="1" gradientUnits="userSpaceOnUse" gradientTransform="translate(12.3494 21) rotate(90) scale(1.89062 1.41565)">
<stop stop-color="#417B8B"/>
<stop offset="1" stop-color="#417B8B" stop-opacity="0"/>
</radialGradient>
<linearGradient id="paint35_linear_637_22380" x1="23.775" y1="22.8115" x2="22.8615" y2="22.8115" gradientUnits="userSpaceOnUse">
<stop offset="0.225" stop-color="#594C4F"/>
<stop offset="1" stop-color="#392833"/>
</linearGradient>
<linearGradient id="paint36_linear_637_22380" x1="24.0216" y1="24.8176" x2="24.0216" y2="22.964" gradientUnits="userSpaceOnUse">
<stop stop-color="#492847"/>
<stop offset="1" stop-color="#552D52" stop-opacity="0"/>
</linearGradient>
<radialGradient id="paint37_radial_637_22380" cx="0" cy="0" r="1" gradientUnits="userSpaceOnUse" gradientTransform="translate(23.1556 23.3611) rotate(-102.084) scale(2.25139 2.00552)">
<stop offset="0.813951" stop-color="#594C4F" stop-opacity="0"/>
<stop offset="1" stop-color="#594C4F"/>
</radialGradient>
<radialGradient id="paint38_radial_637_22380" cx="0" cy="0" r="1" gradientUnits="userSpaceOnUse" gradientTransform="translate(21.0744 33.875) rotate(25.0169) scale(2.06912 5.92228)">
<stop stop-color="#F2CB3F"/>
<stop offset="1" stop-color="#F2CB3F" stop-opacity="0"/>
</radialGradient>
<radialGradient id="paint39_radial_637_22380" cx="0" cy="0" r="1" gradientUnits="userSpaceOnUse" gradientTransform="translate(18.1994 35.9375) rotate(49.316) scale(4.69791 10.7811)">
<stop offset="0.0345133" stop-color="#B0BB44"/>
<stop offset="1" stop-color="#B0BB44" stop-opacity="0"/>
</radialGradient>
<linearGradient id="paint40_linear_637_22380" x1="20.4494" y1="38.625" x2="20.4494" y2="36.75" gradientUnits="userSpaceOnUse">
<stop stop-color="#C4A58D"/>
<stop offset="1" stop-color="#C4A58D" stop-opacity="0"/>
</linearGradient>
<linearGradient id="paint41_linear_637_22380" x1="36.9962" y1="27.4995" x2="36.9962" y2="37.3905" gradientUnits="userSpaceOnUse">
<stop stop-color="#FF81B4"/>
<stop offset="1" stop-color="#FF81B4" stop-opacity="0"/>
</linearGradient>
<linearGradient id="paint42_linear_637_22380" x1="37.5118" y1="20.3516" x2="37.5118" y2="25.5592" gradientUnits="userSpaceOnUse">
<stop stop-color="#FF81B4"/>
<stop offset="1" stop-color="#FF81B4" stop-opacity="0"/>
</linearGradient>
<linearGradient id="paint43_linear_637_22380" x1="32.6935" y1="16.2969" x2="32.6935" y2="15.25" gradientUnits="userSpaceOnUse">
<stop stop-color="#8C8337"/>
<stop offset="1" stop-color="#8C8337" stop-opacity="0"/>
</linearGradient>
<linearGradient id="paint44_linear_637_22380" x1="29.6915" y1="16.5703" x2="30.4181" y2="16.6407" gradientUnits="userSpaceOnUse">
<stop stop-color="#F1B74E"/>
<stop offset="1" stop-color="#F1B74E" stop-opacity="0"/>
</linearGradient>
<linearGradient id="paint45_linear_637_22380" x1="20.1368" y1="11.0625" x2="20.5275" y2="13.8437" gradientUnits="userSpaceOnUse">
<stop stop-color="#FFF35F"/>
<stop offset="1" stop-color="#FFF35F" stop-opacity="0"/>
</linearGradient>
<linearGradient id="paint46_linear_637_22380" x1="30.2948" y1="32.8125" x2="30.2948" y2="43.5" gradientUnits="userSpaceOnUse">
<stop stop-color="#5CCDA1"/>
<stop offset="1" stop-color="#5CCDA1" stop-opacity="0"/>
</linearGradient>
<linearGradient id="paint47_linear_637_22380" x1="30.3868" y1="20.8594" x2="35.6993" y2="20.8594" gradientUnits="userSpaceOnUse">
<stop stop-color="#47A19B"/>
<stop offset="1" stop-color="#47A19B" stop-opacity="0"/>
</linearGradient>
</defs>
</svg>
