<svg width="48" height="48" viewBox="0 0 48 48" fill="none" xmlns="http://www.w3.org/2000/svg">
<rect width="48" height="48" rx="24" fill="#F2F5FF"/>
<path d="M15.5845 31.0746C14.2434 31.7971 13.0419 32.1482 12.4851 31.5914C10.8338 29.9401 15.0269 24.1138 16.3974 22.5435C16.4388 22.3463 16.4788 22.1574 16.5167 21.9788L16.5215 21.9796L15.5371 27.0265C15.3723 27.8186 15.2363 29.4713 15.5845 31.0746Z" fill="url(#paint0_radial_637_22389)"/>
<path d="M15.5845 31.0746C14.2434 31.7971 13.0419 32.1482 12.4851 31.5914C10.8338 29.9401 15.0269 24.1138 16.3974 22.5435C16.4388 22.3463 16.4788 22.1574 16.5167 21.9788L16.5215 21.9796L15.5371 27.0265C15.3723 27.8186 15.2363 29.4713 15.5845 31.0746Z" fill="url(#paint1_linear_637_22389)"/>
<path d="M15.5845 31.0746C14.2434 31.7971 13.0419 32.1482 12.4851 31.5914C10.8338 29.9401 15.0269 24.1138 16.3974 22.5435C16.4388 22.3463 16.4788 22.1574 16.5167 21.9788L16.5215 21.9796L15.5371 27.0265C15.3723 27.8186 15.2363 29.4713 15.5845 31.0746Z" fill="url(#paint2_radial_637_22389)"/>
<path d="M32.3423 31.0746C33.6833 31.7971 34.8849 32.1482 35.4416 31.5913C37.0929 29.9401 32.8412 24.1138 31.4707 22.5435C31.541 22.9366 32.2446 26.2826 32.3896 27.0265C32.5544 27.8186 32.6904 29.4713 32.3423 31.0746Z" fill="url(#paint3_linear_637_22389)"/>
<path d="M32.3423 31.0746C33.6833 31.7971 34.8849 32.1482 35.4416 31.5913C37.0929 29.9401 32.8412 24.1138 31.4707 22.5435C31.541 22.9366 32.2446 26.2826 32.3896 27.0265C32.5544 27.8186 32.6904 29.4713 32.3423 31.0746Z" fill="url(#paint4_linear_637_22389)"/>
<g filter="url(#filter0_f_637_22389)">
<path d="M35.4245 30.1422C34.3374 27.2856 32.0954 24.2913 31.2402 23.2451L30.709 26.5576C31.5535 27.0544 33.6639 28.9528 34.986 30.3857C35.1724 30.5878 35.5223 30.3992 35.4245 30.1422Z" fill="url(#paint5_linear_637_22389)" fill-opacity="0.75"/>
</g>
<path d="M24.0669 14.1318C27.5261 14.1318 30.769 17.3027 31.0573 20.4376C31.0848 20.7364 31.2327 21.4283 31.4264 22.3158L32.4131 27.0264C32.5781 27.8193 32.7142 29.4744 32.3647 31.0792C32.124 32.0776 31.6937 33.037 31.112 33.9044L30.8481 36.9724C30.8481 36.9724 25.715 37.8938 23.8532 37.8674C22.0692 37.8417 17.1324 36.9724 17.1324 36.9724L16.822 33.9044C16.25 33.0409 15.8258 32.0816 15.5855 31.0739L15.5845 31.0745C15.2364 29.4712 15.3723 27.8185 15.5371 27.0264L16.5215 21.9795L16.5167 21.9786L16.5931 21.6193C16.7117 21.062 16.8012 20.6415 16.8363 20.4376C17.3888 17.2307 20.1994 14.1318 24.0669 14.1318Z" fill="url(#paint6_linear_637_22389)"/>
<path d="M24.0669 14.1318C27.5261 14.1318 30.769 17.3027 31.0573 20.4376C31.0848 20.7364 31.2327 21.4283 31.4264 22.3158L32.4131 27.0264C32.5781 27.8193 32.7142 29.4744 32.3647 31.0792C32.124 32.0776 31.6937 33.037 31.112 33.9044L30.8481 36.9724C30.8481 36.9724 25.715 37.8938 23.8532 37.8674C22.0692 37.8417 17.1324 36.9724 17.1324 36.9724L16.822 33.9044C16.25 33.0409 15.8258 32.0816 15.5855 31.0739L15.5845 31.0745C15.2364 29.4712 15.3723 27.8185 15.5371 27.0264L16.5215 21.9795L16.5167 21.9786L16.5931 21.6193C16.7117 21.062 16.8012 20.6415 16.8363 20.4376C17.3888 17.2307 20.1994 14.1318 24.0669 14.1318Z" fill="url(#paint7_radial_637_22389)"/>
<path d="M24.0669 14.1318C27.5261 14.1318 30.769 17.3027 31.0573 20.4376C31.0848 20.7364 31.2327 21.4283 31.4264 22.3158L32.4131 27.0264C32.5781 27.8193 32.7142 29.4744 32.3647 31.0792C32.124 32.0776 31.6937 33.037 31.112 33.9044L30.8481 36.9724C30.8481 36.9724 25.715 37.8938 23.8532 37.8674C22.0692 37.8417 17.1324 36.9724 17.1324 36.9724L16.822 33.9044C16.25 33.0409 15.8258 32.0816 15.5855 31.0739L15.5845 31.0745C15.2364 29.4712 15.3723 27.8185 15.5371 27.0264L16.5215 21.9795L16.5167 21.9786L16.5931 21.6193C16.7117 21.062 16.8012 20.6415 16.8363 20.4376C17.3888 17.2307 20.1994 14.1318 24.0669 14.1318Z" fill="url(#paint8_radial_637_22389)"/>
<path d="M24.0669 14.1318C27.5261 14.1318 30.769 17.3027 31.0573 20.4376C31.0848 20.7364 31.2327 21.4283 31.4264 22.3158L32.4131 27.0264C32.5781 27.8193 32.7142 29.4744 32.3647 31.0792C32.124 32.0776 31.6937 33.037 31.112 33.9044L30.8481 36.9724C30.8481 36.9724 25.715 37.8938 23.8532 37.8674C22.0692 37.8417 17.1324 36.9724 17.1324 36.9724L16.822 33.9044C16.25 33.0409 15.8258 32.0816 15.5855 31.0739L15.5845 31.0745C15.2364 29.4712 15.3723 27.8185 15.5371 27.0264L16.5215 21.9795L16.5167 21.9786L16.5931 21.6193C16.7117 21.062 16.8012 20.6415 16.8363 20.4376C17.3888 17.2307 20.1994 14.1318 24.0669 14.1318Z" fill="url(#paint9_radial_637_22389)"/>
<path d="M24.0669 14.1318C27.5261 14.1318 30.769 17.3027 31.0573 20.4376C31.0848 20.7364 31.2327 21.4283 31.4264 22.3158L32.4131 27.0264C32.5781 27.8193 32.7142 29.4744 32.3647 31.0792C32.124 32.0776 31.6937 33.037 31.112 33.9044L30.8481 36.9724C30.8481 36.9724 25.715 37.8938 23.8532 37.8674C22.0692 37.8417 17.1324 36.9724 17.1324 36.9724L16.822 33.9044C16.25 33.0409 15.8258 32.0816 15.5855 31.0739L15.5845 31.0745C15.2364 29.4712 15.3723 27.8185 15.5371 27.0264L16.5215 21.9795L16.5167 21.9786L16.5931 21.6193C16.7117 21.062 16.8012 20.6415 16.8363 20.4376C17.3888 17.2307 20.1994 14.1318 24.0669 14.1318Z" fill="url(#paint10_radial_637_22389)"/>
<g filter="url(#filter1_f_637_22389)">
<path d="M28.8221 24.211C29.3082 23.396 29.5778 22.3587 29.5778 21.0841C29.5778 19.746 28.9128 18.4481 28.0265 17.4879C27.1434 16.5311 26.0154 15.8832 25.0639 15.8832C24.8864 15.8832 24.7708 15.9845 24.6944 16.1072C24.6237 16.2206 24.5757 16.3686 24.532 16.5033L24.529 16.5126C24.472 16.6883 24.4189 16.8484 24.3349 16.967C24.2574 17.0765 24.1572 17.1456 23.9937 17.1456C23.8262 17.1456 23.7182 17.0727 23.6323 16.9561C23.5406 16.8317 23.4799 16.665 23.4161 16.4869L23.413 16.4782C23.3662 16.3475 23.3156 16.2062 23.2472 16.0985C23.1747 15.9842 23.066 15.8831 22.8995 15.8831C21.9553 15.8831 20.8184 16.5139 19.9242 17.4632C19.0268 18.4158 18.3496 19.714 18.3496 21.0841C18.3496 22.38 18.6234 23.4115 19.1025 24.2136C17.744 25.4828 16.896 27.2791 16.896 29.2708C16.896 33.1201 20.062 36.2376 23.9637 36.2376C27.8653 36.2376 31.0314 33.1201 31.0314 29.2708C31.0314 27.2778 30.1823 25.4804 28.8221 24.211Z" stroke="url(#paint11_linear_637_22389)" stroke-width="0.25"/>
</g>
<g filter="url(#filter2_i_637_22389)">
<path d="M28.6619 24.2334C29.1671 23.4293 29.4528 22.3873 29.4528 21.0841C29.4528 18.4882 26.8675 16.0082 25.0639 16.0082C24.8241 16.0082 24.7399 16.2676 24.6479 16.5512C24.5369 16.8933 24.4144 17.2706 23.9937 17.2706C23.564 17.2706 23.4229 16.8768 23.2984 16.5291C23.2 16.2542 23.1119 16.0081 22.8995 16.0081C21.1079 16.0081 18.4746 18.4249 18.4746 21.0841C18.4746 22.41 18.7651 23.4455 19.2628 24.2359C17.8846 25.4862 17.021 27.2791 17.021 29.2708C17.021 33.0494 20.1293 36.1126 23.9637 36.1126C27.798 36.1126 30.9064 33.0494 30.9064 29.2708C30.9064 27.2778 30.0417 25.4838 28.6619 24.2334Z" fill="url(#paint12_linear_637_22389)"/>
<path d="M28.6619 24.2334C29.1671 23.4293 29.4528 22.3873 29.4528 21.0841C29.4528 18.4882 26.8675 16.0082 25.0639 16.0082C24.8241 16.0082 24.7399 16.2676 24.6479 16.5512C24.5369 16.8933 24.4144 17.2706 23.9937 17.2706C23.564 17.2706 23.4229 16.8768 23.2984 16.5291C23.2 16.2542 23.1119 16.0081 22.8995 16.0081C21.1079 16.0081 18.4746 18.4249 18.4746 21.0841C18.4746 22.41 18.7651 23.4455 19.2628 24.2359C17.8846 25.4862 17.021 27.2791 17.021 29.2708C17.021 33.0494 20.1293 36.1126 23.9637 36.1126C27.798 36.1126 30.9064 33.0494 30.9064 29.2708C30.9064 27.2778 30.0417 25.4838 28.6619 24.2334Z" fill="url(#paint13_radial_637_22389)"/>
</g>
<g filter="url(#filter3_f_637_22389)">
<path d="M21.3848 25.3975L26.6152 22.5537L21.3848 22.2764V25.3975Z" fill="url(#paint14_linear_637_22389)"/>
<path d="M21.3848 25.3975L26.6152 22.5537L21.3848 22.2764V25.3975Z" fill="url(#paint15_linear_637_22389)"/>
</g>
<path d="M21.3848 22.5537H26.5957C26.5957 21.1148 25.4292 19.9482 23.9902 19.9482C22.5513 19.9482 21.3848 21.1148 21.3848 22.5537Z" fill="#F97725"/>
<path d="M21.3848 22.5537H26.5957C26.5957 21.1148 25.4292 19.9482 23.9902 19.9482C22.5513 19.9482 21.3848 21.1148 21.3848 22.5537Z" fill="url(#paint16_radial_637_22389)"/>
<path d="M21.3848 22.5537H26.5957C26.5957 21.1148 25.4292 19.9482 23.9902 19.9482C22.5513 19.9482 21.3848 21.1148 21.3848 22.5537Z" fill="url(#paint17_radial_637_22389)"/>
<path d="M21.3848 22.5537H26.5957C26.5957 21.1148 25.4292 19.9482 23.9902 19.9482C22.5513 19.9482 21.3848 21.1148 21.3848 22.5537Z" fill="url(#paint18_linear_637_22389)"/>
<g filter="url(#filter4_f_637_22389)">
<rect x="21.9355" y="17.8701" width="0.90625" height="1.64062" rx="0.453125" fill="#B5AABA"/>
</g>
<g filter="url(#filter5_f_637_22389)">
<rect x="24.9355" y="17.8701" width="0.90625" height="1.64062" rx="0.453125" fill="#B5AABA"/>
</g>
<rect x="22.0371" y="17.792" width="0.90625" height="1.64062" rx="0.453125" fill="url(#paint19_linear_637_22389)"/>
<rect x="22.0371" y="17.792" width="0.90625" height="1.64062" rx="0.453125" fill="url(#paint20_linear_637_22389)"/>
<rect x="22.0371" y="17.792" width="0.90625" height="1.64062" rx="0.453125" fill="url(#paint21_radial_637_22389)"/>
<rect x="25.0371" y="17.792" width="0.90625" height="1.64062" rx="0.453125" fill="url(#paint22_linear_637_22389)"/>
<rect x="25.0371" y="17.792" width="0.90625" height="1.64062" rx="0.453125" fill="url(#paint23_linear_637_22389)"/>
<rect x="25.0371" y="17.792" width="0.90625" height="1.64062" rx="0.453125" fill="url(#paint24_radial_637_22389)"/>
<g filter="url(#filter6_f_637_22389)">
<rect x="25.4512" y="18.0139" width="0.320312" height="1.19687" rx="0.160156" fill="#76676A"/>
</g>
<g filter="url(#filter7_f_637_22389)">
<rect x="22.4355" y="18.0139" width="0.320312" height="1.19687" rx="0.160156" fill="#76676A"/>
</g>
<path d="M23.9902 37.8681L31.7721 37.8683C31.9846 37.8683 32.1578 37.6957 32.148 37.4834C32.088 36.1803 31.7252 34.956 31.1284 33.8796C29.5865 36.1945 26.9674 37.8594 23.9902 37.8681Z" fill="#FF9D63"/>
<path d="M23.9902 37.8681L31.7721 37.8683C31.9846 37.8683 32.1578 37.6957 32.148 37.4834C32.088 36.1803 31.7252 34.956 31.1284 33.8796C29.5865 36.1945 26.9674 37.8594 23.9902 37.8681Z" fill="url(#paint25_linear_637_22389)"/>
<path d="M23.9902 37.8681L31.7721 37.8683C31.9846 37.8683 32.1578 37.6957 32.148 37.4834C32.088 36.1803 31.7252 34.956 31.1284 33.8796C29.5865 36.1945 26.9674 37.8594 23.9902 37.8681Z" fill="url(#paint26_radial_637_22389)"/>
<path d="M23.9902 37.8681L31.7721 37.8683C31.9846 37.8683 32.1578 37.6957 32.148 37.4834C32.088 36.1803 31.7252 34.956 31.1284 33.8796C29.5865 36.1945 26.9674 37.8594 23.9902 37.8681Z" fill="url(#paint27_radial_637_22389)"/>
<path d="M23.9902 37.8681L31.7721 37.8683C31.9846 37.8683 32.1578 37.6957 32.148 37.4834C32.088 36.1803 31.7252 34.956 31.1284 33.8796C29.5865 36.1945 26.9674 37.8594 23.9902 37.8681Z" fill="url(#paint28_linear_637_22389)"/>
<path d="M23.9636 37.8681L16.1818 37.8683C15.9693 37.8683 15.7961 37.6957 15.8058 37.4834C15.8658 36.1803 16.2287 34.956 16.8254 33.8796C18.3673 36.1945 20.9864 37.8594 23.9636 37.8681Z" fill="#DD4533"/>
<path d="M23.9636 37.8681L16.1818 37.8683C15.9693 37.8683 15.7961 37.6957 15.8058 37.4834C15.8658 36.1803 16.2287 34.956 16.8254 33.8796C18.3673 36.1945 20.9864 37.8594 23.9636 37.8681Z" fill="url(#paint29_linear_637_22389)"/>
<path d="M23.9636 37.8681L16.1818 37.8683C15.9693 37.8683 15.7961 37.6957 15.8058 37.4834C15.8658 36.1803 16.2287 34.956 16.8254 33.8796C18.3673 36.1945 20.9864 37.8594 23.9636 37.8681Z" fill="url(#paint30_linear_637_22389)"/>
<defs>
<filter id="filter0_f_637_22389" x="29.959" y="22.4951" width="6.23242" height="8.72571" filterUnits="userSpaceOnUse" color-interpolation-filters="sRGB">
<feFlood flood-opacity="0" result="BackgroundImageFix"/>
<feBlend mode="normal" in="SourceGraphic" in2="BackgroundImageFix" result="shape"/>
<feGaussianBlur stdDeviation="0.375" result="effect1_foregroundBlur_637_22389"/>
</filter>
<filter id="filter1_f_637_22389" x="16.571" y="15.5581" width="14.7854" height="21.0045" filterUnits="userSpaceOnUse" color-interpolation-filters="sRGB">
<feFlood flood-opacity="0" result="BackgroundImageFix"/>
<feBlend mode="normal" in="SourceGraphic" in2="BackgroundImageFix" result="shape"/>
<feGaussianBlur stdDeviation="0.1" result="effect1_foregroundBlur_637_22389"/>
</filter>
<filter id="filter2_i_637_22389" x="17.021" y="15.8081" width="13.8854" height="20.3045" filterUnits="userSpaceOnUse" color-interpolation-filters="sRGB">
<feFlood flood-opacity="0" result="BackgroundImageFix"/>
<feBlend mode="normal" in="SourceGraphic" in2="BackgroundImageFix" result="shape"/>
<feColorMatrix in="SourceAlpha" type="matrix" values="0 0 0 0 0 0 0 0 0 0 0 0 0 0 0 0 0 0 127 0" result="hardAlpha"/>
<feOffset dy="-0.2"/>
<feGaussianBlur stdDeviation="0.25"/>
<feComposite in2="hardAlpha" operator="arithmetic" k2="-1" k3="1"/>
<feColorMatrix type="matrix" values="0 0 0 0 0.711813 0 0 0 0 0.656753 0 0 0 0 0.754167 0 0 0 1 0"/>
<feBlend mode="normal" in2="shape" result="effect1_innerShadow_637_22389"/>
</filter>
<filter id="filter3_f_637_22389" x="20.6348" y="21.5264" width="6.73047" height="4.62109" filterUnits="userSpaceOnUse" color-interpolation-filters="sRGB">
<feFlood flood-opacity="0" result="BackgroundImageFix"/>
<feBlend mode="normal" in="SourceGraphic" in2="BackgroundImageFix" result="shape"/>
<feGaussianBlur stdDeviation="0.375" result="effect1_foregroundBlur_637_22389"/>
</filter>
<filter id="filter4_f_637_22389" x="21.4355" y="17.3701" width="1.90625" height="2.64062" filterUnits="userSpaceOnUse" color-interpolation-filters="sRGB">
<feFlood flood-opacity="0" result="BackgroundImageFix"/>
<feBlend mode="normal" in="SourceGraphic" in2="BackgroundImageFix" result="shape"/>
<feGaussianBlur stdDeviation="0.25" result="effect1_foregroundBlur_637_22389"/>
</filter>
<filter id="filter5_f_637_22389" x="24.4355" y="17.3701" width="1.90625" height="2.64062" filterUnits="userSpaceOnUse" color-interpolation-filters="sRGB">
<feFlood flood-opacity="0" result="BackgroundImageFix"/>
<feBlend mode="normal" in="SourceGraphic" in2="BackgroundImageFix" result="shape"/>
<feGaussianBlur stdDeviation="0.25" result="effect1_foregroundBlur_637_22389"/>
</filter>
<filter id="filter6_f_637_22389" x="25.0512" y="17.6139" width="1.12031" height="1.9969" filterUnits="userSpaceOnUse" color-interpolation-filters="sRGB">
<feFlood flood-opacity="0" result="BackgroundImageFix"/>
<feBlend mode="normal" in="SourceGraphic" in2="BackgroundImageFix" result="shape"/>
<feGaussianBlur stdDeviation="0.2" result="effect1_foregroundBlur_637_22389"/>
</filter>
<filter id="filter7_f_637_22389" x="22.0355" y="17.6139" width="1.12031" height="1.9969" filterUnits="userSpaceOnUse" color-interpolation-filters="sRGB">
<feFlood flood-opacity="0" result="BackgroundImageFix"/>
<feBlend mode="normal" in="SourceGraphic" in2="BackgroundImageFix" result="shape"/>
<feGaussianBlur stdDeviation="0.2" result="effect1_foregroundBlur_637_22389"/>
</filter>
<radialGradient id="paint0_radial_637_22389" cx="0" cy="0" r="1" gradientUnits="userSpaceOnUse" gradientTransform="translate(14.1465 30.0578) rotate(-62.4824) scale(5.88447 3.37643)">
<stop stop-color="#652998"/>
<stop offset="1" stop-color="#501E65"/>
</radialGradient>
<linearGradient id="paint1_linear_637_22389" x1="12.959" y1="32.5578" x2="15.2402" y2="29.3703" gradientUnits="userSpaceOnUse">
<stop stop-color="#462096"/>
<stop offset="1" stop-color="#462096" stop-opacity="0"/>
</linearGradient>
<radialGradient id="paint2_radial_637_22389" cx="0" cy="0" r="1" gradientUnits="userSpaceOnUse" gradientTransform="translate(17.2715 26.9222) rotate(130.427) scale(7.30067 3.02415)">
<stop offset="0.786291" stop-color="#493659" stop-opacity="0"/>
<stop offset="1" stop-color="#493659"/>
</radialGradient>
<linearGradient id="paint3_linear_637_22389" x1="33.6438" y1="22.5435" x2="33.6438" y2="31.8655" gradientUnits="userSpaceOnUse">
<stop stop-color="#814690"/>
<stop offset="1" stop-color="#511691"/>
</linearGradient>
<linearGradient id="paint4_linear_637_22389" x1="35.3027" y1="32.589" x2="33.244" y2="30.1927" gradientUnits="userSpaceOnUse">
<stop stop-color="#462096"/>
<stop offset="1" stop-color="#462096" stop-opacity="0"/>
</linearGradient>
<linearGradient id="paint5_linear_637_22389" x1="36.3169" y1="31.3701" x2="31.8027" y2="23.4951" gradientUnits="userSpaceOnUse">
<stop stop-color="#8760B5"/>
<stop offset="1" stop-color="#8760B5" stop-opacity="0"/>
</linearGradient>
<linearGradient id="paint6_linear_637_22389" x1="23.9751" y1="13.8076" x2="23.9751" y2="37.868" gradientUnits="userSpaceOnUse">
<stop stop-color="#57275F"/>
<stop offset="1" stop-color="#4C20A3"/>
</linearGradient>
<radialGradient id="paint7_radial_637_22389" cx="0" cy="0" r="1" gradientUnits="userSpaceOnUse" gradientTransform="translate(29.9902 16.0576) rotate(138.39) scale(12.706 18.4562)">
<stop stop-color="#813687"/>
<stop offset="1" stop-color="#813687" stop-opacity="0"/>
</radialGradient>
<radialGradient id="paint8_radial_637_22389" cx="0" cy="0" r="1" gradientUnits="userSpaceOnUse" gradientTransform="translate(23.9751 40.8076) rotate(-90) scale(5.8125 7.20261)">
<stop stop-color="#552EAA"/>
<stop offset="1" stop-color="#552EAA" stop-opacity="0"/>
</radialGradient>
<radialGradient id="paint9_radial_637_22389" cx="0" cy="0" r="1" gradientUnits="userSpaceOnUse" gradientTransform="translate(25.084 16.0889) rotate(38.7966) scale(1.02245 0.990695)">
<stop stop-color="#884790"/>
<stop offset="1" stop-color="#884790" stop-opacity="0"/>
</radialGradient>
<radialGradient id="paint10_radial_637_22389" cx="0" cy="0" r="1" gradientUnits="userSpaceOnUse" gradientTransform="translate(28.0527 18.9326) rotate(-35.3112) scale(1.83818 2.42576)">
<stop stop-color="#884790"/>
<stop offset="1" stop-color="#884790" stop-opacity="0"/>
</radialGradient>
<linearGradient id="paint11_linear_637_22389" x1="23.9637" y1="16.0081" x2="23.9637" y2="36.1126" gradientUnits="userSpaceOnUse">
<stop stop-color="#60166F"/>
<stop offset="1" stop-color="#51309A"/>
</linearGradient>
<linearGradient id="paint12_linear_637_22389" x1="23.9637" y1="17.2453" x2="23.9637" y2="36.1126" gradientUnits="userSpaceOnUse">
<stop stop-color="#D4C5DF"/>
<stop offset="1" stop-color="#EFC3FF"/>
</linearGradient>
<radialGradient id="paint13_radial_637_22389" cx="0" cy="0" r="1" gradientUnits="userSpaceOnUse" gradientTransform="translate(29.8028 23.1828) rotate(171.69) scale(11.2431 13.4274)">
<stop stop-color="#FFF6FF"/>
<stop offset="1" stop-color="#FFF6FF" stop-opacity="0"/>
</radialGradient>
<linearGradient id="paint14_linear_637_22389" x1="26.2402" y1="22.5537" x2="21.3848" y2="24.4287" gradientUnits="userSpaceOnUse">
<stop stop-color="#E0B4E2"/>
<stop offset="1" stop-color="#E0B4E2" stop-opacity="0"/>
</linearGradient>
<linearGradient id="paint15_linear_637_22389" x1="24" y1="21.9326" x2="24" y2="23.0264" gradientUnits="userSpaceOnUse">
<stop stop-color="#D9A7E6"/>
<stop offset="1" stop-color="#D9A7E6" stop-opacity="0"/>
</linearGradient>
<radialGradient id="paint16_radial_637_22389" cx="0" cy="0" r="1" gradientUnits="userSpaceOnUse" gradientTransform="translate(25.7715 22.5537) rotate(180) scale(2.75 2.69572)">
<stop stop-color="#FFA864"/>
<stop offset="1" stop-color="#FFA864" stop-opacity="0"/>
</radialGradient>
<radialGradient id="paint17_radial_637_22389" cx="0" cy="0" r="1" gradientUnits="userSpaceOnUse" gradientTransform="translate(24.3652 19.4014) rotate(106.025) scale(1.92439 1.93572)">
<stop stop-color="#FFA864"/>
<stop offset="1" stop-color="#FFA864" stop-opacity="0"/>
</radialGradient>
<linearGradient id="paint18_linear_637_22389" x1="23.9902" y1="22.8076" x2="23.9902" y2="22.2139" gradientUnits="userSpaceOnUse">
<stop offset="0.136364" stop-color="#FF5762"/>
<stop offset="1" stop-color="#FF5762" stop-opacity="0"/>
</linearGradient>
<linearGradient id="paint19_linear_637_22389" x1="22.9434" y1="18.5098" x2="22.4188" y2="18.5098" gradientUnits="userSpaceOnUse">
<stop offset="0.225" stop-color="#594C4F"/>
<stop offset="1" stop-color="#392833"/>
</linearGradient>
<linearGradient id="paint20_linear_637_22389" x1="23.085" y1="19.3557" x2="23.085" y2="18.5741" gradientUnits="userSpaceOnUse">
<stop stop-color="#492847"/>
<stop offset="1" stop-color="#552D52" stop-opacity="0"/>
</linearGradient>
<radialGradient id="paint21_radial_637_22389" cx="0" cy="0" r="1" gradientUnits="userSpaceOnUse" gradientTransform="translate(22.5877 18.7415) rotate(-106.254) scale(0.966997 1.13071)">
<stop offset="0.813951" stop-color="#594C4F" stop-opacity="0"/>
<stop offset="1" stop-color="#594C4F"/>
</radialGradient>
<linearGradient id="paint22_linear_637_22389" x1="25.9434" y1="18.5098" x2="25.4188" y2="18.5098" gradientUnits="userSpaceOnUse">
<stop offset="0.225" stop-color="#594C4F"/>
<stop offset="1" stop-color="#392833"/>
</linearGradient>
<linearGradient id="paint23_linear_637_22389" x1="26.085" y1="19.3557" x2="26.085" y2="18.5741" gradientUnits="userSpaceOnUse">
<stop stop-color="#492847"/>
<stop offset="1" stop-color="#552D52" stop-opacity="0"/>
</linearGradient>
<radialGradient id="paint24_radial_637_22389" cx="0" cy="0" r="1" gradientUnits="userSpaceOnUse" gradientTransform="translate(25.5877 18.7415) rotate(-106.254) scale(0.966997 1.13071)">
<stop offset="0.813951" stop-color="#594C4F" stop-opacity="0"/>
<stop offset="1" stop-color="#594C4F"/>
</radialGradient>
<linearGradient id="paint25_linear_637_22389" x1="28.0693" y1="38.4326" x2="28.0693" y2="37.0576" gradientUnits="userSpaceOnUse">
<stop offset="0.136364" stop-color="#FF5762"/>
<stop offset="1" stop-color="#FF5762" stop-opacity="0"/>
</linearGradient>
<radialGradient id="paint26_radial_637_22389" cx="0" cy="0" r="1" gradientUnits="userSpaceOnUse" gradientTransform="translate(25.0215 36.9326) scale(4.25 8.69274)">
<stop offset="0.136364" stop-color="#FF5762"/>
<stop offset="1" stop-color="#FF5762" stop-opacity="0"/>
</radialGradient>
<radialGradient id="paint27_radial_637_22389" cx="0" cy="0" r="1" gradientUnits="userSpaceOnUse" gradientTransform="translate(26.6152 36.9326) scale(8.4375 8.1987)">
<stop offset="0.587037" stop-color="#FF5762" stop-opacity="0"/>
<stop offset="1" stop-color="#FF5762"/>
</radialGradient>
<linearGradient id="paint28_linear_637_22389" x1="28.0693" y1="38.1269" x2="28.0693" y2="37.4357" gradientUnits="userSpaceOnUse">
<stop stop-color="#F15CC7"/>
<stop offset="0.828473" stop-color="#F15CC7" stop-opacity="0"/>
</linearGradient>
<linearGradient id="paint29_linear_637_22389" x1="19.8845" y1="38.1269" x2="19.8845" y2="37.4357" gradientUnits="userSpaceOnUse">
<stop stop-color="#F15CC7"/>
<stop offset="0.828473" stop-color="#F15CC7" stop-opacity="0"/>
</linearGradient>
<linearGradient id="paint30_linear_637_22389" x1="24.5215" y1="37.4357" x2="19.4433" y2="37.4357" gradientUnits="userSpaceOnUse">
<stop stop-color="#F15CC7"/>
<stop offset="1" stop-color="#F15CC7" stop-opacity="0"/>
</linearGradient>
</defs>
</svg>
