<svg width="48" height="48" viewBox="0 0 48 48" fill="none" xmlns="http://www.w3.org/2000/svg">
<rect width="48" height="48" rx="24" fill="#F2F5FF"/>
<path d="M32.4251 21.8431C34.9287 21.8431 36.9582 19.8135 36.9582 17.31C36.9582 14.8064 34.9287 12.7769 32.4251 12.7769C29.9215 12.7769 27.892 14.8064 27.892 17.31C27.892 19.8135 29.9215 21.8431 32.4251 21.8431Z" fill="#995F50"/>
<path d="M32.4251 21.8431C34.9287 21.8431 36.9582 19.8135 36.9582 17.31C36.9582 14.8064 34.9287 12.7769 32.4251 12.7769C29.9215 12.7769 27.892 14.8064 27.892 17.31C27.892 19.8135 29.9215 21.8431 32.4251 21.8431Z" fill="url(#paint0_linear_637_22364)"/>
<path d="M32.4251 21.8431C34.9287 21.8431 36.9582 19.8135 36.9582 17.31C36.9582 14.8064 34.9287 12.7769 32.4251 12.7769C29.9215 12.7769 27.892 14.8064 27.892 17.31C27.892 19.8135 29.9215 21.8431 32.4251 21.8431Z" fill="url(#paint1_linear_637_22364)"/>
<path d="M32.4251 21.8431C34.9287 21.8431 36.9582 19.8135 36.9582 17.31C36.9582 14.8064 34.9287 12.7769 32.4251 12.7769C29.9215 12.7769 27.892 14.8064 27.892 17.31C27.892 19.8135 29.9215 21.8431 32.4251 21.8431Z" fill="url(#paint2_radial_637_22364)"/>
<g filter="url(#filter0_i_637_22364)">
<path d="M32.425 19.9603C33.8554 19.9603 35.0149 18.8008 35.0149 17.3705C35.0149 15.9402 33.8554 14.7806 32.425 14.7806C30.9947 14.7806 29.8352 15.9402 29.8352 17.3705C29.8352 18.8008 30.9947 19.9603 32.425 19.9603Z" fill="url(#paint3_linear_637_22364)"/>
</g>
<path d="M15.585 21.8431C13.0815 21.8431 11.0519 19.8135 11.0519 17.31C11.0519 14.8064 13.0815 12.7769 15.585 12.7769C18.0886 12.7769 20.1182 14.8064 20.1182 17.31C20.1182 19.8135 18.0886 21.8431 15.585 21.8431Z" fill="#966357"/>
<path d="M15.585 21.8431C13.0815 21.8431 11.0519 19.8135 11.0519 17.31C11.0519 14.8064 13.0815 12.7769 15.585 12.7769C18.0886 12.7769 20.1182 14.8064 20.1182 17.31C20.1182 19.8135 18.0886 21.8431 15.585 21.8431Z" fill="url(#paint4_linear_637_22364)"/>
<path d="M15.585 21.8431C13.0815 21.8431 11.0519 19.8135 11.0519 17.31C11.0519 14.8064 13.0815 12.7769 15.585 12.7769C18.0886 12.7769 20.1182 14.8064 20.1182 17.31C20.1182 19.8135 18.0886 21.8431 15.585 21.8431Z" fill="url(#paint5_linear_637_22364)"/>
<path d="M15.585 21.8431C13.0815 21.8431 11.0519 19.8135 11.0519 17.31C11.0519 14.8064 13.0815 12.7769 15.585 12.7769C18.0886 12.7769 20.1182 14.8064 20.1182 17.31C20.1182 19.8135 18.0886 21.8431 15.585 21.8431Z" fill="url(#paint6_radial_637_22364)"/>
<g filter="url(#filter1_i_637_22364)">
<path d="M15.5851 19.9603C14.1548 19.9603 12.9952 18.8008 12.9952 17.3705C12.9952 15.9402 14.1548 14.7806 15.5851 14.7806C17.0154 14.7806 18.1749 15.9402 18.1749 17.3705C18.1749 18.8008 17.0154 19.9603 15.5851 19.9603Z" fill="url(#paint7_radial_637_22364)"/>
<path d="M15.5851 19.9603C14.1548 19.9603 12.9952 18.8008 12.9952 17.3705C12.9952 15.9402 14.1548 14.7806 15.5851 14.7806C17.0154 14.7806 18.1749 15.9402 18.1749 17.3705C18.1749 18.8008 17.0154 19.9603 15.5851 19.9603Z" fill="url(#paint8_linear_637_22364)"/>
</g>
<path d="M38.2188 28.177C38.2188 28.177 38.2188 28.1671 38.2188 28.1472C38.2188 27.6111 38.168 27.085 38.0664 26.5787C37.7516 24.5237 36.7867 20.8605 33.8414 17.9022C29.6063 13.6532 24 13.9312 24 13.9312C24 13.9312 18.3938 13.6532 14.1586 17.9022C11.2031 20.8605 10.2484 24.5237 9.93359 26.5787C9.83203 27.085 9.78125 27.6111 9.78125 28.1572C9.78125 28.177 9.78125 28.1869 9.78125 28.1869C9.78125 31.592 11.8023 34.5405 14.7375 35.9502C14.7375 35.9502 17.9062 37.7669 24 37.7669C30.0938 37.7669 33.2625 35.9502 33.2625 35.9502C36.1977 34.5305 38.2188 31.5821 38.2188 28.177Z" fill="url(#paint9_radial_637_22364)"/>
<path d="M38.2188 28.177C38.2188 28.177 38.2188 28.1671 38.2188 28.1472C38.2188 27.6111 38.168 27.085 38.0664 26.5787C37.7516 24.5237 36.7867 20.8605 33.8414 17.9022C29.6063 13.6532 24 13.9312 24 13.9312C24 13.9312 18.3938 13.6532 14.1586 17.9022C11.2031 20.8605 10.2484 24.5237 9.93359 26.5787C9.83203 27.085 9.78125 27.6111 9.78125 28.1572C9.78125 28.177 9.78125 28.1869 9.78125 28.1869C9.78125 31.592 11.8023 34.5405 14.7375 35.9502C14.7375 35.9502 17.9062 37.7669 24 37.7669C30.0938 37.7669 33.2625 35.9502 33.2625 35.9502C36.1977 34.5305 38.2188 31.5821 38.2188 28.177Z" fill="url(#paint10_radial_637_22364)"/>
<path d="M38.2188 28.177C38.2188 28.177 38.2188 28.1671 38.2188 28.1472C38.2188 27.6111 38.168 27.085 38.0664 26.5787C37.7516 24.5237 36.7867 20.8605 33.8414 17.9022C29.6063 13.6532 24 13.9312 24 13.9312C24 13.9312 18.3938 13.6532 14.1586 17.9022C11.2031 20.8605 10.2484 24.5237 9.93359 26.5787C9.83203 27.085 9.78125 27.6111 9.78125 28.1572C9.78125 28.177 9.78125 28.1869 9.78125 28.1869C9.78125 31.592 11.8023 34.5405 14.7375 35.9502C14.7375 35.9502 17.9062 37.7669 24 37.7669C30.0938 37.7669 33.2625 35.9502 33.2625 35.9502C36.1977 34.5305 38.2188 31.5821 38.2188 28.177Z" fill="url(#paint11_radial_637_22364)"/>
<path d="M38.2188 28.177C38.2188 28.177 38.2188 28.1671 38.2188 28.1472C38.2188 27.6111 38.168 27.085 38.0664 26.5787C37.7516 24.5237 36.7867 20.8605 33.8414 17.9022C29.6063 13.6532 24 13.9312 24 13.9312C24 13.9312 18.3938 13.6532 14.1586 17.9022C11.2031 20.8605 10.2484 24.5237 9.93359 26.5787C9.83203 27.085 9.78125 27.6111 9.78125 28.1572C9.78125 28.177 9.78125 28.1869 9.78125 28.1869C9.78125 31.592 11.8023 34.5405 14.7375 35.9502C14.7375 35.9502 17.9062 37.7669 24 37.7669C30.0938 37.7669 33.2625 35.9502 33.2625 35.9502C36.1977 34.5305 38.2188 31.5821 38.2188 28.177Z" fill="url(#paint12_radial_637_22364)"/>
<path d="M38.2188 28.177C38.2188 28.177 38.2188 28.1671 38.2188 28.1472C38.2188 27.6111 38.168 27.085 38.0664 26.5787C37.7516 24.5237 36.7867 20.8605 33.8414 17.9022C29.6063 13.6532 24 13.9312 24 13.9312C24 13.9312 18.3938 13.6532 14.1586 17.9022C11.2031 20.8605 10.2484 24.5237 9.93359 26.5787C9.83203 27.085 9.78125 27.6111 9.78125 28.1572C9.78125 28.177 9.78125 28.1869 9.78125 28.1869C9.78125 31.592 11.8023 34.5405 14.7375 35.9502C14.7375 35.9502 17.9062 37.7669 24 37.7669C30.0938 37.7669 33.2625 35.9502 33.2625 35.9502C36.1977 34.5305 38.2188 31.5821 38.2188 28.177Z" fill="url(#paint13_radial_637_22364)"/>
<g filter="url(#filter2_f_637_22364)">
<path d="M19.6876 26.1297C19.2776 26.1297 18.9376 25.7897 18.9376 25.3797V23.8938C18.9376 23.4838 19.2776 23.1438 19.6876 23.1438C20.0976 23.1438 20.4376 23.4838 20.4376 23.8938V25.3797C20.4376 25.7897 20.1076 26.1297 19.6876 26.1297Z" fill="#79393F"/>
</g>
<g filter="url(#filter3_f_637_22364)">
<path d="M27.6874 26.0447C27.2774 26.0447 26.9374 25.7047 26.9374 25.2947V23.8087C26.9374 23.3987 27.2774 23.0587 27.6874 23.0587C28.0974 23.0587 28.4374 23.3987 28.4374 23.8087V25.2947C28.4374 25.7047 28.1074 26.0447 27.6874 26.0447Z" fill="#79393F"/>
</g>
<path d="M20 25.7322C19.59 25.7322 19.25 25.3922 19.25 24.9822V23.4962C19.25 23.0862 19.59 22.7462 20 22.7462C20.41 22.7462 20.75 23.0862 20.75 23.4962V24.9822C20.75 25.3922 20.42 25.7322 20 25.7322Z" fill="url(#paint14_linear_637_22364)"/>
<path d="M20 25.7322C19.59 25.7322 19.25 25.3922 19.25 24.9822V23.4962C19.25 23.0862 19.59 22.7462 20 22.7462C20.41 22.7462 20.75 23.0862 20.75 23.4962V24.9822C20.75 25.3922 20.42 25.7322 20 25.7322Z" fill="url(#paint15_linear_637_22364)"/>
<path d="M20 25.7322C19.59 25.7322 19.25 25.3922 19.25 24.9822V23.4962C19.25 23.0862 19.59 22.7462 20 22.7462C20.41 22.7462 20.75 23.0862 20.75 23.4962V24.9822C20.75 25.3922 20.42 25.7322 20 25.7322Z" fill="url(#paint16_radial_637_22364)"/>
<path d="M28 25.7322C27.59 25.7322 27.25 25.3922 27.25 24.9822V23.4962C27.25 23.0862 27.59 22.7462 28 22.7462C28.41 22.7462 28.75 23.0862 28.75 23.4962V24.9822C28.75 25.3922 28.42 25.7322 28 25.7322Z" fill="url(#paint17_linear_637_22364)"/>
<path d="M28 25.7322C27.59 25.7322 27.25 25.3922 27.25 24.9822V23.4962C27.25 23.0862 27.59 22.7462 28 22.7462C28.41 22.7462 28.75 23.0862 28.75 23.4962V24.9822C28.75 25.3922 28.42 25.7322 28 25.7322Z" fill="url(#paint18_linear_637_22364)"/>
<path d="M28 25.7322C27.59 25.7322 27.25 25.3922 27.25 24.9822V23.4962C27.25 23.0862 27.59 22.7462 28 22.7462C28.41 22.7462 28.75 23.0862 28.75 23.4962V24.9822C28.75 25.3922 28.42 25.7322 28 25.7322Z" fill="url(#paint19_radial_637_22364)"/>
<g filter="url(#filter4_f_637_22364)">
<path d="M23.5576 26.8436C22.8509 26.8308 21.6574 26.9504 20.4324 27.4437C19.0272 28.0097 18.3941 29.604 18.798 31.0641C19.3695 33.1297 20.6489 35.1873 23.5576 35.1873C26.4664 35.1873 27.7458 33.1297 28.3173 31.0641C28.7212 29.604 28.0881 28.0097 26.6828 27.4437C25.4579 26.9504 24.2643 26.8308 23.5576 26.8436Z" fill="#6A3257"/>
</g>
<path d="M24 26.1306C23.2668 26.1173 22.0286 26.2414 20.7578 26.7532C19.2999 27.3403 18.6431 28.9944 19.0622 30.5092C19.655 32.6521 20.9824 34.7868 24 34.7868C27.0177 34.7868 28.345 32.6521 28.9379 30.5092C29.3569 28.9944 28.7001 27.3403 27.2423 26.7532C25.9714 26.2414 24.7332 26.1173 24 26.1306Z" fill="url(#paint20_linear_637_22364)"/>
<path d="M24 26.1306C23.2668 26.1173 22.0286 26.2414 20.7578 26.7532C19.2999 27.3403 18.6431 28.9944 19.0622 30.5092C19.655 32.6521 20.9824 34.7868 24 34.7868C27.0177 34.7868 28.345 32.6521 28.9379 30.5092C29.3569 28.9944 28.7001 27.3403 27.2423 26.7532C25.9714 26.2414 24.7332 26.1173 24 26.1306Z" fill="url(#paint21_linear_637_22364)"/>
<path d="M24 26.1306C23.2668 26.1173 22.0286 26.2414 20.7578 26.7532C19.2999 27.3403 18.6431 28.9944 19.0622 30.5092C19.655 32.6521 20.9824 34.7868 24 34.7868C27.0177 34.7868 28.345 32.6521 28.9379 30.5092C29.3569 28.9944 28.7001 27.3403 27.2423 26.7532C25.9714 26.2414 24.7332 26.1173 24 26.1306Z" fill="url(#paint22_radial_637_22364)"/>
<path d="M24 26.1306C23.2668 26.1173 22.0286 26.2414 20.7578 26.7532C19.2999 27.3403 18.6431 28.9944 19.0622 30.5092C19.655 32.6521 20.9824 34.7868 24 34.7868C27.0177 34.7868 28.345 32.6521 28.9379 30.5092C29.3569 28.9944 28.7001 27.3403 27.2423 26.7532C25.9714 26.2414 24.7332 26.1173 24 26.1306Z" fill="url(#paint23_radial_637_22364)"/>
<path d="M23.995 30.28C23.995 31.325 23.215 32.1741 22.255 32.1741C21.295 32.1741 20.515 31.325 20.515 30.28" stroke="url(#paint24_radial_637_22364)" stroke-miterlimit="10" stroke-linecap="round"/>
<path d="M23.995 30.28C23.995 31.325 23.215 32.1741 22.255 32.1741C21.295 32.1741 20.515 31.325 20.515 30.28" stroke="url(#paint25_radial_637_22364)" stroke-miterlimit="10" stroke-linecap="round"/>
<path d="M27.485 30.28C27.485 31.325 26.705 32.1741 25.745 32.1741C24.785 32.1741 24.005 31.325 24.005 30.28" stroke="url(#paint26_radial_637_22364)" stroke-miterlimit="10" stroke-linecap="round"/>
<g filter="url(#filter5_f_637_22364)">
<path d="M20.515 30.28C20.5567 30.8009 21.0494 31.8613 22.1244 31.9363C23.4681 32.03 23.9369 30.9675 23.9838 30.28C23.9577 30.8321 24.5619 32.0144 25.8275 32.0144C26.915 32.0144 27.4265 30.8321 27.4838 30.28" stroke="url(#paint27_linear_637_22364)" stroke-width="0.25" stroke-linecap="round" stroke-linejoin="round"/>
</g>
<g filter="url(#filter6_f_637_22364)">
<path d="M22.7099 27.1024L24.6 26.9242C25.3286 26.8555 25.7566 27.5211 25.4321 28.1008C25.0558 28.773 24.4817 29.2274 24.4817 29.2274C24.2932 29.382 24.0891 29.4725 23.8884 29.4898C23.688 29.5103 23.4706 29.4595 23.2565 29.3429C23.2565 29.3429 22.6076 29.0038 22.1124 28.4138C21.6852 27.9049 21.9813 27.1711 22.7099 27.1024Z" fill="#DB8E70"/>
</g>
<path d="M23.1132 26.7533H24.8868C25.5704 26.7533 25.9102 27.4782 25.5575 28.0422C25.1486 28.6961 24.5748 29.1072 24.5748 29.1072C24.386 29.2476 24.1882 29.3208 24 29.3192C23.8118 29.3208 23.6141 29.2476 23.4252 29.1072C23.4252 29.1072 22.8514 28.6961 22.4425 28.0422C22.0898 27.4782 22.4296 26.7533 23.1132 26.7533Z" fill="url(#paint28_linear_637_22364)"/>
<path d="M23.1132 26.7533H24.8868C25.5704 26.7533 25.9102 27.4782 25.5575 28.0422C25.1486 28.6961 24.5748 29.1072 24.5748 29.1072C24.386 29.2476 24.1882 29.3208 24 29.3192C23.8118 29.3208 23.6141 29.2476 23.4252 29.1072C23.4252 29.1072 22.8514 28.6961 22.4425 28.0422C22.0898 27.4782 22.4296 26.7533 23.1132 26.7533Z" fill="url(#paint29_linear_637_22364)"/>
<path d="M23.1132 26.7533H24.8868C25.5704 26.7533 25.9102 27.4782 25.5575 28.0422C25.1486 28.6961 24.5748 29.1072 24.5748 29.1072C24.386 29.2476 24.1882 29.3208 24 29.3192C23.8118 29.3208 23.6141 29.2476 23.4252 29.1072C23.4252 29.1072 22.8514 28.6961 22.4425 28.0422C22.0898 27.4782 22.4296 26.7533 23.1132 26.7533Z" fill="url(#paint30_linear_637_22364)"/>
<path d="M23.1132 26.7533H24.8868C25.5704 26.7533 25.9102 27.4782 25.5575 28.0422C25.1486 28.6961 24.5748 29.1072 24.5748 29.1072C24.386 29.2476 24.1882 29.3208 24 29.3192C23.8118 29.3208 23.6141 29.2476 23.4252 29.1072C23.4252 29.1072 22.8514 28.6961 22.4425 28.0422C22.0898 27.4782 22.4296 26.7533 23.1132 26.7533Z" fill="url(#paint31_radial_637_22364)"/>
<path d="M23.1132 26.7533H24.8868C25.5704 26.7533 25.9102 27.4782 25.5575 28.0422C25.1486 28.6961 24.5748 29.1072 24.5748 29.1072C24.386 29.2476 24.1882 29.3208 24 29.3192C23.8118 29.3208 23.6141 29.2476 23.4252 29.1072C23.4252 29.1072 22.8514 28.6961 22.4425 28.0422C22.0898 27.4782 22.4296 26.7533 23.1132 26.7533Z" fill="url(#paint32_radial_637_22364)"/>
<g filter="url(#filter7_f_637_22364)">
<path d="M37.1423 28.6983C36.4866 23.2277 34.2125 18.4909 29.8705 16.57C29.309 16.3216 28.6693 16.5864 28.3794 17.1276C28.119 17.6137 28.2048 18.2098 28.5724 18.6209C30.8674 21.1872 32.3449 24.025 32.4986 28.6092C32.5552 30.2959 34.2408 31.5499 35.8018 30.9084C36.6899 30.5434 37.2566 29.6517 37.1423 28.6983Z" fill="url(#paint33_linear_637_22364)"/>
</g>
<defs>
<filter id="filter0_i_637_22364" x="29.7352" y="14.7806" width="5.27969" height="5.37969" filterUnits="userSpaceOnUse" color-interpolation-filters="sRGB">
<feFlood flood-opacity="0" result="BackgroundImageFix"/>
<feBlend mode="normal" in="SourceGraphic" in2="BackgroundImageFix" result="shape"/>
<feColorMatrix in="SourceAlpha" type="matrix" values="0 0 0 0 0 0 0 0 0 0 0 0 0 0 0 0 0 0 127 0" result="hardAlpha"/>
<feOffset dx="-0.1" dy="0.2"/>
<feGaussianBlur stdDeviation="0.125"/>
<feComposite in2="hardAlpha" operator="arithmetic" k2="-1" k3="1"/>
<feColorMatrix type="matrix" values="0 0 0 0 0.980392 0 0 0 0 0.678431 0 0 0 0 0.439216 0 0 0 1 0"/>
<feBlend mode="normal" in2="shape" result="effect1_innerShadow_637_22364"/>
</filter>
<filter id="filter1_i_637_22364" x="12.8952" y="14.7806" width="5.27969" height="5.37969" filterUnits="userSpaceOnUse" color-interpolation-filters="sRGB">
<feFlood flood-opacity="0" result="BackgroundImageFix"/>
<feBlend mode="normal" in="SourceGraphic" in2="BackgroundImageFix" result="shape"/>
<feColorMatrix in="SourceAlpha" type="matrix" values="0 0 0 0 0 0 0 0 0 0 0 0 0 0 0 0 0 0 127 0" result="hardAlpha"/>
<feOffset dx="-0.1" dy="0.2"/>
<feGaussianBlur stdDeviation="0.125"/>
<feComposite in2="hardAlpha" operator="arithmetic" k2="-1" k3="1"/>
<feColorMatrix type="matrix" values="0 0 0 0 0.980392 0 0 0 0 0.678431 0 0 0 0 0.439216 0 0 0 1 0"/>
<feBlend mode="normal" in2="shape" result="effect1_innerShadow_637_22364"/>
</filter>
<filter id="filter2_f_637_22364" x="18.4376" y="22.6438" width="2.5" height="3.98596" filterUnits="userSpaceOnUse" color-interpolation-filters="sRGB">
<feFlood flood-opacity="0" result="BackgroundImageFix"/>
<feBlend mode="normal" in="SourceGraphic" in2="BackgroundImageFix" result="shape"/>
<feGaussianBlur stdDeviation="0.25" result="effect1_foregroundBlur_637_22364"/>
</filter>
<filter id="filter3_f_637_22364" x="26.4374" y="22.5587" width="2.5" height="3.98596" filterUnits="userSpaceOnUse" color-interpolation-filters="sRGB">
<feFlood flood-opacity="0" result="BackgroundImageFix"/>
<feBlend mode="normal" in="SourceGraphic" in2="BackgroundImageFix" result="shape"/>
<feGaussianBlur stdDeviation="0.25" result="effect1_foregroundBlur_637_22364"/>
</filter>
<filter id="filter4_f_637_22364" x="17.678" y="25.8427" width="11.7593" height="10.3447" filterUnits="userSpaceOnUse" color-interpolation-filters="sRGB">
<feFlood flood-opacity="0" result="BackgroundImageFix"/>
<feBlend mode="normal" in="SourceGraphic" in2="BackgroundImageFix" result="shape"/>
<feGaussianBlur stdDeviation="0.5" result="effect1_foregroundBlur_637_22364"/>
</filter>
<filter id="filter5_f_637_22364" x="20.14" y="29.905" width="7.71875" height="2.48438" filterUnits="userSpaceOnUse" color-interpolation-filters="sRGB">
<feFlood flood-opacity="0" result="BackgroundImageFix"/>
<feBlend mode="normal" in="SourceGraphic" in2="BackgroundImageFix" result="shape"/>
<feGaussianBlur stdDeviation="0.125" result="effect1_foregroundBlur_637_22364"/>
</filter>
<filter id="filter6_f_637_22364" x="21.2149" y="26.2193" width="5.0272" height="3.97495" filterUnits="userSpaceOnUse" color-interpolation-filters="sRGB">
<feFlood flood-opacity="0" result="BackgroundImageFix"/>
<feBlend mode="normal" in="SourceGraphic" in2="BackgroundImageFix" result="shape"/>
<feGaussianBlur stdDeviation="0.35" result="effect1_foregroundBlur_637_22364"/>
</filter>
<filter id="filter7_f_637_22364" x="24.2289" y="12.4762" width="16.928" height="22.6029" filterUnits="userSpaceOnUse" color-interpolation-filters="sRGB">
<feFlood flood-opacity="0" result="BackgroundImageFix"/>
<feBlend mode="normal" in="SourceGraphic" in2="BackgroundImageFix" result="shape"/>
<feGaussianBlur stdDeviation="2" result="effect1_foregroundBlur_637_22364"/>
</filter>
<linearGradient id="paint0_linear_637_22364" x1="32.7863" y1="17.7869" x2="33.5051" y2="15.9431" gradientUnits="userSpaceOnUse">
<stop stop-color="#8B5754"/>
<stop offset="1" stop-color="#8B5754" stop-opacity="0"/>
</linearGradient>
<linearGradient id="paint1_linear_637_22364" x1="29.2551" y1="13.7243" x2="30.2863" y2="14.6306" gradientUnits="userSpaceOnUse">
<stop stop-color="#8B5754"/>
<stop offset="1" stop-color="#8B5754" stop-opacity="0"/>
</linearGradient>
<radialGradient id="paint2_radial_637_22364" cx="0" cy="0" r="1" gradientUnits="userSpaceOnUse" gradientTransform="translate(36.0676 14.8493) rotate(142.716) scale(3.45634 3.61664)">
<stop stop-color="#BE8D80"/>
<stop offset="1" stop-color="#BE8D80" stop-opacity="0"/>
</radialGradient>
<linearGradient id="paint3_linear_637_22364" x1="33.4738" y1="16.4744" x2="31.4425" y2="17.1619" gradientUnits="userSpaceOnUse">
<stop stop-color="#FF9A52"/>
<stop offset="1" stop-color="#FFB675"/>
</linearGradient>
<linearGradient id="paint4_linear_637_22364" x1="15.2238" y1="17.7869" x2="14.5051" y2="15.9431" gradientUnits="userSpaceOnUse">
<stop stop-color="#8B5754"/>
<stop offset="1" stop-color="#8B5754" stop-opacity="0"/>
</linearGradient>
<linearGradient id="paint5_linear_637_22364" x1="14.2863" y1="19.8806" x2="14.1613" y2="16.3806" gradientUnits="userSpaceOnUse">
<stop stop-color="#704848"/>
<stop offset="1" stop-color="#704848" stop-opacity="0"/>
</linearGradient>
<radialGradient id="paint6_radial_637_22364" cx="0" cy="0" r="1" gradientUnits="userSpaceOnUse" gradientTransform="translate(18.38 14.0056) rotate(135.465) scale(3.92103 4.10288)">
<stop stop-color="#BE8D80"/>
<stop offset="1" stop-color="#BE8D80" stop-opacity="0"/>
</radialGradient>
<radialGradient id="paint7_radial_637_22364" cx="0" cy="0" r="1" gradientUnits="userSpaceOnUse" gradientTransform="translate(16.0519 16.7088) rotate(-159.574) scale(2.41764 5.89257)">
<stop stop-color="#FF9A52"/>
<stop offset="1" stop-color="#FBB47E"/>
</radialGradient>
<linearGradient id="paint8_linear_637_22364" x1="15.3644" y1="17.615" x2="13.7863" y2="15.865" gradientUnits="userSpaceOnUse">
<stop stop-color="#F78B3F"/>
<stop offset="0.434645" stop-color="#F78B3F" stop-opacity="0"/>
</linearGradient>
<radialGradient id="paint9_radial_637_22364" cx="0" cy="0" r="1" gradientUnits="userSpaceOnUse" gradientTransform="translate(23.9455 13.24) rotate(90) scale(24.5269 23.9742)">
<stop stop-color="#A86F60"/>
<stop offset="1" stop-color="#8D5857"/>
</radialGradient>
<radialGradient id="paint10_radial_637_22364" cx="0" cy="0" r="1" gradientUnits="userSpaceOnUse" gradientTransform="translate(24 36.0525) rotate(-90) scale(11.1719 22.1925)">
<stop stop-color="#863C6E"/>
<stop offset="1" stop-color="#863C6E" stop-opacity="0"/>
</radialGradient>
<radialGradient id="paint11_radial_637_22364" cx="0" cy="0" r="1" gradientUnits="userSpaceOnUse" gradientTransform="translate(24 14.615) rotate(90) scale(23.6719 24.1663)">
<stop offset="0.945685" stop-color="#945897" stop-opacity="0"/>
<stop offset="1" stop-color="#945897"/>
</radialGradient>
<radialGradient id="paint12_radial_637_22364" cx="0" cy="0" r="1" gradientUnits="userSpaceOnUse" gradientTransform="translate(33.255 27.9431) rotate(180) scale(24.4375 17.875)">
<stop offset="0.877238" stop-color="#937C79" stop-opacity="0"/>
<stop offset="1" stop-color="#937C79"/>
</radialGradient>
<radialGradient id="paint13_radial_637_22364" cx="0" cy="0" r="1" gradientUnits="userSpaceOnUse" gradientTransform="translate(33.255 13.9275) rotate(122.909) scale(10.8133 11.024)">
<stop stop-color="#B17D6E"/>
<stop offset="1" stop-color="#B17D6E" stop-opacity="0"/>
</radialGradient>
<linearGradient id="paint14_linear_637_22364" x1="20.75" y1="24.0526" x2="19.8817" y2="24.0526" gradientUnits="userSpaceOnUse">
<stop offset="0.225" stop-color="#594C4F"/>
<stop offset="1" stop-color="#392833"/>
</linearGradient>
<linearGradient id="paint15_linear_637_22364" x1="20.9844" y1="25.5922" x2="20.9844" y2="24.1696" gradientUnits="userSpaceOnUse">
<stop stop-color="#492847"/>
<stop offset="1" stop-color="#552D52" stop-opacity="0"/>
</linearGradient>
<radialGradient id="paint16_radial_637_22364" cx="0" cy="0" r="1" gradientUnits="userSpaceOnUse" gradientTransform="translate(20.1613 24.4743) rotate(-104.85) scale(1.74797 1.88432)">
<stop offset="0.813951" stop-color="#594C4F" stop-opacity="0"/>
<stop offset="1" stop-color="#594C4F"/>
</radialGradient>
<linearGradient id="paint17_linear_637_22364" x1="28.75" y1="24.0526" x2="27.8817" y2="24.0526" gradientUnits="userSpaceOnUse">
<stop offset="0.225" stop-color="#594C4F"/>
<stop offset="1" stop-color="#392833"/>
</linearGradient>
<linearGradient id="paint18_linear_637_22364" x1="28.9844" y1="25.5922" x2="28.9844" y2="24.1696" gradientUnits="userSpaceOnUse">
<stop stop-color="#492847"/>
<stop offset="1" stop-color="#552D52" stop-opacity="0"/>
</linearGradient>
<radialGradient id="paint19_radial_637_22364" cx="0" cy="0" r="1" gradientUnits="userSpaceOnUse" gradientTransform="translate(28.1613 24.4743) rotate(-104.85) scale(1.74797 1.88432)">
<stop offset="0.813951" stop-color="#594C4F" stop-opacity="0"/>
<stop offset="1" stop-color="#594C4F"/>
</radialGradient>
<linearGradient id="paint20_linear_637_22364" x1="24" y1="26.1296" x2="24" y2="34.7868" gradientUnits="userSpaceOnUse">
<stop stop-color="#F1BA7F"/>
<stop offset="1" stop-color="#FFA392"/>
</linearGradient>
<linearGradient id="paint21_linear_637_22364" x1="23.4425" y1="35.5681" x2="23.4425" y2="31.4431" gradientUnits="userSpaceOnUse">
<stop stop-color="#E5788F"/>
<stop offset="1" stop-color="#E5788F" stop-opacity="0"/>
</linearGradient>
<radialGradient id="paint22_radial_637_22364" cx="0" cy="0" r="1" gradientUnits="userSpaceOnUse" gradientTransform="translate(26.9738 29.0368) rotate(129.413) scale(4.08527 3.62985)">
<stop stop-color="#FFF2B4"/>
<stop offset="0.794385" stop-color="#FFF2B4" stop-opacity="0"/>
</radialGradient>
<radialGradient id="paint23_radial_637_22364" cx="0" cy="0" r="1" gradientUnits="userSpaceOnUse" gradientTransform="translate(24 35.5993) rotate(-90) scale(9.6875 8.48106)">
<stop offset="0.914557" stop-color="#FDAE61" stop-opacity="0"/>
<stop offset="1" stop-color="#FDAE61"/>
</radialGradient>
<radialGradient id="paint24_radial_637_22364" cx="0" cy="0" r="1" gradientUnits="userSpaceOnUse" gradientTransform="translate(22.249 30.8382) rotate(90) scale(1.71875 2.18838)">
<stop offset="0.00558659" stop-color="#423539"/>
<stop offset="1" stop-color="#3C223C"/>
</radialGradient>
<radialGradient id="paint25_radial_637_22364" cx="0" cy="0" r="1" gradientUnits="userSpaceOnUse" gradientTransform="translate(22.3644 29.8182) rotate(70.994) scale(2.97467 7.41114)">
<stop offset="0.00558659" stop-color="#533530"/>
<stop offset="1" stop-color="#543057"/>
</radialGradient>
<radialGradient id="paint26_radial_637_22364" cx="0" cy="0" r="1" gradientUnits="userSpaceOnUse" gradientTransform="translate(25.9425 30.8651) rotate(96.8587) scale(1.70404 4.78132)">
<stop offset="0.00558659" stop-color="#533530"/>
<stop offset="1" stop-color="#543057"/>
</radialGradient>
<linearGradient id="paint27_linear_637_22364" x1="20.3275" y1="30.78" x2="27.8431" y2="30.78" gradientUnits="userSpaceOnUse">
<stop stop-color="#5F5356"/>
<stop offset="0.288981" stop-color="#5F5356" stop-opacity="0"/>
<stop offset="0.444906" stop-color="#5F5356" stop-opacity="0"/>
<stop offset="0.534304" stop-color="#5F5356"/>
<stop offset="1" stop-color="#5F5356" stop-opacity="0"/>
</linearGradient>
<linearGradient id="paint28_linear_637_22364" x1="23.5831" y1="27.0681" x2="24.08" y2="28.8518" gradientUnits="userSpaceOnUse">
<stop stop-color="#5F5254"/>
<stop offset="1" stop-color="#2E2127"/>
</linearGradient>
<linearGradient id="paint29_linear_637_22364" x1="23.7637" y1="27.4264" x2="23.7637" y2="26.2224" gradientUnits="userSpaceOnUse">
<stop offset="0.146552" stop-color="#34222C" stop-opacity="0"/>
<stop offset="0.872727" stop-color="#34222C"/>
</linearGradient>
<linearGradient id="paint30_linear_637_22364" x1="23.1605" y1="29.4458" x2="23.1605" y2="27.6255" gradientUnits="userSpaceOnUse">
<stop stop-color="#552D52"/>
<stop offset="1" stop-color="#552D52" stop-opacity="0"/>
</linearGradient>
<radialGradient id="paint31_radial_637_22364" cx="0" cy="0" r="1" gradientUnits="userSpaceOnUse" gradientTransform="translate(21.8596 28.5504) rotate(-18.752) scale(4.48262 2.01281)">
<stop offset="0.827602" stop-color="#5C5458" stop-opacity="0"/>
<stop offset="0.935007" stop-color="#5C5458"/>
</radialGradient>
<radialGradient id="paint32_radial_637_22364" cx="0" cy="0" r="1" gradientUnits="userSpaceOnUse" gradientTransform="translate(25.0988 27.4275) rotate(145.376) scale(0.797488 0.483742)">
<stop stop-color="#6A5C5E"/>
<stop offset="1" stop-color="#6A5C5E" stop-opacity="0"/>
</radialGradient>
<linearGradient id="paint33_linear_637_22364" x1="36.95" y1="20.6562" x2="28.1848" y2="25.5108" gradientUnits="userSpaceOnUse">
<stop stop-color="#BF8A80"/>
<stop offset="1" stop-color="#BF8A80" stop-opacity="0"/>
</linearGradient>
</defs>
</svg>
