<svg width="48" height="48" viewBox="0 0 48 48" fill="none" xmlns="http://www.w3.org/2000/svg">
<rect width="48" height="48" rx="24" fill="#F2F5FF"/>
<g filter="url(#filter0_i_637_22378)">
<circle cx="16.5078" cy="18.5" r="6.5" fill="url(#paint0_linear_637_22378)"/>
<circle cx="16.5078" cy="18.5" r="6.5" fill="url(#paint1_radial_637_22378)"/>
<circle cx="16.5078" cy="18.5" r="6.5" fill="url(#paint2_radial_637_22378)"/>
</g>
<circle cx="16.0078" cy="19" r="5" fill="url(#paint3_radial_637_22378)"/>
<circle cx="16.0078" cy="19" r="5" fill="url(#paint4_radial_637_22378)"/>
<g filter="url(#filter1_i_637_22378)">
<circle cx="31.5078" cy="18.5" r="6.5" fill="url(#paint5_radial_637_22378)"/>
<circle cx="31.5078" cy="18.5" r="6.5" fill="url(#paint6_radial_637_22378)"/>
<circle cx="31.5078" cy="18.5" r="6.5" fill="url(#paint7_radial_637_22378)"/>
<circle cx="31.5078" cy="18.5" r="6.5" fill="url(#paint8_radial_637_22378)"/>
</g>
<g filter="url(#filter2_i_637_22378)">
<circle cx="32.0078" cy="19" r="5" fill="url(#paint9_radial_637_22378)"/>
<circle cx="32.0078" cy="19" r="5" fill="url(#paint10_radial_637_22378)"/>
</g>
<path d="M32.9766 26C32.9766 30.8232 28.5491 34.2411 25.1754 35.3216C24.4159 35.5649 23.6017 35.5564 22.8367 35.3309C19.27 34.2796 15.1016 31.2261 15.1016 26C15.1016 22.025 18.8203 18.0312 24.0078 18.0312C30.4328 18.0312 32.9766 23.375 32.9766 26Z" fill="url(#paint11_linear_637_22378)"/>
<path d="M32.9766 26C32.9766 30.8232 28.5491 34.2411 25.1754 35.3216C24.4159 35.5649 23.6017 35.5564 22.8367 35.3309C19.27 34.2796 15.1016 31.2261 15.1016 26C15.1016 22.025 18.8203 18.0312 24.0078 18.0312C30.4328 18.0312 32.9766 23.375 32.9766 26Z" fill="url(#paint12_radial_637_22378)"/>
<path d="M32.9766 26C32.9766 30.8232 28.5491 34.2411 25.1754 35.3216C24.4159 35.5649 23.6017 35.5564 22.8367 35.3309C19.27 34.2796 15.1016 31.2261 15.1016 26C15.1016 22.025 18.8203 18.0312 24.0078 18.0312C30.4328 18.0312 32.9766 23.375 32.9766 26Z" fill="url(#paint13_radial_637_22378)"/>
<path d="M32.9766 26C32.9766 30.8232 28.5491 34.2411 25.1754 35.3216C24.4159 35.5649 23.6017 35.5564 22.8367 35.3309C19.27 34.2796 15.1016 31.2261 15.1016 26C15.1016 22.025 18.8203 18.0312 24.0078 18.0312C30.4328 18.0312 32.9766 23.375 32.9766 26Z" fill="url(#paint14_radial_637_22378)"/>
<path d="M32.9766 26C32.9766 30.8232 28.5491 34.2411 25.1754 35.3216C24.4159 35.5649 23.6017 35.5564 22.8367 35.3309C19.27 34.2796 15.1016 31.2261 15.1016 26C15.1016 22.025 18.8203 18.0312 24.0078 18.0312C30.4328 18.0312 32.9766 23.375 32.9766 26Z" fill="url(#paint15_radial_637_22378)"/>
<g filter="url(#filter3_f_637_22378)">
<rect x="26.8018" y="27.1875" width="1.48438" height="3" rx="0.742188" fill="#B9A8CE"/>
</g>
<rect x="27.2266" y="27" width="1.48438" height="3" rx="0.742188" fill="url(#paint16_linear_637_22378)"/>
<rect x="27.2266" y="27" width="1.48438" height="3" rx="0.742188" fill="url(#paint17_linear_637_22378)"/>
<rect x="27.2266" y="27" width="1.48438" height="3" rx="0.742188" fill="url(#paint18_radial_637_22378)"/>
<rect x="19.2891" y="27" width="1.48438" height="3" rx="0.742188" fill="url(#paint19_linear_637_22378)"/>
<rect x="19.2891" y="27" width="1.48438" height="3" rx="0.742188" fill="url(#paint20_linear_637_22378)"/>
<rect x="19.2891" y="27" width="1.48438" height="3" rx="0.742188" fill="url(#paint21_radial_637_22378)"/>
<path d="M25.9766 31.8594C25.9766 32.2344 25.2344 33.9688 24.0391 33.9688C22.8438 33.9688 22.0234 32.1797 22.0234 31.8594C22.0234 31.4219 22.2109 31 24.0391 31C25.6516 31 25.9766 31.4844 25.9766 31.8594Z" fill="#FF80B1"/>
<path d="M25.9766 31.8594C25.9766 32.2344 25.2344 33.9688 24.0391 33.9688C22.8438 33.9688 22.0234 32.1797 22.0234 31.8594C22.0234 31.4219 22.2109 31 24.0391 31C25.6516 31 25.9766 31.4844 25.9766 31.8594Z" fill="url(#paint22_radial_637_22378)"/>
<path d="M27.3945 33.375L32.5664 35.5547" stroke="url(#paint23_linear_637_22378)" stroke-width="0.8" stroke-linecap="round"/>
<path d="M27.3945 33.375L32.5664 35.5547" stroke="url(#paint24_linear_637_22378)" stroke-width="0.8" stroke-linecap="round"/>
<path d="M27.3945 33.375L32.5664 35.5547" stroke="url(#paint25_linear_637_22378)" stroke-width="0.8" stroke-linecap="round"/>
<path d="M27.3945 33.375L32.5664 35.5547" stroke="url(#paint26_radial_637_22378)" stroke-width="0.8" stroke-linecap="round"/>
<path d="M28.3789 32.4766H33.5586" stroke="url(#paint27_linear_637_22378)" stroke-width="0.8" stroke-linecap="round"/>
<path d="M28.3789 32.4766H33.5586" stroke="url(#paint28_linear_637_22378)" stroke-width="0.8" stroke-linecap="round"/>
<path d="M28.3789 32.4766H33.5586" stroke="url(#paint29_linear_637_22378)" stroke-width="0.8" stroke-linecap="round"/>
<path d="M28.3789 32.4766H33.5586" stroke="url(#paint30_radial_637_22378)" stroke-width="0.8" stroke-linecap="round"/>
<path d="M20.6055 33.375L15.4336 35.5547" stroke="url(#paint31_linear_637_22378)" stroke-width="0.8" stroke-linecap="round"/>
<path d="M20.6055 33.375L15.4336 35.5547" stroke="url(#paint32_linear_637_22378)" stroke-width="0.8" stroke-linecap="round"/>
<path d="M20.6055 33.375L15.4336 35.5547" stroke="url(#paint33_linear_637_22378)" stroke-width="0.8" stroke-linecap="round"/>
<path d="M20.6055 33.375L15.4336 35.5547" stroke="url(#paint34_radial_637_22378)" stroke-width="0.8" stroke-linecap="round"/>
<path d="M19.6211 32.4766H14.4414" stroke="url(#paint35_linear_637_22378)" stroke-width="0.8" stroke-linecap="round"/>
<path d="M19.6211 32.4766H14.4414" stroke="url(#paint36_linear_637_22378)" stroke-width="0.8" stroke-linecap="round"/>
<path d="M19.6211 32.4766H14.4414" stroke="url(#paint37_linear_637_22378)" stroke-width="0.8" stroke-linecap="round"/>
<path d="M19.6211 32.4766H14.4414" stroke="url(#paint38_radial_637_22378)" stroke-width="0.8" stroke-linecap="round"/>
<defs>
<filter id="filter0_i_637_22378" x="9.90781" y="12" width="13.1" height="13.1" filterUnits="userSpaceOnUse" color-interpolation-filters="sRGB">
<feFlood flood-opacity="0" result="BackgroundImageFix"/>
<feBlend mode="normal" in="SourceGraphic" in2="BackgroundImageFix" result="shape"/>
<feColorMatrix in="SourceAlpha" type="matrix" values="0 0 0 0 0 0 0 0 0 0 0 0 0 0 0 0 0 0 127 0" result="hardAlpha"/>
<feOffset dx="-0.1" dy="0.1"/>
<feGaussianBlur stdDeviation="0.25"/>
<feComposite in2="hardAlpha" operator="arithmetic" k2="-1" k3="1"/>
<feColorMatrix type="matrix" values="0 0 0 0 0.647059 0 0 0 0 0.639216 0 0 0 0 0.662745 0 0 0 0.5 0"/>
<feBlend mode="normal" in2="shape" result="effect1_innerShadow_637_22378"/>
</filter>
<filter id="filter1_i_637_22378" x="25.0078" y="12" width="13.1" height="13.1" filterUnits="userSpaceOnUse" color-interpolation-filters="sRGB">
<feFlood flood-opacity="0" result="BackgroundImageFix"/>
<feBlend mode="normal" in="SourceGraphic" in2="BackgroundImageFix" result="shape"/>
<feColorMatrix in="SourceAlpha" type="matrix" values="0 0 0 0 0 0 0 0 0 0 0 0 0 0 0 0 0 0 127 0" result="hardAlpha"/>
<feOffset dx="0.1" dy="0.1"/>
<feGaussianBlur stdDeviation="0.5"/>
<feComposite in2="hardAlpha" operator="arithmetic" k2="-1" k3="1"/>
<feColorMatrix type="matrix" values="0 0 0 0 0.647059 0 0 0 0 0.639216 0 0 0 0 0.662745 0 0 0 0.75 0"/>
<feBlend mode="normal" in2="shape" result="effect1_innerShadow_637_22378"/>
</filter>
<filter id="filter2_i_637_22378" x="26.9078" y="14" width="10.1" height="10.1" filterUnits="userSpaceOnUse" color-interpolation-filters="sRGB">
<feFlood flood-opacity="0" result="BackgroundImageFix"/>
<feBlend mode="normal" in="SourceGraphic" in2="BackgroundImageFix" result="shape"/>
<feColorMatrix in="SourceAlpha" type="matrix" values="0 0 0 0 0 0 0 0 0 0 0 0 0 0 0 0 0 0 127 0" result="hardAlpha"/>
<feOffset dx="-0.1" dy="0.1"/>
<feGaussianBlur stdDeviation="0.25"/>
<feComposite in2="hardAlpha" operator="arithmetic" k2="-1" k3="1"/>
<feColorMatrix type="matrix" values="0 0 0 0 0.898039 0 0 0 0 0.470588 0 0 0 0 0.580392 0 0 0 0.75 0"/>
<feBlend mode="normal" in2="shape" result="effect1_innerShadow_637_22378"/>
</filter>
<filter id="filter3_f_637_22378" x="26.3018" y="26.6875" width="2.48438" height="4" filterUnits="userSpaceOnUse" color-interpolation-filters="sRGB">
<feFlood flood-opacity="0" result="BackgroundImageFix"/>
<feBlend mode="normal" in="SourceGraphic" in2="BackgroundImageFix" result="shape"/>
<feGaussianBlur stdDeviation="0.25" result="effect1_foregroundBlur_637_22378"/>
</filter>
<linearGradient id="paint0_linear_637_22378" x1="15.3828" y1="14.625" x2="13.5703" y2="25" gradientUnits="userSpaceOnUse">
<stop stop-color="#C1B8C6"/>
<stop offset="1" stop-color="#A183B2"/>
</linearGradient>
<radialGradient id="paint1_radial_637_22378" cx="0" cy="0" r="1" gradientUnits="userSpaceOnUse" gradientTransform="translate(10.8582 12.9004) rotate(51.8428) scale(4.32035 5.98988)">
<stop stop-color="#A9A4AE"/>
<stop offset="1" stop-color="#A9A4AE" stop-opacity="0"/>
</radialGradient>
<radialGradient id="paint2_radial_637_22378" cx="0" cy="0" r="1" gradientUnits="userSpaceOnUse" gradientTransform="translate(21.7777 13.9317) rotate(132.979) scale(3.64841 6.36883)">
<stop stop-color="#E3E0E7"/>
<stop offset="1" stop-color="#E3E0E7" stop-opacity="0"/>
</radialGradient>
<radialGradient id="paint3_radial_637_22378" cx="0" cy="0" r="1" gradientUnits="userSpaceOnUse" gradientTransform="translate(11.0078 19.875) rotate(13.2908) scale(8.15595)">
<stop stop-color="#F3758E"/>
<stop offset="1" stop-color="#E7626E"/>
</radialGradient>
<radialGradient id="paint4_radial_637_22378" cx="0" cy="0" r="1" gradientUnits="userSpaceOnUse" gradientTransform="translate(13.2578 21.25) rotate(-40.9555) scale(4.38615 6.124)">
<stop stop-color="#FF9CA9"/>
<stop offset="0.82863" stop-color="#FF9CA9" stop-opacity="0"/>
</radialGradient>
<radialGradient id="paint5_radial_637_22378" cx="0" cy="0" r="1" gradientUnits="userSpaceOnUse" gradientTransform="translate(26.3203 15.6875) rotate(52.4314) scale(10.2508)">
<stop stop-color="#A6A2AC"/>
<stop offset="1" stop-color="#D3CBDA"/>
</radialGradient>
<radialGradient id="paint6_radial_637_22378" cx="0" cy="0" r="1" gradientUnits="userSpaceOnUse" gradientTransform="translate(35.1953 25) rotate(-110.395) scale(5.20104 12.8911)">
<stop stop-color="#C5AED9"/>
<stop offset="1" stop-color="#C5AED9" stop-opacity="0"/>
</radialGradient>
<radialGradient id="paint7_radial_637_22378" cx="0" cy="0" r="1" gradientUnits="userSpaceOnUse" gradientTransform="translate(38.3828 19.4375) rotate(-165.838) scale(13.7942 9.0204)">
<stop offset="0.850386" stop-color="#A4A2A9" stop-opacity="0"/>
<stop offset="1" stop-color="#A4A2A9"/>
</radialGradient>
<radialGradient id="paint8_radial_637_22378" cx="0" cy="0" r="1" gradientUnits="userSpaceOnUse" gradientTransform="translate(37.4453 15.5) rotate(147.095) scale(3.79659 5.45721)">
<stop stop-color="#E7E1ED"/>
<stop offset="0.940539" stop-color="#E7E1ED" stop-opacity="0"/>
</radialGradient>
<radialGradient id="paint9_radial_637_22378" cx="0" cy="0" r="1" gradientUnits="userSpaceOnUse" gradientTransform="translate(30.8516 21.0313) rotate(-47.4717) scale(6.14871 8.20628)">
<stop stop-color="#FFABB3"/>
<stop offset="1" stop-color="#FA91AF"/>
</radialGradient>
<radialGradient id="paint10_radial_637_22378" cx="0" cy="0" r="1" gradientUnits="userSpaceOnUse" gradientTransform="translate(32.0078 19.4375) rotate(-33.9174) scale(4.3683 4.45504)">
<stop stop-color="#F5BBD5"/>
<stop offset="1" stop-color="#F5BBD5" stop-opacity="0"/>
<stop offset="1" stop-color="#F5BBD5" stop-opacity="0"/>
</radialGradient>
<linearGradient id="paint11_linear_637_22378" x1="28.0703" y1="22.25" x2="13.8203" y2="44.5" gradientUnits="userSpaceOnUse">
<stop offset="0.237265" stop-color="#D4CCE2"/>
<stop offset="1" stop-color="#BB8AE9"/>
</linearGradient>
<radialGradient id="paint12_radial_637_22378" cx="0" cy="0" r="1" gradientUnits="userSpaceOnUse" gradientTransform="translate(20.1328 36.25) rotate(-57.3554) scale(9.50082 15.7445)">
<stop stop-color="#B583E3"/>
<stop offset="1" stop-color="#B583E3" stop-opacity="0"/>
</radialGradient>
<radialGradient id="paint13_radial_637_22378" cx="0" cy="0" r="1" gradientUnits="userSpaceOnUse" gradientTransform="translate(11.6953 22.125) rotate(23.8412) scale(11.6162 13.3666)">
<stop offset="0.12067" stop-color="#9B90A2"/>
<stop offset="1" stop-color="#9B90A2" stop-opacity="0"/>
</radialGradient>
<radialGradient id="paint14_radial_637_22378" cx="0" cy="0" r="1" gradientUnits="userSpaceOnUse" gradientTransform="translate(28.4453 23.5625) rotate(141.038) scale(9.24366 11.8599)">
<stop stop-color="#F6F1FE"/>
<stop offset="0.572797" stop-color="#F6F1FE" stop-opacity="0"/>
</radialGradient>
<radialGradient id="paint15_radial_637_22378" cx="0" cy="0" r="1" gradientUnits="userSpaceOnUse" gradientTransform="translate(24.0391 35.6094) rotate(-90) scale(18.9219 13.4687)">
<stop offset="0.877787" stop-color="#C1C0C3" stop-opacity="0"/>
<stop offset="1" stop-color="#C1C0C3"/>
</radialGradient>
<linearGradient id="paint16_linear_637_22378" x1="28.7109" y1="28.5" x2="27.8517" y2="28.5" gradientUnits="userSpaceOnUse">
<stop offset="0.225" stop-color="#594C4F"/>
<stop offset="1" stop-color="#392833"/>
</linearGradient>
<linearGradient id="paint17_linear_637_22378" x1="28.9429" y1="30.2568" x2="28.9429" y2="29.1829" gradientUnits="userSpaceOnUse">
<stop stop-color="#552D52"/>
<stop offset="1" stop-color="#552D52" stop-opacity="0"/>
</linearGradient>
<radialGradient id="paint18_radial_637_22378" cx="0" cy="0" r="1" gradientUnits="userSpaceOnUse" gradientTransform="translate(28.2576 28.6796) rotate(-109.297) scale(1.73269 1.67065)">
<stop offset="0.813951" stop-color="#594C4F" stop-opacity="0"/>
<stop offset="1" stop-color="#594C4F"/>
</radialGradient>
<linearGradient id="paint19_linear_637_22378" x1="20.7734" y1="28.5" x2="19.9142" y2="28.5" gradientUnits="userSpaceOnUse">
<stop offset="0.225" stop-color="#594C4F"/>
<stop offset="1" stop-color="#392833"/>
</linearGradient>
<linearGradient id="paint20_linear_637_22378" x1="21.0054" y1="30.2568" x2="21.0054" y2="29.1829" gradientUnits="userSpaceOnUse">
<stop stop-color="#552D52"/>
<stop offset="1" stop-color="#552D52" stop-opacity="0"/>
</linearGradient>
<radialGradient id="paint21_radial_637_22378" cx="0" cy="0" r="1" gradientUnits="userSpaceOnUse" gradientTransform="translate(20.3201 28.6796) rotate(-109.297) scale(1.73269 1.67065)">
<stop offset="0.813951" stop-color="#594C4F" stop-opacity="0"/>
<stop offset="1" stop-color="#594C4F"/>
</radialGradient>
<radialGradient id="paint22_radial_637_22378" cx="0" cy="0" r="1" gradientUnits="userSpaceOnUse" gradientTransform="translate(25.9766 31.25) rotate(143.673) scale(3.95643 4.4258)">
<stop offset="0.726944" stop-color="#E1589F" stop-opacity="0"/>
<stop offset="1" stop-color="#E1589F"/>
</radialGradient>
<linearGradient id="paint23_linear_637_22378" x1="30.4141" y1="34.0781" x2="29.8828" y2="35.375" gradientUnits="userSpaceOnUse">
<stop stop-color="#978BA4"/>
<stop offset="0.343195" stop-color="#B5A8C7"/>
<stop offset="0.833333" stop-color="#9877BA"/>
</linearGradient>
<linearGradient id="paint24_linear_637_22378" x1="33.1172" y1="35.7969" x2="32.7109" y2="35.5547" gradientUnits="userSpaceOnUse">
<stop stop-color="#B5A8C7"/>
<stop offset="1" stop-color="#B5A8C7" stop-opacity="0"/>
</linearGradient>
<linearGradient id="paint25_linear_637_22378" x1="27.0234" y1="33.2969" x2="27.9609" y2="33.8125" gradientUnits="userSpaceOnUse">
<stop stop-color="#A18BBA"/>
<stop offset="1" stop-color="#A18BBA" stop-opacity="0"/>
</linearGradient>
<radialGradient id="paint26_radial_637_22378" cx="0" cy="0" r="1" gradientUnits="userSpaceOnUse" gradientTransform="translate(32.6953 35.4375) rotate(-153.435) scale(0.454202 0.784275)">
<stop stop-color="#C1B1D8"/>
<stop offset="1" stop-color="#B5A8C7" stop-opacity="0"/>
</radialGradient>
<linearGradient id="paint27_linear_637_22378" x1="30.9688" y1="31.9609" x2="30.9687" y2="33.2813" gradientUnits="userSpaceOnUse">
<stop stop-color="#978BA4"/>
<stop offset="0.343195" stop-color="#B5A8C7"/>
<stop offset="0.833333" stop-color="#9877BA"/>
</linearGradient>
<linearGradient id="paint28_linear_637_22378" x1="34.1484" y1="32.7813" x2="33.5586" y2="32.7813" gradientUnits="userSpaceOnUse">
<stop stop-color="#B5A8C7"/>
<stop offset="1" stop-color="#B5A8C7" stop-opacity="0"/>
</linearGradient>
<linearGradient id="paint29_linear_637_22378" x1="28.1016" y1="32.8594" x2="28.7266" y2="32.8594" gradientUnits="userSpaceOnUse">
<stop stop-color="#A18BBA"/>
<stop offset="1" stop-color="#A18BBA" stop-opacity="0"/>
</linearGradient>
<radialGradient id="paint30_radial_637_22378" cx="0" cy="0" r="1" gradientUnits="userSpaceOnUse" gradientTransform="translate(33.5586 32.3125) rotate(180) scale(0.410156 0.324871)">
<stop stop-color="#C1B1D8"/>
<stop offset="1" stop-color="#B5A8C7" stop-opacity="0"/>
</radialGradient>
<linearGradient id="paint31_linear_637_22378" x1="17.5859" y1="34.0781" x2="18.1172" y2="35.375" gradientUnits="userSpaceOnUse">
<stop stop-color="#978BA4"/>
<stop offset="0.343195" stop-color="#B5A8C7"/>
<stop offset="0.833333" stop-color="#9877BA"/>
</linearGradient>
<linearGradient id="paint32_linear_637_22378" x1="21.1016" y1="33.5703" x2="20.5625" y2="33.8281" gradientUnits="userSpaceOnUse">
<stop stop-color="#B5A8C7"/>
<stop offset="1" stop-color="#B5A8C7" stop-opacity="0"/>
</linearGradient>
<linearGradient id="paint33_linear_637_22378" x1="14.9609" y1="35.4531" x2="15.7109" y2="35.0703" gradientUnits="userSpaceOnUse">
<stop stop-color="#A18BBA"/>
<stop offset="1" stop-color="#A18BBA" stop-opacity="0"/>
</linearGradient>
<radialGradient id="paint34_radial_637_22378" cx="0" cy="0" r="1" gradientUnits="userSpaceOnUse" gradientTransform="translate(20.6563 33.25) rotate(162.582) scale(0.417585 0.721049)">
<stop stop-color="#C1B1D8"/>
<stop offset="1" stop-color="#B5A8C7" stop-opacity="0"/>
</radialGradient>
<linearGradient id="paint35_linear_637_22378" x1="17.0312" y1="31.9609" x2="17.0313" y2="33.2813" gradientUnits="userSpaceOnUse">
<stop stop-color="#978BA4"/>
<stop offset="0.343195" stop-color="#B5A8C7"/>
<stop offset="0.833333" stop-color="#9877BA"/>
</linearGradient>
<linearGradient id="paint36_linear_637_22378" x1="19.9297" y1="32.7812" x2="19.1094" y2="32.7812" gradientUnits="userSpaceOnUse">
<stop stop-color="#B5A8C7"/>
<stop offset="1" stop-color="#B5A8C7" stop-opacity="0"/>
</linearGradient>
<linearGradient id="paint37_linear_637_22378" x1="13.8906" y1="32.75" x2="14.7266" y2="32.75" gradientUnits="userSpaceOnUse">
<stop stop-color="#A18BBA"/>
<stop offset="1" stop-color="#A18BBA" stop-opacity="0"/>
</linearGradient>
<radialGradient id="paint38_radial_637_22378" cx="0" cy="0" r="1" gradientUnits="userSpaceOnUse" gradientTransform="translate(19.6211 32.4141) rotate(178.909) scale(0.410231 0.324931)">
<stop stop-color="#C1B1D8"/>
<stop offset="1" stop-color="#B5A8C7" stop-opacity="0"/>
</radialGradient>
</defs>
</svg>
