<svg width="48" height="48" viewBox="0 0 48 48" fill="none" xmlns="http://www.w3.org/2000/svg">
<rect width="48" height="48" rx="24" fill="#F2F5FF"/>
<path d="M32.2043 34.9463H30.1249C29.5703 34.9463 28.8943 34.6401 28.8943 33.6301V29.7463C28.8943 29.3363 29.2343 28.9963 29.6443 28.9963C30.0543 28.9963 30.3943 29.3363 30.3943 29.7463V33.4363C30.5195 33.4363 30.5443 33.4363 30.7343 33.4363H32.2043C32.6143 33.4363 32.9543 33.7763 32.9543 34.1863C32.9543 34.5963 32.6143 34.9463 32.2043 34.9463Z" fill="url(#paint0_linear_637_22366)"/>
<path d="M32.2043 34.9463H30.1249C29.5703 34.9463 28.8943 34.6401 28.8943 33.6301V29.7463C28.8943 29.3363 29.2343 28.9963 29.6443 28.9963C30.0543 28.9963 30.3943 29.3363 30.3943 29.7463V33.4363C30.5195 33.4363 30.5443 33.4363 30.7343 33.4363H32.2043C32.6143 33.4363 32.9543 33.7763 32.9543 34.1863C32.9543 34.5963 32.6143 34.9463 32.2043 34.9463Z" fill="url(#paint1_radial_637_22366)"/>
<path d="M32.2043 34.9463H30.1249C29.5703 34.9463 28.8943 34.6401 28.8943 33.6301V29.7463C28.8943 29.3363 29.2343 28.9963 29.6443 28.9963C30.0543 28.9963 30.3943 29.3363 30.3943 29.7463V33.4363C30.5195 33.4363 30.5443 33.4363 30.7343 33.4363H32.2043C32.6143 33.4363 32.9543 33.7763 32.9543 34.1863C32.9543 34.5963 32.6143 34.9463 32.2043 34.9463Z" fill="url(#paint2_radial_637_22366)"/>
<path d="M32.9155 33.9503H29.7969L30.4012 33.4363H32.2043C32.5322 33.4363 32.8152 33.6536 32.9155 33.9503Z" fill="url(#paint3_linear_637_22366)"/>
<g filter="url(#filter0_f_637_22366)">
<path d="M29.8594 32.4192V33.2911C29.8594 33.7329 30.2175 34.0911 30.6594 34.0911H32.3125" stroke="url(#paint4_linear_637_22366)" stroke-width="0.4" stroke-linecap="round"/>
</g>
<path d="M27.0743 36.981C26.8843 36.981 26.6943 36.911 26.5443 36.761L25.8943 36.111C25.2443 35.461 24.8943 34.601 24.8943 33.691V31.801C24.8943 31.391 25.2343 31.051 25.6443 31.051C26.0543 31.051 26.3943 31.391 26.3943 31.801V33.691C26.3943 34.201 26.5943 34.691 26.9543 35.051L27.6043 35.701C27.8943 35.991 27.8943 36.471 27.6043 36.761C27.4543 36.911 27.2643 36.981 27.0743 36.981Z" fill="url(#paint5_linear_637_22366)"/>
<path d="M27.0743 36.981C26.8843 36.981 26.6943 36.911 26.5443 36.761L25.8943 36.111C25.2443 35.461 24.8943 34.601 24.8943 33.691V31.801C24.8943 31.391 25.2343 31.051 25.6443 31.051C26.0543 31.051 26.3943 31.391 26.3943 31.801V33.691C26.3943 34.201 26.5943 34.691 26.9543 35.051L27.6043 35.701C27.8943 35.991 27.8943 36.471 27.6043 36.761C27.4543 36.911 27.2643 36.981 27.0743 36.981Z" fill="url(#paint6_linear_637_22366)"/>
<g filter="url(#filter1_f_637_22366)">
<path d="M25.7969 33.0833V33.6953C25.7969 34.3075 26.0216 34.8985 26.4284 35.3562L27.1719 36.1926" stroke="url(#paint7_linear_637_22366)" stroke-width="0.4" stroke-linecap="round"/>
</g>
<g filter="url(#filter2_i_637_22366)">
<path d="M17.7044 36.981C17.5144 36.981 17.3244 36.911 17.1744 36.761C16.8844 36.471 16.8844 35.991 17.1744 35.701L17.8244 35.051C18.1844 34.691 18.3844 34.201 18.3844 33.691V31.801C18.3844 31.391 18.7244 31.051 19.1344 31.051C19.5444 31.051 19.8844 31.391 19.8844 31.801V33.691C19.8844 34.601 19.5244 35.461 18.8844 36.111L18.2344 36.761C18.0844 36.911 17.8944 36.981 17.7044 36.981Z" fill="url(#paint8_linear_637_22366)"/>
</g>
<g filter="url(#filter3_f_637_22366)">
<path d="M17.8281 36.2708C17.9904 36.0843 18.3082 35.7565 18.6315 35.3456C18.9692 34.9162 19.1094 34.3726 19.1094 33.8263V32.4114" stroke="url(#paint9_linear_637_22366)" stroke-width="0.3" stroke-linecap="round"/>
</g>
<g filter="url(#filter4_i_637_22366)">
<path d="M13.4131 21.3816C13.1331 21.3816 12.9131 21.1616 12.9131 20.8816V20.0216C12.9131 19.3116 12.5131 18.6716 11.8731 18.3516L11.2031 17.9716C10.9531 17.8516 10.8531 17.5516 10.9731 17.3016C11.0931 17.0516 11.3931 16.9516 11.6431 17.0716L12.3231 17.4516C13.3031 17.9416 13.9131 18.9216 13.9131 20.0216V20.8816C13.9131 21.1616 13.6931 21.3816 13.4131 21.3816Z" fill="url(#paint10_linear_637_22366)"/>
</g>
<path d="M33.8516 21.467L32.9116 20.1059C31.7328 18.5 30.5216 17.4257 28.8516 16.9336V33.1198C30.5116 32.6382 31.9716 31.518 32.9116 29.9475L33.8516 28.5864V21.467Z" fill="url(#paint11_linear_637_22366)"/>
<path d="M33.8516 21.467L32.9116 20.1059C31.7328 18.5 30.5216 17.4257 28.8516 16.9336V33.1198C30.5116 32.6382 31.9716 31.518 32.9116 29.9475L33.8516 28.5864V21.467Z" fill="url(#paint12_linear_637_22366)"/>
<path d="M33.8516 21.467L32.9116 20.1059C31.7328 18.5 30.5216 17.4257 28.8516 16.9336V33.1198C30.5116 32.6382 31.9716 31.518 32.9116 29.9475L33.8516 28.5864V21.467Z" fill="url(#paint13_linear_637_22366)"/>
<path d="M33.8516 21.467L32.9116 20.1059C31.7328 18.5 30.5216 17.4257 28.8516 16.9336V33.1198C30.5116 32.6382 31.9716 31.518 32.9116 29.9475L33.8516 28.5864V21.467Z" fill="url(#paint14_radial_637_22366)"/>
<path d="M33.8516 21.467L32.9116 20.1059C31.7328 18.5 30.5216 17.4257 28.8516 16.9336V33.1198C30.5116 32.6382 31.9716 31.518 32.9116 29.9475L33.8516 28.5864V21.467Z" fill="url(#paint15_radial_637_22366)"/>
<path d="M33.8516 21.467L32.9116 20.1059C31.7328 18.5 30.5216 17.4257 28.8516 16.9336V33.1198C30.5116 32.6382 31.9716 31.518 32.9116 29.9475L33.8516 28.5864V21.467Z" fill="url(#paint16_linear_637_22366)"/>
<path d="M33.8516 21.467L32.9116 20.1059C31.7328 18.5 30.5216 17.4257 28.8516 16.9336V33.1198C30.5116 32.6382 31.9716 31.518 32.9116 29.9475L33.8516 28.5864V21.467Z" fill="url(#paint17_radial_637_22366)"/>
<path d="M24.8943 33.3659V16.6458H21.5576C21.4875 16.6458 21.4073 16.6458 21.3372 16.6458C21.267 16.6458 21.1869 16.6458 21.1167 16.6458C20.6959 16.6562 20.2851 16.7086 19.8843 16.7819V33.2403C20.2851 33.3136 20.6959 33.3659 21.1167 33.3764H24.8943V33.3659Z" fill="url(#paint18_linear_637_22366)"/>
<path d="M24.8943 33.3659V16.6458H21.5576C21.4875 16.6458 21.4073 16.6458 21.3372 16.6458C21.267 16.6458 21.1869 16.6458 21.1167 16.6458C20.6959 16.6562 20.2851 16.7086 19.8843 16.7819V33.2403C20.2851 33.3136 20.6959 33.3659 21.1167 33.3764H24.8943V33.3659Z" fill="url(#paint19_linear_637_22366)"/>
<path d="M24.8943 33.3659V16.6458H21.5576C21.4875 16.6458 21.4073 16.6458 21.3372 16.6458C21.267 16.6458 21.1869 16.6458 21.1167 16.6458C20.6959 16.6562 20.2851 16.7086 19.8843 16.7819V33.2403C20.2851 33.3136 20.6959 33.3659 21.1167 33.3764H24.8943V33.3659Z" fill="url(#paint20_linear_637_22366)"/>
<path d="M24.8943 33.3659V16.6458H21.5576C21.4875 16.6458 21.4073 16.6458 21.3372 16.6458C21.267 16.6458 21.1869 16.6458 21.1167 16.6458C20.6959 16.6562 20.2851 16.7086 19.8843 16.7819V33.2403C20.2851 33.3136 20.6959 33.3659 21.1167 33.3764H24.8943V33.3659Z" fill="url(#paint21_linear_637_22366)"/>
<path d="M24.8943 33.3659V16.6458H21.5576C21.4875 16.6458 21.4073 16.6458 21.3372 16.6458C21.267 16.6458 21.1869 16.6458 21.1167 16.6458C20.6959 16.6562 20.2851 16.7086 19.8843 16.7819V33.2403C20.2851 33.3136 20.6959 33.3659 21.1167 33.3764H24.8943V33.3659Z" fill="url(#paint22_radial_637_22366)"/>
<path d="M33.875 28.5715L36.3644 25.0111L33.875 21.427V28.5715Z" fill="#FCC946"/>
<path d="M33.875 28.5715L36.3644 25.0111L33.875 21.427V28.5715Z" fill="url(#paint23_linear_637_22366)"/>
<path d="M33.875 28.5715L36.3644 25.0111L33.875 21.427V28.5715Z" fill="url(#paint24_linear_637_22366)"/>
<path d="M33.875 28.5715L36.3644 25.0111L33.875 21.427V28.5715Z" fill="url(#paint25_radial_637_22366)"/>
<path d="M28.8943 16.9149C28.2898 16.7384 27.6581 16.6458 27.0143 16.6458H24.8943V33.3764H27.0143C27.6581 33.3764 28.2898 33.2838 28.8943 33.1072V16.9149Z" fill="url(#paint26_linear_637_22366)"/>
<path d="M28.8943 16.9149C28.2898 16.7384 27.6581 16.6458 27.0143 16.6458H24.8943V33.3764H27.0143C27.6581 33.3764 28.2898 33.2838 28.8943 33.1072V16.9149Z" fill="url(#paint27_linear_637_22366)"/>
<path d="M28.8943 16.9149C28.2898 16.7384 27.6581 16.6458 27.0143 16.6458H24.8943V33.3764H27.0143C27.6581 33.3764 28.2898 33.2838 28.8943 33.1072V16.9149Z" fill="url(#paint28_radial_637_22366)"/>
<path d="M19.8843 16.781V33.2411C16.1646 32.5244 13.3444 29.1134 13.3444 25.0111C13.3444 20.9088 16.1646 17.4977 19.8843 16.781Z" fill="url(#paint29_linear_637_22366)"/>
<path d="M19.8843 16.781V33.2411C16.1646 32.5244 13.3444 29.1134 13.3444 25.0111C13.3444 20.9088 16.1646 17.4977 19.8843 16.781Z" fill="url(#paint30_radial_637_22366)"/>
<path d="M19.8843 16.781V33.2411C16.1646 32.5244 13.3444 29.1134 13.3444 25.0111C13.3444 20.9088 16.1646 17.4977 19.8843 16.781Z" fill="url(#paint31_radial_637_22366)"/>
<path d="M19.8843 16.781V33.2411C16.1646 32.5244 13.3444 29.1134 13.3444 25.0111C13.3444 20.9088 16.1646 17.4977 19.8843 16.781Z" fill="url(#paint32_radial_637_22366)"/>
<path d="M19.8843 16.781V33.2411C16.1646 32.5244 13.3444 29.1134 13.3444 25.0111C13.3444 20.9088 16.1646 17.4977 19.8843 16.781Z" fill="url(#paint33_radial_637_22366)"/>
<path d="M19.8843 16.781V33.2411C16.1646 32.5244 13.3444 29.1134 13.3444 25.0111C13.3444 20.9088 16.1646 17.4977 19.8843 16.781Z" fill="url(#paint34_radial_637_22366)"/>
<path d="M19.8843 16.781V33.2411C16.1646 32.5244 13.3444 29.1134 13.3444 25.0111C13.3444 20.9088 16.1646 17.4977 19.8843 16.781Z" fill="url(#paint35_radial_637_22366)"/>
<path d="M19.8843 16.781V33.2411C16.1646 32.5244 13.3444 29.1134 13.3444 25.0111C13.3444 20.9088 16.1646 17.4977 19.8843 16.781Z" fill="url(#paint36_radial_637_22366)"/>
<path d="M35.7461 24.1262V25.8997L35.8035 25.8408C35.9172 25.7243 36.0575 25.6373 36.2124 25.5874L37.6956 25.1092C37.7889 25.0791 37.7878 24.9468 37.694 24.9183L36.2584 24.4832C36.0744 24.4275 35.9104 24.3198 35.786 24.1733L35.7461 24.1262Z" fill="url(#paint37_linear_637_22366)"/>
<path d="M35.7461 24.1262V25.8997L35.8035 25.8408C35.9172 25.7243 36.0575 25.6373 36.2124 25.5874L37.6956 25.1092C37.7889 25.0791 37.7878 24.9468 37.694 24.9183L36.2584 24.4832C36.0744 24.4275 35.9104 24.3198 35.786 24.1733L35.7461 24.1262Z" fill="url(#paint38_radial_637_22366)"/>
<path d="M26.7821 11.3253L26.783 11.3253C29.032 11.3632 30.8137 13.0345 30.87 15.2825C30.9263 17.6735 29.0205 19.6266 26.6577 19.6266C24.9231 19.6266 23.1785 19.6174 21.4338 19.6082C20.6509 19.6041 19.868 19.5999 19.086 19.5966H19.0849C18.8897 19.5966 18.6203 19.4778 18.4701 19.2691C18.3989 19.1702 18.3561 19.0536 18.3575 18.9183C18.3588 18.7847 18.4035 18.6159 18.5344 18.413C19.3112 17.5051 20.2338 16.4934 21.1088 15.5386C21.1968 15.4427 21.2842 15.3473 21.371 15.2526C22.1501 14.403 22.8754 13.612 23.3985 13.0041C24.3 11.9565 25.4066 11.2973 26.7821 11.3253ZM18.3339 18.2629C17.7012 19.2238 18.5383 19.8466 19.0849 19.8466L18.3339 18.2629Z" fill="url(#paint39_linear_637_22366)"/>
<path d="M26.7821 11.3253L26.783 11.3253C29.032 11.3632 30.8137 13.0345 30.87 15.2825C30.9263 17.6735 29.0205 19.6266 26.6577 19.6266C24.9231 19.6266 23.1785 19.6174 21.4338 19.6082C20.6509 19.6041 19.868 19.5999 19.086 19.5966H19.0849C18.8897 19.5966 18.6203 19.4778 18.4701 19.2691C18.3989 19.1702 18.3561 19.0536 18.3575 18.9183C18.3588 18.7847 18.4035 18.6159 18.5344 18.413C19.3112 17.5051 20.2338 16.4934 21.1088 15.5386C21.1968 15.4427 21.2842 15.3473 21.371 15.2526C22.1501 14.403 22.8754 13.612 23.3985 13.0041C24.3 11.9565 25.4066 11.2973 26.7821 11.3253ZM18.3339 18.2629C17.7012 19.2238 18.5383 19.8466 19.0849 19.8466L18.3339 18.2629Z" stroke="url(#paint40_linear_637_22366)" stroke-width="0.5"/>
<path d="M26.7821 11.3253L26.783 11.3253C29.032 11.3632 30.8137 13.0345 30.87 15.2825C30.9263 17.6735 29.0205 19.6266 26.6577 19.6266C24.9231 19.6266 23.1785 19.6174 21.4338 19.6082C20.6509 19.6041 19.868 19.5999 19.086 19.5966H19.0849C18.8897 19.5966 18.6203 19.4778 18.4701 19.2691C18.3989 19.1702 18.3561 19.0536 18.3575 18.9183C18.3588 18.7847 18.4035 18.6159 18.5344 18.413C19.3112 17.5051 20.2338 16.4934 21.1088 15.5386C21.1968 15.4427 21.2842 15.3473 21.371 15.2526C22.1501 14.403 22.8754 13.612 23.3985 13.0041C24.3 11.9565 25.4066 11.2973 26.7821 11.3253ZM18.3339 18.2629C17.7012 19.2238 18.5383 19.8466 19.0849 19.8466L18.3339 18.2629Z" stroke="url(#paint41_radial_637_22366)" stroke-width="0.5"/>
<path d="M26.7821 11.3253L26.783 11.3253C29.032 11.3632 30.8137 13.0345 30.87 15.2825C30.9263 17.6735 29.0205 19.6266 26.6577 19.6266C24.9231 19.6266 23.1785 19.6174 21.4338 19.6082C20.6509 19.6041 19.868 19.5999 19.086 19.5966H19.0849C18.8897 19.5966 18.6203 19.4778 18.4701 19.2691C18.3989 19.1702 18.3561 19.0536 18.3575 18.9183C18.3588 18.7847 18.4035 18.6159 18.5344 18.413C19.3112 17.5051 20.2338 16.4934 21.1088 15.5386C21.1968 15.4427 21.2842 15.3473 21.371 15.2526C22.1501 14.403 22.8754 13.612 23.3985 13.0041C24.3 11.9565 25.4066 11.2973 26.7821 11.3253ZM18.3339 18.2629C17.7012 19.2238 18.5383 19.8466 19.0849 19.8466L18.3339 18.2629Z" stroke="url(#paint42_linear_637_22366)" stroke-width="0.5"/>
<path d="M26.7821 11.3253L26.783 11.3253C29.032 11.3632 30.8137 13.0345 30.87 15.2825C30.9263 17.6735 29.0205 19.6266 26.6577 19.6266C24.9231 19.6266 23.1785 19.6174 21.4338 19.6082C20.6509 19.6041 19.868 19.5999 19.086 19.5966H19.0849C18.8897 19.5966 18.6203 19.4778 18.4701 19.2691C18.3989 19.1702 18.3561 19.0536 18.3575 18.9183C18.3588 18.7847 18.4035 18.6159 18.5344 18.413C19.3112 17.5051 20.2338 16.4934 21.1088 15.5386C21.1968 15.4427 21.2842 15.3473 21.371 15.2526C22.1501 14.403 22.8754 13.612 23.3985 13.0041C24.3 11.9565 25.4066 11.2973 26.7821 11.3253ZM18.3339 18.2629C17.7012 19.2238 18.5383 19.8466 19.0849 19.8466L18.3339 18.2629Z" stroke="url(#paint43_linear_637_22366)" stroke-width="0.5"/>
<path d="M26.7821 11.3253L26.783 11.3253C29.032 11.3632 30.8137 13.0345 30.87 15.2825C30.9263 17.6735 29.0205 19.6266 26.6577 19.6266C24.9231 19.6266 23.1785 19.6174 21.4338 19.6082C20.6509 19.6041 19.868 19.5999 19.086 19.5966H19.0849C18.8897 19.5966 18.6203 19.4778 18.4701 19.2691C18.3989 19.1702 18.3561 19.0536 18.3575 18.9183C18.3588 18.7847 18.4035 18.6159 18.5344 18.413C19.3112 17.5051 20.2338 16.4934 21.1088 15.5386C21.1968 15.4427 21.2842 15.3473 21.371 15.2526C22.1501 14.403 22.8754 13.612 23.3985 13.0041C24.3 11.9565 25.4066 11.2973 26.7821 11.3253ZM18.3339 18.2629C17.7012 19.2238 18.5383 19.8466 19.0849 19.8466L18.3339 18.2629Z" stroke="url(#paint44_linear_637_22366)" stroke-width="0.5"/>
<path d="M14.746 20.7357C14.746 20.5443 14.6483 20.1224 13.6796 20.2904C11.4664 20.8252 10.0897 22.7215 10.0897 25.099C10.0897 27.4537 11.6378 29.4817 13.7548 29.8695C13.7955 29.8769 13.8371 29.8804 13.8786 29.8799C14.5113 29.8723 14.746 29.7445 14.746 29.3214V20.7357Z" fill="url(#paint45_radial_637_22366)"/>
<path d="M14.746 20.7357C14.746 20.5443 14.6483 20.1224 13.6796 20.2904C11.4664 20.8252 10.0897 22.7215 10.0897 25.099C10.0897 27.4537 11.6378 29.4817 13.7548 29.8695C13.7955 29.8769 13.8371 29.8804 13.8786 29.8799C14.5113 29.8723 14.746 29.7445 14.746 29.3214V20.7357Z" fill="url(#paint46_radial_637_22366)"/>
<path d="M14.746 20.7357C14.746 20.5443 14.6483 20.1224 13.6796 20.2904C11.4664 20.8252 10.0897 22.7215 10.0897 25.099C10.0897 27.4537 11.6378 29.4817 13.7548 29.8695C13.7955 29.8769 13.8371 29.8804 13.8786 29.8799C14.5113 29.8723 14.746 29.7445 14.746 29.3214V20.7357Z" fill="url(#paint47_radial_637_22366)"/>
<path d="M14.746 20.7357C14.746 20.5443 14.6483 20.1224 13.6796 20.2904C11.4664 20.8252 10.0897 22.7215 10.0897 25.099C10.0897 27.4537 11.6378 29.4817 13.7548 29.8695C13.7955 29.8769 13.8371 29.8804 13.8786 29.8799C14.5113 29.8723 14.746 29.7445 14.746 29.3214V20.7357Z" fill="url(#paint48_radial_637_22366)"/>
<path d="M13.3444 25.9002C13.8 25.9002 14.1694 25.5309 14.1694 25.0752C14.1694 24.6196 13.8 24.2502 13.3444 24.2502C12.8888 24.2502 12.5194 24.6196 12.5194 25.0752C12.5194 25.5309 12.8888 25.9002 13.3444 25.9002Z" fill="url(#paint49_radial_637_22366)"/>
<path d="M13.3444 25.9002C13.8 25.9002 14.1694 25.5309 14.1694 25.0752C14.1694 24.6196 13.8 24.2502 13.3444 24.2502C12.8888 24.2502 12.5194 24.6196 12.5194 25.0752C12.5194 25.5309 12.8888 25.9002 13.3444 25.9002Z" fill="url(#paint50_radial_637_22366)"/>
<path d="M13.3444 25.9002C13.8 25.9002 14.1694 25.5309 14.1694 25.0752C14.1694 24.6196 13.8 24.2502 13.3444 24.2502C12.8888 24.2502 12.5194 24.6196 12.5194 25.0752C12.5194 25.5309 12.8888 25.9002 13.3444 25.9002Z" fill="url(#paint51_radial_637_22366)"/>
<path d="M13.3444 25.9002C13.8 25.9002 14.1694 25.5309 14.1694 25.0752C14.1694 24.6196 13.8 24.2502 13.3444 24.2502C12.8888 24.2502 12.5194 24.6196 12.5194 25.0752C12.5194 25.5309 12.8888 25.9002 13.3444 25.9002Z" fill="url(#paint52_radial_637_22366)"/>
<g filter="url(#filter5_f_637_22366)">
<path d="M11.5 17.4895L12.0854 17.7869C12.9245 18.2132 13.4531 19.0746 13.4531 20.0158V20.7083" stroke="url(#paint53_linear_637_22366)" stroke-width="0.2" stroke-linecap="round"/>
</g>
<defs>
<filter id="filter0_f_637_22366" x="29.4094" y="31.9692" width="3.35303" height="2.57178" filterUnits="userSpaceOnUse" color-interpolation-filters="sRGB">
<feFlood flood-opacity="0" result="BackgroundImageFix"/>
<feBlend mode="normal" in="SourceGraphic" in2="BackgroundImageFix" result="shape"/>
<feGaussianBlur stdDeviation="0.125" result="effect1_foregroundBlur_637_22366"/>
</filter>
<filter id="filter1_f_637_22366" x="25.1969" y="32.4833" width="2.5749" height="4.30928" filterUnits="userSpaceOnUse" color-interpolation-filters="sRGB">
<feFlood flood-opacity="0" result="BackgroundImageFix"/>
<feBlend mode="normal" in="SourceGraphic" in2="BackgroundImageFix" result="shape"/>
<feGaussianBlur stdDeviation="0.2" result="effect1_foregroundBlur_637_22366"/>
</filter>
<filter id="filter2_i_637_22366" x="16.9569" y="31.051" width="2.97749" height="5.98005" filterUnits="userSpaceOnUse" color-interpolation-filters="sRGB">
<feFlood flood-opacity="0" result="BackgroundImageFix"/>
<feBlend mode="normal" in="SourceGraphic" in2="BackgroundImageFix" result="shape"/>
<feColorMatrix in="SourceAlpha" type="matrix" values="0 0 0 0 0 0 0 0 0 0 0 0 0 0 0 0 0 0 127 0" result="hardAlpha"/>
<feOffset dx="0.05" dy="0.05"/>
<feGaussianBlur stdDeviation="0.125"/>
<feComposite in2="hardAlpha" operator="arithmetic" k2="-1" k3="1"/>
<feColorMatrix type="matrix" values="0 0 0 0 0.541176 0 0 0 0 0.517647 0 0 0 0 0.564706 0 0 0 1 0"/>
<feBlend mode="normal" in2="shape" result="effect1_innerShadow_637_22366"/>
</filter>
<filter id="filter3_f_637_22366" x="17.2781" y="31.8614" width="2.3813" height="4.95942" filterUnits="userSpaceOnUse" color-interpolation-filters="sRGB">
<feFlood flood-opacity="0" result="BackgroundImageFix"/>
<feBlend mode="normal" in="SourceGraphic" in2="BackgroundImageFix" result="shape"/>
<feGaussianBlur stdDeviation="0.2" result="effect1_foregroundBlur_637_22366"/>
</filter>
<filter id="filter4_i_637_22366" x="10.9225" y="16.921" width="3.0406" height="4.4606" filterUnits="userSpaceOnUse" color-interpolation-filters="sRGB">
<feFlood flood-opacity="0" result="BackgroundImageFix"/>
<feBlend mode="normal" in="SourceGraphic" in2="BackgroundImageFix" result="shape"/>
<feColorMatrix in="SourceAlpha" type="matrix" values="0 0 0 0 0 0 0 0 0 0 0 0 0 0 0 0 0 0 127 0" result="hardAlpha"/>
<feOffset dx="0.05" dy="-0.1"/>
<feGaussianBlur stdDeviation="0.125"/>
<feComposite in2="hardAlpha" operator="arithmetic" k2="-1" k3="1"/>
<feColorMatrix type="matrix" values="0 0 0 0 0.541176 0 0 0 0 0.517647 0 0 0 0 0.564706 0 0 0 1 0"/>
<feBlend mode="normal" in2="shape" result="effect1_innerShadow_637_22366"/>
</filter>
<filter id="filter5_f_637_22366" x="11.1" y="17.0895" width="2.75308" height="4.0187" filterUnits="userSpaceOnUse" color-interpolation-filters="sRGB">
<feFlood flood-opacity="0" result="BackgroundImageFix"/>
<feBlend mode="normal" in="SourceGraphic" in2="BackgroundImageFix" result="shape"/>
<feGaussianBlur stdDeviation="0.15" result="effect1_foregroundBlur_637_22366"/>
</filter>
<linearGradient id="paint0_linear_637_22366" x1="30.5312" y1="34.9463" x2="30.6877" y2="33.6026" gradientUnits="userSpaceOnUse">
<stop stop-color="#582F7C"/>
<stop offset="1" stop-color="#452E4F"/>
</linearGradient>
<radialGradient id="paint1_radial_637_22366" cx="0" cy="0" r="1" gradientUnits="userSpaceOnUse" gradientTransform="translate(32.8437 33.6613) rotate(143.471) scale(1.31252 1.03217)">
<stop stop-color="#786F84"/>
<stop offset="0.682192" stop-color="#786F84" stop-opacity="0"/>
</radialGradient>
<radialGradient id="paint2_radial_637_22366" cx="0" cy="0" r="1" gradientUnits="userSpaceOnUse" gradientTransform="translate(30.3867 33.384) rotate(137.375) scale(0.599899 0.176588)">
<stop stop-color="#655A71"/>
<stop offset="1" stop-color="#655A71" stop-opacity="0"/>
</radialGradient>
<linearGradient id="paint3_linear_637_22366" x1="31.1406" y1="33.3253" x2="31.1406" y2="33.9503" gradientUnits="userSpaceOnUse">
<stop stop-color="#2E203A"/>
<stop offset="1" stop-color="#3E2C4E" stop-opacity="0"/>
</linearGradient>
<linearGradient id="paint4_linear_637_22366" x1="27.8594" y1="31.7161" x2="29.1497" y2="35.7802" gradientUnits="userSpaceOnUse">
<stop stop-color="#766983"/>
<stop offset="1" stop-color="#766983" stop-opacity="0"/>
</linearGradient>
<linearGradient id="paint5_linear_637_22366" x1="25.6249" y1="35.3019" x2="26.7031" y2="34.3801" gradientUnits="userSpaceOnUse">
<stop stop-color="#582F7C"/>
<stop offset="1" stop-color="#452E4F"/>
</linearGradient>
<linearGradient id="paint6_linear_637_22366" x1="26.358" y1="33.1457" x2="26.358" y2="34.3332" gradientUnits="userSpaceOnUse">
<stop stop-color="#392841"/>
<stop offset="1" stop-color="#392841" stop-opacity="0"/>
</linearGradient>
<linearGradient id="paint7_linear_637_22366" x1="27.3281" y1="35.6614" x2="26.3437" y2="32.677" gradientUnits="userSpaceOnUse">
<stop stop-color="#766983"/>
<stop offset="1" stop-color="#766983" stop-opacity="0"/>
</linearGradient>
<linearGradient id="paint8_linear_637_22366" x1="18.875" y1="36.4582" x2="18.25" y2="34.3332" gradientUnits="userSpaceOnUse">
<stop stop-color="#582F7C"/>
<stop offset="1" stop-color="#452E4F"/>
</linearGradient>
<linearGradient id="paint9_linear_637_22366" x1="19.5781" y1="33.9583" x2="17.9043" y2="38.0133" gradientUnits="userSpaceOnUse">
<stop stop-color="#766983"/>
<stop offset="1" stop-color="#766983" stop-opacity="0"/>
</linearGradient>
<linearGradient id="paint10_linear_637_22366" x1="12.8819" y1="20.9971" x2="12.5379" y2="19.3722" gradientUnits="userSpaceOnUse">
<stop stop-color="#582F7C"/>
<stop offset="1" stop-color="#452E4F"/>
</linearGradient>
<linearGradient id="paint11_linear_637_22366" x1="31.3539" y1="23.6406" x2="31.3539" y2="32.5781" gradientUnits="userSpaceOnUse">
<stop offset="0.00558659" stop-color="#5E5566"/>
<stop offset="1" stop-color="#5C2E82"/>
</linearGradient>
<linearGradient id="paint12_linear_637_22366" x1="31.1235" y1="30.6719" x2="33.0922" y2="32.3906" gradientUnits="userSpaceOnUse">
<stop stop-color="#9257C2" stop-opacity="0"/>
<stop offset="0.945121" stop-color="#9257C2"/>
</linearGradient>
<linearGradient id="paint13_linear_637_22366" x1="29.9672" y1="32.1719" x2="27.6547" y2="32.7344" gradientUnits="userSpaceOnUse">
<stop stop-color="#9257C2" stop-opacity="0"/>
<stop offset="0.945121" stop-color="#9257C2"/>
</linearGradient>
<radialGradient id="paint14_radial_637_22366" cx="0" cy="0" r="1" gradientUnits="userSpaceOnUse" gradientTransform="translate(30.6235 23.4531) rotate(90) scale(3.25)">
<stop stop-color="#776F80"/>
<stop offset="1" stop-color="#776F80" stop-opacity="0"/>
</radialGradient>
<radialGradient id="paint15_radial_637_22366" cx="0" cy="0" r="1" gradientUnits="userSpaceOnUse" gradientTransform="translate(28.936 18.7969) rotate(52.2889) scale(1.91583 4.22046)">
<stop stop-color="#4F455B"/>
<stop offset="1" stop-color="#4F455B" stop-opacity="0"/>
</radialGradient>
<linearGradient id="paint16_linear_637_22366" x1="28.5922" y1="22.1719" x2="29.7485" y2="22.1719" gradientUnits="userSpaceOnUse">
<stop stop-color="#4F455B"/>
<stop offset="1" stop-color="#4F455B" stop-opacity="0"/>
</linearGradient>
<radialGradient id="paint17_radial_637_22366" cx="0" cy="0" r="1" gradientUnits="userSpaceOnUse" gradientTransform="translate(29.9609 33.2044) rotate(-117.613) scale(1.14618 1.08419)">
<stop offset="0.301355" stop-color="#3C1E58"/>
<stop offset="1" stop-color="#3C1E58" stop-opacity="0"/>
</radialGradient>
<linearGradient id="paint18_linear_637_22366" x1="22.3916" y1="24.5833" x2="22.3905" y2="33.3764" gradientUnits="userSpaceOnUse">
<stop stop-color="#433653"/>
<stop offset="1" stop-color="#5C2A83"/>
</linearGradient>
<linearGradient id="paint19_linear_637_22366" x1="22.3893" y1="18.677" x2="22.3893" y2="22.1145" gradientUnits="userSpaceOnUse">
<stop stop-color="#323151"/>
<stop offset="1" stop-color="#323151" stop-opacity="0"/>
</linearGradient>
<linearGradient id="paint20_linear_637_22366" x1="22.3893" y1="31.1145" x2="22.3893" y2="35.052" gradientUnits="userSpaceOnUse">
<stop stop-color="#9257C2" stop-opacity="0"/>
<stop offset="0.945121" stop-color="#9257C2"/>
</linearGradient>
<linearGradient id="paint21_linear_637_22366" x1="22.3893" y1="33.0989" x2="22.3893" y2="33.5989" gradientUnits="userSpaceOnUse">
<stop stop-color="#9257C2" stop-opacity="0"/>
<stop offset="0.945121" stop-color="#9257C2"/>
</linearGradient>
<radialGradient id="paint22_radial_637_22366" cx="0" cy="0" r="1" gradientUnits="userSpaceOnUse" gradientTransform="translate(25.7187 23.8645) rotate(-180) scale(4.375 3)">
<stop stop-color="#514260"/>
<stop offset="1" stop-color="#514260" stop-opacity="0"/>
</radialGradient>
<linearGradient id="paint23_linear_637_22366" x1="35.3437" y1="26.8801" x2="34.6719" y2="26.0989" gradientUnits="userSpaceOnUse">
<stop stop-color="#E1AA72"/>
<stop offset="1" stop-color="#E1AA72" stop-opacity="0"/>
</linearGradient>
<linearGradient id="paint24_linear_637_22366" x1="35.6875" y1="23.5208" x2="35.2656" y2="23.8489" gradientUnits="userSpaceOnUse">
<stop stop-color="#E1AA72"/>
<stop offset="1" stop-color="#E1AA72" stop-opacity="0"/>
</linearGradient>
<radialGradient id="paint25_radial_637_22366" cx="0" cy="0" r="1" gradientUnits="userSpaceOnUse" gradientTransform="translate(33.5937 23.0833) rotate(47.3373) scale(3.25098 1.32735)">
<stop stop-color="#FFDA65"/>
<stop offset="1" stop-color="#FFDA65" stop-opacity="0"/>
</radialGradient>
<linearGradient id="paint26_linear_637_22366" x1="26.8943" y1="19.927" x2="26.8943" y2="32.1042" gradientUnits="userSpaceOnUse">
<stop stop-color="#EBBD47"/>
<stop offset="1" stop-color="#DE8955"/>
</linearGradient>
<linearGradient id="paint27_linear_637_22366" x1="27.9687" y1="35.677" x2="27.9687" y2="30.2395" gradientUnits="userSpaceOnUse">
<stop stop-color="#E988B9"/>
<stop offset="1" stop-color="#E988B9" stop-opacity="0"/>
</linearGradient>
<radialGradient id="paint28_radial_637_22366" cx="0" cy="0" r="1" gradientUnits="userSpaceOnUse" gradientTransform="translate(25.4374 19.8333) scale(5.09375 1.53125)">
<stop stop-color="#BE9638"/>
<stop offset="1" stop-color="#BE9638" stop-opacity="0"/>
</radialGradient>
<linearGradient id="paint29_linear_637_22366" x1="16.6143" y1="17.4993" x2="16.6143" y2="31.9895" gradientUnits="userSpaceOnUse">
<stop stop-color="#D2A02E"/>
<stop offset="1" stop-color="#DE8955"/>
</linearGradient>
<radialGradient id="paint30_radial_637_22366" cx="0" cy="0" r="1" gradientUnits="userSpaceOnUse" gradientTransform="translate(16.085 20.2133) rotate(121.608) scale(4.28548 1.78769)">
<stop stop-color="#D6BB7E"/>
<stop offset="1" stop-color="#D6BB7E" stop-opacity="0"/>
</radialGradient>
<radialGradient id="paint31_radial_637_22366" cx="0" cy="0" r="1" gradientUnits="userSpaceOnUse" gradientTransform="translate(20.3586 18.8095) rotate(141.411) scale(3.95101 2.62031)">
<stop stop-color="#BE9638"/>
<stop offset="1" stop-color="#BE9638" stop-opacity="0"/>
</radialGradient>
<radialGradient id="paint32_radial_637_22366" cx="0" cy="0" r="1" gradientUnits="userSpaceOnUse" gradientTransform="translate(13.875 21.6145) rotate(-44.1449) scale(2.221 0.665533)">
<stop offset="0.377283" stop-color="#B5954A"/>
<stop offset="1" stop-color="#B5954A" stop-opacity="0"/>
</radialGradient>
<radialGradient id="paint33_radial_637_22366" cx="0" cy="0" r="1" gradientUnits="userSpaceOnUse" gradientTransform="translate(15.25 32.9582) rotate(-58.2547) scale(5.10792 6.84522)">
<stop stop-color="#E58DAD"/>
<stop offset="1" stop-color="#E58DAD" stop-opacity="0"/>
</radialGradient>
<radialGradient id="paint34_radial_637_22366" cx="0" cy="0" r="1" gradientUnits="userSpaceOnUse" gradientTransform="translate(15.1562 30.3645) rotate(-80.3879) scale(3.93018 2.11132)">
<stop stop-color="#EDAE97"/>
<stop offset="1" stop-color="#E3A28A" stop-opacity="0"/>
</radialGradient>
<radialGradient id="paint35_radial_637_22366" cx="0" cy="0" r="1" gradientUnits="userSpaceOnUse" gradientTransform="translate(14.4687 28.4895) rotate(8.53073) scale(1.26398 3.69579)">
<stop offset="0.0863663" stop-color="#C37342"/>
<stop offset="0.503823" stop-color="#C37342" stop-opacity="0"/>
</radialGradient>
<radialGradient id="paint36_radial_637_22366" cx="0" cy="0" r="1" gradientUnits="userSpaceOnUse" gradientTransform="translate(19.1094 33.2411) rotate(-90) scale(2.04851 1.85683)">
<stop stop-color="#CE714B"/>
<stop offset="1" stop-color="#CE714B" stop-opacity="0"/>
</radialGradient>
<linearGradient id="paint37_linear_637_22366" x1="36.5928" y1="25.4895" x2="36.6875" y2="24.6379" gradientUnits="userSpaceOnUse">
<stop stop-color="#522C71"/>
<stop offset="1" stop-color="#55495E"/>
</linearGradient>
<radialGradient id="paint38_radial_637_22366" cx="0" cy="0" r="1" gradientUnits="userSpaceOnUse" gradientTransform="translate(37.4844 24.9583) rotate(180) scale(1.73828 0.257812)">
<stop stop-color="#6E6579"/>
<stop offset="1" stop-color="#6E6579" stop-opacity="0"/>
</radialGradient>
<linearGradient id="paint39_linear_637_22366" x1="28.5762" y1="14.5832" x2="18.1074" y2="20.4582" gradientUnits="userSpaceOnUse">
<stop stop-color="#8BD1F8"/>
<stop offset="1" stop-color="#87C0EA"/>
</linearGradient>
<linearGradient id="paint40_linear_637_22366" x1="20.92" y1="15.4755" x2="24.3887" y2="18.2082" gradientUnits="userSpaceOnUse">
<stop stop-color="#7BC4E3"/>
<stop offset="1" stop-color="#7BC4E3" stop-opacity="0"/>
</linearGradient>
<radialGradient id="paint41_radial_637_22366" cx="0" cy="0" r="1" gradientUnits="userSpaceOnUse" gradientTransform="translate(30.8262 12.8644) rotate(143.549) scale(3.41884 3.81531)">
<stop stop-color="#A5E8FF"/>
<stop offset="1" stop-color="#A5E8FF" stop-opacity="0"/>
</radialGradient>
<linearGradient id="paint42_linear_637_22366" x1="20.8653" y1="15.3801" x2="21.0372" y2="15.5363" gradientUnits="userSpaceOnUse">
<stop stop-color="#9DD3E9"/>
<stop offset="1" stop-color="#9DD3E9" stop-opacity="0"/>
</linearGradient>
<linearGradient id="paint43_linear_637_22366" x1="30.7637" y1="17.8176" x2="30.2012" y2="17.5207" gradientUnits="userSpaceOnUse">
<stop stop-color="#8ACFF1"/>
<stop offset="1" stop-color="#8ACFF1" stop-opacity="0"/>
</linearGradient>
<linearGradient id="paint44_linear_637_22366" x1="23.8749" y1="20.2707" x2="23.8749" y2="19.4269" gradientUnits="userSpaceOnUse">
<stop stop-color="#6FB2DF"/>
<stop offset="1" stop-color="#6FB2DF" stop-opacity="0"/>
</linearGradient>
<radialGradient id="paint45_radial_637_22366" cx="0" cy="0" r="1" gradientUnits="userSpaceOnUse" gradientTransform="translate(14.2188 29.2396) rotate(-99.6052) scale(6.18039 3.32437)">
<stop stop-color="#5B2983"/>
<stop offset="1" stop-color="#443454"/>
</radialGradient>
<radialGradient id="paint46_radial_637_22366" cx="0" cy="0" r="1" gradientUnits="userSpaceOnUse" gradientTransform="translate(16.5938 25.066) rotate(180) scale(6.67188 6.56735)">
<stop offset="0.807963" stop-color="#8C8891" stop-opacity="0"/>
<stop offset="1" stop-color="#8C8891"/>
</radialGradient>
<radialGradient id="paint47_radial_637_22366" cx="0" cy="0" r="1" gradientUnits="userSpaceOnUse" gradientTransform="translate(14.3125 24.0834) rotate(90) scale(3.03125 1.02407)">
<stop stop-color="#60546B"/>
<stop offset="1" stop-color="#60546B" stop-opacity="0"/>
</radialGradient>
<radialGradient id="paint48_radial_637_22366" cx="0" cy="0" r="1" gradientUnits="userSpaceOnUse" gradientTransform="translate(10.8125 21.349) rotate(120.388) scale(2.93438 2.20319)">
<stop stop-color="#817C87"/>
<stop offset="1" stop-color="#817C87" stop-opacity="0"/>
</radialGradient>
<radialGradient id="paint49_radial_637_22366" cx="0" cy="0" r="1" gradientUnits="userSpaceOnUse" gradientTransform="translate(13.6407 24.9738) rotate(133.21) scale(0.707452 0.675361)">
<stop offset="0.00558659" stop-color="#4D4A4F"/>
<stop offset="1" stop-color="#2B2730"/>
</radialGradient>
<radialGradient id="paint50_radial_637_22366" cx="0" cy="0" r="1" gradientUnits="userSpaceOnUse" gradientTransform="translate(13.4922 25.9002) rotate(-115.337) scale(0.912805 1.01081)">
<stop stop-color="#402256"/>
<stop offset="1" stop-color="#402256" stop-opacity="0"/>
</radialGradient>
<radialGradient id="paint51_radial_637_22366" cx="0" cy="0" r="1" gradientUnits="userSpaceOnUse" gradientTransform="translate(12.2032 25.0752) scale(2.03906 1.69937)">
<stop offset="0.812261" stop-color="#291D25" stop-opacity="0"/>
<stop offset="1" stop-color="#291D25"/>
</radialGradient>
<radialGradient id="paint52_radial_637_22366" cx="0" cy="0" r="1" gradientUnits="userSpaceOnUse" gradientTransform="translate(14.4063 25.0752) rotate(180) scale(1.94531 1.51547)">
<stop offset="0.799197" stop-color="#5A575D" stop-opacity="0"/>
<stop offset="1" stop-color="#5A575D"/>
</radialGradient>
<linearGradient id="paint53_linear_637_22366" x1="11.9375" y1="17.2708" x2="16.3434" y2="19.6709" gradientUnits="userSpaceOnUse">
<stop stop-color="#766983"/>
<stop offset="1" stop-color="#766983" stop-opacity="0"/>
</linearGradient>
</defs>
</svg>
