<svg width="48" height="48" viewBox="0 0 48 48" fill="none" xmlns="http://www.w3.org/2000/svg">
<rect width="48" height="48" rx="24" fill="#F2F5FF"/>
<path d="M24.0637 36.5125H22.3437L22.3237 30.5125H20.8237L20.8437 36.5125H19.5537C18.8237 36.5125 18.2237 37.0325 18.0837 37.7225C18.0537 37.8725 18.1737 38.0125 18.3337 38.0125H20.5437H22.0437H25.2937C25.4537 38.0125 25.5737 37.8725 25.5437 37.7225C25.4037 37.0325 24.7937 36.5125 24.0637 36.5125Z" fill="url(#paint0_linear_637_22379)"/>
<path d="M24.0637 36.5125H22.3437L22.3237 30.5125H20.8237L20.8437 36.5125H19.5537C18.8237 36.5125 18.2237 37.0325 18.0837 37.7225C18.0537 37.8725 18.1737 38.0125 18.3337 38.0125H20.5437H22.0437H25.2937C25.4537 38.0125 25.5737 37.8725 25.5437 37.7225C25.4037 37.0325 24.7937 36.5125 24.0637 36.5125Z" fill="url(#paint1_linear_637_22379)"/>
<path d="M24.0637 36.5125H22.3437L22.3237 30.5125H20.8237L20.8437 36.5125H19.5537C18.8237 36.5125 18.2237 37.0325 18.0837 37.7225C18.0537 37.8725 18.1737 38.0125 18.3337 38.0125H20.5437H22.0437H25.2937C25.4537 38.0125 25.5737 37.8725 25.5437 37.7225C25.4037 37.0325 24.7937 36.5125 24.0637 36.5125Z" fill="url(#paint2_radial_637_22379)" fill-opacity="0.75"/>
<path d="M24.0637 36.5125H22.3437L22.3237 30.5125H20.8237L20.8437 36.5125H19.5537C18.8237 36.5125 18.2237 37.0325 18.0837 37.7225C18.0537 37.8725 18.1737 38.0125 18.3337 38.0125H20.5437H22.0437H25.2937C25.4537 38.0125 25.5737 37.8725 25.5437 37.7225C25.4037 37.0325 24.7937 36.5125 24.0637 36.5125Z" fill="url(#paint3_linear_637_22379)"/>
<path d="M24.0637 36.5125H22.3437L22.3237 30.5125H20.8237L20.8437 36.5125H19.5537C18.8237 36.5125 18.2237 37.0325 18.0837 37.7225C18.0537 37.8725 18.1737 38.0125 18.3337 38.0125H20.5437H22.0437H25.2937C25.4537 38.0125 25.5737 37.8725 25.5437 37.7225C25.4037 37.0325 24.7937 36.5125 24.0637 36.5125Z" fill="url(#paint4_linear_637_22379)"/>
<path d="M28.6137 36.5125H27.3437L27.3237 30.5125H25.8237L25.8437 36.5125H24.0437C23.3137 36.5125 22.7137 37.0325 22.5737 37.7225C22.5437 37.8725 22.6637 38.0125 22.8137 38.0125H25.5337H27.0337H29.8337C29.9937 38.0125 30.1137 37.8725 30.0837 37.7225C29.9537 37.0325 29.3437 36.5125 28.6137 36.5125Z" fill="url(#paint5_linear_637_22379)"/>
<path d="M28.6137 36.5125H27.3437L27.3237 30.5125H25.8237L25.8437 36.5125H24.0437C23.3137 36.5125 22.7137 37.0325 22.5737 37.7225C22.5437 37.8725 22.6637 38.0125 22.8137 38.0125H25.5337H27.0337H29.8337C29.9937 38.0125 30.1137 37.8725 30.0837 37.7225C29.9537 37.0325 29.3437 36.5125 28.6137 36.5125Z" fill="url(#paint6_linear_637_22379)"/>
<path d="M28.6137 36.5125H27.3437L27.3237 30.5125H25.8237L25.8437 36.5125H24.0437C23.3137 36.5125 22.7137 37.0325 22.5737 37.7225C22.5437 37.8725 22.6637 38.0125 22.8137 38.0125H25.5337H27.0337H29.8337C29.9937 38.0125 30.1137 37.8725 30.0837 37.7225C29.9537 37.0325 29.3437 36.5125 28.6137 36.5125Z" fill="url(#paint7_radial_637_22379)"/>
<path d="M28.6137 36.5125H27.3437L27.3237 30.5125H25.8237L25.8437 36.5125H24.0437C23.3137 36.5125 22.7137 37.0325 22.5737 37.7225C22.5437 37.8725 22.6637 38.0125 22.8137 38.0125H25.5337H27.0337H29.8337C29.9937 38.0125 30.1137 37.8725 30.0837 37.7225C29.9537 37.0325 29.3437 36.5125 28.6137 36.5125Z" fill="url(#paint8_linear_637_22379)"/>
<path d="M28.6137 36.5125H27.3437L27.3237 30.5125H25.8237L25.8437 36.5125H24.0437C23.3137 36.5125 22.7137 37.0325 22.5737 37.7225C22.5437 37.8725 22.6637 38.0125 22.8137 38.0125H25.5337H27.0337H29.8337C29.9937 38.0125 30.1137 37.8725 30.0837 37.7225C29.9537 37.0325 29.3437 36.5125 28.6137 36.5125Z" fill="url(#paint9_linear_637_22379)"/>
<path d="M18.5437 19.0125C19.1937 20.0525 19.5737 21.2925 19.5637 22.6125C19.5237 26.2025 16.5937 29.1225 13.0137 29.1625C12.2337 29.1725 11.4837 29.0425 10.7837 28.8025C10.0837 28.5625 9.87374 27.6825 10.3937 27.1525L18.5437 19.0125Z" fill="url(#paint10_radial_637_22379)"/>
<path d="M18.5437 19.0125C19.1937 20.0525 19.5737 21.2925 19.5637 22.6125C19.5237 26.2025 16.5937 29.1225 13.0137 29.1625C12.2337 29.1725 11.4837 29.0425 10.7837 28.8025C10.0837 28.5625 9.87374 27.6825 10.3937 27.1525L18.5437 19.0125Z" fill="url(#paint11_linear_637_22379)"/>
<path d="M18.5437 19.0125C19.1937 20.0525 19.5737 21.2925 19.5637 22.6125C19.5237 26.2025 16.5937 29.1225 13.0137 29.1625C12.2337 29.1725 11.4837 29.0425 10.7837 28.8025C10.0837 28.5625 9.87374 27.6825 10.3937 27.1525L18.5437 19.0125Z" fill="url(#paint12_radial_637_22379)"/>
<path d="M18.5437 19.0125C19.1937 20.0525 19.5737 21.2925 19.5637 22.6125C19.5237 26.2025 16.5937 29.1225 13.0137 29.1625C12.2337 29.1725 11.4837 29.0425 10.7837 28.8025C10.0837 28.5625 9.87374 27.6825 10.3937 27.1525L18.5437 19.0125Z" fill="url(#paint13_radial_637_22379)"/>
<path d="M29.6337 19.0125C28.9737 20.0525 28.6037 21.2925 28.6137 22.6225C28.6537 26.2125 31.5837 29.1325 35.1637 29.1725C35.9437 29.1825 36.6937 29.0525 37.3937 28.8125C38.0937 28.5725 38.3037 27.6925 37.7837 27.1625L29.6337 19.0125Z" fill="url(#paint14_linear_637_22379)"/>
<path d="M29.6337 19.0125C28.9737 20.0525 28.6037 21.2925 28.6137 22.6225C28.6537 26.2125 31.5837 29.1325 35.1637 29.1725C35.9437 29.1825 36.6937 29.0525 37.3937 28.8125C38.0937 28.5725 38.3037 27.6925 37.7837 27.1625L29.6337 19.0125Z" fill="url(#paint15_radial_637_22379)"/>
<path d="M29.6337 19.0125C28.9737 20.0525 28.6037 21.2925 28.6137 22.6225C28.6537 26.2125 31.5837 29.1325 35.1637 29.1725C35.9437 29.1825 36.6937 29.0525 37.3937 28.8125C38.0937 28.5725 38.3037 27.6925 37.7837 27.1625L29.6337 19.0125Z" fill="url(#paint16_radial_637_22379)"/>
<path d="M29.6337 19.0125C28.9737 20.0525 28.6037 21.2925 28.6137 22.6225C28.6537 26.2125 31.5837 29.1325 35.1637 29.1725C35.9437 29.1825 36.6937 29.0525 37.3937 28.8125C38.0937 28.5725 38.3037 27.6925 37.7837 27.1625L29.6337 19.0125Z" fill="url(#paint17_linear_637_22379)"/>
<path d="M29.6337 19.0125C28.9737 20.0525 28.6037 21.2925 28.6137 22.6225C28.6537 26.2125 31.5837 29.1325 35.1637 29.1725C35.9437 29.1825 36.6937 29.0525 37.3937 28.8125C38.0937 28.5725 38.3037 27.6925 37.7837 27.1625L29.6337 19.0125Z" fill="url(#paint18_radial_637_22379)"/>
<path d="M31.2837 20.6225C31.1537 20.4425 31.0837 20.2325 31.0837 20.0125C31.0837 16.3625 28.2937 13.3725 24.7337 13.0425C24.5237 13.0225 24.3037 13.0125 24.0837 13.0125C23.8637 13.0125 23.6437 13.0225 23.4337 13.0425C19.8737 13.3725 17.0837 16.3725 17.0837 20.0125C17.0837 20.2325 17.0137 20.4425 16.8837 20.6225C15.7537 22.1225 15.0837 23.9925 15.0837 26.0125C15.0837 30.9825 19.1137 35.0125 24.0837 35.0125C29.0537 35.0125 33.0837 30.9825 33.0837 26.0125C33.0837 23.9925 32.4137 22.1225 31.2837 20.6225Z" fill="url(#paint19_linear_637_22379)"/>
<path d="M31.2837 20.6225C31.1537 20.4425 31.0837 20.2325 31.0837 20.0125C31.0837 16.3625 28.2937 13.3725 24.7337 13.0425C24.5237 13.0225 24.3037 13.0125 24.0837 13.0125C23.8637 13.0125 23.6437 13.0225 23.4337 13.0425C19.8737 13.3725 17.0837 16.3725 17.0837 20.0125C17.0837 20.2325 17.0137 20.4425 16.8837 20.6225C15.7537 22.1225 15.0837 23.9925 15.0837 26.0125C15.0837 30.9825 19.1137 35.0125 24.0837 35.0125C29.0537 35.0125 33.0837 30.9825 33.0837 26.0125C33.0837 23.9925 32.4137 22.1225 31.2837 20.6225Z" fill="url(#paint20_radial_637_22379)"/>
<path d="M31.2837 20.6225C31.1537 20.4425 31.0837 20.2325 31.0837 20.0125C31.0837 16.3625 28.2937 13.3725 24.7337 13.0425C24.5237 13.0225 24.3037 13.0125 24.0837 13.0125C23.8637 13.0125 23.6437 13.0225 23.4337 13.0425C19.8737 13.3725 17.0837 16.3725 17.0837 20.0125C17.0837 20.2325 17.0137 20.4425 16.8837 20.6225C15.7537 22.1225 15.0837 23.9925 15.0837 26.0125C15.0837 30.9825 19.1137 35.0125 24.0837 35.0125C29.0537 35.0125 33.0837 30.9825 33.0837 26.0125C33.0837 23.9925 32.4137 22.1225 31.2837 20.6225Z" fill="url(#paint21_radial_637_22379)"/>
<path d="M31.2837 20.6225C31.1537 20.4425 31.0837 20.2325 31.0837 20.0125C31.0837 16.3625 28.2937 13.3725 24.7337 13.0425C24.5237 13.0225 24.3037 13.0125 24.0837 13.0125C23.8637 13.0125 23.6437 13.0225 23.4337 13.0425C19.8737 13.3725 17.0837 16.3725 17.0837 20.0125C17.0837 20.2325 17.0137 20.4425 16.8837 20.6225C15.7537 22.1225 15.0837 23.9925 15.0837 26.0125C15.0837 30.9825 19.1137 35.0125 24.0837 35.0125C29.0537 35.0125 33.0837 30.9825 33.0837 26.0125C33.0837 23.9925 32.4137 22.1225 31.2837 20.6225Z" fill="url(#paint22_radial_637_22379)"/>
<path d="M31.2837 20.6225C31.1537 20.4425 31.0837 20.2325 31.0837 20.0125C31.0837 16.3625 28.2937 13.3725 24.7337 13.0425C24.5237 13.0225 24.3037 13.0125 24.0837 13.0125C23.8637 13.0125 23.6437 13.0225 23.4337 13.0425C19.8737 13.3725 17.0837 16.3725 17.0837 20.0125C17.0837 20.2325 17.0137 20.4425 16.8837 20.6225C15.7537 22.1225 15.0837 23.9925 15.0837 26.0125C15.0837 30.9825 19.1137 35.0125 24.0837 35.0125C29.0537 35.0125 33.0837 30.9825 33.0837 26.0125C33.0837 23.9925 32.4137 22.1225 31.2837 20.6225Z" fill="url(#paint23_radial_637_22379)"/>
<path d="M31.2837 20.6225C31.1537 20.4425 31.0837 20.2325 31.0837 20.0125C31.0837 16.3625 28.2937 13.3725 24.7337 13.0425C24.5237 13.0225 24.3037 13.0125 24.0837 13.0125C23.8637 13.0125 23.6437 13.0225 23.4337 13.0425C19.8737 13.3725 17.0837 16.3725 17.0837 20.0125C17.0837 20.2325 17.0137 20.4425 16.8837 20.6225C15.7537 22.1225 15.0837 23.9925 15.0837 26.0125C15.0837 30.9825 19.1137 35.0125 24.0837 35.0125C29.0537 35.0125 33.0837 30.9825 33.0837 26.0125C33.0837 23.9925 32.4137 22.1225 31.2837 20.6225Z" fill="url(#paint24_radial_637_22379)"/>
<path d="M31.2837 20.6225C31.1537 20.4425 31.0837 20.2325 31.0837 20.0125C31.0837 16.3625 28.2937 13.3725 24.7337 13.0425C24.5237 13.0225 24.3037 13.0125 24.0837 13.0125C23.8637 13.0125 23.6437 13.0225 23.4337 13.0425C19.8737 13.3725 17.0837 16.3725 17.0837 20.0125C17.0837 20.2325 17.0137 20.4425 16.8837 20.6225C15.7537 22.1225 15.0837 23.9925 15.0837 26.0125C15.0837 30.9825 19.1137 35.0125 24.0837 35.0125C29.0537 35.0125 33.0837 30.9825 33.0837 26.0125C33.0837 23.9925 32.4137 22.1225 31.2837 20.6225Z" fill="url(#paint25_radial_637_22379)"/>
<g filter="url(#filter0_f_637_22379)">
<ellipse cx="23.1727" cy="20.6605" rx="1.44721" ry="2.88322" transform="rotate(71.8004 23.1727 20.6605)" fill="url(#paint26_linear_637_22379)" fill-opacity="0.5"/>
</g>
<g filter="url(#filter1_f_637_22379)">
<ellipse cx="26.4261" cy="17.7737" rx="3.10136" ry="4.38293" transform="rotate(-39.6409 26.4261 17.7737)" fill="url(#paint27_linear_637_22379)"/>
</g>
<path d="M27.8237 19.0125C28.0999 19.0125 28.3237 18.7886 28.3237 18.5125C28.3237 18.2363 28.0999 18.0125 27.8237 18.0125C27.5476 18.0125 27.3237 18.2363 27.3237 18.5125C27.3237 18.7886 27.5476 19.0125 27.8237 19.0125Z" fill="url(#paint28_radial_637_22379)"/>
<path d="M27.8237 19.0125C28.0999 19.0125 28.3237 18.7886 28.3237 18.5125C28.3237 18.2363 28.0999 18.0125 27.8237 18.0125C27.5476 18.0125 27.3237 18.2363 27.3237 18.5125C27.3237 18.7886 27.5476 19.0125 27.8237 19.0125Z" fill="url(#paint29_radial_637_22379)"/>
<path d="M27.8237 19.0125C28.0999 19.0125 28.3237 18.7886 28.3237 18.5125C28.3237 18.2363 28.0999 18.0125 27.8237 18.0125C27.5476 18.0125 27.3237 18.2363 27.3237 18.5125C27.3237 18.7886 27.5476 19.0125 27.8237 19.0125Z" fill="url(#paint30_linear_637_22379)"/>
<path d="M20.3337 19.0125C20.6099 19.0125 20.8337 18.7886 20.8337 18.5125C20.8337 18.2363 20.6099 18.0125 20.3337 18.0125C20.0576 18.0125 19.8337 18.2363 19.8337 18.5125C19.8337 18.7886 20.0576 19.0125 20.3337 19.0125Z" fill="url(#paint31_radial_637_22379)"/>
<path d="M20.3337 19.0125C20.6099 19.0125 20.8337 18.7886 20.8337 18.5125C20.8337 18.2363 20.6099 18.0125 20.3337 18.0125C20.0576 18.0125 19.8337 18.2363 19.8337 18.5125C19.8337 18.7886 20.0576 19.0125 20.3337 19.0125Z" fill="url(#paint32_radial_637_22379)"/>
<path d="M20.3337 19.0125C20.6099 19.0125 20.8337 18.7886 20.8337 18.5125C20.8337 18.2363 20.6099 18.0125 20.3337 18.0125C20.0576 18.0125 19.8337 18.2363 19.8337 18.5125C19.8337 18.7886 20.0576 19.0125 20.3337 19.0125Z" fill="url(#paint33_linear_637_22379)"/>
<path d="M24.0837 18.0125C22.9837 18.0125 22.0837 18.9125 22.0837 20.0125H26.0837C26.0837 18.9125 25.1837 18.0125 24.0837 18.0125Z" fill="#ED6C32"/>
<path d="M24.0837 18.0125C22.9837 18.0125 22.0837 18.9125 22.0837 20.0125H26.0837C26.0837 18.9125 25.1837 18.0125 24.0837 18.0125Z" fill="url(#paint34_radial_637_22379)"/>
<path d="M24.0837 18.0125C22.9837 18.0125 22.0837 18.9125 22.0837 20.0125H26.0837C26.0837 18.9125 25.1837 18.0125 24.0837 18.0125Z" fill="url(#paint35_linear_637_22379)"/>
<path d="M24.0837 18.0125C22.9837 18.0125 22.0837 18.9125 22.0837 20.0125H26.0837C26.0837 18.9125 25.1837 18.0125 24.0837 18.0125Z" fill="url(#paint36_radial_637_22379)"/>
<g filter="url(#filter2_f_637_22379)">
<path d="M30.1859 21.4832C28.6505 22.8238 26.0583 23.2404 24.4995 23.3128C24.2237 23.3256 23.998 23.5502 24.0175 23.8257C24.3109 27.9559 28.2286 29.7752 31.4739 27.9919C31.5912 27.9274 31.6749 27.8136 31.7042 27.683C32.3255 24.9131 31.6418 22.6905 30.9316 21.5418C30.7713 21.2827 30.4155 21.2829 30.1859 21.4832Z" fill="url(#paint37_radial_637_22379)"/>
</g>
<defs>
<filter id="filter0_f_637_22379" x="19.3962" y="18.0168" width="7.55298" height="5.28723" filterUnits="userSpaceOnUse" color-interpolation-filters="sRGB">
<feFlood flood-opacity="0" result="BackgroundImageFix"/>
<feBlend mode="normal" in="SourceGraphic" in2="BackgroundImageFix" result="shape"/>
<feGaussianBlur stdDeviation="0.5" result="effect1_foregroundBlur_637_22379"/>
</filter>
<filter id="filter1_f_637_22379" x="21.2488" y="12.3608" width="10.3547" height="10.8258" filterUnits="userSpaceOnUse" color-interpolation-filters="sRGB">
<feFlood flood-opacity="0" result="BackgroundImageFix"/>
<feBlend mode="normal" in="SourceGraphic" in2="BackgroundImageFix" result="shape"/>
<feGaussianBlur stdDeviation="0.75" result="effect1_foregroundBlur_637_22379"/>
</filter>
<filter id="filter2_f_637_22379" x="22.5164" y="19.8395" width="10.9309" height="10.3354" filterUnits="userSpaceOnUse" color-interpolation-filters="sRGB">
<feFlood flood-opacity="0" result="BackgroundImageFix"/>
<feBlend mode="normal" in="SourceGraphic" in2="BackgroundImageFix" result="shape"/>
<feGaussianBlur stdDeviation="0.75" result="effect1_foregroundBlur_637_22379"/>
</filter>
<linearGradient id="paint0_linear_637_22379" x1="21.1403" y1="37.3045" x2="22.9663" y2="30.8687" gradientUnits="userSpaceOnUse">
<stop stop-color="#E46D33"/>
<stop offset="1" stop-color="#DB592A"/>
</linearGradient>
<linearGradient id="paint1_linear_637_22379" x1="25.2656" y1="37.1805" x2="16.3279" y2="37.1805" gradientUnits="userSpaceOnUse">
<stop stop-color="#F67F41"/>
<stop offset="1" stop-color="#F67F41" stop-opacity="0"/>
</linearGradient>
<radialGradient id="paint2_radial_637_22379" cx="0" cy="0" r="1" gradientUnits="userSpaceOnUse" gradientTransform="translate(23.9062 37.45) rotate(180) scale(4.75 0.453124)">
<stop stop-color="#FFA56B"/>
<stop offset="1" stop-color="#FFA56B" stop-opacity="0"/>
</radialGradient>
<linearGradient id="paint3_linear_637_22379" x1="21.8137" y1="38.4987" x2="21.8137" y2="37.1991" gradientUnits="userSpaceOnUse">
<stop stop-color="#F15CC7"/>
<stop offset="0.828473" stop-color="#F15CC7" stop-opacity="0"/>
</linearGradient>
<linearGradient id="paint4_linear_637_22379" x1="21.8137" y1="34.0125" x2="21.8137" y2="35.6687" gradientUnits="userSpaceOnUse">
<stop stop-color="#EA582F"/>
<stop offset="1" stop-color="#EA582F" stop-opacity="0"/>
</linearGradient>
<linearGradient id="paint5_linear_637_22379" x1="25.6507" y1="37.3045" x2="27.4665" y2="30.8623" gradientUnits="userSpaceOnUse">
<stop stop-color="#E46D33"/>
<stop offset="1" stop-color="#DB592A"/>
</linearGradient>
<linearGradient id="paint6_linear_637_22379" x1="29.8037" y1="37.1805" x2="20.8062" y2="37.1805" gradientUnits="userSpaceOnUse">
<stop stop-color="#F67F41"/>
<stop offset="1" stop-color="#F67F41" stop-opacity="0"/>
</linearGradient>
<radialGradient id="paint7_radial_637_22379" cx="0" cy="0" r="1" gradientUnits="userSpaceOnUse" gradientTransform="translate(29.5942 38.347) rotate(-137.501) scale(2.06813 1.67767)">
<stop stop-color="#FFA56B"/>
<stop offset="1" stop-color="#FFA56B" stop-opacity="0"/>
</radialGradient>
<linearGradient id="paint8_linear_637_22379" x1="26.3287" y1="38.4987" x2="26.3287" y2="37.1991" gradientUnits="userSpaceOnUse">
<stop stop-color="#F15CC7"/>
<stop offset="0.828473" stop-color="#F15CC7" stop-opacity="0"/>
</linearGradient>
<linearGradient id="paint9_linear_637_22379" x1="26.3287" y1="34.0125" x2="26.3287" y2="35.6687" gradientUnits="userSpaceOnUse">
<stop stop-color="#EA582F"/>
<stop offset="1" stop-color="#EA582F" stop-opacity="0"/>
</linearGradient>
<radialGradient id="paint10_radial_637_22379" cx="0" cy="0" r="1" gradientUnits="userSpaceOnUse" gradientTransform="translate(10.104 29.163) rotate(-34.6352) scale(12.1414 5.89499)">
<stop stop-color="#E8B744"/>
<stop offset="1" stop-color="#B96D1E"/>
</radialGradient>
<linearGradient id="paint11_linear_637_22379" x1="22.0938" y1="24.6375" x2="14.1585" y2="29.7543" gradientUnits="userSpaceOnUse">
<stop stop-color="#CD7C10"/>
<stop offset="1" stop-color="#CD7C10" stop-opacity="0"/>
</linearGradient>
<radialGradient id="paint12_radial_637_22379" cx="0" cy="0" r="1" gradientUnits="userSpaceOnUse" gradientTransform="translate(16.9062 28.6375) rotate(-157.652) scale(6.0818 5.65912)">
<stop stop-color="#E7756B"/>
<stop offset="1" stop-color="#EA8980" stop-opacity="0"/>
<stop offset="1" stop-color="#E7756B" stop-opacity="0"/>
</radialGradient>
<radialGradient id="paint13_radial_637_22379" cx="0" cy="0" r="1" gradientUnits="userSpaceOnUse" gradientTransform="translate(6.78125 29.163) rotate(-34.2507) scale(7.48564 5.45763)">
<stop stop-color="#F9C958"/>
<stop offset="0.805148" stop-color="#F9C958" stop-opacity="0"/>
</radialGradient>
<linearGradient id="paint14_linear_637_22379" x1="39.6563" y1="27.8875" x2="28.3009" y2="26.2149" gradientUnits="userSpaceOnUse">
<stop stop-color="#F8EC1D"/>
<stop offset="1" stop-color="#F5891F"/>
</linearGradient>
<radialGradient id="paint15_radial_637_22379" cx="0" cy="0" r="1" gradientUnits="userSpaceOnUse" gradientTransform="translate(43.8437 33.325) rotate(-134.859) scale(17.9871 1.33238)">
<stop stop-color="#F8EC1D"/>
<stop offset="1" stop-color="#F8EC1D" stop-opacity="0"/>
</radialGradient>
<radialGradient id="paint16_radial_637_22379" cx="0" cy="0" r="1" gradientUnits="userSpaceOnUse" gradientTransform="translate(39 27.4187) rotate(-154.573) scale(4.22141 2.12006)">
<stop stop-color="#F8EC1D"/>
<stop offset="0.512609" stop-color="#F8EC1D" stop-opacity="0"/>
</radialGradient>
<linearGradient id="paint17_linear_637_22379" x1="29.7812" y1="27.325" x2="34.677" y2="26.2217" gradientUnits="userSpaceOnUse">
<stop stop-color="#D39344"/>
<stop offset="0.843902" stop-color="#DF9D4C" stop-opacity="0"/>
</linearGradient>
<radialGradient id="paint18_radial_637_22379" cx="0" cy="0" r="1" gradientUnits="userSpaceOnUse" gradientTransform="translate(31.875 29.0125) rotate(-26.7675) scale(3.95507 3.68235)">
<stop stop-color="#E7756B"/>
<stop offset="1" stop-color="#EA8980" stop-opacity="0"/>
<stop offset="1" stop-color="#E7756B" stop-opacity="0"/>
</radialGradient>
<linearGradient id="paint19_linear_637_22379" x1="29.8437" y1="12.2625" x2="24.0798" y2="38.772" gradientUnits="userSpaceOnUse">
<stop stop-color="#F8EC1D"/>
<stop offset="1" stop-color="#F5891F"/>
</linearGradient>
<radialGradient id="paint20_radial_637_22379" cx="0" cy="0" r="1" gradientUnits="userSpaceOnUse" gradientTransform="translate(11.2187 33.1375) rotate(-23.9625) scale(15.3888 13.5552)">
<stop stop-color="#F5891F"/>
<stop offset="1" stop-color="#F5891F" stop-opacity="0"/>
</radialGradient>
<radialGradient id="paint21_radial_637_22379" cx="0" cy="0" r="1" gradientUnits="userSpaceOnUse" gradientTransform="translate(8.1875 17.875) rotate(17.2863) scale(15.775 13.8953)">
<stop stop-color="#F5891F"/>
<stop offset="1" stop-color="#F5891F" stop-opacity="0"/>
</radialGradient>
<radialGradient id="paint22_radial_637_22379" cx="0" cy="0" r="1" gradientUnits="userSpaceOnUse" gradientTransform="translate(24.0837 16.7788) rotate(90) scale(18.9837 12.9275)">
<stop offset="0.907816" stop-color="#E7756B" stop-opacity="0"/>
<stop offset="1" stop-color="#E7756B"/>
</radialGradient>
<radialGradient id="paint23_radial_637_22379" cx="0" cy="0" r="1" gradientUnits="userSpaceOnUse" gradientTransform="translate(24.0837 36.7) rotate(-90) scale(10.1875 9)">
<stop stop-color="#E7756B"/>
<stop offset="1" stop-color="#EA8980" stop-opacity="0"/>
<stop offset="1" stop-color="#E7756B" stop-opacity="0"/>
</radialGradient>
<radialGradient id="paint24_radial_637_22379" cx="0" cy="0" r="1" gradientUnits="userSpaceOnUse" gradientTransform="translate(24.0837 22.825) rotate(90) scale(3.75 5.81447)">
<stop stop-color="#FFB14F"/>
<stop offset="1" stop-color="#FFB14F" stop-opacity="0"/>
</radialGradient>
<radialGradient id="paint25_radial_637_22379" cx="0" cy="0" r="1" gradientUnits="userSpaceOnUse" gradientTransform="translate(33.4859 36.8397) rotate(-133.774) scale(30.6935 26.4083)">
<stop offset="0.716325" stop-color="#BBA553" stop-opacity="0"/>
<stop offset="1" stop-color="#BBA553"/>
</radialGradient>
<linearGradient id="paint26_linear_637_22379" x1="21.8107" y1="18.9235" x2="22.0046" y2="22.5682" gradientUnits="userSpaceOnUse">
<stop stop-color="#E5951B"/>
<stop offset="1" stop-color="#E5951B" stop-opacity="0"/>
</linearGradient>
<linearGradient id="paint27_linear_637_22379" x1="30.3629" y1="17.6931" x2="23.7009" y2="17.0897" gradientUnits="userSpaceOnUse">
<stop stop-color="#FFF558"/>
<stop offset="1" stop-color="#FFF558" stop-opacity="0"/>
</linearGradient>
<radialGradient id="paint28_radial_637_22379" cx="0" cy="0" r="1" gradientUnits="userSpaceOnUse" gradientTransform="translate(27.9722 18.3516) rotate(125.838) scale(0.693863 0.618606)">
<stop offset="0.00558659" stop-color="#433437"/>
<stop offset="1" stop-color="#3B2838"/>
</radialGradient>
<radialGradient id="paint29_radial_637_22379" cx="0" cy="0" r="1" gradientUnits="userSpaceOnUse" gradientTransform="translate(28.0106 18.3875) rotate(137.643) scale(0.35946 0.316238)">
<stop stop-color="#5C5051"/>
<stop offset="1" stop-color="#5C5051" stop-opacity="0"/>
</radialGradient>
<linearGradient id="paint30_linear_637_22379" x1="27.7254" y1="18.1197" x2="27.3817" y2="17.901" gradientUnits="userSpaceOnUse">
<stop stop-color="#5C5051" stop-opacity="0"/>
<stop offset="1" stop-color="#5C5051"/>
</linearGradient>
<radialGradient id="paint31_radial_637_22379" cx="0" cy="0" r="1" gradientUnits="userSpaceOnUse" gradientTransform="translate(20.4822 18.3516) rotate(125.838) scale(0.693863 0.618606)">
<stop offset="0.00558659" stop-color="#433437"/>
<stop offset="1" stop-color="#3B2838"/>
</radialGradient>
<radialGradient id="paint32_radial_637_22379" cx="0" cy="0" r="1" gradientUnits="userSpaceOnUse" gradientTransform="translate(20.5206 18.3875) rotate(137.643) scale(0.35946 0.316238)">
<stop stop-color="#5C5051"/>
<stop offset="1" stop-color="#5C5051" stop-opacity="0"/>
</radialGradient>
<linearGradient id="paint33_linear_637_22379" x1="20.2354" y1="18.1197" x2="19.8917" y2="17.901" gradientUnits="userSpaceOnUse">
<stop stop-color="#5C5051" stop-opacity="0"/>
<stop offset="1" stop-color="#5C5051"/>
</linearGradient>
<radialGradient id="paint34_radial_637_22379" cx="0" cy="0" r="1" gradientUnits="userSpaceOnUse" gradientTransform="translate(24.9835 19.8536) rotate(-90) scale(1.20443 1.75325)">
<stop stop-color="#FF8E64"/>
<stop offset="1" stop-color="#FF8E64" stop-opacity="0"/>
</radialGradient>
<linearGradient id="paint35_linear_637_22379" x1="24.0837" y1="20.0977" x2="24.0837" y2="19.6583" gradientUnits="userSpaceOnUse">
<stop stop-color="#C1411B"/>
<stop offset="0.787037" stop-color="#EA6038" stop-opacity="0"/>
</linearGradient>
<radialGradient id="paint36_radial_637_22379" cx="0" cy="0" r="1" gradientUnits="userSpaceOnUse" gradientTransform="translate(22.6134 20.5372) rotate(-80.3324) scale(1.5467 0.327222)">
<stop offset="0.166103" stop-color="#FF8E64"/>
<stop offset="1" stop-color="#FF8E64" stop-opacity="0"/>
</radialGradient>
<radialGradient id="paint37_radial_637_22379" cx="0" cy="0" r="1" gradientUnits="userSpaceOnUse" gradientTransform="translate(27.9736 19.8875) rotate(71.6865) scale(11.521 7.02339)">
<stop stop-color="#FFDF58"/>
<stop offset="0.97205" stop-color="#FFDF58" stop-opacity="0"/>
</radialGradient>
</defs>
</svg>
