<svg width="48" height="48" viewBox="0 0 48 48" fill="none" xmlns="http://www.w3.org/2000/svg">
<rect width="48" height="48" rx="24" fill="#F2F5FF"/>
<path d="M19.7584 14.757C21.3133 12.7119 28.41 12.0939 25.36 15.0539C23.55 16.8139 22.4134 18.7352 20.0934 19.7352C16.1872 21.2195 15.0045 18.1165 15.4732 17.6476C15.9419 17.1788 16.7823 18.1424 17.8873 17.6789C18.6662 17.3521 18.72 16.1228 19.7584 14.757Z" fill="url(#paint0_linear_637_22382)"/>
<path d="M19.7584 14.757C21.3133 12.7119 28.41 12.0939 25.36 15.0539C23.55 16.8139 22.4134 18.7352 20.0934 19.7352C16.1872 21.2195 15.0045 18.1165 15.4732 17.6476C15.9419 17.1788 16.7823 18.1424 17.8873 17.6789C18.6662 17.3521 18.72 16.1228 19.7584 14.757Z" fill="url(#paint1_linear_637_22382)"/>
<path d="M19.7584 14.757C21.3133 12.7119 28.41 12.0939 25.36 15.0539C23.55 16.8139 22.4134 18.7352 20.0934 19.7352C16.1872 21.2195 15.0045 18.1165 15.4732 17.6476C15.9419 17.1788 16.7823 18.1424 17.8873 17.6789C18.6662 17.3521 18.72 16.1228 19.7584 14.757Z" fill="url(#paint2_radial_637_22382)"/>
<g filter="url(#filter0_f_637_22382)">
<path d="M17.3273 18.0499C17.4187 18.3067 17.6359 18.5226 18.1882 18.5226C18.8215 18.5226 19.2008 18.0272 19.5476 17.0773C19.8944 16.1274 20.6974 14.9711 22.0997 14.7148L21.9768 13.7026C21.0657 14.0043 20.2507 14.45 19.8339 14.9982C19.3692 15.6094 19.1017 16.1932 18.8782 16.681C18.6021 17.2835 18.3931 17.7396 17.9628 17.9201C17.7399 18.0136 17.5277 18.0491 17.3273 18.0499Z" fill="url(#paint3_linear_637_22382)"/>
</g>
<path d="M23.6726 28.7352C20.3015 32.2926 19.4382 36.3814 19.2529 37.5492C19.2252 37.7243 19.3617 37.8759 19.539 37.8759H34.5381C36.6781 37.8759 38.3581 35.7938 38.1581 33.6538C37.5581 27.3138 35.3581 15.6238 27.2481 15.6238C23.7581 15.6238 25.9926 26.2952 23.6726 28.7352Z" fill="url(#paint4_radial_637_22382)"/>
<path d="M23.6726 28.7352C20.3015 32.2926 19.4382 36.3814 19.2529 37.5492C19.2252 37.7243 19.3617 37.8759 19.539 37.8759H34.5381C36.6781 37.8759 38.3581 35.7938 38.1581 33.6538C37.5581 27.3138 35.3581 15.6238 27.2481 15.6238C23.7581 15.6238 25.9926 26.2952 23.6726 28.7352Z" fill="url(#paint5_radial_637_22382)"/>
<path d="M23.6726 28.7352C20.3015 32.2926 19.4382 36.3814 19.2529 37.5492C19.2252 37.7243 19.3617 37.8759 19.539 37.8759H34.5381C36.6781 37.8759 38.3581 35.7938 38.1581 33.6538C37.5581 27.3138 35.3581 15.6238 27.2481 15.6238C23.7581 15.6238 25.9926 26.2952 23.6726 28.7352Z" fill="url(#paint6_radial_637_22382)"/>
<path d="M23.6726 28.7352C20.3015 32.2926 19.4382 36.3814 19.2529 37.5492C19.2252 37.7243 19.3617 37.8759 19.539 37.8759H34.5381C36.6781 37.8759 38.3581 35.7938 38.1581 33.6538C37.5581 27.3138 35.3581 15.6238 27.2481 15.6238C23.7581 15.6238 25.9926 26.2952 23.6726 28.7352Z" fill="url(#paint7_radial_637_22382)"/>
<path d="M23.6726 28.7352C20.3015 32.2926 19.4382 36.3814 19.2529 37.5492C19.2252 37.7243 19.3617 37.8759 19.539 37.8759H34.5381C36.6781 37.8759 38.3581 35.7938 38.1581 33.6538C37.5581 27.3138 35.3581 15.6238 27.2481 15.6238C23.7581 15.6238 25.9926 26.2952 23.6726 28.7352Z" fill="url(#paint8_radial_637_22382)"/>
<path d="M38.2664 24.8602C38.2664 21.204 35.9434 20.6518 35.0476 20.6727C35.2455 21.4644 35.3289 23.9727 34.0789 27.6727C32.8289 31.3727 33.8601 36.1415 34.5476 37.8915C37.2195 37.8915 38.2664 37.5477 38.2664 35.6102V24.8602Z" fill="url(#paint9_linear_637_22382)"/>
<path d="M38.2664 24.8602C38.2664 21.204 35.9434 20.6518 35.0476 20.6727C35.2455 21.4644 35.3289 23.9727 34.0789 27.6727C32.8289 31.3727 33.8601 36.1415 34.5476 37.8915C37.2195 37.8915 38.2664 37.5477 38.2664 35.6102V24.8602Z" fill="url(#paint10_radial_637_22382)"/>
<path d="M38.2664 24.8602C38.2664 21.204 35.9434 20.6518 35.0476 20.6727C35.2455 21.4644 35.3289 23.9727 34.0789 27.6727C32.8289 31.3727 33.8601 36.1415 34.5476 37.8915C37.2195 37.8915 38.2664 37.5477 38.2664 35.6102V24.8602Z" fill="url(#paint11_linear_637_22382)"/>
<path d="M38.2664 24.8602C38.2664 21.204 35.9434 20.6518 35.0476 20.6727C35.2455 21.4644 35.3289 23.9727 34.0789 27.6727C32.8289 31.3727 33.8601 36.1415 34.5476 37.8915C37.2195 37.8915 38.2664 37.5477 38.2664 35.6102V24.8602Z" fill="url(#paint12_linear_637_22382)"/>
<path d="M38.2664 24.8602C38.2664 21.204 35.9434 20.6518 35.0476 20.6727C35.2455 21.4644 35.3289 23.9727 34.0789 27.6727C32.8289 31.3727 33.8601 36.1415 34.5476 37.8915C37.2195 37.8915 38.2664 37.5477 38.2664 35.6102V24.8602Z" fill="url(#paint13_radial_637_22382)"/>
<path d="M38.2664 24.8602C38.2664 21.204 35.9434 20.6518 35.0476 20.6727C35.2455 21.4644 35.3289 23.9727 34.0789 27.6727C32.8289 31.3727 33.8601 36.1415 34.5476 37.8915C37.2195 37.8915 38.2664 37.5477 38.2664 35.6102V24.8602Z" fill="url(#paint14_radial_637_22382)"/>
<path d="M38.2664 24.8602C38.2664 21.204 35.9434 20.6518 35.0476 20.6727C35.2455 21.4644 35.3289 23.9727 34.0789 27.6727C32.8289 31.3727 33.8601 36.1415 34.5476 37.8915C37.2195 37.8915 38.2664 37.5477 38.2664 35.6102V24.8602Z" fill="url(#paint15_radial_637_22382)"/>
<g filter="url(#filter1_f_637_22382)">
<path d="M35.5627 22.8912C35.666 23.3233 36.0563 24.1722 35.2351 27.2726C34.4695 30.1633 33.907 32.7414 35.032 37.1164" stroke="#786D6D" stroke-width="0.25" stroke-linecap="round"/>
</g>
<path d="M35.7351 25.1727C36.7976 21.1727 33.8601 17.0165 31.5476 17.0165C32.3601 18.8706 32.8601 23.2352 31.5476 25.3602C30.0519 27.7818 29.8132 34.3915 30.5632 37.8915H35.3132C33.6132 33.0665 34.6726 29.1727 35.7351 25.1727Z" fill="url(#paint16_linear_637_22382)"/>
<path d="M35.7351 25.1727C36.7976 21.1727 33.8601 17.0165 31.5476 17.0165C32.3601 18.8706 32.8601 23.2352 31.5476 25.3602C30.0519 27.7818 29.8132 34.3915 30.5632 37.8915H35.3132C33.6132 33.0665 34.6726 29.1727 35.7351 25.1727Z" fill="url(#paint17_linear_637_22382)"/>
<path d="M35.7351 25.1727C36.7976 21.1727 33.8601 17.0165 31.5476 17.0165C32.3601 18.8706 32.8601 23.2352 31.5476 25.3602C30.0519 27.7818 29.8132 34.3915 30.5632 37.8915H35.3132C33.6132 33.0665 34.6726 29.1727 35.7351 25.1727Z" fill="url(#paint18_radial_637_22382)"/>
<path d="M35.7351 25.1727C36.7976 21.1727 33.8601 17.0165 31.5476 17.0165C32.3601 18.8706 32.8601 23.2352 31.5476 25.3602C30.0519 27.7818 29.8132 34.3915 30.5632 37.8915H35.3132C33.6132 33.0665 34.6726 29.1727 35.7351 25.1727Z" fill="url(#paint19_radial_637_22382)"/>
<path d="M35.7351 25.1727C36.7976 21.1727 33.8601 17.0165 31.5476 17.0165C32.3601 18.8706 32.8601 23.2352 31.5476 25.3602C30.0519 27.7818 29.8132 34.3915 30.5632 37.8915H35.3132C33.6132 33.0665 34.6726 29.1727 35.7351 25.1727Z" fill="url(#paint20_radial_637_22382)"/>
<path d="M35.7351 25.1727C36.7976 21.1727 33.8601 17.0165 31.5476 17.0165C32.3601 18.8706 32.8601 23.2352 31.5476 25.3602C30.0519 27.7818 29.8132 34.3915 30.5632 37.8915H35.3132C33.6132 33.0665 34.6726 29.1727 35.7351 25.1727Z" fill="url(#paint21_radial_637_22382)"/>
<g filter="url(#filter2_f_637_22382)">
<path d="M32.5163 19.2883C33.907 21.9602 32.8723 23.777 31.6101 27.4915C30.5163 30.7102 30.0788 33.0852 31.0788 37.554" stroke="#6B6060" stroke-width="0.5" stroke-linecap="round"/>
</g>
<path d="M11.8236 26.9938L23.7906 14.1206H26.4156L32.5094 19.6206L31.7118 21.6035C30.1175 25.5669 26.6776 28.494 22.5101 29.4336L14.2918 31.2865C12.9822 31.5817 11.6639 30.8281 11.2539 29.5497C10.9678 28.6574 11.1856 27.6801 11.8236 26.9938Z" fill="url(#paint22_linear_637_22382)"/>
<path d="M11.8236 26.9938L23.7906 14.1206H26.4156L32.5094 19.6206L31.7118 21.6035C30.1175 25.5669 26.6776 28.494 22.5101 29.4336L14.2918 31.2865C12.9822 31.5817 11.6639 30.8281 11.2539 29.5497C10.9678 28.6574 11.1856 27.6801 11.8236 26.9938Z" fill="url(#paint23_linear_637_22382)"/>
<path d="M11.8236 26.9938L23.7906 14.1206H26.4156L32.5094 19.6206L31.7118 21.6035C30.1175 25.5669 26.6776 28.494 22.5101 29.4336L14.2918 31.2865C12.9822 31.5817 11.6639 30.8281 11.2539 29.5497C10.9678 28.6574 11.1856 27.6801 11.8236 26.9938Z" fill="url(#paint24_radial_637_22382)"/>
<path d="M11.8236 26.9938L23.7906 14.1206H26.4156L32.5094 19.6206L31.7118 21.6035C30.1175 25.5669 26.6776 28.494 22.5101 29.4336L14.2918 31.2865C12.9822 31.5817 11.6639 30.8281 11.2539 29.5497C10.9678 28.6574 11.1856 27.6801 11.8236 26.9938Z" fill="url(#paint25_radial_637_22382)"/>
<path d="M11.8236 26.9938L23.7906 14.1206H26.4156L32.5094 19.6206L31.7118 21.6035C30.1175 25.5669 26.6776 28.494 22.5101 29.4336L14.2918 31.2865C12.9822 31.5817 11.6639 30.8281 11.2539 29.5497C10.9678 28.6574 11.1856 27.6801 11.8236 26.9938Z" fill="url(#paint26_linear_637_22382)"/>
<g filter="url(#filter3_f_637_22382)">
<path d="M11.7299 26.9584L23.6969 14.0852H26.3219L32.4156 19.5852L31.618 21.5681C30.0237 25.5315 26.5839 28.4586 22.4164 29.3982L14.198 31.2511C12.8884 31.5463 11.5701 30.7927 11.1602 29.5143C10.874 28.622 11.0919 27.6447 11.7299 26.9584Z" fill="url(#paint27_radial_637_22382)"/>
</g>
<g filter="url(#filter4_f_637_22382)">
<path d="M25.5476 18.179L13.6999 28.2599C13.3496 28.558 13.2881 29.0756 13.5589 29.4474C13.8134 29.7968 14.2841 29.9094 14.6692 29.7131L27.3601 23.2415L25.5476 18.179Z" fill="url(#paint28_linear_637_22382)"/>
</g>
<path d="M31.157 37.8759H24.532C22.942 31.1159 28.3282 26.6138 28.6882 21.5738C29.0882 15.8438 24.9482 14.7838 24.9482 14.7838C23.6282 15.1138 25.9582 16.0338 23.3682 16.0338L22.6882 14.5838L22.0007 13.4539C23.6407 13.0039 25.8429 12.6269 28.3601 13.8602C31.4595 15.3787 34.1132 19.3483 33.0476 23.4227C31.9851 27.4852 29.4695 30.4148 31.157 37.8759Z" fill="url(#paint29_linear_637_22382)"/>
<path d="M31.157 37.8759H24.532C22.942 31.1159 28.3282 26.6138 28.6882 21.5738C29.0882 15.8438 24.9482 14.7838 24.9482 14.7838C23.6282 15.1138 25.9582 16.0338 23.3682 16.0338L22.6882 14.5838L22.0007 13.4539C23.6407 13.0039 25.8429 12.6269 28.3601 13.8602C31.4595 15.3787 34.1132 19.3483 33.0476 23.4227C31.9851 27.4852 29.4695 30.4148 31.157 37.8759Z" fill="url(#paint30_linear_637_22382)"/>
<path d="M31.157 37.8759H24.532C22.942 31.1159 28.3282 26.6138 28.6882 21.5738C29.0882 15.8438 24.9482 14.7838 24.9482 14.7838C23.6282 15.1138 25.9582 16.0338 23.3682 16.0338L22.6882 14.5838L22.0007 13.4539C23.6407 13.0039 25.8429 12.6269 28.3601 13.8602C31.4595 15.3787 34.1132 19.3483 33.0476 23.4227C31.9851 27.4852 29.4695 30.4148 31.157 37.8759Z" fill="url(#paint31_radial_637_22382)"/>
<path d="M31.157 37.8759H24.532C22.942 31.1159 28.3282 26.6138 28.6882 21.5738C29.0882 15.8438 24.9482 14.7838 24.9482 14.7838C23.6282 15.1138 25.9582 16.0338 23.3682 16.0338L22.6882 14.5838L22.0007 13.4539C23.6407 13.0039 25.8429 12.6269 28.3601 13.8602C31.4595 15.3787 34.1132 19.3483 33.0476 23.4227C31.9851 27.4852 29.4695 30.4148 31.157 37.8759Z" fill="url(#paint32_radial_637_22382)"/>
<path d="M31.157 37.8759H24.532C22.942 31.1159 28.3282 26.6138 28.6882 21.5738C29.0882 15.8438 24.9482 14.7838 24.9482 14.7838C23.6282 15.1138 25.9582 16.0338 23.3682 16.0338L22.6882 14.5838L22.0007 13.4539C23.6407 13.0039 25.8429 12.6269 28.3601 13.8602C31.4595 15.3787 34.1132 19.3483 33.0476 23.4227C31.9851 27.4852 29.4695 30.4148 31.157 37.8759Z" fill="url(#paint33_radial_637_22382)"/>
<path d="M31.157 37.8759H24.532C22.942 31.1159 28.3282 26.6138 28.6882 21.5738C29.0882 15.8438 24.9482 14.7838 24.9482 14.7838C23.6282 15.1138 25.9582 16.0338 23.3682 16.0338L22.6882 14.5838L22.0007 13.4539C23.6407 13.0039 25.8429 12.6269 28.3601 13.8602C31.4595 15.3787 34.1132 19.3483 33.0476 23.4227C31.9851 27.4852 29.4695 30.4148 31.157 37.8759Z" fill="url(#paint34_radial_637_22382)"/>
<path d="M31.157 37.8759H24.532C22.942 31.1159 28.3282 26.6138 28.6882 21.5738C29.0882 15.8438 24.9482 14.7838 24.9482 14.7838C23.6282 15.1138 25.9582 16.0338 23.3682 16.0338L22.6882 14.5838L22.0007 13.4539C23.6407 13.0039 25.8429 12.6269 28.3601 13.8602C31.4595 15.3787 34.1132 19.3483 33.0476 23.4227C31.9851 27.4852 29.4695 30.4148 31.157 37.8759Z" fill="url(#paint35_radial_637_22382)"/>
<path d="M31.157 37.8759H24.532C22.942 31.1159 28.3282 26.6138 28.6882 21.5738C29.0882 15.8438 24.9482 14.7838 24.9482 14.7838C23.6282 15.1138 25.9582 16.0338 23.3682 16.0338L22.6882 14.5838L22.0007 13.4539C23.6407 13.0039 25.8429 12.6269 28.3601 13.8602C31.4595 15.3787 34.1132 19.3483 33.0476 23.4227C31.9851 27.4852 29.4695 30.4148 31.157 37.8759Z" fill="url(#paint36_radial_637_22382)" fill-opacity="0.75"/>
<path d="M31.157 37.8759H24.532C22.942 31.1159 28.3282 26.6138 28.6882 21.5738C29.0882 15.8438 24.9482 14.7838 24.9482 14.7838C23.6282 15.1138 25.9582 16.0338 23.3682 16.0338L22.6882 14.5838L22.0007 13.4539C23.6407 13.0039 25.8429 12.6269 28.3601 13.8602C31.4595 15.3787 34.1132 19.3483 33.0476 23.4227C31.9851 27.4852 29.4695 30.4148 31.157 37.8759Z" fill="url(#paint37_radial_637_22382)" fill-opacity="0.75"/>
<path d="M31.157 37.8759H24.532C22.942 31.1159 28.3282 26.6138 28.6882 21.5738C29.0882 15.8438 24.9482 14.7838 24.9482 14.7838C23.6282 15.1138 25.9582 16.0338 23.3682 16.0338L22.6882 14.5838L22.0007 13.4539C23.6407 13.0039 25.8429 12.6269 28.3601 13.8602C31.4595 15.3787 34.1132 19.3483 33.0476 23.4227C31.9851 27.4852 29.4695 30.4148 31.157 37.8759Z" fill="url(#paint38_linear_637_22382)"/>
<path d="M31.157 37.8759H24.532C22.942 31.1159 28.3282 26.6138 28.6882 21.5738C29.0882 15.8438 24.9482 14.7838 24.9482 14.7838C23.6282 15.1138 25.9582 16.0338 23.3682 16.0338L22.6882 14.5838L22.0007 13.4539C23.6407 13.0039 25.8429 12.6269 28.3601 13.8602C31.4595 15.3787 34.1132 19.3483 33.0476 23.4227C31.9851 27.4852 29.4695 30.4148 31.157 37.8759Z" fill="url(#paint39_linear_637_22382)"/>
<path d="M31.157 37.8759H24.532C22.942 31.1159 28.3282 26.6138 28.6882 21.5738C29.0882 15.8438 24.9482 14.7838 24.9482 14.7838C23.6282 15.1138 25.9582 16.0338 23.3682 16.0338L22.6882 14.5838L22.0007 13.4539C23.6407 13.0039 25.8429 12.6269 28.3601 13.8602C31.4595 15.3787 34.1132 19.3483 33.0476 23.4227C31.9851 27.4852 29.4695 30.4148 31.157 37.8759Z" fill="url(#paint40_radial_637_22382)"/>
<path d="M31.157 37.8759H24.532C22.942 31.1159 28.3282 26.6138 28.6882 21.5738C29.0882 15.8438 24.9482 14.7838 24.9482 14.7838C23.6282 15.1138 25.9582 16.0338 23.3682 16.0338L22.6882 14.5838L22.0007 13.4539C23.6407 13.0039 25.8429 12.6269 28.3601 13.8602C31.4595 15.3787 34.1132 19.3483 33.0476 23.4227C31.9851 27.4852 29.4695 30.4148 31.157 37.8759Z" fill="url(#paint41_radial_637_22382)"/>
<path d="M31.157 37.8759H24.532C22.942 31.1159 28.3282 26.6138 28.6882 21.5738C29.0882 15.8438 24.9482 14.7838 24.9482 14.7838C23.6282 15.1138 25.9582 16.0338 23.3682 16.0338L22.6882 14.5838L22.0007 13.4539C23.6407 13.0039 25.8429 12.6269 28.3601 13.8602C31.4595 15.3787 34.1132 19.3483 33.0476 23.4227C31.9851 27.4852 29.4695 30.4148 31.157 37.8759Z" fill="url(#paint42_radial_637_22382)"/>
<path d="M31.157 37.8759H24.532C22.942 31.1159 28.3282 26.6138 28.6882 21.5738C29.0882 15.8438 24.9482 14.7838 24.9482 14.7838C23.6282 15.1138 25.9582 16.0338 23.3682 16.0338L22.6882 14.5838L22.0007 13.4539C23.6407 13.0039 25.8429 12.6269 28.3601 13.8602C31.4595 15.3787 34.1132 19.3483 33.0476 23.4227C31.9851 27.4852 29.4695 30.4148 31.157 37.8759Z" fill="url(#paint43_radial_637_22382)"/>
<path d="M31.157 37.8759H24.532C22.942 31.1159 28.3282 26.6138 28.6882 21.5738C29.0882 15.8438 24.9482 14.7838 24.9482 14.7838C23.6282 15.1138 25.9582 16.0338 23.3682 16.0338L22.6882 14.5838L22.0007 13.4539C23.6407 13.0039 25.8429 12.6269 28.3601 13.8602C31.4595 15.3787 34.1132 19.3483 33.0476 23.4227C31.9851 27.4852 29.4695 30.4148 31.157 37.8759Z" fill="url(#paint44_radial_637_22382)"/>
<path d="M31.157 37.8759H24.532C22.942 31.1159 28.3282 26.6138 28.6882 21.5738C29.0882 15.8438 24.9482 14.7838 24.9482 14.7838C23.6282 15.1138 25.9582 16.0338 23.3682 16.0338L22.6882 14.5838L22.0007 13.4539C23.6407 13.0039 25.8429 12.6269 28.3601 13.8602C31.4595 15.3787 34.1132 19.3483 33.0476 23.4227C31.9851 27.4852 29.4695 30.4148 31.157 37.8759Z" fill="url(#paint45_radial_637_22382)"/>
<path d="M31.157 37.8759H24.532C22.942 31.1159 28.3282 26.6138 28.6882 21.5738C29.0882 15.8438 24.9482 14.7838 24.9482 14.7838C23.6282 15.1138 25.9582 16.0338 23.3682 16.0338L22.6882 14.5838L22.0007 13.4539C23.6407 13.0039 25.8429 12.6269 28.3601 13.8602C31.4595 15.3787 34.1132 19.3483 33.0476 23.4227C31.9851 27.4852 29.4695 30.4148 31.157 37.8759Z" fill="url(#paint46_radial_637_22382)"/>
<path d="M31.157 37.8759H24.532C22.942 31.1159 28.3282 26.6138 28.6882 21.5738C29.0882 15.8438 24.9482 14.7838 24.9482 14.7838C23.6282 15.1138 25.9582 16.0338 23.3682 16.0338L22.6882 14.5838L22.0007 13.4539C23.6407 13.0039 25.8429 12.6269 28.3601 13.8602C31.4595 15.3787 34.1132 19.3483 33.0476 23.4227C31.9851 27.4852 29.4695 30.4148 31.157 37.8759Z" fill="url(#paint47_radial_637_22382)" fill-opacity="0.75"/>
<path d="M31.157 37.8759H24.532C22.942 31.1159 28.3282 26.6138 28.6882 21.5738C29.0882 15.8438 24.9482 14.7838 24.9482 14.7838C23.6282 15.1138 25.9582 16.0338 23.3682 16.0338L22.6882 14.5838L22.0007 13.4539C23.6407 13.0039 25.8429 12.6269 28.3601 13.8602C31.4595 15.3787 34.1132 19.3483 33.0476 23.4227C31.9851 27.4852 29.4695 30.4148 31.157 37.8759Z" fill="url(#paint48_radial_637_22382)" fill-opacity="0.75"/>
<g filter="url(#filter5_f_637_22382)">
<path d="M26.8839 37.8759H24.78C23.9487 34.3415 24.9404 31.7617 26.2077 29.0621L26.8839 37.8759Z" fill="url(#paint49_radial_637_22382)"/>
<path d="M26.8839 37.8759H24.78C23.9487 34.3415 24.9404 31.7617 26.2077 29.0621L26.8839 37.8759Z" fill="url(#paint50_radial_637_22382)" fill-opacity="0.65"/>
</g>
<path d="M23.8919 17.1477C21.8294 17.1477 21.4201 16.1711 21.3044 14.4211C21.1888 12.6711 21.3044 12.2102 21.3044 12.2102C21.3044 11.8702 21.7144 11.6359 21.9544 11.8759C21.9544 11.8759 24.8216 14.2024 25.3763 15.4071C25.931 16.6118 24.9076 17.1477 23.8919 17.1477Z" fill="url(#paint51_radial_637_22382)"/>
<path d="M23.8919 17.1477C21.8294 17.1477 21.4201 16.1711 21.3044 14.4211C21.1888 12.6711 21.3044 12.2102 21.3044 12.2102C21.3044 11.8702 21.7144 11.6359 21.9544 11.8759C21.9544 11.8759 24.8216 14.2024 25.3763 15.4071C25.931 16.6118 24.9076 17.1477 23.8919 17.1477Z" fill="url(#paint52_radial_637_22382)"/>
<path d="M23.8919 17.1477C21.8294 17.1477 21.4201 16.1711 21.3044 14.4211C21.1888 12.6711 21.3044 12.2102 21.3044 12.2102C21.3044 11.8702 21.7144 11.6359 21.9544 11.8759C21.9544 11.8759 24.8216 14.2024 25.3763 15.4071C25.931 16.6118 24.9076 17.1477 23.8919 17.1477Z" fill="url(#paint53_radial_637_22382)"/>
<path d="M23.8919 17.1477C21.8294 17.1477 21.4201 16.1711 21.3044 14.4211C21.1888 12.6711 21.3044 12.2102 21.3044 12.2102C21.3044 11.8702 21.7144 11.6359 21.9544 11.8759C21.9544 11.8759 24.8216 14.2024 25.3763 15.4071C25.931 16.6118 24.9076 17.1477 23.8919 17.1477Z" fill="url(#paint54_radial_637_22382)" fill-opacity="0.6"/>
<g filter="url(#filter6_f_637_22382)">
<path d="M20.7061 22.7995C20.3041 22.8901 19.9009 22.6353 19.8103 22.2333L19.4992 20.8535C19.4085 20.4515 19.6633 20.0484 20.0653 19.9577C20.4674 19.8671 20.8705 20.1219 20.9612 20.5239L21.2723 21.9036C21.3629 22.3057 21.1081 22.7088 20.7061 22.7995Z" fill="url(#paint55_linear_637_22382)"/>
</g>
<path d="M20.807 22.8352C20.3948 22.8352 20.0576 22.498 20.0576 22.0858V20.6715C20.0576 20.2593 20.3948 19.9221 20.807 19.9221C21.2191 19.9221 21.5563 20.2593 21.5563 20.6715V22.0858C21.5563 22.498 21.2191 22.8352 20.807 22.8352Z" fill="url(#paint56_linear_637_22382)"/>
<path d="M20.807 22.8352C20.3948 22.8352 20.0576 22.498 20.0576 22.0858V20.6715C20.0576 20.2593 20.3948 19.9221 20.807 19.9221C21.2191 19.9221 21.5563 20.2593 21.5563 20.6715V22.0858C21.5563 22.498 21.2191 22.8352 20.807 22.8352Z" fill="url(#paint57_linear_637_22382)"/>
<path d="M20.807 22.8352C20.3948 22.8352 20.0576 22.498 20.0576 22.0858V20.6715C20.0576 20.2593 20.3948 19.9221 20.807 19.9221C21.2191 19.9221 21.5563 20.2593 21.5563 20.6715V22.0858C21.5563 22.498 21.2191 22.8352 20.807 22.8352Z" fill="url(#paint58_linear_637_22382)"/>
<path d="M20.807 22.8352C20.3948 22.8352 20.0576 22.498 20.0576 22.0858V20.6715C20.0576 20.2593 20.3948 19.9221 20.807 19.9221C21.2191 19.9221 21.5563 20.2593 21.5563 20.6715V22.0858C21.5563 22.498 21.2191 22.8352 20.807 22.8352Z" fill="url(#paint59_radial_637_22382)"/>
<path d="M13.6356 28.1828C13.3747 28.4438 12.9397 28.4438 12.6787 28.1828L13.6356 27.2258C13.8966 27.4955 13.8966 27.9218 13.6356 28.1828Z" fill="url(#paint60_linear_637_22382)"/>
<path d="M17.0468 30.6082L15.1827 31.0147C15.9574 30.7135 16.4433 29.8957 16.2967 29.0427C16.2488 28.7641 16.4359 28.4994 16.7145 28.4516C16.9931 28.4037 17.2577 28.5907 17.3056 28.8693C17.4114 29.485 17.3079 30.089 17.0468 30.6082Z" fill="url(#paint61_linear_637_22382)"/>
<g filter="url(#filter7_f_637_22382)">
<path d="M22.3914 16.8665C22.6883 17.1165 23.3794 17.251 24.0945 17.1165C24.8096 16.9819 25.3463 16.4513 25.4949 16.2636" stroke="url(#paint62_linear_637_22382)" stroke-width="0.5" stroke-linecap="round"/>
</g>
<g filter="url(#filter8_f_637_22382)">
<path d="M34.485 21.304C34.6934 21.8248 34.8975 23.654 34.0475 26.804C32.985 30.7415 32.7975 32.679 33.4225 35.679" stroke="url(#paint63_linear_637_22382)" stroke-width="0.75" stroke-linecap="round"/>
</g>
<g filter="url(#filter9_f_637_22382)">
<path d="M31.3914 18.3352C31.5997 18.856 32.5789 22.179 30.3302 26.804C28.5469 30.4718 28.2976 32.8665 28.7351 37.054" stroke="url(#paint64_linear_637_22382)" stroke-width="0.75" stroke-linecap="round"/>
</g>
<defs>
<filter id="filter0_f_637_22382" x="16.8273" y="13.2026" width="5.77246" height="5.81995" filterUnits="userSpaceOnUse" color-interpolation-filters="sRGB">
<feFlood flood-opacity="0" result="BackgroundImageFix"/>
<feBlend mode="normal" in="SourceGraphic" in2="BackgroundImageFix" result="shape"/>
<feGaussianBlur stdDeviation="0.25" result="effect1_foregroundBlur_637_22382"/>
</filter>
<filter id="filter1_f_637_22382" x="33.7719" y="22.2662" width="2.59912" height="15.4752" filterUnits="userSpaceOnUse" color-interpolation-filters="sRGB">
<feFlood flood-opacity="0" result="BackgroundImageFix"/>
<feBlend mode="normal" in="SourceGraphic" in2="BackgroundImageFix" result="shape"/>
<feGaussianBlur stdDeviation="0.25" result="effect1_foregroundBlur_637_22382"/>
</filter>
<filter id="filter2_f_637_22382" x="29.7684" y="18.5383" width="4.16162" height="19.7656" filterUnits="userSpaceOnUse" color-interpolation-filters="sRGB">
<feFlood flood-opacity="0" result="BackgroundImageFix"/>
<feBlend mode="normal" in="SourceGraphic" in2="BackgroundImageFix" result="shape"/>
<feGaussianBlur stdDeviation="0.25" result="effect1_foregroundBlur_637_22382"/>
</filter>
<filter id="filter3_f_637_22382" x="10.0364" y="13.0852" width="23.3793" height="19.2297" filterUnits="userSpaceOnUse" color-interpolation-filters="sRGB">
<feFlood flood-opacity="0" result="BackgroundImageFix"/>
<feBlend mode="normal" in="SourceGraphic" in2="BackgroundImageFix" result="shape"/>
<feGaussianBlur stdDeviation="0.5" result="effect1_foregroundBlur_637_22382"/>
</filter>
<filter id="filter4_f_637_22382" x="11.3904" y="16.179" width="17.9697" height="15.6301" filterUnits="userSpaceOnUse" color-interpolation-filters="sRGB">
<feFlood flood-opacity="0" result="BackgroundImageFix"/>
<feBlend mode="normal" in="SourceGraphic" in2="BackgroundImageFix" result="shape"/>
<feGaussianBlur stdDeviation="1" result="effect1_foregroundBlur_637_22382"/>
</filter>
<filter id="filter5_f_637_22382" x="23.974" y="28.5621" width="3.40991" height="9.81372" filterUnits="userSpaceOnUse" color-interpolation-filters="sRGB">
<feFlood flood-opacity="0" result="BackgroundImageFix"/>
<feBlend mode="normal" in="SourceGraphic" in2="BackgroundImageFix" result="shape"/>
<feGaussianBlur stdDeviation="0.25" result="effect1_foregroundBlur_637_22382"/>
</filter>
<filter id="filter6_f_637_22382" x="18.7308" y="19.1895" width="3.30969" height="4.3783" filterUnits="userSpaceOnUse" color-interpolation-filters="sRGB">
<feFlood flood-opacity="0" result="BackgroundImageFix"/>
<feBlend mode="normal" in="SourceGraphic" in2="BackgroundImageFix" result="shape"/>
<feGaussianBlur stdDeviation="0.375" result="effect1_foregroundBlur_637_22382"/>
</filter>
<filter id="filter7_f_637_22382" x="21.6414" y="15.5135" width="4.60364" height="2.40613" filterUnits="userSpaceOnUse" color-interpolation-filters="sRGB">
<feFlood flood-opacity="0" result="BackgroundImageFix"/>
<feBlend mode="normal" in="SourceGraphic" in2="BackgroundImageFix" result="shape"/>
<feGaussianBlur stdDeviation="0.25" result="effect1_foregroundBlur_637_22382"/>
</filter>
<filter id="filter8_f_637_22382" x="30.6904" y="18.9288" width="6.35278" height="19.1252" filterUnits="userSpaceOnUse" color-interpolation-filters="sRGB">
<feFlood flood-opacity="0" result="BackgroundImageFix"/>
<feBlend mode="normal" in="SourceGraphic" in2="BackgroundImageFix" result="shape"/>
<feGaussianBlur stdDeviation="1" result="effect1_foregroundBlur_637_22382"/>
</filter>
<filter id="filter9_f_637_22382" x="26.1726" y="15.9601" width="7.98486" height="23.4689" filterUnits="userSpaceOnUse" color-interpolation-filters="sRGB">
<feFlood flood-opacity="0" result="BackgroundImageFix"/>
<feBlend mode="normal" in="SourceGraphic" in2="BackgroundImageFix" result="shape"/>
<feGaussianBlur stdDeviation="1" result="effect1_foregroundBlur_637_22382"/>
</filter>
<linearGradient id="paint0_linear_637_22382" x1="19.985" y1="19.2102" x2="18.8913" y2="17.4602" gradientUnits="userSpaceOnUse">
<stop stop-color="#321D24"/>
<stop offset="1" stop-color="#3C302E"/>
</linearGradient>
<linearGradient id="paint1_linear_637_22382" x1="19.9069" y1="21.9445" x2="20.2897" y2="17.8769" gradientUnits="userSpaceOnUse">
<stop offset="0.199419" stop-color="#65255C"/>
<stop offset="0.563132" stop-color="#65255C" stop-opacity="0"/>
</linearGradient>
<radialGradient id="paint2_radial_637_22382" cx="0" cy="0" r="1" gradientUnits="userSpaceOnUse" gradientTransform="translate(22.1413 17.007) rotate(-163.217) scale(2.05634 1.94436)">
<stop stop-color="#1B0907"/>
<stop offset="1" stop-color="#1B0907" stop-opacity="0"/>
</radialGradient>
<linearGradient id="paint3_linear_637_22382" x1="15.9538" y1="19.6476" x2="22.0997" y2="14.3664" gradientUnits="userSpaceOnUse">
<stop stop-color="#6D6C6C"/>
<stop offset="1" stop-color="#948F8E" stop-opacity="0"/>
</linearGradient>
<radialGradient id="paint4_radial_637_22382" cx="0" cy="0" r="1" gradientUnits="userSpaceOnUse" gradientTransform="translate(19.2081 32.5539) rotate(45.427) scale(9.30011)">
<stop stop-color="#926059"/>
<stop offset="1" stop-color="#6B3351"/>
</radialGradient>
<radialGradient id="paint5_radial_637_22382" cx="0" cy="0" r="1" gradientUnits="userSpaceOnUse" gradientTransform="translate(28.2351 35.4289) rotate(-171.802) scale(7.45114 10.6278)">
<stop offset="0.21713" stop-color="#7B2B70"/>
<stop offset="0.852457" stop-color="#7B2B70" stop-opacity="0"/>
</radialGradient>
<radialGradient id="paint6_radial_637_22382" cx="0" cy="0" r="1" gradientUnits="userSpaceOnUse" gradientTransform="translate(29.1726 27.8664) rotate(114.07) scale(13.4851 12.8445)">
<stop stop-color="#320811"/>
<stop offset="0.652933" stop-color="#320811" stop-opacity="0"/>
<stop offset="0.968939" stop-color="#320811" stop-opacity="0"/>
</radialGradient>
<radialGradient id="paint7_radial_637_22382" cx="0" cy="0" r="1" gradientUnits="userSpaceOnUse" gradientTransform="translate(28.6912 36.4289) rotate(-162.902) scale(10.4165 32.6637)">
<stop offset="0.738857" stop-color="#B17E72" stop-opacity="0"/>
<stop offset="1" stop-color="#B17E72"/>
</radialGradient>
<radialGradient id="paint8_radial_637_22382" cx="0" cy="0" r="1" gradientUnits="userSpaceOnUse" gradientTransform="translate(19.9226 31.1789) rotate(24.4439) scale(4.53114 7.07086)">
<stop stop-color="#A08986"/>
<stop offset="0.631805" stop-color="#A08986" stop-opacity="0"/>
</radialGradient>
<linearGradient id="paint9_linear_637_22382" x1="38.2663" y1="21.4289" x2="37.2596" y2="37.3653" gradientUnits="userSpaceOnUse">
<stop stop-color="#504340"/>
<stop offset="1" stop-color="#504449"/>
</linearGradient>
<radialGradient id="paint10_radial_637_22382" cx="0" cy="0" r="1" gradientUnits="userSpaceOnUse" gradientTransform="translate(36.9226 27.3039) rotate(90) scale(5.25 1.34375)">
<stop stop-color="#776F6E"/>
<stop offset="1" stop-color="#847B7A" stop-opacity="0"/>
</radialGradient>
<linearGradient id="paint11_linear_637_22382" x1="33.1101" y1="33.5539" x2="37.4226" y2="33.5539" gradientUnits="userSpaceOnUse">
<stop offset="0.246377" stop-color="#3C253D"/>
<stop offset="1" stop-color="#805887" stop-opacity="0"/>
</linearGradient>
<linearGradient id="paint12_linear_637_22382" x1="37.4226" y1="39.6789" x2="37.4226" y2="33.5539" gradientUnits="userSpaceOnUse">
<stop offset="0.246377" stop-color="#573158"/>
<stop offset="1" stop-color="#3C253D" stop-opacity="0"/>
</linearGradient>
<radialGradient id="paint13_radial_637_22382" cx="0" cy="0" r="1" gradientUnits="userSpaceOnUse" gradientTransform="translate(35.1726 22.0227) rotate(51.3402) scale(3.20156 3.81008)">
<stop stop-color="#443835"/>
<stop offset="1" stop-color="#4F413E" stop-opacity="0"/>
</radialGradient>
<radialGradient id="paint14_radial_637_22382" cx="0" cy="0" r="1" gradientUnits="userSpaceOnUse" gradientTransform="translate(40.6101 36.8039) rotate(-142.253) scale(4.90057 5.83202)">
<stop stop-color="#443835"/>
<stop offset="1" stop-color="#2F2624" stop-opacity="0"/>
</radialGradient>
<radialGradient id="paint15_radial_637_22382" cx="0" cy="0" r="1" gradientUnits="userSpaceOnUse" gradientTransform="translate(33.4918 31.4289) rotate(-90) scale(10.7568 3.11828)">
<stop offset="0.191739" stop-color="#3B282D"/>
<stop offset="1" stop-color="#3B282D" stop-opacity="0"/>
</radialGradient>
<linearGradient id="paint16_linear_637_22382" x1="35.9591" y1="17.9339" x2="34.743" y2="37.2542" gradientUnits="userSpaceOnUse">
<stop stop-color="#504340"/>
<stop offset="1" stop-color="#504449"/>
</linearGradient>
<linearGradient id="paint17_linear_637_22382" x1="29.3601" y1="33.3039" x2="34.7976" y2="33.3039" gradientUnits="userSpaceOnUse">
<stop offset="0.246377" stop-color="#3C253D"/>
<stop offset="1" stop-color="#623769" stop-opacity="0"/>
</linearGradient>
<radialGradient id="paint18_radial_637_22382" cx="0" cy="0" r="1" gradientUnits="userSpaceOnUse" gradientTransform="translate(32.1951 18.6537) rotate(47.6207) scale(4.60293 5.48209)">
<stop stop-color="#443835"/>
<stop offset="1" stop-color="#4F413E" stop-opacity="0"/>
</radialGradient>
<radialGradient id="paint19_radial_637_22382" cx="0" cy="0" r="1" gradientUnits="userSpaceOnUse" gradientTransform="translate(35.9591 32.2414) rotate(-86.021) scale(11.1832 4.38194)">
<stop offset="0.438821" stop-color="#3B282D"/>
<stop offset="0.84319" stop-color="#3B282D" stop-opacity="0"/>
</radialGradient>
<radialGradient id="paint20_radial_637_22382" cx="0" cy="0" r="1" gradientUnits="userSpaceOnUse" gradientTransform="translate(35.9591 32.2414) rotate(-86.021) scale(11.1832 4.38194)">
<stop offset="0.438821" stop-color="#3B282D"/>
<stop offset="0.84319" stop-color="#3B282D" stop-opacity="0"/>
</radialGradient>
<radialGradient id="paint21_radial_637_22382" cx="0" cy="0" r="1" gradientUnits="userSpaceOnUse" gradientTransform="translate(32.2565 19.2) rotate(91.048) scale(6.16255 2.82462)">
<stop offset="0.438821" stop-color="#3B282D"/>
<stop offset="0.84319" stop-color="#3B282D" stop-opacity="0"/>
</radialGradient>
<linearGradient id="paint22_linear_637_22382" x1="17.4538" y1="25.1519" x2="14.2856" y2="20.7098" gradientUnits="userSpaceOnUse">
<stop stop-color="#895950"/>
<stop offset="1" stop-color="#A46E6D"/>
</linearGradient>
<linearGradient id="paint23_linear_637_22382" x1="20.9538" y1="31.8081" x2="20.3913" y2="26.1519" gradientUnits="userSpaceOnUse">
<stop offset="0.156941" stop-color="#89327C"/>
<stop offset="0.480187" stop-color="#89327C" stop-opacity="0"/>
</linearGradient>
<radialGradient id="paint24_radial_637_22382" cx="0" cy="0" r="1" gradientUnits="userSpaceOnUse" gradientTransform="translate(24.6413 32.5894) rotate(-80.8698) scale(7.08983 12.2981)">
<stop offset="0.156659" stop-color="#89327C"/>
<stop offset="1" stop-color="#A55299" stop-opacity="0"/>
</radialGradient>
<radialGradient id="paint25_radial_637_22382" cx="0" cy="0" r="1" gradientUnits="userSpaceOnUse" gradientTransform="translate(7.51631 18.1519) rotate(23.0464) scale(23.0591 20.6394)">
<stop offset="0.70061" stop-color="#724A4D" stop-opacity="0"/>
<stop offset="1" stop-color="#724A4D"/>
</radialGradient>
<linearGradient id="paint26_linear_637_22382" x1="15.5319" y1="20.9253" x2="17.2976" y2="22.5894" gradientUnits="userSpaceOnUse">
<stop offset="0.37888" stop-color="#B17E72"/>
<stop offset="1" stop-color="#B17E72" stop-opacity="0"/>
</linearGradient>
<radialGradient id="paint27_radial_637_22382" cx="0" cy="0" r="1" gradientUnits="userSpaceOnUse" gradientTransform="translate(12.4226 18.429) rotate(32.8969) scale(21.2887 19.0547)">
<stop offset="0.660717" stop-color="#320811" stop-opacity="0"/>
<stop offset="0.842391" stop-color="#341419"/>
</radialGradient>
<linearGradient id="paint28_linear_637_22382" x1="13.0789" y1="29.554" x2="24.2854" y2="18.2653" gradientUnits="userSpaceOnUse">
<stop stop-color="#BE827E"/>
<stop offset="1" stop-color="#BE827E" stop-opacity="0"/>
</linearGradient>
<linearGradient id="paint29_linear_637_22382" x1="33.2872" y1="14.1179" x2="32.3981" y2="37.174" gradientUnits="userSpaceOnUse">
<stop stop-color="#504340"/>
<stop offset="1" stop-color="#504449"/>
</linearGradient>
<linearGradient id="paint30_linear_637_22382" x1="23.9226" y1="32.4147" x2="31.4226" y2="32.4147" gradientUnits="userSpaceOnUse">
<stop offset="0.246377" stop-color="#3C253D"/>
<stop offset="1" stop-color="#623769" stop-opacity="0"/>
</linearGradient>
<radialGradient id="paint31_radial_637_22382" cx="0" cy="0" r="1" gradientUnits="userSpaceOnUse" gradientTransform="translate(25.9739 14.9748) rotate(33.88) scale(7.26094 8.03806)">
<stop stop-color="#443835"/>
<stop offset="1" stop-color="#4F413E" stop-opacity="0"/>
</radialGradient>
<radialGradient id="paint32_radial_637_22382" cx="0" cy="0" r="1" gradientUnits="userSpaceOnUse" gradientTransform="translate(33.2873 31.1499) rotate(-83.523) scale(13.366 8.48)">
<stop offset="0.441432" stop-color="#3B282D"/>
<stop offset="0.841107" stop-color="#3B282D" stop-opacity="0"/>
</radialGradient>
<radialGradient id="paint33_radial_637_22382" cx="0" cy="0" r="1" gradientUnits="userSpaceOnUse" gradientTransform="translate(33.2873 31.1499) rotate(-80.3949) scale(8.2332 4.70827)">
<stop offset="0.441432" stop-color="#3B282D"/>
<stop offset="0.841107" stop-color="#3B282D" stop-opacity="0"/>
</radialGradient>
<radialGradient id="paint34_radial_637_22382" cx="0" cy="0" r="1" gradientUnits="userSpaceOnUse" gradientTransform="translate(19.5476 23.7414) rotate(-7.75316) scale(13.4353 11.7574)">
<stop offset="0.612913" stop-color="#3B282D"/>
<stop offset="0.84319" stop-color="#3B282D" stop-opacity="0"/>
</radialGradient>
<radialGradient id="paint35_radial_637_22382" cx="0" cy="0" r="1" gradientUnits="userSpaceOnUse" gradientTransform="translate(22.8601 20.5539) rotate(-46.5482) scale(8.9968 7.12028)">
<stop offset="0.663835" stop-color="#3B282D"/>
<stop offset="0.880027" stop-color="#3B282D" stop-opacity="0"/>
</radialGradient>
<radialGradient id="paint36_radial_637_22382" cx="0" cy="0" r="1" gradientUnits="userSpaceOnUse" gradientTransform="translate(26.3956 18.7867) rotate(62.8528) scale(4.37406 2.70071)">
<stop stop-color="#827876"/>
<stop offset="1" stop-color="#C2BCBB" stop-opacity="0"/>
</radialGradient>
<radialGradient id="paint37_radial_637_22382" cx="0" cy="0" r="1" gradientUnits="userSpaceOnUse" gradientTransform="translate(26.884 20.8906) rotate(93.0394) scale(4.25142 2.62498)">
<stop stop-color="#827876"/>
<stop offset="1" stop-color="#C2BCBB" stop-opacity="0"/>
</radialGradient>
<linearGradient id="paint38_linear_637_22382" x1="33.2872" y1="14.1179" x2="32.3981" y2="37.174" gradientUnits="userSpaceOnUse">
<stop stop-color="#504340"/>
<stop offset="1" stop-color="#504449"/>
</linearGradient>
<linearGradient id="paint39_linear_637_22382" x1="23.9226" y1="32.4147" x2="31.4226" y2="32.4147" gradientUnits="userSpaceOnUse">
<stop offset="0.246377" stop-color="#3C253D"/>
<stop offset="1" stop-color="#623769" stop-opacity="0"/>
</linearGradient>
<radialGradient id="paint40_radial_637_22382" cx="0" cy="0" r="1" gradientUnits="userSpaceOnUse" gradientTransform="translate(25.9739 14.9748) rotate(33.88) scale(7.26094 8.03806)">
<stop stop-color="#443835"/>
<stop offset="1" stop-color="#4F413E" stop-opacity="0"/>
</radialGradient>
<radialGradient id="paint41_radial_637_22382" cx="0" cy="0" r="1" gradientUnits="userSpaceOnUse" gradientTransform="translate(33.2873 31.1499) rotate(-83.523) scale(13.366 8.48)">
<stop offset="0.441432" stop-color="#3B282D"/>
<stop offset="0.841107" stop-color="#3B282D" stop-opacity="0"/>
</radialGradient>
<radialGradient id="paint42_radial_637_22382" cx="0" cy="0" r="1" gradientUnits="userSpaceOnUse" gradientTransform="translate(33.2873 31.1499) rotate(-80.3949) scale(8.2332 4.70827)">
<stop offset="0.441432" stop-color="#3B282D"/>
<stop offset="0.841107" stop-color="#3B282D" stop-opacity="0"/>
</radialGradient>
<radialGradient id="paint43_radial_637_22382" cx="0" cy="0" r="1" gradientUnits="userSpaceOnUse" gradientTransform="translate(19.5476 23.7414) rotate(-7.75316) scale(13.4353 11.7574)">
<stop offset="0.612913" stop-color="#3B282D"/>
<stop offset="0.84319" stop-color="#3B282D" stop-opacity="0"/>
</radialGradient>
<radialGradient id="paint44_radial_637_22382" cx="0" cy="0" r="1" gradientUnits="userSpaceOnUse" gradientTransform="translate(22.8601 20.5539) rotate(-46.5482) scale(8.9968 7.12028)">
<stop offset="0.663835" stop-color="#3B282D"/>
<stop offset="0.880027" stop-color="#3B282D" stop-opacity="0"/>
</radialGradient>
<radialGradient id="paint45_radial_637_22382" cx="0" cy="0" r="1" gradientUnits="userSpaceOnUse" gradientTransform="translate(21.6617 15.4805) rotate(60.6105) scale(8.58413 6.41824)">
<stop offset="0.40677" stop-color="#3B282D"/>
<stop offset="0.84319" stop-color="#3B282D" stop-opacity="0"/>
</radialGradient>
<radialGradient id="paint46_radial_637_22382" cx="0" cy="0" r="1" gradientUnits="userSpaceOnUse" gradientTransform="translate(26.3956 17.096) rotate(48.5517) scale(3.85951 2.48071)">
<stop offset="0.628594" stop-color="#3B282D"/>
<stop offset="1" stop-color="#3B282D" stop-opacity="0"/>
</radialGradient>
<radialGradient id="paint47_radial_637_22382" cx="0" cy="0" r="1" gradientUnits="userSpaceOnUse" gradientTransform="translate(26.3956 18.7867) rotate(62.8528) scale(4.37406 2.70071)">
<stop stop-color="#827876"/>
<stop offset="1" stop-color="#C2BCBB" stop-opacity="0"/>
</radialGradient>
<radialGradient id="paint48_radial_637_22382" cx="0" cy="0" r="1" gradientUnits="userSpaceOnUse" gradientTransform="translate(26.884 20.8906) rotate(93.0394) scale(4.25142 2.62498)">
<stop stop-color="#827876"/>
<stop offset="1" stop-color="#C2BCBB" stop-opacity="0"/>
</radialGradient>
<radialGradient id="paint49_radial_637_22382" cx="0" cy="0" r="1" gradientUnits="userSpaceOnUse" gradientTransform="translate(25.4563 27.0897) rotate(98.5999) scale(12.3112 1.37805)">
<stop stop-color="#9B9799"/>
<stop offset="1" stop-color="#878284" stop-opacity="0"/>
</radialGradient>
<radialGradient id="paint50_radial_637_22382" cx="0" cy="0" r="1" gradientUnits="userSpaceOnUse" gradientTransform="translate(25.0806 26.1504) rotate(87.3719) scale(13.0506 1.46081)">
<stop stop-color="#9B9799"/>
<stop offset="0.989076" stop-color="#878284" stop-opacity="0"/>
</radialGradient>
<radialGradient id="paint51_radial_637_22382" cx="0" cy="0" r="1" gradientUnits="userSpaceOnUse" gradientTransform="translate(20.7976 15.0539) rotate(-10.7135) scale(3.18044 3.52946)">
<stop stop-color="#7D4750"/>
<stop offset="0.920825" stop-color="#A46E6D"/>
</radialGradient>
<radialGradient id="paint52_radial_637_22382" cx="0" cy="0" r="1" gradientUnits="userSpaceOnUse" gradientTransform="translate(22.1257 17.3664) rotate(-52.4224) scale(3.66389 3.52026)">
<stop offset="0.156659" stop-color="#773D4A"/>
<stop offset="1" stop-color="#985665" stop-opacity="0"/>
</radialGradient>
<radialGradient id="paint53_radial_637_22382" cx="0" cy="0" r="1" gradientUnits="userSpaceOnUse" gradientTransform="translate(23.5788 14.7727) rotate(172.405) scale(2.83739 9.28037)">
<stop offset="0.618632" stop-color="#B17E72" stop-opacity="0"/>
<stop offset="1" stop-color="#B17E72"/>
</radialGradient>
<radialGradient id="paint54_radial_637_22382" cx="0" cy="0" r="1" gradientUnits="userSpaceOnUse" gradientTransform="translate(22.2038 15.5539) rotate(-38.8534) scale(2.88923 15.162)">
<stop offset="0.510529" stop-color="#B17E72" stop-opacity="0"/>
<stop offset="1" stop-color="#B17E72"/>
</radialGradient>
<linearGradient id="paint55_linear_637_22382" x1="20.7976" y1="22.7257" x2="20.1413" y2="20.1007" gradientUnits="userSpaceOnUse">
<stop stop-color="#5E2926"/>
<stop offset="1" stop-color="#5E2926" stop-opacity="0"/>
</linearGradient>
<linearGradient id="paint56_linear_637_22382" x1="21.5563" y1="21.3787" x2="20.6888" y2="21.3787" gradientUnits="userSpaceOnUse">
<stop offset="0.225" stop-color="#594C4F"/>
<stop offset="1" stop-color="#392833"/>
</linearGradient>
<linearGradient id="paint57_linear_637_22382" x1="21.7905" y1="22.8776" x2="21.7905" y2="21.5091" gradientUnits="userSpaceOnUse">
<stop stop-color="#552D52"/>
<stop offset="1" stop-color="#552D52" stop-opacity="0"/>
</linearGradient>
<linearGradient id="paint58_linear_637_22382" x1="19.5618" y1="22.0653" x2="20.5945" y2="22.0653" gradientUnits="userSpaceOnUse">
<stop stop-color="#594C4F"/>
<stop offset="1" stop-color="#594C4F" stop-opacity="0"/>
</linearGradient>
<radialGradient id="paint59_radial_637_22382" cx="0" cy="0" r="1" gradientUnits="userSpaceOnUse" gradientTransform="translate(21.0986 21.553) rotate(-110.004) scale(1.68992 1.67933)">
<stop offset="0.813951" stop-color="#594C4F" stop-opacity="0"/>
<stop offset="1" stop-color="#594C4F"/>
</radialGradient>
<linearGradient id="paint60_linear_637_22382" x1="12.7741" y1="28.0227" x2="13.7272" y2="27.9368" gradientUnits="userSpaceOnUse">
<stop stop-color="#382A32"/>
<stop offset="1" stop-color="#2A1927"/>
</linearGradient>
<linearGradient id="paint61_linear_637_22382" x1="17.032" y1="31.3039" x2="17.032" y2="29.1633" gradientUnits="userSpaceOnUse">
<stop stop-color="#562C54"/>
<stop offset="1" stop-color="#694259"/>
</linearGradient>
<linearGradient id="paint62_linear_637_22382" x1="25.5727" y1="16.2558" x2="21.8133" y2="17.3508" gradientUnits="userSpaceOnUse">
<stop stop-color="#AB7670"/>
<stop offset="1" stop-color="#AB7670" stop-opacity="0"/>
</linearGradient>
<linearGradient id="paint63_linear_637_22382" x1="35.2038" y1="20.179" x2="33.8668" y2="35.679" gradientUnits="userSpaceOnUse">
<stop stop-color="#928784" stop-opacity="0"/>
<stop offset="0.234375" stop-color="#A39592"/>
<stop offset="1" stop-color="#928784" stop-opacity="0"/>
</linearGradient>
<linearGradient id="paint64_linear_637_22382" x1="31.4865" y1="20.179" x2="30.4226" y2="41.1477" gradientUnits="userSpaceOnUse">
<stop stop-color="#C2BCBB"/>
<stop offset="1" stop-color="#908483" stop-opacity="0"/>
<stop offset="1" stop-color="#C2BCBB" stop-opacity="0"/>
</linearGradient>
</defs>
</svg>
