<svg width="48" height="48" viewBox="0 0 48 48" fill="none" xmlns="http://www.w3.org/2000/svg">
<rect width="48" height="48" rx="24" fill="#F2F5FF"/>
<path d="M15.1937 33.0486H22.2137L18.4837 35.8886C17.4937 36.6386 16.2937 37.0486 15.0537 37.0486H11.6719C11.1619 37.0486 10.9419 36.3986 11.3519 36.0886L15.1937 33.0486Z" fill="#A0A7FF"/>
<path d="M15.1937 33.0486H22.2137L18.4837 35.8886C17.4937 36.6386 16.2937 37.0486 15.0537 37.0486H11.6719C11.1619 37.0486 10.9419 36.3986 11.3519 36.0886L15.1937 33.0486Z" fill="url(#paint0_linear_637_22375)"/>
<path d="M15.1937 33.0486H22.2137L18.4837 35.8886C17.4937 36.6386 16.2937 37.0486 15.0537 37.0486H11.6719C11.1619 37.0486 10.9419 36.3986 11.3519 36.0886L15.1937 33.0486Z" fill="url(#paint1_radial_637_22375)"/>
<path d="M37 24.5176C36.96 20.2576 35.2837 16.9924 32.0837 14.6424C31.9486 14.5432 31.9402 14.3636 32.0837 14.197C32.9922 13.1425 32.9299 11.7179 32.4375 10.5723C32.2812 10.2088 31.844 9.5213 31.2734 10.0176C30.7028 10.5138 29.7537 11.7188 29.7537 11.7188C29.25 12.4236 29.2265 12.9549 29.3906 13.8299C29.3906 13.8299 29.4218 14.0332 29.4765 14.197C29.5312 14.3609 29.2695 14.197 28.9219 14.1033C28.5742 14.0095 27.8281 13.8299 26.7968 14.8457C26.7968 14.8457 25.4415 16.3101 25.3281 16.8142C25.2147 17.3183 25.6865 17.467 25.8672 17.5095C27.5587 17.9075 28.6054 17.748 29.8633 16.4902C30.0002 16.3968 30.1183 16.3924 30.2422 16.5488C32.0859 18.877 32.9665 22.1937 32.4737 25.0888C32.0267 27.715 28.4844 26.7207 28.6537 24.3088C28.6537 20.8488 25.8437 18.0388 22.3837 18.0388H14.7812C12.4319 18.0388 10.1211 20.2795 10.1211 22.9395C9.90623 30.7051 15.7731 38.7144 24.0164 38.1435C33.3531 37.4968 37 33.2988 37 24.5176Z" fill="#44C0FF"/>
<path d="M37 24.5176C36.96 20.2576 35.2837 16.9924 32.0837 14.6424C31.9486 14.5432 31.9402 14.3636 32.0837 14.197C32.9922 13.1425 32.9299 11.7179 32.4375 10.5723C32.2812 10.2088 31.844 9.5213 31.2734 10.0176C30.7028 10.5138 29.7537 11.7188 29.7537 11.7188C29.25 12.4236 29.2265 12.9549 29.3906 13.8299C29.3906 13.8299 29.4218 14.0332 29.4765 14.197C29.5312 14.3609 29.2695 14.197 28.9219 14.1033C28.5742 14.0095 27.8281 13.8299 26.7968 14.8457C26.7968 14.8457 25.4415 16.3101 25.3281 16.8142C25.2147 17.3183 25.6865 17.467 25.8672 17.5095C27.5587 17.9075 28.6054 17.748 29.8633 16.4902C30.0002 16.3968 30.1183 16.3924 30.2422 16.5488C32.0859 18.877 32.9665 22.1937 32.4737 25.0888C32.0267 27.715 28.4844 26.7207 28.6537 24.3088C28.6537 20.8488 25.8437 18.0388 22.3837 18.0388H14.7812C12.4319 18.0388 10.1211 20.2795 10.1211 22.9395C9.90623 30.7051 15.7731 38.7144 24.0164 38.1435C33.3531 37.4968 37 33.2988 37 24.5176Z" fill="url(#paint2_radial_637_22375)"/>
<path d="M37 24.5176C36.96 20.2576 35.2837 16.9924 32.0837 14.6424C31.9486 14.5432 31.9402 14.3636 32.0837 14.197C32.9922 13.1425 32.9299 11.7179 32.4375 10.5723C32.2812 10.2088 31.844 9.5213 31.2734 10.0176C30.7028 10.5138 29.7537 11.7188 29.7537 11.7188C29.25 12.4236 29.2265 12.9549 29.3906 13.8299C29.3906 13.8299 29.4218 14.0332 29.4765 14.197C29.5312 14.3609 29.2695 14.197 28.9219 14.1033C28.5742 14.0095 27.8281 13.8299 26.7968 14.8457C26.7968 14.8457 25.4415 16.3101 25.3281 16.8142C25.2147 17.3183 25.6865 17.467 25.8672 17.5095C27.5587 17.9075 28.6054 17.748 29.8633 16.4902C30.0002 16.3968 30.1183 16.3924 30.2422 16.5488C32.0859 18.877 32.9665 22.1937 32.4737 25.0888C32.0267 27.715 28.4844 26.7207 28.6537 24.3088C28.6537 20.8488 25.8437 18.0388 22.3837 18.0388H14.7812C12.4319 18.0388 10.1211 20.2795 10.1211 22.9395C9.90623 30.7051 15.7731 38.7144 24.0164 38.1435C33.3531 37.4968 37 33.2988 37 24.5176Z" fill="url(#paint3_radial_637_22375)"/>
<path d="M37 24.5176C36.96 20.2576 35.2837 16.9924 32.0837 14.6424C31.9486 14.5432 31.9402 14.3636 32.0837 14.197C32.9922 13.1425 32.9299 11.7179 32.4375 10.5723C32.2812 10.2088 31.844 9.5213 31.2734 10.0176C30.7028 10.5138 29.7537 11.7188 29.7537 11.7188C29.25 12.4236 29.2265 12.9549 29.3906 13.8299C29.3906 13.8299 29.4218 14.0332 29.4765 14.197C29.5312 14.3609 29.2695 14.197 28.9219 14.1033C28.5742 14.0095 27.8281 13.8299 26.7968 14.8457C26.7968 14.8457 25.4415 16.3101 25.3281 16.8142C25.2147 17.3183 25.6865 17.467 25.8672 17.5095C27.5587 17.9075 28.6054 17.748 29.8633 16.4902C30.0002 16.3968 30.1183 16.3924 30.2422 16.5488C32.0859 18.877 32.9665 22.1937 32.4737 25.0888C32.0267 27.715 28.4844 26.7207 28.6537 24.3088C28.6537 20.8488 25.8437 18.0388 22.3837 18.0388H14.7812C12.4319 18.0388 10.1211 20.2795 10.1211 22.9395C9.90623 30.7051 15.7731 38.7144 24.0164 38.1435C33.3531 37.4968 37 33.2988 37 24.5176Z" fill="url(#paint4_radial_637_22375)"/>
<path d="M37 24.5176C36.96 20.2576 35.2837 16.9924 32.0837 14.6424C31.9486 14.5432 31.9402 14.3636 32.0837 14.197C32.9922 13.1425 32.9299 11.7179 32.4375 10.5723C32.2812 10.2088 31.844 9.5213 31.2734 10.0176C30.7028 10.5138 29.7537 11.7188 29.7537 11.7188C29.25 12.4236 29.2265 12.9549 29.3906 13.8299C29.3906 13.8299 29.4218 14.0332 29.4765 14.197C29.5312 14.3609 29.2695 14.197 28.9219 14.1033C28.5742 14.0095 27.8281 13.8299 26.7968 14.8457C26.7968 14.8457 25.4415 16.3101 25.3281 16.8142C25.2147 17.3183 25.6865 17.467 25.8672 17.5095C27.5587 17.9075 28.6054 17.748 29.8633 16.4902C30.0002 16.3968 30.1183 16.3924 30.2422 16.5488C32.0859 18.877 32.9665 22.1937 32.4737 25.0888C32.0267 27.715 28.4844 26.7207 28.6537 24.3088C28.6537 20.8488 25.8437 18.0388 22.3837 18.0388H14.7812C12.4319 18.0388 10.1211 20.2795 10.1211 22.9395C9.90623 30.7051 15.7731 38.7144 24.0164 38.1435C33.3531 37.4968 37 33.2988 37 24.5176Z" fill="url(#paint5_radial_637_22375)"/>
<path d="M37 24.5176C36.96 20.2576 35.2837 16.9924 32.0837 14.6424C31.9486 14.5432 31.9402 14.3636 32.0837 14.197C32.9922 13.1425 32.9299 11.7179 32.4375 10.5723C32.2812 10.2088 31.844 9.5213 31.2734 10.0176C30.7028 10.5138 29.7537 11.7188 29.7537 11.7188C29.25 12.4236 29.2265 12.9549 29.3906 13.8299C29.3906 13.8299 29.4218 14.0332 29.4765 14.197C29.5312 14.3609 29.2695 14.197 28.9219 14.1033C28.5742 14.0095 27.8281 13.8299 26.7968 14.8457C26.7968 14.8457 25.4415 16.3101 25.3281 16.8142C25.2147 17.3183 25.6865 17.467 25.8672 17.5095C27.5587 17.9075 28.6054 17.748 29.8633 16.4902C30.0002 16.3968 30.1183 16.3924 30.2422 16.5488C32.0859 18.877 32.9665 22.1937 32.4737 25.0888C32.0267 27.715 28.4844 26.7207 28.6537 24.3088C28.6537 20.8488 25.8437 18.0388 22.3837 18.0388H14.7812C12.4319 18.0388 10.1211 20.2795 10.1211 22.9395C9.90623 30.7051 15.7731 38.7144 24.0164 38.1435C33.3531 37.4968 37 33.2988 37 24.5176Z" fill="url(#paint6_radial_637_22375)"/>
<path d="M37 24.5176C36.96 20.2576 35.2837 16.9924 32.0837 14.6424C31.9486 14.5432 31.9402 14.3636 32.0837 14.197C32.9922 13.1425 32.9299 11.7179 32.4375 10.5723C32.2812 10.2088 31.844 9.5213 31.2734 10.0176C30.7028 10.5138 29.7537 11.7188 29.7537 11.7188C29.25 12.4236 29.2265 12.9549 29.3906 13.8299C29.3906 13.8299 29.4218 14.0332 29.4765 14.197C29.5312 14.3609 29.2695 14.197 28.9219 14.1033C28.5742 14.0095 27.8281 13.8299 26.7968 14.8457C26.7968 14.8457 25.4415 16.3101 25.3281 16.8142C25.2147 17.3183 25.6865 17.467 25.8672 17.5095C27.5587 17.9075 28.6054 17.748 29.8633 16.4902C30.0002 16.3968 30.1183 16.3924 30.2422 16.5488C32.0859 18.877 32.9665 22.1937 32.4737 25.0888C32.0267 27.715 28.4844 26.7207 28.6537 24.3088C28.6537 20.8488 25.8437 18.0388 22.3837 18.0388H14.7812C12.4319 18.0388 10.1211 20.2795 10.1211 22.9395C9.90623 30.7051 15.7731 38.7144 24.0164 38.1435C33.3531 37.4968 37 33.2988 37 24.5176Z" fill="url(#paint7_radial_637_22375)"/>
<path d="M37 24.5176C36.96 20.2576 35.2837 16.9924 32.0837 14.6424C31.9486 14.5432 31.9402 14.3636 32.0837 14.197C32.9922 13.1425 32.9299 11.7179 32.4375 10.5723C32.2812 10.2088 31.844 9.5213 31.2734 10.0176C30.7028 10.5138 29.7537 11.7188 29.7537 11.7188C29.25 12.4236 29.2265 12.9549 29.3906 13.8299C29.3906 13.8299 29.4218 14.0332 29.4765 14.197C29.5312 14.3609 29.2695 14.197 28.9219 14.1033C28.5742 14.0095 27.8281 13.8299 26.7968 14.8457C26.7968 14.8457 25.4415 16.3101 25.3281 16.8142C25.2147 17.3183 25.6865 17.467 25.8672 17.5095C27.5587 17.9075 28.6054 17.748 29.8633 16.4902C30.0002 16.3968 30.1183 16.3924 30.2422 16.5488C32.0859 18.877 32.9665 22.1937 32.4737 25.0888C32.0267 27.715 28.4844 26.7207 28.6537 24.3088C28.6537 20.8488 25.8437 18.0388 22.3837 18.0388H14.7812C12.4319 18.0388 10.1211 20.2795 10.1211 22.9395C9.90623 30.7051 15.7731 38.7144 24.0164 38.1435C33.3531 37.4968 37 33.2988 37 24.5176Z" fill="url(#paint8_radial_637_22375)"/>
<path d="M37 24.5176C36.96 20.2576 35.2837 16.9924 32.0837 14.6424C31.9486 14.5432 31.9402 14.3636 32.0837 14.197C32.9922 13.1425 32.9299 11.7179 32.4375 10.5723C32.2812 10.2088 31.844 9.5213 31.2734 10.0176C30.7028 10.5138 29.7537 11.7188 29.7537 11.7188C29.25 12.4236 29.2265 12.9549 29.3906 13.8299C29.3906 13.8299 29.4218 14.0332 29.4765 14.197C29.5312 14.3609 29.2695 14.197 28.9219 14.1033C28.5742 14.0095 27.8281 13.8299 26.7968 14.8457C26.7968 14.8457 25.4415 16.3101 25.3281 16.8142C25.2147 17.3183 25.6865 17.467 25.8672 17.5095C27.5587 17.9075 28.6054 17.748 29.8633 16.4902C30.0002 16.3968 30.1183 16.3924 30.2422 16.5488C32.0859 18.877 32.9665 22.1937 32.4737 25.0888C32.0267 27.715 28.4844 26.7207 28.6537 24.3088C28.6537 20.8488 25.8437 18.0388 22.3837 18.0388H14.7812C12.4319 18.0388 10.1211 20.2795 10.1211 22.9395C9.90623 30.7051 15.7731 38.7144 24.0164 38.1435C33.3531 37.4968 37 33.2988 37 24.5176Z" fill="url(#paint9_radial_637_22375)" fill-opacity="0.5"/>
<path d="M37 24.5176C36.96 20.2576 35.2837 16.9924 32.0837 14.6424C31.9486 14.5432 31.9402 14.3636 32.0837 14.197C32.9922 13.1425 32.9299 11.7179 32.4375 10.5723C32.2812 10.2088 31.844 9.5213 31.2734 10.0176C30.7028 10.5138 29.7537 11.7188 29.7537 11.7188C29.25 12.4236 29.2265 12.9549 29.3906 13.8299C29.3906 13.8299 29.4218 14.0332 29.4765 14.197C29.5312 14.3609 29.2695 14.197 28.9219 14.1033C28.5742 14.0095 27.8281 13.8299 26.7968 14.8457C26.7968 14.8457 25.4415 16.3101 25.3281 16.8142C25.2147 17.3183 25.6865 17.467 25.8672 17.5095C27.5587 17.9075 28.6054 17.748 29.8633 16.4902C30.0002 16.3968 30.1183 16.3924 30.2422 16.5488C32.0859 18.877 32.9665 22.1937 32.4737 25.0888C32.0267 27.715 28.4844 26.7207 28.6537 24.3088C28.6537 20.8488 25.8437 18.0388 22.3837 18.0388H14.7812C12.4319 18.0388 10.1211 20.2795 10.1211 22.9395C9.90623 30.7051 15.7731 38.7144 24.0164 38.1435C33.3531 37.4968 37 33.2988 37 24.5176Z" fill="url(#paint10_radial_637_22375)"/>
<path d="M37 24.5176C36.96 20.2576 35.2837 16.9924 32.0837 14.6424C31.9486 14.5432 31.9402 14.3636 32.0837 14.197C32.9922 13.1425 32.9299 11.7179 32.4375 10.5723C32.2812 10.2088 31.844 9.5213 31.2734 10.0176C30.7028 10.5138 29.7537 11.7188 29.7537 11.7188C29.25 12.4236 29.2265 12.9549 29.3906 13.8299C29.3906 13.8299 29.4218 14.0332 29.4765 14.197C29.5312 14.3609 29.2695 14.197 28.9219 14.1033C28.5742 14.0095 27.8281 13.8299 26.7968 14.8457C26.7968 14.8457 25.4415 16.3101 25.3281 16.8142C25.2147 17.3183 25.6865 17.467 25.8672 17.5095C27.5587 17.9075 28.6054 17.748 29.8633 16.4902C30.0002 16.3968 30.1183 16.3924 30.2422 16.5488C32.0859 18.877 32.9665 22.1937 32.4737 25.0888C32.0267 27.715 28.4844 26.7207 28.6537 24.3088C28.6537 20.8488 25.8437 18.0388 22.3837 18.0388H14.7812C12.4319 18.0388 10.1211 20.2795 10.1211 22.9395C9.90623 30.7051 15.7731 38.7144 24.0164 38.1435C33.3531 37.4968 37 33.2988 37 24.5176Z" fill="url(#paint11_radial_637_22375)"/>
<path d="M37 24.5176C36.96 20.2576 35.2837 16.9924 32.0837 14.6424C31.9486 14.5432 31.9402 14.3636 32.0837 14.197C32.9922 13.1425 32.9299 11.7179 32.4375 10.5723C32.2812 10.2088 31.844 9.5213 31.2734 10.0176C30.7028 10.5138 29.7537 11.7188 29.7537 11.7188C29.25 12.4236 29.2265 12.9549 29.3906 13.8299C29.3906 13.8299 29.4218 14.0332 29.4765 14.197C29.5312 14.3609 29.2695 14.197 28.9219 14.1033C28.5742 14.0095 27.8281 13.8299 26.7968 14.8457C26.7968 14.8457 25.4415 16.3101 25.3281 16.8142C25.2147 17.3183 25.6865 17.467 25.8672 17.5095C27.5587 17.9075 28.6054 17.748 29.8633 16.4902C30.0002 16.3968 30.1183 16.3924 30.2422 16.5488C32.0859 18.877 32.9665 22.1937 32.4737 25.0888C32.0267 27.715 28.4844 26.7207 28.6537 24.3088C28.6537 20.8488 25.8437 18.0388 22.3837 18.0388H14.7812C12.4319 18.0388 10.1211 20.2795 10.1211 22.9395C9.90623 30.7051 15.7731 38.7144 24.0164 38.1435C33.3531 37.4968 37 33.2988 37 24.5176Z" fill="url(#paint12_radial_637_22375)"/>
<g filter="url(#filter0_f_637_22375)">
<path d="M27.9375 26.5798C27.1733 25.4144 26.6281 23.5116 26.4135 21.8562C26.3114 21.0689 25.6689 20.4236 24.875 20.4236C24.0811 20.4236 23.4289 21.0708 23.501 21.8614C23.9614 26.9058 26.8191 28.9781 28.625 29.2361C30.2 29.4611 31.7396 28.3923 32.125 27.5798C31.1458 27.8819 28.9375 28.1048 27.9375 26.5798Z" fill="url(#paint13_linear_637_22375)"/>
</g>
<path d="M12.0037 17.0486C12.5559 17.0486 13.0037 16.6009 13.0037 16.0486C13.0037 15.4963 12.5559 15.0486 12.0037 15.0486C11.4514 15.0486 11.0037 15.4963 11.0037 16.0486C11.0037 16.6009 11.4514 17.0486 12.0037 17.0486Z" fill="url(#paint14_radial_637_22375)"/>
<path d="M12.0037 17.0486C12.5559 17.0486 13.0037 16.6009 13.0037 16.0486C13.0037 15.4963 12.5559 15.0486 12.0037 15.0486C11.4514 15.0486 11.0037 15.4963 11.0037 16.0486C11.0037 16.6009 11.4514 17.0486 12.0037 17.0486Z" fill="url(#paint15_radial_637_22375)"/>
<path d="M26.0957 12.1736C26.7677 12.1736 27.3125 11.6288 27.3125 10.9568C27.3125 10.2848 26.7677 9.73999 26.0957 9.73999C25.4237 9.73999 24.8789 10.2848 24.8789 10.9568C24.8789 11.6288 25.4237 12.1736 26.0957 12.1736Z" fill="url(#paint16_radial_637_22375)"/>
<path d="M26.0957 12.1736C26.7677 12.1736 27.3125 11.6288 27.3125 10.9568C27.3125 10.2848 26.7677 9.73999 26.0957 9.73999C25.4237 9.73999 24.8789 10.2848 24.8789 10.9568C24.8789 11.6288 25.4237 12.1736 26.0957 12.1736Z" fill="url(#paint17_radial_637_22375)"/>
<path d="M26.0957 12.1736C26.7677 12.1736 27.3125 11.6288 27.3125 10.9568C27.3125 10.2848 26.7677 9.73999 26.0957 9.73999C25.4237 9.73999 24.8789 10.2848 24.8789 10.9568C24.8789 11.6288 25.4237 12.1736 26.0957 12.1736Z" fill="url(#paint18_radial_637_22375)"/>
<path d="M21.0037 10.0486C20.2337 10.0486 19.5337 10.3686 19.0037 10.8786C18.4737 10.3686 17.7737 10.0486 17.0037 10.0486C15.3437 10.0486 14.0037 11.3886 14.0037 13.0486V13.5186C14.0037 14.3586 14.6937 15.0686 15.5337 15.0486C16.3437 15.0286 17.0037 14.3686 17.0037 13.5486C17.0037 13.2786 17.2337 13.0486 17.5037 13.0486C17.7637 13.0486 17.9737 13.2386 18.0037 13.4786L18.4337 16.5486C18.4737 16.8386 18.7137 17.0486 19.0037 17.0486C19.2937 17.0486 19.5337 16.8386 19.5737 16.5486L20.0037 13.4786C20.0337 13.2386 20.2437 13.0486 20.5037 13.0486C20.7737 13.0486 21.0037 13.2786 21.0037 13.5486C21.0037 14.3686 21.6637 15.0286 22.4737 15.0486C23.3137 15.0686 24.0037 14.3586 24.0037 13.5186V13.0486C24.0037 11.3886 22.6637 10.0486 21.0037 10.0486Z" fill="url(#paint19_linear_637_22375)"/>
<path d="M21.0037 10.0486C20.2337 10.0486 19.5337 10.3686 19.0037 10.8786C18.4737 10.3686 17.7737 10.0486 17.0037 10.0486C15.3437 10.0486 14.0037 11.3886 14.0037 13.0486V13.5186C14.0037 14.3586 14.6937 15.0686 15.5337 15.0486C16.3437 15.0286 17.0037 14.3686 17.0037 13.5486C17.0037 13.2786 17.2337 13.0486 17.5037 13.0486C17.7637 13.0486 17.9737 13.2386 18.0037 13.4786L18.4337 16.5486C18.4737 16.8386 18.7137 17.0486 19.0037 17.0486C19.2937 17.0486 19.5337 16.8386 19.5737 16.5486L20.0037 13.4786C20.0337 13.2386 20.2437 13.0486 20.5037 13.0486C20.7737 13.0486 21.0037 13.2786 21.0037 13.5486C21.0037 14.3686 21.6637 15.0286 22.4737 15.0486C23.3137 15.0686 24.0037 14.3586 24.0037 13.5186V13.0486C24.0037 11.3886 22.6637 10.0486 21.0037 10.0486Z" fill="url(#paint20_radial_637_22375)"/>
<path d="M21.0037 10.0486C20.2337 10.0486 19.5337 10.3686 19.0037 10.8786C18.4737 10.3686 17.7737 10.0486 17.0037 10.0486C15.3437 10.0486 14.0037 11.3886 14.0037 13.0486V13.5186C14.0037 14.3586 14.6937 15.0686 15.5337 15.0486C16.3437 15.0286 17.0037 14.3686 17.0037 13.5486C17.0037 13.2786 17.2337 13.0486 17.5037 13.0486C17.7637 13.0486 17.9737 13.2386 18.0037 13.4786L18.4337 16.5486C18.4737 16.8386 18.7137 17.0486 19.0037 17.0486C19.2937 17.0486 19.5337 16.8386 19.5737 16.5486L20.0037 13.4786C20.0337 13.2386 20.2437 13.0486 20.5037 13.0486C20.7737 13.0486 21.0037 13.2786 21.0037 13.5486C21.0037 14.3686 21.6637 15.0286 22.4737 15.0486C23.3137 15.0686 24.0037 14.3586 24.0037 13.5186V13.0486C24.0037 11.3886 22.6637 10.0486 21.0037 10.0486Z" fill="url(#paint21_radial_637_22375)"/>
<path d="M21.0037 10.0486C20.2337 10.0486 19.5337 10.3686 19.0037 10.8786C18.4737 10.3686 17.7737 10.0486 17.0037 10.0486C15.3437 10.0486 14.0037 11.3886 14.0037 13.0486V13.5186C14.0037 14.3586 14.6937 15.0686 15.5337 15.0486C16.3437 15.0286 17.0037 14.3686 17.0037 13.5486C17.0037 13.2786 17.2337 13.0486 17.5037 13.0486C17.7637 13.0486 17.9737 13.2386 18.0037 13.4786L18.4337 16.5486C18.4737 16.8386 18.7137 17.0486 19.0037 17.0486C19.2937 17.0486 19.5337 16.8386 19.5737 16.5486L20.0037 13.4786C20.0337 13.2386 20.2437 13.0486 20.5037 13.0486C20.7737 13.0486 21.0037 13.2786 21.0037 13.5486C21.0037 14.3686 21.6637 15.0286 22.4737 15.0486C23.3137 15.0686 24.0037 14.3586 24.0037 13.5186V13.0486C24.0037 11.3886 22.6637 10.0486 21.0037 10.0486Z" fill="url(#paint22_radial_637_22375)"/>
<path d="M21.0037 10.0486C20.2337 10.0486 19.5337 10.3686 19.0037 10.8786C18.4737 10.3686 17.7737 10.0486 17.0037 10.0486C15.3437 10.0486 14.0037 11.3886 14.0037 13.0486V13.5186C14.0037 14.3586 14.6937 15.0686 15.5337 15.0486C16.3437 15.0286 17.0037 14.3686 17.0037 13.5486C17.0037 13.2786 17.2337 13.0486 17.5037 13.0486C17.7637 13.0486 17.9737 13.2386 18.0037 13.4786L18.4337 16.5486C18.4737 16.8386 18.7137 17.0486 19.0037 17.0486C19.2937 17.0486 19.5337 16.8386 19.5737 16.5486L20.0037 13.4786C20.0337 13.2386 20.2437 13.0486 20.5037 13.0486C20.7737 13.0486 21.0037 13.2786 21.0037 13.5486C21.0037 14.3686 21.6637 15.0286 22.4737 15.0486C23.3137 15.0686 24.0037 14.3586 24.0037 13.5186V13.0486C24.0037 11.3886 22.6637 10.0486 21.0037 10.0486Z" fill="url(#paint23_radial_637_22375)"/>
<path d="M21.0037 10.0486C20.2337 10.0486 19.5337 10.3686 19.0037 10.8786C18.4737 10.3686 17.7737 10.0486 17.0037 10.0486C15.3437 10.0486 14.0037 11.3886 14.0037 13.0486V13.5186C14.0037 14.3586 14.6937 15.0686 15.5337 15.0486C16.3437 15.0286 17.0037 14.3686 17.0037 13.5486C17.0037 13.2786 17.2337 13.0486 17.5037 13.0486C17.7637 13.0486 17.9737 13.2386 18.0037 13.4786L18.4337 16.5486C18.4737 16.8386 18.7137 17.0486 19.0037 17.0486C19.2937 17.0486 19.5337 16.8386 19.5737 16.5486L20.0037 13.4786C20.0337 13.2386 20.2437 13.0486 20.5037 13.0486C20.7737 13.0486 21.0037 13.2786 21.0037 13.5486C21.0037 14.3686 21.6637 15.0286 22.4737 15.0486C23.3137 15.0686 24.0037 14.3586 24.0037 13.5186V13.0486C24.0037 11.3886 22.6637 10.0486 21.0037 10.0486Z" fill="url(#paint24_radial_637_22375)"/>
<path d="M21.0037 10.0486C20.2337 10.0486 19.5337 10.3686 19.0037 10.8786C18.4737 10.3686 17.7737 10.0486 17.0037 10.0486C15.3437 10.0486 14.0037 11.3886 14.0037 13.0486V13.5186C14.0037 14.3586 14.6937 15.0686 15.5337 15.0486C16.3437 15.0286 17.0037 14.3686 17.0037 13.5486C17.0037 13.2786 17.2337 13.0486 17.5037 13.0486C17.7637 13.0486 17.9737 13.2386 18.0037 13.4786L18.4337 16.5486C18.4737 16.8386 18.7137 17.0486 19.0037 17.0486C19.2937 17.0486 19.5337 16.8386 19.5737 16.5486L20.0037 13.4786C20.0337 13.2386 20.2437 13.0486 20.5037 13.0486C20.7737 13.0486 21.0037 13.2786 21.0037 13.5486C21.0037 14.3686 21.6637 15.0286 22.4737 15.0486C23.3137 15.0686 24.0037 14.3586 24.0037 13.5186V13.0486C24.0037 11.3886 22.6637 10.0486 21.0037 10.0486Z" fill="url(#paint25_radial_637_22375)"/>
<path d="M21.0037 10.0486C20.2337 10.0486 19.5337 10.3686 19.0037 10.8786C18.4737 10.3686 17.7737 10.0486 17.0037 10.0486C15.3437 10.0486 14.0037 11.3886 14.0037 13.0486V13.5186C14.0037 14.3586 14.6937 15.0686 15.5337 15.0486C16.3437 15.0286 17.0037 14.3686 17.0037 13.5486C17.0037 13.2786 17.2337 13.0486 17.5037 13.0486C17.7637 13.0486 17.9737 13.2386 18.0037 13.4786L18.4337 16.5486C18.4737 16.8386 18.7137 17.0486 19.0037 17.0486C19.2937 17.0486 19.5337 16.8386 19.5737 16.5486L20.0037 13.4786C20.0337 13.2386 20.2437 13.0486 20.5037 13.0486C20.7737 13.0486 21.0037 13.2786 21.0037 13.5486C21.0037 14.3686 21.6637 15.0286 22.4737 15.0486C23.3137 15.0686 24.0037 14.3586 24.0037 13.5186V13.0486C24.0037 11.3886 22.6637 10.0486 21.0037 10.0486Z" fill="url(#paint26_radial_637_22375)"/>
<path fill-rule="evenodd" clip-rule="evenodd" d="M30.398 36.813C24.8591 35.1782 24.7796 33.7597 24.5158 29.0479C24.5106 28.9557 24.5054 28.8622 24.5 28.7674C24.3358 25.8563 20.7344 24.158 18.8125 24.0486C16.9742 23.944 10.6754 24.0395 10.1313 24.048C10.4697 31.4474 16.1652 38.6871 24.0164 38.1433C26.5485 37.9679 28.6621 37.5313 30.398 36.813Z" fill="url(#paint27_radial_637_22375)"/>
<path fill-rule="evenodd" clip-rule="evenodd" d="M30.398 36.813C24.8591 35.1782 24.7796 33.7597 24.5158 29.0479C24.5106 28.9557 24.5054 28.8622 24.5 28.7674C24.3358 25.8563 20.7344 24.158 18.8125 24.0486C16.9742 23.944 10.6754 24.0395 10.1313 24.048C10.4697 31.4474 16.1652 38.6871 24.0164 38.1433C26.5485 37.9679 28.6621 37.5313 30.398 36.813Z" fill="url(#paint28_radial_637_22375)"/>
<path fill-rule="evenodd" clip-rule="evenodd" d="M30.398 36.813C24.8591 35.1782 24.7796 33.7597 24.5158 29.0479C24.5106 28.9557 24.5054 28.8622 24.5 28.7674C24.3358 25.8563 20.7344 24.158 18.8125 24.0486C16.9742 23.944 10.6754 24.0395 10.1313 24.048C10.4697 31.4474 16.1652 38.6871 24.0164 38.1433C26.5485 37.9679 28.6621 37.5313 30.398 36.813Z" fill="url(#paint29_radial_637_22375)"/>
<path fill-rule="evenodd" clip-rule="evenodd" d="M30.398 36.813C24.8591 35.1782 24.7796 33.7597 24.5158 29.0479C24.5106 28.9557 24.5054 28.8622 24.5 28.7674C24.3358 25.8563 20.7344 24.158 18.8125 24.0486C16.9742 23.944 10.6754 24.0395 10.1313 24.048C10.4697 31.4474 16.1652 38.6871 24.0164 38.1433C26.5485 37.9679 28.6621 37.5313 30.398 36.813Z" fill="url(#paint30_radial_637_22375)"/>
<path fill-rule="evenodd" clip-rule="evenodd" d="M30.398 36.813C24.8591 35.1782 24.7796 33.7597 24.5158 29.0479C24.5106 28.9557 24.5054 28.8622 24.5 28.7674C24.3358 25.8563 20.7344 24.158 18.8125 24.0486C16.9742 23.944 10.6754 24.0395 10.1313 24.048C10.4697 31.4474 16.1652 38.6871 24.0164 38.1433C26.5485 37.9679 28.6621 37.5313 30.398 36.813Z" fill="url(#paint31_radial_637_22375)"/>
<g filter="url(#filter1_f_637_22375)">
<rect x="22.6459" y="21.2168" width="0.996094" height="1.97266" rx="0.498047" fill="#2DA6FF"/>
</g>
<rect x="23.0189" y="21.0762" width="0.996094" height="1.97266" rx="0.498047" fill="url(#paint32_linear_637_22375)"/>
<rect x="23.0189" y="21.0762" width="0.996094" height="1.97266" rx="0.498047" fill="url(#paint33_linear_637_22375)"/>
<rect x="23.0189" y="21.0762" width="0.996094" height="1.97266" rx="0.498047" fill="url(#paint34_radial_637_22375)"/>
<g filter="url(#filter2_f_637_22375)">
<path d="M19.4844 11.9393C19.8177 11.4862 20.6777 10.8335 21.7188 11.158C22.9219 11.533 23.0573 12.5799 23.1094 13.0018" stroke="url(#paint35_linear_637_22375)" stroke-width="0.75" stroke-linecap="round"/>
</g>
<g filter="url(#filter3_f_637_22375)">
<path d="M19.0037 11.9393C18.6703 11.4862 17.8103 10.8335 16.7693 11.158C15.5662 11.533 15.4307 12.5799 15.3787 13.0018" stroke="url(#paint36_linear_637_22375)" stroke-width="0.75" stroke-linecap="round"/>
</g>
<path d="M19.0156 13.3923V10.8767L20.4062 10.3767L21.1406 11.9548L19.0156 13.3923Z" fill="url(#paint37_radial_637_22375)"/>
<g filter="url(#filter4_f_637_22375)">
<path d="M19.4375 14.0017L19.2031 16.3611" stroke="#82D6FF" stroke-width="0.4" stroke-linecap="round"/>
</g>
<g filter="url(#filter5_f_637_22375)">
<path d="M31.8438 15.4861C34.3437 17.5798 37.4127 21.8139 35.2156 30.0013" stroke="url(#paint38_linear_637_22375)" stroke-width="0.75" stroke-linecap="round"/>
</g>
<path d="M35.4376 35.6424C35.4376 35.6424 29.0782 30.6893 27.8438 30.3924C26.6094 30.0955 25.3126 30.7518 25.7188 32.5486C25.9119 33.4026 27.4376 35.1736 28.2813 35.8299C28.9563 36.3549 29.6876 36.7518 30.8126 36.9549C31.9376 37.158 33.0782 37.0642 34.9063 37.0642C36.2813 37.0642 35.9688 36.132 35.4376 35.6424Z" fill="url(#paint39_linear_637_22375)"/>
<path d="M35.4376 35.6424C35.4376 35.6424 29.0782 30.6893 27.8438 30.3924C26.6094 30.0955 25.3126 30.7518 25.7188 32.5486C25.9119 33.4026 27.4376 35.1736 28.2813 35.8299C28.9563 36.3549 29.6876 36.7518 30.8126 36.9549C31.9376 37.158 33.0782 37.0642 34.9063 37.0642C36.2813 37.0642 35.9688 36.132 35.4376 35.6424Z" fill="url(#paint40_linear_637_22375)"/>
<path d="M35.4376 35.6424C35.4376 35.6424 29.0782 30.6893 27.8438 30.3924C26.6094 30.0955 25.3126 30.7518 25.7188 32.5486C25.9119 33.4026 27.4376 35.1736 28.2813 35.8299C28.9563 36.3549 29.6876 36.7518 30.8126 36.9549C31.9376 37.158 33.0782 37.0642 34.9063 37.0642C36.2813 37.0642 35.9688 36.132 35.4376 35.6424Z" fill="url(#paint41_radial_637_22375)"/>
<g filter="url(#filter6_f_637_22375)">
<path d="M35.5223 35.5505L35.5226 35.5502L35.5144 35.5438L35.4376 35.6424C35.5144 35.5438 35.5143 35.5438 35.5143 35.5437L35.5141 35.5435L35.5132 35.5429L35.5097 35.5401L35.496 35.5295L35.4424 35.4879C35.3955 35.4515 35.3265 35.3981 35.2383 35.33C35.0618 35.1939 34.8083 34.9991 34.5004 34.7644C33.8845 34.2951 33.0503 33.6662 32.1774 33.0278C31.3047 32.3897 30.3921 31.7413 29.6198 31.2335C29.2337 30.9797 28.8813 30.7601 28.5857 30.5942C28.2938 30.4304 28.0459 30.3124 27.873 30.2709C27.2296 30.1161 26.5531 30.2055 26.0867 30.5888C25.613 30.9781 25.3863 31.645 25.5969 32.5762C25.6498 32.8104 25.7903 33.0955 25.9757 33.3951C26.1626 33.6972 26.4011 34.0235 26.6589 34.3421C27.1733 34.9778 27.7724 35.5925 28.2046 35.9286C28.8932 36.4641 29.6428 36.8708 30.7904 37.0779C31.6364 37.2306 32.4948 37.2179 33.6232 37.2013C34.0148 37.1955 34.4389 37.1892 34.9063 37.1892C35.2614 37.1892 35.5259 37.1295 35.7092 37.0176C35.8986 36.902 35.9939 36.735 36.0112 36.5485C36.0279 36.3687 35.9717 36.1814 35.8826 36.0127C35.7927 35.8426 35.6644 35.6815 35.5223 35.5505Z" stroke="url(#paint42_linear_637_22375)" stroke-width="0.25"/>
</g>
<g filter="url(#filter7_f_637_22375)">
<path d="M29.2149 14.6706L30.4062 15.158C28.5942 17.8917 26.5166 17.2416 25.7505 17.0019L25.75 17.0017L27.1828 15.2008C27.6671 14.5921 28.495 14.3761 29.2149 14.6706Z" fill="url(#paint43_linear_637_22375)"/>
</g>
<g filter="url(#filter8_f_637_22375)">
<path d="M31.875 10.3923C32.2812 11.0278 32.7875 12.6673 31.5625 14.1423" stroke="url(#paint44_linear_637_22375)" stroke-width="0.25" stroke-linecap="round"/>
</g>
<defs>
<filter id="filter0_f_637_22375" x="21.9956" y="18.9236" width="11.6294" height="11.8429" filterUnits="userSpaceOnUse" color-interpolation-filters="sRGB">
<feFlood flood-opacity="0" result="BackgroundImageFix"/>
<feBlend mode="normal" in="SourceGraphic" in2="BackgroundImageFix" result="shape"/>
<feGaussianBlur stdDeviation="0.75" result="effect1_foregroundBlur_637_22375"/>
</filter>
<filter id="filter1_f_637_22375" x="22.1459" y="20.7168" width="1.99609" height="2.97266" filterUnits="userSpaceOnUse" color-interpolation-filters="sRGB">
<feFlood flood-opacity="0" result="BackgroundImageFix"/>
<feBlend mode="normal" in="SourceGraphic" in2="BackgroundImageFix" result="shape"/>
<feGaussianBlur stdDeviation="0.25" result="effect1_foregroundBlur_637_22375"/>
</filter>
<filter id="filter2_f_637_22375" x="17.8594" y="9.4447" width="6.875" height="5.18213" filterUnits="userSpaceOnUse" color-interpolation-filters="sRGB">
<feFlood flood-opacity="0" result="BackgroundImageFix"/>
<feBlend mode="normal" in="SourceGraphic" in2="BackgroundImageFix" result="shape"/>
<feGaussianBlur stdDeviation="0.625" result="effect1_foregroundBlur_637_22375"/>
</filter>
<filter id="filter3_f_637_22375" x="13.7537" y="9.4447" width="6.875" height="5.18213" filterUnits="userSpaceOnUse" color-interpolation-filters="sRGB">
<feFlood flood-opacity="0" result="BackgroundImageFix"/>
<feBlend mode="normal" in="SourceGraphic" in2="BackgroundImageFix" result="shape"/>
<feGaussianBlur stdDeviation="0.625" result="effect1_foregroundBlur_637_22375"/>
</filter>
<filter id="filter4_f_637_22375" x="18.5031" y="13.3016" width="1.63452" height="3.75952" filterUnits="userSpaceOnUse" color-interpolation-filters="sRGB">
<feFlood flood-opacity="0" result="BackgroundImageFix"/>
<feBlend mode="normal" in="SourceGraphic" in2="BackgroundImageFix" result="shape"/>
<feGaussianBlur stdDeviation="0.25" result="effect1_foregroundBlur_637_22375"/>
</filter>
<filter id="filter5_f_637_22375" x="30.4688" y="14.1111" width="6.87439" height="17.2653" filterUnits="userSpaceOnUse" color-interpolation-filters="sRGB">
<feFlood flood-opacity="0" result="BackgroundImageFix"/>
<feBlend mode="normal" in="SourceGraphic" in2="BackgroundImageFix" result="shape"/>
<feGaussianBlur stdDeviation="0.5" result="effect1_foregroundBlur_637_22375"/>
</filter>
<filter id="filter6_f_637_22375" x="25.1431" y="29.8239" width="11.2461" height="7.76196" filterUnits="userSpaceOnUse" color-interpolation-filters="sRGB">
<feFlood flood-opacity="0" result="BackgroundImageFix"/>
<feBlend mode="normal" in="SourceGraphic" in2="BackgroundImageFix" result="shape"/>
<feGaussianBlur stdDeviation="0.125" result="effect1_foregroundBlur_637_22375"/>
</filter>
<filter id="filter7_f_637_22375" x="25.25" y="14.0402" width="5.65625" height="3.70459" filterUnits="userSpaceOnUse" color-interpolation-filters="sRGB">
<feFlood flood-opacity="0" result="BackgroundImageFix"/>
<feBlend mode="normal" in="SourceGraphic" in2="BackgroundImageFix" result="shape"/>
<feGaussianBlur stdDeviation="0.25" result="effect1_foregroundBlur_637_22375"/>
</filter>
<filter id="filter8_f_637_22375" x="30.9375" y="9.76733" width="2.02014" height="5" filterUnits="userSpaceOnUse" color-interpolation-filters="sRGB">
<feFlood flood-opacity="0" result="BackgroundImageFix"/>
<feBlend mode="normal" in="SourceGraphic" in2="BackgroundImageFix" result="shape"/>
<feGaussianBlur stdDeviation="0.25" result="effect1_foregroundBlur_637_22375"/>
</filter>
<linearGradient id="paint0_linear_637_22375" x1="13.75" y1="33.9861" x2="14.8438" y2="35.3611" gradientUnits="userSpaceOnUse">
<stop stop-color="#7BB2FF"/>
<stop offset="1" stop-color="#7BB2FF" stop-opacity="0"/>
</linearGradient>
<radialGradient id="paint1_radial_637_22375" cx="0" cy="0" r="1" gradientUnits="userSpaceOnUse" gradientTransform="translate(15.25 38.7986) rotate(-115.659) scale(3.53622 4.63978)">
<stop stop-color="#BB9FFF"/>
<stop offset="1" stop-color="#BB9FFF" stop-opacity="0"/>
</radialGradient>
<radialGradient id="paint2_radial_637_22375" cx="0" cy="0" r="1" gradientUnits="userSpaceOnUse" gradientTransform="translate(25.25 32.5488) rotate(-108.75) scale(7.19429 6.79684)">
<stop stop-color="#489AF9"/>
<stop offset="1" stop-color="#489AF9" stop-opacity="0"/>
</radialGradient>
<radialGradient id="paint3_radial_637_22375" cx="0" cy="0" r="1" gradientUnits="userSpaceOnUse" gradientTransform="translate(32.1875 14.0488) rotate(93.1983) scale(10.0822 7.1191)">
<stop stop-color="#40A9FF"/>
<stop offset="1" stop-color="#40A9FF" stop-opacity="0"/>
</radialGradient>
<radialGradient id="paint4_radial_637_22375" cx="0" cy="0" r="1" gradientUnits="userSpaceOnUse" gradientTransform="translate(11.25 19.9863) rotate(40.3331) scale(4.34544 7.12403)">
<stop stop-color="#8BC7EA"/>
<stop offset="1" stop-color="#8BC7EA" stop-opacity="0"/>
</radialGradient>
<radialGradient id="paint5_radial_637_22375" cx="0" cy="0" r="1" gradientUnits="userSpaceOnUse" gradientTransform="translate(12.3125 25.9863) rotate(-45) scale(6.27557 4.38106)">
<stop stop-color="#3C95EF"/>
<stop offset="1" stop-color="#3C95EF" stop-opacity="0"/>
</radialGradient>
<radialGradient id="paint6_radial_637_22375" cx="0" cy="0" r="1" gradientUnits="userSpaceOnUse" gradientTransform="translate(31.1875 24.5488) rotate(91.9091) scale(3.75208 3.49806)">
<stop stop-color="#2A95F1"/>
<stop offset="1" stop-color="#2A95F1" stop-opacity="0"/>
</radialGradient>
<radialGradient id="paint7_radial_637_22375" cx="0" cy="0" r="1" gradientUnits="userSpaceOnUse" gradientTransform="translate(30.625 19.9863) rotate(71.7321) scale(6.77916 2.51808)">
<stop stop-color="#2A95F1"/>
<stop offset="1" stop-color="#2A95F1" stop-opacity="0"/>
</radialGradient>
<radialGradient id="paint8_radial_637_22375" cx="0" cy="0" r="1" gradientUnits="userSpaceOnUse" gradientTransform="translate(27.9375 36.3301) rotate(-131.955) scale(4.16013 4.74088)">
<stop stop-color="#4766FF"/>
<stop offset="1" stop-color="#4766FF" stop-opacity="0"/>
</radialGradient>
<radialGradient id="paint9_radial_637_22375" cx="0" cy="0" r="1" gradientUnits="userSpaceOnUse" gradientTransform="translate(31.3125 31.4863) rotate(-32.1957) scale(5.9824 4.57162)">
<stop stop-color="#5DBFFF"/>
<stop offset="1" stop-color="#5DBFFF" stop-opacity="0"/>
</radialGradient>
<radialGradient id="paint10_radial_637_22375" cx="0" cy="0" r="1" gradientUnits="userSpaceOnUse" gradientTransform="translate(32.8906 14.7519) rotate(-171.621) scale(2.03737 1.5227)">
<stop stop-color="#6CCAFF"/>
<stop offset="1" stop-color="#6CCAFF" stop-opacity="0"/>
</radialGradient>
<radialGradient id="paint11_radial_637_22375" cx="0" cy="0" r="1" gradientUnits="userSpaceOnUse" gradientTransform="translate(23.5577 22.2676) rotate(146.179) scale(8.75856 9.5011)">
<stop stop-color="#4CCCFF"/>
<stop offset="1" stop-color="#4CCCFF" stop-opacity="0"/>
</radialGradient>
<radialGradient id="paint12_radial_637_22375" cx="0" cy="0" r="1" gradientUnits="userSpaceOnUse" gradientTransform="translate(33.8125 35.2363) rotate(-44.6903) scale(8.17604 2.52262)">
<stop stop-color="#4E97FF"/>
<stop offset="1" stop-color="#4E97FF" stop-opacity="0"/>
</radialGradient>
<linearGradient id="paint13_linear_637_22375" x1="25.4375" y1="21.0486" x2="30.3125" y2="29.2665" gradientUnits="userSpaceOnUse">
<stop stop-color="#68DDFF"/>
<stop offset="1" stop-color="#68DDFF" stop-opacity="0"/>
</linearGradient>
<radialGradient id="paint14_radial_637_22375" cx="0" cy="0" r="1" gradientUnits="userSpaceOnUse" gradientTransform="translate(12.4218 15.8455) rotate(113.688) scale(1.04082 1.09327)">
<stop stop-color="#7FDAFE"/>
<stop offset="1" stop-color="#5FC4F4"/>
</radialGradient>
<radialGradient id="paint15_radial_637_22375" cx="0" cy="0" r="1" gradientUnits="userSpaceOnUse" gradientTransform="translate(12.6562 15.5173) rotate(143.242) scale(2.06265 1.48739)">
<stop offset="0.783036" stop-color="#9FE1FE" stop-opacity="0"/>
<stop offset="1" stop-color="#9FE1FE"/>
</radialGradient>
<radialGradient id="paint16_radial_637_22375" cx="0" cy="0" r="1" gradientUnits="userSpaceOnUse" gradientTransform="translate(26.75 10.5486) rotate(107.735) scale(2.14797)">
<stop offset="0.0112" stop-color="#CAF1FF"/>
<stop offset="1" stop-color="#64D1F2"/>
</radialGradient>
<radialGradient id="paint17_radial_637_22375" cx="0" cy="0" r="1" gradientUnits="userSpaceOnUse" gradientTransform="translate(25.9219 11.3143) rotate(81.3349) scale(1.15379 1.40042)">
<stop stop-color="#B2DBFF"/>
<stop offset="1" stop-color="#B2DBFF" stop-opacity="0"/>
</radialGradient>
<radialGradient id="paint18_radial_637_22375" cx="0" cy="0" r="1" gradientUnits="userSpaceOnUse" gradientTransform="translate(26.0957 10.0955) rotate(90) scale(2.14844 1.75764)">
<stop offset="0.878136" stop-color="#9AC5FF" stop-opacity="0"/>
<stop offset="1" stop-color="#9AC5FF"/>
</radialGradient>
<linearGradient id="paint19_linear_637_22375" x1="19.0037" y1="10.5486" x2="19.0037" y2="16.6736" gradientUnits="userSpaceOnUse">
<stop stop-color="#B6E1ED"/>
<stop offset="1" stop-color="#4CCAEE"/>
</linearGradient>
<radialGradient id="paint20_radial_637_22375" cx="0" cy="0" r="1" gradientUnits="userSpaceOnUse" gradientTransform="translate(23.2812 10.0486) rotate(122.106) scale(1.8815 3.57652)">
<stop stop-color="#C1EDFD"/>
<stop offset="1" stop-color="#C1EDFD" stop-opacity="0"/>
</radialGradient>
<radialGradient id="paint21_radial_637_22375" cx="0" cy="0" r="1" gradientUnits="userSpaceOnUse" gradientTransform="translate(23.5312 15.6111) rotate(-115.263) scale(3.07539 3.89999)">
<stop stop-color="#3FBEF0"/>
<stop offset="1" stop-color="#3FBEF0" stop-opacity="0"/>
</radialGradient>
<radialGradient id="paint22_radial_637_22375" cx="0" cy="0" r="1" gradientUnits="userSpaceOnUse" gradientTransform="translate(14.7187 16.2361) rotate(-75.8542) scale(3.96395 2.63779)">
<stop stop-color="#3FBEF0"/>
<stop offset="1" stop-color="#3FBEF0" stop-opacity="0"/>
</radialGradient>
<radialGradient id="paint23_radial_637_22375" cx="0" cy="0" r="1" gradientUnits="userSpaceOnUse" gradientTransform="translate(18.0468 15.908) rotate(-97.6712) scale(3.86269 1.04391)">
<stop stop-color="#3FBEF0"/>
<stop offset="1" stop-color="#3FBEF0" stop-opacity="0"/>
</radialGradient>
<radialGradient id="paint24_radial_637_22375" cx="0" cy="0" r="1" gradientUnits="userSpaceOnUse" gradientTransform="translate(20.1093 16.2517) rotate(-87.3867) scale(3.76955 0.772297)">
<stop stop-color="#3FBEF0"/>
<stop offset="1" stop-color="#3FBEF0" stop-opacity="0"/>
</radialGradient>
<radialGradient id="paint25_radial_637_22375" cx="0" cy="0" r="1" gradientUnits="userSpaceOnUse" gradientTransform="translate(12.7343 11.658) rotate(21.0634) scale(2.47808 5.90741)">
<stop stop-color="#C7EBF7"/>
<stop offset="1" stop-color="#C7EBF7" stop-opacity="0"/>
</radialGradient>
<radialGradient id="paint26_radial_637_22375" cx="0" cy="0" r="1" gradientUnits="userSpaceOnUse" gradientTransform="translate(19.0037 10.6814) rotate(90) scale(1.375 2.04279)">
<stop stop-color="#7FCFEA"/>
<stop offset="1" stop-color="#B1DDEC" stop-opacity="0"/>
</radialGradient>
<radialGradient id="paint27_radial_637_22375" cx="0" cy="0" r="1" gradientUnits="userSpaceOnUse" gradientTransform="translate(22.5 26.5486) rotate(98.0317) scale(20.5768 29.4257)">
<stop offset="0.200351" stop-color="#ACDBFF"/>
<stop offset="0.752888" stop-color="#CB98FF"/>
</radialGradient>
<radialGradient id="paint28_radial_637_22375" cx="0" cy="0" r="1" gradientUnits="userSpaceOnUse" gradientTransform="translate(25.375 22.3612) rotate(90) scale(17.1875 24.3041)">
<stop offset="0.741818" stop-color="#CA99FF" stop-opacity="0"/>
<stop offset="1" stop-color="#CA99FF"/>
</radialGradient>
<radialGradient id="paint29_radial_637_22375" cx="0" cy="0" r="1" gradientUnits="userSpaceOnUse" gradientTransform="translate(27.5625 24.3612) rotate(162.597) scale(17.5535 25.1022)">
<stop offset="0.622211" stop-color="#84B1FF" stop-opacity="0"/>
<stop offset="1" stop-color="#84B1FF"/>
</radialGradient>
<radialGradient id="paint30_radial_637_22375" cx="0" cy="0" r="1" gradientUnits="userSpaceOnUse" gradientTransform="translate(27.5625 24.3612) rotate(161.499) scale(17.2344 19.684)">
<stop offset="0.915194" stop-color="#B6E3FF" stop-opacity="0"/>
<stop offset="1" stop-color="#B6E3FF"/>
</radialGradient>
<radialGradient id="paint31_radial_637_22375" cx="0" cy="0" r="1" gradientUnits="userSpaceOnUse" gradientTransform="translate(17.5313 37.0487) rotate(8.93562) scale(5.02979 0.492193)">
<stop stop-color="#D3A1FF"/>
<stop offset="1" stop-color="#D3A1FF" stop-opacity="0"/>
</radialGradient>
<linearGradient id="paint32_linear_637_22375" x1="24.015" y1="21.9392" x2="23.4384" y2="21.9392" gradientUnits="userSpaceOnUse">
<stop offset="0.225" stop-color="#594C4F"/>
<stop offset="1" stop-color="#392833"/>
</linearGradient>
<linearGradient id="paint33_linear_637_22375" x1="24.1707" y1="22.9564" x2="24.1707" y2="22.0165" gradientUnits="userSpaceOnUse">
<stop stop-color="#492847"/>
<stop offset="1" stop-color="#552D52" stop-opacity="0"/>
</linearGradient>
<radialGradient id="paint34_radial_637_22375" cx="0" cy="0" r="1" gradientUnits="userSpaceOnUse" gradientTransform="translate(23.6241 22.2179) rotate(-104.924) scale(1.15519 1.25088)">
<stop offset="0.813951" stop-color="#594C4F" stop-opacity="0"/>
<stop offset="1" stop-color="#594C4F"/>
</radialGradient>
<linearGradient id="paint35_linear_637_22375" x1="22.4375" y1="11.5955" x2="20.4687" y2="12.0363" gradientUnits="userSpaceOnUse">
<stop stop-color="#C8F2FF"/>
<stop offset="1" stop-color="#B7D4FF"/>
</linearGradient>
<linearGradient id="paint36_linear_637_22375" x1="16.0505" y1="11.5955" x2="18.0193" y2="12.0363" gradientUnits="userSpaceOnUse">
<stop stop-color="#C8F2FF"/>
<stop offset="1" stop-color="#B7D4FF"/>
</linearGradient>
<radialGradient id="paint37_radial_637_22375" cx="0" cy="0" r="1" gradientUnits="userSpaceOnUse" gradientTransform="translate(19.0156 11.6189) rotate(-2.12108) scale(0.211082 1.80475)">
<stop stop-color="#A1D2F0"/>
<stop offset="1" stop-color="#A1D2F0" stop-opacity="0"/>
</radialGradient>
<linearGradient id="paint38_linear_637_22375" x1="33.526" y1="15.0538" x2="36.4688" y2="33.6423" gradientUnits="userSpaceOnUse">
<stop stop-color="#6AD3FF"/>
<stop offset="1" stop-color="#6AD3FF" stop-opacity="0"/>
</linearGradient>
<linearGradient id="paint39_linear_637_22375" x1="34.1251" y1="37.7986" x2="27.1876" y2="29.2674" gradientUnits="userSpaceOnUse">
<stop stop-color="#4884FF"/>
<stop offset="1" stop-color="#47A9F3"/>
</linearGradient>
<linearGradient id="paint40_linear_637_22375" x1="31.2501" y1="32.2987" x2="30.5626" y2="33.2674" gradientUnits="userSpaceOnUse">
<stop stop-color="#58B4FF"/>
<stop offset="1" stop-color="#58B4FF" stop-opacity="0"/>
</linearGradient>
<radialGradient id="paint41_radial_637_22375" cx="0" cy="0" r="1" gradientUnits="userSpaceOnUse" gradientTransform="translate(31.0938 32.4549) rotate(112.59) scale(4.63702 7.67937)">
<stop offset="0.69316" stop-color="#547BFF" stop-opacity="0"/>
<stop offset="1" stop-color="#547BFF"/>
</radialGradient>
<linearGradient id="paint42_linear_637_22375" x1="28.4063" y1="29.8299" x2="28.4063" y2="30.9862" gradientUnits="userSpaceOnUse">
<stop stop-color="#65C5FF"/>
<stop offset="1" stop-color="#65C5FF" stop-opacity="0"/>
</linearGradient>
<linearGradient id="paint43_linear_637_22375" x1="26.8906" y1="15.7986" x2="29.0469" y2="16.8923" gradientUnits="userSpaceOnUse">
<stop stop-color="#5BBCFF"/>
<stop offset="1" stop-color="#5BBCFF" stop-opacity="0"/>
</linearGradient>
<linearGradient id="paint44_linear_637_22375" x1="31.9475" y1="10.3923" x2="31.9475" y2="14.1423" gradientUnits="userSpaceOnUse">
<stop stop-color="#6CCFFF"/>
<stop offset="1" stop-color="#6CCFFF" stop-opacity="0"/>
</linearGradient>
</defs>
</svg>
