<svg width="48" height="48" viewBox="0 0 48 48" fill="none" xmlns="http://www.w3.org/2000/svg">
<rect width="48" height="48" rx="24" fill="#F2F5FF"/>
<path d="M33.85 20.4487L31.55 17.2887C32.18 16.7387 32.57 15.9387 32.57 15.0387C32.57 13.3787 31.23 12.0387 29.57 12.0387C28.5 12.0387 27.56 12.5987 27.03 13.4487C26.09 13.0887 25.07 12.8987 24 12.8987C22.93 12.8987 21.91 13.0987 20.97 13.4487C20.44 12.5987 19.5 12.0387 18.43 12.0387C16.77 12.0387 15.43 13.3787 15.43 15.0387C15.43 15.9387 15.83 16.7387 16.45 17.2887L14.15 20.4487C13.4 21.4787 13 22.7287 13 23.9987C13 27.3387 15.7 30.0387 19.04 30.0387H24H28.96C32.3 30.0387 35 27.3387 35 23.9987C35 22.7287 34.6 21.4787 33.85 20.4487Z" fill="url(#paint0_radial_637_22372)"/>
<path d="M33.85 20.4487L31.55 17.2887C32.18 16.7387 32.57 15.9387 32.57 15.0387C32.57 13.3787 31.23 12.0387 29.57 12.0387C28.5 12.0387 27.56 12.5987 27.03 13.4487C26.09 13.0887 25.07 12.8987 24 12.8987C22.93 12.8987 21.91 13.0987 20.97 13.4487C20.44 12.5987 19.5 12.0387 18.43 12.0387C16.77 12.0387 15.43 13.3787 15.43 15.0387C15.43 15.9387 15.83 16.7387 16.45 17.2887L14.15 20.4487C13.4 21.4787 13 22.7287 13 23.9987C13 27.3387 15.7 30.0387 19.04 30.0387H24H28.96C32.3 30.0387 35 27.3387 35 23.9987C35 22.7287 34.6 21.4787 33.85 20.4487Z" fill="url(#paint1_radial_637_22372)"/>
<path d="M33.85 20.4487L31.55 17.2887C32.18 16.7387 32.57 15.9387 32.57 15.0387C32.57 13.3787 31.23 12.0387 29.57 12.0387C28.5 12.0387 27.56 12.5987 27.03 13.4487C26.09 13.0887 25.07 12.8987 24 12.8987C22.93 12.8987 21.91 13.0987 20.97 13.4487C20.44 12.5987 19.5 12.0387 18.43 12.0387C16.77 12.0387 15.43 13.3787 15.43 15.0387C15.43 15.9387 15.83 16.7387 16.45 17.2887L14.15 20.4487C13.4 21.4787 13 22.7287 13 23.9987C13 27.3387 15.7 30.0387 19.04 30.0387H24H28.96C32.3 30.0387 35 27.3387 35 23.9987C35 22.7287 34.6 21.4787 33.85 20.4487Z" fill="url(#paint2_radial_637_22372)" fill-opacity="0.4"/>
<path d="M33.85 20.4487L31.55 17.2887C32.18 16.7387 32.57 15.9387 32.57 15.0387C32.57 13.3787 31.23 12.0387 29.57 12.0387C28.5 12.0387 27.56 12.5987 27.03 13.4487C26.09 13.0887 25.07 12.8987 24 12.8987C22.93 12.8987 21.91 13.0987 20.97 13.4487C20.44 12.5987 19.5 12.0387 18.43 12.0387C16.77 12.0387 15.43 13.3787 15.43 15.0387C15.43 15.9387 15.83 16.7387 16.45 17.2887L14.15 20.4487C13.4 21.4787 13 22.7287 13 23.9987C13 27.3387 15.7 30.0387 19.04 30.0387H24H28.96C32.3 30.0387 35 27.3387 35 23.9987C35 22.7287 34.6 21.4787 33.85 20.4487Z" fill="url(#paint3_radial_637_22372)"/>
<path d="M33.85 20.4487L31.55 17.2887C32.18 16.7387 32.57 15.9387 32.57 15.0387C32.57 13.3787 31.23 12.0387 29.57 12.0387C28.5 12.0387 27.56 12.5987 27.03 13.4487C26.09 13.0887 25.07 12.8987 24 12.8987C22.93 12.8987 21.91 13.0987 20.97 13.4487C20.44 12.5987 19.5 12.0387 18.43 12.0387C16.77 12.0387 15.43 13.3787 15.43 15.0387C15.43 15.9387 15.83 16.7387 16.45 17.2887L14.15 20.4487C13.4 21.4787 13 22.7287 13 23.9987C13 27.3387 15.7 30.0387 19.04 30.0387H24H28.96C32.3 30.0387 35 27.3387 35 23.9987C35 22.7287 34.6 21.4787 33.85 20.4487Z" fill="url(#paint4_radial_637_22372)"/>
<path d="M33.85 20.4487L31.55 17.2887C32.18 16.7387 32.57 15.9387 32.57 15.0387C32.57 13.3787 31.23 12.0387 29.57 12.0387C28.5 12.0387 27.56 12.5987 27.03 13.4487C26.09 13.0887 25.07 12.8987 24 12.8987C22.93 12.8987 21.91 13.0987 20.97 13.4487C20.44 12.5987 19.5 12.0387 18.43 12.0387C16.77 12.0387 15.43 13.3787 15.43 15.0387C15.43 15.9387 15.83 16.7387 16.45 17.2887L14.15 20.4487C13.4 21.4787 13 22.7287 13 23.9987C13 27.3387 15.7 30.0387 19.04 30.0387H24H28.96C32.3 30.0387 35 27.3387 35 23.9987C35 22.7287 34.6 21.4787 33.85 20.4487Z" fill="url(#paint5_radial_637_22372)"/>
<path d="M31.5618 17.2783L31.5549 17.2687C30.5489 15.8688 29.3881 14.2536 26.8398 13.3847L26.8399 13.3786C26.9036 13.4012 26.967 13.4246 27.03 13.4487C27.56 12.5987 28.5 12.0387 29.57 12.0387C31.23 12.0387 32.57 13.3787 32.57 15.0387C32.57 15.9331 32.1849 16.7287 31.5618 17.2783Z" fill="url(#paint6_radial_637_22372)"/>
<path d="M31.5618 17.2783L31.5549 17.2687C30.5489 15.8688 29.3881 14.2536 26.8398 13.3847L26.8399 13.3786C26.9036 13.4012 26.967 13.4246 27.03 13.4487C27.56 12.5987 28.5 12.0387 29.57 12.0387C31.23 12.0387 32.57 13.3787 32.57 15.0387C32.57 15.9331 32.1849 16.7287 31.5618 17.2783Z" fill="url(#paint7_radial_637_22372)"/>
<path d="M16.4343 17.2783L16.4412 17.2687C17.4472 15.8688 18.608 14.2536 21.1562 13.3847L21.1561 13.3786C21.0924 13.4012 21.0291 13.4246 20.9661 13.4487C20.4361 12.5987 19.4961 12.0387 18.4261 12.0387C16.7661 12.0387 15.4261 13.3787 15.4261 15.0387C15.4261 15.9331 15.8112 16.7287 16.4343 17.2783Z" fill="url(#paint8_radial_637_22372)"/>
<path d="M17.0401 16.4687C17.1301 16.3387 17.2201 16.2187 17.3201 16.0987V16.0887C18.0601 15.1687 18.9901 14.4087 20.0401 13.8587C19.6801 13.3587 19.0901 13.0387 18.4301 13.0387C17.3301 13.0387 16.4301 13.9387 16.4301 15.0387C16.4301 15.5987 16.6601 16.1087 17.0401 16.4687Z" fill="url(#paint9_radial_637_22372)"/>
<path d="M17.0401 16.4687C17.1301 16.3387 17.2201 16.2187 17.3201 16.0987V16.0887C18.0601 15.1687 18.9901 14.4087 20.0401 13.8587C19.6801 13.3587 19.0901 13.0387 18.4301 13.0387C17.3301 13.0387 16.4301 13.9387 16.4301 15.0387C16.4301 15.5987 16.6601 16.1087 17.0401 16.4687Z" fill="url(#paint10_linear_637_22372)"/>
<path d="M17.0401 16.4687C17.1301 16.3387 17.2201 16.2187 17.3201 16.0987V16.0887C18.0601 15.1687 18.9901 14.4087 20.0401 13.8587C19.6801 13.3587 19.0901 13.0387 18.4301 13.0387C17.3301 13.0387 16.4301 13.9387 16.4301 15.0387C16.4301 15.5987 16.6601 16.1087 17.0401 16.4687Z" fill="url(#paint11_radial_637_22372)"/>
<path d="M30.68 16.0987C30.78 16.2287 30.88 16.3487 30.97 16.4787C31.34 16.1187 31.58 15.6087 31.58 15.0487C31.58 13.9487 30.68 13.0487 29.58 13.0487C28.92 13.0487 28.33 13.3687 27.96 13.8687C29.01 14.4087 29.94 15.1787 30.68 16.0987Z" fill="url(#paint12_radial_637_22372)"/>
<path d="M36.66 20.3687L37.41 20.7387C37.68 20.8787 38 20.6787 38 20.3787V16.4487C38 15.5387 37.64 14.6787 37 14.0387C36.36 13.3987 35.49 13.0387 34.59 13.0387H34L34.59 11.2687C34.79 10.6687 34.34 10.0387 33.7 10.0387H27C26.35 10.0387 25.72 10.2487 25.2 10.6387C24.48 11.1787 24.05 12.0087 24 12.8987H23.99C23.95 12.0087 23.51 11.1787 22.79 10.6487C22.28 10.2487 21.65 10.0387 21 10.0387H14.3C13.66 10.0387 13.21 10.6687 13.41 11.2687L14 13.0387H13.41C12.51 13.0387 11.64 13.3987 11 14.0387C10.36 14.6787 10 15.5487 10 16.4487V20.3787C10 20.6787 10.32 20.8787 10.59 20.7387L11.34 20.3687C11.62 20.2287 11.92 20.3587 11.99 20.6587C12.04 20.8687 11.94 21.0687 11.75 21.1587L10.75 21.6587C10.29 21.8887 10 22.3587 10 22.8787V29.3287C10 32.1187 11.85 34.5687 14.53 35.3387L23.41 37.8787C23.79 37.9887 24.2 37.9887 24.59 37.8787L33.47 35.3387C36.15 34.5687 38 32.1187 38 29.3287V22.8787C38 22.3687 37.71 21.8987 37.25 21.6687L36.25 21.1687C36.07 21.0787 35.97 20.8687 36.01 20.6687C36.08 20.3587 36.39 20.2287 36.66 20.3687ZM35 23.9987C35 27.3387 32.3 30.0387 28.96 30.0387H24H19.04C15.7 30.0387 13 27.3387 13 23.9987C13 22.7187 13.4 21.4787 14.15 20.4487L16.45 17.2887C15.8 16.7187 15.4 15.8787 15.43 14.9287C15.49 13.3287 16.82 12.0387 18.42 12.0387C19.49 12.0387 20.44 12.5987 20.97 13.4487C22.66 15.0887 25.34 15.0887 27.03 13.4487C27.56 12.5987 28.5 12.0387 29.58 12.0387C31.18 12.0387 32.52 13.3287 32.57 14.9287C32.6 15.8687 32.2 16.7187 31.55 17.2887L33.85 20.4487C34.6 21.4787 35 22.7287 35 23.9987Z" fill="url(#paint13_linear_637_22372)"/>
<path d="M36.66 20.3687L37.41 20.7387C37.68 20.8787 38 20.6787 38 20.3787V16.4487C38 15.5387 37.64 14.6787 37 14.0387C36.36 13.3987 35.49 13.0387 34.59 13.0387H34L34.59 11.2687C34.79 10.6687 34.34 10.0387 33.7 10.0387H27C26.35 10.0387 25.72 10.2487 25.2 10.6387C24.48 11.1787 24.05 12.0087 24 12.8987H23.99C23.95 12.0087 23.51 11.1787 22.79 10.6487C22.28 10.2487 21.65 10.0387 21 10.0387H14.3C13.66 10.0387 13.21 10.6687 13.41 11.2687L14 13.0387H13.41C12.51 13.0387 11.64 13.3987 11 14.0387C10.36 14.6787 10 15.5487 10 16.4487V20.3787C10 20.6787 10.32 20.8787 10.59 20.7387L11.34 20.3687C11.62 20.2287 11.92 20.3587 11.99 20.6587C12.04 20.8687 11.94 21.0687 11.75 21.1587L10.75 21.6587C10.29 21.8887 10 22.3587 10 22.8787V29.3287C10 32.1187 11.85 34.5687 14.53 35.3387L23.41 37.8787C23.79 37.9887 24.2 37.9887 24.59 37.8787L33.47 35.3387C36.15 34.5687 38 32.1187 38 29.3287V22.8787C38 22.3687 37.71 21.8987 37.25 21.6687L36.25 21.1687C36.07 21.0787 35.97 20.8687 36.01 20.6687C36.08 20.3587 36.39 20.2287 36.66 20.3687ZM35 23.9987C35 27.3387 32.3 30.0387 28.96 30.0387H24H19.04C15.7 30.0387 13 27.3387 13 23.9987C13 22.7187 13.4 21.4787 14.15 20.4487L16.45 17.2887C15.8 16.7187 15.4 15.8787 15.43 14.9287C15.49 13.3287 16.82 12.0387 18.42 12.0387C19.49 12.0387 20.44 12.5987 20.97 13.4487C22.66 15.0887 25.34 15.0887 27.03 13.4487C27.56 12.5987 28.5 12.0387 29.58 12.0387C31.18 12.0387 32.52 13.3287 32.57 14.9287C32.6 15.8687 32.2 16.7187 31.55 17.2887L33.85 20.4487C34.6 21.4787 35 22.7287 35 23.9987Z" fill="url(#paint14_linear_637_22372)"/>
<path d="M36.66 20.3687L37.41 20.7387C37.68 20.8787 38 20.6787 38 20.3787V16.4487C38 15.5387 37.64 14.6787 37 14.0387C36.36 13.3987 35.49 13.0387 34.59 13.0387H34L34.59 11.2687C34.79 10.6687 34.34 10.0387 33.7 10.0387H27C26.35 10.0387 25.72 10.2487 25.2 10.6387C24.48 11.1787 24.05 12.0087 24 12.8987H23.99C23.95 12.0087 23.51 11.1787 22.79 10.6487C22.28 10.2487 21.65 10.0387 21 10.0387H14.3C13.66 10.0387 13.21 10.6687 13.41 11.2687L14 13.0387H13.41C12.51 13.0387 11.64 13.3987 11 14.0387C10.36 14.6787 10 15.5487 10 16.4487V20.3787C10 20.6787 10.32 20.8787 10.59 20.7387L11.34 20.3687C11.62 20.2287 11.92 20.3587 11.99 20.6587C12.04 20.8687 11.94 21.0687 11.75 21.1587L10.75 21.6587C10.29 21.8887 10 22.3587 10 22.8787V29.3287C10 32.1187 11.85 34.5687 14.53 35.3387L23.41 37.8787C23.79 37.9887 24.2 37.9887 24.59 37.8787L33.47 35.3387C36.15 34.5687 38 32.1187 38 29.3287V22.8787C38 22.3687 37.71 21.8987 37.25 21.6687L36.25 21.1687C36.07 21.0787 35.97 20.8687 36.01 20.6687C36.08 20.3587 36.39 20.2287 36.66 20.3687ZM35 23.9987C35 27.3387 32.3 30.0387 28.96 30.0387H24H19.04C15.7 30.0387 13 27.3387 13 23.9987C13 22.7187 13.4 21.4787 14.15 20.4487L16.45 17.2887C15.8 16.7187 15.4 15.8787 15.43 14.9287C15.49 13.3287 16.82 12.0387 18.42 12.0387C19.49 12.0387 20.44 12.5987 20.97 13.4487C22.66 15.0887 25.34 15.0887 27.03 13.4487C27.56 12.5987 28.5 12.0387 29.58 12.0387C31.18 12.0387 32.52 13.3287 32.57 14.9287C32.6 15.8687 32.2 16.7187 31.55 17.2887L33.85 20.4487C34.6 21.4787 35 22.7287 35 23.9987Z" fill="url(#paint15_linear_637_22372)"/>
<path d="M36.66 20.3687L37.41 20.7387C37.68 20.8787 38 20.6787 38 20.3787V16.4487C38 15.5387 37.64 14.6787 37 14.0387C36.36 13.3987 35.49 13.0387 34.59 13.0387H34L34.59 11.2687C34.79 10.6687 34.34 10.0387 33.7 10.0387H27C26.35 10.0387 25.72 10.2487 25.2 10.6387C24.48 11.1787 24.05 12.0087 24 12.8987H23.99C23.95 12.0087 23.51 11.1787 22.79 10.6487C22.28 10.2487 21.65 10.0387 21 10.0387H14.3C13.66 10.0387 13.21 10.6687 13.41 11.2687L14 13.0387H13.41C12.51 13.0387 11.64 13.3987 11 14.0387C10.36 14.6787 10 15.5487 10 16.4487V20.3787C10 20.6787 10.32 20.8787 10.59 20.7387L11.34 20.3687C11.62 20.2287 11.92 20.3587 11.99 20.6587C12.04 20.8687 11.94 21.0687 11.75 21.1587L10.75 21.6587C10.29 21.8887 10 22.3587 10 22.8787V29.3287C10 32.1187 11.85 34.5687 14.53 35.3387L23.41 37.8787C23.79 37.9887 24.2 37.9887 24.59 37.8787L33.47 35.3387C36.15 34.5687 38 32.1187 38 29.3287V22.8787C38 22.3687 37.71 21.8987 37.25 21.6687L36.25 21.1687C36.07 21.0787 35.97 20.8687 36.01 20.6687C36.08 20.3587 36.39 20.2287 36.66 20.3687ZM35 23.9987C35 27.3387 32.3 30.0387 28.96 30.0387H24H19.04C15.7 30.0387 13 27.3387 13 23.9987C13 22.7187 13.4 21.4787 14.15 20.4487L16.45 17.2887C15.8 16.7187 15.4 15.8787 15.43 14.9287C15.49 13.3287 16.82 12.0387 18.42 12.0387C19.49 12.0387 20.44 12.5987 20.97 13.4487C22.66 15.0887 25.34 15.0887 27.03 13.4487C27.56 12.5987 28.5 12.0387 29.58 12.0387C31.18 12.0387 32.52 13.3287 32.57 14.9287C32.6 15.8687 32.2 16.7187 31.55 17.2887L33.85 20.4487C34.6 21.4787 35 22.7287 35 23.9987Z" fill="url(#paint16_radial_637_22372)"/>
<path d="M36.66 20.3687L37.41 20.7387C37.68 20.8787 38 20.6787 38 20.3787V16.4487C38 15.5387 37.64 14.6787 37 14.0387C36.36 13.3987 35.49 13.0387 34.59 13.0387H34L34.59 11.2687C34.79 10.6687 34.34 10.0387 33.7 10.0387H27C26.35 10.0387 25.72 10.2487 25.2 10.6387C24.48 11.1787 24.05 12.0087 24 12.8987H23.99C23.95 12.0087 23.51 11.1787 22.79 10.6487C22.28 10.2487 21.65 10.0387 21 10.0387H14.3C13.66 10.0387 13.21 10.6687 13.41 11.2687L14 13.0387H13.41C12.51 13.0387 11.64 13.3987 11 14.0387C10.36 14.6787 10 15.5487 10 16.4487V20.3787C10 20.6787 10.32 20.8787 10.59 20.7387L11.34 20.3687C11.62 20.2287 11.92 20.3587 11.99 20.6587C12.04 20.8687 11.94 21.0687 11.75 21.1587L10.75 21.6587C10.29 21.8887 10 22.3587 10 22.8787V29.3287C10 32.1187 11.85 34.5687 14.53 35.3387L23.41 37.8787C23.79 37.9887 24.2 37.9887 24.59 37.8787L33.47 35.3387C36.15 34.5687 38 32.1187 38 29.3287V22.8787C38 22.3687 37.71 21.8987 37.25 21.6687L36.25 21.1687C36.07 21.0787 35.97 20.8687 36.01 20.6687C36.08 20.3587 36.39 20.2287 36.66 20.3687ZM35 23.9987C35 27.3387 32.3 30.0387 28.96 30.0387H24H19.04C15.7 30.0387 13 27.3387 13 23.9987C13 22.7187 13.4 21.4787 14.15 20.4487L16.45 17.2887C15.8 16.7187 15.4 15.8787 15.43 14.9287C15.49 13.3287 16.82 12.0387 18.42 12.0387C19.49 12.0387 20.44 12.5987 20.97 13.4487C22.66 15.0887 25.34 15.0887 27.03 13.4487C27.56 12.5987 28.5 12.0387 29.58 12.0387C31.18 12.0387 32.52 13.3287 32.57 14.9287C32.6 15.8687 32.2 16.7187 31.55 17.2887L33.85 20.4487C34.6 21.4787 35 22.7287 35 23.9987Z" fill="url(#paint17_radial_637_22372)"/>
<path d="M36.66 20.3687L37.41 20.7387C37.68 20.8787 38 20.6787 38 20.3787V16.4487C38 15.5387 37.64 14.6787 37 14.0387C36.36 13.3987 35.49 13.0387 34.59 13.0387H34L34.59 11.2687C34.79 10.6687 34.34 10.0387 33.7 10.0387H27C26.35 10.0387 25.72 10.2487 25.2 10.6387C24.48 11.1787 24.05 12.0087 24 12.8987H23.99C23.95 12.0087 23.51 11.1787 22.79 10.6487C22.28 10.2487 21.65 10.0387 21 10.0387H14.3C13.66 10.0387 13.21 10.6687 13.41 11.2687L14 13.0387H13.41C12.51 13.0387 11.64 13.3987 11 14.0387C10.36 14.6787 10 15.5487 10 16.4487V20.3787C10 20.6787 10.32 20.8787 10.59 20.7387L11.34 20.3687C11.62 20.2287 11.92 20.3587 11.99 20.6587C12.04 20.8687 11.94 21.0687 11.75 21.1587L10.75 21.6587C10.29 21.8887 10 22.3587 10 22.8787V29.3287C10 32.1187 11.85 34.5687 14.53 35.3387L23.41 37.8787C23.79 37.9887 24.2 37.9887 24.59 37.8787L33.47 35.3387C36.15 34.5687 38 32.1187 38 29.3287V22.8787C38 22.3687 37.71 21.8987 37.25 21.6687L36.25 21.1687C36.07 21.0787 35.97 20.8687 36.01 20.6687C36.08 20.3587 36.39 20.2287 36.66 20.3687ZM35 23.9987C35 27.3387 32.3 30.0387 28.96 30.0387H24H19.04C15.7 30.0387 13 27.3387 13 23.9987C13 22.7187 13.4 21.4787 14.15 20.4487L16.45 17.2887C15.8 16.7187 15.4 15.8787 15.43 14.9287C15.49 13.3287 16.82 12.0387 18.42 12.0387C19.49 12.0387 20.44 12.5987 20.97 13.4487C22.66 15.0887 25.34 15.0887 27.03 13.4487C27.56 12.5987 28.5 12.0387 29.58 12.0387C31.18 12.0387 32.52 13.3287 32.57 14.9287C32.6 15.8687 32.2 16.7187 31.55 17.2887L33.85 20.4487C34.6 21.4787 35 22.7287 35 23.9987Z" fill="url(#paint18_linear_637_22372)"/>
<path d="M36.66 20.3687L37.41 20.7387C37.68 20.8787 38 20.6787 38 20.3787V16.4487C38 15.5387 37.64 14.6787 37 14.0387C36.36 13.3987 35.49 13.0387 34.59 13.0387H34L34.59 11.2687C34.79 10.6687 34.34 10.0387 33.7 10.0387H27C26.35 10.0387 25.72 10.2487 25.2 10.6387C24.48 11.1787 24.05 12.0087 24 12.8987H23.99C23.95 12.0087 23.51 11.1787 22.79 10.6487C22.28 10.2487 21.65 10.0387 21 10.0387H14.3C13.66 10.0387 13.21 10.6687 13.41 11.2687L14 13.0387H13.41C12.51 13.0387 11.64 13.3987 11 14.0387C10.36 14.6787 10 15.5487 10 16.4487V20.3787C10 20.6787 10.32 20.8787 10.59 20.7387L11.34 20.3687C11.62 20.2287 11.92 20.3587 11.99 20.6587C12.04 20.8687 11.94 21.0687 11.75 21.1587L10.75 21.6587C10.29 21.8887 10 22.3587 10 22.8787V29.3287C10 32.1187 11.85 34.5687 14.53 35.3387L23.41 37.8787C23.79 37.9887 24.2 37.9887 24.59 37.8787L33.47 35.3387C36.15 34.5687 38 32.1187 38 29.3287V22.8787C38 22.3687 37.71 21.8987 37.25 21.6687L36.25 21.1687C36.07 21.0787 35.97 20.8687 36.01 20.6687C36.08 20.3587 36.39 20.2287 36.66 20.3687ZM35 23.9987C35 27.3387 32.3 30.0387 28.96 30.0387H24H19.04C15.7 30.0387 13 27.3387 13 23.9987C13 22.7187 13.4 21.4787 14.15 20.4487L16.45 17.2887C15.8 16.7187 15.4 15.8787 15.43 14.9287C15.49 13.3287 16.82 12.0387 18.42 12.0387C19.49 12.0387 20.44 12.5987 20.97 13.4487C22.66 15.0887 25.34 15.0887 27.03 13.4487C27.56 12.5987 28.5 12.0387 29.58 12.0387C31.18 12.0387 32.52 13.3287 32.57 14.9287C32.6 15.8687 32.2 16.7187 31.55 17.2887L33.85 20.4487C34.6 21.4787 35 22.7287 35 23.9987Z" fill="url(#paint19_radial_637_22372)"/>
<path d="M36.66 20.3687L37.41 20.7387C37.68 20.8787 38 20.6787 38 20.3787V16.4487C38 15.5387 37.64 14.6787 37 14.0387C36.36 13.3987 35.49 13.0387 34.59 13.0387H34L34.59 11.2687C34.79 10.6687 34.34 10.0387 33.7 10.0387H27C26.35 10.0387 25.72 10.2487 25.2 10.6387C24.48 11.1787 24.05 12.0087 24 12.8987H23.99C23.95 12.0087 23.51 11.1787 22.79 10.6487C22.28 10.2487 21.65 10.0387 21 10.0387H14.3C13.66 10.0387 13.21 10.6687 13.41 11.2687L14 13.0387H13.41C12.51 13.0387 11.64 13.3987 11 14.0387C10.36 14.6787 10 15.5487 10 16.4487V20.3787C10 20.6787 10.32 20.8787 10.59 20.7387L11.34 20.3687C11.62 20.2287 11.92 20.3587 11.99 20.6587C12.04 20.8687 11.94 21.0687 11.75 21.1587L10.75 21.6587C10.29 21.8887 10 22.3587 10 22.8787V29.3287C10 32.1187 11.85 34.5687 14.53 35.3387L23.41 37.8787C23.79 37.9887 24.2 37.9887 24.59 37.8787L33.47 35.3387C36.15 34.5687 38 32.1187 38 29.3287V22.8787C38 22.3687 37.71 21.8987 37.25 21.6687L36.25 21.1687C36.07 21.0787 35.97 20.8687 36.01 20.6687C36.08 20.3587 36.39 20.2287 36.66 20.3687ZM35 23.9987C35 27.3387 32.3 30.0387 28.96 30.0387H24H19.04C15.7 30.0387 13 27.3387 13 23.9987C13 22.7187 13.4 21.4787 14.15 20.4487L16.45 17.2887C15.8 16.7187 15.4 15.8787 15.43 14.9287C15.49 13.3287 16.82 12.0387 18.42 12.0387C19.49 12.0387 20.44 12.5987 20.97 13.4487C22.66 15.0887 25.34 15.0887 27.03 13.4487C27.56 12.5987 28.5 12.0387 29.58 12.0387C31.18 12.0387 32.52 13.3287 32.57 14.9287C32.6 15.8687 32.2 16.7187 31.55 17.2887L33.85 20.4487C34.6 21.4787 35 22.7287 35 23.9987Z" fill="url(#paint20_radial_637_22372)"/>
<path d="M36.66 20.3687L37.41 20.7387C37.68 20.8787 38 20.6787 38 20.3787V16.4487C38 15.5387 37.64 14.6787 37 14.0387C36.36 13.3987 35.49 13.0387 34.59 13.0387H34L34.59 11.2687C34.79 10.6687 34.34 10.0387 33.7 10.0387H27C26.35 10.0387 25.72 10.2487 25.2 10.6387C24.48 11.1787 24.05 12.0087 24 12.8987H23.99C23.95 12.0087 23.51 11.1787 22.79 10.6487C22.28 10.2487 21.65 10.0387 21 10.0387H14.3C13.66 10.0387 13.21 10.6687 13.41 11.2687L14 13.0387H13.41C12.51 13.0387 11.64 13.3987 11 14.0387C10.36 14.6787 10 15.5487 10 16.4487V20.3787C10 20.6787 10.32 20.8787 10.59 20.7387L11.34 20.3687C11.62 20.2287 11.92 20.3587 11.99 20.6587C12.04 20.8687 11.94 21.0687 11.75 21.1587L10.75 21.6587C10.29 21.8887 10 22.3587 10 22.8787V29.3287C10 32.1187 11.85 34.5687 14.53 35.3387L23.41 37.8787C23.79 37.9887 24.2 37.9887 24.59 37.8787L33.47 35.3387C36.15 34.5687 38 32.1187 38 29.3287V22.8787C38 22.3687 37.71 21.8987 37.25 21.6687L36.25 21.1687C36.07 21.0787 35.97 20.8687 36.01 20.6687C36.08 20.3587 36.39 20.2287 36.66 20.3687ZM35 23.9987C35 27.3387 32.3 30.0387 28.96 30.0387H24H19.04C15.7 30.0387 13 27.3387 13 23.9987C13 22.7187 13.4 21.4787 14.15 20.4487L16.45 17.2887C15.8 16.7187 15.4 15.8787 15.43 14.9287C15.49 13.3287 16.82 12.0387 18.42 12.0387C19.49 12.0387 20.44 12.5987 20.97 13.4487C22.66 15.0887 25.34 15.0887 27.03 13.4487C27.56 12.5987 28.5 12.0387 29.58 12.0387C31.18 12.0387 32.52 13.3287 32.57 14.9287C32.6 15.8687 32.2 16.7187 31.55 17.2887L33.85 20.4487C34.6 21.4787 35 22.7287 35 23.9987Z" fill="url(#paint21_radial_637_22372)"/>
<path d="M30.0001 10.0387H27.0001C26.3501 10.0387 25.7201 10.2487 25.2001 10.6387C24.4801 11.1787 24.0501 12.0087 24.0001 12.8987H23.9901C23.9501 12.0087 23.5101 11.1787 22.7901 10.6487C22.2801 10.2487 21.6501 10.0387 21.0001 10.0387H17.3519V12.2389C17.6845 12.1096 18.0449 12.0387 18.4201 12.0387C19.4901 12.0387 20.4401 12.5987 20.9701 13.4487C22.6601 15.0887 25.3401 15.0887 27.0301 13.4487C27.5601 12.5987 28.5001 12.0387 29.5801 12.0387C29.7224 12.0387 29.8626 12.0489 30.0001 12.0686V10.0387Z" fill="url(#paint22_radial_637_22372)"/>
<path d="M10.5319 14.623H14.5156L13.9973 13.0387H13.41C12.51 13.0387 11.64 13.3987 11 14.0387C10.8216 14.217 10.665 14.4133 10.5319 14.623Z" fill="url(#paint23_linear_637_22372)"/>
<path d="M10.5319 14.623H14.5156L13.9973 13.0387H13.41C12.51 13.0387 11.64 13.3987 11 14.0387C10.8216 14.217 10.665 14.4133 10.5319 14.623Z" fill="url(#paint24_linear_637_22372)"/>
<path d="M37.4637 14.623H33.48L33.9984 13.0387H34.5857C35.4857 13.0387 36.3557 13.3987 36.9957 14.0387C37.174 14.217 37.3306 14.4133 37.4637 14.623Z" fill="url(#paint25_linear_637_22372)"/>
<path d="M37.4637 14.623H33.48L33.9984 13.0387H34.5857C35.4857 13.0387 36.3557 13.3987 36.9957 14.0387C37.174 14.217 37.3306 14.4133 37.4637 14.623Z" fill="url(#paint26_linear_637_22372)"/>
<path d="M24 35.0387C20.69 35.0387 18 32.3487 18 29.0387V27.4688H30V29.0387C30 32.3487 27.31 35.0387 24 35.0387Z" fill="#FFDEA3"/>
<path d="M24 35.0387C20.69 35.0387 18 32.3487 18 29.0387V27.4688H30V29.0387C30 32.3487 27.31 35.0387 24 35.0387Z" fill="url(#paint27_radial_637_22372)"/>
<path d="M24 35.0387C20.69 35.0387 18 32.3487 18 29.0387V27.4688H30V29.0387C30 32.3487 27.31 35.0387 24 35.0387Z" fill="url(#paint28_radial_637_22372)"/>
<path d="M24 35.0387C20.69 35.0387 18 32.3487 18 29.0387V27.4688H30V29.0387C30 32.3487 27.31 35.0387 24 35.0387Z" fill="url(#paint29_radial_637_22372)"/>
<path d="M24 35.0387C20.69 35.0387 18 32.3487 18 29.0387V27.4688H30V29.0387C30 32.3487 27.31 35.0387 24 35.0387Z" fill="url(#paint30_radial_637_22372)"/>
<g filter="url(#filter0_i_637_22372)">
<path d="M27.43 24.8988C27.16 24.8988 26.9 24.7788 26.72 24.5788L24.73 22.2788C24.34 21.8288 23.65 21.8288 23.26 22.2788L21.27 24.5788C21.09 24.7888 20.83 24.8988 20.56 24.8988C19.15 24.8988 18 26.0488 18 27.4688C18 28.8888 19.15 30.0388 20.57 30.0388H21.86C22.75 30.0388 23.54 29.5788 24 28.8888C24.46 29.5788 25.25 30.0388 26.14 30.0388H27.43C28.85 30.0388 30 28.8888 30 27.4688C30 26.0488 28.85 24.8988 27.43 24.8988Z" fill="url(#paint31_linear_637_22372)"/>
<path d="M27.43 24.8988C27.16 24.8988 26.9 24.7788 26.72 24.5788L24.73 22.2788C24.34 21.8288 23.65 21.8288 23.26 22.2788L21.27 24.5788C21.09 24.7888 20.83 24.8988 20.56 24.8988C19.15 24.8988 18 26.0488 18 27.4688C18 28.8888 19.15 30.0388 20.57 30.0388H21.86C22.75 30.0388 23.54 29.5788 24 28.8888C24.46 29.5788 25.25 30.0388 26.14 30.0388H27.43C28.85 30.0388 30 28.8888 30 27.4688C30 26.0488 28.85 24.8988 27.43 24.8988Z" fill="url(#paint32_linear_637_22372)"/>
<path d="M27.43 24.8988C27.16 24.8988 26.9 24.7788 26.72 24.5788L24.73 22.2788C24.34 21.8288 23.65 21.8288 23.26 22.2788L21.27 24.5788C21.09 24.7888 20.83 24.8988 20.56 24.8988C19.15 24.8988 18 26.0488 18 27.4688C18 28.8888 19.15 30.0388 20.57 30.0388H21.86C22.75 30.0388 23.54 29.5788 24 28.8888C24.46 29.5788 25.25 30.0388 26.14 30.0388H27.43C28.85 30.0388 30 28.8888 30 27.4688C30 26.0488 28.85 24.8988 27.43 24.8988Z" fill="url(#paint33_linear_637_22372)"/>
<path d="M27.43 24.8988C27.16 24.8988 26.9 24.7788 26.72 24.5788L24.73 22.2788C24.34 21.8288 23.65 21.8288 23.26 22.2788L21.27 24.5788C21.09 24.7888 20.83 24.8988 20.56 24.8988C19.15 24.8988 18 26.0488 18 27.4688C18 28.8888 19.15 30.0388 20.57 30.0388H21.86C22.75 30.0388 23.54 29.5788 24 28.8888C24.46 29.5788 25.25 30.0388 26.14 30.0388H27.43C28.85 30.0388 30 28.8888 30 27.4688C30 26.0488 28.85 24.8988 27.43 24.8988Z" fill="url(#paint34_radial_637_22372)"/>
</g>
<g filter="url(#filter1_f_637_22372)">
<path d="M26.9064 22.0153C26.9064 21.5967 27.2457 21.2574 27.6642 21.2574C28.0827 21.2574 28.422 21.5967 28.422 22.0153V23.4996C28.422 23.9182 28.0827 24.2574 27.6642 24.2574C27.2457 24.2574 26.9064 23.9182 26.9064 23.4996V22.0153Z" fill="#E78D29"/>
<path d="M18.8986 22.0153C18.8986 21.5967 19.2378 21.2574 19.6564 21.2574C20.0749 21.2574 20.4142 21.5967 20.4142 22.0153V23.4996C20.4142 23.9182 20.0749 24.2574 19.6564 24.2574C19.2378 24.2574 18.8986 23.9182 18.8986 23.4996V22.0153Z" fill="#E78D29"/>
</g>
<rect x="27.25" y="21.0387" width="1.51562" height="3" rx="0.757812" fill="url(#paint35_linear_637_22372)"/>
<rect x="27.25" y="21.0387" width="1.51562" height="3" rx="0.757812" fill="url(#paint36_linear_637_22372)"/>
<rect x="19.2422" y="21.0387" width="1.51562" height="3" rx="0.757812" fill="url(#paint37_linear_637_22372)"/>
<rect x="19.2422" y="21.0387" width="1.51562" height="3" rx="0.757812" fill="url(#paint38_linear_637_22372)"/>
<rect x="19.2422" y="21.0387" width="1.51562" height="3" rx="0.757812" fill="url(#paint39_linear_637_22372)"/>
<g filter="url(#filter2_f_637_22372)">
<path d="M24.0938 22.2949V25.9199L26.3438 25.1387L24.0938 22.2949Z" fill="#FFEDBA" fill-opacity="0.75"/>
</g>
<g filter="url(#filter3_f_637_22372)">
<path d="M21.2474 26.4364L23.0299 28.2296C23.3132 28.5146 23.7794 28.5146 24.0719 28.2296L25.8543 26.4364C26.1651 26.1238 25.9457 25.5996 25.507 25.5996H21.6039C21.156 25.5996 20.9366 26.1238 21.2474 26.4364Z" fill="url(#paint40_linear_637_22372)"/>
</g>
<path d="M21.49 25.8088L23.44 27.7588C23.75 28.0688 24.26 28.0688 24.58 27.7588L26.53 25.8088C26.87 25.4688 26.63 24.8988 26.15 24.8988H21.88C21.39 24.8988 21.15 25.4688 21.49 25.8088Z" fill="url(#paint41_linear_637_22372)"/>
<path d="M21.49 25.8088L23.44 27.7588C23.75 28.0688 24.26 28.0688 24.58 27.7588L26.53 25.8088C26.87 25.4688 26.63 24.8988 26.15 24.8988H21.88C21.39 24.8988 21.15 25.4688 21.49 25.8088Z" fill="url(#paint42_linear_637_22372)"/>
<path d="M21.49 25.8088L23.44 27.7588C23.75 28.0688 24.26 28.0688 24.58 27.7588L26.53 25.8088C26.87 25.4688 26.63 24.8988 26.15 24.8988H21.88C21.39 24.8988 21.15 25.4688 21.49 25.8088Z" fill="url(#paint43_linear_637_22372)"/>
<path d="M21.49 25.8088L23.44 27.7588C23.75 28.0688 24.26 28.0688 24.58 27.7588L26.53 25.8088C26.87 25.4688 26.63 24.8988 26.15 24.8988H21.88C21.39 24.8988 21.15 25.4688 21.49 25.8088Z" fill="url(#paint44_linear_637_22372)"/>
<g filter="url(#filter4_f_637_22372)">
<ellipse cx="27.611" cy="27.0215" rx="2.06085" ry="1.74219" fill="url(#paint45_radial_637_22372)"/>
</g>
<g filter="url(#filter5_f_637_22372)">
<path d="M24.7969 13.9668C25.1094 13.8783 25.9219 13.7793 26.7031 12.498C27.4938 11.2013 28.6875 11.0918 29.0781 11.0918" stroke="#C49589" stroke-width="0.5" stroke-linecap="round"/>
</g>
<g filter="url(#filter6_f_637_22372)">
<rect x="36.1562" y="22.8475" width="0.8125" height="7.85369" fill="#C39589" fill-opacity="0.5"/>
</g>
<g filter="url(#filter7_f_637_22372)">
<rect x="35.4718" y="14.6787" width="0.8125" height="4.39365" fill="#C39589" fill-opacity="0.75"/>
</g>
<g filter="url(#filter8_f_637_22372)">
<path d="M33.8281 10.9512L33 13.1543" stroke="#C49589" stroke-width="0.2" stroke-linecap="round"/>
</g>
<defs>
<filter id="filter0_i_637_22372" x="18" y="21.6913" width="12" height="8.34753" filterUnits="userSpaceOnUse" color-interpolation-filters="sRGB">
<feFlood flood-opacity="0" result="BackgroundImageFix"/>
<feBlend mode="normal" in="SourceGraphic" in2="BackgroundImageFix" result="shape"/>
<feColorMatrix in="SourceAlpha" type="matrix" values="0 0 0 0 0 0 0 0 0 0 0 0 0 0 0 0 0 0 127 0" result="hardAlpha"/>
<feOffset dy="-0.25"/>
<feGaussianBlur stdDeviation="0.3"/>
<feComposite in2="hardAlpha" operator="arithmetic" k2="-1" k3="1"/>
<feColorMatrix type="matrix" values="0 0 0 0 0.875 0 0 0 0 0.415625 0 0 0 0 0.415625 0 0 0 0.75 0"/>
<feBlend mode="normal" in2="shape" result="effect1_innerShadow_637_22372"/>
</filter>
<filter id="filter1_f_637_22372" x="18.3986" y="20.7574" width="10.5234" height="4" filterUnits="userSpaceOnUse" color-interpolation-filters="sRGB">
<feFlood flood-opacity="0" result="BackgroundImageFix"/>
<feBlend mode="normal" in="SourceGraphic" in2="BackgroundImageFix" result="shape"/>
<feGaussianBlur stdDeviation="0.25" result="effect1_foregroundBlur_637_22372"/>
</filter>
<filter id="filter2_f_637_22372" x="23.0938" y="21.2949" width="4.25" height="5.625" filterUnits="userSpaceOnUse" color-interpolation-filters="sRGB">
<feFlood flood-opacity="0" result="BackgroundImageFix"/>
<feBlend mode="normal" in="SourceGraphic" in2="BackgroundImageFix" result="shape"/>
<feGaussianBlur stdDeviation="0.5" result="effect1_foregroundBlur_637_22372"/>
</filter>
<filter id="filter3_f_637_22372" x="20.6021" y="25.0996" width="5.89795" height="3.84375" filterUnits="userSpaceOnUse" color-interpolation-filters="sRGB">
<feFlood flood-opacity="0" result="BackgroundImageFix"/>
<feBlend mode="normal" in="SourceGraphic" in2="BackgroundImageFix" result="shape"/>
<feGaussianBlur stdDeviation="0.25" result="effect1_foregroundBlur_637_22372"/>
</filter>
<filter id="filter4_f_637_22372" x="24.5502" y="24.2793" width="6.1217" height="5.48438" filterUnits="userSpaceOnUse" color-interpolation-filters="sRGB">
<feFlood flood-opacity="0" result="BackgroundImageFix"/>
<feBlend mode="normal" in="SourceGraphic" in2="BackgroundImageFix" result="shape"/>
<feGaussianBlur stdDeviation="0.5" result="effect1_foregroundBlur_637_22372"/>
</filter>
<filter id="filter5_f_637_22372" x="23.2968" y="9.5918" width="7.28137" height="5.87512" filterUnits="userSpaceOnUse" color-interpolation-filters="sRGB">
<feFlood flood-opacity="0" result="BackgroundImageFix"/>
<feBlend mode="normal" in="SourceGraphic" in2="BackgroundImageFix" result="shape"/>
<feGaussianBlur stdDeviation="0.625" result="effect1_foregroundBlur_637_22372"/>
</filter>
<filter id="filter6_f_637_22372" x="34.1562" y="20.8475" width="4.8125" height="11.8536" filterUnits="userSpaceOnUse" color-interpolation-filters="sRGB">
<feFlood flood-opacity="0" result="BackgroundImageFix"/>
<feBlend mode="normal" in="SourceGraphic" in2="BackgroundImageFix" result="shape"/>
<feGaussianBlur stdDeviation="1" result="effect1_foregroundBlur_637_22372"/>
</filter>
<filter id="filter7_f_637_22372" x="33.4718" y="12.6787" width="4.8125" height="8.39368" filterUnits="userSpaceOnUse" color-interpolation-filters="sRGB">
<feFlood flood-opacity="0" result="BackgroundImageFix"/>
<feBlend mode="normal" in="SourceGraphic" in2="BackgroundImageFix" result="shape"/>
<feGaussianBlur stdDeviation="1" result="effect1_foregroundBlur_637_22372"/>
</filter>
<filter id="filter8_f_637_22372" x="31.9" y="9.8512" width="3.02808" height="4.40308" filterUnits="userSpaceOnUse" color-interpolation-filters="sRGB">
<feFlood flood-opacity="0" result="BackgroundImageFix"/>
<feBlend mode="normal" in="SourceGraphic" in2="BackgroundImageFix" result="shape"/>
<feGaussianBlur stdDeviation="0.5" result="effect1_foregroundBlur_637_22372"/>
</filter>
<radialGradient id="paint0_radial_637_22372" cx="0" cy="0" r="1" gradientUnits="userSpaceOnUse" gradientTransform="translate(25.6875 13.2011) rotate(90) scale(19.5625 19.4375)">
<stop stop-color="#FFCB5A"/>
<stop offset="0.766773" stop-color="#EA9231"/>
</radialGradient>
<radialGradient id="paint1_radial_637_22372" cx="0" cy="0" r="1" gradientUnits="userSpaceOnUse" gradientTransform="translate(34.125 20.6386) rotate(154.026) scale(8.13413 15.2065)">
<stop stop-color="#FFCB5A"/>
<stop offset="1" stop-color="#FFCB5A" stop-opacity="0"/>
</radialGradient>
<radialGradient id="paint2_radial_637_22372" cx="0" cy="0" r="1" gradientUnits="userSpaceOnUse" gradientTransform="translate(12 24.8261) rotate(-9.59311) scale(4.50043 13.1042)">
<stop stop-color="#FFD375"/>
<stop offset="1" stop-color="#FFCB5A" stop-opacity="0"/>
</radialGradient>
<radialGradient id="paint3_radial_637_22372" cx="0" cy="0" r="1" gradientUnits="userSpaceOnUse" gradientTransform="translate(24 29.6386) rotate(-90) scale(6.75 8.9375)">
<stop stop-color="#DF7D3C"/>
<stop offset="1" stop-color="#DF7D3C" stop-opacity="0"/>
</radialGradient>
<radialGradient id="paint4_radial_637_22372" cx="0" cy="0" r="1" gradientUnits="userSpaceOnUse" gradientTransform="translate(24 12.3261) rotate(90) scale(4.625 5.24685)">
<stop stop-color="#DF7D3C"/>
<stop offset="1" stop-color="#DF7D3C" stop-opacity="0"/>
</radialGradient>
<radialGradient id="paint5_radial_637_22372" cx="0" cy="0" r="1" gradientUnits="userSpaceOnUse" gradientTransform="translate(25.125 19.5761) rotate(87.1376) scale(11.2641 16.3049)">
<stop offset="0.865337" stop-color="#DF7D3C" stop-opacity="0"/>
<stop offset="1" stop-color="#C8692A"/>
</radialGradient>
<radialGradient id="paint6_radial_637_22372" cx="0" cy="0" r="1" gradientUnits="userSpaceOnUse" gradientTransform="translate(28.375 16.1386) rotate(-37.9101) scale(4.47574 5.30265)">
<stop stop-color="#DF7D3C"/>
<stop offset="1" stop-color="#DF7D3C" stop-opacity="0"/>
</radialGradient>
<radialGradient id="paint7_radial_637_22372" cx="0" cy="0" r="1" gradientUnits="userSpaceOnUse" gradientTransform="translate(31.9063 14.2636) rotate(161.274) scale(0.973401 2.03584)">
<stop stop-color="#FFC567"/>
<stop offset="1" stop-color="#FFC362" stop-opacity="0"/>
</radialGradient>
<radialGradient id="paint8_radial_637_22372" cx="0" cy="0" r="1" gradientUnits="userSpaceOnUse" gradientTransform="translate(21.6875 12.5136) rotate(162.628) scale(3.55864 4.21612)">
<stop stop-color="#DF7D3C"/>
<stop offset="1" stop-color="#DF7D3C" stop-opacity="0"/>
</radialGradient>
<radialGradient id="paint9_radial_637_22372" cx="0" cy="0" r="1" gradientUnits="userSpaceOnUse" gradientTransform="translate(15.8126 14.2636) rotate(-3.13636) scale(4.56934 4.80913)">
<stop stop-color="#DC8C58"/>
<stop offset="1" stop-color="#CC7438"/>
</radialGradient>
<linearGradient id="paint10_linear_637_22372" x1="18.4688" y1="15.2793" x2="17.4688" y2="14.3574" gradientUnits="userSpaceOnUse">
<stop stop-color="#CB6C32"/>
<stop offset="0.586576" stop-color="#D1743A" stop-opacity="0"/>
</linearGradient>
<radialGradient id="paint11_radial_637_22372" cx="0" cy="0" r="1" gradientUnits="userSpaceOnUse" gradientTransform="translate(16.5079 15.623) rotate(-10.8403) scale(1.49544 2.60836)">
<stop stop-color="#DC8B54"/>
<stop offset="1" stop-color="#DC8B54" stop-opacity="0"/>
</radialGradient>
<radialGradient id="paint12_radial_637_22372" cx="0" cy="0" r="1" gradientUnits="userSpaceOnUse" gradientTransform="translate(31.1875 13.0487) rotate(117.038) scale(3.11825 3.27287)">
<stop stop-color="#F49A45"/>
<stop offset="1" stop-color="#EA8243"/>
</radialGradient>
<linearGradient id="paint13_linear_637_22372" x1="24" y1="9.7303" x2="24" y2="48.2636" gradientUnits="userSpaceOnUse">
<stop stop-color="#9F635E"/>
<stop offset="1" stop-color="#612A4F"/>
</linearGradient>
<linearGradient id="paint14_linear_637_22372" x1="9.1875" y1="29.2636" x2="15.375" y2="29.2636" gradientUnits="userSpaceOnUse">
<stop stop-color="#9A6A66"/>
<stop offset="1" stop-color="#7D5956" stop-opacity="0"/>
</linearGradient>
<linearGradient id="paint15_linear_637_22372" x1="40.625" y1="29.2636" x2="32.125" y2="29.2636" gradientUnits="userSpaceOnUse">
<stop stop-color="#996862"/>
<stop offset="0.55147" stop-color="#996862" stop-opacity="0"/>
</linearGradient>
<radialGradient id="paint16_radial_637_22372" cx="0" cy="0" r="1" gradientUnits="userSpaceOnUse" gradientTransform="translate(24.4375 19.3261) rotate(91.3449) scale(18.6402 27.0972)">
<stop offset="0.688811" stop-color="#612A4F" stop-opacity="0"/>
<stop offset="1" stop-color="#612A4F"/>
</radialGradient>
<radialGradient id="paint17_radial_637_22372" cx="0" cy="0" r="1" gradientUnits="userSpaceOnUse" gradientTransform="translate(32.5625 17.7011) rotate(136.721) scale(10.3019 10.3305)">
<stop stop-color="#A16662"/>
<stop offset="1" stop-color="#A16662" stop-opacity="0"/>
</radialGradient>
<linearGradient id="paint18_linear_637_22372" x1="24" y1="8.51363" x2="24" y2="13.2636" gradientUnits="userSpaceOnUse">
<stop stop-color="#754B42"/>
<stop offset="1" stop-color="#754B42" stop-opacity="0"/>
</linearGradient>
<radialGradient id="paint19_radial_637_22372" cx="0" cy="0" r="1" gradientUnits="userSpaceOnUse" gradientTransform="translate(21.1875 23.4511) rotate(125.272) scale(9.41616 9.04653)">
<stop stop-color="#512242"/>
<stop offset="1" stop-color="#612A4F" stop-opacity="0"/>
</radialGradient>
<radialGradient id="paint20_radial_637_22372" cx="0" cy="0" r="1" gradientUnits="userSpaceOnUse" gradientTransform="translate(22.125 30.0761) rotate(109.231) scale(5.69265 5.46919)">
<stop stop-color="#512242"/>
<stop offset="1" stop-color="#612A4F" stop-opacity="0"/>
</radialGradient>
<radialGradient id="paint21_radial_637_22372" cx="0" cy="0" r="1" gradientUnits="userSpaceOnUse" gradientTransform="translate(28.5625 27.6386) rotate(56.464) scale(6.44841 8.63095)">
<stop stop-color="#512242"/>
<stop offset="1" stop-color="#612A4F" stop-opacity="0"/>
</radialGradient>
<radialGradient id="paint22_radial_637_22372" cx="0" cy="0" r="1" gradientUnits="userSpaceOnUse" gradientTransform="translate(24.0938 10.2636) rotate(90) scale(5.09375 12.75)">
<stop offset="0.575758" stop-color="#844649" stop-opacity="0"/>
<stop offset="0.881262" stop-color="#914E52"/>
</radialGradient>
<linearGradient id="paint23_linear_637_22372" x1="13.3125" y1="13.7168" x2="15.0937" y2="11.7949" gradientUnits="userSpaceOnUse">
<stop stop-color="#7E3835" stop-opacity="0"/>
<stop offset="0.665493" stop-color="#442524"/>
</linearGradient>
<linearGradient id="paint24_linear_637_22372" x1="12.7187" y1="14.0136" x2="11.2499" y2="10.6386" gradientUnits="userSpaceOnUse">
<stop stop-color="#7E3835" stop-opacity="0"/>
<stop offset="0.572141" stop-color="#442524"/>
</linearGradient>
<linearGradient id="paint25_linear_637_22372" x1="34.6832" y1="13.7168" x2="32.9019" y2="11.7949" gradientUnits="userSpaceOnUse">
<stop stop-color="#7E3835" stop-opacity="0"/>
<stop offset="0.665493" stop-color="#442524"/>
</linearGradient>
<linearGradient id="paint26_linear_637_22372" x1="35.2769" y1="14.0136" x2="36.7457" y2="10.6386" gradientUnits="userSpaceOnUse">
<stop stop-color="#7E3835" stop-opacity="0"/>
<stop offset="0.572141" stop-color="#442524"/>
</linearGradient>
<radialGradient id="paint27_radial_637_22372" cx="0" cy="0" r="1" gradientUnits="userSpaceOnUse" gradientTransform="translate(30.5625 35.0388) rotate(-159.264) scale(7.48484 7.48484)">
<stop offset="0.238636" stop-color="#FFCFAC"/>
<stop offset="1" stop-color="#F5A8A2"/>
</radialGradient>
<radialGradient id="paint28_radial_637_22372" cx="0" cy="0" r="1" gradientUnits="userSpaceOnUse" gradientTransform="translate(24 28.3887) rotate(90) scale(7.3125 7.839)">
<stop offset="0.649573" stop-color="#FFBC99" stop-opacity="0"/>
<stop offset="0.905983" stop-color="#E98C8C"/>
</radialGradient>
<radialGradient id="paint29_radial_637_22372" cx="0" cy="0" r="1" gradientUnits="userSpaceOnUse" gradientTransform="translate(16.25 30.2012) rotate(30.3236) scale(3.83752 6.08326)">
<stop stop-color="#FFCFAC"/>
<stop offset="1" stop-color="#FFCFAC" stop-opacity="0"/>
</radialGradient>
<radialGradient id="paint30_radial_637_22372" cx="0" cy="0" r="1" gradientUnits="userSpaceOnUse" gradientTransform="translate(24 28.1387) rotate(90) scale(2.8125 5.36337)">
<stop stop-color="#D87B7C"/>
<stop offset="1" stop-color="#D87B7C" stop-opacity="0"/>
</radialGradient>
<linearGradient id="paint31_linear_637_22372" x1="24" y1="21.9413" x2="24" y2="31.3887" gradientUnits="userSpaceOnUse">
<stop stop-color="#FDCC98"/>
<stop offset="1" stop-color="#FBB3BE"/>
<stop offset="1" stop-color="#F4AD92"/>
</linearGradient>
<linearGradient id="paint32_linear_637_22372" x1="18.7812" y1="23.5137" x2="21.2188" y2="25.99" gradientUnits="userSpaceOnUse">
<stop offset="0.00435963" stop-color="#DAA168"/>
<stop offset="1" stop-color="#DAA168" stop-opacity="0"/>
</linearGradient>
<linearGradient id="paint33_linear_637_22372" x1="24" y1="30.3575" x2="24" y2="27.2012" gradientUnits="userSpaceOnUse">
<stop offset="0.268293" stop-color="#E98C8C"/>
<stop offset="1" stop-color="#DC8CE9" stop-opacity="0"/>
</linearGradient>
<radialGradient id="paint34_radial_637_22372" cx="0" cy="0" r="1" gradientUnits="userSpaceOnUse" gradientTransform="translate(24 24.8887) rotate(90) scale(6.125 9.07688)">
<stop offset="0.760204" stop-color="#E98F94" stop-opacity="0"/>
<stop offset="1" stop-color="#CC9688"/>
</radialGradient>
<linearGradient id="paint35_linear_637_22372" x1="28.6774" y1="22.5387" x2="27.8434" y2="22.5387" gradientUnits="userSpaceOnUse">
<stop offset="0.225" stop-color="#594C4F"/>
<stop offset="1" stop-color="#392833"/>
</linearGradient>
<linearGradient id="paint36_linear_637_22372" x1="29.0024" y1="24.5636" x2="29.0024" y2="22.9734" gradientUnits="userSpaceOnUse">
<stop stop-color="#552D52"/>
<stop offset="1" stop-color="#552D52" stop-opacity="0"/>
</linearGradient>
<linearGradient id="paint37_linear_637_22372" x1="20.6696" y1="22.5387" x2="19.8356" y2="22.5387" gradientUnits="userSpaceOnUse">
<stop offset="0.225" stop-color="#594C4F"/>
<stop offset="1" stop-color="#392833"/>
</linearGradient>
<linearGradient id="paint38_linear_637_22372" x1="18.7813" y1="22.5387" x2="20" y2="22.5387" gradientUnits="userSpaceOnUse">
<stop stop-color="#594C4F"/>
<stop offset="1" stop-color="#594C4F" stop-opacity="0"/>
</linearGradient>
<linearGradient id="paint39_linear_637_22372" x1="20.9946" y1="24.5636" x2="20.9946" y2="22.9734" gradientUnits="userSpaceOnUse">
<stop stop-color="#552D52"/>
<stop offset="1" stop-color="#552D52" stop-opacity="0"/>
</linearGradient>
<linearGradient id="paint40_linear_637_22372" x1="23.551" y1="26.1621" x2="23.551" y2="28.9121" gradientUnits="userSpaceOnUse">
<stop stop-color="#CC9688"/>
<stop offset="1" stop-color="#E98F94"/>
</linearGradient>
<linearGradient id="paint41_linear_637_22372" x1="26.6894" y1="24.3262" x2="22.7835" y2="27.7572" gradientUnits="userSpaceOnUse">
<stop offset="0.191489" stop-color="#5F5254"/>
<stop offset="1" stop-color="#2E2127"/>
</linearGradient>
<linearGradient id="paint42_linear_637_22372" x1="24.4377" y1="25.7368" x2="24.4377" y2="24.2378" gradientUnits="userSpaceOnUse">
<stop offset="0.146552" stop-color="#34222C" stop-opacity="0"/>
<stop offset="0.872727" stop-color="#34222C"/>
</linearGradient>
<linearGradient id="paint43_linear_637_22372" x1="25.3665" y1="28.251" x2="25.3665" y2="25.9847" gradientUnits="userSpaceOnUse">
<stop stop-color="#552D52"/>
<stop offset="1" stop-color="#552D52" stop-opacity="0"/>
</linearGradient>
<linearGradient id="paint44_linear_637_22372" x1="22.25" y1="27.5137" x2="23.2828" y2="26.5124" gradientUnits="userSpaceOnUse">
<stop stop-color="#5F5254"/>
<stop offset="1" stop-color="#5F5254" stop-opacity="0"/>
</linearGradient>
<radialGradient id="paint45_radial_637_22372" cx="0" cy="0" r="1" gradientUnits="userSpaceOnUse" gradientTransform="translate(29.1979 26.2557) rotate(136.545) scale(3.88941 5.0611)">
<stop stop-color="#FFEDBA"/>
<stop offset="1" stop-color="#FFEDBA" stop-opacity="0"/>
</radialGradient>
</defs>
</svg>
