<svg width="48" height="48" viewBox="0 0 48 48" fill="none" xmlns="http://www.w3.org/2000/svg">
<rect width="48" height="48" rx="24" fill="#F2F5FF"/>
<path d="M13.2515 10.1188L22.1631 16.4954C23.2381 19.1454 21.0902 19.537 19.8818 19.4016L12.8421 10.5495C12.6256 10.2771 12.9685 9.91628 13.2515 10.1188Z" fill="url(#paint0_linear_637_22363)"/>
<path d="M13.2515 10.1188L22.1631 16.4954C23.2381 19.1454 21.0902 19.537 19.8818 19.4016L12.8421 10.5495C12.6256 10.2771 12.9685 9.91628 13.2515 10.1188Z" fill="url(#paint1_linear_637_22363)"/>
<path d="M13.2515 10.1188L22.1631 16.4954C23.2381 19.1454 21.0902 19.537 19.8818 19.4016L12.8421 10.5495C12.6256 10.2771 12.9685 9.91628 13.2515 10.1188Z" fill="url(#paint2_radial_637_22363)"/>
<g filter="url(#filter0_f_637_22363)">
<path d="M13.3132 10.4607L19.6814 15.4575" stroke="white" stroke-width="0.15" stroke-linecap="round"/>
</g>
<path d="M18.8209 14.8195C20.3758 12.7744 27.4725 12.1564 24.4225 15.1164C22.6125 16.8764 21.4759 18.7977 19.1559 19.7977C15.2497 21.282 14.067 18.179 14.5357 17.7101C15.0044 17.2413 15.8448 18.2049 16.9498 17.7414C17.7287 17.4146 17.7825 16.1853 18.8209 14.8195Z" fill="url(#paint3_linear_637_22363)"/>
<path d="M18.8209 14.8195C20.3758 12.7744 27.4725 12.1564 24.4225 15.1164C22.6125 16.8764 21.4759 18.7977 19.1559 19.7977C15.2497 21.282 14.067 18.179 14.5357 17.7101C15.0044 17.2413 15.8448 18.2049 16.9498 17.7414C17.7287 17.4146 17.7825 16.1853 18.8209 14.8195Z" fill="url(#paint4_linear_637_22363)"/>
<path d="M18.8209 14.8195C20.3758 12.7744 27.4725 12.1564 24.4225 15.1164C22.6125 16.8764 21.4759 18.7977 19.1559 19.7977C15.2497 21.282 14.067 18.179 14.5357 17.7101C15.0044 17.2413 15.8448 18.2049 16.9498 17.7414C17.7287 17.4146 17.7825 16.1853 18.8209 14.8195Z" fill="url(#paint5_radial_637_22363)"/>
<path d="M18.8209 14.8195C20.3758 12.7744 27.4725 12.1564 24.4225 15.1164C22.6125 16.8764 21.4759 18.7977 19.1559 19.7977C15.2497 21.282 14.067 18.179 14.5357 17.7101C15.0044 17.2413 15.8448 18.2049 16.9498 17.7414C17.7287 17.4146 17.7825 16.1853 18.8209 14.8195Z" fill="url(#paint6_radial_637_22363)"/>
<path d="M18.8209 14.8195C20.3758 12.7744 27.4725 12.1564 24.4225 15.1164C22.6125 16.8764 21.4759 18.7977 19.1559 19.7977C15.2497 21.282 14.067 18.179 14.5357 17.7101C15.0044 17.2413 15.8448 18.2049 16.9498 17.7414C17.7287 17.4146 17.7825 16.1853 18.8209 14.8195Z" fill="url(#paint7_radial_637_22363)"/>
<g filter="url(#filter1_f_637_22363)">
<path d="M16.3898 18.1124C16.4812 18.3692 16.6984 18.5851 17.2507 18.5851C17.884 18.5851 18.2633 18.0897 18.6101 17.1398C18.9569 16.1899 19.7599 15.0336 21.1622 14.7773L21.0393 13.7651C20.1282 14.0668 19.3132 14.5125 18.8964 15.0607C18.4317 15.6719 18.1642 16.2557 17.9407 16.7435C17.6646 17.346 17.4556 17.8021 17.0253 17.9826C16.8024 18.0761 16.5902 18.1116 16.3898 18.1124Z" fill="url(#paint8_linear_637_22363)"/>
</g>
<path d="M22.7351 28.7977C19.364 32.3551 18.5007 36.4439 18.3154 37.6117C18.2877 37.7868 18.4242 37.9384 18.6015 37.9384H33.6006C35.7406 37.9384 37.4206 35.8563 37.2206 33.7163C36.6206 27.3763 34.4206 15.6863 26.3106 15.6863C22.8206 15.6863 25.0551 26.3577 22.7351 28.7977Z" fill="url(#paint9_radial_637_22363)"/>
<path d="M22.7351 28.7977C19.364 32.3551 18.5007 36.4439 18.3154 37.6117C18.2877 37.7868 18.4242 37.9384 18.6015 37.9384H33.6006C35.7406 37.9384 37.4206 35.8563 37.2206 33.7163C36.6206 27.3763 34.4206 15.6863 26.3106 15.6863C22.8206 15.6863 25.0551 26.3577 22.7351 28.7977Z" fill="url(#paint10_radial_637_22363)"/>
<path d="M22.7351 28.7977C19.364 32.3551 18.5007 36.4439 18.3154 37.6117C18.2877 37.7868 18.4242 37.9384 18.6015 37.9384H33.6006C35.7406 37.9384 37.4206 35.8563 37.2206 33.7163C36.6206 27.3763 34.4206 15.6863 26.3106 15.6863C22.8206 15.6863 25.0551 26.3577 22.7351 28.7977Z" fill="url(#paint11_linear_637_22363)"/>
<path d="M22.7351 28.7977C19.364 32.3551 18.5007 36.4439 18.3154 37.6117C18.2877 37.7868 18.4242 37.9384 18.6015 37.9384H33.6006C35.7406 37.9384 37.4206 35.8563 37.2206 33.7163C36.6206 27.3763 34.4206 15.6863 26.3106 15.6863C22.8206 15.6863 25.0551 26.3577 22.7351 28.7977Z" fill="url(#paint12_radial_637_22363)"/>
<path d="M22.7351 28.7977C19.364 32.3551 18.5007 36.4439 18.3154 37.6117C18.2877 37.7868 18.4242 37.9384 18.6015 37.9384H33.6006C35.7406 37.9384 37.4206 35.8563 37.2206 33.7163C36.6206 27.3763 34.4206 15.6863 26.3106 15.6863C22.8206 15.6863 25.0551 26.3577 22.7351 28.7977Z" fill="url(#paint13_linear_637_22363)"/>
<path d="M37.3289 24.9227C37.3289 21.2665 35.0059 20.7143 34.1101 20.7352C34.308 21.5269 34.3914 24.0352 33.1414 27.7352C31.8914 31.4352 32.9226 36.204 33.6101 37.954C36.282 37.954 37.3289 37.6102 37.3289 35.6727V24.9227Z" fill="url(#paint14_linear_637_22363)"/>
<path d="M37.3289 24.9227C37.3289 21.2665 35.0059 20.7143 34.1101 20.7352C34.308 21.5269 34.3914 24.0352 33.1414 27.7352C31.8914 31.4352 32.9226 36.204 33.6101 37.954C36.282 37.954 37.3289 37.6102 37.3289 35.6727V24.9227Z" fill="url(#paint15_linear_637_22363)"/>
<path d="M37.3289 24.9227C37.3289 21.2665 35.0059 20.7143 34.1101 20.7352C34.308 21.5269 34.3914 24.0352 33.1414 27.7352C31.8914 31.4352 32.9226 36.204 33.6101 37.954C36.282 37.954 37.3289 37.6102 37.3289 35.6727V24.9227Z" fill="url(#paint16_radial_637_22363)" fill-opacity="0.75"/>
<g filter="url(#filter2_f_637_22363)">
<path d="M34.6252 22.9537C34.7285 23.3858 35.1188 24.2347 34.2976 27.3351C33.532 30.2258 32.9695 32.8039 34.0945 37.1789" stroke="#F1B3FF" stroke-width="0.5" stroke-linecap="round"/>
</g>
<path d="M34.7976 25.2352C35.8601 21.2352 32.9226 17.079 30.6101 17.079C31.4226 18.9331 31.9226 23.2977 30.6101 25.4227C29.1144 27.8443 28.8757 34.454 29.6257 37.954H34.3757C32.6757 33.129 33.7351 29.2352 34.7976 25.2352Z" fill="url(#paint17_linear_637_22363)"/>
<path d="M34.7976 25.2352C35.8601 21.2352 32.9226 17.079 30.6101 17.079C31.4226 18.9331 31.9226 23.2977 30.6101 25.4227C29.1144 27.8443 28.8757 34.454 29.6257 37.954H34.3757C32.6757 33.129 33.7351 29.2352 34.7976 25.2352Z" fill="url(#paint18_linear_637_22363)"/>
<path d="M34.7976 25.2352C35.8601 21.2352 32.9226 17.079 30.6101 17.079C31.4226 18.9331 31.9226 23.2977 30.6101 25.4227C29.1144 27.8443 28.8757 34.454 29.6257 37.954H34.3757C32.6757 33.129 33.7351 29.2352 34.7976 25.2352Z" fill="url(#paint19_radial_637_22363)"/>
<path d="M34.7976 25.2352C35.8601 21.2352 32.9226 17.079 30.6101 17.079C31.4226 18.9331 31.9226 23.2977 30.6101 25.4227C29.1144 27.8443 28.8757 34.454 29.6257 37.954H34.3757C32.6757 33.129 33.7351 29.2352 34.7976 25.2352Z" fill="url(#paint20_radial_637_22363)"/>
<path d="M34.7976 25.2352C35.8601 21.2352 32.9226 17.079 30.6101 17.079C31.4226 18.9331 31.9226 23.2977 30.6101 25.4227C29.1144 27.8443 28.8757 34.454 29.6257 37.954H34.3757C32.6757 33.129 33.7351 29.2352 34.7976 25.2352Z" fill="url(#paint21_radial_637_22363)"/>
<g filter="url(#filter3_f_637_22363)">
<path d="M31.5788 19.3508C32.9695 22.0227 31.9348 23.8395 30.6726 27.554C29.5788 30.7727 29.1413 33.1477 30.1413 37.6165" stroke="#E2C0EA" stroke-width="0.5" stroke-linecap="round"/>
</g>
<path d="M10.8861 27.0563L22.8531 14.1831H25.4781L31.5719 19.6831L30.7743 21.666C29.18 25.6294 25.7401 28.5565 21.5726 29.4961L13.3543 31.349C12.0447 31.6442 10.7264 30.8906 10.3164 29.6122C10.0303 28.7199 10.2481 27.7426 10.8861 27.0563Z" fill="url(#paint22_linear_637_22363)"/>
<path d="M10.8861 27.0563L22.8531 14.1831H25.4781L31.5719 19.6831L30.7743 21.666C29.18 25.6294 25.7401 28.5565 21.5726 29.4961L13.3543 31.349C12.0447 31.6442 10.7264 30.8906 10.3164 29.6122C10.0303 28.7199 10.2481 27.7426 10.8861 27.0563Z" fill="url(#paint23_linear_637_22363)"/>
<path d="M10.8861 27.0563L22.8531 14.1831H25.4781L31.5719 19.6831L30.7743 21.666C29.18 25.6294 25.7401 28.5565 21.5726 29.4961L13.3543 31.349C12.0447 31.6442 10.7264 30.8906 10.3164 29.6122C10.0303 28.7199 10.2481 27.7426 10.8861 27.0563Z" fill="url(#paint24_radial_637_22363)"/>
<path d="M10.8861 27.0563L22.8531 14.1831H25.4781L31.5719 19.6831L30.7743 21.666C29.18 25.6294 25.7401 28.5565 21.5726 29.4961L13.3543 31.349C12.0447 31.6442 10.7264 30.8906 10.3164 29.6122C10.0303 28.7199 10.2481 27.7426 10.8861 27.0563Z" fill="url(#paint25_radial_637_22363)"/>
<path d="M10.8861 27.0563L22.8531 14.1831H25.4781L31.5719 19.6831L30.7743 21.666C29.18 25.6294 25.7401 28.5565 21.5726 29.4961L13.3543 31.349C12.0447 31.6442 10.7264 30.8906 10.3164 29.6122C10.0303 28.7199 10.2481 27.7426 10.8861 27.0563Z" fill="url(#paint26_radial_637_22363)"/>
<path d="M10.8861 27.0563L22.8531 14.1831H25.4781L31.5719 19.6831L30.7743 21.666C29.18 25.6294 25.7401 28.5565 21.5726 29.4961L13.3543 31.349C12.0447 31.6442 10.7264 30.8906 10.3164 29.6122C10.0303 28.7199 10.2481 27.7426 10.8861 27.0563Z" fill="url(#paint27_radial_637_22363)"/>
<path d="M10.8861 27.0563L22.8531 14.1831H25.4781L31.5719 19.6831L30.7743 21.666C29.18 25.6294 25.7401 28.5565 21.5726 29.4961L13.3543 31.349C12.0447 31.6442 10.7264 30.8906 10.3164 29.6122C10.0303 28.7199 10.2481 27.7426 10.8861 27.0563Z" fill="url(#paint28_linear_637_22363)"/>
<g filter="url(#filter4_f_637_22363)">
<path d="M10.7924 27.0209L22.7594 14.1477H25.3844L31.4781 19.6477L30.6805 21.6306C29.0862 25.594 25.6464 28.5211 21.4789 29.4607L13.2605 31.3136C11.9509 31.6088 10.6326 30.8552 10.2227 29.5768C9.93654 28.6845 10.1544 27.7072 10.7924 27.0209Z" fill="url(#paint29_radial_637_22363)"/>
</g>
<g filter="url(#filter5_f_637_22363)">
<path d="M24.3125 16.1L12.7039 28.2614C12.3782 28.6027 12.3433 29.1281 12.6211 29.5094C12.8817 29.8672 13.3506 30.0047 13.7632 29.8443L23.6614 25.9954C25.6651 25.2163 26.6946 22.9927 25.9924 20.9608L24.3125 16.1Z" fill="url(#paint30_linear_637_22363)"/>
</g>
<path d="M30.2195 37.9384H23.5945C22.0045 31.1784 27.3907 26.6763 27.7507 21.6363C28.1507 15.9063 24.0107 14.8463 24.0107 14.8463C22.6907 15.1763 25.0207 16.0963 22.4307 16.0963L21.7507 14.6463L21.0632 13.5164C22.7032 13.0664 24.9054 12.6894 27.4226 13.9227C30.522 15.4412 33.1757 19.4108 32.1101 23.4852C31.0476 27.5477 28.532 30.4773 30.2195 37.9384Z" fill="url(#paint31_linear_637_22363)"/>
<path d="M30.2195 37.9384H23.5945C22.0045 31.1784 27.3907 26.6763 27.7507 21.6363C28.1507 15.9063 24.0107 14.8463 24.0107 14.8463C22.6907 15.1763 25.0207 16.0963 22.4307 16.0963L21.7507 14.6463L21.0632 13.5164C22.7032 13.0664 24.9054 12.6894 27.4226 13.9227C30.522 15.4412 33.1757 19.4108 32.1101 23.4852C31.0476 27.5477 28.532 30.4773 30.2195 37.9384Z" fill="url(#paint32_linear_637_22363)"/>
<path d="M30.2195 37.9384H23.5945C22.0045 31.1784 27.3907 26.6763 27.7507 21.6363C28.1507 15.9063 24.0107 14.8463 24.0107 14.8463C22.6907 15.1763 25.0207 16.0963 22.4307 16.0963L21.7507 14.6463L21.0632 13.5164C22.7032 13.0664 24.9054 12.6894 27.4226 13.9227C30.522 15.4412 33.1757 19.4108 32.1101 23.4852C31.0476 27.5477 28.532 30.4773 30.2195 37.9384Z" fill="url(#paint33_radial_637_22363)"/>
<path d="M30.2195 37.9384H23.5945C22.0045 31.1784 27.3907 26.6763 27.7507 21.6363C28.1507 15.9063 24.0107 14.8463 24.0107 14.8463C22.6907 15.1763 25.0207 16.0963 22.4307 16.0963L21.7507 14.6463L21.0632 13.5164C22.7032 13.0664 24.9054 12.6894 27.4226 13.9227C30.522 15.4412 33.1757 19.4108 32.1101 23.4852C31.0476 27.5477 28.532 30.4773 30.2195 37.9384Z" fill="url(#paint34_radial_637_22363)"/>
<path d="M30.2195 37.9384H23.5945C22.0045 31.1784 27.3907 26.6763 27.7507 21.6363C28.1507 15.9063 24.0107 14.8463 24.0107 14.8463C22.6907 15.1763 25.0207 16.0963 22.4307 16.0963L21.7507 14.6463L21.0632 13.5164C22.7032 13.0664 24.9054 12.6894 27.4226 13.9227C30.522 15.4412 33.1757 19.4108 32.1101 23.4852C31.0476 27.5477 28.532 30.4773 30.2195 37.9384Z" fill="url(#paint35_radial_637_22363)"/>
<path d="M30.2195 37.9384H23.5945C22.0045 31.1784 27.3907 26.6763 27.7507 21.6363C28.1507 15.9063 24.0107 14.8463 24.0107 14.8463C22.6907 15.1763 25.0207 16.0963 22.4307 16.0963L21.7507 14.6463L21.0632 13.5164C22.7032 13.0664 24.9054 12.6894 27.4226 13.9227C30.522 15.4412 33.1757 19.4108 32.1101 23.4852C31.0476 27.5477 28.532 30.4773 30.2195 37.9384Z" fill="url(#paint36_radial_637_22363)"/>
<path d="M30.2195 37.9384H23.5945C22.0045 31.1784 27.3907 26.6763 27.7507 21.6363C28.1507 15.9063 24.0107 14.8463 24.0107 14.8463C22.6907 15.1763 25.0207 16.0963 22.4307 16.0963L21.7507 14.6463L21.0632 13.5164C22.7032 13.0664 24.9054 12.6894 27.4226 13.9227C30.522 15.4412 33.1757 19.4108 32.1101 23.4852C31.0476 27.5477 28.532 30.4773 30.2195 37.9384Z" fill="url(#paint37_radial_637_22363)"/>
<path d="M30.2195 37.9384H23.5945C22.0045 31.1784 27.3907 26.6763 27.7507 21.6363C28.1507 15.9063 24.0107 14.8463 24.0107 14.8463C22.6907 15.1763 25.0207 16.0963 22.4307 16.0963L21.7507 14.6463L21.0632 13.5164C22.7032 13.0664 24.9054 12.6894 27.4226 13.9227C30.522 15.4412 33.1757 19.4108 32.1101 23.4852C31.0476 27.5477 28.532 30.4773 30.2195 37.9384Z" fill="url(#paint38_radial_637_22363)" fill-opacity="0.75"/>
<path d="M30.2195 37.9384H23.5945C22.0045 31.1784 27.3907 26.6763 27.7507 21.6363C28.1507 15.9063 24.0107 14.8463 24.0107 14.8463C22.6907 15.1763 25.0207 16.0963 22.4307 16.0963L21.7507 14.6463L21.0632 13.5164C22.7032 13.0664 24.9054 12.6894 27.4226 13.9227C30.522 15.4412 33.1757 19.4108 32.1101 23.4852C31.0476 27.5477 28.532 30.4773 30.2195 37.9384Z" fill="url(#paint39_radial_637_22363)" fill-opacity="0.75"/>
<path d="M30.2195 37.9384H23.5945C22.0045 31.1784 27.3907 26.6763 27.7507 21.6363C28.1507 15.9063 24.0107 14.8463 24.0107 14.8463C22.6907 15.1763 25.0207 16.0963 22.4307 16.0963L21.7507 14.6463L21.0632 13.5164C22.7032 13.0664 24.9054 12.6894 27.4226 13.9227C30.522 15.4412 33.1757 19.4108 32.1101 23.4852C31.0476 27.5477 28.532 30.4773 30.2195 37.9384Z" fill="url(#paint40_linear_637_22363)"/>
<path d="M30.2195 37.9384H23.5945C22.0045 31.1784 27.3907 26.6763 27.7507 21.6363C28.1507 15.9063 24.0107 14.8463 24.0107 14.8463C22.6907 15.1763 25.0207 16.0963 22.4307 16.0963L21.7507 14.6463L21.0632 13.5164C22.7032 13.0664 24.9054 12.6894 27.4226 13.9227C30.522 15.4412 33.1757 19.4108 32.1101 23.4852C31.0476 27.5477 28.532 30.4773 30.2195 37.9384Z" fill="url(#paint41_linear_637_22363)"/>
<path d="M30.2195 37.9384H23.5945C22.0045 31.1784 27.3907 26.6763 27.7507 21.6363C28.1507 15.9063 24.0107 14.8463 24.0107 14.8463C22.6907 15.1763 25.0207 16.0963 22.4307 16.0963L21.7507 14.6463L21.0632 13.5164C22.7032 13.0664 24.9054 12.6894 27.4226 13.9227C30.522 15.4412 33.1757 19.4108 32.1101 23.4852C31.0476 27.5477 28.532 30.4773 30.2195 37.9384Z" fill="url(#paint42_radial_637_22363)"/>
<path d="M30.2195 37.9384H23.5945C22.0045 31.1784 27.3907 26.6763 27.7507 21.6363C28.1507 15.9063 24.0107 14.8463 24.0107 14.8463C22.6907 15.1763 25.0207 16.0963 22.4307 16.0963L21.7507 14.6463L21.0632 13.5164C22.7032 13.0664 24.9054 12.6894 27.4226 13.9227C30.522 15.4412 33.1757 19.4108 32.1101 23.4852C31.0476 27.5477 28.532 30.4773 30.2195 37.9384Z" fill="url(#paint43_radial_637_22363)"/>
<path d="M30.2195 37.9384H23.5945C22.0045 31.1784 27.3907 26.6763 27.7507 21.6363C28.1507 15.9063 24.0107 14.8463 24.0107 14.8463C22.6907 15.1763 25.0207 16.0963 22.4307 16.0963L21.7507 14.6463L21.0632 13.5164C22.7032 13.0664 24.9054 12.6894 27.4226 13.9227C30.522 15.4412 33.1757 19.4108 32.1101 23.4852C31.0476 27.5477 28.532 30.4773 30.2195 37.9384Z" fill="url(#paint44_radial_637_22363)"/>
<path d="M30.2195 37.9384H23.5945C22.0045 31.1784 27.3907 26.6763 27.7507 21.6363C28.1507 15.9063 24.0107 14.8463 24.0107 14.8463C22.6907 15.1763 25.0207 16.0963 22.4307 16.0963L21.7507 14.6463L21.0632 13.5164C22.7032 13.0664 24.9054 12.6894 27.4226 13.9227C30.522 15.4412 33.1757 19.4108 32.1101 23.4852C31.0476 27.5477 28.532 30.4773 30.2195 37.9384Z" fill="url(#paint45_radial_637_22363)"/>
<g filter="url(#filter6_f_637_22363)">
<path d="M25.9464 37.954H23.8425C23.0112 34.4196 24.0029 31.8398 25.2702 29.1403L25.9464 37.954Z" fill="url(#paint46_radial_637_22363)" fill-opacity="0.65"/>
<path d="M25.9464 37.954H23.8425C23.0112 34.4196 24.0029 31.8398 25.2702 29.1403L25.9464 37.954Z" fill="url(#paint47_radial_637_22363)" fill-opacity="0.3"/>
</g>
<g filter="url(#filter7_f_637_22363)">
<path d="M19.7686 22.862C19.3666 22.9526 18.9634 22.6978 18.8728 22.2958L18.5617 20.916C18.471 20.514 18.7258 20.1109 19.1278 20.0202C19.5299 19.9296 19.933 20.1844 20.0237 20.5864L20.3348 21.9661C20.4254 22.3682 20.1706 22.7713 19.7686 22.862Z" fill="url(#paint48_linear_637_22363)"/>
</g>
<path d="M19.8695 22.8977C19.4573 22.8977 19.1201 22.5605 19.1201 22.1483V20.734C19.1201 20.3218 19.4573 19.9846 19.8695 19.9846C20.2816 19.9846 20.6188 20.3218 20.6188 20.734V22.1483C20.6188 22.5605 20.2816 22.8977 19.8695 22.8977Z" fill="url(#paint49_linear_637_22363)"/>
<path d="M19.8695 22.8977C19.4573 22.8977 19.1201 22.5605 19.1201 22.1483V20.734C19.1201 20.3218 19.4573 19.9846 19.8695 19.9846C20.2816 19.9846 20.6188 20.3218 20.6188 20.734V22.1483C20.6188 22.5605 20.2816 22.8977 19.8695 22.8977Z" fill="url(#paint50_linear_637_22363)"/>
<path d="M19.8695 22.8977C19.4573 22.8977 19.1201 22.5605 19.1201 22.1483V20.734C19.1201 20.3218 19.4573 19.9846 19.8695 19.9846C20.2816 19.9846 20.6188 20.3218 20.6188 20.734V22.1483C20.6188 22.5605 20.2816 22.8977 19.8695 22.8977Z" fill="url(#paint51_linear_637_22363)"/>
<path d="M19.8695 22.8977C19.4573 22.8977 19.1201 22.5605 19.1201 22.1483V20.734C19.1201 20.3218 19.4573 19.9846 19.8695 19.9846C20.2816 19.9846 20.6188 20.3218 20.6188 20.734V22.1483C20.6188 22.5605 20.2816 22.8977 19.8695 22.8977Z" fill="url(#paint52_radial_637_22363)"/>
<path d="M12.6981 28.2453C12.4372 28.5063 12.0022 28.5063 11.7412 28.2453L12.6981 27.2883C12.9591 27.558 12.9591 27.9843 12.6981 28.2453Z" fill="url(#paint53_linear_637_22363)"/>
<path d="M16.1092 30.7332L14.2617 31.1429C15.0364 30.8418 15.5057 30.0207 15.3591 29.1677C15.3113 28.8891 15.4983 28.6244 15.7769 28.5766C16.0555 28.5287 16.3202 28.7157 16.3681 28.9943C16.4738 29.61 16.3703 30.214 16.1092 30.7332Z" fill="url(#paint54_linear_637_22363)"/>
<g filter="url(#filter8_f_637_22363)">
<path d="M33.5475 21.3665C33.7559 21.8873 33.96 23.7165 33.11 26.8665C32.0475 30.804 31.86 32.7415 32.485 35.7415" stroke="url(#paint55_linear_637_22363)" stroke-width="0.5" stroke-linecap="round"/>
</g>
<g filter="url(#filter9_f_637_22363)">
<path d="M29.9063 17.5687C30.5626 18.2875 32.0791 21.3411 29.3927 26.8664C27.6094 30.5342 27.3601 32.9289 27.7976 37.1164" stroke="url(#paint56_linear_637_22363)" stroke-width="0.5" stroke-linecap="round"/>
</g>
<path d="M21.7515 16.5445C20.8664 15.3334 20.5016 13.6109 20.3743 12.5568C20.3323 12.2097 20.6975 11.9962 20.9921 12.1845C22.7714 13.3223 23.6481 14.2063 24.25 14.9537C24.6977 15.5097 24.3948 16.3647 23.7074 16.5572L22.7041 16.838C22.352 16.9366 21.9672 16.8397 21.7515 16.5445Z" fill="url(#paint57_radial_637_22363)"/>
<path d="M21.7515 16.5445C20.8664 15.3334 20.5016 13.6109 20.3743 12.5568C20.3323 12.2097 20.6975 11.9962 20.9921 12.1845C22.7714 13.3223 23.6481 14.2063 24.25 14.9537C24.6977 15.5097 24.3948 16.3647 23.7074 16.5572L22.7041 16.838C22.352 16.9366 21.9672 16.8397 21.7515 16.5445Z" fill="url(#paint58_radial_637_22363)"/>
<g filter="url(#filter10_f_637_22363)">
<path d="M21.6913 16.8289C22.5554 16.9885 23.814 16.6692 24.4669 15.9125" stroke="url(#paint59_linear_637_22363)" stroke-width="0.5" stroke-linecap="round"/>
</g>
<g filter="url(#filter11_f_637_22363)">
<path d="M27.875 16.9125C28.3542 17.5271 29.3438 20.0687 28.2812 23.5687" stroke="url(#paint60_linear_637_22363)" stroke-opacity="0.3" stroke-width="0.25" stroke-linecap="round"/>
</g>
<defs>
<filter id="filter0_f_637_22363" x="12.6383" y="9.78574" width="7.71807" height="6.34685" filterUnits="userSpaceOnUse" color-interpolation-filters="sRGB">
<feFlood flood-opacity="0" result="BackgroundImageFix"/>
<feBlend mode="normal" in="SourceGraphic" in2="BackgroundImageFix" result="shape"/>
<feGaussianBlur stdDeviation="0.3" result="effect1_foregroundBlur_637_22363"/>
</filter>
<filter id="filter1_f_637_22363" x="15.8898" y="13.2651" width="5.77246" height="5.81995" filterUnits="userSpaceOnUse" color-interpolation-filters="sRGB">
<feFlood flood-opacity="0" result="BackgroundImageFix"/>
<feBlend mode="normal" in="SourceGraphic" in2="BackgroundImageFix" result="shape"/>
<feGaussianBlur stdDeviation="0.25" result="effect1_foregroundBlur_637_22363"/>
</filter>
<filter id="filter2_f_637_22363" x="32.4094" y="21.9037" width="3.44912" height="16.3252" filterUnits="userSpaceOnUse" color-interpolation-filters="sRGB">
<feFlood flood-opacity="0" result="BackgroundImageFix"/>
<feBlend mode="normal" in="SourceGraphic" in2="BackgroundImageFix" result="shape"/>
<feGaussianBlur stdDeviation="0.4" result="effect1_foregroundBlur_637_22363"/>
</filter>
<filter id="filter3_f_637_22363" x="28.5309" y="18.3008" width="4.76162" height="20.3656" filterUnits="userSpaceOnUse" color-interpolation-filters="sRGB">
<feFlood flood-opacity="0" result="BackgroundImageFix"/>
<feBlend mode="normal" in="SourceGraphic" in2="BackgroundImageFix" result="shape"/>
<feGaussianBlur stdDeviation="0.4" result="effect1_foregroundBlur_637_22363"/>
</filter>
<filter id="filter4_f_637_22363" x="9.09888" y="13.1477" width="23.3793" height="19.2297" filterUnits="userSpaceOnUse" color-interpolation-filters="sRGB">
<feFlood flood-opacity="0" result="BackgroundImageFix"/>
<feBlend mode="normal" in="SourceGraphic" in2="BackgroundImageFix" result="shape"/>
<feGaussianBlur stdDeviation="0.5" result="effect1_foregroundBlur_637_22363"/>
</filter>
<filter id="filter5_f_637_22363" x="10.4341" y="14.1" width="17.7787" height="17.8107" filterUnits="userSpaceOnUse" color-interpolation-filters="sRGB">
<feFlood flood-opacity="0" result="BackgroundImageFix"/>
<feBlend mode="normal" in="SourceGraphic" in2="BackgroundImageFix" result="shape"/>
<feGaussianBlur stdDeviation="1" result="effect1_foregroundBlur_637_22363"/>
</filter>
<filter id="filter6_f_637_22363" x="23.0365" y="28.6403" width="3.40991" height="9.81372" filterUnits="userSpaceOnUse" color-interpolation-filters="sRGB">
<feFlood flood-opacity="0" result="BackgroundImageFix"/>
<feBlend mode="normal" in="SourceGraphic" in2="BackgroundImageFix" result="shape"/>
<feGaussianBlur stdDeviation="0.25" result="effect1_foregroundBlur_637_22363"/>
</filter>
<filter id="filter7_f_637_22363" x="17.7933" y="19.252" width="3.30969" height="4.3783" filterUnits="userSpaceOnUse" color-interpolation-filters="sRGB">
<feFlood flood-opacity="0" result="BackgroundImageFix"/>
<feBlend mode="normal" in="SourceGraphic" in2="BackgroundImageFix" result="shape"/>
<feGaussianBlur stdDeviation="0.375" result="effect1_foregroundBlur_637_22363"/>
</filter>
<filter id="filter8_f_637_22363" x="30.3779" y="19.6163" width="5.10278" height="17.8751" filterUnits="userSpaceOnUse" color-interpolation-filters="sRGB">
<feFlood flood-opacity="0" result="BackgroundImageFix"/>
<feBlend mode="normal" in="SourceGraphic" in2="BackgroundImageFix" result="shape"/>
<feGaussianBlur stdDeviation="0.75" result="effect1_foregroundBlur_637_22363"/>
</filter>
<filter id="filter9_f_637_22363" x="25.8601" y="15.8187" width="6.81909" height="23.0477" filterUnits="userSpaceOnUse" color-interpolation-filters="sRGB">
<feFlood flood-opacity="0" result="BackgroundImageFix"/>
<feBlend mode="normal" in="SourceGraphic" in2="BackgroundImageFix" result="shape"/>
<feGaussianBlur stdDeviation="0.75" result="effect1_foregroundBlur_637_22363"/>
</filter>
<filter id="filter10_f_637_22363" x="20.9413" y="15.1625" width="4.27563" height="2.45654" filterUnits="userSpaceOnUse" color-interpolation-filters="sRGB">
<feFlood flood-opacity="0" result="BackgroundImageFix"/>
<feBlend mode="normal" in="SourceGraphic" in2="BackgroundImageFix" result="shape"/>
<feGaussianBlur stdDeviation="0.25" result="effect1_foregroundBlur_637_22363"/>
</filter>
<filter id="filter11_f_637_22363" x="27.25" y="16.2875" width="2.12988" height="7.90625" filterUnits="userSpaceOnUse" color-interpolation-filters="sRGB">
<feFlood flood-opacity="0" result="BackgroundImageFix"/>
<feBlend mode="normal" in="SourceGraphic" in2="BackgroundImageFix" result="shape"/>
<feGaussianBlur stdDeviation="0.25" result="effect1_foregroundBlur_637_22363"/>
</filter>
<linearGradient id="paint0_linear_637_22363" x1="11.8856" y1="8.87036" x2="20.1134" y2="17.2003" gradientUnits="userSpaceOnUse">
<stop offset="0.117197" stop-color="#FFE669"/>
<stop offset="0.322917" stop-color="#9DE0A1"/>
<stop offset="0.510417" stop-color="#5AAAFF"/>
<stop offset="0.885417" stop-color="#6547C6"/>
</linearGradient>
<linearGradient id="paint1_linear_637_22363" x1="16.6194" y1="16.6179" x2="18.1786" y2="15.2842" gradientUnits="userSpaceOnUse">
<stop stop-color="#58429D"/>
<stop offset="0.635918" stop-color="#58429D" stop-opacity="0"/>
</linearGradient>
<radialGradient id="paint2_radial_637_22363" cx="0" cy="0" r="1" gradientUnits="userSpaceOnUse" gradientTransform="translate(19.1554 16.524) rotate(-133.542) scale(3.65403 1.86173)">
<stop offset="0.21112" stop-color="#5F41BF"/>
<stop offset="0.785276" stop-color="#5F41BF" stop-opacity="0"/>
</radialGradient>
<linearGradient id="paint3_linear_637_22363" x1="15.5625" y1="19.4749" x2="23.1875" y2="16.0374" gradientUnits="userSpaceOnUse">
<stop stop-color="#8096F1"/>
<stop offset="1" stop-color="#5570DE"/>
</linearGradient>
<linearGradient id="paint4_linear_637_22363" x1="17.9062" y1="21.3187" x2="18.6353" y2="17.6455" gradientUnits="userSpaceOnUse">
<stop offset="0.199419" stop-color="#9672E0"/>
<stop offset="0.596305" stop-color="#9672E0" stop-opacity="0"/>
</linearGradient>
<radialGradient id="paint5_radial_637_22363" cx="0" cy="0" r="1" gradientUnits="userSpaceOnUse" gradientTransform="translate(21.2038 17.0695) rotate(-163.217) scale(2.05634 1.94436)">
<stop stop-color="#4360D1"/>
<stop offset="1" stop-color="#4360D1" stop-opacity="0"/>
</radialGradient>
<radialGradient id="paint6_radial_637_22363" cx="0" cy="0" r="1" gradientUnits="userSpaceOnUse" gradientTransform="translate(14.0781 17.3031) rotate(32.6609) scale(1.44765 0.789599)">
<stop stop-color="#AEC7FF"/>
<stop offset="1" stop-color="#AEC7FF" stop-opacity="0"/>
</radialGradient>
<radialGradient id="paint7_radial_637_22363" cx="0" cy="0" r="1" gradientUnits="userSpaceOnUse" gradientTransform="translate(20.6406 13.0891) rotate(153.627) scale(3.36595 1.89329)">
<stop stop-color="#AEC7FF"/>
<stop offset="0.626123" stop-color="#AEC7FF" stop-opacity="0"/>
</radialGradient>
<linearGradient id="paint8_linear_637_22363" x1="15.0163" y1="19.7101" x2="21.1622" y2="14.4289" gradientUnits="userSpaceOnUse">
<stop stop-color="#92AAF1"/>
<stop offset="1" stop-color="#92AAF1" stop-opacity="0"/>
</linearGradient>
<radialGradient id="paint9_radial_637_22363" cx="0" cy="0" r="1" gradientUnits="userSpaceOnUse" gradientTransform="translate(17.75 33.0999) rotate(34.4144) scale(8.56091 11.4861)">
<stop stop-color="#DFC1FF"/>
<stop offset="0.553633" stop-color="#B683E8"/>
</radialGradient>
<radialGradient id="paint10_radial_637_22363" cx="0" cy="0" r="1" gradientUnits="userSpaceOnUse" gradientTransform="translate(27.2976 35.4914) rotate(-172.053) scale(6.67416 9.51959)">
<stop offset="0.17078" stop-color="#9E67D9"/>
<stop offset="0.852457" stop-color="#9E67D9" stop-opacity="0"/>
</radialGradient>
<linearGradient id="paint11_linear_637_22363" x1="26.625" y1="24.4749" x2="21.0625" y2="33.9124" gradientUnits="userSpaceOnUse">
<stop offset="0.17078" stop-color="#9473B8"/>
<stop offset="0.852457" stop-color="#926FB7" stop-opacity="0"/>
</linearGradient>
<radialGradient id="paint12_radial_637_22363" cx="0" cy="0" r="1" gradientUnits="userSpaceOnUse" gradientTransform="translate(27.7537 36.4914) rotate(-162.902) scale(10.4165 32.6637)">
<stop offset="0.774132" stop-color="#EBD6FF" stop-opacity="0"/>
<stop offset="1" stop-color="#EBD6FF"/>
</radialGradient>
<linearGradient id="paint13_linear_637_22363" x1="24.25" y1="40.7249" x2="24.6466" y2="37.3338" gradientUnits="userSpaceOnUse">
<stop stop-color="#C452CE"/>
<stop offset="1" stop-color="#C452CE" stop-opacity="0"/>
</linearGradient>
<linearGradient id="paint14_linear_637_22363" x1="33.3125" y1="18.8499" x2="42.327" y2="31.2024" gradientUnits="userSpaceOnUse">
<stop stop-color="#7FA3FA"/>
<stop offset="1" stop-color="#FF6EFF"/>
</linearGradient>
<linearGradient id="paint15_linear_637_22363" x1="33" y1="37.0999" x2="36.5592" y2="35.6968" gradientUnits="userSpaceOnUse">
<stop offset="0.246377" stop-color="#E652E2"/>
<stop offset="1" stop-color="#E552E2" stop-opacity="0"/>
</linearGradient>
<radialGradient id="paint16_radial_637_22363" cx="0" cy="0" r="1" gradientUnits="userSpaceOnUse" gradientTransform="translate(36.5625 26.0374) rotate(90) scale(9.25 2.5625)">
<stop stop-color="#E5BFFF"/>
<stop offset="0.500159" stop-color="#E5BFFF" stop-opacity="0"/>
</radialGradient>
<linearGradient id="paint17_linear_637_22363" x1="32.1171" y1="17.4124" x2="39.6105" y2="28.8302" gradientUnits="userSpaceOnUse">
<stop stop-color="#7FA3FA"/>
<stop offset="1" stop-color="#FF6EFF"/>
</linearGradient>
<linearGradient id="paint18_linear_637_22363" x1="28.1508" y1="36.5146" x2="32.537" y2="36.0599" gradientUnits="userSpaceOnUse">
<stop offset="0.246377" stop-color="#E652E2"/>
<stop offset="1" stop-color="#E552E2" stop-opacity="0"/>
</linearGradient>
<radialGradient id="paint19_radial_637_22363" cx="0" cy="0" r="1" gradientUnits="userSpaceOnUse" gradientTransform="translate(33.375 15.6624) rotate(69.444) scale(3.738 3.11775)">
<stop stop-color="#9BCFFF"/>
<stop offset="1" stop-color="#9BCFFF" stop-opacity="0"/>
</radialGradient>
<radialGradient id="paint20_radial_637_22363" cx="0" cy="0" r="1" gradientUnits="userSpaceOnUse" gradientTransform="translate(27.25 23.5374) rotate(-56.2679) scale(7.76592 4.16124)">
<stop offset="0.77114" stop-color="#8BA1F9"/>
<stop offset="1" stop-color="#8BA1F9" stop-opacity="0"/>
</radialGradient>
<radialGradient id="paint21_radial_637_22363" cx="0" cy="0" r="1" gradientUnits="userSpaceOnUse" gradientTransform="translate(33.0402 36.3046) rotate(87.8264) scale(5.93703 1.29971)">
<stop stop-color="#FF95FF"/>
<stop offset="1" stop-color="#FF95FF" stop-opacity="0"/>
</radialGradient>
<linearGradient id="paint22_linear_637_22363" x1="16.5163" y1="25.2144" x2="13.3481" y2="20.7723" gradientUnits="userSpaceOnUse">
<stop stop-color="#D0BDF3"/>
<stop offset="1" stop-color="#D0ABFD"/>
</linearGradient>
<linearGradient id="paint23_linear_637_22363" x1="19.9631" y1="31.2559" x2="19.4538" y2="26.2144" gradientUnits="userSpaceOnUse">
<stop offset="0.156941" stop-color="#F580FF"/>
<stop offset="0.546408" stop-color="#CA80FF" stop-opacity="0"/>
</linearGradient>
<radialGradient id="paint24_radial_637_22363" cx="0" cy="0" r="1" gradientUnits="userSpaceOnUse" gradientTransform="translate(23.1566 17.8809) rotate(128.004) scale(20.5023 16.008)">
<stop offset="0.723631" stop-color="#CA80FF" stop-opacity="0"/>
<stop offset="0.907924" stop-color="#CA80FF"/>
</radialGradient>
<radialGradient id="paint25_radial_637_22363" cx="0" cy="0" r="1" gradientUnits="userSpaceOnUse" gradientTransform="translate(23.7038 32.6519) rotate(-80.8698) scale(7.08983 12.2981)">
<stop stop-color="#F580FF"/>
<stop offset="1" stop-color="#CA80FF" stop-opacity="0"/>
</radialGradient>
<radialGradient id="paint26_radial_637_22363" cx="0" cy="0" r="1" gradientUnits="userSpaceOnUse" gradientTransform="translate(6.57881 18.2144) rotate(23.0464) scale(23.0591 20.6394)">
<stop offset="0.70061" stop-color="#9E7ACB" stop-opacity="0"/>
<stop offset="1" stop-color="#9E7ACB"/>
</radialGradient>
<radialGradient id="paint27_radial_637_22363" cx="0" cy="0" r="1" gradientUnits="userSpaceOnUse" gradientTransform="translate(9.33075 30.8802) rotate(-16.5258) scale(7.13241 3.41026)">
<stop stop-color="#A974FF"/>
<stop offset="1" stop-color="#A974FF" stop-opacity="0"/>
</radialGradient>
<linearGradient id="paint28_linear_637_22363" x1="16.125" y1="20.3187" x2="16.8719" y2="21.0189" gradientUnits="userSpaceOnUse">
<stop stop-color="#F9E1FF"/>
<stop offset="1" stop-color="#F6D5FF" stop-opacity="0"/>
</linearGradient>
<radialGradient id="paint29_radial_637_22363" cx="0" cy="0" r="1" gradientUnits="userSpaceOnUse" gradientTransform="translate(11.4851 18.4915) rotate(32.8969) scale(21.2887 19.0547)">
<stop offset="0.660717" stop-color="#957ADD" stop-opacity="0"/>
<stop offset="0.842391" stop-color="#957ADD"/>
</radialGradient>
<linearGradient id="paint30_linear_637_22363" x1="12.1414" y1="29.6164" x2="28.5659" y2="8.56486" gradientUnits="userSpaceOnUse">
<stop stop-color="#F6D5FF"/>
<stop offset="1" stop-color="#F6D5FF" stop-opacity="0"/>
</linearGradient>
<linearGradient id="paint31_linear_637_22363" x1="32.3497" y1="14.1804" x2="31.4606" y2="37.2365" gradientUnits="userSpaceOnUse">
<stop stop-color="#504340"/>
<stop offset="1" stop-color="#504449"/>
</linearGradient>
<linearGradient id="paint32_linear_637_22363" x1="22.9851" y1="32.4772" x2="30.4851" y2="32.4772" gradientUnits="userSpaceOnUse">
<stop offset="0.246377" stop-color="#3C253D"/>
<stop offset="1" stop-color="#623769" stop-opacity="0"/>
</linearGradient>
<radialGradient id="paint33_radial_637_22363" cx="0" cy="0" r="1" gradientUnits="userSpaceOnUse" gradientTransform="translate(25.0364 15.0373) rotate(33.88) scale(7.26094 8.03806)">
<stop stop-color="#443835"/>
<stop offset="1" stop-color="#4F413E" stop-opacity="0"/>
</radialGradient>
<radialGradient id="paint34_radial_637_22363" cx="0" cy="0" r="1" gradientUnits="userSpaceOnUse" gradientTransform="translate(32.3498 31.2124) rotate(-83.523) scale(13.366 8.48)">
<stop offset="0.441432" stop-color="#3B282D"/>
<stop offset="0.841107" stop-color="#3B282D" stop-opacity="0"/>
</radialGradient>
<radialGradient id="paint35_radial_637_22363" cx="0" cy="0" r="1" gradientUnits="userSpaceOnUse" gradientTransform="translate(32.3498 31.2124) rotate(-80.3949) scale(8.2332 4.70827)">
<stop offset="0.441432" stop-color="#3B282D"/>
<stop offset="0.841107" stop-color="#3B282D" stop-opacity="0"/>
</radialGradient>
<radialGradient id="paint36_radial_637_22363" cx="0" cy="0" r="1" gradientUnits="userSpaceOnUse" gradientTransform="translate(18.6101 23.8039) rotate(-7.75316) scale(13.4353 11.7574)">
<stop offset="0.612913" stop-color="#3B282D"/>
<stop offset="0.84319" stop-color="#3B282D" stop-opacity="0"/>
</radialGradient>
<radialGradient id="paint37_radial_637_22363" cx="0" cy="0" r="1" gradientUnits="userSpaceOnUse" gradientTransform="translate(21.9226 20.6164) rotate(-46.5482) scale(8.9968 7.12028)">
<stop offset="0.663835" stop-color="#3B282D"/>
<stop offset="0.880027" stop-color="#3B282D" stop-opacity="0"/>
</radialGradient>
<radialGradient id="paint38_radial_637_22363" cx="0" cy="0" r="1" gradientUnits="userSpaceOnUse" gradientTransform="translate(25.4581 18.8492) rotate(62.8528) scale(4.37406 2.70071)">
<stop stop-color="#827876"/>
<stop offset="1" stop-color="#C2BCBB" stop-opacity="0"/>
</radialGradient>
<radialGradient id="paint39_radial_637_22363" cx="0" cy="0" r="1" gradientUnits="userSpaceOnUse" gradientTransform="translate(25.9465 20.9531) rotate(93.0394) scale(4.25142 2.62498)">
<stop stop-color="#827876"/>
<stop offset="1" stop-color="#C2BCBB" stop-opacity="0"/>
</radialGradient>
<linearGradient id="paint40_linear_637_22363" x1="24.5" y1="17.8499" x2="31.8447" y2="30.9457" gradientUnits="userSpaceOnUse">
<stop stop-color="#53A3FB"/>
<stop offset="1" stop-color="#FF6EFF"/>
</linearGradient>
<linearGradient id="paint41_linear_637_22363" x1="19" y1="36.2249" x2="29.25" y2="33.9124" gradientUnits="userSpaceOnUse">
<stop offset="0.246377" stop-color="#E652E2"/>
<stop offset="1" stop-color="#E552E2" stop-opacity="0"/>
</linearGradient>
<radialGradient id="paint42_radial_637_22363" cx="0" cy="0" r="1" gradientUnits="userSpaceOnUse" gradientTransform="translate(26 12.7249) rotate(25.292) scale(6.29049 2.03929)">
<stop stop-color="#78BEFF"/>
<stop offset="1" stop-color="#78BEFF" stop-opacity="0"/>
</radialGradient>
<radialGradient id="paint43_radial_637_22363" cx="0" cy="0" r="1" gradientUnits="userSpaceOnUse" gradientTransform="translate(21.9226 20.6164) rotate(-46.5482) scale(8.9968 7.12028)">
<stop offset="0.663835" stop-color="#5981F2"/>
<stop offset="0.880027" stop-color="#5981F2" stop-opacity="0"/>
</radialGradient>
<radialGradient id="paint44_radial_637_22363" cx="0" cy="0" r="1" gradientUnits="userSpaceOnUse" gradientTransform="translate(24.5938 17.5062) rotate(42.0793) scale(4.33666 2.94746)">
<stop offset="0.487849" stop-color="#5F71E6"/>
<stop offset="1" stop-color="#5F71E6" stop-opacity="0"/>
</radialGradient>
<radialGradient id="paint45_radial_637_22363" cx="0" cy="0" r="1" gradientUnits="userSpaceOnUse" gradientTransform="translate(28.5 35.9749) rotate(86.4552) scale(7.07604 2.52227)">
<stop stop-color="#FF95FF"/>
<stop offset="1" stop-color="#FF95FF" stop-opacity="0"/>
</radialGradient>
<radialGradient id="paint46_radial_637_22363" cx="0" cy="0" r="1" gradientUnits="userSpaceOnUse" gradientTransform="translate(24.5188 27.1678) rotate(98.5999) scale(12.3112 1.37805)">
<stop stop-color="white"/>
<stop offset="1" stop-color="white" stop-opacity="0"/>
</radialGradient>
<radialGradient id="paint47_radial_637_22363" cx="0" cy="0" r="1" gradientUnits="userSpaceOnUse" gradientTransform="translate(24.1431 26.2286) rotate(87.3719) scale(13.0506 1.46081)">
<stop stop-color="white"/>
<stop offset="0.989076" stop-color="white" stop-opacity="0"/>
</radialGradient>
<linearGradient id="paint48_linear_637_22363" x1="19.8601" y1="22.7882" x2="19.2038" y2="20.1632" gradientUnits="userSpaceOnUse">
<stop stop-color="#A781D8"/>
<stop offset="1" stop-color="#C9AAF2" stop-opacity="0"/>
</linearGradient>
<linearGradient id="paint49_linear_637_22363" x1="20.6188" y1="21.4412" x2="19.7513" y2="21.4412" gradientUnits="userSpaceOnUse">
<stop offset="0.225" stop-color="#594C4F"/>
<stop offset="1" stop-color="#392833"/>
</linearGradient>
<linearGradient id="paint50_linear_637_22363" x1="20.853" y1="22.9401" x2="20.853" y2="21.5716" gradientUnits="userSpaceOnUse">
<stop stop-color="#552D52"/>
<stop offset="1" stop-color="#552D52" stop-opacity="0"/>
</linearGradient>
<linearGradient id="paint51_linear_637_22363" x1="18.6243" y1="22.1278" x2="19.657" y2="22.1278" gradientUnits="userSpaceOnUse">
<stop stop-color="#594C4F"/>
<stop offset="1" stop-color="#594C4F" stop-opacity="0"/>
</linearGradient>
<radialGradient id="paint52_radial_637_22363" cx="0" cy="0" r="1" gradientUnits="userSpaceOnUse" gradientTransform="translate(20.1611 21.6155) rotate(-110.004) scale(1.68992 1.67933)">
<stop offset="0.813951" stop-color="#594C4F" stop-opacity="0"/>
<stop offset="1" stop-color="#594C4F"/>
</radialGradient>
<linearGradient id="paint53_linear_637_22363" x1="11.8366" y1="28.0852" x2="12.7897" y2="27.9993" gradientUnits="userSpaceOnUse">
<stop stop-color="#382A32"/>
<stop offset="1" stop-color="#2A1927"/>
</linearGradient>
<linearGradient id="paint54_linear_637_22363" x1="16.0312" y1="30.2093" x2="15.9844" y2="27.8812" gradientUnits="userSpaceOnUse">
<stop stop-color="#5B3169"/>
<stop offset="1" stop-color="#5A4056"/>
</linearGradient>
<linearGradient id="paint55_linear_637_22363" x1="33.547" y1="23.3319" x2="33.547" y2="52.781" gradientUnits="userSpaceOnUse">
<stop stop-color="#CDDDFF"/>
<stop offset="1" stop-color="white" stop-opacity="0"/>
</linearGradient>
<linearGradient id="paint56_linear_637_22363" x1="30.549" y1="20.2414" x2="30.549" y2="60.2875" gradientUnits="userSpaceOnUse">
<stop stop-color="#CDDDFF"/>
<stop offset="1" stop-color="white" stop-opacity="0"/>
</linearGradient>
<radialGradient id="paint57_radial_637_22363" cx="0" cy="0" r="1" gradientUnits="userSpaceOnUse" gradientTransform="translate(23.1002 15.5702) rotate(77.3262) scale(4.02414 2.29324)">
<stop stop-color="#C6AFF4"/>
<stop offset="0.73986" stop-color="#BC9AFE"/>
<stop offset="1" stop-color="#B087FF"/>
</radialGradient>
<radialGradient id="paint58_radial_637_22363" cx="0" cy="0" r="1" gradientUnits="userSpaceOnUse" gradientTransform="translate(23.2317 15.0067) rotate(59.9314) scale(2.88692 1.26438)">
<stop stop-color="#D0BBFF"/>
<stop offset="1" stop-color="#C5ABFF" stop-opacity="0"/>
</radialGradient>
<linearGradient id="paint59_linear_637_22363" x1="24.5447" y1="15.9047" x2="20.7852" y2="16.9997" gradientUnits="userSpaceOnUse">
<stop stop-color="#C2A9FA"/>
<stop offset="1" stop-color="#C8ACEF" stop-opacity="0"/>
</linearGradient>
<linearGradient id="paint60_linear_637_22363" x1="27.5937" y1="18.0375" x2="28.3149" y2="26.8812" gradientUnits="userSpaceOnUse">
<stop stop-color="#CDDDFF"/>
<stop offset="0.48325" stop-color="white" stop-opacity="0"/>
</linearGradient>
</defs>
</svg>
