<svg width="48" height="48" viewBox="0 0 48 48" fill="none" xmlns="http://www.w3.org/2000/svg">
<rect width="48" height="48" rx="24" fill="#F2F5FF"/>
<circle cx="13.5471" cy="31.5" r="3.5" fill="#A7DE50"/>
<circle cx="13.5471" cy="31.5" r="3.5" fill="url(#paint0_linear_637_22385)"/>
<circle cx="13.5471" cy="31.5" r="3.5" fill="url(#paint1_radial_637_22385)"/>
<circle cx="13.5471" cy="31.5" r="3.5" fill="url(#paint2_radial_637_22385)"/>
<circle cx="13.5471" cy="31.5" r="3.5" fill="url(#paint3_radial_637_22385)"/>
<g filter="url(#filter0_f_637_22385)">
<circle cx="12.7307" cy="30.6367" r="0.5" fill="#5B841C"/>
</g>
<path d="M12.9983 34.9805L20.9846 34V36.5C20.9846 37.3284 20.313 38 19.4846 38H14.4983C13.6699 38 12.9983 37.3284 12.9983 36.5V34.9805Z" fill="#A7CD4C"/>
<path d="M12.9983 34.9805L20.9846 34V36.5C20.9846 37.3284 20.313 38 19.4846 38H14.4983C13.6699 38 12.9983 37.3284 12.9983 36.5V34.9805Z" fill="url(#paint4_radial_637_22385)"/>
<path d="M12.9983 34.9805L20.9846 34V36.5C20.9846 37.3284 20.313 38 19.4846 38H14.4983C13.6699 38 12.9983 37.3284 12.9983 36.5V34.9805Z" fill="url(#paint5_linear_637_22385)"/>
<path d="M12.9983 34.9805L20.9846 34V36.5C20.9846 37.3284 20.313 38 19.4846 38H14.4983C13.6699 38 12.9983 37.3284 12.9983 36.5V34.9805Z" fill="url(#paint6_linear_637_22385)"/>
<path d="M12.9983 34.9805L20.9846 34V36.5C20.9846 37.3284 20.313 38 19.4846 38H14.4983C13.6699 38 12.9983 37.3284 12.9983 36.5V34.9805Z" fill="url(#paint7_linear_637_22385)"/>
<path d="M12.9983 34.9805L20.9846 34V36.5C20.9846 37.3284 20.313 38 19.4846 38H14.4983C13.6699 38 12.9983 37.3284 12.9983 36.5V34.9805Z" fill="url(#paint8_linear_637_22385)"/>
<path d="M27.967 33.9375H35.9534V36.4375C35.9534 37.2659 35.2818 37.9375 34.4534 37.9375H29.467C28.6386 37.9375 27.967 37.2659 27.967 36.4375V33.9375Z" fill="#A7CD4C"/>
<path d="M27.967 33.9375H35.9534V36.4375C35.9534 37.2659 35.2818 37.9375 34.4534 37.9375H29.467C28.6386 37.9375 27.967 37.2659 27.967 36.4375V33.9375Z" fill="url(#paint9_radial_637_22385)"/>
<path d="M27.967 33.9375H35.9534V36.4375C35.9534 37.2659 35.2818 37.9375 34.4534 37.9375H29.467C28.6386 37.9375 27.967 37.2659 27.967 36.4375V33.9375Z" fill="url(#paint10_linear_637_22385)"/>
<path d="M27.967 33.9375H35.9534V36.4375C35.9534 37.2659 35.2818 37.9375 34.4534 37.9375H29.467C28.6386 37.9375 27.967 37.2659 27.967 36.4375V33.9375Z" fill="url(#paint11_linear_637_22385)"/>
<path d="M27.967 33.9375H35.9534V36.4375C35.9534 37.2659 35.2818 37.9375 34.4534 37.9375H29.467C28.6386 37.9375 27.967 37.2659 27.967 36.4375V33.9375Z" fill="url(#paint12_linear_637_22385)"/>
<path d="M27.967 33.9375H35.9534V36.4375C35.9534 37.2659 35.2818 37.9375 34.4534 37.9375H29.467C28.6386 37.9375 27.967 37.2659 27.967 36.4375V33.9375Z" fill="url(#paint13_radial_637_22385)"/>
<path d="M37.6409 33.5859C37.3909 33.3672 35.4885 31.5352 35.4885 31.5352L34.8323 34.9766H37.1917C37.4417 34.9766 37.7698 34.8125 37.9026 34.5156C38.0354 34.2188 37.8909 33.8047 37.6409 33.5859Z" fill="url(#paint14_linear_637_22385)"/>
<path d="M37.6409 33.5859C37.3909 33.3672 35.4885 31.5352 35.4885 31.5352L34.8323 34.9766H37.1917C37.4417 34.9766 37.7698 34.8125 37.9026 34.5156C38.0354 34.2188 37.8909 33.8047 37.6409 33.5859Z" fill="url(#paint15_linear_637_22385)"/>
<path d="M37.6409 33.5859C37.3909 33.3672 35.4885 31.5352 35.4885 31.5352L34.8323 34.9766H37.1917C37.4417 34.9766 37.7698 34.8125 37.9026 34.5156C38.0354 34.2188 37.8909 33.8047 37.6409 33.5859Z" fill="url(#paint16_linear_637_22385)"/>
<path d="M37.6409 33.5859C37.3909 33.3672 35.4885 31.5352 35.4885 31.5352L34.8323 34.9766H37.1917C37.4417 34.9766 37.7698 34.8125 37.9026 34.5156C38.0354 34.2188 37.8909 33.8047 37.6409 33.5859Z" fill="url(#paint17_linear_637_22385)"/>
<g filter="url(#filter1_i_637_22385)">
<path d="M24.3909 20.7812C17.9705 20.7812 13.0452 25.8297 13.0452 32.25C13.0452 33.1726 12.9983 34.0625 12.9983 34.9775H35.9377V32.2187C35.9377 25.7984 30.8112 20.7812 24.3909 20.7812Z" fill="url(#paint18_radial_637_22385)"/>
<path d="M24.3909 20.7812C17.9705 20.7812 13.0452 25.8297 13.0452 32.25C13.0452 33.1726 12.9983 34.0625 12.9983 34.9775H35.9377V32.2187C35.9377 25.7984 30.8112 20.7812 24.3909 20.7812Z" fill="url(#paint19_radial_637_22385)"/>
<path d="M24.3909 20.7812C17.9705 20.7812 13.0452 25.8297 13.0452 32.25C13.0452 33.1726 12.9983 34.0625 12.9983 34.9775H35.9377V32.2187C35.9377 25.7984 30.8112 20.7812 24.3909 20.7812Z" fill="url(#paint20_linear_637_22385)"/>
<path d="M24.3909 20.7812C17.9705 20.7812 13.0452 25.8297 13.0452 32.25C13.0452 33.1726 12.9983 34.0625 12.9983 34.9775H35.9377V32.2187C35.9377 25.7984 30.8112 20.7812 24.3909 20.7812Z" fill="url(#paint21_linear_637_22385)"/>
<path d="M24.3909 20.7812C17.9705 20.7812 13.0452 25.8297 13.0452 32.25C13.0452 33.1726 12.9983 34.0625 12.9983 34.9775H35.9377V32.2187C35.9377 25.7984 30.8112 20.7812 24.3909 20.7812Z" fill="url(#paint22_radial_637_22385)"/>
</g>
<path d="M24.3909 20.7812C17.9705 20.7812 13.0452 25.8297 13.0452 32.25C13.0452 33.1726 12.9983 34.0625 12.9983 34.9775H35.9377V32.2187C35.9377 25.7984 30.8112 20.7812 24.3909 20.7812Z" fill="url(#paint23_linear_637_22385)"/>
<path d="M24.3909 20.7812C17.9705 20.7812 13.0452 25.8297 13.0452 32.25C13.0452 33.1726 12.9983 34.0625 12.9983 34.9775H35.9377V32.2187C35.9377 25.7984 30.8112 20.7812 24.3909 20.7812Z" fill="url(#paint24_linear_637_22385)"/>
<circle cx="12.4846" cy="30.4375" r="0.5" fill="url(#paint25_radial_637_22385)"/>
<circle cx="12.4846" cy="30.4375" r="0.5" fill="url(#paint26_radial_637_22385)"/>
<g filter="url(#filter2_i_637_22385)">
<path fill-rule="evenodd" clip-rule="evenodd" d="M18.9026 24.2187C18.7396 23.9978 18.4286 23.9496 18.2062 24.1113C17.9829 24.2737 17.9335 24.5864 18.0959 24.8097L18.5003 24.5157C18.0959 24.8097 18.0961 24.81 18.0963 24.8103L18.0968 24.8109L18.0978 24.8123L18.1002 24.8156L18.1069 24.8244C18.1121 24.8312 18.1188 24.84 18.1272 24.8505C18.144 24.8716 18.1673 24.8997 18.1973 24.934C18.2574 25.0025 18.3448 25.0954 18.4621 25.2043C18.6968 25.4223 19.0511 25.704 19.546 25.9826C19.8636 26.1614 20.2373 26.3378 20.6722 26.4952L18.5601 30.8818C18.2821 30.7587 18.0274 30.6322 17.7955 30.5061C17.1214 30.1396 16.636 29.7755 16.3228 29.5074C16.1661 29.3733 16.0526 29.2633 15.9802 29.1892C15.944 29.1521 15.9181 29.124 15.9022 29.1064L15.8859 29.0879L15.8834 29.085C15.7064 28.874 15.392 28.8457 15.1803 29.0221C14.9681 29.1988 14.9393 29.5141 15.1161 29.7263L15.5003 29.4063C15.1161 29.7263 15.1162 29.7265 15.1165 29.7267L15.1169 29.7273L15.118 29.7286L15.1209 29.7321L15.1297 29.7423C15.1368 29.7505 15.1466 29.7616 15.1589 29.7753C15.1836 29.8028 15.2188 29.8408 15.2648 29.8879C15.3568 29.9821 15.492 30.1126 15.6725 30.2671C16.0336 30.5762 16.5764 30.9815 17.3179 31.3846C18.8037 32.1924 21.0756 32.9844 24.2609 32.9844C27.4446 32.9844 29.8188 32.2011 31.4047 31.4082C32.1967 31.0122 32.7907 30.6145 33.1902 30.3124C33.3899 30.1613 33.5411 30.034 33.6442 29.9427C33.6958 29.897 33.7353 29.8602 33.7629 29.834C33.7767 29.8208 33.7875 29.8103 33.7954 29.8026L33.8049 29.7932L33.808 29.7901L33.8091 29.7889L33.8095 29.7885C33.8097 29.7883 33.8099 29.7881 33.4534 29.4375L33.8099 29.7881C34.0035 29.5911 34.0008 29.2746 33.8039 29.081C33.6071 28.8875 33.2908 28.8901 33.0971 29.0867L33.0968 29.087L33.0938 29.0899L33.0736 29.1095C33.0542 29.1279 33.0234 29.1566 32.9809 29.1943C32.896 29.2695 32.7648 29.3803 32.5869 29.5148C32.231 29.784 31.6889 30.148 30.9575 30.5138C30.7712 30.6069 30.5725 30.7002 30.3614 30.7921L28.2597 26.4271C28.6324 26.2898 28.9626 26.1408 29.252 25.9908C29.7821 25.7158 30.1723 25.4386 30.4338 25.2257C30.5646 25.1193 30.6633 25.0289 30.7312 24.9628C30.7652 24.9298 30.7915 24.9028 30.8104 24.883C30.8198 24.873 30.8273 24.8649 30.833 24.8586L30.8402 24.8507L30.8428 24.8478L30.8438 24.8467L30.8442 24.8462C30.8444 24.8459 30.8446 24.8457 30.469 24.5157L30.8446 24.8457C31.0269 24.6383 31.0065 24.3224 30.7991 24.1401C30.5921 23.9582 30.2771 23.9781 30.0946 24.1843L30.0944 24.1845C30.0951 24.1837 30.0954 24.1834 30.0952 24.1836L30.0947 24.1842L30.0946 24.1843C30.0945 24.1844 30.0943 24.1846 30.0941 24.1848L30.0944 24.1845L30.0849 24.1947C30.0751 24.205 30.0582 24.2224 30.0342 24.2458C29.9861 24.2925 29.9093 24.3632 29.8026 24.4501C29.5891 24.6239 29.2556 24.8624 28.7916 25.1031C27.866 25.5831 26.4095 26.0782 24.3284 26.0782C22.2476 26.0782 20.8754 25.5834 20.0366 25.1112C19.6155 24.8742 19.3243 24.6403 19.1425 24.4715C19.0516 24.3871 18.9879 24.3188 18.9491 24.2746C18.9297 24.2524 18.9165 24.2363 18.9092 24.2271L18.9026 24.2188L18.9026 24.2187ZM30.0941 24.1848C30.094 24.1849 30.0939 24.1851 30.0938 24.1852L30.0941 24.1848L30.0941 24.1848ZM29.4271 31.1568L27.2938 26.7262C26.4641 26.9375 25.4793 27.0782 24.3284 27.0782C23.2871 27.0782 22.3972 26.963 21.6432 26.7837L19.4942 31.2469C20.7271 31.6688 22.3032 31.9844 24.2609 31.9844C26.3656 31.9844 28.0841 31.6234 29.4271 31.1568Z" fill="url(#paint27_linear_637_22385)"/>
</g>
<g filter="url(#filter3_i_637_22385)">
<path fill-rule="evenodd" clip-rule="evenodd" d="M18.9026 24.2187C18.7396 23.9978 18.4286 23.9496 18.2062 24.1113C17.9829 24.2737 17.9335 24.5864 18.0959 24.8097L18.5003 24.5157C18.0959 24.8097 18.0961 24.81 18.0963 24.8103L18.0968 24.8109L18.0978 24.8123L18.1002 24.8156L18.1069 24.8244C18.1121 24.8312 18.1188 24.84 18.1272 24.8505C18.144 24.8716 18.1673 24.8997 18.1973 24.934C18.2574 25.0025 18.3448 25.0954 18.4621 25.2043C18.6968 25.4223 19.0511 25.704 19.546 25.9826C19.8636 26.1614 20.2373 26.3378 20.6722 26.4952L18.5601 30.8818C18.2821 30.7587 18.0274 30.6322 17.7955 30.5061C17.1214 30.1396 16.636 29.7755 16.3228 29.5074C16.1661 29.3733 16.0526 29.2633 15.9802 29.1892C15.944 29.1521 15.9181 29.124 15.9022 29.1064L15.8859 29.0879L15.8834 29.085C15.7064 28.874 15.392 28.8457 15.1803 29.0221C14.9681 29.1988 14.9393 29.5141 15.1161 29.7263L15.5003 29.4063C15.1161 29.7263 15.1162 29.7265 15.1165 29.7267L15.1169 29.7273L15.118 29.7286L15.1209 29.7321L15.1297 29.7423C15.1368 29.7505 15.1466 29.7616 15.1589 29.7753C15.1836 29.8028 15.2188 29.8408 15.2648 29.8879C15.3568 29.9821 15.492 30.1126 15.6725 30.2671C16.0336 30.5762 16.5764 30.9815 17.3179 31.3846C18.8037 32.1924 21.0756 32.9844 24.2609 32.9844C27.4446 32.9844 29.8188 32.2011 31.4047 31.4082C32.1967 31.0122 32.7907 30.6145 33.1902 30.3124C33.3899 30.1613 33.5411 30.034 33.6442 29.9427C33.6958 29.897 33.7353 29.8602 33.7629 29.834C33.7767 29.8208 33.7875 29.8103 33.7954 29.8026L33.8049 29.7932L33.808 29.7901L33.8091 29.7889L33.8095 29.7885C33.8097 29.7883 33.8099 29.7881 33.4534 29.4375L33.8099 29.7881C34.0035 29.5911 34.0008 29.2746 33.8039 29.081C33.6071 28.8875 33.2908 28.8901 33.0971 29.0867L33.0968 29.087L33.0938 29.0899L33.0736 29.1095C33.0542 29.1279 33.0234 29.1566 32.9809 29.1943C32.896 29.2695 32.7648 29.3803 32.5869 29.5148C32.231 29.784 31.6889 30.148 30.9575 30.5138C30.7712 30.6069 30.5725 30.7002 30.3614 30.7921L28.2597 26.4271C28.6324 26.2898 28.9626 26.1408 29.252 25.9908C29.7821 25.7158 30.1723 25.4386 30.4338 25.2257C30.5646 25.1193 30.6633 25.0289 30.7312 24.9628C30.7652 24.9298 30.7915 24.9028 30.8104 24.883C30.8198 24.873 30.8273 24.8649 30.833 24.8586L30.8402 24.8507L30.8428 24.8478L30.8438 24.8467L30.8442 24.8462C30.8444 24.8459 30.8446 24.8457 30.469 24.5157L30.8446 24.8457C31.0269 24.6383 31.0065 24.3224 30.7991 24.1401C30.5921 23.9582 30.2771 23.9781 30.0946 24.1843L30.0944 24.1845C30.0951 24.1837 30.0954 24.1834 30.0952 24.1836L30.0947 24.1842L30.0946 24.1843C30.0945 24.1844 30.0943 24.1846 30.0941 24.1848L30.0944 24.1845L30.0849 24.1947C30.0751 24.205 30.0582 24.2224 30.0342 24.2458C29.9861 24.2925 29.9093 24.3632 29.8026 24.4501C29.5891 24.6239 29.2556 24.8624 28.7916 25.1031C27.866 25.5831 26.4095 26.0782 24.3284 26.0782C22.2476 26.0782 20.8754 25.5834 20.0366 25.1112C19.6155 24.8742 19.3243 24.6403 19.1425 24.4715C19.0516 24.3871 18.9879 24.3188 18.9491 24.2746C18.9297 24.2524 18.9165 24.2363 18.9092 24.2271L18.9026 24.2188L18.9026 24.2187ZM30.0941 24.1848C30.094 24.1849 30.0939 24.1851 30.0938 24.1852L30.0941 24.1848L30.0941 24.1848ZM29.4271 31.1568L27.2938 26.7262C26.4641 26.9375 25.4793 27.0782 24.3284 27.0782C23.2871 27.0782 22.3972 26.963 21.6432 26.7837L19.4942 31.2469C20.7271 31.6688 22.3032 31.9844 24.2609 31.9844C26.3656 31.9844 28.0841 31.6234 29.4271 31.1568Z" fill="url(#paint28_radial_637_22385)"/>
</g>
<g filter="url(#filter4_f_637_22385)">
<path d="M25.6721 26.4062C26.5784 26.4167 28.9034 25.9625 30.4534 24.4375" stroke="url(#paint29_linear_637_22385)" stroke-width="0.15" stroke-linecap="round"/>
</g>
<g filter="url(#filter5_f_637_22385)">
<path d="M24.8284 32.6406C28.6721 32.3906 31.0315 31.5312 33.5627 29.5312" stroke="url(#paint30_linear_637_22385)" stroke-width="0.15" stroke-linecap="round"/>
</g>
<g filter="url(#filter6_f_637_22385)">
<path d="M21.0002 26.6562L19.1565 30.6406" stroke="url(#paint31_linear_637_22385)" stroke-width="0.15" stroke-linecap="round"/>
</g>
<g filter="url(#filter7_f_637_22385)">
<path d="M18.5237 24.8203C18.6747 25.0026 19.1643 25.4062 19.6487 25.6797" stroke="url(#paint32_linear_637_22385)" stroke-width="0.15" stroke-linecap="round"/>
</g>
<g filter="url(#filter8_f_637_22385)">
<path d="M15.6311 29.707C15.7821 29.8893 16.2717 30.293 16.7561 30.5664" stroke="url(#paint33_linear_637_22385)" stroke-opacity="0.5" stroke-width="0.15" stroke-linecap="round"/>
</g>
<defs>
<filter id="filter0_f_637_22385" x="11.7307" y="29.6367" width="2" height="2" filterUnits="userSpaceOnUse" color-interpolation-filters="sRGB">
<feFlood flood-opacity="0" result="BackgroundImageFix"/>
<feBlend mode="normal" in="SourceGraphic" in2="BackgroundImageFix" result="shape"/>
<feGaussianBlur stdDeviation="0.25" result="effect1_foregroundBlur_637_22385"/>
</filter>
<filter id="filter1_i_637_22385" x="12.9983" y="20.7812" width="23.0895" height="14.3462" filterUnits="userSpaceOnUse" color-interpolation-filters="sRGB">
<feFlood flood-opacity="0" result="BackgroundImageFix"/>
<feBlend mode="normal" in="SourceGraphic" in2="BackgroundImageFix" result="shape"/>
<feColorMatrix in="SourceAlpha" type="matrix" values="0 0 0 0 0 0 0 0 0 0 0 0 0 0 0 0 0 0 127 0" result="hardAlpha"/>
<feOffset dx="0.15" dy="0.15"/>
<feGaussianBlur stdDeviation="0.5"/>
<feComposite in2="hardAlpha" operator="arithmetic" k2="-1" k3="1"/>
<feColorMatrix type="matrix" values="0 0 0 0 0.905882 0 0 0 0 0.968627 0 0 0 0 0.941176 0 0 0 1 0"/>
<feBlend mode="normal" in2="shape" result="effect1_innerShadow_637_22385"/>
</filter>
<filter id="filter2_i_637_22385" x="15.0002" y="24.0156" width="18.9531" height="9.11875" filterUnits="userSpaceOnUse" color-interpolation-filters="sRGB">
<feFlood flood-opacity="0" result="BackgroundImageFix"/>
<feBlend mode="normal" in="SourceGraphic" in2="BackgroundImageFix" result="shape"/>
<feColorMatrix in="SourceAlpha" type="matrix" values="0 0 0 0 0 0 0 0 0 0 0 0 0 0 0 0 0 0 127 0" result="hardAlpha"/>
<feOffset dy="0.15"/>
<feGaussianBlur stdDeviation="0.25"/>
<feComposite in2="hardAlpha" operator="arithmetic" k2="-1" k3="1"/>
<feColorMatrix type="matrix" values="0 0 0 0 0.333333 0 0 0 0 0.635294 0 0 0 0 0.47451 0 0 0 1 0"/>
<feBlend mode="normal" in2="shape" result="effect1_innerShadow_637_22385"/>
</filter>
<filter id="filter3_i_637_22385" x="15.0002" y="24.0156" width="18.9531" height="9.11875" filterUnits="userSpaceOnUse" color-interpolation-filters="sRGB">
<feFlood flood-opacity="0" result="BackgroundImageFix"/>
<feBlend mode="normal" in="SourceGraphic" in2="BackgroundImageFix" result="shape"/>
<feColorMatrix in="SourceAlpha" type="matrix" values="0 0 0 0 0 0 0 0 0 0 0 0 0 0 0 0 0 0 127 0" result="hardAlpha"/>
<feOffset dy="0.15"/>
<feGaussianBlur stdDeviation="0.25"/>
<feComposite in2="hardAlpha" operator="arithmetic" k2="-1" k3="1"/>
<feColorMatrix type="matrix" values="0 0 0 0 0.333333 0 0 0 0 0.635294 0 0 0 0 0.47451 0 0 0 1 0"/>
<feBlend mode="normal" in2="shape" result="effect1_innerShadow_637_22385"/>
</filter>
<filter id="filter4_f_637_22385" x="25.3472" y="24.1125" width="5.43115" height="2.6189" filterUnits="userSpaceOnUse" color-interpolation-filters="sRGB">
<feFlood flood-opacity="0" result="BackgroundImageFix"/>
<feBlend mode="normal" in="SourceGraphic" in2="BackgroundImageFix" result="shape"/>
<feGaussianBlur stdDeviation="0.125" result="effect1_foregroundBlur_637_22385"/>
</filter>
<filter id="filter5_f_637_22385" x="24.5034" y="29.2063" width="9.38428" height="3.75928" filterUnits="userSpaceOnUse" color-interpolation-filters="sRGB">
<feFlood flood-opacity="0" result="BackgroundImageFix"/>
<feBlend mode="normal" in="SourceGraphic" in2="BackgroundImageFix" result="shape"/>
<feGaussianBlur stdDeviation="0.125" result="effect1_foregroundBlur_637_22385"/>
</filter>
<filter id="filter6_f_637_22385" x="18.8314" y="26.3312" width="2.4939" height="4.63452" filterUnits="userSpaceOnUse" color-interpolation-filters="sRGB">
<feFlood flood-opacity="0" result="BackgroundImageFix"/>
<feBlend mode="normal" in="SourceGraphic" in2="BackgroundImageFix" result="shape"/>
<feGaussianBlur stdDeviation="0.125" result="effect1_foregroundBlur_637_22385"/>
</filter>
<filter id="filter7_f_637_22385" x="18.1987" y="24.4954" width="1.77502" height="1.5094" filterUnits="userSpaceOnUse" color-interpolation-filters="sRGB">
<feFlood flood-opacity="0" result="BackgroundImageFix"/>
<feBlend mode="normal" in="SourceGraphic" in2="BackgroundImageFix" result="shape"/>
<feGaussianBlur stdDeviation="0.125" result="effect1_foregroundBlur_637_22385"/>
</filter>
<filter id="filter8_f_637_22385" x="15.3062" y="29.3821" width="1.77502" height="1.5094" filterUnits="userSpaceOnUse" color-interpolation-filters="sRGB">
<feFlood flood-opacity="0" result="BackgroundImageFix"/>
<feBlend mode="normal" in="SourceGraphic" in2="BackgroundImageFix" result="shape"/>
<feGaussianBlur stdDeviation="0.125" result="effect1_foregroundBlur_637_22385"/>
</filter>
<linearGradient id="paint0_linear_637_22385" x1="11.7971" y1="34.3438" x2="11.7971" y2="31.5" gradientUnits="userSpaceOnUse">
<stop stop-color="#A3A560"/>
<stop offset="0.957511" stop-color="#A3A560" stop-opacity="0"/>
</linearGradient>
<radialGradient id="paint1_radial_637_22385" cx="0" cy="0" r="1" gradientUnits="userSpaceOnUse" gradientTransform="translate(13.5471 31.1719) rotate(90) scale(3.9375 4.36106)">
<stop offset="0.84" stop-color="#D4A6C6" stop-opacity="0"/>
<stop offset="0.979" stop-color="#D5A6C6"/>
</radialGradient>
<radialGradient id="paint2_radial_637_22385" cx="0" cy="0" r="1" gradientUnits="userSpaceOnUse" gradientTransform="translate(13.7502 30.5313) rotate(-108.52) scale(3.3451 2.12947)">
<stop offset="0.224598" stop-color="#79B037"/>
<stop offset="1" stop-color="#79B037" stop-opacity="0"/>
</radialGradient>
<radialGradient id="paint3_radial_637_22385" cx="0" cy="0" r="1" gradientUnits="userSpaceOnUse" gradientTransform="translate(13.6721 31.7656) rotate(169.695) scale(3.84324 3.8125)">
<stop offset="0.869455" stop-color="#F0FADA" stop-opacity="0"/>
<stop offset="1" stop-color="#F0FADA"/>
</radialGradient>
<radialGradient id="paint4_radial_637_22385" cx="0" cy="0" r="1" gradientUnits="userSpaceOnUse" gradientTransform="translate(22.0471 36) rotate(-165.763) scale(4.32019 2.61535)">
<stop stop-color="#79B037"/>
<stop offset="1" stop-color="#79B037" stop-opacity="0"/>
</radialGradient>
<linearGradient id="paint5_linear_637_22385" x1="14.9846" y1="38.3438" x2="14.9846" y2="36.25" gradientUnits="userSpaceOnUse">
<stop stop-color="#A3A560"/>
<stop offset="0.957511" stop-color="#A3A560" stop-opacity="0"/>
</linearGradient>
<linearGradient id="paint6_linear_637_22385" x1="18.3284" y1="34" x2="17.5159" y2="36.5" gradientUnits="userSpaceOnUse">
<stop offset="0.118712" stop-color="#858D4A"/>
<stop offset="0.957511" stop-color="#858D4A" stop-opacity="0"/>
</linearGradient>
<linearGradient id="paint7_linear_637_22385" x1="16.9914" y1="33.5625" x2="16.9914" y2="38.1406" gradientUnits="userSpaceOnUse">
<stop offset="0.808725" stop-color="#D4A6C6" stop-opacity="0"/>
<stop offset="0.979" stop-color="#D5A6C6"/>
</linearGradient>
<linearGradient id="paint8_linear_637_22385" x1="21.4481" y1="35.7589" x2="12.7893" y2="35.7589" gradientUnits="userSpaceOnUse">
<stop offset="0.938646" stop-color="#F0FADA" stop-opacity="0"/>
<stop offset="1" stop-color="#F0FADA"/>
</linearGradient>
<radialGradient id="paint9_radial_637_22385" cx="0" cy="0" r="1" gradientUnits="userSpaceOnUse" gradientTransform="translate(27.2971 33.9375) rotate(15.8192) scale(3.89762 2.35953)">
<stop stop-color="#79B037"/>
<stop offset="1" stop-color="#79B037" stop-opacity="0"/>
</radialGradient>
<linearGradient id="paint10_linear_637_22385" x1="29.9534" y1="39" x2="29.9534" y2="36.8125" gradientUnits="userSpaceOnUse">
<stop stop-color="#A3A560"/>
<stop offset="0.957511" stop-color="#A3A560" stop-opacity="0"/>
</linearGradient>
<linearGradient id="paint11_linear_637_22385" x1="30.6721" y1="33.9375" x2="31.9602" y2="36.75" gradientUnits="userSpaceOnUse">
<stop offset="0.118712" stop-color="#858D4A"/>
<stop offset="0.957511" stop-color="#858D4A" stop-opacity="0"/>
</linearGradient>
<linearGradient id="paint12_linear_637_22385" x1="31.9602" y1="33.5" x2="31.9602" y2="37.9375" gradientUnits="userSpaceOnUse">
<stop offset="0.808725" stop-color="#D4A6C6" stop-opacity="0"/>
<stop offset="0.979" stop-color="#D5A6C6"/>
</linearGradient>
<radialGradient id="paint13_radial_637_22385" cx="0" cy="0" r="1" gradientUnits="userSpaceOnUse" gradientTransform="translate(36.1721 34.875) rotate(154.878) scale(7.21361 1.91255)">
<stop stop-color="#C0EF52"/>
<stop offset="1" stop-color="#C0EF52" stop-opacity="0"/>
</radialGradient>
<linearGradient id="paint14_linear_637_22385" x1="36.8284" y1="32.9063" x2="36.6409" y2="34.7188" gradientUnits="userSpaceOnUse">
<stop stop-color="#C4FF66"/>
<stop offset="1" stop-color="#B0E254"/>
</linearGradient>
<linearGradient id="paint15_linear_637_22385" x1="36.9534" y1="32.8594" x2="36.7034" y2="33.1719" gradientUnits="userSpaceOnUse">
<stop stop-color="#B0E254"/>
<stop offset="1" stop-color="#B0E254" stop-opacity="0"/>
</linearGradient>
<linearGradient id="paint16_linear_637_22385" x1="35.7659" y1="35.8125" x2="35.6084" y2="34.0087" gradientUnits="userSpaceOnUse">
<stop stop-color="#A3A560"/>
<stop offset="0.957511" stop-color="#A3A560" stop-opacity="0"/>
</linearGradient>
<linearGradient id="paint17_linear_637_22385" x1="36.3926" y1="31.1588" x2="36.3926" y2="35.1406" gradientUnits="userSpaceOnUse">
<stop offset="0.903861" stop-color="#D4A6C6" stop-opacity="0"/>
<stop offset="0.964684" stop-color="#D5A6C6"/>
</linearGradient>
<radialGradient id="paint18_radial_637_22385" cx="0" cy="0" r="1" gradientUnits="userSpaceOnUse" gradientTransform="translate(32.4846 27.8793) rotate(-130.58) scale(7.49417 10.5379)">
<stop stop-color="#6FC1AD"/>
<stop offset="1" stop-color="#3B9990"/>
</radialGradient>
<radialGradient id="paint19_radial_637_22385" cx="0" cy="0" r="1" gradientUnits="userSpaceOnUse" gradientTransform="translate(24.468 22.4375) rotate(90) scale(7.125 12.5459)">
<stop stop-color="#4CA589"/>
<stop offset="1" stop-color="#4CA589" stop-opacity="0"/>
</radialGradient>
<linearGradient id="paint20_linear_637_22385" x1="24.468" y1="36" x2="24.468" y2="33.25" gradientUnits="userSpaceOnUse">
<stop stop-color="#3D7F92"/>
<stop offset="1" stop-color="#3D7F92" stop-opacity="0"/>
</linearGradient>
<linearGradient id="paint21_linear_637_22385" x1="38.2346" y1="33.25" x2="34.2971" y2="33.25" gradientUnits="userSpaceOnUse">
<stop stop-color="#3D7F92"/>
<stop offset="1" stop-color="#3D7F92" stop-opacity="0"/>
</linearGradient>
<radialGradient id="paint22_radial_637_22385" cx="0" cy="0" r="1" gradientUnits="userSpaceOnUse" gradientTransform="translate(13.614 27.8793) rotate(16.2208) scale(5.91201 6.50475)">
<stop stop-color="#7CAE9F"/>
<stop offset="1" stop-color="#7CAE9F" stop-opacity="0"/>
</radialGradient>
<linearGradient id="paint23_linear_637_22385" x1="24.468" y1="36.0625" x2="24.468" y2="33.75" gradientUnits="userSpaceOnUse">
<stop stop-color="#3C9A91"/>
<stop offset="1" stop-color="#3C9A91" stop-opacity="0"/>
</linearGradient>
<linearGradient id="paint24_linear_637_22385" x1="24.468" y1="35.375" x2="24.468" y2="33.25" gradientUnits="userSpaceOnUse">
<stop stop-color="#3D7F92"/>
<stop offset="0.647059" stop-color="#3D7F92" stop-opacity="0"/>
</linearGradient>
<radialGradient id="paint25_radial_637_22385" cx="0" cy="0" r="1" gradientUnits="userSpaceOnUse" gradientTransform="translate(12.2199 30.7316) rotate(-40.6013) scale(0.813489)">
<stop stop-color="#5A2D67"/>
<stop offset="1" stop-color="#2B2426"/>
</radialGradient>
<radialGradient id="paint26_radial_637_22385" cx="0" cy="0" r="1" gradientUnits="userSpaceOnUse" gradientTransform="translate(12.8518 30.7891) rotate(-140.622) scale(1.07134 0.712095)">
<stop offset="0.686147" stop-color="#736C6C" stop-opacity="0"/>
<stop offset="1" stop-color="#736C6C"/>
</radialGradient>
<linearGradient id="paint27_linear_637_22385" x1="24.4768" y1="25.5625" x2="24.4768" y2="35.375" gradientUnits="userSpaceOnUse">
<stop stop-color="#67BD5B"/>
<stop offset="1" stop-color="#6CB768"/>
</linearGradient>
<radialGradient id="paint28_radial_637_22385" cx="0" cy="0" r="1" gradientUnits="userSpaceOnUse" gradientTransform="translate(30.6721 24.625) rotate(109.058) scale(14.5473 30.7419)">
<stop stop-color="#6CD45B"/>
<stop offset="1" stop-color="#6CD45B" stop-opacity="0"/>
</radialGradient>
<linearGradient id="paint29_linear_637_22385" x1="30.4534" y1="24.4375" x2="25.6721" y2="26.75" gradientUnits="userSpaceOnUse">
<stop stop-color="#87E27A"/>
<stop offset="1" stop-color="#87E27A" stop-opacity="0"/>
</linearGradient>
<linearGradient id="paint30_linear_637_22385" x1="32.844" y1="29.6523" x2="19.7971" y2="34" gradientUnits="userSpaceOnUse">
<stop stop-color="#87E27A"/>
<stop offset="1" stop-color="#87E27A" stop-opacity="0"/>
</linearGradient>
<linearGradient id="paint31_linear_637_22385" x1="20.8173" y1="26.5788" x2="17.7663" y2="26.7443" gradientUnits="userSpaceOnUse">
<stop stop-color="#87E27A"/>
<stop offset="1" stop-color="#87E27A" stop-opacity="0"/>
</linearGradient>
<linearGradient id="paint32_linear_637_22385" x1="18.6799" y1="24.8203" x2="19.5732" y2="26.5828" gradientUnits="userSpaceOnUse">
<stop stop-color="#87E27A"/>
<stop offset="1" stop-color="#87E27A" stop-opacity="0"/>
</linearGradient>
<linearGradient id="paint33_linear_637_22385" x1="15.7874" y1="29.707" x2="16.6806" y2="31.4696" gradientUnits="userSpaceOnUse">
<stop stop-color="#87E27A"/>
<stop offset="1" stop-color="#87E27A" stop-opacity="0"/>
</linearGradient>
</defs>
</svg>
