<svg width="48" height="48" viewBox="0 0 48 48" fill="none" xmlns="http://www.w3.org/2000/svg">
<rect width="48" height="48" rx="24" fill="#F2F5FF"/>
<path d="M35.48 18.8413C35.82 18.1113 36.01 17.3013 36 16.4413C35.96 13.4813 33.57 11.0713 30.62 11.0013C27.79 10.9413 25.43 13.0113 25.05 15.7313C25.03 15.8813 24.9 16.0013 24.74 16.0013H23.25C23.09 16.0013 22.96 15.8813 22.94 15.7313C22.57 13.0213 20.21 10.9413 17.38 11.0013C14.43 11.0713 12.04 13.4813 12 16.4313C11.99 17.2913 12.18 18.1113 12.52 18.8313C12.67 19.1613 12.62 19.5513 12.39 19.8313C10.9 21.6513 10 23.9713 10 26.5013C10 32.3013 14.7 37.0013 20.5 37.0013H27.5C33.3 37.0013 38 32.3013 38 26.5013C38 23.9713 37.1 21.6513 35.61 19.8313C35.38 19.5513 35.33 19.1713 35.48 18.8413Z" fill="url(#paint0_radial_637_22370)"/>
<path d="M35.48 18.8413C35.82 18.1113 36.01 17.3013 36 16.4413C35.96 13.4813 33.57 11.0713 30.62 11.0013C27.79 10.9413 25.43 13.0113 25.05 15.7313C25.03 15.8813 24.9 16.0013 24.74 16.0013H23.25C23.09 16.0013 22.96 15.8813 22.94 15.7313C22.57 13.0213 20.21 10.9413 17.38 11.0013C14.43 11.0713 12.04 13.4813 12 16.4313C11.99 17.2913 12.18 18.1113 12.52 18.8313C12.67 19.1613 12.62 19.5513 12.39 19.8313C10.9 21.6513 10 23.9713 10 26.5013C10 32.3013 14.7 37.0013 20.5 37.0013H27.5C33.3 37.0013 38 32.3013 38 26.5013C38 23.9713 37.1 21.6513 35.61 19.8313C35.38 19.5513 35.33 19.1713 35.48 18.8413Z" fill="url(#paint1_radial_637_22370)"/>
<path d="M35.48 18.8413C35.82 18.1113 36.01 17.3013 36 16.4413C35.96 13.4813 33.57 11.0713 30.62 11.0013C27.79 10.9413 25.43 13.0113 25.05 15.7313C25.03 15.8813 24.9 16.0013 24.74 16.0013H23.25C23.09 16.0013 22.96 15.8813 22.94 15.7313C22.57 13.0213 20.21 10.9413 17.38 11.0013C14.43 11.0713 12.04 13.4813 12 16.4313C11.99 17.2913 12.18 18.1113 12.52 18.8313C12.67 19.1613 12.62 19.5513 12.39 19.8313C10.9 21.6513 10 23.9713 10 26.5013C10 32.3013 14.7 37.0013 20.5 37.0013H27.5C33.3 37.0013 38 32.3013 38 26.5013C38 23.9713 37.1 21.6513 35.61 19.8313C35.38 19.5513 35.33 19.1713 35.48 18.8413Z" fill="url(#paint2_radial_637_22370)"/>
<path d="M17.5 20.0001C19.433 20.0001 21 18.4331 21 16.5001C21 14.5671 19.433 13.0001 17.5 13.0001C15.567 13.0001 14 14.5671 14 16.5001C14 18.4331 15.567 20.0001 17.5 20.0001Z" fill="#F8D41E"/>
<path d="M17.5 19.0001C18.8807 19.0001 20 17.8808 20 16.5001C20 15.1194 18.8807 14.0001 17.5 14.0001C16.1193 14.0001 15 15.1194 15 16.5001C15 17.8808 16.1193 19.0001 17.5 19.0001Z" fill="url(#paint3_radial_637_22370)"/>
<path d="M30.5 20.0001C32.433 20.0001 34 18.4331 34 16.5001C34 14.5671 32.433 13.0001 30.5 13.0001C28.567 13.0001 27 14.5671 27 16.5001C27 18.4331 28.567 20.0001 30.5 20.0001Z" fill="#F8D41E"/>
<path d="M30.5 19.0012C31.8807 19.0012 33 17.8819 33 16.5012C33 15.1205 31.8807 14.0012 30.5 14.0012C29.1193 14.0012 28 15.1205 28 16.5012C28 17.8819 29.1193 19.0012 30.5 19.0012Z" fill="url(#paint4_radial_637_22370)"/>
<path d="M25.5 22.0012C25.7761 22.0012 26 21.7774 26 21.5012C26 21.2251 25.7761 21.0012 25.5 21.0012C25.2239 21.0012 25 21.2251 25 21.5012C25 21.7774 25.2239 22.0012 25.5 22.0012Z" fill="#30223D"/>
<path d="M22.5 22.0012C22.7761 22.0012 23 21.7774 23 21.5012C23 21.2251 22.7761 21.0012 22.5 21.0012C22.2239 21.0012 22 21.2251 22 21.5012C22 21.7774 22.2239 22.0012 22.5 22.0012Z" fill="#30223D"/>
<path d="M35.57 28.3912C34.39 28.3912 33.3 27.9912 32.42 27.3312C30.11 25.4812 27.18 24.3812 23.99 24.3812C20.77 24.3812 17.82 25.5012 15.5 27.3812V27.3712C14.64 28.0112 13.56 28.3912 12.4 28.3912H10.17C11.06 33.2912 15.35 37.0012 20.5 37.0012H27.5C32.65 37.0012 36.94 33.2912 37.83 28.3912H35.57Z" fill="url(#paint5_linear_637_22370)"/>
<defs>
<radialGradient id="paint0_radial_637_22370" cx="0" cy="0" r="1" gradientUnits="userSpaceOnUse" gradientTransform="translate(30.375 24.0006) rotate(177.024) scale(21.6542 23.3188)">
<stop offset="0.131304" stop-color="#63F6AE"/>
<stop offset="1" stop-color="#4EB883"/>
</radialGradient>
<radialGradient id="paint1_radial_637_22370" cx="0" cy="0" r="1" gradientUnits="userSpaceOnUse" gradientTransform="translate(19.125 15.7812) rotate(-60.5463) scale(3.05052 4.46645)">
<stop stop-color="#60EEA4"/>
<stop offset="1" stop-color="#60EEA4" stop-opacity="0"/>
</radialGradient>
<radialGradient id="paint2_radial_637_22370" cx="0" cy="0" r="1" gradientUnits="userSpaceOnUse" gradientTransform="translate(31.7813 16.6563) rotate(-67.1095) scale(4.57938 6.00348)">
<stop stop-color="#60EEA4"/>
<stop offset="1" stop-color="#60EEA4" stop-opacity="0"/>
</radialGradient>
<radialGradient id="paint3_radial_637_22370" cx="0" cy="0" r="1" gradientUnits="userSpaceOnUse" gradientTransform="translate(20 15.1251) rotate(147.095) scale(3.79659 1.97422)">
<stop stop-color="#5E5764"/>
<stop offset="1" stop-color="#3C2A4F"/>
</radialGradient>
<radialGradient id="paint4_radial_637_22370" cx="0" cy="0" r="1" gradientUnits="userSpaceOnUse" gradientTransform="translate(33 15.1262) rotate(147.095) scale(3.79659 1.97422)">
<stop stop-color="#5E5764"/>
<stop offset="1" stop-color="#3C2A4F"/>
</radialGradient>
<linearGradient id="paint5_linear_637_22370" x1="24" y1="49.8749" x2="24" y2="26.1249" gradientUnits="userSpaceOnUse">
<stop offset="0.513158" stop-color="#FF95F4"/>
<stop offset="0.605263" stop-color="#FA946C"/>
<stop offset="1" stop-color="#FFE55D"/>
</linearGradient>
</defs>
</svg>
