<svg width="48" height="48" viewBox="0 0 48 48" fill="none" xmlns="http://www.w3.org/2000/svg">
<rect width="48" height="48" rx="24" fill="#F2F5FF"/>
<path d="M18 18H14.09C11.83 18 10 16.17 10 13.91V12.62C10 12.28 10.28 12 10.62 12H13.9C16.17 12 18 13.83 18 16.09V18Z" fill="url(#paint0_linear_637_22368)"/>
<path d="M18 18H14.09C11.83 18 10 16.17 10 13.91V12.62C10 12.28 10.28 12 10.62 12H13.9C16.17 12 18 13.83 18 16.09V18Z" fill="url(#paint1_linear_637_22368)"/>
<path d="M18 18H14.09C11.83 18 10 16.17 10 13.91V12.62C10 12.28 10.28 12 10.62 12H13.9C16.17 12 18 13.83 18 16.09V18Z" fill="url(#paint2_radial_637_22368)"/>
<path d="M24.0001 37.9899C27.1205 37.9899 29.6501 35.4604 29.6501 32.3399C29.6501 29.2195 27.1205 26.6899 24.0001 26.6899C20.8797 26.6899 18.3501 29.2195 18.3501 32.3399C18.3501 35.4604 20.8797 37.9899 24.0001 37.9899Z" fill="url(#paint3_radial_637_22368)"/>
<path d="M22.1301 14.24C21.4501 13.06 21.4401 11.68 21.9801 10.54C22.1201 10.23 21.8201 9.90998 21.5101 10.03C21.2601 10.13 21.0201 10.25 20.7901 10.41C19.0901 11.53 18.5101 13.79 19.4501 15.59C20.5101 17.62 23.0301 18.34 25.0001 17.2C25.4601 16.93 25.8501 16.59 26.1501 16.2C24.5801 16.42 22.9701 15.69 22.1301 14.24Z" fill="url(#paint4_linear_637_22368)"/>
<path d="M22.1301 14.24C21.4501 13.06 21.4401 11.68 21.9801 10.54C22.1201 10.23 21.8201 9.90998 21.5101 10.03C21.2601 10.13 21.0201 10.25 20.7901 10.41C19.0901 11.53 18.5101 13.79 19.4501 15.59C20.5101 17.62 23.0301 18.34 25.0001 17.2C25.4601 16.93 25.8501 16.59 26.1501 16.2C24.5801 16.42 22.9701 15.69 22.1301 14.24Z" fill="url(#paint5_linear_637_22368)"/>
<path d="M22.1301 14.24C21.4501 13.06 21.4401 11.68 21.9801 10.54C22.1201 10.23 21.8201 9.90998 21.5101 10.03C21.2601 10.13 21.0201 10.25 20.7901 10.41C19.0901 11.53 18.5101 13.79 19.4501 15.59C20.5101 17.62 23.0301 18.34 25.0001 17.2C25.4601 16.93 25.8501 16.59 26.1501 16.2C24.5801 16.42 22.9701 15.69 22.1301 14.24Z" fill="url(#paint6_radial_637_22368)" fill-opacity="0.75"/>
<g filter="url(#filter0_f_637_22368)">
<path d="M21.6094 10.5062C21.151 11.0531 20.4438 12.5719 21.2813 14.2719" stroke="url(#paint7_linear_637_22368)" stroke-width="0.25" stroke-linecap="round"/>
</g>
<path d="M26.8701 14.24C27.5501 13.06 27.5601 11.68 27.0201 10.54C26.8801 10.23 27.1801 9.90998 27.4901 10.03C27.7401 10.13 27.9801 10.25 28.2101 10.41C29.9101 11.53 30.4901 13.79 29.5501 15.59C28.4901 17.62 25.9701 18.34 24.0001 17.2C23.5401 16.93 23.1501 16.59 22.8501 16.2C24.4201 16.42 26.0301 15.69 26.8701 14.24Z" fill="url(#paint8_linear_637_22368)"/>
<path d="M26.8701 14.24C27.5501 13.06 27.5601 11.68 27.0201 10.54C26.8801 10.23 27.1801 9.90998 27.4901 10.03C27.7401 10.13 27.9801 10.25 28.2101 10.41C29.9101 11.53 30.4901 13.79 29.5501 15.59C28.4901 17.62 25.9701 18.34 24.0001 17.2C23.5401 16.93 23.1501 16.59 22.8501 16.2C24.4201 16.42 26.0301 15.69 26.8701 14.24Z" fill="url(#paint9_linear_637_22368)"/>
<g filter="url(#filter1_f_637_22368)">
<path d="M27.7656 10.5844C28.4062 10.8812 29.5938 12.8969 29.0781 14.4594" stroke="url(#paint10_linear_637_22368)" stroke-width="0.25" stroke-linecap="round"/>
</g>
<path d="M27.7237 14H19.3125C16.7425 14 15 16.4375 15 18.69V30.47H33V18.69C33 16.1 30.6375 14 27.7237 14Z" fill="url(#paint11_linear_637_22368)"/>
<path d="M27.7237 14H19.3125C16.7425 14 15 16.4375 15 18.69V30.47H33V18.69C33 16.1 30.6375 14 27.7237 14Z" fill="url(#paint12_linear_637_22368)"/>
<path d="M27.7237 14H19.3125C16.7425 14 15 16.4375 15 18.69V30.47H33V18.69C33 16.1 30.6375 14 27.7237 14Z" fill="url(#paint13_linear_637_22368)"/>
<path d="M27.7237 14H19.3125C16.7425 14 15 16.4375 15 18.69V30.47H33V18.69C33 16.1 30.6375 14 27.7237 14Z" fill="url(#paint14_radial_637_22368)"/>
<path d="M13.91 13.5C15.08 13.5 16.08 14.28 16.39 15.35C16.05 15.69 15.77 16.08 15.54 16.5H14.09C12.66 16.5 11.5 15.34 11.5 13.91V13.71C11.5 13.59 11.59 13.5 11.71 13.5H13.91Z" fill="url(#paint15_radial_637_22368)"/>
<path d="M13.91 13.5C15.08 13.5 16.08 14.28 16.39 15.35C16.05 15.69 15.77 16.08 15.54 16.5H14.09C12.66 16.5 11.5 15.34 11.5 13.91V13.71C11.5 13.59 11.59 13.5 11.71 13.5H13.91Z" fill="url(#paint16_radial_637_22368)"/>
<path d="M30 18H33.91C36.17 18 38 16.17 38 13.91V12.62C38 12.28 37.72 12 37.37 12H34.09C31.83 12 30 13.83 30 16.09V18Z" fill="url(#paint17_linear_637_22368)"/>
<path d="M30 18H33.91C36.17 18 38 16.17 38 13.91V12.62C38 12.28 37.72 12 37.37 12H34.09C31.83 12 30 13.83 30 16.09V18Z" fill="url(#paint18_linear_637_22368)"/>
<path d="M30 18H33.91C36.17 18 38 16.17 38 13.91V12.62C38 12.28 37.72 12 37.37 12H34.09C31.83 12 30 13.83 30 16.09V18Z" fill="url(#paint19_radial_637_22368)"/>
<path d="M30.3 18H32.95C32.62 15.74 30.67 14 28.31 14H24L26.38 16.38C27.42 17.42 28.83 18 30.3 18Z" fill="url(#paint20_radial_637_22368)"/>
<path d="M24 26.46V21.95C24 18.6737 20.2305 14.455 17.4805 14.455C16.3633 14.9944 15 16.5018 15 18.51V28L24 26.46Z" fill="url(#paint21_linear_637_22368)"/>
<path d="M24 26.46V21.95C24 18.6737 20.2305 14.455 17.4805 14.455C16.3633 14.9944 15 16.5018 15 18.51V28L24 26.46Z" fill="url(#paint22_linear_637_22368)"/>
<path d="M34 30.4211C33.96 27.4111 31.47 24.9911 28.48 25.0011H19.72C19.68 25.0011 19.65 25.0011 19.61 25.0011C16.58 24.9411 14.04 27.3911 14 30.4211C13.96 33.5011 16.44 36.0011 19.5 36.0011H28.5C31.56 36.0011 34.04 33.5011 34 30.4211Z" fill="url(#paint23_linear_637_22368)"/>
<path d="M34 30.4211C33.96 27.4111 31.47 24.9911 28.48 25.0011H19.72C19.68 25.0011 19.65 25.0011 19.61 25.0011C16.58 24.9411 14.04 27.3911 14 30.4211C13.96 33.5011 16.44 36.0011 19.5 36.0011H28.5C31.56 36.0011 34.04 33.5011 34 30.4211Z" fill="url(#paint24_radial_637_22368)"/>
<path d="M34 30.4211C33.96 27.4111 31.47 24.9911 28.48 25.0011H19.72C19.68 25.0011 19.65 25.0011 19.61 25.0011C16.58 24.9411 14.04 27.3911 14 30.4211C13.96 33.5011 16.44 36.0011 19.5 36.0011H28.5C31.56 36.0011 34.04 33.5011 34 30.4211Z" fill="url(#paint25_linear_637_22368)"/>
<path d="M34 30.4211C33.96 27.4111 31.47 24.9911 28.48 25.0011H19.72C19.68 25.0011 19.65 25.0011 19.61 25.0011C16.58 24.9411 14.04 27.3911 14 30.4211C13.96 33.5011 16.44 36.0011 19.5 36.0011H28.5C31.56 36.0011 34.04 33.5011 34 30.4211Z" fill="url(#paint26_linear_637_22368)"/>
<path d="M34.09 13.5C32.92 13.5 31.92 14.28 31.61 15.35C31.95 15.68 32.24 16.07 32.46 16.5H33.91C35.34 16.5 36.5 15.34 36.5 13.91V13.71C36.5 13.59 36.41 13.5 36.29 13.5H34.09Z" fill="#F4B9A8"/>
<g filter="url(#filter2_i_637_22368)">
<path d="M34.09 13.5C32.92 13.5 31.92 14.28 31.61 15.35C31.95 15.68 32.24 16.07 32.46 16.5H33.91C35.34 16.5 36.5 15.34 36.5 13.91V13.71C36.5 13.59 36.41 13.5 36.29 13.5H34.09Z" fill="url(#paint27_radial_637_22368)"/>
</g>
<path d="M21 30C21.5523 30 22 29.5523 22 29C22 28.4477 21.5523 28 21 28C20.4477 28 20 28.4477 20 29C20 29.5523 20.4477 30 21 30Z" fill="url(#paint28_radial_637_22368)"/>
<path d="M27 30C27.5523 30 28 29.5523 28 29C28 28.4477 27.5523 28 27 28C26.4477 28 26 28.4477 26 29C26 29.5523 26.4477 30 27 30Z" fill="url(#paint29_radial_637_22368)"/>
<g filter="url(#filter3_f_637_22368)">
<rect x="19.0946" y="21.1554" width="1.65541" height="2.68917" rx="0.827707" fill="#4E4854"/>
</g>
<rect x="19.25" y="21" width="1.5" height="3" rx="0.75" fill="url(#paint30_linear_637_22368)"/>
<rect x="19.25" y="21" width="1.5" height="3" rx="0.75" fill="url(#paint31_linear_637_22368)"/>
<rect x="19.25" y="21" width="1.5" height="3" rx="0.75" fill="url(#paint32_linear_637_22368)"/>
<g filter="url(#filter4_f_637_22368)">
<rect x="27.0453" y="21.1554" width="1.34459" height="2.68917" rx="0.672293" fill="#BBB1BB"/>
</g>
<rect x="27.25" y="21" width="1.5" height="3" rx="0.75" fill="url(#paint33_linear_637_22368)"/>
<rect x="27.25" y="21" width="1.5" height="3" rx="0.75" fill="url(#paint34_linear_637_22368)"/>
<rect x="27.25" y="21" width="1.5" height="3" rx="0.75" fill="url(#paint35_linear_637_22368)"/>
<rect x="27.25" y="21" width="1.5" height="3" rx="0.75" fill="url(#paint36_radial_637_22368)"/>
<g filter="url(#filter5_f_637_22368)">
<ellipse cx="30.226" cy="29" rx="3.65413" ry="2.98812" transform="rotate(47.9658 30.226 29)" fill="url(#paint37_radial_637_22368)"/>
</g>
<defs>
<filter id="filter0_f_637_22368" x="20.017" y="9.63123" width="2.46741" height="5.51562" filterUnits="userSpaceOnUse" color-interpolation-filters="sRGB">
<feFlood flood-opacity="0" result="BackgroundImageFix"/>
<feBlend mode="normal" in="SourceGraphic" in2="BackgroundImageFix" result="shape"/>
<feGaussianBlur stdDeviation="0.375" result="effect1_foregroundBlur_637_22368"/>
</filter>
<filter id="filter1_f_637_22368" x="26.8906" y="9.70935" width="3.18884" height="5.625" filterUnits="userSpaceOnUse" color-interpolation-filters="sRGB">
<feFlood flood-opacity="0" result="BackgroundImageFix"/>
<feBlend mode="normal" in="SourceGraphic" in2="BackgroundImageFix" result="shape"/>
<feGaussianBlur stdDeviation="0.375" result="effect1_foregroundBlur_637_22368"/>
</filter>
<filter id="filter2_i_637_22368" x="31.61" y="13.5" width="4.89001" height="3.3" filterUnits="userSpaceOnUse" color-interpolation-filters="sRGB">
<feFlood flood-opacity="0" result="BackgroundImageFix"/>
<feBlend mode="normal" in="SourceGraphic" in2="BackgroundImageFix" result="shape"/>
<feColorMatrix in="SourceAlpha" type="matrix" values="0 0 0 0 0 0 0 0 0 0 0 0 0 0 0 0 0 0 127 0" result="hardAlpha"/>
<feOffset dy="0.3"/>
<feGaussianBlur stdDeviation="0.25"/>
<feComposite in2="hardAlpha" operator="arithmetic" k2="-1" k3="1"/>
<feColorMatrix type="matrix" values="0 0 0 0 0.890196 0 0 0 0 0.486275 0 0 0 0 0.490196 0 0 0 1 0"/>
<feBlend mode="normal" in2="shape" result="effect1_innerShadow_637_22368"/>
</filter>
<filter id="filter3_f_637_22368" x="18.5946" y="20.6554" width="2.6554" height="3.68921" filterUnits="userSpaceOnUse" color-interpolation-filters="sRGB">
<feFlood flood-opacity="0" result="BackgroundImageFix"/>
<feBlend mode="normal" in="SourceGraphic" in2="BackgroundImageFix" result="shape"/>
<feGaussianBlur stdDeviation="0.25" result="effect1_foregroundBlur_637_22368"/>
</filter>
<filter id="filter4_f_637_22368" x="26.5453" y="20.6554" width="2.3446" height="3.68921" filterUnits="userSpaceOnUse" color-interpolation-filters="sRGB">
<feFlood flood-opacity="0" result="BackgroundImageFix"/>
<feBlend mode="normal" in="SourceGraphic" in2="BackgroundImageFix" result="shape"/>
<feGaussianBlur stdDeviation="0.25" result="effect1_foregroundBlur_637_22368"/>
</filter>
<filter id="filter5_f_637_22368" x="25.9226" y="24.6279" width="8.60669" height="8.74414" filterUnits="userSpaceOnUse" color-interpolation-filters="sRGB">
<feFlood flood-opacity="0" result="BackgroundImageFix"/>
<feBlend mode="normal" in="SourceGraphic" in2="BackgroundImageFix" result="shape"/>
<feGaussianBlur stdDeviation="0.5" result="effect1_foregroundBlur_637_22368"/>
</filter>
<linearGradient id="paint0_linear_637_22368" x1="12.7813" y1="16.2874" x2="15.0937" y2="13.6312" gradientUnits="userSpaceOnUse">
<stop stop-color="#626061"/>
<stop offset="1" stop-color="#727273"/>
</linearGradient>
<linearGradient id="paint1_linear_637_22368" x1="14.3125" y1="18.6312" x2="14.3125" y2="15.5687" gradientUnits="userSpaceOnUse">
<stop stop-color="#5F4478"/>
<stop offset="1" stop-color="#5C4C69" stop-opacity="0"/>
</linearGradient>
<radialGradient id="paint2_radial_637_22368" cx="0" cy="0" r="1" gradientUnits="userSpaceOnUse" gradientTransform="translate(16.625 13.5999) rotate(144.583) scale(1.72555 3.09061)">
<stop stop-color="#878688"/>
<stop offset="1" stop-color="#878688" stop-opacity="0"/>
</radialGradient>
<radialGradient id="paint3_radial_637_22368" cx="0" cy="0" r="1" gradientUnits="userSpaceOnUse" gradientTransform="translate(24.0001 36.3749) rotate(90) scale(1.0625 4.52952)">
<stop stop-color="#D04568"/>
<stop offset="1" stop-color="#DA6585"/>
</radialGradient>
<linearGradient id="paint4_linear_637_22368" x1="25.7765" y1="10.0042" x2="25.7765" y2="16.0999" gradientUnits="userSpaceOnUse">
<stop stop-color="#F6D4AD"/>
<stop offset="1" stop-color="#D9AE7F"/>
</linearGradient>
<linearGradient id="paint5_linear_637_22368" x1="21.0938" y1="16.4437" x2="22.2188" y2="13.8726" gradientUnits="userSpaceOnUse">
<stop stop-color="#CB9964"/>
<stop offset="1" stop-color="#CB9964" stop-opacity="0"/>
</linearGradient>
<radialGradient id="paint6_radial_637_22368" cx="0" cy="0" r="1" gradientUnits="userSpaceOnUse" gradientTransform="translate(21.2813 12.6624) rotate(-158.276) scale(2.15291 3.83271)">
<stop offset="0.687437" stop-color="#CB9964" stop-opacity="0"/>
<stop offset="1" stop-color="#CB9964"/>
</radialGradient>
<linearGradient id="paint7_linear_637_22368" x1="21.3906" y1="11.0844" x2="21.6094" y2="16.5531" gradientUnits="userSpaceOnUse">
<stop stop-color="#FFF5E8"/>
<stop offset="1" stop-color="#FFE3BF" stop-opacity="0"/>
</linearGradient>
<linearGradient id="paint8_linear_637_22368" x1="29.6251" y1="7.84991" x2="29.6251" y2="15.7249" gradientUnits="userSpaceOnUse">
<stop stop-color="#F6D4AD"/>
<stop offset="1" stop-color="#D9AE7F"/>
</linearGradient>
<linearGradient id="paint9_linear_637_22368" x1="30.3751" y1="15.4124" x2="28.4688" y2="13.8726" gradientUnits="userSpaceOnUse">
<stop stop-color="#CB9964"/>
<stop offset="1" stop-color="#CB9964" stop-opacity="0"/>
</linearGradient>
<linearGradient id="paint10_linear_637_22368" x1="28.236" y1="11.0844" x2="28.0172" y2="16.5531" gradientUnits="userSpaceOnUse">
<stop stop-color="#FFF5E8"/>
<stop offset="1" stop-color="#FFE3BF" stop-opacity="0"/>
</linearGradient>
<linearGradient id="paint11_linear_637_22368" x1="19.625" y1="26.7874" x2="36.375" y2="26.7874" gradientUnits="userSpaceOnUse">
<stop stop-color="#D4D1D7"/>
<stop offset="1" stop-color="#FBF6FF"/>
</linearGradient>
<linearGradient id="paint12_linear_637_22368" x1="31" y1="26.7874" x2="33.75" y2="26.7874" gradientUnits="userSpaceOnUse">
<stop stop-color="#D4D1D7" stop-opacity="0"/>
<stop offset="1" stop-color="#D4D1D7"/>
</linearGradient>
<linearGradient id="paint13_linear_637_22368" x1="22.8437" y1="16.8812" x2="20.4062" y2="13.4749" gradientUnits="userSpaceOnUse">
<stop stop-color="#C3C0C7" stop-opacity="0"/>
<stop offset="1" stop-color="#BCB7C0"/>
</linearGradient>
<radialGradient id="paint14_radial_637_22368" cx="0" cy="0" r="1" gradientUnits="userSpaceOnUse" gradientTransform="translate(18.8125 15.0374) rotate(45.924) scale(5.48079 4.69199)">
<stop stop-color="#D4D1D7"/>
<stop offset="1" stop-color="#D4D1D7" stop-opacity="0"/>
</radialGradient>
<radialGradient id="paint15_radial_637_22368" cx="0" cy="0" r="1" gradientUnits="userSpaceOnUse" gradientTransform="translate(13.1094 15.9593) rotate(-150.627) scale(3.28118 2.21991)">
<stop stop-color="#FFB6AE"/>
<stop offset="1" stop-color="#E58082"/>
</radialGradient>
<radialGradient id="paint16_radial_637_22368" cx="0" cy="0" r="1" gradientUnits="userSpaceOnUse" gradientTransform="translate(14.1875 13.2249) rotate(97.7793) scale(1.79155 2.89642)">
<stop stop-color="#DB7376"/>
<stop offset="1" stop-color="#DB7376" stop-opacity="0"/>
</radialGradient>
<linearGradient id="paint17_linear_637_22368" x1="32.7813" y1="16.2874" x2="35.0937" y2="13.6312" gradientUnits="userSpaceOnUse">
<stop stop-color="#626061"/>
<stop offset="1" stop-color="#727273"/>
</linearGradient>
<linearGradient id="paint18_linear_637_22368" x1="34.3125" y1="18.3812" x2="34.3125" y2="15.5062" gradientUnits="userSpaceOnUse">
<stop stop-color="#5C4C69"/>
<stop offset="1" stop-color="#5C4C69" stop-opacity="0"/>
</linearGradient>
<radialGradient id="paint19_radial_637_22368" cx="0" cy="0" r="1" gradientUnits="userSpaceOnUse" gradientTransform="translate(36.8281 13.2874) rotate(141.017) scale(4.32169 1.46602)">
<stop stop-color="#878688"/>
<stop offset="1" stop-color="#878688" stop-opacity="0"/>
</radialGradient>
<radialGradient id="paint20_radial_637_22368" cx="0" cy="0" r="1" gradientUnits="userSpaceOnUse" gradientTransform="translate(28.875 18) rotate(-82.9251) scale(3.55211 4.10627)">
<stop stop-color="#8C8B8D"/>
<stop offset="1" stop-color="#747474"/>
</radialGradient>
<linearGradient id="paint21_linear_637_22368" x1="24.375" y1="19.705" x2="17.5625" y2="19.705" gradientUnits="userSpaceOnUse">
<stop stop-color="#706973"/>
<stop offset="1" stop-color="#6B696D"/>
</linearGradient>
<linearGradient id="paint22_linear_637_22368" x1="16.75" y1="24.9714" x2="13.4375" y2="24.9714" gradientUnits="userSpaceOnUse">
<stop stop-color="#828183" stop-opacity="0"/>
<stop offset="0.895833" stop-color="#828183"/>
<stop offset="1" stop-color="#828183"/>
</linearGradient>
<linearGradient id="paint23_linear_637_22368" x1="14.5625" y1="29.0999" x2="28.3125" y2="29.0999" gradientUnits="userSpaceOnUse">
<stop stop-color="#E7A8A9"/>
<stop offset="1" stop-color="#F3B9AD"/>
</linearGradient>
<radialGradient id="paint24_radial_637_22368" cx="0" cy="0" r="1" gradientUnits="userSpaceOnUse" gradientTransform="translate(25.125 27.9749) rotate(93.2809) scale(9.82861 20.8182)">
<stop offset="0.431515" stop-color="#D17DAE" stop-opacity="0"/>
<stop offset="1" stop-color="#CE79AD"/>
</radialGradient>
<linearGradient id="paint25_linear_637_22368" x1="24.5625" y1="31.9749" x2="24.5625" y2="37.4124" gradientUnits="userSpaceOnUse">
<stop offset="0.431515" stop-color="#D17DAE" stop-opacity="0"/>
<stop offset="1" stop-color="#AD618F"/>
</linearGradient>
<linearGradient id="paint26_linear_637_22368" x1="24.5625" y1="31.9749" x2="24.5625" y2="22.0374" gradientUnits="userSpaceOnUse">
<stop offset="0.603774" stop-color="#DE9E8F" stop-opacity="0"/>
<stop offset="1" stop-color="#DE9E8F"/>
</linearGradient>
<radialGradient id="paint27_radial_637_22368" cx="0" cy="0" r="1" gradientUnits="userSpaceOnUse" gradientTransform="translate(32.0625 16.0374) rotate(-31.4045) scale(4.8696 1.83808)">
<stop stop-color="#FFB6AE"/>
<stop offset="0.930921" stop-color="#E58082"/>
</radialGradient>
<radialGradient id="paint28_radial_637_22368" cx="0" cy="0" r="1" gradientUnits="userSpaceOnUse" gradientTransform="translate(20.3438 29) scale(1.15625)">
<stop stop-color="#FFA0A8"/>
<stop offset="1" stop-color="#FE7883"/>
</radialGradient>
<radialGradient id="paint29_radial_637_22368" cx="0" cy="0" r="1" gradientUnits="userSpaceOnUse" gradientTransform="translate(26.4844 29) scale(1.10938)">
<stop stop-color="#FFA0A8"/>
<stop offset="1" stop-color="#FE7883"/>
</radialGradient>
<linearGradient id="paint30_linear_637_22368" x1="20.75" y1="22.5" x2="19.8817" y2="22.5" gradientUnits="userSpaceOnUse">
<stop offset="0.307292" stop-color="#615154"/>
<stop offset="1" stop-color="#392833"/>
</linearGradient>
<linearGradient id="paint31_linear_637_22368" x1="20.9844" y1="24.0436" x2="20.9844" y2="22.6344" gradientUnits="userSpaceOnUse">
<stop stop-color="#552D52"/>
<stop offset="1" stop-color="#552D52" stop-opacity="0"/>
</linearGradient>
<linearGradient id="paint32_linear_637_22368" x1="18.7538" y1="23.2071" x2="19.5513" y2="23.2071" gradientUnits="userSpaceOnUse">
<stop stop-color="#594C4F"/>
<stop offset="1" stop-color="#594C4F" stop-opacity="0"/>
</linearGradient>
<linearGradient id="paint33_linear_637_22368" x1="28.75" y1="22.5" x2="27.8817" y2="22.5" gradientUnits="userSpaceOnUse">
<stop offset="0.225" stop-color="#594C4F"/>
<stop offset="1" stop-color="#392833"/>
</linearGradient>
<linearGradient id="paint34_linear_637_22368" x1="28.9844" y1="24.0436" x2="28.9844" y2="22.6344" gradientUnits="userSpaceOnUse">
<stop stop-color="#552D52"/>
<stop offset="1" stop-color="#552D52" stop-opacity="0"/>
</linearGradient>
<linearGradient id="paint35_linear_637_22368" x1="26.7538" y1="23.2071" x2="27.7873" y2="23.2071" gradientUnits="userSpaceOnUse">
<stop stop-color="#594C4F"/>
<stop offset="1" stop-color="#594C4F" stop-opacity="0"/>
</linearGradient>
<radialGradient id="paint36_radial_637_22368" cx="0" cy="0" r="1" gradientUnits="userSpaceOnUse" gradientTransform="translate(28.2919 22.6796) rotate(-109.485) scale(1.73469 1.68629)">
<stop offset="0.813951" stop-color="#594C4F" stop-opacity="0"/>
<stop offset="1" stop-color="#594C4F"/>
</radialGradient>
<radialGradient id="paint37_radial_637_22368" cx="0" cy="0" r="1" gradientUnits="userSpaceOnUse" gradientTransform="translate(30.2713 27.3255) rotate(90.557) scale(4.66288 4.48435)">
<stop stop-color="#FFD9CF"/>
<stop stop-color="#FFD9CF"/>
<stop offset="1" stop-color="#FFD9CF" stop-opacity="0"/>
</radialGradient>
</defs>
</svg>
